<svg version="1.2" xmlns="http://www.w3.org/2000/svg" viewBox="0 0 1095 989" width="1095" height="989">
	<style>
		.s0 { fill: #fdfefe } 
	</style>
	<g id="icons">
		<path id="-e adventure effect" fill-rule="evenodd" class="s0" d="m543.5 0.13c3.85-0.05 9.7 0.62 13 1.48 3.3 0.87 8.92 3.29 12.5 5.37 3.57 2.09 8.92 5.98 11.88 8.66 2.95 2.67 7.59 8.23 10.31 12.36 2.72 4.12 5.57 9.75 6.34 12.5 0.78 2.75 3.67 12.65 6.42 22 2.76 9.35 6.33 21.95 7.92 28 1.6 6.05 4.24 15.5 5.87 21 1.63 5.5 4.94 16.65 7.36 24.77 2.42 8.13 4.85 14.76 5.4 14.73 0.55-0.02 9.55-4.47 20-9.89 10.45-5.42 22.26-11.93 26.25-14.48 3.99-2.55 7.59-4.64 8-4.64 0.41-0.01 8.4-4.35 17.75-9.65 9.35-5.3 19.92-11.34 23.5-13.43 3.57-2.09 8.75-4.79 11.5-6.01 4.12-1.83 7.36-2.29 18.5-2.64 12.72-0.4 13.93-0.27 21 2.27 4.12 1.49 9.52 3.72 12 4.96 2.47 1.24 7.14 4.67 10.37 7.63 3.22 2.96 7.63 8.08 9.78 11.38 2.16 3.3 4.16 7.57 4.44 9.5 0.28 1.92 1.24 7.55 2.12 12.5 1.36 7.56 1.43 10.36 0.45 17.5-0.83 6.07-2.26 10.79-4.99 16.5-2.1 4.4-8.08 15.42-13.3 24.5-5.22 9.07-11.75 20.55-14.52 25.5-2.76 4.95-7.63 13.72-10.82 19.5-3.18 5.77-7.67 13.42-9.96 17-2.3 3.57-4.94 8.19-5.87 10.25-0.94 2.06-1.71 4.31-1.73 5-0.02 0.72 4.37 2.66 10.25 4.54 5.65 1.81 13.88 4.36 18.28 5.66 4.4 1.31 12.27 3.59 17.5 5.08 5.22 1.49 11.19 3.33 13.25 4.09 2.06 0.76 7.01 2.06 11 2.89 3.99 0.83 16.95 4.54 28.8 8.25 14.26 4.46 23.02 7.75 25.9 9.74 2.38 1.65 7.72 6.6 11.86 11 5.05 5.38 8.6 10.29 10.84 15 2.81 5.93 3.42 8.53 3.96 17 0.38 5.89 0.18 12.98-0.49 17.25-0.61 3.99-2.2 9.39-3.52 12-1.32 2.61-5.37 8.24-9 12.5-3.63 4.26-9.03 9.66-12 12-4.58 3.61-7.77 4.96-21.25 9-8.72 2.62-19.9 5.81-24.85 7.1-4.95 1.29-14.4 3.8-21 5.58-6.6 1.78-14.7 4.1-18 5.16-3.3 1.05-13.2 3.94-22 6.43-8.8 2.48-16.56 4.5-17.25 4.5-0.69-0.01-1.25 0.65-1.25 1.48 0 0.82 2.99 7.24 6.63 14.25 3.65 7.01 7.86 14.55 9.36 16.75 1.5 2.2 4.68 7.6 7.07 12 2.39 4.4 6.07 10.7 8.17 14 2.1 3.3 3.81 6.34 3.8 6.75-0.02 0.41 4.18 8.51 9.32 18 5.14 9.49 11.05 21.07 13.12 25.75 3.29 7.44 3.83 9.75 4.28 18.5 0.47 8.84 0.21 11.1-2.19 19.5-1.5 5.22-4.38 12.63-6.39 16.46-3.19 6.06-4.76 7.76-12 13-4.59 3.32-10.89 7.16-14 8.54-5.37 2.37-6.61 2.5-40.67 2.37l-6.5-3.23c-3.58-1.78-7.4-4.07-8.5-5.11-1.1-1.03-6.5-4.19-12-7.03-5.5-2.84-13.28-7.04-17.3-9.33-4.01-2.29-10.99-6.38-15.5-9.07-4.51-2.7-15.4-8.71-24.2-13.35-8.8-4.64-18.36-9.75-21.25-11.35-2.89-1.59-5.48-2.9-5.75-2.9-0.28 0-0.5 0.9-0.5 2 0 1.1-1.83 7.74-4.07 14.75-2.24 7.01-4.49 15-5.01 17.75-0.52 2.75-2.98 11.75-5.46 20-2.48 8.25-6.05 20.17-7.93 26.5-1.88 6.32-4.58 15.55-5.99 20.5-1.42 4.95-3.26 11.47-4.1 14.5-0.9 3.24-3.28 7.76-5.79 11-2.35 3.02-7.84 8.54-12.21 12.25-4.37 3.71-10.19 7.86-12.94 9.22-2.75 1.36-7.93 3.22-11.5 4.13-4.57 1.16-8.73 1.48-14 1.09-4.13-0.3-10.88-1.72-15-3.14-4.13-1.43-9.75-4.1-12.5-5.94-2.75-1.83-8.15-6.24-12-9.81-5.02-4.64-7.76-8.14-9.7-12.38-1.49-3.26-3.88-10.87-5.3-16.92-1.43-6.05-3.44-13.48-4.47-16.5-1.04-3.03-5.77-19.45-10.53-36.5-4.76-17.05-9.51-33.93-10.55-37.5-1.05-3.58-2.29-8.08-2.76-10-0.73-2.93-1.26-3.45-3.28-3.2-1.33 0.16-9.16 4.18-17.41 8.92-8.25 4.75-21.75 12.3-30 16.78-8.25 4.47-22.43 12.31-31.5 17.42-9.08 5.11-17.85 10.02-19.5 10.91-1.65 0.9-5.03 2.87-7.5 4.38-4.18 2.55-5.28 2.74-15.5 2.76-6.05 0.01-14.83-0.44-19.5-1-6.32-0.76-10.04-1.84-14.5-4.23-3.58-1.91-9.43-6.64-14.52-11.72-7.3-7.29-8.96-9.6-11.5-16-2.9-7.26-2.98-7.95-2.98-41.56l4.25-7.23c2.34-3.98 4.25-7.57 4.25-7.98 0-0.41 1.63-3.45 3.62-6.75 1.98-3.3 6.31-11.18 9.6-17.5 3.3-6.33 6.78-12.63 7.75-14 0.96-1.38 4.13-7 7.05-12.5 2.91-5.5 7.64-13.83 10.49-18.5 2.85-4.68 7.06-11.99 9.34-16.25 2.28-4.26 4.15-8.43 4.15-9.25 0-0.83-1.69-2.13-3.75-2.9-2.06-0.77-7.58-2.35-12.25-3.51-4.68-1.15-21.1-5.73-36.5-10.17-15.4-4.44-31.6-8.89-36-9.89-4.4-1-14.08-3.84-21.5-6.31-13.29-4.44-13.62-4.62-21.43-11.86-4.35-4.05-9.77-9.84-12.02-12.86-2.26-3.03-5.37-8.88-6.91-13-2.59-6.92-2.78-8.35-2.4-18.5 0.34-9.15 0.87-12.09 3.15-17.5 1.51-3.58 5.4-10.1 8.64-14.5 3.31-4.47 8.68-10.14 12.19-12.86 3.45-2.67 8.3-5.89 10.78-7.15 2.47-1.26 7.42-2.83 11-3.49 3.57-0.66 10.1-2.48 14.5-4.05 4.4-1.56 11.94-3.77 16.75-4.9 4.81-1.13 12.01-3.21 16-4.62 3.99-1.41 9.95-3.19 13.25-3.95 3.3-0.76 9.15-2.51 13-3.89 3.85-1.38 11.72-3.61 17.5-4.97 5.77-1.36 11.74-2.95 13.25-3.54 1.51-0.6 2.76-1.42 2.77-1.83 0.02-0.41-4.68-9.08-10.43-19.25-5.74-10.18-14.04-24.8-18.42-32.5-4.39-7.7-9.22-16.48-10.73-19.5-1.51-3.03-6.95-12.59-21.44-37v-40.5l5.05-8.5c2.77-4.68 7.16-10.65 9.75-13.27 2.58-2.62 7.62-6.3 11.2-8.16 3.57-1.87 10.44-4.33 15.25-5.48 4.81-1.15 11.56-2.09 15-2.1 3.44 0 8.72 0.65 11.75 1.45 3.02 0.79 12.92 5.24 22 9.88 9.07 4.64 20.1 10.37 24.5 12.74 4.4 2.36 9.8 5.5 12 6.98 2.2 1.48 9.17 5.27 15.5 8.42 6.32 3.15 14.2 7.56 17.5 9.8 3.3 2.25 9.15 5.61 13 7.47 3.85 1.86 8.01 4.03 9.25 4.82 2.04 1.32 2.34 1.26 3.25-0.55 0.55-1.1 1.63-4.59 2.39-7.75 0.77-3.16 3.19-12.05 5.38-19.75 2.2-7.7 5.41-19.4 7.14-26 1.74-6.6 4.91-17.63 7.05-24.5 2.15-6.88 4.11-13.4 4.36-14.5 0.25-1.1 1.9-6.95 3.66-13 1.77-6.05 4.63-13.64 6.36-16.87 1.74-3.22 6.08-8.69 9.66-12.14 4.52-4.37 9.1-7.55 15-10.42 4.67-2.27 10.97-4.74 14-5.49 3.02-0.75 8.65-1.4 12.5-1.45zm-8.5 133.87c0 0.55-2.05 8.31-4.56 17.25-2.51 8.94-5.63 19.85-6.94 24.25-1.3 4.4-3.79 12.95-5.52 19-1.73 6.05-4.02 13.7-5.07 17-1.06 3.3-3.27 8.36-4.92 11.25-1.89 3.32-4.73 6.42-7.74 8.44-2.61 1.75-6.55 3.99-8.75 4.98-3.23 1.44-6.7 1.79-18 1.79h-14c-16.28-8.66-24.6-13.32-29-15.94-4.4-2.62-12.28-7.14-17.5-10.06-5.23-2.91-12.65-6.92-16.5-8.92-3.85-2-10.38-5.59-14.5-7.99-4.13-2.4-9.3-4.97-11.5-5.71-2.2-0.73-4.23-1.09-4.5-0.79-0.28 0.29 1.39 4.23 3.71 8.74 2.31 4.52 9.14 16.98 15.17 27.71 6.03 10.72 12.47 21.92 14.29 24.89 1.83 2.96 4.53 7.46 6 10 1.47 2.53 4.54 8.43 6.81 13.11 2.28 4.67 5.07 11.65 6.22 15.5 1.49 5.02 1.89 8.27 1.41 11.5-0.37 2.47-1.69 6.75-2.95 9.5-1.26 2.75-4.17 7.81-6.47 11.25-3.77 5.63-5.01 6.65-12.44 10.23-4.54 2.19-22.2 8.27-39.25 13.51-17.05 5.24-31.9 9.52-33 9.52-1.1-0.01-4.48 0.93-7.5 2.07-3.03 1.15-10.68 3.4-17 5.01-6.33 1.61-11.73 3.14-12 3.42-0.28 0.27-0.11 0.83 0.36 1.24 0.48 0.41 4.53 1.72 9 2.91 4.48 1.18 12.19 3.29 17.14 4.68 4.95 1.4 13.95 3.96 20 5.7 6.05 1.74 17.52 4.88 25.5 6.96 7.97 2.09 17.42 4.78 21 5.97 3.57 1.2 9.18 3.15 12.45 4.35 4.34 1.59 7.87 3.98 13 8.79 6.56 6.15 7.21 7.14 9.3 14.25 1.24 4.2 2.52 10 2.85 12.89 0.47 4.1 0.07 6.78-1.84 12.25-1.34 3.85-5.12 11.95-8.41 18-3.28 6.05-8.02 14.6-10.52 19-2.51 4.4-8.84 15.65-14.08 25-5.25 9.35-11.71 21.27-14.38 26.5-2.67 5.22-4.97 9.84-5.11 10.25-0.14 0.41 0.53 0.74 1.49 0.72 0.96-0.01 3.1-1.07 4.75-2.35 1.65-1.27 6.6-4.26 11-6.63 4.4-2.38 14.3-7.99 22-12.48 7.7-4.49 18.95-10.9 25-14.24 6.05-3.35 16.85-9.05 24-12.67 9.36-4.74 14.54-6.76 18.5-7.22 3.21-0.37 7.79-0.11 11 0.61 3.02 0.69 7.97 2.19 11 3.34 3.5 1.33 7.23 3.84 10.25 6.88 2.61 2.64 6.28 7.83 8.15 11.54 1.87 3.71 4.8 12.15 6.5 18.75 1.7 6.6 4.27 15.82 5.71 20.5 1.44 4.67 4.53 15.47 6.87 24 2.34 8.52 6.19 22.7 8.55 31.5l4.31 16c4.31-13.95 9.02-30.15 13.25-45 4.22-14.85 8.53-30.38 9.56-34.5 1.03-4.13 3.55-12.68 5.59-19 3.11-9.6 4.59-12.58 8.96-18 2.88-3.58 6.71-7.68 8.52-9.12 1.8-1.44 5.3-3.69 7.78-5 3.95-2.09 5.79-2.37 15-2.31 8.07 0.04 11.66 0.52 15.5 2.06 2.75 1.11 9.27 4.64 14.5 7.85 5.22 3.22 13.1 7.61 17.5 9.77 4.4 2.15 8.9 4.73 10 5.72 1.1 0.99 3.12 2.13 4.5 2.54 1.37 0.4 6.77 3.26 12 6.36 5.22 3.1 11.3 6.63 13.5 7.85 2.2 1.22 7.94 4.26 12.75 6.75 4.81 2.49 8.97 4.3 9.25 4.03 0.27-0.28-1.35-4.21-3.61-8.75-2.26-4.54-5.3-9.83-6.75-11.75-1.45-1.93-5.29-8.45-8.54-14.5-3.24-6.05-7.77-14.6-10.07-19-2.3-4.4-5.88-10.93-7.96-14.5-2.07-3.58-6.5-11.9-9.83-18.5l-6.05-12c-0.89-23.18-0.7-25.51 0.83-28.5 0.98-1.93 4.53-6.36 7.89-9.85 3.35-3.5 7.66-7.16 9.59-8.14 1.92-0.98 8-3.16 13.5-4.85 5.5-1.68 16.3-4.87 24-7.09 7.7-2.21 17.94-4.94 22.75-6.05 4.81-1.11 11.11-2.93 14-4.04 2.89-1.11 10.65-3.42 17.25-5.12 6.6-1.71 14.02-3.58 16.5-4.15l4.5-1.05c-13.18-4.1-20.6-6.3-25-7.53-4.4-1.24-11.38-3.35-15.5-4.7-4.13-1.35-8.51-2.45-9.75-2.44-1.24 0.01-6.64-1.35-12-3.02-5.36-1.67-14.7-4.57-20.75-6.45-6.05-1.88-14.38-4.13-18.5-5-4.13-0.87-8.85-2.42-10.5-3.46-1.65-1.03-6.26-5.29-10.25-9.46-5.32-5.58-7.54-8.73-8.35-11.85-0.6-2.34-1.79-6.28-2.64-8.75-1-2.94-1.36-6.4-1.01-10 0.39-4.16 2.18-8.78 7.34-19 3.76-7.43 8.47-15.98 10.49-19 2.01-3.03 6.19-10.56 9.29-16.75 3.1-6.19 7.2-13.73 9.13-16.75 1.92-3.03 3.5-5.73 3.5-6 0-0.28 2.19-3.99 4.86-8.25 2.67-4.26 6.27-10.56 8-14 1.73-3.44 3.03-6.46 2.89-6.73-0.14-0.26-7.9 3.63-17.25 8.65-9.35 5.01-21.05 11.47-26 14.34-4.95 2.88-17.55 9.87-28 15.54-10.45 5.66-21.48 11.42-24.5 12.79-4.14 1.88-7.23 2.5-12.5 2.53-4.59 0.02-9.58-0.77-14.5-2.29-4.13-1.28-9.53-3.58-12-5.12-2.48-1.53-6.34-4.74-8.59-7.12-2.92-3.11-4.4-5.76-5.18-9.34-0.6-2.75-2.31-9.05-3.78-14-1.48-4.95-3.73-12.6-5.01-17-1.28-4.4-3.03-9.69-3.89-11.75-0.85-2.06-1.55-4.88-1.55-6.25 0-1.38-2.03-8.8-4.5-16.5-2.48-7.7-4.51-14.79-4.52-15.75-0.01-0.96-0.86-4.23-1.9-7.25-1.04-3.03-2.38-7.41-2.98-9.75-0.61-2.34-1.51-4.25-2-4.25-0.5 0-2.52 4.72-4.5 10.5-1.98 5.77-3.6 10.95-3.6 11.5zm-377.5 459.42c5.96 0.22 10.18 0.92 12.5 2.07 1.92 0.96 5.75 3.43 8.5 5.48 3.19 2.39 6.35 6.06 8.72 10.14 2.67 4.6 3.89 8.07 4.35 12.39 0.36 3.3 0.37 8.7 0.02 12-0.48 4.63-1.54 7.43-4.61 12.25-2.22 3.49-6.74 8.52-10.23 11.39-3.44 2.82-7.49 7.1-9 9.5-1.51 2.4-3.02 5.37-3.36 6.61-0.33 1.24-0.37 3.37-0.07 4.75 0.3 1.37 4.17 6.21 8.61 10.75 5.37 5.49 11.75 10.59 19.07 15.25 6.05 3.85 11.56 7.01 12.25 7.01 0.69 0.01 5.97 2.32 11.75 5.13 5.77 2.81 17.25 7.55 25.5 10.53 8.25 2.98 19.05 6.49 24 7.8 4.95 1.32 10.12 2.82 11.5 3.35 1.37 0.52 12.4 3.24 24.5 6.04 12.1 2.79 35.5 7.34 52 10.11 16.5 2.77 35.17 5.51 41.5 6.09 6.32 0.58 16.9 1.69 23.5 2.47 6.6 0.78 20.1 1.89 30 2.46 9.9 0.58 19.12 1.27 20.5 1.54 1.37 0.27 17.8 0.88 36.5 1.35 18.74 0.48 51.28 0.49 72.5 0.03 21.17-0.47 50.2-1.51 64.5-2.32 14.3-0.81 28.7-1.93 32-2.48 3.3-0.56 11.62-1.52 18.5-2.13 6.87-0.62 16.1-1.82 20.5-2.67 4.4-0.85 11.82-1.88 16.5-2.28 4.67-0.4 11.2-1.43 14.5-2.27 3.3-0.85 12.75-2.74 21-4.19 8.25-1.46 18.82-3.7 23.5-4.99 4.67-1.29 13-3.47 18.5-4.85 5.5-1.38 14.27-3.72 19.5-5.2 5.22-1.48 12.87-3.99 17-5.57 4.12-1.59 8.85-3.18 10.5-3.54 1.65-0.36 5.7-1.77 9-3.13 3.3-1.36 7.57-3.14 9.5-3.96 1.92-0.81 5.07-2.54 7-3.85 1.92-1.3 5.75-3.11 8.5-4.03 2.75-0.91 9.27-4.83 14.5-8.71 5.22-3.88 11.67-9.12 14.33-11.64 2.66-2.53 5.7-6.29 6.75-8.35 1.06-2.06 1.92-5.55 1.92-7.75 0-2.2-0.66-5.69-1.47-7.75-0.87-2.22-4-6-7.67-9.25-4.69-4.15-7.02-7.21-9.5-12.5-2.12-4.51-3.52-9.31-3.93-13.5-0.46-4.62-0.18-8.16 0.96-12.25 1.36-4.84 2.83-7.03 9.36-13.86 4.26-4.47 9.55-9.08 11.75-10.25 3.35-1.79 5.63-2.13 14-2.08 8.84 0.05 10.69 0.39 16 2.9 4.55 2.16 8.83 5.7 17.75 14.69 10.71 10.81 12.19 12.75 16.73 22.1 2.74 5.64 5.95 13.85 7.13 18.25 1.71 6.36 2.18 11.08 2.27 23 0.09 11.08-0.35 17.22-1.7 23.5-1.28 6.03-3.42 11.55-7.37 19-3.06 5.77-7.46 13.2-9.78 16.5-2.32 3.3-7.78 8.97-12.13 12.6-4.34 3.63-12.63 9.94-18.4 14.04-5.78 4.09-13.2 9.05-16.5 11.04-3.3 1.98-9.15 5.17-13 7.09-3.85 1.92-13.3 6.19-21 9.5-7.7 3.3-16.48 6.77-19.5 7.7-3.03 0.92-7.98 2.58-11 3.68-3.03 1.1-8.65 3.09-12.5 4.41-3.85 1.32-10.6 3.48-15 4.8-4.4 1.32-12.73 3.4-18.5 4.62-5.78 1.22-13.43 3.04-17 4.05-3.58 1.01-10.55 2.74-15.5 3.85-4.95 1.1-12.38 2.5-16.5 3.1-4.13 0.6-12.23 1.96-18 3.03-5.78 1.06-16.35 2.85-23.5 3.98-7.15 1.12-18.85 2.72-26 3.55-7.15 0.83-17.95 1.95-24 2.48-6.05 0.53-17.53 1.42-25.5 1.96-7.98 0.55-16.98 1.45-20 2-3.03 0.56-29.8 1.29-59.5 1.62-32.64 0.37-67.84 0.18-89-0.5-19.25-0.62-37.03-1.57-39.5-2.13-2.48-0.56-12.83-1.44-23-1.97-10.18-0.52-27.5-2.09-38.5-3.48-11-1.39-23.6-3.18-28-3.97-4.4-0.79-12.05-1.96-17-2.6-4.95-0.65-18.9-3.12-31-5.49-12.1-2.38-23.13-4.75-24.5-5.28-1.38-0.53-5.2-1.28-8.5-1.68-3.3-0.39-11.63-2.53-18.5-4.76-6.88-2.22-15.43-4.83-19-5.8-3.58-0.97-12.35-3.86-19.5-6.42-7.15-2.57-16.15-5.78-20-7.13-3.85-1.35-14.2-6.03-23-10.39-8.8-4.37-19.15-9.9-23-12.3-3.85-2.39-9.61-5.9-12.8-7.78-3.19-1.88-9.38-6.46-13.75-10.17-4.37-3.71-12.07-11.81-17.1-18-5.65-6.94-10.76-14.51-13.34-19.75-2.65-5.39-4.65-11.25-5.46-16-0.82-4.84-1.13-13.18-0.87-23.5 0.39-15 0.62-16.59 3.74-25.5 1.82-5.23 4.17-11.19 5.2-13.25 1.03-2.06 4.69-7.37 8.13-11.8 3.44-4.42 6.59-8.02 7-8 0.41 0.03 1.76-1.45 3-3.29 1.24-1.84 4.72-5.43 7.75-7.99 3.02-2.56 7.07-5.78 9-7.16 1.92-1.37 5.52-2.93 8-3.46 2.47-0.53 8.55-0.81 13.5-0.63zm-86.5 116.9c6.8 0.19 9.6 0.77 14 2.87 3.3 1.58 7.7 4.98 11 8.49 3.02 3.21 6.56 8.09 7.86 10.83 1.3 2.75 2.59 7.24 2.88 9.99 0.37 3.54-0.15 7.33-1.79 13-2.27 7.81-2.58 8.27-13.31 19.5-6.05 6.32-12.28 13.3-13.84 15.5-1.56 2.2-3.36 6.25-3.98 9-1.06 4.63-0.96 5.33 1.38 9.5 1.4 2.47 6.15 8.1 10.56 12.5 4.41 4.4 9.3 8.67 10.86 9.5 1.56 0.82 6.9 4.2 11.87 7.5 4.96 3.3 12.17 7.3 16.02 8.89 3.84 1.59 10.81 4.58 15.49 6.64 4.67 2.07 15.7 6.32 24.5 9.45 8.8 3.13 22.75 7.64 31 10.03 8.25 2.39 22.2 6.16 31 8.37 8.8 2.22 20.72 4.99 26.5 6.16 5.77 1.18 13.42 2.55 17 3.05 3.57 0.5 9.87 1.62 14 2.48 4.12 0.86 10.2 1.92 13.5 2.36 3.3 0.44 9.82 1.52 14.5 2.4 4.67 0.88 13.67 2.32 20 3.19 6.32 0.87 16 2.03 21.5 2.59 5.5 0.55 14.95 1.65 21 2.44 6.05 0.79 20.45 2.11 32 2.94 11.55 0.83 25.05 2.07 30 2.76 6.71 0.93 33.9 1.25 107 1.25 71.03 0 102.27-0.35 113.5-1.29 8.52-0.7 24.27-1.95 35-2.76 10.72-0.82 21.3-1.91 23.5-2.43 2.2-0.52 10.75-1.43 19-2.02 8.25-0.59 17.02-1.54 19.5-2.11 2.47-0.56 9.67-1.67 16-2.45 6.32-0.78 17.8-2.51 25.5-3.84 7.7-1.34 16.02-2.89 18.5-3.46 2.47-0.57 11.92-2.42 21-4.13 9.07-1.7 18.52-3.53 21-4.06 2.47-0.53 11.25-2.71 19.5-4.83 8.25-2.12 18.6-4.86 23-6.09 4.4-1.24 10.92-3.12 14.5-4.18 3.57-1.07 8.97-2.88 12-4.03 3.02-1.16 6.85-2.69 8.5-3.41 1.65-0.72 8.62-3.64 15.5-6.49 6.87-2.84 16.1-6.72 20.5-8.62 4.4-1.89 10.47-4.81 13.5-6.48 3.02-1.67 10.56-6.82 16.75-11.43 6.19-4.62 11.87-9.63 12.63-11.14 0.76-1.51 2.16-3.43 3.12-4.25 0.96-0.83 2.59-3.19 3.62-5.25 1.04-2.06 1.89-5.66 1.89-8 0.01-3.07-0.86-5.64-3.15-9.25-1.74-2.75-6.62-8.6-10.85-13-4.24-4.4-8.72-10.03-9.98-12.5-1.25-2.48-3.12-7.76-6.03-19l2.44-6.75c1.35-3.71 3.26-8.96 4.25-11.66 1-2.7 3.16-6.35 4.81-8.1 1.98-2.11 5.37-3.97 10-5.5 5.21-1.73 9.42-2.34 16.5-2.41 8.6-0.07 10.07 0.2 15.5 2.88 4.54 2.24 9.41 6.38 20 17 9.28 9.31 15.27 16.23 17.77 20.54 2.07 3.57 5.31 11.45 7.19 17.5 3.3 10.59 3.45 11.79 4.72 53l-7.2 14c-3.96 7.7-8.59 16.02-10.29 18.5-1.7 2.47-6.49 8.08-10.64 12.46-4.15 4.37-11.04 11.23-15.3 15.25-4.26 4.01-10.11 8.47-13 9.9-2.89 1.44-5.93 3.19-6.75 3.88-0.83 0.7-7.8 4.78-15.5 9.07-7.7 4.3-17.6 9.36-22 11.26-4.4 1.9-13.18 5.57-19.5 8.17-6.33 2.59-20.5 7.74-31.5 11.45-11 3.7-32.15 9.83-47 13.62-14.85 3.78-29.7 7.3-33 7.82-3.3 0.51-9.6 1.66-14 2.55-4.4 0.89-12.28 2.49-17.5 3.55-5.23 1.07-11.98 2.2-15 2.51-3.03 0.31-9.55 1.43-14.5 2.49-4.95 1.05-12.83 2.36-17.5 2.92-4.68 0.55-13 1.66-18.5 2.47-5.5 0.81-15.4 2.17-22 3.02-6.6 0.85-18.75 2.03-27 2.63-8.25 0.59-21.08 1.73-28.5 2.51-7.43 0.79-17.33 1.69-22 1.99-4.68 0.31-26.05 1.22-47.5 2.02-21.45 0.8-50.93 1.45-65.5 1.45-14.58 0-45.4-0.66-68.5-1.45-23.1-0.8-46.73-1.72-52.5-2.05-5.78-0.32-13.88-1.01-18-1.52-4.13-0.51-17.18-1.6-29-2.42-11.83-0.82-26.45-2.15-32.5-2.97-6.05-0.82-14.15-1.91-18-2.43-3.85-0.52-12.4-1.69-19-2.61-6.6-0.92-18.3-2.76-26-4.1-7.7-1.35-15.58-2.44-17.5-2.44-1.93 0-5.08-0.46-7-1.03-1.93-0.57-8.9-2.16-15.5-3.53-6.6-1.37-15.6-3.15-20-3.96-4.4-0.81-14.3-3.28-22-5.49-7.7-2.22-14.9-4.01-16-3.99-1.1 0.01-8.98-2.23-17.5-4.99-8.53-2.76-16.85-5.51-18.5-6.1-1.65-0.6-6.38-1.99-10.5-3.08-4.13-1.1-11.33-3.6-16-5.57-4.68-1.97-14.58-6.18-22-9.37-7.43-3.18-18-8.21-23.5-11.17-5.5-2.95-13.6-7.34-18-9.73-4.4-2.4-11.38-6.99-15.5-10.2-4.13-3.2-11-8.86-15.27-12.56-4.28-3.7-8.66-8.08-9.75-9.73-1.09-1.65-4.44-5.93-7.45-9.5-3-3.58-6.69-8.75-8.19-11.5-1.5-2.75-3.8-8.6-5.1-13-1.31-4.4-2.77-9.8-3.26-12-0.49-2.2-0.91-10.98-0.93-19.5-0.04-14.99 0.07-15.83 3.32-25.5 1.84-5.5 4.39-12.03 5.65-14.5 1.26-2.48 4.89-8.33 8.07-13 3.3-4.87 10.61-13.24 17.09-19.59 6.23-6.11 13.34-12.13 15.82-13.4 2.47-1.26 6.3-2.89 8.5-3.61 2.35-0.77 7.5-1.22 12.5-1.08z"/>
	</g>
</svg>