<svg version="1.2" xmlns="http://www.w3.org/2000/svg" viewBox="0 0 1168 861" width="1168" height="861">
	<style>
		.s0 { fill: #fbfdfb } 
	</style>
	<g id="icons">
		<path id="-e buddy" fill-rule="evenodd" class="s0" d="m365.5 0.17c12.65-0.08 30.42 0.29 39.5 0.81 9.07 0.52 23.25 2.09 31.5 3.49 8.25 1.39 18.82 3.45 23.5 4.57 4.67 1.12 14.12 3.79 21 5.93 6.87 2.15 19.02 5.79 27 8.09 7.97 2.31 15.85 4.54 17.5 4.97 1.65 0.42 9.52 2.56 17.5 4.75 7.97 2.2 29.57 8.35 48 13.69 18.42 5.33 45.2 13.06 59.5 17.19 14.3 4.13 36.12 10.38 48.5 13.89 12.37 3.51 47.02 13.33 77 21.83 29.97 8.51 65.97 18.69 80 22.63 14.02 3.94 32.92 9.41 42 12.16 9.07 2.75 22.8 7.48 30.5 10.52 7.7 3.04 19.85 8.42 27 11.97 7.15 3.54 18.62 9.81 25.5 13.92 6.87 4.11 17.99 11.4 24.7 16.2 6.71 4.79 17.06 12.53 23 17.19 5.94 4.65 18.69 16.35 28.34 26 9.64 9.64 21.48 22.48 26.29 28.53 4.82 6.05 12.08 15.72 16.13 21.5 4.05 5.77 10.19 15 13.64 20.5 3.45 5.5 9.1 15.4 12.54 22 3.45 6.6 8.93 18.3 12.18 26 3.26 7.7 8.18 20.52 10.93 28.5 2.76 7.97 6.16 18.77 7.57 24 1.41 5.22 3.68 15.35 5.05 22.5 1.37 7.15 3.31 19.3 4.31 27 1.41 10.9 1.79 20.41 1.73 43-0.06 20.95-0.55 32.61-1.77 42-0.92 7.15-2.79 18.85-4.14 26-1.35 7.15-4.49 20.09-6.98 28.75-2.49 8.66-6.87 21.94-9.74 29.5-2.87 7.56-8.65 20.72-12.83 29.25-4.19 8.52-10.56 20.67-14.15 27-3.59 6.32-9.79 16.22-13.78 22-3.98 5.77-11.53 15.9-16.77 22.5-5.23 6.6-18.13 20.55-28.66 31-10.52 10.45-24.52 23.2-31.11 28.32-6.59 5.13-18.96 13.99-27.48 19.68-8.53 5.7-21.13 13.38-28 17.07-6.88 3.69-17.68 9.07-24 11.95-6.33 2.88-18.25 7.71-26.5 10.72-8.25 3.02-21.08 7.12-28.5 9.11-7.43 2-18 4.54-23.5 5.66-5.5 1.12-16.98 3.02-25.5 4.21-13.13 1.84-20.15 2.18-46 2.19-23.27 0.01-33.82-0.41-44.5-1.75-7.7-0.98-20.53-3.08-28.5-4.67-7.98-1.6-20.35-4.45-27.5-6.34-7.15-1.89-18.63-5.02-25.5-6.96-6.88-1.94-30.5-8.67-52.5-14.97-22-6.29-46.53-13.29-54.5-15.55-7.98-2.25-29.35-8.41-47.5-13.67-18.15-5.27-39.53-11.39-47.5-13.6-7.98-2.22-38.13-10.8-67-19.07-28.88-8.28-67.35-19.23-85.5-24.35-18.15-5.12-40.43-11.56-49.5-14.32-9.08-2.77-20.78-6.58-26-8.49-5.23-1.91-13.33-5.12-18-7.15-4.68-2.02-14.58-6.72-22-10.43-7.43-3.72-16.65-8.74-20.5-11.16-3.85-2.41-10.6-6.83-15-9.82-4.4-2.98-12.28-8.61-17.5-12.51-5.23-3.9-12.43-9.61-16-12.69-3.58-3.07-10.13-8.92-14.56-13-4.43-4.08-12.53-12.16-18-17.97-5.47-5.81-13.36-14.81-17.54-20-4.18-5.19-10.78-13.94-14.65-19.44-3.88-5.5-9.86-14.73-13.3-20.5-3.43-5.78-9.46-16.8-13.4-24.5-3.94-7.7-9.23-18.73-11.74-24.5-2.52-5.78-6.7-16.35-9.29-23.5-2.6-7.15-6.5-19.98-8.67-28.5-2.18-8.53-5.26-23.15-6.86-32.5-1.6-9.35-3.43-23.53-4.08-31.5-0.71-8.91-0.93-22.98-0.56-36.5 0.43-15.76 1.29-26.53 3.05-38 1.35-8.8 3.62-21.18 5.04-27.5 1.42-6.33 4.14-17.13 6.04-24 1.91-6.88 5.43-17.9 7.84-24.5 2.41-6.6 5.85-15.38 7.66-19.5 1.81-4.13 5.87-12.68 9.03-19 3.16-6.33 8.11-15.55 11.01-20.5 2.9-4.95 9.09-14.63 13.75-21.5 4.66-6.88 12.13-17.2 16.6-22.94 4.47-5.74 13.58-16.32 20.24-23.5 6.67-7.18 17.19-17.56 23.39-23.06 6.2-5.5 15.82-13.56 21.38-17.91 5.57-4.35 17.54-12.8 26.62-18.78 9.07-5.97 23.92-14.62 33-19.21 9.07-4.6 22.12-10.62 29-13.38 6.87-2.76 16.77-6.45 22-8.19 5.22-1.74 15.12-4.75 22-6.68 6.87-1.94 17.67-4.57 24-5.86 6.32-1.29 16.45-3.05 22.5-3.91 6.05-0.87 12.57-1.73 14.5-1.92 1.92-0.19 13.85-0.41 26.5-0.49zm-30.5 146.78c-3.58 0.64-11.9 2.52-18.5 4.19-6.6 1.66-16.05 4.42-21 6.14-4.95 1.72-16.43 6.84-25.5 11.38-9.08 4.54-20.33 10.81-25 13.94-4.68 3.13-13 9.4-18.5 13.93-5.5 4.53-14.52 12.91-20.04 18.61-5.52 5.7-13.44 14.63-17.6 19.86-4.15 5.22-9.34 12.2-11.52 15.5-2.18 3.3-5.13 8.02-6.55 10.5-1.42 2.47-4.83 9-7.57 14.5-2.73 5.5-6.81 14.95-9.06 21-2.25 6.05-5.25 15.05-6.67 20-1.41 4.95-3.77 14.62-5.22 21.5-2.52 11.89-2.66 13.97-2.71 42.5l-0.05 30c5.16 24.02 8.87 37.75 11.57 46 2.94 9 7.81 20.8 12.18 29.5 3.99 7.97 9.82 18.32 12.93 23 3.12 4.67 8.72 12.32 12.43 17 3.72 4.67 13.76 15.51 22.32 24.09 11.08 11.09 19.01 18.02 27.56 24.04 6.6 4.66 14.7 10.06 18 12.01 3.3 1.95 9.37 5.36 13.5 7.58 4.12 2.21 12.67 6.1 19 8.62 6.32 2.53 17.8 6.2 25.5 8.15 7.7 1.95 17.82 4.27 22.5 5.15 5.72 1.08 16.67 1.76 33.5 2.08 19.54 0.38 27.73 0.12 37.5-1.15 6.87-0.9 19.02-3.23 27-5.19 7.97-1.95 19.67-5.59 26-8.08 6.32-2.49 16.45-7.04 22.5-10.11 6.05-3.08 17.52-9.96 25.5-15.29 7.97-5.34 19.1-13.91 24.72-19.05 5.62-5.14 14.05-13.51 18.75-18.6 4.69-5.09 10.93-12.51 13.87-16.5 2.94-3.99 7.97-11.3 11.17-16.25 3.2-4.95 9.32-16.2 13.61-25 4.28-8.8 9.19-20.28 10.9-25.5 1.71-5.23 4.24-14.23 5.63-20 1.38-5.78 3.37-17.03 4.41-25 1.28-9.73 1.9-20.59 1.9-33 0-11.12-0.6-22.69-1.5-29-0.82-5.78-2.61-15.45-3.96-21.5-1.36-6.05-4.22-16.4-6.36-23-2.14-6.6-6.11-16.95-8.82-23-2.7-6.05-7.57-15.5-10.82-21-3.24-5.5-9.79-15.18-14.56-21.5-4.78-6.33-12.9-15.96-18.06-21.42-5.16-5.46-13.66-13.73-18.88-18.38-5.23-4.65-14.45-11.74-20.5-15.75-6.05-4.01-17.53-10.66-25.5-14.78-7.98-4.11-19.45-9.3-25.5-11.54-6.05-2.23-15.05-5.21-20-6.63-4.95-1.41-14.18-3.45-20.5-4.53-6.33-1.08-15.78-2.41-21-2.95-5.23-0.54-15.13-0.94-22-0.89-6.88 0.06-17.45 0.68-23.5 1.38-6.05 0.71-13.93 1.81-17.5 2.44zm413.5 94.42c-4.95 0.92-13.5 2.82-19 4.22-5.5 1.4-14.28 4.13-19.5 6.07-5.23 1.95-16.25 6.84-24.5 10.89-8.25 4.04-19.73 10.48-25.5 14.3-5.78 3.83-13.81 9.82-17.86 13.31-5.87 5.05-7.23 6.75-6.72 8.34 0.34 1.1 2.39 8.75 4.55 17 2.15 8.25 4.61 19.72 5.47 25.5 0.86 5.77 1.97 15.9 2.47 22.5 0.54 7.15 0.54 18.66 0.01 28.5-0.49 9.07-1.4 20.32-2.01 25-0.61 4.67-1.98 12.77-3.03 18-1.06 5.22-3.76 15.57-6.01 23-2.24 7.42-6.75 19.57-10.01 27-3.26 7.42-8.89 18.9-12.52 25.5-3.63 6.6-9.54 16.27-13.14 21.5-3.59 5.22-8.89 12.42-11.77 16-2.88 3.57-7.74 9.42-10.82 13-3.07 3.57-5.59 7.17-5.6 8 0 0.82 2.5 6.45 5.56 12.5 3.07 6.05 8.84 15.95 12.83 22 4 6.05 10.14 14.6 13.65 19 3.51 4.4 11.8 13.55 18.42 20.34 6.61 6.79 16.08 15.38 21.03 19.1 4.95 3.72 12.82 9.34 17.5 12.5 4.67 3.16 15.7 9.28 24.5 13.6 8.8 4.31 20.72 9.47 26.5 11.45 5.77 1.99 14.77 4.67 20 5.96 5.22 1.29 13.32 3.06 18 3.93 4.67 0.87 13.22 2.05 19 2.61 5.77 0.56 15.67 1.02 22 1.01 6.32 0 16.67-0.48 23-1.06 6.32-0.57 17.12-2.17 24-3.54 6.87-1.37 19.25-4.74 27.5-7.49 8.25-2.75 19.27-7.03 24.5-9.51 5.22-2.48 13.1-6.59 17.5-9.14 4.4-2.55 13.17-8.13 19.5-12.4 6.32-4.27 16.12-11.95 21.76-17.06 5.64-5.12 13.91-13.35 18.37-18.3 4.46-4.95 11.81-14.18 16.33-20.5 4.53-6.33 10.04-14.65 12.26-18.5 2.22-3.85 5.96-10.83 8.3-15.5 2.34-4.68 6.15-13.23 8.47-19 2.31-5.78 5.39-15.23 6.83-21 1.44-5.78 3.54-15 4.67-20.5 1.12-5.5 2.48-14.73 3.03-20.5 0.54-5.78 0.98-18.04 0.98-27.25 0-9.21-0.47-20.01-1.05-24-0.58-3.99-2.2-13.1-3.59-20.25-1.4-7.15-4.53-18.96-6.95-26.25-2.43-7.29-6.46-17.86-8.97-23.5-2.52-5.64-6.85-14.3-9.64-19.25-2.79-4.95-8.72-14.14-13.19-20.42-4.46-6.28-11.74-15.51-16.18-20.5-4.44-4.99-11.87-12.49-16.5-16.67-4.64-4.17-11.13-9.75-14.43-12.4-3.3-2.65-9.83-7.38-14.5-10.51-4.68-3.14-13.45-8.38-19.5-11.66-6.05-3.28-15.28-7.8-20.5-10.04-5.23-2.24-13.1-5.24-17.5-6.67-4.4-1.42-12.73-3.69-18.5-5.03-5.78-1.34-15-3.14-20.5-4.01-5.69-0.89-19.05-1.75-31-1.99-11.55-0.24-25.05-0.08-30 0.34-4.95 0.42-13.05 1.51-18 2.43zm-467 41.94c4.51 0.25 8.92 1.24 12.42 2.79 3.45 1.53 7.01 4.21 9.82 7.4 2.42 2.75 5.26 6.8 6.32 9 1.47 3.07 1.91 6.21 1.92 13.5 0 7.91-0.4 10.34-2.36 14.5-1.29 2.75-3.94 6.57-5.88 8.5-1.94 1.92-5.93 4.74-8.88 6.25-4.66 2.39-6.53 2.75-14.36 2.76-7.51 0.01-9.83-0.39-14-2.42-2.75-1.33-7.36-4.94-10.25-8.01-3.78-4.02-5.67-7.05-6.76-10.83-0.83-2.89-1.51-7.95-1.52-11.25-0.01-3.3 0.61-7.8 1.36-10 0.75-2.2 2.56-5.91 4.02-8.25 1.46-2.34 4.11-5.36 5.9-6.73 1.79-1.36 5.95-3.62 9.25-5.03 5-2.14 7.16-2.5 13-2.18zm191.5-0.25c4.92-0.03 7.84 0.58 12 2.51 3.02 1.4 7.45 4.43 9.83 6.74 2.39 2.3 5.53 6.44 6.99 9.19 2.33 4.39 2.65 6.16 2.67 14.5 0.01 8.11-0.35 10.23-2.47 14.5-1.36 2.75-4.06 6.59-6 8.53-1.93 1.95-6 4.79-9.02 6.32-5.14 2.6-6.15 2.76-15.5 2.41-7.7-0.3-10.71-0.83-13.08-2.32-1.69-1.07-4.41-3.07-6.05-4.44-1.64-1.38-4.63-4.75-6.64-7.5-2.69-3.67-3.97-6.73-4.81-11.5-0.83-4.79-0.84-8.01-0.03-12.25 0.7-3.59 2.52-7.87 4.86-11.4 2.06-3.11 5.55-7.04 7.75-8.73 2.2-1.69 6.02-3.85 8.5-4.8 2.53-0.97 7.34-1.74 11-1.76zm223.5 94.28c4.38 0.23 8.68 1.16 11.5 2.48 2.47 1.16 6.88 4.49 9.79 7.4 2.91 2.9 6.16 7.08 7.23 9.28 1.52 3.11 1.95 6.12 1.95 13.5 0 7.84-0.39 10.28-2.23 13.96-1.23 2.46-4.15 6.39-6.49 8.75-2.34 2.36-6.5 5.41-9.25 6.79-4.17 2.09-6.45 2.5-13.75 2.52-7.52 0.02-9.45-0.34-13.75-2.59-2.75-1.43-6.35-3.64-8-4.89-1.65-1.25-4.69-5.15-6.76-8.66-3.58-6.09-3.75-6.78-3.76-15.38 0-7.5 0.4-9.83 2.43-14 1.38-2.85 4.94-7.29 8.26-10.32 3.21-2.93 8.08-6.2 10.83-7.26 3.72-1.44 6.79-1.85 12-1.58zm194 0.24c3.3 0.3 8.25 1.55 11 2.78 2.75 1.23 6.81 4.02 9.02 6.19 2.22 2.17 5.14 6.2 6.49 8.95 2.06 4.18 2.47 6.47 2.48 14 0.01 7.56-0.4 9.88-2.54 14.5-1.4 3.02-4.33 7.32-6.5 9.55-2.4 2.46-6.21 4.92-9.7 6.25-4.1 1.57-7.97 2.21-13.5 2.22-6.56 0.02-8.67-0.43-13.75-2.91-3.3-1.61-7.54-4.66-9.42-6.77-1.89-2.11-4.47-6.09-5.74-8.84-1.87-4.02-2.32-6.72-2.33-13.75-0.01-7.35 0.39-9.55 2.49-13.75 1.37-2.75 3.96-6.62 5.75-8.61 1.79-1.98 4.6-4.43 6.25-5.44 1.65-1.01 5.47-2.53 8.5-3.38 3.6-1.01 7.58-1.35 11.5-0.99zm-416 15.51c1.1-0.02 3.8 0.76 6 1.74 2.2 0.99 5.12 3.34 6.5 5.23 2.29 3.16 2.49 4.27 2.39 13.44-0.09 9.06-0.42 10.75-3.55 18-1.9 4.4-5.43 11.37-7.84 15.5-2.48 4.23-7.46 10.52-11.45 14.44-3.88 3.82-10.2 8.96-14.05 11.44-3.85 2.48-10.6 6.17-15 8.2-4.4 2.03-13.4 5.12-20 6.87-6.6 1.74-16.73 3.59-22.5 4.1-6.53 0.58-17.5 0.57-29-0.02-15.22-0.78-20.63-1.49-30.5-4-6.78-1.73-15.91-4.94-21-7.4-4.95-2.39-12.6-7.04-17-10.33-4.4-3.29-10.25-8.22-13-10.94-2.75-2.72-6.78-7.63-8.96-10.9-2.18-3.28-5.18-8.89-6.67-12.46-1.49-3.58-3.42-9.99-4.29-14.25-0.87-4.26-1.58-9.1-1.58-10.75 0-1.65 0.79-4.65 1.75-6.66 0.96-2.01 3.1-4.86 4.75-6.32 1.65-1.47 4.8-3.02 7-3.44 3.05-0.59 5.07-0.31 8.5 1.19 2.47 1.08 5.47 3.03 6.66 4.34 1.18 1.32 3.75 7.56 5.71 13.89 2.16 7.01 5.05 13.84 7.4 17.5 2.11 3.3 6.3 7.96 9.29 10.35 2.99 2.4 7.58 5.44 10.19 6.75 2.61 1.32 8.01 3.5 12 4.84 3.99 1.34 10.4 2.94 14.25 3.55 3.85 0.62 11.5 1.54 17 2.07 6.64 0.63 13.53 0.59 20.5-0.1 5.77-0.58 14.77-1.95 20-3.03 5.66-1.18 12.84-3.59 17.75-5.96 5.2-2.5 10.53-6.09 14.42-9.72 3.4-3.16 7.92-8.45 10.05-11.75 2.14-3.3 4.54-8.48 5.35-11.5 0.81-3.03 2.14-7.86 2.95-10.75 0.81-2.89 2.49-6.37 3.73-7.75 1.24-1.37 4.05-3.14 6.25-3.93 2.2-0.78 4.9-1.45 6-1.48zm416.5 95.38c3.07 0.26 6.55 1.26 7.87 2.25 1.31 0.98 3.26 3.35 4.33 5.28 1.66 2.98 1.87 4.77 1.41 12-0.3 4.67-1.17 10.52-1.93 13-0.76 2.47-3.45 8.55-5.98 13.5-2.53 4.95-7.46 12.37-10.96 16.5-3.49 4.12-9.25 9.79-12.8 12.59-3.54 2.8-9.14 6.65-12.44 8.56-3.3 1.9-9.04 4.68-12.75 6.16-3.71 1.48-10.24 3.6-14.5 4.72-4.26 1.12-13.83 2.52-21.25 3.13-7.64 0.62-20.66 0.82-30 0.47-10.8-0.4-19.61-1.31-25.5-2.63-4.95-1.11-11.93-2.97-15.5-4.15-3.58-1.17-9.88-3.82-14-5.89-4.13-2.07-11.49-6.61-16.37-10.11-4.87-3.49-10.95-8.81-13.5-11.83-2.54-3.01-6.55-8.86-8.89-13-2.34-4.13-5.37-10.9-6.74-15.02-1.37-4.13-2.77-10.2-3.11-13.5-0.33-3.3-0.14-7.8 0.43-10 0.67-2.56 2.51-5.35 5.11-7.75 3.09-2.84 4.92-3.75 7.57-3.75 1.92 0 5.6 0.56 8.16 1.25 3.49 0.93 5.26 2.13 7.02 4.75 1.3 1.92 3.91 8.45 5.8 14.5 1.89 6.05 4.73 13.02 6.31 15.5 1.58 2.47 4.94 6.52 7.46 9 2.52 2.47 6.99 5.96 9.92 7.75 2.93 1.8 9.15 4.59 13.83 6.21 4.67 1.63 12.77 3.7 18 4.61 7.52 1.31 13.36 1.54 28 1.1 11.48-0.34 21.16-1.16 25.5-2.16 3.85-0.88 9.7-2.71 13-4.06 3.3-1.36 8.47-3.92 11.5-5.71 3.02-1.78 8.54-6.28 12.25-9.99 3.71-3.71 7.87-9 9.25-11.75 1.37-2.75 3.49-8.94 4.7-13.75 1.64-6.51 3.05-9.74 5.52-12.61 1.82-2.13 4.32-4.26 5.55-4.75 1.22-0.49 4.7-0.67 7.73-0.42z"/>
	</g>
</svg>