<svg version="1.2" xmlns="http://www.w3.org/2000/svg" viewBox="0 0 1330 1320" width="1330" height="1320">
	<style>
		.s0 { fill: #ffffff } 
	</style>
	<g id="icons">
		<path id="-e can mega evolve" fill-rule="evenodd" class="s0" d="m666.5 0.59c15.4 0.25 30.7 0.68 34 0.96 3.3 0.28 11.17 0.96 17.5 1.52 6.32 0.57 18.14 1.9 26.25 2.98 8.11 1.07 15.2 1.72 15.75 1.45 0.55-0.28 1.22-0.05 1.5 0.5 0.27 0.55 2.64 1.28 5.25 1.62 2.61 0.34 10.15 1.67 16.75 2.96 6.6 1.29 16.72 3.44 22.5 4.76 5.77 1.33 17.7 4.3 26.5 6.6 8.8 2.31 24.77 7.15 35.5 10.77 10.72 3.63 20.06 6.63 20.75 6.69 0.69 0.05 1.24 0.32 1.23 0.6-0.02 0.27 1.9 1.15 4.25 1.94 2.35 0.78 4.49 1.48 4.77 1.53 0.27 0.06 1.4 0.6 2.5 1.22 1.1 0.61 2.45 1.23 3 1.37 0.55 0.13 3.81 1.53 7.25 3.09 3.44 1.57 6.47 2.85 6.75 2.85 0.27 0 2.86 1.09 5.75 2.42 2.89 1.32 5.92 2.56 6.75 2.75 0.82 0.18 1.72 0.6 2 0.93 0.27 0.34 5.45 3.01 11.5 5.94 6.05 2.93 11.34 5.25 11.75 5.15 0.41-0.11 0.75 0.26 0.75 0.81 0 0.55 1.01 1.31 2.25 1.7 1.24 0.38 2.59 0.61 3 0.5 0.41-0.11 0.75 0.25 0.75 0.8 0 0.55 0.45 0.77 1 0.5 0.55-0.28 0.98-0.16 0.96 0.25-0.02 0.41 1.33 1.31 3 2 1.67 0.69 3.16 1.14 3.31 1 0.16-0.14 0.94 0.33 1.75 1.05 0.82 0.71 10.14 6.45 20.73 12.75 10.59 6.3 19.7 11.45 20.25 11.45 0.55 0 1.11 0.36 1.25 0.81 0.14 0.44 5.09 4.26 11 8.5 5.91 4.23 11.2 7.69 11.75 7.69 0.55 0 1.11 0.38 1.25 0.83 0.14 0.46 3.74 3.39 8 6.5 4.26 3.12 7.86 5.65 8 5.63 0.14-0.02 2.05 1.54 4.25 3.47 2.2 1.93 4.45 3.22 5 2.88 0.55-0.35 0.66-0.22 0.25 0.28-0.4 0.5 0.58 1.81 2.19 2.91 1.61 1.1 5.4 4.02 8.41 6.5 3.02 2.47 6.09 5.48 6.82 6.68 1.25 2.06 0.49 3.07-12.78 17-7.76 8.15-17.89 18.96-22.5 24.01-5.75 6.3-8.86 9-9.89 8.57-0.83-0.34-2.69-2-4.14-3.69-1.45-1.69-4.6-4.42-7-6.07-2.4-1.65-4.7-3.56-5.11-4.25-0.41-0.69-1.43-1.25-2.25-1.25-0.83 0-1.95-0.9-2.5-2-0.55-1.1-1.45-1.78-2-1.5-0.55 0.27-1.23-0.18-1.5-1-0.28-0.83-0.84-1.3-1.25-1.05-0.41 0.24-1.43-0.44-2.25-1.51-0.83-1.08-2.06-1.96-2.75-1.95-0.69 0.01-1.25-0.44-1.25-0.99 0-0.55-0.68-1-1.5-1-0.83 0-1.73-0.68-2-1.5-0.28-0.83-1.18-1.5-2-1.5-0.83 0-1.5-0.45-1.5-1 0-0.55-1.58-1.68-3.5-2.5-1.93-0.83-3.5-1.95-3.5-2.5 0-0.55-0.45-0.78-1-0.5-0.55 0.27-1.21-0.06-1.46-0.75-0.26-0.69-1.85-1.93-3.54-2.75-1.7-0.83-3.05-1.95-3.01-2.5 0.04-0.55-0.17-0.66-0.46-0.25-0.29 0.41-1.54-0.16-2.78-1.27-1.24-1.11-2.81-2.01-3.5-2-0.69 0.01-1.24-0.32-1.22-0.73 0.02-0.41-1.67-1.65-3.75-2.75-2.08-1.1-4.01-2.24-4.28-2.52-0.28-0.29-1.74-1.3-3.25-2.25-1.51-0.95-2.76-1.39-2.77-0.98 0 0.41-0.34 0.24-0.75-0.39-0.4-0.62-3.21-2.6-6.23-4.39-3.03-1.8-6.06-3.31-6.74-3.37-0.68-0.05-1.47-0.66-1.75-1.35-0.31-0.76-1.19-0.96-2.26-0.52-1.24 0.52-1.53 0.37-1-0.5 0.41-0.68 0.3-1.23-0.25-1.23-0.55 0-1.34-0.08-1.75-0.18-0.41-0.1-1.31-0.77-2-1.5-0.69-0.73-1.7-1.1-2.25-0.82-0.55 0.27-1.23-0.18-1.5-1-0.28-0.83-0.95-1.28-1.5-1-0.55 0.27-1 0.05-1-0.5 0-0.55-0.45-0.78-1-0.5-0.55 0.27-1 0.05-1-0.5 0-0.55-0.45-0.78-1-0.5-0.55 0.27-0.99 0.16-0.98-0.25 0.01-0.41-1.67-1.62-3.75-2.68-2.07-1.06-4.11-1.85-4.52-1.75-0.41 0.1-0.75-0.27-0.75-0.82 0-0.55-0.45-0.78-1-0.5-0.55 0.27-1 0.05-1-0.5 0-0.55-0.45-0.78-1-0.5-0.55 0.27-1 0.05-1-0.5 0-0.55-0.34-0.92-0.75-0.83-0.41 0.09-3.68-1.24-7.25-2.96-3.58-1.71-6.84-2.91-7.25-2.66-0.41 0.25-0.75 0-0.75-0.55 0-0.55-0.68-1-1.5-1-0.83 0-2.96-0.88-4.75-1.95-1.79-1.07-3.59-1.74-4-1.5-0.41 0.25-0.75 0-0.75-0.55 0-0.55-0.68-0.78-1.5-0.5-0.83 0.27-1.5 0.05-1.5-0.5 0-0.55-0.56-0.85-1.25-0.67-0.69 0.18-1.93-0.3-2.75-1.07-0.83-0.77-2.06-1.15-2.75-0.83-0.69 0.31-1.25 0.12-1.25-0.43 0-0.55-0.45-0.78-1-0.5-0.55 0.27-1.23 0.05-1.5-0.5-0.28-0.55-3.09-1.95-6.25-3.11-3.16-1.16-10.48-3.79-16.25-5.85-5.78-2.05-11.06-3.58-11.75-3.39-0.69 0.19-1.24-0.21-1.22-0.9 0.01-0.69-0.32-0.92-0.75-0.51-0.43 0.41-1.23 0.29-1.78-0.27-0.55-0.56-2.65-1.12-4.66-1.25-2.01-0.12-3.47-0.56-3.25-0.97 0.23-0.41-3.75-1.74-8.84-2.94-5.09-1.21-10.04-2.22-11-2.25-0.96-0.04-1.75-0.4-1.75-0.81 0-0.41-0.9-0.53-2-0.25-1.1 0.27-2.23 0.05-2.5-0.5-0.28-0.55-1.06-0.8-1.75-0.56-0.69 0.24-1.7 0.06-2.25-0.4-0.55-0.45-3.48-1.38-6.5-2.05-3.03-0.68-7.41-1.4-9.75-1.61-2.34-0.21-4.44-0.04-4.67 0.37-0.23 0.41-1.58 5.81-3 12-1.42 6.19-2.51 11.59-2.42 12 0.09 0.41-0.12 1.42-0.45 2.25-0.33 0.82-1.34 5.55-2.23 10.5-0.89 4.95-1.87 10.8-2.18 13-0.3 2.2-0.64 5.57-0.74 7.5-0.11 1.92-0.56 4.4-1.01 5.5-0.45 1.1-0.54 3.24-0.19 4.75 0.35 1.51 0.2 3.54-0.35 4.5-0.54 0.96-1.39 8.72-1.89 17.25-0.49 8.52-0.71 24.95-0.49 36.5 0.23 11.55 0.88 24.82 1.46 29.5 0.57 4.67 1.18 10.3 1.36 12.5 0.18 2.2 0.63 6.92 1 10.5 0.36 3.57 1.09 6.61 1.61 6.75 0.51 0.14 0.71 0.7 0.44 1.25-0.28 0.55-0.02 3.59 0.56 6.75 0.58 3.16 1.33 6.42 1.65 7.25 0.33 0.82 0.53 2.29 0.44 3.25-0.08 0.96 0.3 1.75 0.85 1.75 0.55 0 0.77 0.9 0.5 2-0.28 1.1-0.05 2 0.5 2 0.55 0 0.79 0.34 0.53 0.75-0.25 0.41 0.67 5.25 2.05 10.75 1.38 5.5 3.68 13.6 5.11 18 1.44 4.4 2.88 8.22 3.21 8.5 0.33 0.27 0.73 1.17 0.89 2 0.15 0.82 1.24 3.97 2.41 7 1.18 3.02 5.03 11.57 8.56 19 3.54 7.42 6.84 13.61 7.33 13.75 0.5 0.14 0.68 0.7 0.41 1.25-0.28 0.55-0.05 1 0.5 1 0.55 0 0.77 0.45 0.5 1-0.28 0.55 0.17 1.67 1 2.5 0.82 0.82 1.2 1.72 0.83 2-0.36 0.27-0.14 0.5 0.5 0.5 0.64 0 0.94 0.45 0.67 1-0.28 0.55-0.05 1 0.5 1 0.55 0 1 0.56 0.99 1.25-0.01 0.69 2.28 5.3 5.09 10.25 2.8 4.95 5.66 9.45 6.36 10 0.69 0.55 1.3 1.45 1.36 2 0.06 0.55 3.27 5.84 7.15 11.75 3.88 5.91 7.5 10.75 8.05 10.75 0.55 0 1 0.45 1 1 0 0.55 1.23 2.69 2.74 4.75 1.51 2.06 6.91 9.04 12 15.5 5.09 6.46 9.71 11.75 10.26 11.75 0.55 0 0.77 0.45 0.5 1-0.28 0.55 0.54 1.79 1.81 2.75 1.27 0.96 2.74 2.5 3.25 3.41 0.52 0.91 7.68 9.23 15.93 18.5 8.24 9.26 18.88 20.89 23.65 25.84 4.76 4.95 11.26 11.92 14.43 15.5 3.18 3.57 10.54 11.46 16.35 17.53 5.82 6.07 15.3 16.35 21.08 22.86 5.77 6.5 14.25 16.17 18.84 21.47 4.59 5.3 12.5 14.81 17.58 21.14 5.08 6.32 11.61 14.87 14.51 19 2.9 4.12 9.61 14.04 14.92 22.02 5.31 7.99 13.01 20.82 17.12 28.5 4.12 7.69 9.13 17.8 11.14 22.48 2.02 4.67 5.79 14.57 8.39 22 2.6 7.42 5.82 17.77 7.16 23 1.33 5.22 3.58 15.8 5 23.5 1.99 10.83 2.68 18.41 3.06 33.5 0.35 14.6 0.07 22.64-1.16 32-0.89 6.87-2.79 18.12-4.22 25-1.42 6.87-2.72 13.4-2.88 14.5-0.16 1.1-0.4 2.22-0.53 2.5-0.13 0.27-0.32 0.95-0.43 1.5-0.11 0.55-0.44 1.67-0.74 2.5-0.3 0.82-2.23 6.45-4.29 12.5-2.06 6.05-6.66 17.3-10.21 25-3.55 7.7-8.97 18.5-12.06 24-3.08 5.5-7.99 13.71-10.9 18.25-2.92 4.54-5.3 8.7-5.3 9.25 0 0.55-0.36 1.11-0.8 1.25-0.44 0.14-3.02 3.4-5.74 7.25-2.71 3.85-8.36 11.27-12.54 16.5-4.19 5.22-13.26 15.8-20.16 23.5-6.91 7.7-19.91 21.22-28.91 30.05-8.99 8.82-20.85 20.12-26.35 25.09-5.5 4.98-13.38 11.94-17.5 15.48-4.13 3.54-11.78 9.82-17 13.96-5.23 4.13-12.43 9.77-16 12.54-3.58 2.76-11.56 8.92-17.75 13.7-6.19 4.77-21.26 15.56-33.5 23.96-12.24 8.4-29.23 19.85-37.75 25.45-8.53 5.59-21.8 14.21-29.5 19.15-7.7 4.94-19.4 12.15-26 16.02-6.6 3.87-21.87 13.01-33.92 20.32-12.06 7.3-22.07 13.84-22.25 14.53-0.24 0.89 1.26 1.25 5.17 1.25 3.02 0 13.94-0.68 24.25-1.51 10.31-0.83 26.62-2.67 36.25-4.09 9.62-1.42 23.8-3.85 31.5-5.41 7.7-1.56 18.5-4.04 24-5.5 5.5-1.46 16.07-4.38 23.5-6.49 7.42-2.11 19.8-6.05 27.5-8.77 7.7-2.71 19.85-7.29 27-10.17 7.15-2.88 18.85-7.96 26-11.29 7.15-3.32 16.82-7.99 21.5-10.38 4.67-2.38 11.92-6.26 16.11-8.61 4.18-2.35 11.51-6.53 16.28-9.28 4.76-2.75 14.61-8.84 21.89-13.54 7.27-4.7 19.97-13.45 28.22-19.45 8.25-6 17.02-12.59 19.5-14.64 2.47-2.06 8.1-6.73 12.5-10.38 4.4-3.65 12.94-11.22 18.99-16.82 6.04-5.59 14.59-13.79 19-18.21 4.4-4.42 11.57-11.85 15.91-16.5 4.35-4.65 9.59-10.26 11.64-12.46 2.05-2.2 7.61-8.84 12.34-14.75 4.74-5.91 8.28-10.73 7.87-10.71-0.41 0.03 0.37-0.86 1.75-1.96 1.37-1.11 2.05-2.01 1.5-2-0.55 0 0.12-0.9 1.5-2 1.37-1.11 2.27-2.05 2-2.09-0.28-0.05 0.97-1.75 2.78-3.79 1.8-2.03 3.49-4.49 3.75-5.45 0.26-0.96 0.92-1.75 1.47-1.75 0.55 0 5.82-7.31 11.7-16.25 5.89-8.94 14.46-22.78 19.06-30.75 4.6-7.98 12.33-22.38 17.19-32 4.86-9.63 11.55-23.8 14.87-31.5 3.32-7.7 8.74-21.2 12.03-30 3.3-8.8 8.71-25.45 12.02-37 3.32-11.55 7.2-25.95 8.63-32 1.43-6.05 3.26-14.38 4.07-18.5 0.8-4.13 2.33-13.13 3.4-20 1.07-6.88 2.85-20.6 3.95-30.5 1.11-9.9 2.53-27.45 3.16-39 0.63-11.55 0.85-27.53 0.49-35.5-0.36-7.98-1.33-23.73-2.15-35-0.82-11.28-2.83-29.95-4.47-41.5-1.64-11.55-3.26-21.68-3.6-22.5-0.34-0.83-0.8-3.08-1.02-5-0.23-1.93-1.51-8.45-2.87-14.5-1.35-6.05-4.53-18.65-7.06-28-2.53-9.35-5.01-17.11-5.5-17.25-0.5-0.14-0.69-0.59-0.43-1 0.25-0.41-1.5-6.6-3.89-13.75-2.39-7.15-6.03-17.5-8.11-23-2.07-5.5-4.03-10.23-4.37-10.5-0.33-0.28-0.7-1.18-0.82-2-0.12-0.83-2.2-6-4.62-11.5-2.42-5.5-6.76-14.95-9.65-21-2.89-6.05-5.65-11.11-6.13-11.25-0.48-0.14-0.66-0.7-0.38-1.25 0.27-0.55 0.05-1-0.5-1-0.55 0-0.78-0.45-0.5-1 0.27-0.55 0.16-1.11-0.25-1.25-0.41-0.14-3-4.72-5.75-10.18-2.75-5.46-7.25-13.67-10-18.25-2.75-4.58-5.68-9.11-6.51-10.07-0.83-0.96-1.51-2.47-1.5-3.34 0.01-0.88 7.27-9.2 16.13-18.5 8.87-9.3 19.22-20.42 23-24.71 3.79-4.29 6.99-7.77 7.13-7.75 0.14 0.03 3.03 4.44 6.44 9.8 3.4 5.36 6.55 9.86 7 10 0.44 0.14 0.81 0.7 0.81 1.25 0 0.55 3.69 7.19 8.2 14.75 4.51 7.56 8.67 14.08 9.25 14.48 0.66 0.46 0.68 0.75 0.05 0.77q-1 0.03 0 0.77c0.55 0.4 5.58 10.18 11.19 21.73 5.6 11.55 11.4 23.7 12.9 27 1.49 3.3 2.83 6.45 2.98 7 0.15 0.55 2.6 6.85 5.45 14 2.85 7.15 5.81 15.14 6.58 17.75 0.77 2.61 1.85 4.75 2.4 4.75 0.55 0 0.79 0.34 0.53 0.75-0.25 0.41 1.29 5.92 3.43 12.25 2.14 6.32 6.35 20.72 9.36 32 3 11.27 6.43 24.55 7.62 29.5 1.18 4.95 2.29 9.9 2.45 11 0.16 1.1 1.09 6.5 2.07 12 0.97 5.5 1.99 10.67 2.25 11.5 0.26 0.82 0.68 4.2 0.93 7.5 0.25 3.3 0.77 6.22 1.16 6.5 0.38 0.27 0.76 2.07 0.84 4 0.08 1.92 0.45 6.65 0.84 10.5 0.38 3.85 1.09 7.67 1.58 8.5 0.49 0.82 0.68 1.72 0.43 2-0.25 0.27 0.31 8.6 1.24 18.5 1.27 13.39 1.71 28.24 1.73 58 0.02 32.45-0.32 43.11-1.83 56.5-1.01 9.07-1.97 18.52-2.11 21-0.15 2.47-0.49 5.17-0.77 6-0.27 0.82-1.48 8.25-2.68 16.5-1.2 8.25-3.48 21.52-5.07 29.5-1.59 7.97-3.85 18.55-5.02 23.5-1.18 4.95-4.33 16.87-7.01 26.5-2.68 9.62-6.89 23.12-9.36 30-2.47 6.87-6.05 16.77-7.95 22-1.91 5.22-6.6 16.7-10.43 25.5-3.84 8.8-11.03 24.1-15.98 34-4.96 9.9-12.96 24.75-17.79 33-4.83 8.25-13.63 22.2-19.55 31-5.92 8.8-12.92 19.15-15.55 23-2.64 3.85-9.76 13.35-15.82 21.12-6.07 7.76-16.89 20.8-24.04 28.98-7.15 8.18-17.5 19.55-23 25.27-5.5 5.71-17.65 17.43-27 26.03-9.35 8.6-20.83 18.83-25.5 22.73-4.68 3.9-14.15 11.32-21.06 16.48-6.91 5.17-17.49 12.98-23.5 17.37-6.02 4.39-18.59 12.76-27.94 18.61-9.35 5.84-21.5 13.22-27 16.39-5.5 3.17-16.98 9.37-25.5 13.78-8.53 4.42-23.38 11.61-33 15.98-9.63 4.37-22.68 9.87-29 12.22-6.33 2.35-18.93 6.78-28 9.85-9.08 3.06-21 6.91-26.5 8.55-5.5 1.65-15.18 4.36-21.5 6.04-6.33 1.67-18.48 4.42-27 6.11-8.53 1.69-22.25 4.17-30.5 5.5-8.25 1.33-21.98 3.1-30.5 3.93-8.53 0.83-23.83 1.97-34 2.54-10.18 0.56-26.83 1.01-37 1-10.18 0-28.18-0.66-40-1.45-11.83-0.79-25.78-1.92-31-2.5-5.23-0.58-13.1-1.52-17.5-2.09-4.4-0.57-16.78-2.59-27.5-4.49-10.73-1.91-25.13-4.77-32-6.37-6.88-1.6-20.83-5.37-31-8.38-10.18-3.02-23-7.06-28.5-9-5.5-1.93-15.4-5.52-22-7.98-6.6-2.45-18.53-7.27-26.5-10.69-7.98-3.43-19.23-8.53-25-11.33-5.78-2.81-15.9-7.99-22.5-11.53-6.6-3.53-17.4-9.58-24-13.45-6.6-3.86-19.2-11.75-28-17.52-8.8-5.78-23.88-16.35-33.5-23.49-9.63-7.15-23.8-18.25-31.5-24.67-7.7-6.42-19.63-16.86-26.5-23.19-6.88-6.34-18.08-17.33-24.91-24.44-6.82-7.1-18.48-19.89-25.9-28.41-7.42-8.53-14.1-16.06-14.84-16.75-0.74-0.69-1.39-1.59-1.43-2-0.05-0.41-1.74-2.89-3.75-5.52-2.02-2.62-4.01-4.75-4.42-4.75-0.41 0.01-0.77-0.54-0.79-1.23-0.02-0.69-3.48-5.98-7.7-11.75-4.21-5.78-7.92-10.73-8.24-11-0.32-0.28-6.01-8.83-12.64-19-6.64-10.18-13.04-20.41-14.22-22.75-1.19-2.34-2.61-4.25-3.16-4.25-0.55 0-0.78-0.45-0.5-1 0.27-0.55-0.06-1.58-0.75-2.3-0.69-0.71-2.1-2.85-3.13-4.75-1.03-1.9-4.38-8.18-7.44-13.95-3.05-5.78-6.03-10.83-6.62-11.23-0.58-0.41-0.72-0.75-0.31-0.75 0.41-0.01-2.01-5.53-5.39-12.27-3.37-6.74-7.69-15.85-9.6-20.25-1.91-4.4-5.36-12.73-7.67-18.5-2.3-5.78-4.84-12.42-5.64-14.77-0.8-2.36-1.68-4.27-1.95-4.25-0.28 0.01-0.61-0.99-0.74-2.23-0.13-1.24-0.58-2.48-1-2.75-0.42-0.28-0.83-1.18-0.91-2-0.08-0.83-2.64-9.15-5.69-18.5-3.05-9.35-7.34-23.98-9.54-32.5-2.19-8.53-4.74-19.33-5.66-24-0.92-4.68-1.94-8.95-2.27-9.5-0.32-0.55-0.72-2.35-0.89-4-0.16-1.65-0.96-6.6-1.78-11-0.82-4.4-2.17-12.28-3-17.5-0.82-5.23-2.15-14.68-2.95-21-0.8-6.33-2.13-19.15-2.97-28.5-0.83-9.35-1.68-23.75-1.89-32-0.22-8.25-0.05-25.13 0.37-37.5 0.41-12.38 1.49-30.15 2.4-39.5 0.91-9.35 1.9-19.7 2.2-23 0.31-3.3 0.67-7.13 0.82-8.5 0.14-1.38 0.59-3.4 1-4.5 0.41-1.1 0.46-3.01 0.12-4.25-0.34-1.25-0.17-2.25 0.38-2.25 0.55 0 1.26-2.59 1.58-5.75 0.33-3.16 1.24-9.58 2.03-14.25 0.79-4.68 2.76-14.35 4.38-21.5 1.62-7.15 3.83-16.6 4.92-21 1.08-4.4 1.77-8.34 1.53-8.75-0.24-0.41-0.1-0.74 0.31-0.74 0.41 0.01 1.83-4.38 3.15-9.75 1.32-5.37 3.65-13.36 5.19-17.76 1.53-4.4 2.47-8.35 2.09-8.78-0.37-0.43-0.12-0.76 0.57-0.75 0.69 0.02 1.54-1.43 1.89-3.22 0.36-1.79 3.03-9.78 5.93-17.75 2.91-7.98 5.44-15.18 5.61-16 0.18-0.83 0.54-1.73 0.82-2 0.27-0.28 1.29-2.19 2.25-4.25 0.96-2.06 1.52-4.2 1.25-4.75-0.28-0.55-0.09-1.11 0.4-1.25 0.5-0.14 3.01-5.2 5.59-11.25 2.58-6.05 8.58-18.65 13.32-28 4.75-9.35 8.53-17.34 8.41-17.75-0.12-0.41 0.12-0.74 0.53-0.74 0.41 0.01 2.1-2.56 3.75-5.71 1.65-3.15 3.62-6.42 4.38-7.27 0.77-0.84 2.3-3.33 3.41-5.53 1.12-2.2 3.53-6.36 5.37-9.25 1.84-2.89 3-5.26 2.59-5.28-0.41-0.02 0.04-0.47 1-1 0.96-0.53 1.52-1.42 1.25-1.97-0.28-0.55-0.05-1 0.5-1 0.55 0 1-0.68 1-1.5 0-0.83 0.45-1.5 1-1.5 0.55 0 1-0.45 1-1 0-0.55 0.79-1.85 1.75-2.9 0.96-1.04 2.42-3.18 3.25-4.75 0.82-1.57 1.77-3.08 2.11-3.35 0.34-0.28 4.06-5.56 8.26-11.75 4.19-6.19 7.43-11.25 7.18-11.25-0.25 0 0.53-1.04 1.75-2.3 1.21-1.27 5.14-6.1 8.74-10.75 3.6-4.65 6.72-8.9 6.94-9.45 0.21-0.55 1.43-1.79 2.7-2.75 1.28-0.96 2.21-1.99 2.07-2.28-0.14-0.3 1.26-2.21 3.1-4.25 1.84-2.05 4.32-4.74 5.5-5.98 1.18-1.24 1.92-2.26 1.65-2.27-0.28-0.01 4.45-5.24 10.5-11.63 6.05-6.39 10.8-11.66 10.55-11.73-0.24-0.06 3.81-4.41 9-9.67 5.2-5.26 10.46-10.09 11.7-10.75 1.24-0.65 2.02-1.64 1.75-2.19-0.28-0.55-0.07-0.89 0.46-0.75 0.53 0.14 3.12-1.9 5.75-4.53 2.64-2.63 9.05-8.48 14.26-13 5.21-4.52 10.93-9.57 12.71-11.22 1.79-1.65 3.38-2.87 3.54-2.71 0.15 0.16 1.52-1.08 3.03-2.75 1.51-1.67 2.97-2.82 3.25-2.54 0.27 0.27 1.4-0.63 2.5-2 1.1-1.38 2.34-2.51 2.75-2.52 0.41-0.01 5.02-3.24 10.25-7.18 5.22-3.93 11.07-8.29 13-9.69 1.92-1.39 3.61-2.88 3.75-3.32 0.14-0.43 0.59-0.78 1-0.77 0.41 0.01 6.49-3.82 13.5-8.5 7.01-4.69 12.41-8.78 12-9.1-0.41-0.32-0.3-0.45 0.25-0.27 0.55 0.17 2.92-0.81 5.27-2.17 2.35-1.36 4.27-2.82 4.25-3.23-0.01-0.41 0.99-0.95 2.23-1.2 1.24-0.25 3.16-1.26 4.28-2.25 1.11-0.99 3.71-2.7 5.78-3.8 2.06-1.1 3.74-2.34 3.72-2.75-0.02-0.41 0.42-0.53 0.97-0.25 0.55 0.27 1 0.05 1-0.5 0-0.55 0.34-0.79 0.75-0.53 0.41 0.26 1.76-0.42 3-1.5 1.24-1.08 2.25-1.75 2.25-1.47 0 0.27 3.04-1.16 6.75-3.19 3.71-2.04 7.08-4.17 7.48-4.75 0.41-0.58 0.75-0.72 0.75-0.31 0.01 0.41 3.68-1.16 8.16-3.5 4.48-2.34 8.31-4.59 8.5-5 0.2-0.41 0.81-0.53 1.36-0.25 0.55 0.27 1.57-0.06 2.27-0.75 0.7-0.69 1.94-1.4 2.75-1.58 0.82-0.17 1.59-0.74 1.73-1.25 0.14-0.5 0.7-0.7 1.25-0.42 0.55 0.27 1.57-0.06 2.27-0.75 0.7-0.69 1.94-1.39 2.75-1.57 0.82-0.18 4.18-1.51 7.48-2.96 3.3-1.45 6.22-3.03 6.5-3.52 0.27-0.48 0.8-0.72 1.17-0.54 0.37 0.19 2.96-0.56 5.76-1.66 2.8-1.1 5.08-2.34 5.08-2.75-0.01-0.41 0.33-0.57 0.74-0.34 0.41 0.23 2.32-0.29 4.25-1.15 1.92-0.86 4.17-1.7 5-1.88 0.82-0.18 3.41-1.13 5.75-2.1 2.33-0.98 4.24-2.12 4.25-2.53 0-0.41 0.45-0.53 1-0.25 0.55 0.27 3.36-0.35 6.25-1.38 2.89-1.04 9.97-3.55 15.75-5.58 5.77-2.03 11.17-3.95 12-4.26 0.82-0.31 2.17-0.65 3-0.77 0.82-0.12 9.04-2.3 18.25-4.86 9.21-2.56 22.71-5.97 30-7.59 7.29-1.61 19.77-4.07 27.75-5.45 7.97-1.38 21.25-3.42 29.5-4.53 8.25-1.1 20.17-2.51 26.5-3.13 6.32-0.61 17.35-1.49 24.5-1.96 7.15-0.47 25.6-0.65 41-0.4zm-51 69.42c-7.7 0.59-19.63 1.73-26.5 2.53-6.88 0.81-18.58 2.41-26 3.56-7.43 1.15-14.18 2.34-15 2.65-0.83 0.31-2.29 0.49-3.25 0.4-0.96-0.08-1.98 0.3-2.25 0.85-0.28 0.55-0.84 0.79-1.25 0.54-0.41-0.26-6.38 0.88-13.25 2.52-6.88 1.64-13.18 3.25-14 3.59-0.83 0.34-2.4 0.73-3.5 0.87-1.1 0.15-7.4 1.69-14 3.44-6.6 1.75-15.15 4.23-19 5.52-3.85 1.28-13.3 4.67-21 7.52-7.7 2.85-16.7 6.31-20 7.7-3.3 1.38-8.03 3.42-10.5 4.53-2.48 1.12-4.73 2.46-5 2.98-0.28 0.53-0.73 0.84-1 0.7-0.28-0.15-2.65 0.6-5.28 1.66-2.63 1.06-4.77 2.15-4.75 2.43 0.01 0.27-0.53 0.55-1.22 0.61-0.69 0.07-5.3 2.11-10.25 4.55-4.95 2.44-12.6 6.37-17 8.74-4.4 2.37-8.33 4.82-8.73 5.45-0.41 0.63-0.73 0.7-0.72 0.15 0.01-0.55-0.79-0.24-1.77 0.68-0.98 0.92-2.15 1.6-2.6 1.5-0.46-0.1-4.84 2.18-9.75 5.07-4.91 2.89-8.92 5.81-8.9 6.5 0.01 0.69-0.32 0.93-0.75 0.54-0.43-0.4-2.81 0.7-5.28 2.43-2.48 1.73-4.73 3.4-5 3.72-0.28 0.31-1.63 1.15-3 1.86-1.38 0.71-8.58 5.55-16 10.75-7.43 5.2-14.85 10.68-16.5 12.16-1.65 1.49-3.24 2.72-3.52 2.75-0.29 0.02-1.19 0.61-2 1.3-0.82 0.69-3.84 3.05-6.73 5.25-2.89 2.19-5.25 4.44-5.25 4.99 0 0.55-0.79 1.21-1.75 1.47-0.96 0.26-4.45 3.03-7.75 6.17-3.3 3.13-6.32 5.74-6.72 5.78-0.39 0.04-2.19 1.54-4 3.32-1.8 1.79-11.25 11.01-20.99 20.5-9.74 9.49-17.72 17.71-17.73 18.26-0.01 0.55-2.71 3.47-6.01 6.5-3.29 3.02-5.9 5.72-5.8 6 0.11 0.27-2.59 3.42-6 7-3.4 3.57-5.97 6.61-5.72 6.75 0.26 0.14-0.88 1.37-2.53 2.75-1.65 1.37-2.78 2.95-2.5 3.5 0.27 0.55-0.63 1.67-2 2.5-1.38 0.82-2.5 2.17-2.5 3 0 0.82-0.68 1.72-1.5 2-0.83 0.27-1.28 0.95-1 1.5 0.27 0.55-0.18 1.22-1 1.5-0.83 0.27-1.28 0.95-1 1.5 0.27 0.55-0.63 1.67-2 2.5-1.38 0.82-2.28 1.95-2 2.5 0.27 0.55 0.16 0.98-0.25 0.95-0.41-0.02-3.48 3.69-6.81 8.25-3.33 4.57-8.62 12.24-11.75 17.05-3.13 4.81-5.69 9.2-5.69 9.75 0 0.55-0.34 1.11-0.75 1.25-0.41 0.14-1.99 2.16-3.5 4.5-1.51 2.34-2.41 4.26-2 4.27 0.41 0 0.26 0.34-0.34 0.75-0.59 0.4-2.66 3.2-4.59 6.23-1.92 3.02-4.56 7.52-5.86 10-1.3 2.47-2.27 4.84-2.16 5.25 0.11 0.41-0.25 0.75-0.8 0.75-0.55 0-0.78 0.45-0.5 1 0.27 0.55 0.16 0.99-0.25 0.98-0.41-0.02-4.66 7.75-9.45 17.25-4.78 9.5-8.83 17.94-9 18.77-0.16 0.82-0.57 1.72-0.89 2-0.32 0.27-2.98 6.12-5.9 13-2.92 6.87-5.37 12.95-5.44 13.5-0.07 0.55-0.42 1.45-0.77 2-0.35 0.55-2.93 7.41-5.72 15.25-2.79 7.84-4.86 14.7-4.58 15.25 0.27 0.55 0.16 0.99-0.25 0.98-0.41-0.01-1.61 2.58-2.66 5.75-1.05 3.17-2 6.44-2.11 7.27-0.11 0.82-0.71 2.74-1.34 4.25-0.63 1.51-0.92 3.2-0.64 3.75 0.27 0.55 0.05 1.22-0.5 1.5-0.55 0.27-0.78 1.17-0.5 2 0.27 0.82 0.05 1.5-0.5 1.5-0.55 0-0.8 0.56-0.55 1.25 0.25 0.69 0.13 1.63-0.25 2.1-0.39 0.46-0.79 1.36-0.89 2-0.11 0.63-0.48 2.27-0.84 3.65-0.36 1.37-0.74 3.17-0.85 4-0.11 0.82-0.48 1.95-0.81 2.5-0.33 0.55-1.99 7.3-3.67 15-1.69 7.7-4.18 20.97-5.54 29.5-1.36 8.52-3.17 21.12-4.02 28-0.85 6.87-1.53 13.4-1.5 14.5 0.03 1.1-0.64 10.32-1.48 20.5-0.85 10.17-1.55 24.8-1.56 32.5-0.01 7.7 0.42 21.65 0.95 31 0.53 9.35 1.47 22.17 2.08 28.5 0.61 6.32 1.37 12.17 1.68 13 0.31 0.82 0.49 1.95 0.4 2.5-0.09 0.55 0.51 5.27 1.34 10.5 0.83 5.22 1.73 10.85 2 12.5 0.28 1.65 0.55 3.67 0.62 4.5 0.06 0.82 1.61 8.7 3.44 17.5 1.83 8.8 4.72 21.4 6.41 28 1.69 6.6 3.36 12.67 3.7 13.5 0.34 0.82 0.72 2.17 0.84 3 0.12 0.82 0.95 4.2 1.83 7.5 0.89 3.3 3.15 10.5 5.02 16 1.87 5.5 5.89 16.52 8.94 24.5 3.05 7.97 8.88 21.92 12.97 31 4.09 9.07 11.4 23.92 16.25 33 4.85 9.07 12.4 22.57 16.78 30 4.37 7.42 11.15 18.22 15.05 24 3.9 5.77 8.9 12.97 11.12 16 2.22 3.02 7.39 9.77 11.49 15 4.11 5.22 10.13 12.65 13.38 16.5 3.26 3.85 9.8 11.27 14.54 16.5 4.74 5.22 13.8 14.83 20.12 21.35 6.33 6.52 17.36 17.12 24.51 23.54 7.15 6.43 16.6 14.64 21 18.26 4.4 3.61 12.72 10.1 18.5 14.42 5.77 4.31 18.6 13.32 28.5 20.01 9.9 6.69 25.65 16.57 35 21.95 9.35 5.38 25.1 13.73 35 18.54 9.9 4.81 23.85 11.23 31 14.27 7.15 3.03 18.4 7.52 25 9.97 6.6 2.45 16.5 5.89 22 7.65 5.5 1.75 14.95 4.55 21 6.22 6.05 1.66 14.82 4.06 19.5 5.33 4.67 1.26 14.8 3.64 22.5 5.29 7.7 1.64 15.69 3.26 17.75 3.59 3.04 0.5 3.84 0.28 4.23-1.14 0.27-0.96 1.47-9.85 2.68-19.75 1.84-15.1 2.2-23.47 2.26-52 0.06-26.96-0.29-37-1.71-48.5-0.98-7.98-2.7-19.68-3.81-26-1.1-6.33-3.75-18.7-5.88-27.5-2.12-8.8-6.32-22.98-9.31-31.5-3-8.53-7.13-19.55-9.18-24.5-2.04-4.95-7.14-15.53-11.32-23.5-4.18-7.98-10.82-19.68-14.75-26-3.93-6.33-11.11-17.13-15.95-24-4.85-6.88-13.85-18.8-20.01-26.5-6.16-7.7-14.19-17.15-17.85-21-3.65-3.85-6.66-7.23-6.68-7.5-0.03-0.28-1.9-2.53-4.18-5-2.27-2.48-10.69-11.45-18.71-19.94-8.02-8.49-19.24-20.19-24.93-26-5.69-5.81-12.21-12.59-14.5-15.07-2.28-2.48-8.65-9.45-14.15-15.49-5.5-6.03-11.69-12.67-13.75-14.74-2.06-2.07-3.86-4.1-4-4.51-0.14-0.41-0.7-0.6-1.25-0.42-0.55 0.19-0.67-0.04-0.27-0.5 0.4-0.46-2.33-4.21-6.06-8.33-3.73-4.13-11.29-12.9-16.79-19.5-5.5-6.6-13.39-16.28-17.54-21.5-4.14-5.23-10.92-14.45-15.07-20.5-4.14-6.05-10.51-15.84-14.15-21.75-3.64-5.91-9.52-16.26-13.05-23-3.54-6.74-8.71-17.88-11.49-24.75-2.77-6.88-5.05-13.06-5.06-13.75-0.01-0.69-0.56-2.26-1.22-3.5-0.66-1.24-1.29-2.7-1.4-3.25-0.1-0.55-1.32-5.05-2.7-10-1.38-4.95-3.45-13.28-4.6-18.5-1.15-5.23-2.58-12.88-3.18-17-0.59-4.13-1.48-10.43-1.97-14-0.49-3.58-0.9-14.26-0.92-23.75-0.02-10.38 0.59-21.73 1.54-28.5 0.86-6.19 2.69-16.65 4.07-23.25 1.38-6.6 3.58-15.83 4.89-20.5 1.32-4.68 3.77-12.55 5.45-17.5 1.69-4.95 3.05-9.11 3.04-9.25-0.01-0.14 0.94-2.39 2.12-5 1.18-2.61 3.88-8.46 6-13 2.12-4.54 3.52-8.49 3.11-8.78-0.41-0.29-0.3-0.5 0.25-0.47 0.55 0.04 1.89-1.86 2.97-4.22 1.09-2.35 2.25-4.51 2.59-4.78 0.34-0.28 2.35-3.65 4.47-7.5 2.12-3.85 7.9-13.08 12.84-20.5 4.95-7.43 8.92-13.61 8.81-13.75-0.1-0.14 1.37-1.94 3.26-4 1.89-2.06 3.24-4.09 3-4.5-0.24-0.41-0.1-0.73 0.31-0.7 0.41 0.02 3.13-3.02 6.04-6.75 2.92-3.74 7.64-9.48 10.5-12.75 2.87-3.27 9.3-10.47 14.31-16 5-5.53 14.45-15.27 21-21.64 6.54-6.38 17.07-16.44 23.4-22.36 6.32-5.92 17.47-15.78 24.77-21.91 7.3-6.12 13.27-11.48 13.25-11.89-0.01-0.41 0.43-0.75 0.98-0.75 0.55 0 3.7-2.03 7-4.5 3.3-2.48 6-4.95 6-5.5 0-0.55 0.67-1 1.5-1 0.82 0 2.4-1.13 3.5-2.5 1.1-1.38 2.45-2.5 3-2.5 0.55 0 1.22-0.68 1.5-1.5 0.27-0.83 1.17-1.5 2-1.5 0.82 0 1.72-0.68 2-1.5 0.27-0.83 0.95-1.5 1.5-1.5 0.55 0 3.26-1.69 6.01-3.75 2.76-2.06 5.01-4.09 5-4.5 0-0.41 0.66-0.75 1.49-0.75 0.82 0 1.71-0.56 1.97-1.25 0.27-0.69 1.5-1.57 2.75-1.96 1.26-0.4 3.74-2.08 5.53-3.75 1.79-1.67 3.47-3.04 3.75-3.04 0.27 0 3.54-2.27 7.25-5.04 3.71-2.77 7.54-5.69 8.5-6.5 0.96-0.8 2.09-1.46 2.5-1.45 0.41 0 2.21-1.35 4-3 1.79-1.66 3.47-2.79 3.75-2.51 0.27 0.27 0.95-0.4 1.5-1.5 0.55-1.1 1.34-1.78 1.75-1.51 0.41 0.26 1.99-0.64 3.5-2 1.51-1.37 2.97-2.15 3.24-1.74 0.27 0.41 0.72-0.04 1-1 0.28-0.96 0.96-1.53 1.51-1.25 0.55 0.27 1.79-0.3 2.75-1.28 0.96-0.98 2.54-2.1 3.5-2.5 0.96-0.4 1.75-1.17 1.75-1.72 0-0.55 0.34-0.78 0.75-0.51 0.41 0.26 1.99-0.64 3.5-2 1.51-1.37 3.09-2.48 3.5-2.47 0.41 0 2.77-1.45 5.25-3.24 2.47-1.79 4.61-3.59 4.75-4.01 0.14-0.43 0.7-0.77 1.25-0.77 0.55 0 4.94-2.59 9.75-5.75 4.81-3.16 8.86-6.09 9-6.5 0.14-0.41 0.7-0.53 1.25-0.25 0.55 0.27 1.56-0.2 2.25-1.04 0.69-0.85 1.81-1.53 2.5-1.5 0.69 0.02 1.69-0.75 2.22-1.71 0.53-0.96 0.98-1.41 1-1 0.02 0.41 4.19-1.92 9.28-5.17 5.09-3.26 10.26-6.86 11.5-8 1.24-1.15 2.4-1.97 2.59-1.83 0.19 0.14 5.23-2.68 11.2-6.25 5.97-3.58 11.44-7.06 12.16-7.75 0.71-0.69 1.3-1.03 1.3-0.75 0 0.27 1.91-0.69 4.25-2.15 2.34-1.46 4.47-2.92 4.75-3.25 0.27-0.33 2.07-1.39 4-2.35 1.92-0.97 6.09-3.22 9.26-5 3.17-1.79 5.42-3.66 5-4.16-0.42-0.51-0.21-0.62 0.49-0.25 0.69 0.36 1.81 0.07 2.5-0.65 0.69-0.71 2.15-1.65 3.25-2.07 1.1-0.42 6.84-3.66 12.75-7.19 5.91-3.54 10.75-6.88 10.75-7.43 0-0.55-1.46-1.17-3.25-1.38-1.79-0.21-9.55-0.36-17.25-0.33-7.7 0.03-16.93 0.19-20.5 0.35-3.58 0.17-12.8 0.79-20.5 1.37zm21.27 136.34c-0.41 0.63-0.65 0.81-0.55 0.4 0.11-0.42-3.61 1.69-8.26 4.67-4.65 2.99-9.25 6.14-10.21 7-0.96 0.87-2.09 1.6-2.5 1.63-0.41 0.02-5.7 3.13-11.75 6.9-6.05 3.78-12.24 8.03-13.75 9.46-1.51 1.42-2.86 2.48-3 2.35-0.14-0.13-3.05 1.55-6.46 3.75-3.42 2.19-6.12 4.58-6 5.3 0.11 0.72 4.71 3.27 10.21 5.67 5.5 2.39 10.67 4.5 11.5 4.69 0.82 0.18 1.72 0.6 2 0.94 0.27 0.34 5 2.43 10.5 4.66 5.5 2.23 18.77 7.78 29.5 12.32 10.72 4.55 20.29 8.19 21.25 8.09 0.96-0.1 1.75 0.27 1.75 0.82 0 0.55 0.45 0.77 1 0.5 0.55-0.28 1-0.05 1 0.5 0 0.55 0.67 0.77 1.5 0.5 0.82-0.28 1.49 0.06 1.48 0.75q-0.02 1.27 1.06 0.25c0.76-0.71 0.49-5.78-0.95-17.5-1.11-9.08-2.29-20.78-2.61-26-0.33-5.23-0.77-11.08-0.99-13-0.21-1.93-0.52-11.64-0.68-21.58-0.18-11.34-0.66-18.09-1.3-18.11-0.55-0.01-5.96 3.11-12.01 6.94-6.05 3.83-11.33 7.47-11.73 8.1zm-155.02 108.8c-5.91 4.87-10.75 9.3-10.75 9.85 0 0.55-0.45 0.77-1 0.5-0.55-0.28-7.92 6.36-16.37 14.75-8.46 8.39-17.35 16.96-19.75 19.04-2.41 2.08-4.16 3.96-3.88 4.16 0.27 0.21 4.1 2.02 8.5 4.03 4.4 2.01 8.79 3.74 9.75 3.84 0.97 0.1 1.75 0.52 1.75 0.93 0 0.41 0.45 0.52 1 0.25 0.55-0.28 1.11-0.03 1.25 0.54 0.14 0.57 1.26 1.13 2.5 1.25 1.24 0.12 2.25 0.55 2.25 0.96 0 0.41 0.9 0.52 2 0.25 1.1-0.28 2.34 0.08 2.75 0.79 0.41 0.7 7.5 4.05 15.75 7.44 8.25 3.39 15.67 6.3 16.5 6.47 0.82 0.16 1.72 0.58 2 0.93 0.27 0.35 6.12 2.98 13 5.86 6.87 2.88 15.09 6.31 18.25 7.62 3.16 1.31 5.99 2.05 6.28 1.64 0.29-0.41 0.51-0.19 0.5 0.5-0.02 0.69 0.64 1.02 1.47 0.75q1.49-0.49 0.75 0.73c-0.53 0.87-0.24 1.02 1 0.5 0.99-0.41 1.75-0.29 1.75 0.27 0 0.55 1.57 1.45 3.5 2 1.92 0.55 3.84 0.96 4.25 0.91 0.41-0.04 0.97 0.36 1.25 0.9 0.27 0.55 1.4 1.15 2.5 1.34 1.1 0.19 2.22 0.61 2.5 0.92 0.27 0.32 4.44 2.23 9.25 4.25 4.81 2.02 8.75 3.45 8.75 3.18 0-0.28 0.67 0.17 1.5 1 0.82 0.82 1.95 1.27 2.5 1 0.55-0.28 1.11-0.14 1.25 0.29 0.14 0.43 2.72 1.76 5.75 2.94 3.02 1.19 10.34 4.21 16.25 6.71 5.91 2.51 10.99 4.22 11.28 3.81 0.29-0.41 0.51-0.19 0.5 0.5-0.02 0.69 1.21 1.55 2.72 1.92 1.51 0.37 2.97 0.72 3.25 0.78 0.27 0.07 1.4 0.62 2.5 1.24 1.1 0.61 2.34 1.16 2.75 1.21 0.41 0.06 2.89 1.05 5.5 2.21 2.61 1.16 9.36 4.09 15 6.5 5.64 2.41 10.26 4.05 10.27 3.64 0-0.41 0.34-0.27 0.75 0.31 0.4 0.58 7.25 3.81 15.23 7.18 7.97 3.36 15.17 6.26 16 6.44 0.82 0.18 1.72 0.59 2 0.92 0.27 0.33 6.35 2.97 13.5 5.86 7.15 2.9 22.45 9.3 34 14.24 11.55 4.93 21.79 9.05 22.75 9.14 0.97 0.09 1.75 0.5 1.75 0.91 0 0.41 0.5 0.41 1.11 0 0.61-0.41 1.4-0.21 1.75 0.45 0.39 0.73 1.22 0.87 2.14 0.37 1.23-0.68 0.74-1.87-2.76-6.7-2.34-3.23-8.32-11.5-13.28-18.37-4.96-6.88-9.91-13.51-10.99-14.75-1.08-1.24-1.75-2.25-1.47-2.25 0.27 0-0.73-1.91-2.24-4.25-1.51-2.34-3.12-4.48-3.59-4.75-0.46-0.28-0.8-0.84-0.76-1.25 0.05-0.41 0.09-1.2 0.09-1.75 0-0.55-0.56-0.66-1.24-0.25q-1.23 0.74-0.5-0.5c0.42-0.71-0.02-1.98-1.01-2.93-0.96-0.92-1.64-1.82-1.5-2 0.14-0.18-3.09-6.73-7.18-14.57-4.08-7.84-9.3-18.53-11.59-23.75-2.29-5.23-4.91-10.73-5.82-12.24-0.94-1.55-3.73-3.62-6.41-4.75-2.61-1.11-5.2-1.79-5.75-1.51-0.55 0.27-1 0.05-1-0.5 0-0.55-0.68-0.78-1.5-0.5-0.83 0.27-2.4-0.4-3.5-1.5-1.1-1.1-2.23-1.78-2.5-1.5-0.28 0.27-1.18-0.18-2-1-0.83-0.83-3.19-1.79-5.25-2.14-2.06-0.36-3.98-1.04-4.25-1.52-0.28-0.48-1.18-1-2-1.16-0.83-0.15-2.4-0.77-3.5-1.36-1.1-0.6-7.18-3.23-13.5-5.85-6.33-2.61-16.23-6.69-22-9.06-5.78-2.36-10.95-3.99-11.49-3.61-0.59 0.42-0.69 0.19-0.25-0.55 0.46-0.77 0.17-1.25-0.76-1.25-0.83 0-1.95-0.23-2.5-0.5-0.55-0.28-1.34-0.55-1.75-0.62-0.41-0.06-1.09-0.06-1.5 0-0.41 0.07-0.75-0.33-0.75-0.88 0-0.56-0.76-0.68-1.75-0.27-1.39 0.58-1.54 0.42-0.75-0.73 0.79-1.15 0.64-1.31-0.75-0.73-1.07 0.45-2.33 0.15-3.25-0.77-0.83-0.83-1.74-1.16-2.03-0.75-0.29 0.41-0.51 0.19-0.5-0.5 0.02-0.69-0.31-1.2-0.72-1.14-0.41 0.06-1.88-0.25-3.25-0.68-1.38-0.44-2.73-0.67-3-0.53-0.28 0.15-0.73-0.17-1-0.71-0.28-0.54-6.13-3.33-13-6.2-6.88-2.88-12.95-5.33-13.5-5.45-0.55-0.13-3.03-1.14-5.5-2.25-2.48-1.11-9.34-4.1-15.25-6.65-6.1-2.63-11.29-4.32-11.99-3.89q-1.23 0.74-0.5-0.5 0.74-1.25-2.01-1.92c-1.51-0.37-2.98-0.72-3.25-0.79-0.28-0.07-1.85-0.85-3.5-1.73-1.65-0.88-3.9-1.76-5-1.96-1.1-0.19-2.23-0.61-2.5-0.93-0.28-0.32-4.1-2.06-8.5-3.88-4.4-1.81-8.45-3.43-9-3.59-0.55-0.16-1.68-0.03-2.5 0.28-0.83 0.31-6.34 4.55-12.25 9.42zm-121.55 144.85c-2.14 4.67-5.78 13.9-8.08 20.5-2.31 6.6-3.95 12.56-3.66 13.25 0.3 0.69 0.09 1.47-0.46 1.75-0.55 0.27-0.78 1.62-0.5 3 0.3 1.48 0.09 2.3-0.5 2-0.55-0.28-1 0.4-1 1.5 0 1.61 1.98 2.76 10.25 5.93 5.64 2.15 14.07 5.56 18.75 7.56 4.67 2.01 9.51 4.07 10.75 4.58 1.24 0.51 2.26 0.59 2.27 0.18 0-0.41 0.34-0.29 0.75 0.27 0.4 0.56 7.48 3.86 15.73 7.33 8.25 3.48 15.67 6.47 16.5 6.66 0.82 0.18 1.72 0.42 2 0.53 0.27 0.11 0.84 0.14 1.25 0.08 0.41-0.07 0.75 0.33 0.75 0.88 0 0.55 0.45 0.77 1 0.5 0.55-0.28 1-0.05 1 0.5 0 0.55 0.67 0.77 1.5 0.5 0.82-0.28 1.61-0.12 1.75 0.36 0.14 0.47 4.75 2.73 10.25 5.03 5.5 2.3 11.57 4.8 13.5 5.56 1.92 0.76 4.17 1.59 5 1.84 0.82 0.25 1.95 0.47 2.5 0.5 0.55 0.02 1.22 0.44 1.5 0.92 0.27 0.48 6.8 3.52 14.5 6.75 7.7 3.22 16.59 6.91 19.75 8.2 3.16 1.29 5.99 2 6.28 1.59 0.29-0.41 0.51-0.19 0.5 0.5-0.02 0.69 0.42 1.02 0.97 0.75 0.55-0.28 1-0.16 0.99 0.25-0.01 0.41 1.91 1.5 4.25 2.41 2.34 0.92 10.22 4.18 17.51 7.25 7.29 3.08 13.49 5.25 13.78 4.84 0.29-0.41 0.51-0.19 0.5 0.5-0.02 0.69 0.42 1.25 0.97 1.25 0.55 0 7.41 2.76 15.25 6.14 7.84 3.38 23.47 9.93 34.75 14.55 11.27 4.63 21.29 8.5 22.25 8.61 0.97 0.11 1.74 0.42 1.72 0.7-0.02 0.27 3.02 1.8 6.75 3.39 3.73 1.59 10.83 4.64 15.78 6.78 4.95 2.14 9.67 3.99 10.5 4.11 0.82 0.12 1.72 0.5 2 0.84 0.27 0.34 7.02 3.24 15 6.44 7.97 3.2 15.06 5.84 15.75 5.88 0.69 0.03 1.25 0.4 1.25 0.81 0 0.41 1.69 1.29 3.75 1.95 2.06 0.67 4.09 1.12 4.5 1 0.41-0.11 0.75 0.25 0.75 0.8 0 0.55 1.69 1.54 3.75 2.21 2.06 0.66 3.97 1.26 4.25 1.33 0.27 0.07 2.75 1.13 5.5 2.37 2.75 1.23 8.37 3.59 12.5 5.25 4.12 1.65 9.75 4.07 12.5 5.37 2.75 1.3 7.25 3.25 10 4.32 2.75 1.08 10.96 4.47 18.25 7.55 7.29 3.08 13.26 5.26 13.27 4.85 0-0.41 0.34-0.28 0.75 0.28 0.4 0.57 7.11 3.72 14.91 7 7.81 3.29 14.56 5.82 15 5.63 0.45-0.18 1.04 0.09 1.32 0.6 0.27 0.52 3.42 2.1 7 3.52 3.57 1.42 11.9 4.91 18.5 7.75 6.6 2.84 12.67 5.31 13.5 5.49 0.82 0.18 1.72 0.41 2 0.52 0.27 0.11 0.84 0.14 1.25 0.08 0.41-0.07 0.75 0.33 0.75 0.88 0 0.55 0.45 0.77 1 0.5 0.55-0.28 1.22-0.05 1.5 0.5 0.27 0.55 0.95 0.77 1.5 0.5 0.55-0.28 1-0.05 1 0.5 0 0.55 1.24 1.3 2.75 1.67 1.51 0.37 2.97 0.72 3.25 0.78 0.27 0.07 1.4 0.66 2.5 1.31 1.1 0.65 2.35 0.86 2.78 0.46 0.43-0.39 0.76-0.16 0.75 0.53-0.02 0.69 0.31 1.18 0.72 1.09 0.41-0.08 3 0.88 5.75 2.14 2.75 1.27 5.45 2.36 6 2.44 0.55 0.07 1.56 0.46 2.25 0.86 0.69 0.4 1.26 0.38 1.27-0.03 0-0.41 0.34-0.23 0.75 0.4 0.4 0.64 5.9 3.28 12.23 5.87 6.32 2.59 14.09 5.78 17.25 7.09 3.16 1.32 5.75 2.16 5.75 1.89 0-0.28 0.67 0.17 1.5 1 0.82 0.82 2.29 1.55 3.25 1.62 0.96 0.06 2.09 0.06 2.5 0 0.41-0.07 0.75 0.33 0.75 0.88 0 0.55 0.34 0.9 0.75 0.79 0.41-0.12 1.87 0.4 3.25 1.15 1.37 0.76 9.81 4.45 18.75 8.22 8.94 3.76 16.92 6.84 17.75 6.84 0.82 0 1.51-0.34 1.52-0.75 0.02-0.41-1.57-4.8-3.53-9.75-1.95-4.95-6.51-14.85-10.13-22-3.61-7.15-9.97-18.18-14.12-24.5-4.14-6.33-11.52-16.79-16.39-23.25-4.87-6.46-9.3-11.75-9.85-11.75-0.55 0-1-0.45-1-1 0-0.55-3.01-4.49-6.69-8.75-3.68-4.26-7.84-9.04-9.25-10.61-1.41-1.58-6.84-4.88-12.06-7.33-5.23-2.46-10.29-4.55-11.25-4.64-0.97-0.09-1.74-0.4-1.73-0.67 0.01-0.28-1.9-1.11-4.25-1.87-2.35-0.75-4.5-1.27-4.77-1.16-0.28 0.11-0.73-0.19-1-0.68-0.28-0.48-4.1-2.38-8.5-4.23-4.4-1.84-8.56-3.39-9.25-3.45-0.69-0.06-1.25-0.45-1.25-0.86 0-0.41-1.24-1.01-2.75-1.33-1.51-0.32-2.98-0.51-3.25-0.42-0.28 0.1-0.73-0.24-1-0.75-0.28-0.51-8.6-4.32-18.5-8.47-9.9-4.15-18.9-7.71-20-7.91-1.1-0.2-2.23-0.65-2.5-1-0.28-0.35-6.8-3.22-14.5-6.39-7.7-3.17-14.56-5.81-15.25-5.87-0.69-0.06-1.25-0.45-1.25-0.86 0-0.41-0.45-0.53-1-0.25-0.55 0.27-1.23 0.05-1.5-0.5-0.28-0.55-0.95-0.78-1.5-0.5-0.55 0.27-1 0.05-1-0.5 0-0.55-0.45-0.78-1-0.5-0.55 0.27-1.11 0.14-1.25-0.31-0.14-0.45-5.88-3.12-12.75-5.93-6.88-2.82-14.53-6.02-17-7.12-2.48-1.1-4.84-1.81-5.25-1.57-0.41 0.24-0.75-0.02-0.75-0.57 0-0.55-0.68-0.78-1.5-0.5-0.83 0.27-1.48 0.16-1.46-0.25 0.02-0.41-1.22-1.33-2.75-2.04-1.53-0.7-3.47-1.4-4.29-1.55-0.83-0.15-2.85-0.99-4.5-1.86-1.65-0.88-3.9-1.75-5-1.95-1.1-0.19-2.23-0.58-2.5-0.85-0.28-0.28-2.64-1.51-5.25-2.75-2.61-1.24-5.2-2.03-5.75-1.75-0.55 0.27-1 0.05-1-0.5 0-0.55-0.45-0.78-1-0.5-0.55 0.27-1 0.05-1-0.5 0-0.55-0.36-0.89-0.8-0.75-0.45 0.14-2.36-0.51-4.25-1.45-1.9-0.93-6.6-3.01-10.45-4.63-3.85-1.61-9.03-3.76-11.5-4.76-2.48-1.01-5.02-1.85-5.65-1.87-0.64-0.02-0.98-0.38-0.75-0.79 0.22-0.41-0.28-0.75-1.1-0.75-0.83 0-1.73 0-2 0-0.28 0-2.53-1.13-5-2.5-2.48-1.38-4.95-2.28-5.5-2-0.55 0.27-1 0.05-1-0.5 0-0.55-0.34-0.93-0.75-0.84-0.41 0.09-3.23-0.97-6.25-2.36-3.03-1.38-8.43-3.77-12-5.3-3.58-1.53-7.18-2.92-8-3.07-0.83-0.15-1.73-0.36-2-0.47-0.28-0.11-0.84-0.14-1.25-0.08-0.41 0.07-0.74-0.44-0.72-1.13 0.01-0.69-0.32-0.92-0.75-0.51-0.43 0.41-1.23 0.36-1.78-0.11-0.55-0.48-4.83-2.47-9.5-4.44-4.68-1.98-10.75-4.49-13.5-5.6-2.75-1.1-5.35-1.69-5.78-1.3-0.43 0.39-0.76 0.15-0.75-0.54 0.02-0.69-0.42-1.03-0.97-0.75-0.55 0.27-1 0.05-1-0.5 0-0.55-0.45-0.78-1-0.5-0.55 0.27-1 0.05-1-0.5 0-0.55-0.45-0.78-1-0.5-0.55 0.27-1.23 0.05-1.5-0.5-0.28-0.55-0.95-0.78-1.5-0.5-0.55 0.27-1 0.05-1-0.5 0-0.55-0.45-0.78-1-0.5-0.55 0.27-1 0.16-1-0.25 0.01-0.41-2.36-1.62-5.25-2.69-2.89-1.07-5.48-1.98-5.75-2.02-0.28-0.04-0.95-0.35-1.5-0.69-0.55-0.34-4.6-2.12-9-3.96-4.4-1.84-8.23-3.38-8.5-3.44-0.28-0.05-1.63-0.62-3-1.26-1.38-0.64-9.81-4.32-18.75-8.18-9.34-4.03-16.78-6.69-17.49-6.26q-1.23 0.74-0.5-0.5 0.73-1.24-1.01-1.06c-0.96 0.11-3.33-0.79-5.25-1.99-1.93-1.21-3.95-2.23-4.5-2.27-0.55-0.05-1.9-0.26-3-0.49-1.1-0.22-2.23-0.75-2.5-1.18-0.28-0.43-3.2-1.87-6.5-3.2-3.3-1.33-6.56-2.45-7.25-2.49-0.69-0.04-1.25-0.41-1.25-0.82 0-0.41-0.68-0.53-1.5-0.25-0.83 0.27-1.5 0.05-1.5-0.5 0-0.55-0.79-0.99-1.75-0.98-0.96 0.01-2.32-0.56-3.02-1.25-0.69-0.7-1.26-0.82-1.26-0.27 0 0.58-0.31 0.53-0.74-0.1-0.4-0.6-4.78-2.8-9.73-4.87-4.95-2.07-11.48-4.86-14.5-6.19-3.03-1.33-6.63-2.64-8-2.9-1.38-0.26-2.95-0.92-3.5-1.45-0.55-0.54-1.35-0.64-1.78-0.23-0.43 0.41-0.76 0.18-0.75-0.51 0.02-0.69-0.65-1.03-1.47-0.75-0.83 0.27-1.28 0.05-1-0.5 0.27-0.55-0.18-1-1-1-0.83 0-1.84 0.04-2.25 0.09-0.41 0.04-0.98-0.32-1.25-0.82-0.28-0.49-5.68-2.97-12-5.5-6.33-2.54-12.63-4.96-14-5.38-1.38-0.42-3.04-0.86-3.69-0.97-0.65-0.1-3.67 4.37-6.7 9.94-3.03 5.58-7.26 13.96-9.41 18.64zm1.95 157c2.76 5.77 7.32 14.32 10.13 19 2.82 4.67 7.59 12.1 10.6 16.5 3.02 4.4 7.53 10.7 10.03 14 2.5 3.3 10 12.52 16.67 20.5 6.66 7.97 16.15 18.77 21.1 24 6.72 7.11 10.73 10.41 15.9 13.13 3.81 2 10.97 5.23 15.92 7.18 4.95 1.95 13.72 5.63 19.5 8.18 5.77 2.55 11.29 4.72 12.25 4.82 0.97 0.11 1.75 0.53 1.75 0.94 0 0.41 2.14 1.42 4.75 2.25 2.61 0.82 5.2 1.46 5.75 1.41 0.55-0.04 1.22 0.32 1.5 0.8 0.27 0.49 7.25 3.67 15.5 7.07 8.25 3.41 15.67 6.31 16.5 6.45 0.82 0.15 1.72 0.57 2 0.93 0.27 0.36 2.75 1.55 5.5 2.64 2.75 1.09 7.81 3.16 11.25 4.59 3.44 1.44 6.49 2.27 6.78 1.86 0.29-0.41 0.51-0.19 0.5 0.5-0.02 0.69 0.42 1.02 0.97 0.75 0.55-0.28 1-0.05 1 0.5 0 0.55 1.01 1.31 2.25 1.7 1.24 0.38 2.7 0.59 3.25 0.46 0.55-0.13 1.22 0.16 1.5 0.65 0.27 0.49 7.25 3.77 15.5 7.29 8.25 3.52 15.56 6.29 16.25 6.15 0.69-0.14 1.25 0.2 1.25 0.75 0 0.55 1.01 1.28 2.25 1.62 1.24 0.35 11.25 4.35 22.25 8.9 11 4.55 26.86 11.24 35.25 14.87 8.76 3.8 15.78 6.29 16.49 5.86 0.91-0.55 0.98-0.36 0.25 0.73-0.79 1.17-0.63 1.33 0.76 0.75 0.99-0.41 1.75-0.29 1.75 0.27 0 0.55 1.69 1.51 3.75 2.14 2.06 0.63 7.35 2.62 11.75 4.41 4.4 1.8 13.96 5.79 21.25 8.86 7.29 3.08 13.49 5.25 13.78 4.84 0.29-0.41 0.51-0.3 0.48 0.25-0.02 0.55 2.33 1.87 5.22 2.94 2.9 1.07 5.49 1.82 5.77 1.66 0.27-0.15 0.72 0.13 1 0.63 0.27 0.49 3.64 2.22 7.49 3.83 3.84 1.62 7.21 2.98 7.5 3.03 0.28 0.05 2.31 0.89 4.51 1.86 2.2 0.97 9.17 4.01 15.5 6.76 6.32 2.75 16.22 6.94 22 9.3 5.77 2.36 15.67 6.53 22 9.27 6.32 2.74 12.4 5.14 13.5 5.35 1.1 0.2 2.22 0.61 2.5 0.9 0.27 0.29 7.25 3.37 15.5 6.84 8.25 3.46 15.56 6.37 16.25 6.47 0.69 0.09 1.25 0.5 1.25 0.91 0 0.41 0.45 0.75 1 0.75 0.55 0 8.99 3.43 18.75 7.61 9.76 4.19 21.35 8.95 25.75 10.57 4.4 1.63 9.01 3.15 10.25 3.39 1.91 0.37 3.31-1.17 9.4-10.32 3.93-5.91 9.5-15.7 12.37-21.75 2.87-6.05 7.08-16.06 9.35-22.25 2.27-6.19 4.13-12.6 4.13-14.25 0-1.95-0.61-3.22-1.75-3.64-0.96-0.34-5.13-1.97-9.25-3.62-4.13-1.64-8.06-3.04-8.75-3.11-0.69-0.07-1.25-0.47-1.25-0.88 0-0.41-0.68-0.53-1.5-0.25-0.83 0.27-1.61 0.14-1.75-0.3-0.14-0.44-9.93-4.92-21.75-9.96-11.83-5.04-22.18-9.29-23-9.45-0.83-0.16-1.73-0.66-2-1.12-0.28-0.45-1.73-0.9-3.24-1-1.51-0.09-2.97-0.73-3.25-1.42-0.28-0.69-1.19-1.03-2.01-0.75-0.83 0.27-1.48 0.16-1.46-0.25 0.02-0.41-2.79-1.87-6.25-3.23-3.46-1.37-6.63-2.38-7.04-2.25-0.41 0.13-0.75-0.22-0.75-0.77 0-0.55-1.69-1.56-3.75-2.23-2.06-0.68-4.2-1.24-4.75-1.25-0.55-0.01-1.23-0.31-1.5-0.66-0.28-0.35-8.15-3.82-17.5-7.7-9.35-3.89-17.68-7.2-18.5-7.36-0.83-0.17-1.73-0.59-2-0.95-0.28-0.35-4.55-2.23-9.5-4.17-4.95-1.94-12.71-5.13-17.25-7.1-4.54-1.97-8.49-3.24-8.78-2.83-0.29 0.41-0.51 0.19-0.5-0.5 0.02-0.69-0.42-1.25-0.97-1.25-0.55 0-7.86-2.95-16.25-6.55-8.39-3.61-16.04-6.65-17-6.75-0.97-0.11-1.75-0.54-1.75-0.95 0-0.41-0.45-0.75-1-0.75-0.55 0-5.39-1.82-10.75-4.05-5.36-2.23-12.9-5.37-16.75-6.97-3.85-1.61-7.68-3.05-8.5-3.2-0.83-0.15-1.73-0.57-2-0.93-0.28-0.36-1.4-0.81-2.5-1-1.1-0.19-2.23-0.6-2.5-0.91-0.28-0.31-5.9-2.87-12.5-5.69-6.6-2.82-12.68-5.27-13.5-5.44-0.83-0.17-1.73-0.54-2-0.81-0.28-0.28-2.19-1.29-4.25-2.25-2.06-0.96-4.2-1.53-4.75-1.25-0.55 0.27-1 0.05-1-0.5 0-0.55-0.79-1.19-1.75-1.43-0.96-0.23-6.48-2.42-12.25-4.87-5.78-2.45-20.85-8.8-33.5-14.12-12.65-5.31-23.79-9.76-24.75-9.87-0.97-0.12-1.75-0.55-1.75-0.96 0-0.41-0.45-0.53-1-0.25-0.55 0.27-0.99 0.16-0.99-0.25 0.01-0.41-1.68-1.37-3.75-2.12-2.07-0.76-8.94-3.61-15.26-6.34-6.33-2.73-11.95-5.08-12.5-5.22-0.55-0.15-2.13-0.74-3.5-1.32-1.38-0.58-9.03-3.77-17-7.09-7.98-3.33-14.84-5.85-15.25-5.6-0.41 0.24-0.86 0.02-1-0.49-0.14-0.5-0.93-1.07-1.75-1.25-0.83-0.17-1.73-0.58-2-0.89-0.28-0.31-3.43-1.76-7-3.2-3.58-1.45-12.35-5.07-19.5-8.03-7.15-2.97-18.18-7.55-24.5-10.17-6.33-2.62-13.19-5.61-15.25-6.65-2.06-1.03-4.54-2.01-5.5-2.18-0.96-0.16-2.76-0.84-4-1.5-1.24-0.66-2.24-0.86-2.22-0.45 0.02 0.41-0.88-0.04-2-1-1.12-0.96-2.48-1.53-3.03-1.25-0.55 0.27-1 0.05-1-0.5 0-0.55-1.35-1.45-3-2-1.65-0.55-3.45-0.78-4-0.5-0.55 0.27-0.93 0.1-0.84-0.39 0.08-0.5-2.95-2.13-6.75-3.64-3.8-1.5-7.47-2.79-8.16-2.85-0.69-0.07-1.25-0.46-1.25-0.87 0-0.41-0.34-0.65-0.75-0.54-0.41 0.12-1.76-0.33-3-1-1.24-0.66-2.25-0.99-2.25-0.71 0 0.27-1.01-0.15-2.25-0.95-1.24-0.8-8.33-3.96-15.75-7.02-7.43-3.07-14.06-5.57-14.75-5.55-0.69 0.01-1.23-0.32-1.21-0.73 0.02-0.41-1.22-1.36-2.75-2.11-1.71-0.83-3.37-1.02-4.28-0.5-1.06 0.61-1.28 0.5-0.75-0.39 0.44-0.74 0.23-1.19-0.51-1.1-0.69 0.09-2.94-0.59-5-1.5-2.06-0.91-4.47-1.65-5.34-1.65-1.18 0-1.43 0.58-0.94 2.25 0.37 1.24 2.92 6.97 5.68 12.75zm215.13 260c2.93 4.12 8.19 11.77 11.69 17 3.5 5.22 10.14 15.8 14.77 23.5 4.62 7.7 12.12 21.65 16.66 31 4.54 9.35 9.35 19.66 10.68 22.92 1.62 3.97 3.41 6.52 5.42 7.76 1.65 1.01 8.85 4.09 16 6.84 7.15 2.74 14.35 5.64 16 6.44 1.65 0.8 7.27 3.25 12.5 5.45 5.22 2.2 9.84 3.79 10.25 3.54 0.41-0.25 0.75 0 0.75 0.55 0 0.55 0.34 0.94 0.75 0.86 0.41-0.08 2.32 0.47 4.25 1.21 1.92 0.75 3.84 1.27 4.25 1.15 0.41-0.12 0.74 0.12 0.72 0.53-0.02 0.41 4.14 2.54 9.25 4.72 5.1 2.19 9.62 3.87 10.03 3.75 0.41-0.12 0.75 0.23 0.75 0.78 0 0.55 1.35 1.22 3 1.5 1.65 0.27 3.34 0.46 3.75 0.41 0.41-0.04 0.97 0.35 1.25 0.89 0.27 0.53 5.67 3.06 12 5.63 6.32 2.56 12.85 5.26 14.5 6 1.65 0.73 4.57 2.02 6.5 2.86 1.92 0.85 7.55 3.21 12.5 5.25 4.95 2.05 14.06 5.91 20.25 8.59 6.19 2.68 11.7 4.87 12.25 4.87 0.55 0 2.69-1.35 4.75-2.99 2.06-1.65 7.12-5.74 11.25-9.1 4.12-3.35 9.52-7.81 12-9.91 2.47-2.11 7.42-6.2 11-9.11 3.57-2.91 11.22-9.57 17-14.81 5.77-5.24 10.61-10.32 10.75-11.3 0.19-1.37-1.51-2.45-7.5-4.73-4.26-1.62-12.7-5.04-18.75-7.61-6.05-2.57-11.79-4.73-12.75-4.81-0.96-0.07-1.75-0.47-1.75-0.88 0-0.41-0.45-0.53-1-0.25-0.55 0.27-1.11 0.15-1.25-0.28-0.14-0.43-5.2-2.87-11.25-5.42-6.05-2.55-16.63-6.97-23.5-9.83-6.88-2.85-15.43-6.43-19-7.93-3.58-1.51-10.78-4.6-16-6.87-5.23-2.27-9.84-4.13-10.25-4.15-0.41-0.01-5.59-2.11-11.5-4.66-5.91-2.56-17.61-7.51-26-11-8.39-3.5-15.49-6.02-15.78-5.61-0.29 0.41-0.51 0.19-0.5-0.5 0.02-0.69-0.42-1.25-0.97-1.25-0.55 0-9.66-3.62-20.25-8.05-10.59-4.43-25.55-10.7-33.25-13.94-7.7-3.24-18.5-7.77-24-10.06-5.5-2.3-10.79-4.24-11.75-4.32-0.96-0.07-1.75-0.47-1.75-0.88 0-0.41-6.98-3.45-15.5-6.75-8.53-3.3-16.18-6-17-6-0.83 0-1.51 0.34-1.53 0.75-0.01 0.41 2.37 4.12 5.31 8.25zm87.32 214c0.79 5.22 2.1 16.25 2.92 24.5 0.81 8.25 1.48 17.02 1.49 19.5 0.01 2.47 0.35 5.1 0.76 5.84 0.6 1.09 1.37 1.03 4.23-0.38 1.92-0.94 7.55-4.19 12.5-7.22 4.95-3.02 11.9-7.35 15.45-9.62 3.55-2.27 9.4-6.01 13-8.31 3.6-2.31 7.56-4.9 8.8-5.75 1.24-0.86 2.25-2.01 2.25-2.56 0-0.55-3.71-2.53-8.25-4.4-4.54-1.87-17.48-7.33-28.75-12.14-11.28-4.8-21.06-8.79-21.75-8.85-0.69-0.06-1.25-0.45-1.25-0.86 0-0.41-0.43-0.75-0.95-0.75-0.52 0-1.16 0.34-1.42 0.75-0.26 0.41 0.18 5.02 0.97 10.25zm619.9-1058.6c4.4 0.18 10.25 1.12 13 2.08 2.75 0.97 7.46 3.39 10.46 5.39 3.01 2 7.18 5.43 9.28 7.63 2.1 2.2 5.68 7.6 7.94 12 3.89 7.54 4.15 8.6 4.61 18.5 0.37 8.12 0.09 11.86-1.26 16.5-0.95 3.3-2.79 7.8-4.08 10-1.29 2.2-4.46 6.47-7.03 9.5-2.58 3.02-11.27 12.45-19.31 20.95-8.03 8.5-19.66 20.65-25.84 27-6.18 6.35-11.23 11.77-11.22 12.05 0 0.27-2.59 3.21-5.77 6.52-3.18 3.31-11.19 11.64-17.81 18.5-6.62 6.86-13.77 14.5-15.89 16.98-2.13 2.47-7.96 8.78-12.97 14.01-5.01 5.23-13.83 14.68-19.6 21-5.77 6.32-12.99 13.96-16.04 16.99-3.05 3.02-10.7 11.12-17 18-6.3 6.87-19.43 20.82-29.17 31-9.75 10.17-17.74 18.84-17.76 19.25-0.02 0.41-5.57 6.26-12.33 13-6.76 6.74-15.58 15.85-19.6 20.25-4.02 4.4-12.55 13.31-18.96 19.79-10.07 10.19-12.8 12.36-20.15 15.98-8.15 4.02-8.95 4.21-19.5 4.57-10.19 0.35-11.48 0.17-17.5-2.35-3.58-1.51-8.75-4.18-11.5-5.95-2.75-1.77-7.99-6.11-11.64-9.63-3.65-3.53-10.15-10.24-14.45-14.91-4.3-4.68-20.88-22-36.84-38.5-15.97-16.5-35.9-36.98-44.29-45.5-8.4-8.53-16.86-17.75-18.81-20.5-1.95-2.75-4.46-7.48-5.59-10.5-1.12-3.03-2.36-9.55-2.75-14.5-0.64-8.07-0.45-9.8 1.83-16.72 1.61-4.87 4.38-10.25 7.54-14.61 2.75-3.8 6.33-7.75 7.95-8.79 1.63-1.03 4.55-2.78 6.5-3.88 1.95-1.1 3.88-2.45 4.28-3 0.41-0.55 0.75-0.66 0.75-0.25 0.01 0.41 2.38-0.01 5.27-0.94 3.2-1.03 8.57-1.7 13.75-1.72 5.39-0.01 10.33 0.6 13.5 1.67 2.75 0.92 7.7 3.44 11 5.58 3.3 2.15 10.54 8.58 16.1 14.28 5.55 5.71 19.07 19.6 30.03 30.88 10.96 11.27 24.87 25.57 41.87 43.04l8.76-8.77c4.81-4.82 8.75-9.11 8.75-9.52-0.01-0.41 3.32-4.01 7.38-8 4.07-3.99 11.8-11.98 17.18-17.75 5.38-5.78 16.12-17.24 23.86-25.47 7.74-8.24 18.58-19.71 24.09-25.5 5.5-5.79 13.15-13.91 17-18.05 3.84-4.13 13.98-14.93 22.55-24 8.56-9.06 23.82-25.26 33.91-35.98 10.08-10.73 24.94-26.48 33-35 8.06-8.53 20.33-21.58 27.26-29 7.37-7.9 14.8-14.85 17.93-16.76 2.93-1.8 8.48-4.15 12.33-5.22 5.01-1.4 9.27-1.86 15-1.62z"/>
	</g>
</svg>