<svg version="1.2" xmlns="http://www.w3.org/2000/svg" viewBox="0 0 657 1133" width="657" height="1133">
	<style>
		.s0 { fill: #ffffff } 
	</style>
	<g id="icons">
		<path id="-e event" class="s0" d="m335.78 1.8c-1.49 0.98-4.9 4.69-7.58 8.24-2.68 3.55-8.2 11.63-12.26 17.96-4.06 6.32-9.59 14.65-12.28 18.5-2.7 3.85-6.09 8.25-7.53 9.77-1.45 1.53-3.42 2.76-4.38 2.75-0.96-0.01-9.29-3.12-18.5-6.91-9.21-3.79-23.5-9.88-31.75-13.52-8.74-3.86-16.38-6.62-18.3-6.61-2.27 0.01-4.11 0.87-5.94 2.77-2.6 2.71-2.63 2.89-1.97 12.75 0.37 5.5 2.03 17.87 3.7 27.5 1.66 9.62 3.3 20.42 3.63 24 0.52 5.56 0.34 6.74-1.25 8.16-1.03 0.92-7.05 4.44-13.37 7.84-6.33 3.39-12.52 7.14-13.77 8.33-1.25 1.2-2.66 3.29-3.12 4.67-0.47 1.37-0.72 4.07-0.56 6 0.16 1.92 1.89 6.87 3.83 11 1.95 4.12 5.75 11.55 8.45 16.5 2.7 4.95 5.48 10.8 6.19 13 1.1 3.42 1.05 4.66-0.33 8.5-0.9 2.47-4 7.72-6.91 11.65-2.9 3.93-5.85 7.98-6.55 9-0.69 1.02-3.64 5.22-6.55 9.35-2.9 4.12-8.93 12.9-13.4 19.5-4.48 6.6-8.44 13.57-8.8 15.5-0.55 2.87-0.2 4.09 1.92 6.75 1.59 1.99 4.05 3.61 6.35 4.19 2.06 0.52 7.35 1.44 11.75 2.04 4.4 0.6 17 2.23 28 3.61 11 1.38 20.11 2.6 20.25 2.71 0.14 0.11 0.41 8.52 0.59 18.7 0.24 13.26 0.74 19.34 1.75 21.48 0.78 1.65 2.69 3.43 4.29 4 2.57 0.91 4.23 0.31 15.75-5.73 7.08-3.71 13.04-6.64 13.24-6.5 0.21 0.14-1.85 6.32-4.58 13.75-2.73 7.42-7.91 21.37-11.51 31-3.6 9.62-7.42 19.75-8.49 22.5-1.07 2.75-3.01 7.92-4.31 11.5-1.3 3.57-3.69 10.1-5.3 14.5-1.62 4.4-6.19 16.77-10.16 27.5-3.98 10.72-8.74 23.77-10.59 29-1.86 5.22-5.16 14.45-7.35 20.5-2.18 6.05-5.62 15.27-7.64 20.5-2.02 5.22-7.05 18.95-11.18 30.5-4.13 11.55-8.83 24.82-10.46 29.5-1.62 4.67-3.56 11.42-4.3 15-0.74 3.57-1.13 7.62-0.85 9 0.27 1.37 1.02 3.08 1.67 3.79 0.65 0.72 2.98 1.29 5.18 1.29 2.99-0.01 5.14-0.88 8.5-3.42 2.47-1.86 6.97-6.26 10-9.76 3.02-3.51 10.88-12.23 17.45-19.39 6.58-7.15 12.2-13.24 12.5-13.51 0.3-0.28 5.05-5.45 10.54-11.5 5.5-6.05 10.68-11.68 11.5-12.5 0.83-0.83 3.72-3.98 6.43-7 2.71-3.03 7.21-7.98 10-11 2.8-3.03 9.81-10.67 15.58-16.99 5.78-6.33 12.52-13.74 15-16.49 2.47-2.74 7.69-8.37 11.59-12.5 3.89-4.14 8.47-9.1 10.17-11.02 1.7-1.93 4.06-4.63 5.24-6 1.18-1.38 4.51-4.98 7.38-8 2.88-3.03 7.88-8.43 11.11-12 3.23-3.58 9.96-10.96 14.94-16.41 4.99-5.45 12.05-13.1 15.7-17 3.65-3.9 8.89-9.79 11.65-13.09 2.76-3.3 5.8-8.03 6.77-10.5 1.31-3.33 1.64-6.2 1.26-11-0.3-3.8-2.33-11.98-4.91-19.69-2.42-7.26-4.18-13.44-3.9-13.73 0.27-0.29 2.75 0.31 5.5 1.33 2.75 1.02 9.16 3.48 14.25 5.47 5.09 1.99 10.94 3.62 13 3.63 2.06 0 4.76-0.67 6-1.5 1.24-0.83 3.02-2.97 3.95-4.76 1.49-2.84 1.78-8.42 2.35-44.25 0.59-37.21 0.82-41.41 2.55-45.4 1.36-3.15 4.18-6.29 9.9-11.04 4.4-3.65 12.95-10.49 19-15.19 6.05-4.71 12.24-9.98 13.75-11.71 1.51-1.74 3.02-4.62 3.36-6.41 0.37-2.01 0.03-4.39-0.89-6.25-0.82-1.65-4.59-5.93-8.38-9.5-3.79-3.58-11.61-10.55-17.37-15.5-5.76-4.95-11.71-10.01-13.22-11.25l-2.75-2.25c5.58-22.09 8.03-31.43 9.05-35 1.02-3.58 2.12-8.75 2.45-11.5 0.45-3.76 0.15-5.87-1.2-8.5-1.11-2.16-3.33-4.25-5.8-5.46-3.56-1.74-6.91-2.01-30.67-2.5l-26.67-0.54c-4.07-3.88-11.87-17.99-19.96-33.87-10.13-19.89-15.71-29.76-17.95-31.75-1.79-1.58-4.04-2.88-5-2.87-0.96 0-2.97 0.81-4.47 1.79zm-311.78 1082.32c-3.03 0.49-8.2 2.2-11.5 3.8-4.16 2.01-6.92 4.2-9 7.16-2.51 3.55-3.06 5.42-3.37 11.34-0.29 5.6 0.05 7.92 1.63 11.08 1.1 2.2 3.85 5.69 6.12 7.75 2.55 2.32 6.31 4.42 9.87 5.5 5.42 1.65 23.13 1.75 310.75 1.75 283.87 0 305.38-0.12 310.5-1.7 3.02-0.93 7.07-2.74 9-4.03 1.92-1.29 4.6-4.36 5.93-6.81 1.93-3.53 2.43-5.92 2.42-11.46-0.01-5.64-0.51-7.88-2.55-11.5-1.4-2.48-4.07-5.68-5.92-7.13-1.86-1.44-5.86-3.47-8.88-4.5-5.33-1.81-15.1-1.87-307.5-2.01-174.36-0.08-304.32 0.24-307.5 0.76zm404.37-628.33c-1.73 0.94-4.88 3.31-7 5.27-2.13 1.97-5.86 5.79-8.3 8.5-2.43 2.72-7.34 8.09-10.91 11.94-3.57 3.85-9.68 10.39-13.57 14.53-3.9 4.15-10.47 11.34-14.59 15.99-4.13 4.65-11.58 12.73-16.56 17.97-4.98 5.23-11.51 12.2-14.5 15.48-2.99 3.28-5.89 6.48-6.44 7.1-0.55 0.62-6.45 6.93-13.1 14.03-6.66 7.09-14.26 15.37-16.9 18.4-2.63 3.02-7.99 8.89-11.9 13.03-3.9 4.14-11.15 11.99-16.1 17.46-4.95 5.46-12.19 13.32-16.08 17.47-3.9 4.15-10.88 11.81-15.5 17.04-4.63 5.22-9.77 10.88-11.42 12.58-1.65 1.7-7.99 8.45-14.08 15-6.1 6.56-13.57 14.62-16.61 17.92-3.04 3.3-6.75 7.35-8.26 9-1.51 1.65-6.64 7.27-11.4 12.49-4.76 5.22-11.8 12.87-15.65 17-3.85 4.13-10.83 11.78-15.5 16.99-4.68 5.21-12.1 13.32-16.5 18.02-4.4 4.7-11.65 12.58-16.1 17.52-4.46 4.94-10.31 11.42-13 14.4-2.7 2.99-5.8 6.36-6.91 7.5-1.1 1.15-5.15 5.69-9 10.1-3.84 4.41-8.34 9.73-9.99 11.81-1.65 2.09-3.46 4.33-4.02 4.98-0.56 0.66-2.79 3.89-4.95 7.19-2.15 3.3-5.44 9.37-7.3 13.5-1.87 4.12-4.9 11.77-6.74 17-1.85 5.22-5.38 15.12-7.85 22-2.47 6.87-7.71 21.5-11.64 32.5-3.94 11-12.78 36.42-19.66 56.5-11.4 33.29-12.46 36.98-12.04 42 0.36 4.37 1 5.96 3.08 7.75 1.44 1.24 4.31 2.54 6.37 2.9 2.69 0.47 5.72-0.02 10.74-1.75 3.84-1.32 9.47-4.26 12.5-6.53 3.03-2.27 8.24-7 11.59-10.5 3.34-3.5 7.84-8.43 10-10.96 2.15-2.52 9.32-10.41 15.92-17.53 6.6-7.12 18.97-20.56 27.5-29.87 8.52-9.32 17.75-19.42 20.5-22.45 2.75-3.03 8.6-9.35 13-14.05 4.4-4.69 14.13-15.27 21.62-23.52 7.49-8.24 16.67-18.37 20.4-22.49 3.74-4.13 12.21-13.35 18.84-20.5 6.62-7.15 17.01-18.37 23.09-24.93 6.08-6.56 13.37-14.43 16.21-17.5 2.84-3.06 6.14-6.7 7.34-8.07 1.19-1.38 6.28-7 11.32-12.5 5.04-5.5 12.14-13.15 15.78-17 3.63-3.85 11.74-12.66 18.01-19.59 6.26-6.92 18.99-20.87 28.29-31 9.29-10.12 19.65-21.34 23.03-24.91 3.37-3.58 12.41-13.47 20.1-22 7.68-8.52 15.99-17.73 18.47-20.47 2.47-2.73 7.2-7.89 10.5-11.46 3.3-3.57 6.45-7 7-7.61 0.55-0.62 5.05-5.57 10-11.01 4.95-5.44 14.4-15.71 21-22.82 6.6-7.12 14.7-15.98 18-19.69 3.3-3.72 9.63-10.74 14.06-15.6 4.43-4.86 8.66-9.97 9.39-11.34 0.73-1.38 1.66-4.98 2.05-8 0.46-3.49 0.23-7.87-0.62-12-0.74-3.58-4.03-13.93-7.31-23-3.29-9.08-9.16-24.83-13.06-35-5.26-13.73-7.91-19.35-10.3-21.78-1.76-1.81-4.79-3.72-6.71-4.25-1.93-0.53-3.73-0.94-4-0.92-0.28 0.02-1.91 0.8-3.63 1.74zm63.65 219.96c-8.01 8.11-17.7 18.18-21.54 22.36-3.84 4.19-11.08 12.07-16.1 17.5-5.01 5.44-18.91 20.69-30.89 33.89-11.97 13.2-24.07 26.48-26.88 29.52-2.81 3.03-7.55 8.21-10.54 11.5-2.99 3.29-7.95 8.68-11.03 11.98-3.09 3.3-15.71 17.02-28.05 30.5-12.34 13.47-24.55 26.75-27.14 29.5-2.58 2.75-5.67 6.12-6.85 7.5-1.19 1.37-4.03 4.52-6.32 7-2.29 2.47-7.05 7.65-10.58 11.5-3.52 3.85-8.7 9.48-11.5 12.52-2.81 3.04-10.08 10.91-16.16 17.5-6.09 6.59-12.61 13.74-14.5 15.9-1.89 2.15-5.75 6.42-8.57 9.5-2.82 3.07-6.82 7.6-8.87 10.08-2.06 2.47-4.03 4.72-4.4 5-0.36 0.27-5.13 5.45-10.59 11.5-5.47 6.05-11.98 13.2-14.48 15.89-2.49 2.7-5.9 6.3-7.58 8-1.67 1.71-6.45 7.16-10.61 12.11-4.15 4.95-9.22 11.47-11.26 14.5-2.83 4.19-3.64 6.31-3.4 8.9 0.22 2.35 1.2 4.05 3.16 5.5 1.65 1.22 5.2 2.38 8.5 2.77 3.11 0.36 27.26 0.7 53.66 0.74 30.77 0.05 50.33-0.32 54.5-1.03 3.57-0.6 9.2-2.36 12.5-3.9 4.04-1.88 9.24-5.85 15.91-12.14 5.45-5.14 17.11-17.44 25.92-27.34 8.81-9.9 21.03-23.4 27.16-30 6.13-6.6 13.59-14.72 16.58-18.05 2.99-3.33 9.25-10.31 13.93-15.5 4.67-5.19 12.54-13.72 17.48-18.94 4.93-5.23 11.72-12.44 15.09-16.01 3.36-3.58 9.66-10.55 14-15.5 4.33-4.95 8.34-9.49 8.91-10.08 0.56-0.6 5.97-6.44 12.02-12.98 6.05-6.54 13.92-15.06 17.5-18.94 3.57-3.88 8.97-9.77 12-13.1 3.02-3.32 10-11.16 15.5-17.42 5.5-6.25 12.92-14.49 16.5-18.31 3.57-3.81 7.57-8.34 8.87-10.05 1.3-1.72 3.66-5.93 5.25-9.37 2.11-4.58 2.88-7.78 2.89-12 0-3.65-1.14-9.41-3.12-15.75-1.71-5.5-7.6-21.93-13.08-36.5-5.48-14.58-11.31-29.65-12.95-33.5-1.64-3.85-3.97-8.02-5.17-9.28-1.65-1.71-3.3-2.27-6.65-2.25-4.42 0.03-4.62 0.19-19.02 14.78zm87.98 205.17c-1.93 1.01-7.83 6.28-13.13 11.71-5.3 5.43-12.72 13.26-16.5 17.41-3.78 4.14-8.84 9.77-11.24 12.5-2.41 2.73-10.54 11.48-18.07 19.46-7.54 7.97-18.37 19.67-24.08 26-5.71 6.32-12.2 13.52-14.43 15.99-2.23 2.47-7.45 8.09-11.6 12.5-4.15 4.4-10.23 10.87-13.5 14.36-3.27 3.5-6.81 7.77-7.85 9.5-1.05 1.73-1.95 5.1-2 7.49-0.08 3.5 0.38 4.72 2.4 6.31 1.37 1.09 4.3 2.51 6.5 3.16 2.96 0.88 27.18 1.19 93 1.19h89c6.59-3.49 9.26-5.74 10.19-7.25 1.34-2.19 1.55-4.07 1.02-9.25-0.36-3.58-1.52-8.98-2.57-12-1.04-3.03-3.5-9.55-5.46-14.5-1.95-4.95-10.07-27-18.04-49-7.96-22-15.94-43.6-17.72-48-1.79-4.4-4.22-9.58-5.41-11.5-1.19-1.93-3.48-4.53-5.09-5.78-2.11-1.66-4.17-2.27-7.42-2.21-2.48 0.04-6.08 0.9-8 1.91z"/>
	</g>
</svg>