<svg version="1.2" xmlns="http://www.w3.org/2000/svg" viewBox="0 0 1008 1166" width="1008" height="1166">
	<style>
		.s0 { fill: #ffffff } 
	</style>
	<g id="icons">
		<path id="-e hatched" fill-rule="evenodd" class="s0" d="m594 0.1c15.43-0.07 27.28 0.39 34.5 1.34 6.05 0.8 14.82 2.35 19.5 3.45 4.67 1.1 15.81 4.5 24.75 7.56 8.94 3.05 21.54 8.19 28 11.43 6.46 3.23 15.57 8.13 20.25 10.89 4.67 2.76 14.12 8.96 21 13.77 6.87 4.82 16.99 12.63 22.48 17.36 5.48 4.73 14.71 13.34 20.5 19.14 5.78 5.79 15.73 16.59 22.1 24 6.37 7.4 16.11 19.53 21.64 26.96 5.53 7.42 14.09 19.57 19.01 27 4.93 7.42 12.35 19.35 16.49 26.5 4.15 7.15 12.16 21.55 17.81 32 5.64 10.45 14.51 27.77 19.7 38.5 5.19 10.72 13.18 28.05 17.75 38.5 4.57 10.45 10.21 23.5 12.53 29 2.33 5.5 6.83 16.52 10.01 24.5 3.19 7.97 9.39 24.85 13.79 37.5 4.4 12.65 9.82 28.62 12.06 35.5 2.23 6.87 5.91 19.25 8.18 27.5 2.26 8.25 5.86 21.75 7.99 30 2.13 8.25 5.22 21.07 6.87 28.5 1.64 7.42 4.11 20.02 5.48 28 1.37 7.97 3.41 20.8 4.53 28.5 1.11 7.7 2.51 18.27 3.09 23.5 0.59 5.22 1.72 17.15 2.52 26.5 0.79 9.35 1.45 28.47 1.45 42.5 0.01 14.02-0.44 30.67-0.98 37-0.55 6.32-1.48 16-2.07 21.5-0.59 5.5-1.73 14.72-2.54 20.5-0.81 5.77-2.59 16.57-3.95 24-1.37 7.42-4.29 20.92-6.49 30-2.21 9.07-6.26 23.47-9.01 32-2.75 8.52-6.84 20.22-9.08 26-2.25 5.77-6.77 16.57-10.04 24-3.27 7.42-8.68 18.67-12.02 25-3.34 6.32-9.21 16.9-13.04 23.5-3.83 6.6-9.76 16.27-13.18 21.5-3.41 5.22-9.29 13.77-13.06 19-3.77 5.22-11.82 15.57-17.89 23-6.07 7.42-20.05 22.51-31.08 33.53-11.03 11.02-25.23 24.33-31.55 29.58-6.33 5.26-15.33 12.39-20 15.84-4.68 3.46-15.81 11.19-24.75 17.17-8.94 5.98-24.01 15.1-33.5 20.27-9.49 5.16-24.23 12.64-32.75 16.61-8.53 3.97-20.45 9.14-26.5 11.49-6.05 2.36-17.3 6.38-25 8.95-7.7 2.57-25.48 7.53-39.5 11.02-14.03 3.5-29.55 7.05-34.5 7.89-4.95 0.84-11.48 1.81-14.5 2.17-3.03 0.35-6.63 0.8-8 1-1.38 0.19-7.9 0.94-14.5 1.67-7.96 0.87-25.79 1.3-53 1.29-32.41-0.01-44.25-0.38-56.5-1.76-8.53-0.96-21.8-2.66-29.5-3.77-7.7-1.11-25.7-4.91-40-8.45-14.3-3.53-33.2-8.85-42-11.81-8.8-2.97-22.53-7.99-30.5-11.16-7.98-3.18-24.4-10.82-36.5-16.99-12.1-6.16-26.28-13.81-31.5-16.99-5.23-3.18-16.03-10.31-24-15.84-7.98-5.54-17.88-12.56-22-15.62-4.13-3.05-12.9-10.05-19.5-15.55-6.6-5.5-17.13-14.96-23.41-21.02-6.28-6.06-14.89-14.62-19.14-19.02-4.25-4.4-11.68-12.73-16.5-18.5-4.83-5.78-12.47-15.45-16.98-21.5-4.52-6.05-12.01-16.85-16.65-24-4.64-7.15-10.75-17.05-13.57-22-2.82-4.95-9.83-18.68-15.59-30.5-5.75-11.83-12.5-26.68-14.99-33-2.49-6.33-5.7-14.65-7.15-18.5-1.44-3.85-4.59-13.53-7-21.5-2.4-7.98-5.97-20.58-7.93-28-1.95-7.43-4.71-20.48-6.13-29-1.42-8.53-3.45-22.25-4.51-30.5-1.06-8.25-2.44-24-3.05-35-0.62-11-0.82-26.08-0.46-33.5 0.37-7.43 1.07-17.78 1.57-23 0.49-5.23 1.57-14.9 2.38-21.5 0.82-6.6 2.2-16.5 3.07-22 0.87-5.5 2.52-14.73 3.67-20.5 1.14-5.78 4.72-20.18 7.94-32 3.23-11.83 8.09-28.03 10.81-36 2.72-7.98 7.4-20.58 10.4-28 3-7.43 8.93-21.15 13.16-30.5 4.24-9.35 10.74-22.85 14.44-30 3.7-7.15 9.15-17.05 12.11-22 2.96-4.95 8.76-14.63 12.88-21.5 4.13-6.88 10.45-17 14.05-22.5 3.59-5.5 11.66-17.43 17.92-26.5 6.26-9.08 12.83-18.3 14.6-20.5 1.77-2.2 7.66-9.85 13.08-17 5.43-7.15 15.48-19.75 22.35-28 6.86-8.25 15.66-18.6 19.55-23 3.89-4.4 14.8-16.33 24.24-26.5 9.43-10.18 22.03-23.25 28-29.06 5.96-5.81 16.46-15.71 23.34-22 6.87-6.29 12.72-11.67 13-11.94 0.27-0.28 5-4.36 10.5-9.06 5.5-4.71 13.82-11.74 18.5-15.62 4.67-3.88 14.35-11.5 21.5-16.94 7.15-5.45 17.16-12.93 22.25-16.64 5.09-3.71 9.47-6.74 9.75-6.74 0.27 0 6.69-4.22 14.25-9.39 7.56-5.16 15.32-10.28 17.25-11.37 1.92-1.1 9.12-5.25 16-9.23 6.87-3.98 18.57-10.26 26-13.96 7.42-3.69 19.35-9.05 26.5-11.9 7.15-2.86 15.25-6.07 18-7.15 2.75-1.07 12.65-4.23 22-7.01 9.35-2.78 22.62-6.18 29.5-7.55 6.87-1.37 17.67-3.1 24-3.86 6.32-0.75 22.07-1.42 35-1.48zm-37 69.34c-5.23 0.91-16.48 3.42-25 5.57-8.53 2.15-19.33 5.23-24 6.83-4.68 1.6-12.78 4.6-18 6.66-5.23 2.06-15.58 6.79-23 10.5-7.43 3.72-18.23 9.33-24 12.47-5.78 3.14-15.19 8.49-20.92 11.87-5.73 3.39-11.9 7.51-13.71 9.16-2 1.83-3.3 3.98-3.32 5.5-0.02 1.37-0.96 6.77-2.09 12-1.13 5.22-3.66 14.22-5.62 20-1.96 5.77-6.14 15.67-9.29 22-3.15 6.32-9.02 16.67-13.05 23-4.02 6.32-10.05 15.1-13.39 19.5-3.35 4.4-9.45 12.05-13.57 17-4.12 4.95-14.72 16.2-23.55 25-8.83 8.8-20.77 19.79-26.52 24.43-5.76 4.64-17.22 12.89-25.47 18.33-8.25 5.45-20.85 12.76-28 16.26-7.15 3.49-17.28 7.75-22.5 9.46-5.23 1.71-14.45 3.99-20.5 5.07-6.05 1.08-12.58 1.95-14.5 1.94-3.23-0.02-3.96 0.61-9.61 8.24-3.36 4.55-10.15 14.34-15.09 21.77-4.95 7.42-11.47 17.55-14.51 22.5-3.04 4.95-8.9 15.07-13.03 22.5-4.13 7.42-10.99 20.47-15.26 29-4.26 8.52-10.57 21.8-14.02 29.5-3.44 7.7-8.3 19.62-10.79 26.5-2.49 6.87-6.57 19.25-9.06 27.5-2.5 8.25-5.89 20.62-7.54 27.5-1.65 6.87-3.67 15.87-4.5 20-0.82 4.12-2.18 12.22-3.01 18-0.82 5.77-2.02 17.47-2.67 26-0.73 9.78-0.95 26.76-0.6 46 0.35 19.03 1.14 34.64 2.1 41.5 0.85 6.05 2.34 15.27 3.3 20.5l1.75 9.5c1-17.05 1.61-23.58 1.99-25.5 0.39-1.93 1.84-7.33 3.24-12 1.39-4.68 4.06-11.54 5.92-15.25 1.86-3.71 5.08-8.6 7.14-10.87 2.06-2.27 5.55-5.17 7.75-6.45 2.2-1.29 6.02-3.06 8.5-3.94 2.65-0.95 7.58-1.6 12-1.59 4.71 0.02 10.11 0.82 14.5 2.15 3.85 1.16 11.27 4.38 16.5 7.15 5.22 2.77 13.32 7.66 18 10.86 4.67 3.21 14.35 10.67 21.5 16.58 7.15 5.91 21.04 18.65 30.87 28.3 9.82 9.66 26.49 27.01 37.03 38.56 10.54 11.55 24.33 27.24 30.63 34.87 6.31 7.63 14.98 18.43 19.28 24 4.29 5.57 11.51 15.08 16.04 21.13 4.53 6.05 11.18 15.27 14.78 20.5 3.6 5.22 10.98 16.02 16.39 24 5.41 7.97 14.74 22.37 20.75 32 6 9.62 13.32 22.45 16.26 28.5 2.99 6.15 6.5 15.41 7.95 21 2.02 7.77 2.62 12.57 2.7 21.5 0.06 8.18-0.41 13.23-1.65 17.5-0.95 3.3-2.77 7.8-4.04 10-1.28 2.2-5.28 6.81-8.9 10.25-4.48 4.25-9.23 7.51-14.84 10.2-4.54 2.17-11.85 4.92-16.25 6.12-7.02 1.9-9.97 2.12-24.03 1.8l-16.02-0.37c10.11 4.84 20.47 8.96 29.55 12.28 9.07 3.32 20.77 7.18 26 8.58 5.22 1.41 14.67 3.73 21 5.17 6.32 1.44 17.35 3.72 24.5 5.07 7.15 1.36 16.15 2.91 20 3.47 3.85 0.55 14.42 1.66 23.5 2.46 9.07 0.8 27.19 1.46 40.25 1.46 13.37 0.01 31.07-0.66 40.5-1.52 9.21-0.84 21.47-2.21 27.25-3.06 5.77-0.84 19.95-3.55 31.5-6.01 11.55-2.47 23.47-5.2 26.5-6.06 3.02-0.87 10.9-3.37 17.5-5.57 6.6-2.19 18.07-6.37 25.5-9.29 7.42-2.91 20.7-8.75 29.5-12.97 8.8-4.23 20.27-10.18 25.5-13.22 5.22-3.04 14.67-8.94 21-13.1 6.32-4.17 15.77-10.71 21-14.55 5.22-3.84 13.32-10.16 18-14.04 4.67-3.88 10.3-8.61 12.5-10.52 2.2-1.91 10.69-10.25 18.87-18.53 8.18-8.28 19.24-20.45 24.58-27.05 5.34-6.6 12.63-16.05 16.19-21 3.56-4.95 10.26-14.85 14.9-22 4.63-7.15 12.3-20.65 17.05-30 4.75-9.35 11.58-23.98 15.19-32.5 3.61-8.53 7.92-19.55 9.57-24.5 1.65-4.95 4.38-13.95 6.07-20 1.68-6.05 4.62-18.2 6.52-27 1.9-8.8 4.61-24.1 6-34 1.4-9.9 3.23-26.55 4.08-37 0.89-11.07 1.46-28.81 1.37-42.5-0.09-12.93-0.53-28.45-0.99-34.5-0.45-6.05-1.54-17.08-2.41-24.5-0.88-7.43-2.27-17.78-3.11-23-0.84-5.23-2.66-15.8-4.05-23.5-1.39-7.7-4.03-20.53-5.86-28.5-1.83-7.98-5.19-21.25-7.46-29.5-2.27-8.25-5.67-19.95-7.57-26-1.9-6.05-3.78-11.54-4.19-12.19-0.57-0.9-11.78-1.15-45.5-1-24.61 0.1-44.77 0.41-44.79 0.69-0.03 0.27 3.23 3.46 7.25 7.08 4.01 3.63 8.75 8.8 10.54 11.5 2.31 3.49 3.58 6.96 4.35 11.92 0.92 5.81 0.83 8.1-0.53 13.5-1.04 4.13-3.51 9.41-6.78 14.5-2.83 4.4-11.52 18.12-19.31 30.5-7.8 12.37-19.26 30.37-25.48 40-6.22 9.62-19.56 30.44-29.65 46.25-10.09 15.81-18.35 29.2-18.35 29.75 0 0.55 3.26 3.35 7.25 6.22 3.99 2.86 16.7 12.24 28.25 20.84 11.55 8.59 22.43 17.38 24.18 19.53 1.75 2.15 3.89 5.93 4.77 8.41 0.87 2.47 1.58 6.86 1.57 9.75-0.01 2.89-0.93 7.84-2.05 11-1.11 3.16-3.7 7.72-5.75 10.13-2.04 2.41-6.39 5.79-9.66 7.5-5.05 2.65-7 3.12-13 3.09-6.01-0.03-8.18-0.57-14.56-3.62-4.8-2.3-16.34-10.33-32-22.28-13.48-10.28-25.18-19.24-26-19.91-0.83-0.67-1.95-1.53-2.5-1.9-0.55-0.38-18.1 4.93-39 11.8-20.9 6.87-42.95 14.02-49 15.9-6.05 1.88-19.1 6.22-29 9.65-14.62 5.07-19.13 6.23-24 6.18-4.34-0.05-7.76-0.86-12.39-2.93-3.67-1.64-7.83-4.46-9.75-6.61-1.85-2.06-4.37-5.66-5.61-8-1.86-3.52-2.24-5.79-2.21-13.25 0.03-7.14 0.47-9.83 2.13-13 1.15-2.2 4.06-5.95 6.46-8.33 2.4-2.38 6.84-5.48 9.87-6.88 3.02-1.41 26.87-9.66 53-18.34 26.12-8.69 52.85-17.51 59.39-19.62 11.73-3.78 11.93-3.89 14.46-8.33 1.4-2.48 7.1-11.7 12.64-20.5 5.55-8.8 13.35-21.18 17.33-27.5 3.99-6.33 11.84-18.57 17.46-27.22 5.62-8.64 14.69-22.82 20.16-31.5 5.46-8.68 12.9-20.28 16.53-25.78 3.62-5.5 7.58-11.69 8.81-13.75l2.22-3.75c-14.34-13.76-21.65-20.54-25.5-23.93-3.85-3.4-9.39-8.07-12.3-10.37-4.62-3.66-5.47-4.01-6.6-2.7-0.71 0.82-6.95 8.47-13.86 17-6.91 8.52-17.35 21.35-23.19 28.5-5.85 7.15-13.42 16.35-16.84 20.44-3.42 4.1-7.79 9.2-9.71 11.34-1.93 2.14-5.75 5-8.5 6.36-3.89 1.92-6.67 2.49-12.5 2.56-5.12 0.06-8.93-0.49-12-1.73-2.48-1-5.93-2.75-7.68-3.9-1.75-1.14-4.51-3.87-6.14-6.07-1.62-2.2-3.68-6.14-4.57-8.75-0.88-2.61-1.61-7.23-1.61-10.25 0-3.03 0.89-7.86 1.97-10.75 1.08-2.89 4.57-8.37 7.75-12.18 3.18-3.81 9.53-11.46 14.11-17 4.59-5.54 11.83-14.35 16.09-19.57 4.26-5.23 8.39-10.18 9.17-11.01 0.77-0.84 4.36-4.88 7.97-9 3.6-4.12 8.1-9.45 10-11.85l3.44-4.35c-9.3-8.44-16.95-15.09-23-20.22-6.05-5.13-11.9-10.17-13-11.2-1.1-1.04-10.55-9.36-21-18.5-10.45-9.14-26.25-22.87-35.11-30.5-8.87-7.63-24.61-21.07-34.98-29.87-10.37-8.8-22.28-19.38-26.46-23.5-5.78-5.71-8.01-8.7-9.29-12.5-0.92-2.75-1.68-7.81-1.67-11.25 0-3.48 0.76-8.13 1.69-10.5 0.93-2.34 4.23-8.53 7.33-13.75 3.11-5.23 12.02-20.19 19.82-33.25 7.79-13.06 14.17-23.98 14.17-24.25 0-0.28 1.74-3.31 3.87-6.75 2.12-3.44 8.72-14.58 14.65-24.75 5.93-10.18 13.35-22.78 16.48-28 3.13-5.23 8.85-15.13 12.71-22 3.86-6.88 8.65-15.54 10.65-19.25l3.64-6.75c-6.59-0.81-13.23-1.19-19-1.37-5.78-0.18-15 0.01-20.5 0.41-5.5 0.41-14.28 1.49-19.5 2.4zm99.63 54.89c-9.28 15.49-23.87 40.09-32.41 54.67-8.55 14.57-20.79 35.5-27.2 46.5-6.41 11-12.43 21.12-13.36 22.5l-1.7 2.5c16.69 14.77 26.71 23.53 33.04 28.99 6.32 5.47 13.75 12.03 16.5 14.6 2.75 2.56 16.25 14.44 30 26.4 13.75 11.96 32.4 28.33 41.45 36.38 9.05 8.04 20.08 17.89 24.5 21.87l8.05 7.23c114.31 0.02 147.51-0.08 147.53-0.22 0.01-0.14-2.19-6.1-4.9-13.25-2.71-7.15-7.18-18.18-9.93-24.5-2.75-6.33-7.02-16-9.48-21.5-2.47-5.5-6.72-14.95-9.46-21-2.73-6.05-8.81-18.65-13.5-28-4.69-9.35-12.1-23.53-16.48-31.5-4.38-7.98-11.36-20.13-15.5-27-4.14-6.88-11.19-18.01-15.66-24.75-4.46-6.74-13.6-19.11-20.3-27.5-6.71-8.39-19.2-22.23-27.76-30.75-8.57-8.53-20.07-18.93-25.57-23.11-5.49-4.19-13.82-10.09-18.49-13.1-4.68-3.02-10.41-6.46-12.75-7.64-2.34-1.18-4.72-2.15-5.29-2.15-0.57 0-1.81 1.39-2.75 3.08-0.94 1.7-9.3 15.76-18.58 31.25z"/>
	</g>
</svg>