<svg version="1.2" xmlns="http://www.w3.org/2000/svg" viewBox="0 0 1433 1317" width="1433" height="1317">
	<style>
		.s0 { fill: #fbfbfc } 
	</style>
	<g id="icons">
		<path id="-e item evolve" fill-rule="evenodd" class="s0" d="m722.15 0.17c18.34 0.36 38.97 1.18 45.85 1.82 6.87 0.63 19.92 2.05 29 3.15 9.07 1.09 24.37 3.33 34 4.97 9.62 1.63 22.9 4.31 29.5 5.94 6.6 1.63 16.72 4.25 22.5 5.82 5.77 1.57 14.77 4.24 20 5.94 5.22 1.69 16.25 5.4 24.5 8.23 8.25 2.84 21.75 7.86 30 11.16 8.25 3.3 22.42 9.5 31.5 13.79 9.07 4.28 22.39 10.87 29.59 14.64 7.2 3.78 16.42 8.85 20.5 11.26 4.07 2.41 11.46 6.82 16.41 9.78 4.95 2.97 16.2 10.34 25 16.38 8.8 6.05 22.3 15.8 30 21.69 7.7 5.88 19.39 15.21 25.98 20.73 6.58 5.52 20.93 18.8 31.88 29.53 10.95 10.72 25.14 25.35 31.53 32.5 6.39 7.15 16.37 18.85 22.16 26 5.8 7.15 13.48 17.05 17.07 22 3.6 4.95 11.04 15.75 16.54 24 5.5 8.25 12.93 19.95 16.52 26 3.58 6.05 11.61 20.67 17.84 32.5 6.23 11.82 14.22 27.8 17.76 35.5 3.53 7.7 7.76 17.37 9.4 21.5 1.63 4.12 4.84 11.72 7.14 16.87 4.09 9.17 4.24 9.37 7.18 8.89 1.65-0.27 5.7-1.66 9-3.08 3.3-1.42 11.85-4.88 19-7.69 7.15-2.81 19.75-7.94 28-11.4 8.25-3.46 20.85-8.6 28-11.42 7.15-2.82 14.01-5.14 15.25-5.15 1.79-0.02 2.25 0.54 2.25 2.73 0 1.51-0.92 6.12-2.05 10.25-1.13 4.12-4.54 15.37-7.58 25-3.05 9.62-8.16 25.6-11.37 35.5-3.21 9.9-10.56 32.62-16.33 50.5-5.77 17.87-19.37 59.95-30.22 93.5-10.85 33.55-21.49 66.17-23.64 72.5-2.15 6.32-5.34 15.24-7.11 19.81-1.85 4.82-3.71 8.18-4.4 8-0.66-0.17-4.67-4.14-8.9-8.81-4.23-4.68-20.1-23.58-35.26-42-15.17-18.43-39.03-47.45-53.01-64.5-13.98-17.05-27.52-33.48-30.08-36.5-2.55-3.03-8.25-9.78-12.64-15-4.4-5.23-19.89-23.9-34.43-41.5-14.54-17.6-29.82-36.4-33.96-41.78-4.82-6.26-7.16-10.1-6.52-10.67 0.59-0.54 23.38-0.5 56 0.08 30.25 0.54 56.01 0.74 57.25 0.43 1.8-0.45 2.17-1.11 1.83-3.31-0.24-1.51-3.41-9.73-7.05-18.25-3.64-8.53-10.25-22.48-14.69-31-4.44-8.53-10.8-20.23-14.12-26-3.33-5.78-9.92-16.58-14.66-24-4.73-7.43-11.94-18-16.01-23.5-4.08-5.5-11.47-14.95-16.42-21-4.95-6.05-14.49-17.08-21.19-24.5-6.71-7.43-18.21-19.36-25.57-26.52-7.35-7.16-19.22-17.96-26.37-24-7.15-6.04-16.83-13.96-21.5-17.59-4.68-3.63-15.03-11.08-23-16.54-7.98-5.46-19.9-13.11-26.5-17-6.6-3.89-17.4-10.03-24-13.65-6.6-3.61-18.75-9.8-27-13.75-8.25-3.95-18.15-8.52-22-10.16-3.85-1.64-14.43-5.68-23.5-8.98-9.08-3.3-20.1-7.09-24.5-8.41-4.4-1.33-10.03-3.07-12.5-3.87-2.48-0.8-9.23-2.63-15-4.07-5.78-1.44-17.7-4.11-26.5-5.94-8.8-1.84-18.48-3.63-21.5-3.99-3.03-0.36-6.63-1.05-8-1.55-1.38-0.49-11.5-1.7-22.5-2.69-15.51-1.39-29.53-1.78-62.5-1.76-37.07 0.02-45.25 0.32-64 2.3-11.83 1.25-29.83 3.87-40 5.82-10.18 1.96-20.08 3.92-22 4.37-1.93 0.45-5.98 1.56-9 2.46-3.03 0.89-8.88 2.48-13 3.51-4.13 1.04-18.3 5.56-31.5 10.05-13.2 4.49-29.63 10.64-36.5 13.67-6.88 3.03-23.53 11.04-37 17.8-16.42 8.24-30.44 16.17-42.5 24.05-9.9 6.47-20.36 13.27-23.25 15.1-2.89 1.84-12.34 9.04-21 16-8.66 6.96-20.7 17.03-26.75 22.38-6.05 5.36-20.45 19.35-32 31.1-11.55 11.75-25.75 26.99-31.55 33.86-5.79 6.88-12.59 15.2-15.09 18.5-2.5 3.3-8.06 10.95-12.35 17-4.29 6.05-10.37 15.05-13.51 20-3.13 4.95-9.2 15.07-13.48 22.5-4.28 7.42-11.26 20.47-15.51 29-4.26 8.52-10.7 22.47-14.32 31-3.62 8.52-10.41 27.2-15.08 41.5-4.68 14.3-8.81 27.35-9.19 29-0.37 1.65-2.31 6.12-4.3 9.94-1.99 3.82-5.65 9.16-8.12 11.86-2.96 3.23-7.06 6.16-19.4 12.2h-14.05c-13.01 0-14.46-0.19-19.55-2.58-3.03-1.41-8.36-5.24-11.86-8.5-4.91-4.57-7.23-7.75-10.15-13.92-2.07-4.4-4.03-9.8-4.35-12-0.31-2.2-0.17-8.28 0.33-13.5 0.49-5.23 1.87-13.33 3.05-18 1.19-4.68 4.65-16.15 7.7-25.5 3.05-9.35 7.68-22.63 10.29-29.5 2.62-6.88 7.46-18.58 10.76-26 3.3-7.43 8.9-19.58 12.44-27 3.54-7.43 9.49-18.9 13.24-25.5 3.74-6.6 10.64-18.3 15.33-26 4.69-7.7 12.35-19.63 17.01-26.5 4.66-6.88 12.82-18.35 18.14-25.5 5.32-7.15 13.44-17.5 18.04-23 4.6-5.5 14.09-16.3 21.08-24 6.99-7.7 18.5-19.63 25.58-26.51 7.08-6.89 18.27-17.24 24.87-23.01 6.6-5.77 16.72-14.37 22.5-19.1 5.77-4.73 16.65-13.05 24.17-18.49 7.52-5.44 16.97-12.19 21-14.99 4.03-2.81 13.63-9.09 21.33-13.95 7.7-4.87 18.95-11.71 25-15.2 6.05-3.49 19.1-10.44 29-15.45 9.9-5 21.6-10.65 26-12.54 4.4-1.9 13.62-5.83 20.5-8.72 6.87-2.9 19.92-7.78 29-10.85 9.07-3.07 24.82-8.11 35-11.18 10.17-3.08 24.12-6.89 31-8.46 6.87-1.58 19.7-4.25 28.5-5.93 8.8-1.68 20.27-3.73 25.5-4.56 5.22-0.82 19.51-2.41 31.75-3.53 12.24-1.12 25.06-2.04 28.5-2.05 3.44 0 6.77-0.34 7.4-0.75 0.63-0.4 16.16-0.43 34.5-0.06zm150.35 330.33c27.82 0.21 29.37 0.32 38 2.79 4.95 1.42 12.15 3.89 16 5.49 3.85 1.61 11.27 5.3 16.5 8.21 5.22 2.91 11.07 6.28 13 7.5 1.92 1.21 6.63 4.86 10.45 8.11 3.82 3.24 9.82 9.27 13.33 13.4 3.51 4.12 8.45 10.65 10.98 14.5 2.53 3.85 6.74 11.27 9.36 16.5 2.62 5.22 5.9 13.77 7.28 19 1.39 5.22 5.02 21.65 8.07 36.5 3.05 14.85 7.57 36.67 10.05 48.5 2.48 11.82 5.17 26.22 5.97 32 0.81 5.77 1.48 14.32 1.48 19 0.01 4.67-0.69 13.22-1.55 19-0.85 5.77-2.67 15.22-4.04 21-1.36 5.77-3.91 14.77-5.66 20-3.08 9.16-3.56 9.9-13.3 20.5-5.56 6.05-16.15 17.39-23.52 25.19-7.37 7.81-22.85 24.22-34.4 36.48-11.55 12.25-35.29 37.25-52.75 55.55-17.46 18.31-32.43 33.28-33.25 33.28-0.83 0-8.59-7.49-17.25-16.65-8.66-9.16-19.58-20-24.25-24.09-4.68-4.09-10.98-8.84-14-10.55-3.03-1.71-8.33-4.03-18.06-7.21l2.78-2.61c1.53-1.44 6.15-5.1 10.28-8.15 4.12-3.05 13.57-9.01 21-13.26 7.42-4.25 16.87-9.41 21-11.48 4.12-2.07 11.32-5.34 16-7.27 4.67-1.92 12.55-4.84 17.5-6.48 4.95-1.64 13.72-3.99 19.5-5.23 5.77-1.24 14.77-3.33 20-4.64 5.22-1.31 13.1-4.14 17.5-6.27 6.09-2.96 9.89-5.76 15.9-11.75 4.34-4.32 11.07-12.36 14.94-17.86 3.88-5.5 8.16-12.48 9.52-15.5 1.35-3.03 3.93-11.35 5.72-18.5 1.79-7.15 3.97-17.05 4.84-22 0.86-4.95 1.57-10.24 1.58-11.75 0-2.34-0.41-2.75-2.75-2.73-1.51 0.01-4.78 0.95-7.25 2.07-2.76 1.26-7.98 5.6-13.5 11.24-6.24 6.37-10.34 11.63-13.37 17.18-2.4 4.39-6.34 10.8-8.75 14.24-2.41 3.44-6.29 7.55-8.63 9.14-2.34 1.59-6.95 3.8-10.25 4.9-3.3 1.1-10.82 3.07-16.7 4.36-5.89 1.29-11.07 2.01-11.5 1.6-0.44-0.41 2.15-3.79 5.76-7.5 3.61-3.71 7.94-8.78 9.62-11.25 1.68-2.48 5.14-8.66 7.69-13.75 2.55-5.09 6.83-14.76 9.51-21.5 2.68-6.74 7.9-20.58 11.6-30.75 3.7-10.18 8.26-24.13 10.14-31 1.88-6.88 5.96-23.3 9.06-36.5 5.09-21.62 5.66-25.14 5.71-35.5 0.06-10.43-0.2-12.1-2.72-18-1.53-3.58-4.89-9.65-7.46-13.5-2.58-3.85-7.84-10.18-11.7-14.06-3.85-3.89-10.16-9.1-14.01-11.6-3.85-2.49-8.8-5.23-11-6.09-2.2-0.86-6.7-1.88-10-2.26-3.43-0.39-8.57-0.21-12 0.43-3.3 0.62-11.18 3.2-17.5 5.73-6.33 2.53-16 6.76-21.5 9.4-5.5 2.63-17.65 9.59-27 15.47-9.35 5.87-23.08 14.39-30.5 18.93-7.43 4.54-19.13 11.56-26 15.59-6.88 4.02-16.78 10.38-22 14.12-5.23 3.74-11.92 8.94-14.89 11.57-2.96 2.62-6.56 6.79-8 9.27-2.09 3.6-2.61 5.8-2.6 11 0.01 4.66 0.63 7.77 2.22 11 1.21 2.47 8.18 11.95 15.49 21.06 7.3 9.11 15.6 19.91 18.43 24 2.83 4.09 7.62 12.39 10.64 18.44 3.03 6.05 6.63 14.15 8.01 18 1.38 3.85 3.29 10.82 4.23 15.5 1.17 5.75 1.54 10.6 1.13 15-0.34 3.57-1.14 8.07-1.78 10-0.65 1.92-2.8 5.71-4.78 8.41-1.98 2.71-7.2 7.79-11.6 11.3-4.4 3.5-11.6 8.48-16 11.06-4.4 2.58-12.05 6.44-17 8.58-4.95 2.14-13.28 5.45-18.5 7.35-5.23 1.91-14.79 5.01-21.25 6.88-9.18 2.67-13.55 3.42-20 3.41-4.54 0-11.06-0.45-14.5-1-3.44-0.54-9.29-2.22-13-3.72-3.71-1.5-9.23-4.34-12.25-6.31-3.03-1.97-8.59-6.48-12.36-10.02-3.78-3.54-8.94-9.59-11.47-13.44-2.54-3.85-5.95-10.83-7.59-15.5-2.67-7.63-2.97-9.73-2.95-20.5 0.02-9.04 0.59-14.34 2.33-21.5 1.27-5.23 3.86-14 5.77-19.5 1.91-5.5 6.78-16.53 10.82-24.5 4.04-7.98 10.87-20.35 15.16-27.5 4.29-7.15 11.17-17.5 15.29-23 4.12-5.5 11.34-14.5 16.05-20 4.7-5.5 13.71-14.44 20-19.87 6.3-5.43 17.3-14.25 24.45-19.6 7.15-5.35 16.37-11.96 20.5-14.7 4.12-2.73 13.35-8.26 20.5-12.29 7.15-4.02 18.62-10.82 25.5-15.12 6.87-4.29 14.97-10.04 18-12.76 3.02-2.72 5.13-5.33 4.67-5.8-0.45-0.48-11.37-0.27-24.5 0.47-13.02 0.73-27.27 2.01-31.67 2.84-4.4 0.83-11.6 2.84-16 4.46-4.4 1.62-11.6 4.91-16 7.32-4.4 2.4-17.23 10.4-28.5 17.78-11.28 7.37-30.4 20.47-42.5 29.09-12.1 8.63-26.5 18.93-32 22.89-5.5 3.96-17.88 13.03-27.5 20.15-9.63 7.13-22.68 17.09-29 22.15-6.33 5.06-14.65 12.55-18.5 16.65-3.85 4.09-9.22 10.8-11.94 14.89-2.72 4.1-6.8 10.6-9.08 14.45-2.27 3.85-6.18 11.5-8.67 17-2.5 5.5-10.74 24.17-18.31 41.5-7.57 17.32-18.26 41.62-23.74 54-5.49 12.37-10.99 25.42-12.23 29-1.23 3.57-3.1 10.66-4.14 15.74-1.27 6.19-1.56 9.59-0.89 10.3 0.7 0.75 2.94 0.27 7.5-1.6 3.57-1.47 12.35-5.61 19.5-9.19 7.15-3.59 18.85-9.2 26-12.47 7.15-3.27 16.6-7 21-8.28 4.4-1.28 11.82-2.87 16.5-3.54 6.65-0.96 10.02-0.96 15.5-0.02 4.09 0.71 9.7 2.63 13.5 4.64 3.57 1.88 14.15 9.5 23.5 16.93 11.55 9.17 23.23 17.27 36.43 25.25 10.69 6.46 21.65 13.76 24.36 16.24 2.89 2.65 6.11 6.97 7.82 10.5q2.91 6 4.1 15c0.91 6.92 0.91 12.24 0.01 23-0.64 7.7-2.34 18.72-3.77 24.5-1.65 6.67-4.71 14.88-8.38 22.5-3.18 6.6-9.36 17.4-13.75 24-4.38 6.6-12.84 18.75-18.8 27-5.95 8.25-16.83 23.21-24.17 33.25-7.34 10.04-13.35 18.7-13.35 19.25 0 0.55 1.01 1.28 2.25 1.63 1.24 0.34 6.3 0.32 11.25-0.05 4.95-0.37 14.4-1.33 33-3.59l9-9.32c4.95-5.13 13.01-14.47 17.92-20.75 4.9-6.28 12.66-17.16 17.25-24.17 4.58-7.01 12.94-20.63 18.58-30.26 5.64-9.63 10.59-17.5 11-17.5 0.41 0.01 3.17 3.72 6.12 8.26 2.96 4.54 7.79 10.95 10.73 14.25 2.94 3.3 12.33 13.41 20.87 22.47 8.54 9.06 22.17 23.35 45.03 47.03l-2.25 1.7c-1.24 0.93-9.45 4.79-18.25 8.57-8.8 3.78-23.65 9.73-33 13.22-9.35 3.48-22.63 8.2-29.5 10.47-6.88 2.28-16.33 5.21-21 6.52-4.68 1.31-14.58 3.97-22 5.92-7.43 1.94-18.9 4.74-25.5 6.22-11.12 2.5-13.77 2.7-36 2.79-22.86 0.09-24.5-0.04-34.5-2.58-5.78-1.46-12.75-3.54-15.5-4.62-2.75-1.07-16.48-6.66-30.5-12.42-14.03-5.76-28.88-12.18-33-14.26-4.13-2.07-9.98-5.62-13-7.88-3.03-2.26-8.85-7.04-12.94-10.63-4.1-3.59-9.72-9.28-12.5-12.65-2.78-3.37-7.14-10.12-9.69-15-2.55-4.88-5.58-11.8-6.72-15.37-1.15-3.58-3.21-12.58-4.57-20-1.35-7.43-4.5-25.65-6.99-40.5-2.49-14.85-6.1-38.7-8.03-53-1.92-14.3-4.01-30.95-4.65-37-0.66-6.29-0.87-15.07-0.48-20.5 0.36-5.23 1.54-14 2.6-19.5 1.07-5.5 3.46-14.5 5.32-20 1.86-5.5 6.21-16.98 9.67-25.5 3.46-8.53 10.31-24.73 15.23-36 4.91-11.28 13.33-30.63 18.71-43 5.38-12.38 13.17-29.25 17.31-37.5 4.13-8.25 10.18-19.05 13.43-24 3.26-4.95 8.54-12.15 11.75-16 3.21-3.85 8.58-9.85 11.94-13.33 3.36-3.48 9.48-9.15 13.61-12.6 4.12-3.44 15.37-12.04 25-19.1 9.62-7.06 24.7-18.01 33.5-24.33 8.8-6.32 28.16-20.08 43.03-30.57 14.86-10.49 34.21-23.87 43-29.74 8.78-5.87 21.37-13.37 27.97-16.65 6.6-3.29 17.62-7.81 24.5-10.03 6.87-2.23 15.42-4.71 19-5.52 3.57-0.81 13.47-1.95 22-2.53 8.52-0.57 28.1-1.53 43.5-2.11 15.4-0.59 30.92-1.21 34.5-1.38 3.57-0.18 19.55-0.22 35.5-0.11zm-768.8 291.5c0.72 0 6.38 5.96 12.59 13.25 6.21 7.29 15.09 17.97 19.73 23.75 4.63 5.77 16.96 20.85 27.39 33.5 10.42 12.65 21.69 26.35 25.02 30.43 3.34 4.09 19.57 23.69 36.07 43.55 16.5 19.86 36.75 44.4 45 54.52 8.25 10.13 20.15 24.73 26.45 32.46 6.3 7.72 14.06 17.53 17.25 21.79 3.19 4.26 5.69 7.97 5.55 8.24-0.14 0.27-4.75 0.78-10.25 1.13-5.5 0.35-30.48 0.12-55.5-0.52-25.03-0.65-45.73-0.93-46-0.63-0.28 0.3 0.81 3.58 2.42 7.29 1.6 3.71 5.26 11.46 8.13 17.24 2.87 5.77 8.47 16.12 12.46 23 3.98 6.87 10.29 17.45 14.02 23.5 3.73 6.05 11.82 18.2 17.98 27 6.16 8.8 14.86 20.69 19.34 26.42 4.48 5.74 13.6 16.54 20.25 24 6.66 7.47 20.18 21.45 30.06 31.08 9.87 9.62 25.26 23.57 34.2 31 8.94 7.42 21.62 17.32 28.17 22 6.55 4.67 19.01 13.05 27.69 18.62 8.68 5.56 18.93 11.82 22.78 13.9 3.85 2.08 11.28 6.08 16.5 8.88 5.23 2.81 15.8 8.11 23.5 11.79 7.7 3.67 19.17 8.78 25.5 11.35 6.32 2.57 15.1 5.99 19.5 7.61 4.4 1.62 16.77 5.58 27.5 8.8 10.72 3.23 22.99 6.81 27.25 7.96 4.26 1.15 15.74 3.68 25.5 5.62 9.76 1.95 22.25 4.22 27.75 5.05 5.5 0.83 16.07 2.16 23.5 2.96 9.65 1.03 26.25 1.44 58.25 1.45 24.61 0.01 50.49-0.47 57.5-1.05 7.01-0.59 20.17-2.17 29.25-3.53 9.07-1.36 20.77-3.33 26-4.38 5.22-1.05 12.42-2.6 16-3.44 3.57-0.84 12.8-3.32 20.5-5.51 7.7-2.2 21.87-6.68 31.5-9.97 9.62-3.28 24.25-8.73 32.5-12.1 8.25-3.38 23.55-10.35 34-15.5 10.45-5.15 25.3-13.05 33-17.55 7.7-4.5 23.22-14.32 34.48-21.82 11.26-7.5 26.11-18.11 33-23.56 6.89-5.46 18.37-15.13 25.52-21.49 7.15-6.37 21.58-20.13 32.06-30.58 10.49-10.46 23.55-24.41 29.03-31.01 5.48-6.6 14.66-18.3 20.39-26 5.74-7.7 14.99-20.98 20.56-29.5 5.56-8.53 14.19-22.7 19.16-31.5 4.98-8.8 12.26-22.41 16.18-30.25 3.91-7.84 8.89-18.64 11.05-24 2.17-5.36 5.25-12.9 6.85-16.75 1.6-3.85 5.05-13.08 7.66-20.5 2.62-7.43 6.92-18 9.56-23.5 3.31-6.88 6.63-11.99 10.65-16.36 4.24-4.6 7.78-7.3 12.85-9.75 4.24-2.05 9.95-3.84 14.5-4.53 6.7-1.01 8.4-0.91 16 1.01 5.75 1.46 10.26 3.36 13.93 5.89 2.99 2.06 7.4 6.21 9.79 9.24 2.4 3.02 5.68 8.2 7.29 11.5 1.61 3.3 3.46 8.92 4.1 12.5 0.89 4.91 0.9 8.34 0.04 14-0.63 4.12-2.22 11.1-3.53 15.5-1.32 4.4-4.52 13.85-7.12 21-2.59 7.15-7.56 19.75-11.03 28-3.47 8.25-9.3 21.3-12.95 29-3.65 7.7-10.97 22.1-16.27 32-5.29 9.9-11.28 20.47-13.3 23.5-2.02 3.02-4.58 7.3-5.69 9.5-1.11 2.2-7.76 12.55-14.77 23-7.02 10.45-17.28 24.85-22.82 32-5.53 7.15-13.43 17.05-17.55 22-4.12 4.95-11.12 13.05-15.54 18-4.43 4.95-13.76 15.07-20.73 22.5-6.98 7.42-18.91 19.2-26.52 26.16-7.61 6.97-17.88 16.13-22.83 20.36-4.95 4.24-17.55 14.13-28 21.98-10.45 7.85-25.53 18.64-33.5 23.97-7.98 5.33-20.35 13.21-27.5 17.5-7.15 4.3-26.73 14.67-43.5 23.05-16.78 8.38-37.25 17.91-45.5 21.19-8.25 3.28-23.33 8.81-33.5 12.29-10.18 3.48-25.03 8.36-33 10.83-7.98 2.48-19 5.63-24.5 7.01-5.5 1.37-14.5 3.41-20 4.53-5.5 1.12-15.4 2.96-22 4.09-6.6 1.13-21.9 3.22-34 4.64-19.73 2.31-26.9 2.64-69.5 3.12-32.54 0.37-51.75 0.17-61-0.64-7.43-0.65-23.18-2.5-35-4.11-11.83-1.6-28.48-4.31-37-6.01-8.53-1.7-19.33-3.98-24-5.07-4.68-1.09-15.7-4.01-24.5-6.49-8.8-2.48-23.2-6.91-32-9.85-8.8-2.94-19.6-6.69-24-8.34-4.4-1.65-14.53-5.7-22.5-9.01-7.98-3.31-21.59-9.43-30.25-13.61-8.66-4.17-20.36-10.13-26-13.22-5.64-3.1-15.2-8.59-21.25-12.19-6.05-3.6-17.98-11.13-26.5-16.73-8.53-5.6-21.8-14.81-29.5-20.47-7.7-5.65-19.4-14.58-26-19.84-6.6-5.26-18.07-14.98-25.48-21.6-7.42-6.62-20.02-18.57-28-26.55-7.99-7.98-21.08-22.16-29.1-31.5-8.02-9.35-19.98-24.19-26.57-32.99-6.6-8.8-14.47-19.38-17.49-23.5-3.02-4.13-8.35-11.78-11.86-17-3.5-5.23-12.62-20.53-20.27-34-7.65-13.48-17.97-32.83-22.94-43-4.96-10.18-10.36-21.88-12-26-1.64-4.13-3.84-9.19-4.89-11.25-1.24-2.45-2.59-3.75-3.9-3.75-1.1 0-3.91 0.87-6.25 1.94-2.34 1.07-9.2 4.03-15.25 6.59-6.05 2.55-15.95 6.68-22 9.16-6.05 2.49-18.88 7.9-28.5 12.04-9.63 4.14-20.65 8.6-24.5 9.91-3.85 1.31-7.79 2.38-8.75 2.37-1.24-0.01-1.74-0.8-1.73-2.76 0.01-1.51 6.96-23.68 15.45-49.25 8.48-25.58 21.77-66.08 29.54-90 7.76-23.93 17.65-54.3 21.97-67.5 4.32-13.2 12.63-39.3 18.48-58 5.84-18.7 12.05-38.16 13.79-43.25 1.8-5.28 3.72-9.25 4.45-9.25zm977.8 16.07c5.11-0.05 11.16 0.53 14 1.35 2.75 0.78 7.02 2.95 9.5 4.81 2.47 1.85 6.21 5.83 8.3 8.82 2.09 3 4.75 8.6 5.9 12.45 1.65 5.52 1.98 8.59 1.54 14.5-0.3 4.12-1.43 9.52-2.51 12-1.08 2.47-3.91 6.97-6.3 10-2.39 3.02-26.64 29.12-53.89 57.99-27.25 28.87-59.22 62.62-71.04 75-11.83 12.38-36.61 38.48-55.08 58.01-18.46 19.52-36.01 37.69-38.99 40.37-2.99 2.67-7.68 6.04-10.43 7.48-4.51 2.36-6.07 2.62-16 2.62-10.58 0-11.28-0.14-18.5-3.61-4.92-2.37-9.79-5.8-14.17-9.98-3.66-3.51-21.21-21.6-39-40.21-17.78-18.61-37.4-39.31-43.6-46-6.86-7.4-12.34-14.32-13.98-17.67-2.44-4.95-2.71-6.59-2.73-16.5-0.02-10.25 0.18-11.38 2.89-16.5 1.61-3.03 4.98-7.67 7.5-10.32 2.53-2.66 7.29-6.15 10.59-7.77 5.52-2.72 6.85-2.95 16.75-2.93 8.37 0.02 11.69 0.44 15 1.92 2.34 1.04 7.02 4.31 10.42 7.25 3.39 2.94 16.22 15.7 28.51 28.35 12.29 12.65 25.94 26.73 38.32 39.56l8.32-8.28c4.58-4.55 17.4-17.93 28.5-29.73 11.1-11.79 32.55-34.48 47.68-50.42 15.12-15.93 30.41-32.16 33.97-36.05 3.56-3.89 13.46-14.5 22-23.57 8.54-9.07 22.5-23.68 31.03-32.46 8.52-8.79 18.42-18.61 22-21.82 3.57-3.21 8.3-6.45 10.5-7.2 2.2-0.76 8.05-1.41 13-1.46z"/>
	</g>
</svg>