<svg version="1.2" xmlns="http://www.w3.org/2000/svg" viewBox="0 0 1176 868" width="1176" height="868">
	<style>
		.s0 { fill: #ffffff } 
	</style>
	<g id="icons">
		<path id="-e lucky" class="s0" d="m68 218.18c-4.13 0.45-9.98 1.54-13 2.42-3.03 0.88-8.65 3.1-12.5 4.92-3.85 1.82-9.5 5.26-12.56 7.64-3.05 2.39-7.15 6.14-9.1 8.34-1.95 2.2-5.55 6.92-8 10.5-2.44 3.57-5.72 9.42-7.29 13-1.56 3.57-3.5 10.32-4.31 15-0.97 5.63-1.28 11.87-0.92 18.5 0.3 5.5 1.27 12.7 2.15 16 0.88 3.3 3.39 9.6 5.57 14 2.18 4.4 6.08 10.47 8.67 13.5 2.59 3.02 7.42 7.87 10.75 10.77 3.52 3.07 10.21 7.31 16.04 10.15 5.5 2.69 12.92 5.49 16.5 6.23 3.57 0.74 11.45 1.32 17.5 1.28 7.46-0.04 13.09-0.65 17.5-1.89 3.57-1.01 11-4.13 16.5-6.93 8.22-4.19 11.51-6.61 18.5-13.62 6.61-6.62 9.54-10.52 13.15-17.5 2.69-5.2 5.59-12.79 6.87-17.99 1.88-7.64 2.15-10.89 1.74-21.5-0.37-9.88-1.02-14.18-3.09-20.5-1.44-4.4-4.32-10.88-6.39-14.4-2.08-3.52-6.93-9.76-10.78-13.87-3.85-4.1-10.15-9.54-14-12.08-3.85-2.53-9.48-5.61-12.5-6.83-3.03-1.22-8.43-2.89-12-3.71-3.58-0.83-8.98-1.67-12-1.88-3.03-0.2-8.88 0-13 0.45zm1045.41 398.6c-2.8 0.95-7.7 3.52-10.9 5.72-3.2 2.2-7.66 6.05-9.91 8.55-2.26 2.5-5.3 7-6.78 10-1.47 3-3.35 8.15-4.19 11.45-0.88 3.5-1.36 8.71-1.14 12.5 0.21 3.57 1.06 8.52 1.89 11 0.83 2.47 2.75 6.75 4.26 9.5 1.51 2.75 5.48 7.67 8.81 10.94 4.09 4.01 8.48 7.07 13.55 9.44 6.66 3.11 8.62 3.55 17.5 3.91 8.55 0.35 10.87 0.08 16-1.84 3.3-1.23 7.8-3.37 10-4.76 2.2-1.38 6.47-5.06 9.5-8.17 3.02-3.1 6.73-8.09 8.23-11.08 1.51-2.99 3.47-9.04 4.37-13.44 1.48-7.23 1.49-8.72 0.14-15.5-0.83-4.13-2.7-9.98-4.15-13-1.46-3.03-4.36-7.53-6.44-10-2.09-2.48-6.69-6.44-10.22-8.81-3.54-2.37-9.36-5.19-12.93-6.27-4.23-1.28-9.29-1.94-14.5-1.91-4.78 0.03-10.05 0.75-13.09 1.77zm-762.41 64.97c-1.93 0.14-7.1 0.75-11.5 1.36-4.4 0.6-11.83 2.45-16.5 4.1-4.68 1.64-10.98 4.35-14 6.01-3.03 1.66-7.98 4.93-11 7.28-3.03 2.35-8.24 7.13-11.6 10.63-3.35 3.5-7.82 9.07-9.92 12.37-2.1 3.3-5.06 8.7-6.58 12-1.52 3.3-3.88 9.82-5.24 14.5-1.37 4.67-2.79 11.87-3.15 16-0.37 4.12-0.21 12 0.34 17.5 0.56 5.53 2.19 13.58 3.66 18 1.46 4.4 3.94 10.7 5.51 14 1.58 3.3 4.58 8.55 6.67 11.68 2.1 3.12 5.61 7.81 7.81 10.43 2.2 2.62 7.6 7.43 12 10.69 4.4 3.26 10.47 7.17 13.5 8.69 3.02 1.52 8.76 3.94 12.75 5.39 3.99 1.44 11.64 3.34 17 4.22 6.46 1.06 12.78 1.42 18.75 1.06 4.95-0.3 12.49-1.47 16.75-2.6 4.26-1.13 11.69-3.9 16.5-6.14 4.81-2.24 11.45-6 14.75-8.34 3.3-2.35 8.4-6.7 11.34-9.67 2.93-2.98 7.03-7.89 9.11-10.91 2.08-3.03 5.82-9.55 8.32-14.5 2.5-4.95 5.45-11.93 6.55-15.5 1.09-3.58 2.49-11 3.1-16.5 0.76-6.86 0.8-12.35 0.12-17.5-0.54-4.13-1.44-8.96-2.01-10.75-0.57-1.79-0.81-3.25-0.53-3.25 0.27 0-0.56-3.04-1.86-6.75-1.29-3.71-3.83-9.68-5.63-13.25-1.81-3.58-4.97-8.98-7.03-12-2.06-3.03-6.84-8.47-10.62-12.1-3.77-3.63-10.01-8.61-13.86-11.07-3.85-2.45-10.83-6.08-15.5-8.06-4.68-1.98-12.1-4.28-16.5-5.12-4.4-0.83-10.25-1.66-13-1.83-2.75-0.18-6.58-0.21-8.5-0.07zm-89.89-673c-1.82 4.81-4.67 12.12-6.33 16.25-1.67 4.12-5.27 12-8.01 17.5-2.74 5.5-6.22 11.8-7.74 14-1.52 2.2-5.41 6.66-8.65 9.92-3.23 3.25-9.59 8.31-14.13 11.25-4.54 2.93-12.19 7.29-17 9.69-4.81 2.4-14.72 6.79-22.02 9.75-7.31 2.97-13.28 5.61-13.28 5.89 0 0.27 1.02 1.04 2.27 1.69 1.26 0.66 6.78 2.99 12.28 5.18 5.5 2.19 15.17 6.62 21.5 9.84 6.32 3.22 14.2 7.64 17.5 9.82 3.3 2.17 8.92 6.9 12.5 10.49 3.61 3.63 8.7 10.3 11.46 15.01 2.72 4.66 7.08 12.74 9.69 17.97 2.6 5.22 6.67 15.45 9.04 22.72 2.37 7.27 4.53 13.25 4.81 13.28 0.27 0.04 2.47-5.46 4.89-12.21 2.41-6.76 7.08-17.92 10.37-24.79 3.3-6.88 7.92-15.43 10.28-19 2.36-3.58 6.92-9.38 10.13-12.89 3.21-3.52 8.98-8.44 12.83-10.94 3.85-2.5 12.17-7.03 18.5-10.06 6.32-3.03 16.67-7.56 23-10.07 6.32-2.51 11.38-5.01 11.24-5.55-0.15-0.55-3.75-2.48-8-4.3-4.26-1.82-10.44-4.48-13.74-5.9-3.3-1.42-10.05-4.58-15-7.01-4.95-2.44-11.7-6.25-15-8.47-3.3-2.23-7.97-5.91-10.37-8.18-2.41-2.27-7.1-7.51-10.42-11.63-3.82-4.74-8.15-11.92-11.77-19.5-3.14-6.6-7.37-16.28-9.4-21.5-2.02-5.23-4.22-11.19-4.87-13.25-0.66-2.06-1.66-3.75-2.22-3.75-0.57 0-2.52 3.94-4.34 8.75zm271.89 143.92c-1.38 0.22-5.2 1.34-8.5 2.5-3.3 1.16-8.36 3.62-11.25 5.47-2.89 1.85-7.11 5.05-9.39 7.11-2.27 2.06-6.04 6.45-8.37 9.75-2.34 3.3-5.15 7.8-6.25 10-1.11 2.2-2.5 6.47-3.09 9.5-0.6 3.02-1.35 7.52-1.67 10-0.33 2.47-0.09 7.87 0.53 12 0.78 5.19 2.54 10.43 5.7 17 3.64 7.57 6.02 10.94 11.68 16.59 5.07 5.05 9.26 8.13 14.61 10.73 4.12 2.01 10.2 4.33 13.5 5.17 3.3 0.84 8.7 1.51 12 1.5 3.3-0.01 8.92-0.72 12.5-1.57 3.57-0.85 9.87-3.13 14-5.06 5.78-2.71 9.23-5.28 15.03-11.19 4.92-5.01 8.64-9.93 10.73-14.17 1.76-3.58 3.89-9.2 4.73-12.5 0.83-3.3 1.52-9.83 1.52-14.5 0-4.68-0.68-11.09-1.5-14.25-0.83-3.16-2.82-8.34-4.43-11.5-1.6-3.16-5.09-8.43-7.75-11.7-2.66-3.27-8.21-8.26-12.33-11.09-4.78-3.28-10.5-6.11-15.75-7.8-6.31-2.03-10.08-2.63-16-2.52-4.26 0.07-8.88 0.31-10.25 0.53zm253.5 41.99c-1.65 0.19-5.7 0.85-9 1.46-3.3 0.6-8.7 1.97-12 3.03-3.3 1.06-8.48 3.32-11.5 5.01-3.03 1.7-8.43 5.23-12 7.86-3.58 2.62-8.54 6.96-11.04 9.63-2.5 2.67-5.93 6.87-7.62 9.35-1.69 2.47-4.22 6.75-5.62 9.5-1.41 2.75-3.49 7.14-4.64 9.75-1.14 2.61-2.8 8.01-3.68 12-0.9 4.08-1.64 12.28-1.7 18.75-0.05 6.32 0.5 14.65 1.24 18.5 0.73 3.85 2.48 9.92 3.9 13.5 1.41 3.57 4.08 9.2 5.94 12.5 1.86 3.3 5.26 8.45 7.55 11.43 2.29 2.99 7.77 8.3 12.17 11.79 4.4 3.49 12.05 8.42 17 10.95 5.09 2.6 13.13 5.65 18.5 7.01 6.5 1.64 12.34 2.4 18.5 2.41 4.95 0.01 11.92-0.45 15.5-1.01 3.57-0.57 8.97-1.89 12-2.93 3.02-1.05 8.2-3.12 11.5-4.6 3.3-1.48 8.92-4.63 12.5-7.01 3.57-2.37 9.21-7.18 12.52-10.68 3.31-3.5 8-9.29 10.44-12.86 2.43-3.58 5.91-9.76 7.73-13.75 1.82-3.99 4-10.51 4.85-14.5 0.85-3.99 1.8-11.08 2.11-15.75 0.38-5.72 0.04-11.53-1.04-17.75-0.89-5.09-2.33-11.39-3.2-14-0.88-2.61-2.91-7.45-4.52-10.75-1.61-3.3-4.95-8.7-7.41-12-2.46-3.3-6.84-8.4-9.73-11.34-2.89-2.93-8.4-7.72-12.25-10.63-3.85-2.92-9.48-6.44-12.5-7.83-3.03-1.39-8.2-3.22-11.5-4.07-3.3-0.86-10.05-2.02-15-2.58-4.95-0.57-10.35-0.97-12-0.89-1.65 0.08-4.35 0.3-6 0.5zm-408 94c-1.65 0.19-7.95 1.07-14 1.96-6.05 0.88-15.28 2.85-20.5 4.37-5.23 1.52-11.75 3.67-14.5 4.76-2.75 1.1-8.83 3.92-13.5 6.27-4.68 2.35-13 7.23-18.5 10.84-6.65 4.37-14.06 10.6-22.12 18.61-6.67 6.62-14.6 15.4-17.62 19.53-3.02 4.12-7.88 11.55-10.82 16.5-2.93 4.95-6.75 12.37-8.49 16.5-1.75 4.12-4.34 11.32-5.77 16-1.43 4.67-3.56 13.67-4.73 20-1.51 8.17-2.13 15.56-2.14 25.5-0.01 7.7 0.5 18.5 1.14 24 0.65 5.5 2.01 13.6 3.04 18 1.02 4.4 3.08 11.37 4.56 15.5 1.49 4.12 5.36 12.67 8.61 19 3.25 6.32 6.88 13.07 8.06 15 1.19 1.92 5.56 7.95 9.72 13.4 4.16 5.44 10.05 12.19 13.09 15 3.04 2.8 8.89 7.84 13 11.18 4.11 3.35 10.84 8.38 14.97 11.19 4.12 2.8 11.77 7.1 17 9.55 5.22 2.45 13.77 5.88 19 7.61 5.22 1.74 14 4.09 19.5 5.22 5.5 1.14 14.5 2.35 20 2.71 5.5 0.35 16.3 0.34 24-0.02 10.79-0.51 16.86-1.39 26.5-3.82 6.87-1.74 17.22-5.06 23-7.38 5.77-2.32 14.32-6.3 19-8.84 4.67-2.54 13-7.98 18.5-12.09 5.5-4.1 13.6-11.01 18-15.35 4.4-4.35 11.03-11.94 14.72-16.88 3.7-4.94 9.15-13.26 12.12-18.48 2.97-5.23 7.08-13.33 9.13-18 2.05-4.68 4.99-12.55 6.53-17.5 1.54-4.95 3.56-12.83 4.49-17.5 1-5.01 1.84-14.87 2.04-24 0.22-9.76-0.16-18.83-1.02-24.5-0.75-4.95-1.67-10.8-2.04-13-0.38-2.2-2.6-9.85-4.94-17-2.35-7.15-6.19-16.83-8.54-21.5-2.35-4.68-6.51-12.1-9.25-16.5-2.74-4.4-7.56-11.15-10.72-15-3.15-3.85-10.45-11.5-16.21-17-5.76-5.5-14.49-12.69-19.39-15.99-4.91-3.29-13.65-8.36-19.42-11.26-5.78-2.9-14.78-6.65-20-8.34-5.23-1.69-13.55-3.91-18.5-4.94-4.95-1.03-12.83-2.34-17.5-2.92-4.68-0.58-12.55-0.99-17.5-0.9-4.95 0.08-10.35 0.31-12 0.51zm616.29 41c-0.35 0.46-2.49 6.01-4.76 12.34-2.27 6.32-6.11 16.45-8.52 22.5-2.42 6.05-6.39 15.27-8.83 20.5-2.43 5.22-6.78 13.55-9.65 18.5-2.87 4.95-7.17 11.7-9.55 15-2.39 3.3-7.63 9.44-11.66 13.65-4.03 4.21-10.92 10.53-15.32 14.03-4.4 3.51-11.83 8.7-16.5 11.53-4.68 2.83-13.9 7.7-20.5 10.82-6.6 3.11-14.25 6.56-17 7.65-2.75 1.1-7.25 3.04-10 4.31-2.75 1.28-7.03 3.21-9.5 4.3-2.48 1.08-5.63 2.31-7 2.72-1.38 0.41-4.53 1.67-7 2.8l-4.5 2.04c8.52 3.76 13.92 5.88 17.5 7.13 3.57 1.26 11.45 4.4 17.5 6.99 6.05 2.59 16.85 7.61 24 11.17 7.15 3.55 17.27 9.32 22.5 12.82 5.22 3.5 13.07 9.44 17.42 13.2 4.37 3.77 11.11 11.11 15.02 16.34 3.91 5.22 8.27 11.3 9.69 13.5 1.42 2.2 5.33 9.17 8.68 15.5 3.35 6.32 8.65 17.8 11.77 25.5 3.12 7.7 7.98 20 10.8 27.33 2.81 7.33 5.57 13.35 6.12 13.36 0.55 0.02 2.46-4.18 4.25-9.33 1.79-5.15 4.91-13.64 6.93-18.86 2.03-5.23 5.22-12.88 7.1-17 1.88-4.13 5.89-12.45 8.91-18.5 3.03-6.05 7.54-14.15 10.03-18 2.48-3.85 6.56-9.48 9.07-12.5 2.5-3.03 8.19-9.1 12.65-13.5 4.45-4.4 12.36-11.05 17.58-14.77 5.21-3.73 16.68-10.31 25.48-14.62 8.8-4.31 22.07-10.33 29.5-13.38 7.42-3.05 16.99-6.94 21.25-8.64 4.26-1.7 7.64-3.59 7.5-4.2-0.14-0.61-4.75-2.77-10.25-4.8-5.5-2.03-14.05-5.54-19-7.81-4.95-2.26-13.5-6-19-8.31-5.5-2.32-14.64-6.74-20.3-9.84-5.67-3.1-14.89-9.05-20.5-13.23-5.61-4.17-13.76-11.37-18.12-16-4.36-4.62-11.06-13.13-14.9-18.9-3.84-5.78-9.78-16.35-13.2-23.5-3.42-7.15-8.92-19.75-12.21-28-3.3-8.25-7.25-18.6-8.79-23-1.54-4.4-3.09-8.38-3.43-8.84-0.34-0.46-0.91-0.46-1.26 0zm-328.29 185.35c-6.05 1.51-14.15 4.03-18 5.6-3.85 1.56-10.38 5.06-14.5 7.77-4.13 2.71-9.98 6.98-13 9.49-3.03 2.5-6.66 5.7-8.08 7.09-1.42 1.4-4.58 5.24-7.03 8.54-2.45 3.3-5.61 7.8-7.02 10-1.42 2.2-3.72 6.25-5.12 9-1.39 2.75-3.73 8.6-5.19 13-1.46 4.4-3.46 12.27-4.45 17.5-1.18 6.24-1.71 13.1-1.54 20 0.17 7.14 1.09 14.02 2.88 21.5 1.45 6.05 4.27 14.82 6.26 19.5 2 4.67 5.88 11.87 8.62 16 2.75 4.12 8.86 11.36 13.58 16.08 4.72 4.72 11.51 10.54 15.09 12.94 3.57 2.41 11 6.47 16.5 9.03 5.5 2.57 11.12 4.97 12.5 5.33 1.37 0.37 6.77 1.56 12 2.66 6.48 1.35 13.32 1.98 21.5 1.97 6.6 0 14.92-0.63 18.5-1.39 3.57-0.75 8.52-1.9 11-2.54 2.47-0.65 6.97-2.14 10-3.33 3.02-1.18 7.52-3.3 10-4.71 2.47-1.41 5.79-3.23 7.37-4.05 1.58-0.82 6.3-4.23 10.5-7.59 4.2-3.35 10.16-8.97 13.26-12.5 3.1-3.52 7.52-9.33 9.83-12.9 2.31-3.58 5.93-10.1 8.06-14.5 2.12-4.4 4.8-11.6 5.95-16 1.14-4.4 2.59-12.5 3.22-18 0.88-7.77 0.85-12.34-0.14-20.5-0.71-5.78-2.37-14.33-3.71-19-1.33-4.68-4-11.88-5.94-16-1.93-4.13-5.92-11.1-8.86-15.5-2.99-4.49-9.44-11.91-14.69-16.91-5.14-4.9-11.83-10.58-14.85-12.63-3.03-2.05-7.75-4.93-10.5-6.4-2.75-1.47-8.83-4.02-13.5-5.67-4.68-1.64-12.33-3.65-17-4.47-4.87-0.85-13.63-1.42-20.5-1.32-9.38 0.12-14.41 0.75-23 2.91zm-560.26 38.49c-1.11 2.2-3.96 9.17-6.33 15.5-2.36 6.32-6.51 16-9.2 21.5-2.7 5.5-7 13.13-9.56 16.95-2.56 3.82-7.69 9.56-11.4 12.75-3.71 3.19-12.04 8.91-18.5 12.72-6.46 3.8-15.8 8.68-20.75 10.84-4.95 2.16-12.26 5.12-16.25 6.58-3.99 1.46-7.45 3-7.7 3.41-0.24 0.41 4.14 2.49 9.75 4.61 5.61 2.12 14.02 5.65 18.7 7.85 4.67 2.2 10.75 5.37 13.5 7.05 2.75 1.68 6.79 4.22 8.98 5.64 2.19 1.43 5.11 3.49 6.5 4.58 1.39 1.09 5.67 5.14 9.52 9 4.86 4.87 8.6 9.92 12.21 16.52 2.87 5.22 7.23 14 9.7 19.5 2.47 5.5 6.2 14.63 8.29 20.28 2.09 5.66 4.15 10.16 4.59 10 0.43-0.15 2.37-5.01 4.31-10.78 1.94-5.78 6.22-16.13 9.51-23 3.29-6.88 8.41-16.1 11.38-20.5 2.96-4.4 7.33-10.07 9.7-12.61 2.37-2.53 7.23-6.87 10.81-9.64 3.57-2.76 12.35-8.01 19.5-11.65 7.15-3.64 17.85-8.53 23.79-10.86 5.93-2.33 10.85-4.69 10.93-5.24 0.08-0.55-0.95-1.55-2.29-2.23-1.34-0.67-6.03-2.76-10.43-4.63-4.4-1.88-12.5-5.57-18-8.2-5.5-2.63-13.37-6.85-17.48-9.36-4.11-2.52-9.93-6.83-12.93-9.58-3-2.75-8.11-8.6-11.35-13-3.25-4.4-8.31-12.95-11.25-19-2.94-6.05-6.98-15.5-8.98-21-2-5.5-4.45-11.8-5.44-14l-1.81-4z"/>
	</g>
</svg>