<svg version="1.2" xmlns="http://www.w3.org/2000/svg" viewBox="0 0 1106 983" width="1106" height="983">
	<style>
		.s0 { fill: #b7b6b7 } 
		.s1 { fill: #fdfdfd } 
	</style>
	<g id="icons">
		<g id="-e legendary">
			<path id="Path 0" fill-rule="evenodd" class="s0" d="m622.5 0.64c1.65 0.33 4.24 1.22 5.75 1.98 1.51 0.76 3.7 2.62 4.86 4.13 1.97 2.57 2.08 3.65 1.63 16.25-0.4 11.14-0.96 14.99-3.24 22-1.51 4.67-5.12 14.57-8.02 22-2.9 7.42-10.77 26.32-17.49 42-6.73 15.67-16.63 38.4-22 50.5-5.37 12.1-12.52 27.96-15.88 35.25-3.36 7.29-6 13.45-5.86 13.69 0.14 0.24 14.87-6.87 32.75-15.79 17.87-8.92 39.92-19.73 49-24.03 9.07-4.3 34.05-15.6 55.5-25.12 21.45-9.51 55.42-24.14 75.5-32.5 20.07-8.37 42.8-17.6 50.5-20.51 7.7-2.91 19.4-7.11 26-9.34 6.6-2.22 17.62-5.69 24.5-7.7 10.01-2.92 14.79-3.76 24-4.19 7.2-0.34 12.81-0.13 15 0.57 1.92 0.61 4.62 2.29 6 3.74 1.74 1.83 2.62 4.05 2.88 7.28 0.22 2.71-0.35 6.95-1.36 10.15-0.96 3.02-3.23 8.2-5.04 11.5-1.81 3.3-7.22 11.17-12.02 17.5-4.81 6.32-13.33 16.9-18.93 23.5-5.61 6.6-18.21 20.55-28 31-9.78 10.45-23.94 25.3-31.45 33-7.52 7.7-16.35 16.91-25.58 26.94l9.5 1.73c7.42 1.35 8.08 1.58 3 1.06-3.58-0.37-8.36-0.68-14.77-0.73l-65.83 67c-36.21 36.85-90.38 91.55-120.37 121.55-29.99 30-59.03 58.3-64.53 62.89-5.5 4.59-12.48 10.02-15.5 12.06-3.03 2.05-7.98 4.98-11 6.51-3.03 1.53-8.65 3.84-12.5 5.15-3.85 1.3-13.08 3.69-20.5 5.3-7.43 1.61-19.58 3.63-27 4.49-7.43 0.86-24.75 2.06-38.5 2.68-14.37 0.64-37.12 0.85-53.5 0.49-15.68-0.34-33.9-1.09-40.5-1.66-6.6-0.56-18.08-1.7-25.5-2.51-7.43-0.82-16.88-1.96-21-2.53-4.13-0.58-13.35-1.94-20.5-3.03-7.15-1.09-17.28-2.89-22.5-3.99-5.23-1.1-14-3.14-19.5-4.54-5.5-1.39-11.58-3.19-13.5-4-1.93-0.81-4.75-2.68-6.27-4.16-2.31-2.25-2.77-3.53-2.74-7.7 0.02-3.23 0.94-6.95 2.6-10.5 1.42-3.03 5.07-9.33 8.12-14 3.05-4.68 8.28-12.33 11.63-17 3.35-4.68 12.6-16.38 20.57-26 7.97-9.63 23.74-26.75 35.04-38.06 12.3-12.3 24.57-23.53 30.55-27.98 5.5-4.08 16.3-11.63 24-16.78 7.7-5.15 21.42-13.76 30.5-19.13 9.07-5.37 22.12-12.92 29-16.78 6.87-3.85 17.45-9.71 23.5-13.02 6.05-3.31 23.15-12.42 38-20.25 14.85-7.82 35.1-18.76 45-24.29 9.9-5.53 21.15-11.88 25-14.12 6.02-3.49 6.65-4.11 4.5-4.4-1.38-0.19-8.35 0.61-15.5 1.78-7.15 1.16-14.8 2.36-17 2.65-2.2 0.29-9.85 1.6-17 2.9-7.15 1.3-22 4.23-33 6.51-11 2.27-31.25 7.02-45 10.55-13.75 3.53-31.53 8.23-39.5 10.44-7.98 2.22-23.73 7-35 10.63-11.28 3.63-21.18 6.8-22 7.04-0.83 0.24-0.38-0.21 1-1.01 1.37-0.8 10.19-9.94 19.6-20.31 9.4-10.38 34.42-36.42 55.6-57.87 21.18-21.45 49.48-49.39 62.9-62.1 13.42-12.7 33.63-31.37 44.91-41.5 11.27-10.12 26.12-23.16 33-28.98 6.87-5.82 17.89-14.84 24.49-20.04 6.6-5.21 16.27-12.65 21.5-16.54 5.22-3.89 14.9-10.68 21.5-15.1 6.6-4.42 14.25-9.19 17-10.62 2.75-1.42 7.47-3.48 10.5-4.58 3.42-1.24 6.64-1.77 8.5-1.4zm-144.5 337.89c-10.73 3.14-29.4 9.08-41.5 13.2-12.1 4.13-26.28 9.2-31.5 11.28-5.23 2.08-16.03 6.67-24 10.21-7.98 3.54-20.35 9.59-27.5 13.45-7.15 3.85-17.5 9.78-23 13.17-5.5 3.39-15.36 10.33-21.92 15.41-6.55 5.09-17.57 14.9-24.5 21.8-6.92 6.9-16.81 17.47-21.99 23.5-5.17 6.02-10.34 11.97-11.5 13.21q-2.08 2.26-1.09 3.25c0.55 0.55 11.8 3.18 25 5.87 14.37 2.92 29.82 5.38 38.5 6.13 7.97 0.69 24.17 1.31 36 1.37 17.95 0.1 22.33-0.16 26.5-1.6 2.75-0.95 7.92-3.6 11.5-5.9 3.57-2.3 9.65-6.69 13.5-9.77 3.85-3.07 11.5-9.39 17-14.03 5.5-4.65 18.36-16.8 28.57-27.01 10.21-10.21 22.4-23.3 27.08-29.07 4.68-5.78 11.55-14.78 15.28-20 3.72-5.23 9.28-13.55 12.36-18.5 3.07-4.95 8.87-15.41 12.89-23.25l7.32-14.25c-4.26 0.15-9.55 1.46-14.5 3-4.95 1.55-17.78 5.38-28.5 8.53zm-179.08-57.48c0.78-0.03 1.23 0.14 1 0.37-0.23 0.22-3.57 1.57-7.42 3-3.85 1.42-7.12 2.47-7.26 2.33-0.15-0.14 2.55-1.47 6-2.95 3.44-1.49 6.9-2.72 7.68-2.75zm-107.17 50.95c0.14 0 0.27 0.11 0.29 0.25 0.02 0.14-3.13 2.39-7 5-3.87 2.61-7.1 4.53-7.18 4.27-0.07-0.26 2.97-2.51 6.75-5 3.79-2.49 7-4.52 7.14-4.52zm823 33.07c0.14-0.04 0.25 0.15 0.25 0.43 0 0.27-2.14 1.57-4.75 2.87-2.61 1.3-5.88 2.65-7.25 2.99-1.38 0.34 0.65-0.92 4.5-2.8 3.85-1.88 7.11-3.45 7.25-3.49zm-898.02 23.93c0.15 0 0.27 0.11 0.27 0.25 0.01 0.14-5.73 5.87-25.5 25.25l12.48-12.75c6.87-7.01 12.61-12.75 12.75-12.75zm-70.27 82c0.22 0-1.71 3.17-4.28 7.04-2.57 3.87-4.79 7.02-4.93 7-0.14-0.02 0.05-0.6 0.42-1.29 0.37-0.69 2.41-3.84 4.54-7 2.12-3.16 4.03-5.75 4.25-5.75zm-24.06 39c0.22 0-2.15 5.15-5.25 11.45-3.11 6.3-5.76 11.25-5.9 11-0.14-0.25 2.23-5.4 5.26-11.45 3.03-6.05 5.68-11 5.89-11zm-11.92 24.2c0.04 0.19-1.22 4.16-2.81 8.82-1.58 4.66-3.73 12.3-4.78 16.98-1.54 6.82-1.79 7.41-1.31 3 0.33-3.03 1.51-8.43 2.62-12 1.11-3.58 2.97-8.89 4.12-11.82 1.16-2.92 2.13-5.17 2.16-4.98zm-9.75 39.3c0.21 2.2 0.21 6.02 0 8.5-0.21 2.47-0.38 0.67-0.38-4 0-4.68 0.17-6.7 0.38-4.5zm222.27 21.93c13.47 0 18.87 0.14 12 0.32-6.88 0.17-17.9 0.17-24.5 0-6.6-0.18-0.98-0.32 12.5-0.32zm848.85 146.08c1.3 1.09 2.99 3.23 3.75 4.74 0.77 1.51 1.37 3.99 1.33 5.5-0.05 2.05-0.36 1.58-1.25-1.89-0.65-2.55-2.31-5.92-3.68-7.49-2.37-2.7-2.38-2.75-0.15-0.86zm-102.02 172.55c0.18-0.03-2.83 3.43-6.69 7.69-3.85 4.26-14.24 14.95-23.08 23.75-8.84 8.8-16.05 15.77-16.03 15.5 0.02-0.28 10.25-10.93 22.75-23.69 12.5-12.75 22.87-23.21 23.05-23.25z"/>
			<path id="Path 1" class="s1" d="m516 229.11c-2.48 0.49-10.58 1.78-18 2.86-7.43 1.09-18.23 2.86-24 3.94-5.78 1.09-19.5 3.84-30.5 6.11-11 2.28-31.25 7.03-45 10.56-13.75 3.53-31.53 8.23-39.5 10.45-7.98 2.21-23.05 6.77-33.5 10.11-10.45 3.35-25.98 8.69-34.5 11.87-8.53 3.17-23.38 9.14-33 13.26-9.63 4.11-21.78 9.61-27 12.21-5.23 2.61-14 7.27-19.5 10.36-5.5 3.1-19.9 12.23-32 20.29-12.1 8.07-26.28 18.11-31.5 22.32-5.23 4.2-15.29 12.68-22.38 18.85-7.08 6.16-18.55 17.06-25.5 24.22-6.94 7.16-17.32 18.64-23.06 25.5-5.75 6.86-14.47 17.88-19.4 24.48-4.92 6.6-11.51 15.82-14.64 20.5-3.13 4.67-8.69 13.56-12.36 19.75-3.66 6.19-9.54 16.99-13.05 24-3.52 7.01-8.03 17.47-10.03 23.25-2.01 5.77-4.36 14.32-5.24 19-1.12 6.01-1.42 11.57-1.04 19 0.39 7.28 1.34 12.95 3.12 18.5 1.41 4.4 3.86 10.25 5.45 13 1.58 2.75 5.07 7.43 7.76 10.4 2.68 2.97 8.47 8.25 12.87 11.73 4.75 3.75 10.03 6.97 13 7.92 3.18 1.02 6.45 1.37 9 0.97 2.81-0.44 7.57-3.17 16-9.17 6.6-4.69 15.15-10.38 19-12.64 3.85-2.26 11.27-6.05 16.5-8.42 5.22-2.37 15.01-6.11 21.75-8.3 6.74-2.19 15.29-4.63 19-5.41 3.71-0.79 13.05-2.23 20.75-3.22 11.88-1.53 21.96-1.8 66.6-1.83 45.31-0.03 52.84 0.18 54.4 1.47 0.99 0.82 4.34 5.32 7.44 10 3.1 4.67 9.63 14.35 14.51 21.5 4.87 7.15 9.15 13.22 9.5 13.5 0.35 0.27 2.8 3.2 5.45 6.5 2.64 3.3 7.68 9.04 11.2 12.75 3.52 3.71 8.54 8.46 11.15 10.55 2.61 2.08 6.55 4.38 8.75 5.1 3.49 1.14 4.57 1.08 8.5-0.48 2.47-0.99 7.15-3.62 10.4-5.85 3.24-2.24 10.67-8.06 16.5-12.94 5.83-4.88 11.53-9.83 12.66-11 1.13-1.17 5.58-5.28 9.87-9.13 4.3-3.85 12.15-11.09 17.44-16.1 9.34-8.82 9.72-9.06 12.64-8 1.65 0.61 4.46 2.11 6.25 3.35 1.78 1.24 3.58 2.26 3.99 2.27 0.41 0.02 3 1.47 5.75 3.24 2.75 1.76 5.57 3.67 6.27 4.22 0.7 0.56 2.84 2.48 4.75 4.27 2.01 1.88 3.73 4.62 4.08 6.5 0.34 1.79 0.36 4.15 0.05 5.25-0.31 1.1-2.9 5.6-5.74 10-2.85 4.4-8.15 11.6-11.79 16-3.64 4.4-7.97 9.52-9.62 11.39-1.65 1.86-5.03 5.49-7.5 8.05-2.48 2.57-8.34 8.02-13.03 12.11-4.68 4.1-10.26 8.8-12.38 10.45-2.13 1.65-4.37 3.45-4.98 4-0.61 0.55-4.26 3.53-8.11 6.63-3.85 3.09-11.5 8.78-17 12.63-5.5 3.86-12.25 8.26-15 9.78-2.75 1.52-5.23 3.08-5.5 3.47-0.28 0.39-3.65 2.44-7.5 4.54-3.85 2.11-10.15 5.57-14 7.68-3.85 2.12-9.79 5.29-13.2 7.06-5.39 2.8-6.49 3.05-8.5 1.97-1.26-0.69-3.18-1.81-4.25-2.5-1.07-0.69-2.42-1.6-3-2.03-0.58-0.42-2.19-1.77-3.58-3-1.39-1.22-4.76-4.03-7.48-6.23-2.73-2.2-5.93-4.9-7.11-6-1.18-1.1-3.82-3.35-5.87-5-2.05-1.65-4.75-3.9-6-5-1.25-1.1-3.95-3.35-6.01-5-2.05-1.65-4.53-3.68-5.5-4.5-0.98-0.83-3.45-2.85-5.5-4.5-2.05-1.65-5.37-3.98-7.36-5.18-2-1.2-6.45-3.56-9.89-5.25-3.44-1.69-7.04-3.08-8-3.09-0.96-0.02-3.33 0.62-5.25 1.41-1.93 0.8-4.71 2.72-6.19 4.28-1.47 1.56-3.16 4.07-3.75 5.58-0.58 1.51-1.28 3.99-1.55 5.5-0.27 1.51-0.95 5.22-1.51 8.25-0.56 3.02-0.79 9.77-0.52 15 0.26 5.22 0.77 14 1.11 19.5 0.35 5.5 0.76 10.67 0.91 11.5 0.15 0.82 0.6 6.67 0.99 13 0.39 6.32 0.72 11.72 0.73 12 0.01 0.27-0.02 1.17-0.06 2-0.04 0.82-2.01 2.85-4.37 4.5-2.36 1.65-4.52 3.22-4.79 3.5-0.28 0.28-1.63 1-3 1.62-1.38 0.61-3.63 1.56-5 2.11-1.38 0.55-3.63 1.43-5 1.95-1.38 0.52-5.58 2.49-9.35 4.38-3.77 1.89-8.46 5.01-10.43 6.94-1.96 1.92-4.17 4.96-4.89 6.75-0.73 1.79-1.34 4.71-1.34 6.5-0.01 1.79 1.22 5.72 2.72 8.75 1.51 3.02 5.9 8.83 9.76 12.9 3.87 4.07 9.95 9.28 13.53 11.57 3.57 2.3 9.65 5.65 13.5 7.46 3.85 1.81 9.25 4.12 12 5.13 2.75 1.02 8.37 2.78 12.5 3.93 4.12 1.15 9.07 2.31 11 2.58 1.92 0.26 4.62 0.69 6 0.93 1.37 0.25 5.65 0.8 9.5 1.23 3.85 0.42 14.65 0.69 24 0.6 9.35-0.09 21.05-0.44 26-0.78 4.95-0.33 11.25-0.85 14-1.15 2.75-0.3 8.15-1.15 12-1.89 3.85-0.74 9.02-1.61 11.5-1.94 2.47-0.32 5.85-0.82 7.5-1.11 1.65-0.29 6.82-1.62 11.5-2.96 4.67-1.34 14.57-4.05 22-6.04 7.42-1.98 15.75-4.19 18.5-4.91 2.75-0.72 7.02-2.01 9.5-2.87 2.47-0.86 8.1-2.76 12.5-4.22 4.4-1.46 9.57-3.05 11.5-3.52 1.92-0.48 9.24-2.46 16.25-4.41 7.01-1.94 12.97-3.53 13.25-3.53 0.27 0 0.61-0.03 0.75-0.07 0.14-0.05 1.37-0.28 2.75-0.52 1.37-0.24 3.17-0.73 4-1.09 0.82-0.35 2.17-0.73 3-0.82 0.82-0.1 2.17-0.42 3-0.73 0.82-0.31 4.65-1.36 8.5-2.34 3.85-0.97 7.9-1.88 9-2.01 1.1-0.14 3.35-0.5 5-0.8 1.65-0.31 4.57-0.8 6.5-1.1 1.92-0.29 5.3-0.74 7.5-0.98 2.2-0.25 6.02-0.8 8.5-1.24 2.47-0.44 16.87-0.79 32-0.79 15.12 0.01 29.52 0.38 32 0.83 2.47 0.44 5.62 1.03 7 1.3 1.37 0.26 4.07 0.7 6 0.96 1.92 0.26 4.62 0.76 6 1.12 1.37 0.36 3.17 0.74 4 0.86 0.82 0.12 3.07 0.52 5 0.89 1.92 0.37 3.72 0.83 4 1.03 0.27 0.19 1.62 0.57 3 0.84 1.37 0.28 5.65 1.52 9.5 2.76 3.85 1.25 7.34 2.18 7.75 2.08 0.41-0.1 0.75 0.27 0.75 0.82 0 0.55 0.79 1 1.75 1.01 0.96 0 3.77 0.73 6.25 1.62 2.47 0.9 10.8 4.08 18.5 7.07 7.7 3 16.92 6.76 20.5 8.36 3.57 1.6 6.84 2.91 7.25 2.92 0.41 0.01 4.69 1.87 9.5 4.13 4.81 2.26 9.42 4.51 10.25 4.99 0.82 0.48 9.37 4.82 19 9.64 9.62 4.82 18.06 9.32 18.75 10.01 0.69 0.69 1.92 1.25 2.75 1.25 0.82 0 1.5 0.45 1.5 1 0 0.55 0.56 1 1.25 0.99 0.69 0 4.85 2.09 9.25 4.65 4.4 2.56 8.34 5.26 8.75 6.01 0.41 0.74 1.2 1.35 1.75 1.35 0.55 0 16.86 10.54 36.25 23.42 19.39 12.88 38.4 24.86 42.25 26.62 5.95 2.72 8.12 3.19 14.5 3.15 5.11-0.04 9.25-0.73 13-2.16 3.02-1.16 9.09-4.68 13.49-7.82 4.53-3.24 18.19-15.87 31.58-29.21 12.98-12.93 29.36-30.25 36.39-38.5 7.04-8.25 16.48-19.73 20.98-25.5 4.5-5.78 13.98-18.6 21.07-28.5 7.09-9.9 21.47-30.83 31.94-46.51 10.48-15.68 20.34-31.2 21.93-34.5 1.58-3.29 3.09-7.34 3.35-8.99 0.27-1.65 0-5.48-0.6-8.5-0.6-3.03-2.11-6.81-3.36-8.41-1.25-1.59-9.56-7.67-18.48-13.5-8.91-5.82-26.68-17.04-39.5-24.93-12.81-7.88-39.27-24-58.79-35.82-19.53-11.81-37.08-22.5-39-23.75-1.93-1.25-6.88-4.45-11-7.12-4.13-2.66-12.23-8-18-11.87-5.78-3.86-12.98-8.75-16-10.86-3.03-2.12-10.68-7.49-17-11.96-6.33-4.46-14.02-10.17-17.1-12.69-3.09-2.53-7.36-6-9.5-7.73-2.15-1.72-6.82-5.77-10.38-9-3.56-3.22-9.52-8.9-13.25-12.61-3.72-3.71-9.18-10.01-12.12-14-2.95-3.99-6.28-9.05-7.41-11.25-1.12-2.2-2.58-6.93-3.23-10.5-0.65-3.58-0.92-8.75-0.59-11.5 0.32-2.75 1.91-7.7 3.54-11 2.02-4.09 5.59-8.56 11.25-14.06 4.56-4.44 10.31-9.71 12.79-11.72 2.47-2.01 5.06-3.67 5.75-3.69 0.69-0.02 1.25-0.48 1.25-1.03 0-0.55 0.45-1 1-1 0.55 0 3.36-1.71 6.25-3.81 2.89-2.09 9.3-6.24 14.25-9.22 4.95-2.97 10.35-6.42 12-7.66 1.65-1.24 3.34-2.27 3.75-2.28 0.41-0.02 4.01-1.99 8-4.37 3.99-2.39 8.6-5.02 10.25-5.85 1.65-0.83 5.7-3 9-4.82 3.3-1.83 7.69-4.38 9.75-5.66 2.06-1.28 3.75-2.11 3.75-1.83 0 0.27 1.91-0.79 4.25-2.38 2.34-1.58 4.47-2.82 4.75-2.75 0.27 0.07 2.3-0.97 4.5-2.29 2.2-1.33 7.6-4.38 12-6.78 4.4-2.39 24.42-12.49 44.5-22.44 20.07-9.95 45.05-22.15 55.5-27.11 10.45-4.96 23.95-11.24 30-13.96 6.05-2.71 19.32-8.58 29.5-13.02 10.17-4.45 20.02-9.03 21.89-10.18 1.86-1.15 3.77-2.88 4.25-3.84 0.47-0.96 0.64-2.54 0.38-3.5-0.27-0.96-2.63-3.15-5.25-4.87-2.63-1.71-7.92-4.7-11.77-6.64-3.85-1.93-11.73-5.53-17.5-8-5.78-2.47-16.58-6.64-24-9.28-7.43-2.63-18.45-6.31-24.5-8.17-6.05-1.87-21.35-6.24-34-9.73-12.65-3.49-25.93-7.05-29.5-7.91-3.58-0.86-13.03-3.11-21-5.01-7.98-1.89-15.85-3.71-17.5-4.06-1.65-0.34-4.35-0.81-6-1.05-1.65-0.24-3.9-0.66-5-0.94-1.1-0.28-4.93-1.23-8.5-2.11-3.58-0.88-7.85-1.76-9.5-1.96-1.65-0.19-4.8-0.64-7-0.98-2.2-0.35-4.68-0.88-5.5-1.19-0.83-0.3-3.53-0.72-6-0.93-2.48-0.21-5.63-0.61-7-0.88-1.38-0.28-3.63-0.73-5-1-1.38-0.26-4.75-0.73-7.5-1.03-2.75-0.29-9.28-1.18-14.5-1.96-5.23-0.78-16.25-2.18-24.5-3.11l-15-1.69c-15.5 16.08-48.29 49.55-82.87 84.75-34.59 35.2-84.32 85.37-110.51 111.5-26.2 26.12-52.13 51.28-57.63 55.89-5.49 4.62-12.47 10.07-15.49 12.11-3.03 2.05-7.98 4.98-11 6.51-3.03 1.53-8.65 3.84-12.5 5.15-3.85 1.3-13.08 3.69-20.5 5.3-7.43 1.61-19.58 3.63-27 4.49-7.43 0.86-24.75 2.06-38.5 2.68-14.37 0.64-37.12 0.85-53.5 0.49-15.68-0.34-33.9-1.09-40.5-1.66-6.6-0.56-18.08-1.7-25.5-2.51-7.43-0.82-16.88-1.96-21-2.53-4.13-0.58-13.35-1.94-20.5-3.03-7.15-1.09-17.28-2.89-22.5-3.99-5.23-1.1-14-3.14-19.5-4.54-5.5-1.39-11.58-3.19-13.5-4-1.93-0.81-4.75-2.68-6.27-4.16-2.31-2.25-2.77-3.53-2.74-7.7 0.02-3.23 0.94-6.95 2.6-10.5 1.42-3.03 5.07-9.33 8.12-14 3.05-4.68 8.28-12.33 11.63-17 3.35-4.68 12.6-16.38 20.57-26 7.97-9.63 23.74-26.75 35.04-38.06 12.3-12.3 24.57-23.53 30.55-27.98 5.5-4.08 16.3-11.63 24-16.78 7.7-5.15 21.42-13.76 30.5-19.13 9.07-5.37 22.12-12.92 29-16.78 6.87-3.85 17.45-9.71 23.5-13.02 6.05-3.31 23.15-12.42 38-20.25 14.85-7.82 35.1-18.76 45-24.29 9.9-5.53 21.04-11.78 24.75-13.88 3.71-2.11 6.75-4.06 6.75-4.33 0-0.28-1.69-0.45-3.75-0.39-2.06 0.06-5.78 0.51-8.25 1z"/>
		</g>
	</g>
</svg>