<svg version="1.2" xmlns="http://www.w3.org/2000/svg" viewBox="0 0 848 1178" width="848" height="1178">
	<style>
		.s0 { opacity: .99;fill: #fefefd } 
	</style>
	<g id="icons">
		<path id="-e mythical" class="s0" d="m361.12 2.67c-2.95 1.56-6.2 4.18-7.22 5.83-1.01 1.65-2.57 6.37-3.46 10.5-1.37 6.36-1.45 9.29-0.53 19.25 0.6 6.46 2.23 17.04 3.63 23.5 1.39 6.46 3.83 18.05 5.42 25.75 1.58 7.7 3.59 18.72 4.45 24.5 0.86 5.77 1.58 13.54 1.58 17.25 0.01 3.71-0.5 9.11-1.12 12-0.62 2.89-3.52 11.32-6.43 18.75-2.92 7.42-6.44 18-7.84 23.5-1.39 5.5-2.96 13.6-3.48 18-0.52 4.4-0.78 12.72-0.58 18.5 0.19 5.77 1.04 13.87 1.88 18 0.84 4.12 2.35 10.2 3.36 13.5 1.01 3.3 4.45 10.95 7.65 17 3.19 6.05 7.65 13.7 9.9 17 2.26 3.3 7.27 9.57 11.14 13.93 3.86 4.36 11.31 11.11 16.54 15 5.23 3.89 14.68 10.54 21 14.79 7.78 5.22 15.2 9.2 22.99 12.31 6.32 2.53 15.05 6.48 19.38 8.79 4.34 2.3 9.85 5.87 12.25 7.93 2.57 2.21 4.73 5.09 5.24 7 0.47 1.79 0.72 5.27 0.54 7.75-0.18 2.47-1.27 6.97-2.41 10-1.15 3.02-6.46 11.63-11.79 19.11-5.34 7.49-11.61 17.62-13.93 22.5-2.32 4.89-5.83 13.39-7.79 18.89-1.97 5.5-4.42 12.7-5.44 16-1.03 3.3-2.57 10.27-3.44 15.5-0.86 5.22-2.63 12.65-3.93 16.5-1.3 3.85-5.07 11.72-8.39 17.5-3.31 5.77-10.1 18.37-15.1 28-4.99 9.62-11.41 22.67-14.25 29-2.84 6.32-6.85 16.45-8.93 22.5-2.07 6.05-5.15 15.5-6.85 21-1.7 5.5-3.75 12.92-4.55 16.5-0.81 3.57-1.77 9.2-2.13 12.5-0.36 3.3-0.89 7.12-1.17 8.5-0.29 1.37-0.69 15.32-0.89 31-0.2 15.67-0.38 28.84-0.39 29.25-0.02 0.41-3.29 1.26-7.28 1.89-4.77 0.75-13.07 0.9-24.25 0.44-9.35-0.38-20.15-1.31-24-2.06-3.85-0.75-10.83-2.57-15.5-4.06-4.68-1.48-10.3-3.59-12.5-4.7-2.2-1.1-6.93-4.07-10.5-6.6-3.58-2.53-8.48-6.41-10.89-8.63-2.41-2.22-6.94-7.41-10.05-11.53-3.11-4.13-7.7-10.65-10.2-14.5-2.5-3.85-6.8-11.28-9.55-16.5-2.75-5.23-7.05-14.68-9.54-21-2.5-6.33-5.7-15.1-7.12-19.5-1.41-4.4-4.37-15.2-6.56-24-2.19-8.8-5.12-23.43-6.51-32.5-1.38-9.08-3.42-24.15-4.52-33.5-1.09-9.35-2.26-20.38-2.59-24.5-0.33-4.13-0.78-8.85-0.99-10.5-0.21-1.65-0.84-20.33-1.39-41.5-0.55-21.18-1.27-55.38-1.59-76-0.33-20.63-1.02-44.93-1.53-54-0.53-9.14-2.27-24.31-3.91-34-1.77-10.41-4.65-22.77-7.11-30.5-2.28-7.15-6.71-18.4-9.84-25-3.14-6.6-8-15.83-10.81-20.5-2.8-4.68-8.81-13.45-13.34-19.5-4.52-6.05-11.21-14.35-14.84-18.45-3.64-4.1-10.9-11.78-16.12-17.07-5.23-5.3-15.13-14.29-22-19.99-6.88-5.7-17-13.29-22.5-16.87-5.5-3.57-13.6-8.34-18-10.58-4.4-2.25-11.15-4.86-15-5.8-3.85-0.94-8.91-1.71-11.25-1.72-2.34-0.01-6.16 0.72-8.5 1.63-2.34 0.9-5.72 3.04-7.51 4.75-1.79 1.7-4.23 5.35-5.41 8.1-1.3 3.03-2.33 7.96-2.6 12.5-0.25 4.12 0.04 10.76 0.66 14.75 0.61 3.99 2.96 12.76 5.23 19.5 2.26 6.74 6.09 16.19 8.5 21 2.41 4.81 5.85 10.89 7.64 13.5 1.8 2.61 5.04 7.67 7.21 11.25 2.16 3.57 7.78 11.53 12.48 17.67 4.7 6.14 12.76 16.04 17.91 22 5.15 5.96 13.66 14.88 18.92 19.83 5.26 4.95 15.78 15.19 23.39 22.75 7.61 7.56 15.7 16.11 17.98 19 2.28 2.89 5.14 7.5 6.36 10.25 1.21 2.75 3.61 9.95 5.33 16 1.71 6.05 4.11 15.27 5.33 20.5 2.09 8.97 2.23 12.05 2.46 55 0.14 25.02 0.53 59 0.86 75.5 0.34 16.5 0.84 32.92 1.11 36.5 0.27 3.57 1.61 15.27 2.97 26 1.36 10.72 4.3 27.82 6.51 38 2.22 10.17 5.35 23.67 6.96 30 1.6 6.32 4.9 17.57 7.33 25 2.42 7.42 6.07 17.77 8.1 23 2.03 5.22 4.94 11.52 6.45 14 1.51 2.47 5.17 8.77 8.12 14 2.95 5.22 8.72 14.45 12.82 20.5 4.09 6.05 10.41 14.29 14.04 18.31 3.63 4.02 10.42 10.59 15.1 14.59 4.67 4 10.97 9.03 14 11.18 3.02 2.14 6.62 4.92 8 6.17 1.37 1.25 6.1 4.06 10.5 6.25 4.4 2.18 12.72 5.56 18.5 7.51 5.77 1.95 16.57 4.69 24 6.09 10.45 1.96 17.56 2.61 31.5 2.88 10.64 0.2 22.9-0.19 30-0.97 6.6-0.73 14.7-1.53 18-1.8 3.3-0.26 6.62-0.19 7.38 0.16 0.76 0.34 4.64 4.9 8.61 10.13 3.97 5.22 8.97 11.04 11.11 12.93 2.15 1.89 8.4 6.35 13.9 9.91 5.5 3.56 10.49 6.97 11.09 7.57 0.59 0.6 1.89 2.66 2.88 4.59 1.34 2.6 1.67 4.91 1.29 9-0.27 3.02-1.87 8.65-3.54 12.5-1.67 3.85-4.16 10.37-5.54 14.5-1.38 4.12-3.48 11.32-4.67 16-1.19 4.67-3.96 17.05-6.15 27.5-2.18 10.45-6.16 30.02-8.84 43.5-2.68 13.47-5.62 27.65-6.53 31.5-0.9 3.85-2.97 13.3-4.59 21-1.63 7.7-4.49 24.12-6.38 36.5-1.88 12.37-4 27.45-4.69 33.5-0.7 6.05-1.23 19.32-1.17 29.5 0.06 12.87 0.59 20.94 1.73 26.5 0.9 4.4 2.53 9.8 3.62 12 1.1 2.2 3.23 5.36 4.74 7.02 1.51 1.66 6.35 6.08 10.75 9.81 4.4 3.74 10.7 8.12 14 9.74 4.08 2.01 8.88 3.33 15 4.13 6.92 0.91 10.56 0.9 15.75-0.01 3.71-0.66 9.34-2.35 12.5-3.77 4-1.8 8.04-4.91 13.28-10.25 4.2-4.28 8.94-10.32 10.7-13.67 1.74-3.3 4.11-8.7 5.27-12 1.16-3.3 3-10.28 4.1-15.5 1.09-5.23 4.2-27.05 6.9-48.5 2.7-21.45 5.59-48 6.42-59 0.83-11 1.78-22.7 2.1-26 0.32-3.3 0.84-27.6 1.14-54 0.35-30.15 0.15-54.69-0.54-66-0.61-9.9-1.28-18.9-1.49-20-0.21-1.1-0.66-4.7-1.02-8-0.35-3.3-1.42-11.01-2.37-17.13-1.55-9.9-1.57-11.31-0.24-12.83 0.82-0.93 4.65-2.63 8.5-3.77 5.58-1.64 8.52-1.93 14.5-1.44 4.12 0.34 12.45 1.79 18.5 3.21 6.05 1.42 14.6 3.31 19 4.2 5.5 1.11 13.31 1.61 25 1.6 15.03-0.01 18.73-0.37 32-3.08 8.25-1.69 17.92-3.4 21.5-3.79 3.57-0.4 8.97-0.83 12-0.96 3.02-0.13 7.75 0.34 10.5 1.05 2.75 0.72 5.58 2.12 6.28 3.12 0.71 1 1.7 3.39 2.21 5.32 0.5 1.92 1.17 6.65 1.49 10.5 0.36 4.29-0.16 13.38-1.34 23.5-1.16 9.99-1.91 23.01-1.89 33 0.01 9.07 0.38 21.22 0.82 27 0.44 5.77 1.98 20.4 3.43 32.5 1.44 12.1 3.94 30.1 5.55 40 1.61 9.9 5.42 29.92 8.47 44.5 3.04 14.57 7.53 34.15 9.96 43.5 2.44 9.35 5.6 22.17 7.03 28.5 1.44 6.32 3.95 17.35 5.59 24.5 1.63 7.15 4.15 17.27 5.59 22.5 1.44 5.22 3.81 13.1 5.28 17.5 1.47 4.4 4.05 10.02 5.72 12.5 1.68 2.47 5.25 6.51 7.93 8.96 2.69 2.45 7.58 5.66 10.88 7.15 3.3 1.48 8.7 3.38 12 4.22 3.3 0.83 9.15 1.8 13 2.14 4.5 0.39 10.03 0.08 15.5-0.9 4.94-0.87 11.01-2.79 14.5-4.56 3.3-1.68 8.92-5.23 12.5-7.9 3.57-2.66 9.06-8.16 12.19-12.22 3.14-4.07 6.84-9.87 8.24-12.89 1.4-3.03 3.06-8.43 3.71-12 0.88-4.94 0.88-8.9 0.01-16.5-0.64-5.5-2.01-12.93-3.04-16.5-1.03-3.58-3.78-11.45-6.12-17.5-2.33-6.05-7.52-20.68-11.53-32.5-4.01-11.83-12.24-35.9-18.28-53.5-6.04-17.6-13.01-37.63-15.49-44.5-2.48-6.88-7.3-19.03-10.71-27-3.41-7.98-9.58-21.93-13.72-31-4.14-9.08-9.08-19.88-10.99-24-1.91-4.13-4.37-9.75-5.47-12.5-1.1-2.75-2.23-8.38-2.52-12.5-0.29-4.13-0.09-10.43 0.45-14 0.72-4.83 1.97-8.04 4.87-12.47 2.14-3.29 9.75-12.06 16.9-19.5 7.16-7.44 14.41-15.56 16.12-18.03 1.72-2.48 5.14-8.55 7.61-13.5 2.48-4.95 6.77-14.18 9.55-20.5 2.79-6.33 5.73-14.2 6.56-17.5 0.82-3.3 2.26-10.73 3.2-16.5 0.94-5.78 2.03-15.23 2.42-21 0.39-5.78 0.56-17.25 0.38-25.5-0.18-8.25-1.02-20.4-1.87-27-0.85-6.6-2.67-17.63-4.05-24.5-1.38-6.88-3.4-15.65-4.49-19.5-1.09-3.85-2.92-10.15-4.06-14-1.14-3.85-3.91-11.28-6.16-16.5-2.24-5.23-5.64-12.43-7.54-16-1.91-3.58-5.5-9.88-7.98-14-2.47-4.13-8.71-13.91-13.85-21.75-5.14-7.84-9.32-14.59-9.3-15 0.03-0.41-0.67-1.43-1.55-2.25-0.88-0.83-3.08-5.1-4.9-9.5-1.82-4.4-6.12-15.88-9.56-25.5-3.44-9.63-8.52-22-11.28-27.5-2.77-5.5-8-14.41-11.64-19.8-3.64-5.39-7.94-11.92-9.57-14.5-1.63-2.59-3.98-7.63-5.23-11.2-1.25-3.58-2.28-8.75-2.29-11.5-0.01-3.37 0.8-6.63 2.49-10 1.38-2.75 4.42-6.64 6.75-8.64 2.33-2 10.2-6.61 17.49-10.25 7.29-3.63 13.59-6.63 14-6.65 0.41-0.02 4.18-2.38 8.37-5.25 4.19-2.86 12.07-8.64 17.5-12.84 5.43-4.2 13.67-11.17 18.31-15.5 4.64-4.33 11.32-11.25 14.86-15.37 4.5-5.26 8.16-11.09 12.24-19.5 3.2-6.6 6.74-15.15 7.87-19 1.13-3.85 2.55-10.15 3.14-14 0.6-3.85 1.08-11.28 1.08-16.5 0-5.23-0.52-12.88-1.14-17-0.63-4.13-2.23-11.89-3.56-17.25-1.33-5.36-4.71-15.04-7.5-21.5-2.79-6.46-5.95-15.13-7.01-19.25-1.06-4.13-1.92-9.98-1.91-13 0.01-3.03 0.92-10.68 2.02-17 1.1-6.33 3.59-19.15 5.54-28.5 1.94-9.35 4.64-23.3 5.99-31 1.35-7.7 2.45-17.38 2.44-21.5-0.01-4.13-0.58-9.98-1.27-13-0.69-3.03-2.37-7.2-3.73-9.28-1.63-2.47-4.38-4.69-7.99-6.43-5.35-2.58-5.86-2.63-18.5-2.02-9.97 0.48-16.26 1.44-27 4.12-7.7 1.92-21.2 5.57-30 8.12-8.8 2.54-19.38 5.55-23.5 6.68-4.35 1.19-10.44 2.04-14.5 2.02-3.85-0.02-10.38-0.74-14.5-1.6-4.13-0.87-14.25-3.63-22.5-6.15-8.25-2.52-19.28-5.66-24.5-6.98-5.23-1.32-14.79-3.1-21.25-3.94-6.46-0.85-17.71-1.54-25-1.54-7.29-0.01-18.2 0.66-24.25 1.48-6.05 0.82-17.75 3.28-26 5.48-8.25 2.2-18.83 5.15-23.5 6.55-4.68 1.41-13 3.49-18.5 4.62-7.53 1.55-12.35 1.95-19.5 1.6-7.79-0.38-12.83-1.47-28-6.02-10.18-3.06-24.58-6.94-32-8.63-7.43-1.69-15.08-3.57-17-4.17-1.93-0.61-9.8-1.32-17.5-1.58-13.86-0.48-14.05-0.46-19.38 2.34z"/>
	</g>
</svg>