<svg version="1.2" xmlns="http://www.w3.org/2000/svg" viewBox="0 0 891 1040" width="891" height="1040">
	<style>
		.s0 { fill: #ffffff } 
	</style>
	<g id="icons">
		<path id="-e shadow" class="s0" d="m394.65 0.71c-1.01 0.27-4.16 1.85-7 3.53-2.83 1.67-9.64 6.46-15.13 10.65-5.5 4.19-14.27 11.13-19.5 15.43-5.24 4.31-13.73 11.96-18.89 17-5.15 5.05-11.71 11.88-14.57 15.18-2.87 3.3-7.69 9.37-10.72 13.5-3.04 4.12-7.08 9.97-8.99 13-1.92 3.02-4.63 7.3-6.02 9.5-1.4 2.2-4.58 8.05-7.07 13-2.49 4.95-6.79 15.07-9.57 22.5-2.78 7.42-6.17 17.32-7.52 22-1.36 4.67-3.22 13.45-4.15 19.5-0.93 6.05-1.93 18.87-2.23 28.5-0.4 12.8-0.1 21.66 1.13 33 0.92 8.52 2.61 20 3.75 25.5 1.13 5.5 2.69 12.25 3.45 15 0.76 2.75 4.78 18.27 8.93 34.5 4.15 16.22 8.17 33.77 8.93 39 0.77 5.22 1.69 13.32 2.04 18 0.36 4.67 0.17 13.79-0.43 20.25-0.6 6.46-2.45 17.04-4.11 23.5-1.66 6.46-4.58 15.8-6.48 20.75-1.9 4.95-6.2 13.5-9.55 19-3.35 5.5-7.93 12.47-10.17 15.5-2.24 3.02-6.15 7.45-8.68 9.84-2.53 2.39-6.4 5.4-8.6 6.69-2.2 1.3-6.14 2.83-8.75 3.41-3.12 0.7-6.04 0.73-8.5 0.11-2.08-0.53-5.46-2.64-7.6-4.75-2.24-2.22-5.87-7.97-8.7-13.8-2.68-5.5-6.03-14.05-7.44-19-1.42-4.95-3.72-15.3-5.12-23-1.4-7.7-3.18-15.46-3.97-17.25-0.78-1.79-2.21-3.53-3.17-3.87-0.96-0.34-2.76-0.34-4 0-1.24 0.34-4.43 3.66-7.08 7.37-2.66 3.71-8.73 13.72-13.49 22.25-4.76 8.52-11.73 22.7-15.48 31.5-3.76 8.8-8.48 20.27-10.49 25.5-2 5.22-5.19 14.9-7.08 21.5-1.88 6.6-4.35 16.5-5.48 22-1.12 5.5-2.58 13.6-3.24 18-0.66 4.4-1.2 16.55-1.19 27 0 12.83 0.56 22.57 1.7 30 0.94 6.05 2.56 14.37 3.62 18.5 1.05 4.12 3.44 12.22 5.3 18 1.86 5.77 5.04 14.1 7.07 18.5 2.03 4.4 5.79 11.37 8.35 15.5 2.56 4.12 6.63 10.2 9.05 13.5 2.42 3.3 5.43 8.02 6.68 10.5 1.25 2.47 2.83 6.97 3.51 10 1.05 4.65 1 6.35-0.33 11-0.87 3.02-3.9 8.87-6.74 13-2.83 4.12-6.33 9.75-7.76 12.5-2.04 3.92-2.59 6.4-2.57 11.5 0.02 3.57 0.86 8.97 1.86 12 1 3.02 3.06 7.97 4.59 11 1.52 3.02 5.01 8.65 7.75 12.5 2.75 3.85 10.33 12.81 16.85 19.91 6.52 7.11 14.03 15.43 16.69 18.5 2.67 3.08 5.77 7.39 6.91 9.59 1.87 3.63 1.93 4.31 0.65 7.39-0.79 1.91-2.71 4.04-4.4 4.88-2.29 1.15-5.14 1.38-12 0.96-5.12-0.31-16.76-2.33-27-4.69-9.9-2.29-22.05-5.28-27-6.66-4.95-1.37-16.65-4.98-26-8.01-9.35-3.03-21.28-6.61-26.5-7.96-5.23-1.34-11.64-2.44-14.25-2.43-3.61 0.02-5.27 0.56-6.89 2.27-1.69 1.77-2.02 3-1.54 5.75 0.34 1.92 2.31 6.87 4.37 11 2.07 4.12 8 13.8 13.18 21.5 5.18 7.7 12.62 18.25 16.53 23.45 3.9 5.2 13.62 16.17 21.6 24.38 7.97 8.21 19.45 18.84 25.5 23.63 6.05 4.78 15.05 11.4 20 14.7 4.95 3.3 11.7 7.62 15 9.61 3.3 1.98 10.72 5.83 16.5 8.55 5.77 2.72 14.77 6.54 20 8.49 5.22 1.95 14 4.46 19.5 5.58 5.5 1.13 17.42 2.58 26.5 3.23 12.4 0.9 20.23 0.91 31.5 0.08 8.25-0.61 19.27-2.02 24.5-3.12 5.22-1.1 14.9-3.43 21.5-5.17 10.45-2.77 13.74-3.2 25.5-3.3 10.78-0.09 14.61 0.27 19 1.76 3.02 1.03 9.32 4.45 14 7.61 4.67 3.15 11.2 7.09 14.5 8.74 3.3 1.65 9.6 4.17 14 5.6 4.4 1.43 11.15 3.01 15 3.51 3.85 0.49 10.82 0.97 15.5 1.06 4.67 0.09 14.12-0.3 21-0.86 6.87-0.56 16.55-1.88 21.5-2.93 4.95-1.04 15.3-4 23-6.56 7.7-2.56 20.3-7.75 28-11.53 7.7-3.78 18.27-9.66 23.5-13.06 5.22-3.4 13.96-10.07 19.4-14.82 5.45-4.75 13.49-12.46 17.86-17.13 4.38-4.68 11.25-13.45 15.27-19.5 4.02-6.05 9.62-15.28 12.45-20.5 2.83-5.23 6.65-12.65 8.5-16.5 1.84-3.85 6.04-12.63 9.33-19.5 3.29-6.88 9.53-18.35 13.86-25.5 4.33-7.15 10.41-16.38 13.52-20.5 3.11-4.13 6.47-8.4 7.48-9.51 1.01-1.11 3.62-4.26 5.82-7 2.19-2.74 9.61-11.07 16.5-18.5 6.88-7.43 16.88-18.45 22.23-24.5 5.34-6.04 12.99-15.33 17-20.64 4-5.31 9.53-13.41 12.27-18 2.75-4.59 6.87-12.18 9.17-16.85 2.29-4.68 5.58-12.55 7.3-17.5 1.73-4.95 4.21-13.05 5.53-18 1.31-4.95 2.93-14.18 3.59-20.5 0.75-7.13 0.98-18.15 0.63-29-0.32-9.63-1.28-21.55-2.13-26.5-0.85-4.95-2.69-13.28-4.08-18.5-1.39-5.23-4.38-14.68-6.63-21-2.26-6.33-7.84-19.15-12.41-28.5-4.56-9.35-10.81-20.71-13.88-25.25-3.07-4.54-5.24-8.24-4.83-8.23 0.41 0.01 0.01-0.56-0.88-1.25-0.9-0.7-6.13-6.67-11.62-13.27-5.49-6.6-14.67-16.5-20.39-22-5.73-5.5-15.36-13.88-21.39-18.62-6.03-4.75-16.15-12.13-22.47-16.41-6.33-4.28-17.35-10.63-24.5-14.11-7.15-3.47-14.8-6.53-17-6.79-2.46-0.29-4.77 0.06-6 0.9-1.58 1.07-1.94 2.27-1.71 5.69 0.17 2.39 1.36 8.16 2.66 12.84 1.29 4.67 4.43 14.35 6.96 21.5 2.53 7.15 6.63 19.97 9.1 28.5 2.46 8.52 5.81 21.8 7.42 29.5 1.62 7.7 3.64 18.72 4.5 24.5 0.85 5.77 1.54 16.8 1.53 24.5-0.02 7.7-0.62 17.37-1.35 21.5-0.73 4.12-1.89 8.62-2.59 10-0.7 1.37-2.23 3.52-3.4 4.78-1.32 1.41-3.25 2.26-5.12 2.24-1.65-0.02-5.25-1.32-8-2.89-2.75-1.57-8.55-6.63-12.88-11.24-4.33-4.62-11.29-13.57-15.45-19.89-4.17-6.33-9.7-15.55-12.29-20.5-2.59-4.95-6.04-12.83-7.68-17.5-1.64-4.68-3.91-12.78-5.04-18-1.14-5.23-2.37-14.9-2.73-21.5-0.41-7.35-0.22-15.68 0.5-21.5 0.64-5.23 2.52-16.25 4.17-24.5 1.65-8.25 3.96-21.08 5.13-28.5 1.68-10.71 2.13-18.16 2.17-36 0.03-16.63-0.42-25.5-1.72-34-0.96-6.33-2.9-16-4.31-21.5-1.41-5.5-4.32-14.39-6.46-19.75-2.15-5.36-5.77-13.46-8.04-18-2.27-4.54-6.88-12.27-10.25-17.18-3.36-4.9-8.55-11.65-11.52-15-2.97-3.34-7.02-7.88-9-10.1-1.98-2.22-7.02-6.94-11.19-10.5-4.17-3.56-12.27-9.89-18-14.07-5.73-4.17-15.36-10.89-21.41-14.92-6.05-4.03-16.85-11.48-24-16.56-7.15-5.08-16.44-12.32-20.66-16.08-4.21-3.76-10.25-9.77-13.42-13.34-3.17-3.58-7.46-8.75-9.53-11.5-2.07-2.75-5.81-9.28-8.3-14.5-2.76-5.77-5.48-13.62-6.94-20-1.32-5.78-2.72-14.78-3.1-20-0.38-5.23-0.25-13.33 0.29-18 0.54-4.68 3.05-17.16 5.57-27.75 2.53-10.59 4.59-21.5 4.59-24.25 0-3.11-0.57-5.57-1.5-6.5-0.95-0.95-3.23-1.46-6.25-1.38-2.61 0.06-5.58 0.33-6.6 0.59zm-212.65 166.79c-3.58 0.71-10.33 2.66-15 4.32-4.68 1.66-12.78 4.81-18 6.99-5.23 2.19-16.7 7.43-25.5 11.66-8.8 4.22-20.05 10.18-25 13.23-4.95 3.06-12.49 7.97-16.75 10.93-4.26 2.95-7.98 5.14-8.25 4.87l-0.5-0.5c0.77 0.77-1.36 2.91-4.25 5.24-2.89 2.33-9.93 8.74-15.65 14.25-5.72 5.5-13.53 14.06-17.35 19.01-3.83 4.95-9.32 12.82-12.2 17.5-2.88 4.67-6.6 10.97-8.27 14-1.67 3.02-4.25 8.87-5.73 13-1.48 4.12-3.74 11.77-5.01 17-1.28 5.22-2.88 14.67-3.57 21-1.06 9.79-1 13.51 0.35 25 0.87 7.42 2.69 17.55 4.03 22.5 1.34 4.95 3.87 12.82 5.62 17.5 1.74 4.67 6.62 15.47 10.83 24 4.21 8.52 11.02 21.12 15.12 28 4.11 6.87 9.95 15.87 12.97 20 3.03 4.12 7.33 9.46 9.56 11.86 2.23 2.4 5.4 5.05 7.05 5.88 2.84 1.42 3.11 1.38 5-0.87 1.11-1.3 3.49-7.55 5.3-13.87 1.82-6.33 4.9-16.23 6.86-22 1.95-5.78 5.05-13.65 6.88-17.5 1.83-3.85 5.45-10.15 8.05-14 2.59-3.85 8.75-12.4 13.68-19 5.56-7.42 11.01-16.19 14.3-23 2.93-6.05 6.06-13.93 6.96-17.5 0.89-3.58 1.86-10.1 2.15-14.5 0.29-4.4-0.22-16.78-1.14-27.5-0.92-10.73-1.66-25.35-1.65-32.5 0.02-10.68 0.48-14.79 2.6-23 1.42-5.5 4.18-13.38 6.12-17.5 1.95-4.13 5.17-10.2 7.16-13.5 1.99-3.3 6.82-10.05 10.75-15 3.92-4.95 11.37-13.51 16.55-19.02 5.19-5.51 11.45-12.44 13.93-15.4 2.47-2.96 5.22-6.55 6.1-7.98 0.88-1.43 1.93-3.95 2.34-5.6 0.4-1.65 0.47-4.01 0.14-5.25-0.36-1.41-1.79-2.63-3.83-3.27-1.79-0.56-3.93-0.96-4.75-0.9-0.83 0.06-4.43 0.7-8 1.42zm668.43 567.5c-1.14 0.48-3.25 2.82-4.69 5.19-1.43 2.37-5.31 12.86-8.6 23.31-3.29 10.45-7.59 22.37-9.55 26.5-1.96 4.12-5.96 10.42-8.88 14-2.92 3.57-8.22 8.97-11.78 12-3.56 3.02-9.16 7.44-12.45 9.82-3.29 2.37-14.98 10.25-25.98 17.5-11 7.26-23.38 15.82-27.5 19.03-4.13 3.21-12.4 10.4-18.4 15.99-5.99 5.59-13.76 13.98-17.27 18.66-3.51 4.67-8.8 13.22-11.76 19-2.96 5.77-7.03 15.22-9.04 21-2.01 5.77-5.42 16.91-7.59 24.75-2.17 7.84-4.82 18.41-5.89 23.5-1.08 5.09-2.49 13.07-3.14 17.75-0.71 5.09-0.92 11.91-0.51 17 0.38 4.67 1.49 10.3 2.48 12.5 0.99 2.2 2.43 4.5 3.21 5.12 0.77 0.62 2.98 1.41 4.91 1.77 2.82 0.53 4.86-0.02 10.5-2.85 3.85-1.93 13.56-8.36 21.57-14.28 8.01-5.92 18.36-13.09 23-15.94 4.64-2.85 12.03-6.97 16.43-9.16 4.4-2.19 12.72-5.99 18.5-8.44 5.77-2.45 18.82-7.25 29-10.66 10.17-3.41 21.65-7.79 25.5-9.73 3.85-1.94 10.15-5.61 14-8.15 3.85-2.54 11.53-9.13 17.06-14.65 5.53-5.51 12.25-13.41 14.93-17.53 2.68-4.13 6.79-11.55 9.13-16.5 2.34-4.95 5.65-13.95 7.34-20 1.7-6.05 3.81-16.85 4.69-24 1.14-9.24 1.43-16.9 1-26.5-0.33-7.43-1.1-17.1-1.71-21.5-0.61-4.4-2.64-14.08-4.51-21.5-1.86-7.43-5.23-18.23-7.49-24-2.25-5.78-6.64-15.45-9.76-21.5-3.11-6.05-7.24-12.67-9.17-14.72-1.93-2.04-3.96-3.7-4.51-3.68-0.55 0.01-1.93 0.42-3.07 0.9z"/>
	</g>
</svg>