<svg version="1.2" xmlns="http://www.w3.org/2000/svg" viewBox="0 0 1104 1144" width="1104" height="1144">
	<style>
		.s0 { fill: #ffffff } 
	</style>
	<g id="icons">
		<path id="-e can evolve" fill-rule="evenodd" class="s0" d="m438.5 0.52c4.95 0.21 12.15 1.12 16 2.02 3.85 0.89 10.15 3.08 14 4.86 3.85 1.77 9.59 4.89 12.75 6.91 3.16 2.03 8.95 6.73 12.87 10.44 3.91 3.71 9.14 9.45 11.61 12.75 2.47 3.3 5.96 8.92 7.76 12.5 1.79 3.57 4.4 9.65 5.79 13.5 1.43 3.96 3.04 11.56 3.7 17.5 0.66 5.95 0.88 14.18 0.5 19-0.4 5.06-1.85 12.04-3.58 17.25-1.59 4.81-4.3 11.56-6.02 15-1.71 3.44-5.05 8.95-7.41 12.25-2.37 3.3-7.15 8.77-10.63 12.15-3.49 3.38-9.49 8.23-13.34 10.78-3.85 2.54-10.38 6.02-14.5 7.73-4.13 1.71-11.78 3.99-17 5.08-7.66 1.58-11.83 1.86-21.5 1.41-6.6-0.31-14.7-1.29-18-2.19-3.3-0.89-9.6-3.3-14-5.35-4.4-2.05-10.93-5.7-14.5-8.12-3.58-2.41-8.69-6.44-11.36-8.94-2.67-2.5-7.38-7.93-10.46-12.05-3.08-4.13-7.03-10.65-8.78-14.5-1.75-3.85-4.16-10.38-5.36-14.5-1.34-4.61-2.4-11.74-2.75-18.5-0.34-6.61-0.08-14.39 0.66-19.5 0.68-4.68 2.15-11.2 3.27-14.5 1.12-3.3 4.11-10.04 6.66-14.97 2.94-5.71 7.37-12.08 12.18-17.5 4.16-4.69 10.23-10.43 13.5-12.76 3.27-2.32 9.99-6.24 14.94-8.7 4.95-2.46 11.92-5.21 15.5-6.11 3.57-0.9 9.2-2.02 12.5-2.49 3.3-0.47 10.05-0.67 15-0.45zm341.5 51.98c6.39 0.19 14.16 1.05 17.5 1.95 3.3 0.9 8.92 2.99 12.5 4.65 3.57 1.67 8.97 4.89 12 7.17 3.02 2.27 7.93 6.63 10.9 9.68 2.97 3.05 7.89 9.37 10.92 14.05 3.04 4.67 7.06 11.87 8.94 16 1.89 4.12 4.93 12.22 6.77 18 1.84 5.77 4.26 15.22 5.39 21 1.12 5.77 2.77 15.9 3.65 22.5 0.96 7.2 1.73 21.61 1.93 36 0.24 17.08-0.19 30.2-1.47 45.5-0.99 11.82-2.56 27.35-3.48 34.5-0.93 7.15-2.58 18.17-3.66 24.5-1.09 6.32-2.96 16-4.16 21.5-1.2 5.5-2.19 12.66-2.23 21.82l7 1.44c3.85 0.79 9.25 2.44 12 3.67 2.75 1.22 8.15 4.29 12 6.81 3.85 2.53 8.35 5.81 10 7.3 1.65 1.49 3.9 3.54 5 4.57 1.36 1.27 5.85 2.53 14 3.93 6.6 1.13 18.19 3.62 25.75 5.51 7.56 1.9 20.84 5.97 29.5 9.06 8.66 3.08 20.25 7.39 25.75 9.59 5.5 2.19 15.62 6.85 22.5 10.36 6.87 3.5 18.57 10.37 26 15.25 7.42 4.88 17.28 12.44 21.9 16.78 4.62 4.35 10.98 11.06 14.13 14.91 3.16 3.85 7.87 10.6 10.47 15 2.6 4.4 6.02 11.82 7.59 16.5 1.57 4.67 3.37 12.32 4.01 17 0.68 4.94 0.93 13.32 0.6 20-0.46 9.13-1.22 13.46-3.7 21-1.72 5.22-5.24 13.49-7.82 18.36-2.57 4.88-7.93 13.2-11.9 18.5-3.98 5.3-11.85 14.32-17.5 20.04-5.66 5.71-15.23 14.51-21.28 19.55-6.05 5.04-17.08 13.38-24.5 18.54-7.43 5.15-17.33 11.75-22 14.65-4.68 2.89-12.33 7.48-17 10.18-4.68 2.7-15.7 8.53-24.5 12.95-8.8 4.42-22.53 10.96-30.5 14.53-7.98 3.58-19.68 8.51-26 10.96-6.33 2.46-13.98 5.72-17 7.24-3.03 1.53-7.02 3.96-8.88 5.39-1.85 1.44-3.92 3.73-4.6 5.11-0.67 1.37-2.47 6.1-3.99 10.5-1.53 4.4-5.92 14.97-9.77 23.5-3.85 8.52-8.77 19.32-10.94 24-2.17 4.67-6.24 12.55-9.04 17.5-2.81 4.95-8.86 14.51-13.44 21.25-4.59 6.74-8.34 12.47-8.34 12.75 0 0.27 3.57 9.84 7.93 21.25 4.36 11.41 9.33 25.02 11.05 30.25 1.71 5.22 5.6 18.05 8.63 28.5 3.03 10.45 7.03 26.65 8.89 36 1.86 9.35 4.62 26 6.14 37 2.4 17.32 2.77 23.36 2.81 45 0.05 22.41-0.19 26.14-2.27 36-1.27 6.05-3.45 14.82-4.85 19.5-1.39 4.67-4.16 11.87-6.15 16-2.9 6.03-5.68 9.59-14.15 18.12-8.18 8.24-11.98 11.3-17.03 13.68-3.58 1.68-9.88 4-14 5.14-5.55 1.54-10.49 2.09-19 2.11-6.33 0.02-13.75-0.4-16.5-0.93-2.75-0.53-9.28-2.18-14.5-3.67-5.23-1.49-12.76-4-16.75-5.58-3.99-1.58-13.66-6.08-21.5-10-7.84-3.92-17.85-9.38-22.25-12.14-4.4-2.75-10.93-6.93-14.5-9.28-3.58-2.34-10.55-7.09-15.5-10.54-4.95-3.44-12.15-8.76-16-11.8-3.85-3.05-10.6-8.73-15-12.64-4.4-3.9-12.05-10.65-17-15-4.95-4.34-13.93-12.64-19.96-18.44-6.03-5.79-12.34-11.88-14.02-13.53-1.67-1.65-11.36-11.89-40.02-42.5l-10 9.76c-5.5 5.37-14.5 13.83-20 18.8-5.5 4.98-16.29 13.75-23.99 19.49-7.69 5.75-16.91 12.39-20.5 14.75-3.58 2.37-11.24 6.71-17.01 9.64-5.78 2.93-14.1 6.53-18.5 8.01-4.4 1.47-13.18 4.04-19.5 5.71-7.79 2.04-14.89 3.19-22 3.53-7.56 0.36-12.6 0.05-18-1.11-4.13-0.89-9.75-2.65-12.5-3.91-2.75-1.25-7.7-4.06-10.99-6.23-3.3-2.17-8.25-6.19-11-8.95-2.76-2.75-6.56-7.25-8.46-10-1.89-2.74-6.04-10.39-9.22-16.99-3.57-7.42-6.93-16.39-8.8-23.5-1.67-6.33-3.68-15.33-4.47-20-0.8-4.68-1.67-10.08-1.95-12-0.27-1.93-0.81-7.1-1.19-11.5-0.38-4.4-1.08-8.79-1.55-9.75-0.79-1.58-2.1-1.69-13.62-1.12-8.01 0.39-16.1 0.17-21.75-0.59-4.95-0.67-12.83-2.32-17.5-3.67-4.68-1.35-12.31-4.35-16.97-6.67-4.69-2.32-10.89-6.44-13.86-9.2-2.97-2.75-6.9-7.48-8.73-10.5-1.84-3.03-4.51-8.88-5.93-13-1.72-4.98-2.8-10.69-3.19-17-0.44-6.94-0.14-12.06 1.14-19 0.96-5.23 3.01-13.33 4.56-18 1.55-4.68 4.46-13 6.45-18.5 2-5.5 4.8-12.93 6.23-16.5 1.43-3.58 5.45-11.79 8.95-18.25 3.49-6.46 6.35-12.2 6.35-12.75 0-0.55-0.23-1-0.5-1-0.28 0-8.26-1.62-17.75-3.6-9.49-1.98-24-5.29-32.25-7.35-8.25-2.06-22.43-6.11-31.5-9-9.08-2.9-22.13-7.49-29-10.22-6.88-2.73-17.23-7.05-23-9.61-5.78-2.55-16.35-7.95-23.5-11.99-7.15-4.04-17.95-11.11-24-15.72-6.05-4.6-14.65-12.11-19.11-16.69-4.47-4.58-10.45-11.92-13.3-16.32-2.85-4.4-6.57-11.6-8.26-16-1.69-4.4-3.67-11.38-4.41-15.5-0.74-4.13-1.36-10.43-1.38-14-0.01-3.58 0.41-9.2 0.94-12.5 0.52-3.3 2.15-9.6 3.62-14 1.46-4.4 4.17-11.04 6.03-14.75 1.85-3.71 6.35-11.14 9.99-16.5 3.64-5.36 9.56-12.9 13.16-16.75 3.59-3.85 11.08-11.24 16.63-16.41 5.55-5.18 16.16-13.98 23.59-19.56 7.42-5.58 17.1-12.61 21.5-15.62 4.4-3.01 13.62-8.9 20.5-13.08 6.87-4.19 15.65-9.15 19.5-11.04 3.85-1.88 9.92-5.06 13.5-7.05 3.57-2 15.5-7.87 26.5-13.05 11-5.19 24.72-11.33 30.5-13.65 5.77-2.32 12.85-5.42 15.72-6.88 4.87-2.49 5.18-2.86 4.63-5.66-0.32-1.65-2.59-11.1-5.04-21-2.45-9.9-5.74-24.53-7.31-32.5-1.56-7.98-3.32-18.1-3.9-22.5-0.58-4.4-1.55-12.95-2.16-19-0.61-6.05-1.09-19.33-1.08-29.5 0.01-10.18 0.71-24.58 1.56-32 0.85-7.43 2.82-18.23 4.39-24 1.56-5.78 4.54-13.88 6.63-18 2.08-4.13 5.05-9.3 6.6-11.5 1.56-2.2 4.32-5.59 6.14-7.54 1.83-1.95 5.12-4.93 7.32-6.63 2.2-1.69 7.15-4.66 11-6.6 4.19-2.12 10.41-4.18 15.5-5.14 4.67-0.89 11.2-1.61 14.5-1.61 3.3 0 10.05 0.7 15 1.55 4.95 0.85 12.15 2.48 16 3.62 3.85 1.14 10.37 3.41 14.5 5.04 4.12 1.64 9.07 3.7 11 4.59 1.92 0.88 10.02 5.18 18 9.54 7.97 4.36 19.45 11.16 25.5 15.1 6.05 3.94 17.52 12.06 25.5 18.05 7.97 5.98 18.1 13.82 22.5 17.42 4.4 3.61 11.82 9.9 16.5 13.99 4.67 4.09 15.81 14.34 24.75 22.78 10.16 9.59 16.91 15.24 18 15.08 0.96-0.15 3.17-2.74 4.9-5.75 1.74-3.02 7.14-11.93 12-19.79 4.87-7.87 14.27-22.49 20.89-32.5 6.62-10.01 17.84-26.3 24.94-36.2 7.09-9.9 17.84-24.3 23.9-32 6.06-7.7 13.24-16.7 15.95-20 2.72-3.3 8.11-9.6 11.98-14 3.86-4.4 14.49-15.43 23.61-24.52 9.12-9.09 21.75-20.98 28.08-26.42 6.32-5.44 16.67-13.74 23-18.44 6.32-4.7 16.11-11.37 21.75-14.83 5.64-3.46 14.64-8.52 20-11.24 5.36-2.73 13.8-6.52 18.75-8.42 4.95-1.9 12.6-4.37 17-5.48 4.4-1.11 9.35-2.23 11-2.5 1.65-0.26 8.17-0.33 14.5-0.15zm-56.7 73.75c-3.74 1.04-9.95 3.45-13.8 5.36-3.85 1.9-11.32 6.7-16.59 10.67-5.28 3.97-11.81 9.19-14.5 11.59-2.7 2.4-9.36 8.48-14.79 13.5-5.43 5.02-14.96 14.75-21.17 21.63-6.21 6.87-16.36 18.57-22.54 26-6.19 7.42-16.97 21.15-23.96 30.5-6.99 9.35-21.7 30.5-32.7 47-11 16.5-22.78 34.5-26.17 40l-6.16 10c5.1 0.5 10.97 0.16 16.33-0.43 5.36-0.59 15.71-1.06 23-1.05 7.29 0 18.65 0.45 25.25 1 6.6 0.54 16.05 1.66 21 2.5 4.95 0.83 16.2 3.13 25 5.1 8.8 1.97 17.01 3.99 18.25 4.48 1.24 0.5 5.74 1.12 10 1.38 4.26 0.26 22.82 0.73 41.25 1.02 18.42 0.3 34.62 0.75 36 1 1.37 0.24 7.45 0.53 13.5 0.63 6.05 0.1 11.45-0.06 12-0.36 0.55-0.29 1.32-2.05 1.72-3.9 0.39-1.85 1.82-8.55 3.16-14.87 1.35-6.33 3.4-17.8 4.55-25.5 1.15-7.7 2.29-15.35 2.52-17 0.24-1.65 0.73-6.83 1.11-11.5 0.38-4.68 0.82-8.73 0.99-9 0.16-0.28 0.67-6.8 1.12-14.5 0.46-7.7 0.79-24.8 0.73-38-0.07-16.26-0.64-28.03-1.77-36.5-0.92-6.88-2.56-16.1-3.64-20.5-1.08-4.4-3.15-10.93-4.59-14.5-1.45-3.58-4.1-8.75-5.89-11.5-1.79-2.75-4.78-6.53-6.64-8.4-1.85-1.88-5.85-4.52-8.87-5.87-4.14-1.86-7.59-2.55-14-2.78-4.68-0.17-9.49-0.03-10.7 0.3-1.21 0.33-5.26 1.46-9 2.5zm-433.05 137.05c-1.79 0.94-4.71 2.98-6.5 4.55-1.79 1.56-4.69 5.05-6.46 7.75-1.76 2.69-4.13 7.6-5.26 10.9-1.14 3.3-2.79 10.95-3.68 17-1.19 8.18-1.46 14.84-1.03 26 0.32 8.25 1.27 20.85 2.12 28 0.84 7.15 2.26 17.5 3.15 23 0.89 5.5 2.72 14.72 4.06 20.5 1.34 5.77 2.87 12.19 3.4 14.25 0.57 2.24 1.55 3.75 2.45 3.75 0.82 0 9.26-2.41 18.75-5.35 9.49-2.94 25.57-7.26 35.75-9.61 10.17-2.34 23.45-5.52 29.5-7.08 6.05-1.55 16.62-4.35 23.5-6.22 7.47-2.03 17.94-5.92 26-9.66 7.42-3.44 14.85-7.06 16.5-8.04 1.65-0.98 8.17-4.05 14.5-6.83 6.32-2.77 12.29-5.3 13.25-5.62 1.37-0.46-0.99-3.25-11-12.94-7.01-6.79-15.9-15.28-19.75-18.85-3.85-3.58-11.05-10.08-16-14.46-4.95-4.38-11.93-10.36-15.5-13.3-3.58-2.94-12.8-9.52-20.5-14.62-7.7-5.11-19.63-11.97-26.5-15.27-6.88-3.29-15.2-6.89-18.5-8-3.3-1.11-8.93-2.49-12.5-3.07-3.58-0.59-8.53-1.03-11-0.99-2.48 0.04-6.98 0.63-10 1.3-3.03 0.67-6.96 1.98-8.75 2.91zm237.75 128.78c-6.88 1.09-17.23 3.14-23 4.55-5.78 1.41-14.78 3.92-20 5.58-5.23 1.65-17.15 6.7-26.5 11.21-9.98 4.82-22.58 11.94-30.5 17.23-7.43 4.97-16.88 11.83-21 15.26-4.13 3.43-12 11.05-17.5 16.93-5.5 5.89-11.86 12.94-14.14 15.68-2.28 2.74-8.05 10.83-12.82 17.98-4.78 7.15-12.17 19.97-16.43 28.5-4.26 8.52-9.39 20.67-11.4 27-2.02 6.32-5 17.57-6.64 25-1.64 7.42-3.52 18.67-4.17 25-0.74 7.19-0.97 18.62-0.6 30.5 0.32 10.45 1.26 23.27 2.09 28.5 0.83 5.22 2.63 14.22 4 20 1.37 5.77 4.37 15.9 6.68 22.5 2.3 6.6 7.01 17.85 10.45 25 3.45 7.15 9.28 17.5 12.97 23 3.68 5.5 10.14 14.24 14.35 19.43 4.21 5.19 12.61 14.26 18.66 20.15 6.05 5.9 13.47 12.82 16.5 15.39 3.02 2.56 10.67 8.15 17 12.43 6.32 4.28 15.77 10.07 21 12.87 5.22 2.8 13.77 6.96 19 9.25 5.22 2.29 12.87 5.27 17 6.63 4.12 1.35 11.77 3.57 17 4.94 5.22 1.36 16.25 3.58 24.5 4.94 8.25 1.35 17.36 2.46 20.25 2.46 4.44 0.01 5.65-0.41 7.83-2.74 1.42-1.51 6.48-8.28 11.25-15.04 4.77-6.77 11.27-15.99 14.44-20.5 3.18-4.52 7.99-11.59 10.69-15.71 2.7-4.13 4.69-7.73 4.42-8-0.28-0.28-6.89 0.15-14.69 0.94-11.47 1.16-16.59 1.22-26.69 0.29-6.88-0.63-15.88-1.85-20-2.71-4.13-0.86-12.45-3.19-18.5-5.17-6.05-1.99-15.05-5.51-20-7.83-4.95-2.31-14.63-7.96-21.5-12.56-9.18-6.13-15.7-11.55-24.55-20.4-6.63-6.64-15.11-16.34-18.85-21.56-3.74-5.23-9.63-15.35-13.09-22.5-3.46-7.15-7.67-17.05-9.34-22-1.67-4.95-4.05-13.73-5.29-19.5-1.92-8.97-2.25-13.62-2.29-32-0.04-18.55 0.27-23.08 2.25-33 1.26-6.33 3.64-15.55 5.29-20.5 1.65-4.95 6.1-15.3 9.89-23 3.79-7.7 9.95-18.27 13.68-23.5 3.74-5.22 10.62-13.35 15.3-18.07 4.67-4.72 11.65-11.07 15.5-14.11 3.85-3.04 10.82-7.98 15.5-10.98 4.67-3 13-7.54 18.5-10.08 5.5-2.55 14.05-5.98 19-7.64 4.95-1.65 13.72-4.02 19.5-5.26 9.06-1.96 13.45-2.27 32-2.27 18.08-0.01 23.25 0.33 32.5 2.17 6.05 1.2 14.6 3.37 19 4.84 4.4 1.46 12.39 4.62 17.75 7.03 5.36 2.4 13.46 6.67 18 9.49 4.54 2.81 10.95 7.17 14.25 9.68 3.3 2.51 10.95 9.56 17 15.67 6.05 6.11 12.89 13.56 15.2 16.57 2.31 3 7.14 10.41 10.73 16.46l6.52 11c2.17-5.43 4.17-10.83 5.84-15.5 1.67-4.68 5.82-17.05 9.21-27.5 3.39-10.45 7.93-24.85 10.09-32 2.16-7.15 3.92-13.79 3.92-14.75-0.01-0.96-3.72-5.49-8.26-10.06-4.54-4.58-12.08-11.35-16.75-15.06-4.68-3.71-12.1-9.13-16.5-12.05-4.4-2.92-10.7-6.91-14-8.88-3.3-1.96-11.63-6.24-18.5-9.49-6.88-3.26-15.65-7.06-19.5-8.45-3.85-1.39-11.95-3.92-18-5.64-6.05-1.71-17.75-4.28-26-5.69-12.37-2.13-18.94-2.64-37.5-2.91-12.38-0.19-24.08-0.13-26 0.12-1.93 0.24-9.13 1.34-16 2.44zm225.29 8.18l8.21 5.76c2.56-8.15 3.01-10.8 2.65-11.15-0.36-0.35-4.87-0.85-10.03-1.13-5.16-0.27-9.31-0.21-9.21 0.14 0.09 0.34 3.87 3.21 8.38 6.38zm82.86 14.12c-1.29 1.16-3.39 3.92-4.67 6.12-1.28 2.2-3.26 6.81-4.4 10.25-1.15 3.44-3.03 10.41-4.19 15.5-1.23 5.37-2.1 12.61-2.08 17.25 0.01 5.59 0.64 9.65 2.09 13.5 1.14 3.02 4.1 8.99 6.58 13.25 2.49 4.26 4.97 7.75 5.52 7.75 0.55 0 2.97-2.36 5.38-5.25 2.41-2.89 6.17-8.18 8.35-11.75 2.18-3.58 5.44-9.43 7.24-13 1.8-3.58 4.16-9.88 5.24-14 1.18-4.51 1.98-10.89 2.01-16 0.02-4.68-0.45-10.3-1.04-12.5-0.6-2.2-2.46-5.91-4.13-8.25-1.68-2.34-4.63-4.93-6.55-5.75-1.93-0.83-4.29-1.46-5.25-1.42-0.96 0.04-3.1 0.55-4.75 1.13-1.65 0.57-4.06 2-5.35 3.17zm89.39 16.12c0.38 4.38 0.03 10.56-0.92 16.5-0.84 5.22-3.39 15.57-5.67 23-2.28 7.42-6.39 18.45-9.13 24.5-2.74 6.05-7.95 15.95-11.58 22-3.63 6.05-11.33 18.2-17.11 27-5.78 8.8-11.44 18.16-12.57 20.79l-2.06 4.79c4.22 25.13 6.02 37.49 6.72 43.68 0.71 6.19 1.73 11.24 2.28 11.22 0.55-0.02 8.65-3.66 18-8.09 9.35-4.43 24.65-12.39 34-17.68 9.35-5.29 21.95-12.96 28-17.04 6.05-4.09 16.17-11.59 22.5-16.67 6.32-5.08 15.28-13.23 19.9-18.12 4.62-4.88 10.08-11.36 12.13-14.38 2.05-3.03 5.09-8.2 6.77-11.5 1.67-3.3 3.82-8.7 4.78-12 1.06-3.65 1.76-9.52 1.79-15 0.03-8.24-0.25-9.59-3.36-16-1.88-3.85-5.97-10.38-9.1-14.5-3.14-4.13-8.56-9.77-12.06-12.54-3.49-2.77-9.95-7.55-14.35-10.63-4.4-3.07-11.15-7.15-15-9.07-3.85-1.92-11.28-5.17-16.5-7.23-5.23-2.05-12.65-4.53-16.5-5.5-3.85-0.96-8.27-2.06-9.83-2.43-2.82-0.68-2.82-0.68-2.28 3.61 0.3 2.36 0.82 7.44 1.15 11.29zm-615.8 18.15c-3.17 2.67-7.78 7.32-10.24 10.35-3.22 3.94-4.32 6.07-3.89 7.5 0.34 1.1 2.38 6.72 4.55 12.5 2.16 5.77 4.14 10.61 4.39 10.75 0.25 0.14 1.24-0.49 2.2-1.4 0.96-0.91 5.08-4.17 9.15-7.25 4.07-3.08 9.19-7.85 11.38-10.6 2.19-2.75 5.5-8.15 7.36-12 1.85-3.85 3.37-8.01 3.37-9.25-0.01-1.24-1.02-3.2-2.26-4.37-1.24-1.16-3.71-2.74-5.5-3.5-1.79-0.76-4.04-1.37-5-1.36-0.96 0.01-3.55 0.87-5.75 1.9-2.2 1.03-6.59 4.06-9.76 6.73zm-115.24 48.81c-7.15 3.56-18.18 9.33-24.5 12.82-6.33 3.49-18.7 11.01-27.5 16.72-8.8 5.7-20.28 13.82-25.5 18.03-5.23 4.22-13.33 11.68-18 16.58-4.68 4.9-10.6 11.83-13.17 15.4-2.57 3.57-6.5 10.31-8.75 14.99-2.25 4.67-4.74 11.87-5.54 16-1.08 5.54-1.22 9.07-0.53 13.5 0.51 3.3 1.64 8.02 2.51 10.5 0.86 2.47 2.76 6.52 4.21 9 1.45 2.47 5.14 7.13 8.2 10.35 3.06 3.22 8.72 8.22 12.57 11.1 3.85 2.89 10.6 7.33 15 9.87 4.4 2.54 14.07 7.04 21.5 10 7.42 2.96 20.47 7.45 29 9.97 8.52 2.53 19.1 5.5 23.5 6.61 4.4 1.1 13.85 3.13 21 4.51 7.15 1.37 19.07 3.38 26.5 4.46 7.42 1.09 16.65 2.25 20.5 2.59 3.85 0.34 9.47 0.88 12.5 1.2 5.42 0.56 5.49 0.54 4.79-1.79-0.39-1.31-1.42-5.97-2.27-10.37-0.86-4.4-2.23-12.28-3.05-17.5-0.83-5.23-1.78-18.05-2.12-28.5-0.39-11.85-0.19-23.51 0.54-31 0.64-6.6 2.54-19.43 4.22-28.5 1.67-9.08 3.3-17.85 3.61-19.5 0.31-1.68-0.21-5.42-1.19-8.5-0.96-3.03-4.34-11.58-7.52-19-3.17-7.43-8.02-19.58-10.77-27-2.75-7.43-7.08-19.91-9.62-27.75-2.54-7.84-4.96-14.21-5.37-14.16-0.41 0.06-7.73 2.98-16.25 6.49-8.53 3.52-21.35 9.31-28.5 12.88zm578.95 105.54c-3.97 9.07-9.71 22.12-12.76 29-3.04 6.87-7.32 16.32-9.49 21-2.18 4.67-8.27 17.27-13.53 28-5.26 10.72-13.55 27.15-18.43 36.5-4.87 9.35-10.01 18.8-11.41 21-1.4 2.2-4.01 6.92-5.81 10.5-1.79 3.57-6.75 12.35-11.01 19.5-4.26 7.15-10.8 18.17-14.53 24.5-3.73 6.32-9.35 15.55-12.49 20.5-3.14 4.95-8.66 13.72-12.26 19.5-3.6 5.77-6.93 11.36-7.39 12.41-0.77 1.76-0.55 1.85 2.66 1.1 1.92-0.45 7.32-2.37 12-4.26 4.67-1.89 13.9-6.07 20.5-9.28 6.6-3.21 16.27-8.65 21.5-12.09 5.22-3.44 13.55-9.47 18.5-13.4 4.95-3.93 12.78-10.7 17.4-15.06 4.62-4.36 11.96-12.2 16.31-17.42 4.35-5.23 10.23-12.88 13.07-17 2.84-4.13 7.88-12.23 11.2-18 3.32-5.78 8.91-17.7 12.43-26.5 3.52-8.8 7.87-21.85 9.67-29 1.8-7.15 3.94-17.28 4.77-22.5 0.83-5.23 1.79-12.2 2.13-15.5 0.35-3.3 0.66-12.98 0.69-21.5 0.04-8.53-0.64-21.35-1.52-28.5-0.88-7.15-2.51-17.28-3.63-22.5-1.12-5.23-2.93-12.54-4.02-16.25-1.1-3.71-2.34-6.74-2.75-6.73-0.41 0.02-3.86 8-7.67 17.75-3.8 9.75-10.16 25.15-14.13 34.23zm-511.66 186.62c-1.99 3.24-6.41 11.5-9.83 18.38-3.41 6.87-7.5 16.32-9.09 21-1.58 4.67-3.36 12.32-3.94 17-0.59 4.67-0.78 10.97-0.43 14 0.36 3.02 1.77 7.97 3.14 11 1.38 3.02 3.97 7.3 5.76 9.5 1.8 2.2 5.48 5.42 8.18 7.16 2.71 1.74 8.07 4.14 11.92 5.34 4.23 1.32 11.25 2.44 17.76 2.84l10.75 0.66c0.03-8.53 0.29-13.48 0.59-16.5 0.31-3.03 1.18-10.9 1.95-17.5 0.76-6.6 2.54-21.45 3.95-33 1.41-11.55 2.61-22.8 2.65-25 0.06-2.52-1.04-6.4-2.97-10.5l-3.05-6.5c-14.44-2.03-22.03-2.87-26.18-3.19l-7.56-0.56zm71.25 62.12c-1.12 2.89-2.03 7.39-2.04 10 0 2.62 0.7 7.45 1.57 10.75 0.86 3.3 2.77 8.17 4.25 10.82 1.88 3.35 3.9 5.39 6.69 6.73 2.72 1.31 6.17 1.93 10.75 1.94 4.4 0.01 8.02-0.6 10.39-1.74 2-0.96 4.93-3.55 6.51-5.75 2.28-3.16 2.87-5.05 2.84-9-0.02-2.87-0.92-6.91-2.11-9.5-1.14-2.47-4.85-7.35-8.23-10.85-3.38-3.49-7.95-7.43-10.15-8.75-2.24-1.35-6.42-2.67-9.5-3.01-4.58-0.51-5.79-0.3-7.22 1.25-0.95 1.03-2.64 4.23-3.75 7.11zm437.95 24.92c-4.11 3.21-9.96 7.69-12.98 9.95-3.03 2.27-12.25 8.4-20.5 13.62-8.25 5.22-21.3 12.65-29 16.5-7.7 3.86-18.5 8.69-24 10.74-5.5 2.06-15.85 5.73-23 8.17-7.15 2.43-17.05 5.48-22 6.77-4.95 1.3-14.06 3.08-20.25 3.97-6.19 0.89-11.25 1.95-11.25 2.36-0.01 0.42 6.18 6.86 13.74 14.32 7.57 7.46 16.91 16.43 20.76 19.94 3.85 3.51 16 13.56 27 22.35 11 8.78 25.17 19.36 31.5 23.5 6.32 4.14 15.1 9.73 19.5 12.42 4.4 2.69 12.5 7.08 18 9.76 5.5 2.69 13.6 5.8 18 6.93 5.37 1.38 11.12 2.05 17.5 2.03 7.8-0.01 10.39-0.43 14.5-2.33 2.75-1.28 6.29-3.86 7.87-5.74 1.59-1.89 4-5.68 5.37-8.43 1.37-2.75 3.37-8.37 4.45-12.5 1.41-5.37 2.06-11.75 2.3-22.5 0.27-11.49-0.18-18.97-1.92-32-1.25-9.35-3.96-24.2-6.03-33-2.07-8.8-5.31-21.4-7.2-28-1.9-6.6-5.46-18.3-7.91-26-2.45-7.7-5.02-15.05-5.71-16.33l-1.25-2.33zm-412.48 52.74c-4.4 0.95-10.14 2.37-12.75 3.16-3.3 0.99-4.76 1.97-4.77 3.18-0.01 0.96 0.86 6.03 1.92 11.25 1.06 5.23 2.9 12.43 4.09 16 1.2 3.58 3.57 8.98 5.28 12 1.71 3.03 5.84 8.25 9.17 11.6 3.33 3.36 8.42 7.29 11.31 8.75 2.88 1.46 8.28 3.16 12 3.78 5.56 0.92 8.15 0.83 14.75-0.51 5.22-1.06 12.15-3.64 20-7.43 6.6-3.19 15.37-7.97 19.5-10.63 4.12-2.65 11.55-8.1 16.5-12.1 4.95-4.01 13.72-12.06 19.5-17.9 8.45-8.55 10.2-10.8 9-11.57-0.83-0.53-3.75-1.7-6.5-2.61-2.75-0.91-10.4-3.77-17-6.37-6.6-2.59-18.3-7.92-26-11.85-7.7-3.92-15.13-7.14-16.5-7.15-1.38-0.01-13.53 3.74-27 8.33-13.48 4.6-28.1 9.13-32.5 10.07zm-289-84.77c4.4 0.22 10.81 1.06 14.25 1.88 3.43 0.81 9.06 2.88 12.5 4.58 3.43 1.71 8.49 4.97 11.23 7.25 2.75 2.28 7.02 6.31 9.5 8.94 2.49 2.64 6.22 7.59 8.31 11 2.09 3.42 4.79 9.36 6 13.21 1.8 5.72 2.2 9.37 2.2 20 0 10.99-0.37 14.08-2.35 20-1.29 3.85-3.2 8.8-4.24 11-1.05 2.2-4.26 7.14-7.15 10.97-2.89 3.83-7.95 9.15-11.25 11.82-3.3 2.66-9.15 6.38-13 8.25-3.85 1.88-10.38 4.15-14.5 5.04-5.32 1.15-10.27 1.47-17 1.1-6.42-0.35-12.1-1.37-17.5-3.16-4.4-1.45-11.38-4.84-15.5-7.54-4.13-2.69-9.12-6.6-11.09-8.69-1.97-2.08-5.19-6.04-7.17-8.79-1.97-2.75-4.97-7.92-6.65-11.5-1.69-3.57-3.75-9.65-4.57-13.5-0.82-3.85-1.5-10.82-1.51-15.5-0.01-4.67 0.66-11.2 1.49-14.5 0.83-3.3 2.27-7.8 3.2-10 0.92-2.2 3.73-7.11 6.24-10.91 2.5-3.8 7.93-10.04 12.06-13.87q7.49-6.97 15.5-10.87c4.68-2.29 11.1-4.47 15.5-5.26 4.12-0.74 11.1-1.17 15.5-0.95zm825-61.92c2.75 0.26 6.8 0.92 9 1.47 2.2 0.55 6.19 2.19 8.88 3.65 2.69 1.46 7.36 5.36 10.39 8.66 3.02 3.3 6.5 8.03 7.73 10.5 1.22 2.48 2.79 6.98 3.49 10 0.71 3.04 1.09 8.86 0.86 13-0.33 6.08-1.1 8.92-4.06 15-2.01 4.13-5.71 9.64-8.23 12.25-2.51 2.61-6.25 5.6-8.31 6.63-2.07 1.04-6 2.65-8.75 3.58-2.89 0.98-8.17 1.71-12.5 1.73-4.13 0.01-9.53-0.52-12-1.19-2.48-0.67-6.98-2.46-10-3.98-3.05-1.52-7.74-5.18-10.5-8.17-2.75-2.98-5.76-6.97-6.69-8.88-0.93-1.91-2.4-6.17-3.26-9.47-0.86-3.3-1.57-8.92-1.57-12.5 0-3.57 0.71-8.97 1.59-12 0.88-3.02 3.02-7.71 4.76-10.42 1.74-2.7 5.19-6.7 7.67-8.89 2.47-2.18 7.2-5.26 10.5-6.84 3.3-1.59 8.25-3.27 11-3.75 2.75-0.47 7.25-0.65 10-0.38z"/>
	</g>
</svg>