<svg version="1.2" xmlns="http://www.w3.org/2000/svg" viewBox="0 0 1434 1346" width="1434" height="1346">
	<defs>
		<clipPath clipPathUnits="userSpaceOnUse" id="cp1">
			<path d="m657-336.94c-5.78 0.43-14.33 1.06-19 1.4-4.68 0.35-17.28 1.52-28 2.61-10.73 1.09-24.68 2.68-31 3.53-6.33 0.85-18.48 2.63-27 3.95-8.53 1.32-25.63 4.46-38 6.99-12.38 2.52-27 5.69-32.5 7.04-5.5 1.36-17.65 4.51-27 7.01-9.35 2.5-23.3 6.36-31 8.57-7.7 2.22-18.5 5.6-24 7.52-5.5 1.93-12.03 4.11-14.5 4.87-2.48 0.76-9.23 3.15-15 5.32-5.78 2.17-20.18 7.76-32 12.42-11.83 4.65-27.8 11.26-35.5 14.67-7.7 3.41-26.6 12.44-42 20.08-15.4 7.63-34.39 17.61-42.2 22.17-7.82 4.56-17.94 10.44-22.5 13.07-4.57 2.62-12.44 7.35-17.49 10.5-5.06 3.14-15.54 9.77-23.3 14.72-7.76 4.95-20.94 13.89-29.31 19.87-8.36 5.98-21.73 15.84-29.7 21.91-7.98 6.07-14.73 11.33-15 11.68-0.28 0.36-5 4.18-10.5 8.51-5.5 4.32-11.59 9.25-13.52 10.95-1.94 1.69-5.72 4.88-8.39 7.08-2.68 2.2-6.09 5.12-7.59 6.5-1.5 1.37-6.95 6.31-12.11 10.96-5.17 4.65-14.99 13.88-21.83 20.5-6.85 6.62-14.9 14.51-17.89 17.54-3 3.02-11.8 12.25-19.56 20.51-7.76 8.26-19.51 21.25-26.11 28.87-6.6 7.63-17.79 21.12-24.88 29.99-7.08 8.87-17.24 21.98-22.59 29.13-5.34 7.15-17.59 24.7-27.22 39-9.62 14.3-22.91 35-29.53 46-6.62 11-15.49 26.3-19.7 34-4.22 7.7-13.67 26.15-21.01 41-7.35 14.85-16.83 34.88-21.09 44.5-4.25 9.62-10.2 23.8-13.21 31.5-3.02 7.7-7.06 18.27-8.98 23.5-1.92 5.22-6.61 18.72-10.42 30-3.81 11.27-8.23 25-9.83 30.5-1.6 5.5-4.56 16.3-6.58 24-2.01 7.7-5.83 23-8.47 34-2.65 11-6.42 28.55-8.39 39-1.96 10.45-4.67 26.42-6.03 35.5-1.36 9.07-3.59 26.17-4.97 38-1.38 11.82-3.32 32.07-4.3 45-1.42 18.56-1.8 34.96-1.8 78 0 34.6 0.47 60.89 1.28 72 0.71 9.62 1.48 19.3 1.71 21.5 0.24 2.2 0.93 8.95 1.54 15 0.61 6.05 2.22 19.55 3.58 30 1.35 10.45 3.37 24.4 4.47 31 1.11 6.6 4.07 22.12 6.57 34.5 2.51 12.37 6.5 30.37 8.88 40 2.38 9.62 6.65 26.05 9.49 36.5 2.84 10.45 8.67 29.57 12.96 42.5 4.29 12.92 9.69 28.45 12 34.5 2.31 6.05 7.28 18.65 11.03 28 3.76 9.35 8.83 21.5 11.27 27 2.44 5.5 7.22 15.85 10.63 23 3.41 7.15 9.6 19.75 13.76 28 4.15 8.25 9.39 18.37 11.63 22.5 2.24 4.12 6.24 11.21 8.89 15.75 2.64 4.54 4.81 8.47 4.81 8.75 0 0.27 4.43 7.81 9.85 16.75 5.42 8.94 11.38 18.72 13.25 21.75 1.87 3.02 3.74 5.61 4.15 5.75 0.41 0.14 0.75 0.7 0.75 1.25 0 0.55 3.47 6.29 7.72 12.75 4.24 6.46 11.53 17.15 16.21 23.75 4.67 6.6 11.41 15.82 14.98 20.5 3.56 4.67 7.63 9.91 9.04 11.63 1.4 1.73 3.67 4.63 5.05 6.46 1.37 1.83 7.16 8.97 12.85 15.87 5.7 6.9 12.22 14.77 14.5 17.5 2.28 2.73 9.77 11.28 16.64 19 6.88 7.72 22.63 24.2 35 36.61 12.38 12.41 27.23 27.05 33.01 32.52 5.77 5.47 16.57 15.16 24 21.54 7.42 6.37 19.41 16.26 26.63 21.98 7.21 5.71 17.11 13.43 22 17.15 4.88 3.71 12.92 9.75 17.87 13.43 4.95 3.67 18.45 13.05 30 20.84 11.55 7.79 29.1 19.05 39 25.02 9.9 5.97 20.92 12.5 24.5 14.51 3.57 2.01 12.35 6.93 19.5 10.94 7.15 4.01 25.6 13.47 41 21.01 15.4 7.55 36.1 17.21 46 21.46 9.9 4.25 23.62 9.98 30.5 12.73 6.87 2.75 19.7 7.61 28.5 10.79 8.8 3.19 27.02 9.18 40.5 13.31 13.47 4.13 27.2 8.28 30.5 9.22 3.3 0.93 8.47 2.35 11.5 3.15 3.02 0.8 10.67 2.78 17 4.4 6.32 1.62 17.8 4.28 25.5 5.9 7.7 1.62 21.42 4.31 30.5 5.97 9.07 1.66 23.7 4.13 32.5 5.5 8.8 1.36 20.05 2.95 25 3.52 4.95 0.58 10.8 1.26 13 1.51 2.2 0.26 10.75 1.16 19 2.01 8.25 0.85 23.55 2.04 34 2.64 10.45 0.6 36.55 1.32 58 1.6 24.05 0.32 48.01 0.06 62.5-0.67 12.92-0.66 33.17-2.07 45-3.14 11.82-1.06 26.67-2.64 33-3.52 6.32-0.87 21.17-3.14 33-5.04 11.82-1.91 31.85-5.45 44.5-7.88 12.65-2.43 28.4-5.8 35-7.49 6.6-1.69 20.1-5.34 30-8.12 9.9-2.77 24.52-7.01 32.5-9.4 7.97-2.4 19.67-6.15 26-8.33 6.32-2.18 18.25-6.52 26.5-9.65 8.25-3.13 21.52-8.32 29.5-11.53 7.97-3.22 20.57-8.5 28-11.75 7.42-3.24 26.1-12.1 41.5-19.7 15.4-7.59 35.42-18.07 44.5-23.29 9.07-5.21 20.32-11.76 25-14.54 4.67-2.79 15.47-9.54 24-15.02 8.52-5.47 21.57-13.99 29-18.93 7.42-4.93 17.55-11.94 22.5-15.57 4.95-3.62 16.87-12.68 26.5-20.11 9.62-7.44 18.85-14.71 20.5-16.15 1.65-1.44 9.75-8.39 18-15.45 8.25-7.06 15.49-13.31 16.1-13.89 0.6-0.58 5.54-5.1 10.98-10.05 5.45-4.95 13.05-11.93 16.91-15.5 3.86-3.58 15.89-15.73 26.74-27 10.85-11.28 20.97-22.03 22.5-23.9 1.52-1.86 4.05-4.79 5.62-6.5 1.57-1.7 4.5-4.9 6.5-7.11 2.01-2.2 6.28-7.15 9.49-11 3.21-3.84 6.59-7.9 7.5-9.01 0.91-1.12 4.13-4.94 7.16-8.5 3.02-3.57 5.95-7.03 6.5-7.7 0.55-0.66 1.47-1.79 2.03-2.5 0.57-0.7 3.95-5.06 7.5-9.68 3.56-4.62 9.82-12.94 13.91-18.5 4.09-5.55 9.64-13.25 12.34-17.1 2.69-3.85 9.49-13.98 15.11-22.5 5.61-8.53 12.84-19.78 16.05-25 3.22-5.23 6.84-11.08 8.05-13 1.21-1.93 4-6.65 6.2-10.5 2.21-3.85 5.94-10.38 8.3-14.5 2.36-4.13 5.07-8.63 6.02-10 0.95-1.38 8.89-16.9 17.64-34.5 8.76-17.6 18.33-37.63 21.26-44.5 2.93-6.88 6.9-16.1 8.81-20.5 1.91-4.4 7.41-18.35 12.24-31 4.82-12.65 11.04-29.75 13.81-38 2.77-8.25 6.42-19.5 8.1-25 1.69-5.5 5.61-19.45 8.72-31 3.11-11.55 6.5-24.38 7.54-28.5 1.03-4.13 3.46-15.15 5.4-24.5 1.94-9.35 4.44-22.18 5.55-28.5 1.12-6.33 3.16-18.25 4.53-26.5 1.37-8.25 3.56-24.9 4.86-37 1.3-12.1 2.63-24.81 2.95-28.25 0.32-3.44 0.79-8.84 1.05-12 0.26-3.16 0.97-12.73 1.59-21.25 0.72-9.99 0.97-35.57 0.68-72-0.24-31.08-0.93-62.58-1.53-70-0.6-7.43-1.58-18-2.17-23.5-0.59-5.5-1.97-17.65-3.06-27-1.09-9.35-2.93-23.08-4.08-30.5-1.16-7.43-3.66-22.05-5.56-32.5-1.91-10.45-4.14-22.38-4.95-26.5-0.82-4.13-2.62-12.45-4.01-18.5-1.38-6.05-3.57-14.83-4.87-19.5-1.3-4.68-4.01-14.58-6.02-22-2.02-7.43-4.8-17.1-6.18-21.5-1.38-4.4-4.54-14.3-7.01-22-2.47-7.7-5.52-16.93-6.78-20.5-1.26-3.58-6.14-16.18-10.84-28-4.69-11.83-11.53-28.48-15.18-37-3.65-8.53-14.19-30.58-23.41-49-9.22-18.43-19.84-38.9-23.58-45.5-3.75-6.6-11.55-19.88-17.34-29.5-5.78-9.63-14.1-22.9-18.48-29.5-4.39-6.6-11.82-17.63-16.53-24.5-4.71-6.88-13.04-18.58-18.51-26-5.47-7.43-16.06-21.15-23.53-30.5-7.47-9.35-14.56-18.13-15.74-19.5-1.19-1.38-5.65-6.55-9.91-11.5-4.26-4.95-12.29-13.95-17.85-20-5.55-6.05-16.4-17.46-24.11-25.36-7.7-7.9-20.11-20.05-27.55-27-7.45-6.95-15.56-14.44-18.01-16.64-2.45-2.2-8.06-7.16-12.46-11.02-4.39-3.86-10.47-9.08-13.49-11.61-3.03-2.52-8.27-6.79-11.66-9.48-3.39-2.69-8.51-6.69-11.37-8.89-2.86-2.2-7.06-5.49-9.34-7.31-2.27-1.82-4.81-3.85-5.63-4.5-0.83-0.66-4.88-3.71-9-6.78-4.13-3.07-11.66-8.59-16.75-12.25-5.09-3.66-18.81-13.02-30.5-20.8-11.69-7.78-27.78-18.05-35.75-22.82-7.98-4.77-22.38-13.1-32-18.5-9.63-5.41-27.29-14.71-39.25-20.69-11.96-5.97-21.86-10.84-22-10.82-0.14 0.01-5.65-2.52-12.25-5.62-6.6-3.11-17.18-7.88-23.5-10.61-6.33-2.72-20.28-8.34-31-12.47-10.73-4.14-27.83-10.41-38-13.95-10.18-3.54-23.9-8.04-30.5-10-6.6-1.96-19.88-5.74-29.5-8.4-9.63-2.65-22.9-6.18-29.5-7.85-6.6-1.66-24.38-5.52-39.5-8.57-15.13-3.05-36.73-6.89-48-8.53-11.28-1.65-28.38-3.87-38-4.95-9.63-1.08-23.8-2.45-31.5-3.06-7.7-0.61-18.95-1.54-25-2.06-6.05-0.53-33.73-0.89-61.5-0.82-27.78 0.08-55.23 0.49-61 0.92z"/>
		</clipPath>
	</defs>
	<style>
		.s0 { opacity: .99;fill: #fcfdfd } 
	</style>
	<g clip-path="url(#cp1)">
	</g>
	<path id="-e traded" class="s0" d="m442.75 100.03c-2.06 1.08-4.64 3.43-5.72 5.22-1.12 1.84-1.98 5.09-2 7.5-0.02 2.34 1.5 8.86 3.36 14.5 1.87 5.64 6.55 19.25 10.41 30.25 3.85 11 8.33 23.6 9.95 28 1.63 4.4 5.04 13.4 7.58 20 2.55 6.6 4.65 12.67 4.68 13.5 0.03 0.83-2.33 3.15-5.23 5.16-2.9 2.02-7.76 5.1-10.78 6.86-3.02 1.75-10.17 6.18-15.87 9.83-5.7 3.66-16.73 11.17-24.5 16.68-7.77 5.52-18.63 13.62-24.13 18-5.5 4.38-14.5 11.96-20 16.84-5.5 4.88-14.24 12.98-19.41 18-5.18 5.02-14.41 14.53-20.5 21.14-6.1 6.6-14.48 16.28-18.63 21.5-4.14 5.22-10.04 12.86-13.1 16.99-3.07 4.13-7.3 9.98-9.41 13-2.1 3.02-5.48 7.98-7.5 11-2.02 3.02-6.59 10.23-10.15 16-3.56 5.77-9.02 15.11-12.14 20.75-3.11 5.64-8.41 15.99-11.76 23-3.36 7.01-8.36 17.7-11.1 23.75-2.75 6.05-6.58 15.27-8.5 20.5-1.93 5.23-4.32 11.98-5.32 15-0.99 3.02-3.16 10-4.82 15.5-1.66 5.5-5.36 19-8.22 30-2.85 11-6.26 25.63-7.56 32.5-1.31 6.88-2.81 16.1-3.33 20.5-0.59 4.86-0.61 9.37-0.06 11.5 0.5 1.92 1.83 4.74 2.96 6.25 1.13 1.51 3.85 3.65 6.05 4.75 3.89 1.94 6 2 76 2 48.61 0 72.89-0.35 74.75-1.07 1.51-0.58 3.81-2.05 5.1-3.25 1.29-1.2 3.4-3.98 4.7-6.18 1.58-2.69 3.52-9.9 5.91-22 1.96-9.9 4.51-21.38 5.67-25.5 1.15-4.13 4.09-13.13 6.53-20 2.44-6.88 6.1-16.33 8.13-21 2.03-4.67 7.12-15.02 11.31-23 4.2-7.98 10.21-18.77 13.37-24 3.16-5.23 10.15-15.35 15.54-22.5 5.39-7.15 12.61-16.15 16.04-20 3.44-3.85 12.38-13.08 19.89-20.5 8.97-8.88 19.78-18.13 31.6-27.03 9.88-7.45 19.2-14.31 20.71-15.25 1.51-0.95 3.42-1.72 4.25-1.72 1.05 0 2.88 4.29 6.08 14.25 2.52 7.84 7.46 22.13 10.97 31.75 3.52 9.63 7.76 21.55 9.43 26.5 1.67 4.95 4.32 10.8 5.89 13 1.57 2.2 4.49 4.79 6.49 5.75 2 0.96 4.88 1.74 6.39 1.73 1.51-0.01 4.55-0.85 6.75-1.86 2.2-1.01 4.76-2.69 5.69-3.73 0.94-1.04 4.37-7.74 7.63-14.89 3.27-7.15 9.18-19.75 13.14-28 3.97-8.25 10.95-22.88 15.53-32.5 4.58-9.62 13.6-28.75 20.06-42.5 6.45-13.75 15.53-33.1 20.17-43 4.65-9.9 9.8-20.92 11.45-24.5 1.65-3.58 7.13-14.78 12.17-24.89 8.83-17.74 9.17-18.67 9.47-26l0.3-7.61c-6.77-6.2-12.98-10.17-18.17-12.83-5.19-2.65-25.42-12.93-44.94-22.85-19.52-9.91-35.95-18.36-36.5-18.77-0.55-0.42-12.92-6.85-27.5-14.29-14.58-7.44-28.98-14.87-32-16.52-3.02-1.64-12.48-6.71-21-11.27-8.52-4.56-18.2-9.55-21.5-11.08-3.3-1.53-9.38-4.69-13.5-7.02-4.13-2.33-11.55-6.3-16.5-8.83-5.61-2.87-10.51-4.67-13-4.79-2.38-0.11-5.52 0.61-7.75 1.78zm162.75 12.49c-1.65 0.89-4.06 2.6-5.35 3.8-1.28 1.2-2.97 3.42-3.75 4.93-0.77 1.51-1.39 4.89-1.38 7.5 0.01 2.61 0.85 6.55 1.86 8.75 1.01 2.2 2.69 4.72 3.73 5.59 1.04 0.88 12.69 7.13 25.89 13.9 13.2 6.76 34.58 17.69 47.5 24.27 12.92 6.59 31.83 16.24 42 21.45 10.17 5.21 18.95 9.89 19.5 10.39q0.99 0.94-0.39 4.67c-0.77 2.05-2.51 6.21-3.88 9.23-1.36 3.02-6.07 12.92-10.47 22-4.39 9.08-10.01 21-12.48 26.5-2.47 5.5-6.3 13.83-8.5 18.5-2.2 4.67-7.62 16.15-12.03 25.5-4.42 9.35-9.09 19.81-10.39 23.25-1.3 3.44-2.37 8.39-2.37 11-0.01 3.5 0.71 5.88 2.75 9.03 1.8 2.81 4.32 5.02 7.26 6.41 3.38 1.59 5.62 1.98 9 1.56 2.48-0.31 6.08-1.48 8-2.6 2.16-1.26 4.93-4.46 7.23-8.35 2.05-3.46 3.74-6.64 3.75-7.05 0.01-0.41 2.76-6.49 6.11-13.5 3.35-7.01 9.6-19.95 13.89-28.75 4.28-8.8 10.82-22.52 14.53-30.5 3.71-7.98 12.32-26.09 19.12-40.25 6.8-14.16 12.87-27.89 13.49-30.5 0.84-3.54 0.83-5.77-0.03-8.75-0.63-2.2-2.82-5.73-4.87-7.83-2.43-2.51-8.74-6.34-18.22-11.06-7.97-3.97-30.7-15.47-50.5-25.55-19.8-10.08-43.88-22.41-53.5-27.4-9.63-4.99-21.1-10.86-25.5-13.03-5.58-2.77-9.66-4.08-13.5-4.35-3.78-0.26-6.44 0.12-8.5 1.24zm411 26.96c-6.05 0.69-15.72 2.24-21.5 3.46-5.78 1.21-15 3.47-20.5 5.02-5.5 1.54-14.5 4.49-20 6.53-5.5 2.05-16.74 7.16-24.98 11.37-8.24 4.2-20.39 11.24-27 15.64-6.61 4.4-14.95 10.43-18.52 13.41-3.58 2.97-9.57 8.14-13.32 11.5-3.75 3.35-10.76 10.59-15.58 16.09-4.82 5.5-12.14 14.5-16.26 20-4.13 5.5-9.16 12.59-11.17 15.75-2.02 3.16-6.43 11.26-9.8 18-3.37 6.74-8.28 17.65-10.9 24.25-2.63 6.6-6.15 16.73-7.81 22.5-1.67 5.77-3.73 14.1-4.58 18.5-0.85 4.4-1.7 10.7-1.89 14-0.26 4.61 0.14 6.93 1.73 9.99 1.15 2.2 3.66 5.02 5.58 6.28l3.5 2.29c119.35-0.04 128.3-0.25 130.25-1.55 1.54-1.04 3.24-4.57 5.41-11.26 1.74-5.36 4.47-12.67 6.07-16.25 1.6-3.58 5.32-10.1 8.27-14.5 2.95-4.4 8.43-10.98 12.18-14.62 3.75-3.65 10.04-9.05 13.98-12 3.93-2.96 9.78-6.79 13-8.51 3.21-1.72 10.12-4.72 15.34-6.67 5.92-2.22 13.83-4.19 21-5.25 7.8-1.15 14.39-1.51 20.5-1.12 4.95 0.33 12.15 1.25 16 2.06 3.85 0.81 10.37 2.69 14.5 4.17 4.12 1.48 9.97 3.94 13 5.47 3.03 1.54 8.65 5.01 12.5 7.72 3.85 2.71 9.97 7.82 13.59 11.34 3.62 3.53 7.94 8.21 9.6 10.41 1.66 2.2 4.58 6.25 6.51 9 1.92 2.75 4.68 7.36 6.15 10.25 1.46 2.89 3.75 8.51 5.1 12.5 1.35 3.99 2.92 9.16 3.5 11.5 0.61 2.46 2 4.88 3.3 5.75 1.95 1.29 10.92 1.46 67.25 1.25l65-0.25c5.32-3.88 7.46-6.46 8.18-8.25 0.73-1.79 1.32-5.61 1.33-8.5 0-2.89-0.91-9.52-2.02-14.75-1.12-5.23-3.64-14.67-5.61-21-1.98-6.33-6.07-17.58-9.1-25-3.03-7.42-7.47-17.33-9.86-22-2.4-4.67-6.36-11.65-8.82-15.5-2.46-3.85-7.31-11.05-10.78-16-3.47-4.95-8.84-11.92-11.93-15.5-3.09-3.58-10.07-10.84-15.5-16.14-5.44-5.3-12.59-11.84-15.89-14.53-3.3-2.69-9.15-7.15-13-9.91-3.85-2.77-11.72-7.87-17.5-11.35-5.78-3.48-16.35-9.16-23.5-12.63-7.15-3.47-18.63-8.16-25.5-10.43-6.88-2.26-17.67-5.41-24-6.99-6.33-1.58-17.13-3.81-24-4.95-9.9-1.66-16.45-2.06-31.5-1.96-10.45 0.07-23.95 0.69-30 1.37zm10 180.3c-3.85 0.97-11.28 3.81-16.5 6.31-7.43 3.56-11.03 6.07-16.53 11.48-3.86 3.81-8.53 9.18-10.37 11.93-1.84 2.75-4.71 7.7-6.38 11-1.66 3.3-3.85 9.15-4.86 13-1.19 4.58-1.84 10.63-1.85 17.5-0.02 7.43 0.57 12.84 2.03 18.5 1.13 4.4 4.15 12.05 6.71 17 3.71 7.16 6.5 10.85 13.7 18.04 7.04 7.03 10.94 10.01 17.55 13.42 4.67 2.41 11.2 5.24 14.5 6.28 3.55 1.12 10.5 2.12 17 2.45 8.48 0.43 12.49 0.18 17.5-1.12 3.58-0.92 9.2-2.78 12.5-4.13 3.3-1.35 8.47-3.91 11.49-5.7 3.02-1.78 9.21-6.95 13.75-11.49 6.6-6.59 9.05-9.91 12.18-16.5 2.15-4.54 4.59-10.27 5.41-12.75 0.82-2.48 2.01-8.33 2.64-13 0.81-6.07 0.85-11.07 0.12-17.5-0.57-4.95-2.2-12.6-3.63-17-1.43-4.4-4.04-10.65-5.78-13.9-2.06-3.81-6.44-9.01-12.43-14.75-7.15-6.84-11.12-9.75-17.5-12.84-4.54-2.19-10.95-4.71-14.25-5.59-3.3-0.88-11.4-1.78-18-2-9.19-0.3-13.64 0.02-19 1.36zm-224.55 91.51c-1.95 0.67-4.38 1.88-5.4 2.71-1.02 0.83-2.47 2.96-3.2 4.75-0.74 1.79-1.35 5.16-1.35 7.5 0 2.34 0.64 7.85 1.41 12.25 0.78 4.4 2.33 11.6 3.46 16 1.12 4.4 3.89 13.4 6.16 20 2.27 6.6 7.04 18.08 10.61 25.5 3.57 7.42 9.05 17.77 12.17 23 3.13 5.23 8.34 13.1 11.59 17.5 3.25 4.4 8.64 11.15 11.99 15 3.35 3.85 8.57 9.64 11.6 12.87 3.03 3.23 10.91 10.47 17.51 16.1 6.6 5.62 16.28 13.14 21.5 16.71 5.22 3.58 13.55 8.8 18.5 11.6 4.95 2.81 13.72 7.33 19.5 10.05 5.78 2.71 13.88 6.14 18 7.62 4.13 1.47 12.67 4.19 19 6.04 6.33 1.85 16.45 4.28 22.5 5.41 6.05 1.13 15.05 2.46 20 2.97 4.95 0.51 17.78 0.92 28.5 0.93 11.1 0 23.81-0.59 29.5-1.38 5.5-0.76 14.72-2.33 20.5-3.5 5.78-1.17 17.47-4.37 26-7.1 9.75-3.14 21.44-7.9 31.5-12.83 8.8-4.31 21.4-11.4 28-15.74 6.6-4.35 15.6-10.76 20-14.26 4.4-3.5 13.33-11.57 19.85-17.93 6.52-6.36 15.12-15.61 19.12-20.56 3.99-4.95 10.88-14.4 15.31-21 4.44-6.6 10.98-17.85 14.54-25 3.56-7.15 8.11-17.27 10.11-22.5 2-5.23 4.01-10.4 4.47-11.5 0.46-1.1 2.22-6.95 3.92-13 1.7-6.05 3.83-15.05 4.74-20 0.91-4.95 1.49-11.76 1.29-15.14-0.25-4.37-0.93-6.78-2.35-8.36-1.1-1.22-3.69-3.06-5.75-4.11-3.56-1.79-6.98-1.89-67.5-1.93-59.82-0.04-63.89 0.07-66.02 1.75-1.6 1.26-3.01 4.6-4.78 11.29-1.39 5.23-4.51 13.55-6.94 18.5-2.43 4.95-7.36 12.71-10.96 17.25-3.6 4.54-10.49 11.67-15.3 15.86-4.81 4.18-11.9 9.44-15.75 11.68-3.85 2.24-10.15 5.54-14 7.32-3.85 1.78-10.37 4.21-14.5 5.4-5.52 1.59-11.33 2.3-22 2.68-11.95 0.42-16.17 0.17-24-1.45-5.22-1.08-13.78-3.65-19-5.73-5.22-2.07-12.2-5.33-15.5-7.24-3.3-1.91-8.92-5.63-12.5-8.27-3.58-2.63-9.66-8.1-13.53-12.14-3.86-4.05-8.86-10.06-11.11-13.36-2.25-3.3-5.22-8.25-6.61-11-1.39-2.75-3.92-8.94-5.64-13.75-1.71-4.81-3.11-9.65-3.11-10.75 0-1.1-1.35-3.35-3-5l-3-3c-109.89 0.08-127.43 0.4-130.05 1.29zm-415.45 325.84c-4.95 0.47-14.62 1.79-21.5 2.94-6.87 1.14-16.77 3.14-22 4.45-5.23 1.31-15.35 4.61-22.5 7.33-7.15 2.72-16.15 6.37-20 8.12-3.85 1.74-10.83 5.4-15.5 8.13-4.67 2.73-11.2 6.65-14.5 8.71-3.3 2.06-9.83 6.65-14.5 10.21-4.67 3.55-10.75 8.48-13.5 10.94-2.75 2.47-9.29 8.77-14.54 14.01-5.25 5.24-13.59 14.93-18.54 21.53-4.95 6.6-10.6 14.47-12.55 17.5-1.96 3.03-5.39 8.65-7.63 12.5-2.23 3.85-6.61 12.4-9.73 19-3.13 6.6-6.94 15.15-8.49 19-1.54 3.85-4.42 12.85-6.4 20-1.98 7.15-4.27 16.6-5.11 21-0.83 4.4-1.52 10.25-1.54 13-0.02 3.56 0.63 5.99 2.25 8.44 1.25 1.9 3.85 4.37 5.78 5.5 3.42 2.01 5 2.07 66 2.35l62.5 0.3c6.54-4.33 7.47-6.02 10.55-15.11 1.96-5.77 5.57-14.31 8.03-18.98 2.47-4.67 6.55-11.2 9.07-14.5 2.52-3.3 7.45-8.8 10.96-12.22 3.52-3.42 9.54-8.53 13.39-11.35 3.85-2.82 9.02-6.17 11.5-7.44 2.48-1.26 6.98-3.23 10-4.36 3.02-1.13 10-3.18 15.5-4.56 5.5-1.37 13.6-2.79 18-3.16 4.63-0.37 12.01-0.14 17.5 0.57 5.23 0.66 12.2 1.83 15.5 2.58 3.3 0.75 8.7 2.3 12 3.44 3.3 1.14 9.38 3.92 13.5 6.18 4.13 2.26 11.1 6.91 15.5 10.34 4.4 3.43 10.03 8.43 12.52 11.11 2.49 2.68 6.09 6.89 8 9.36 1.91 2.47 5.84 9.22 8.73 15 2.88 5.78 6.38 14.11 7.77 18.51 1.39 4.4 3.08 8.7 3.75 9.55 0.68 0.85 2.36 2.31 3.73 3.25 2.3 1.58 7.51 1.71 64 1.63 44.5-0.06 62.34-0.41 64.54-1.26 1.67-0.64 3.99-1.84 5.16-2.67 1.17-0.83 2.83-2.85 3.7-4.5 0.88-1.65 1.59-5.14 1.59-7.75 0.01-2.61-1.16-10.26-2.59-17-1.43-6.74-4.62-18.55-7.09-26.25-2.48-7.7-4.91-14.45-5.42-15-0.51-0.55-0.92-1.56-0.91-2.25 0.01-0.69-2.63-6.76-5.88-13.5-3.24-6.74-8.11-16.08-10.82-20.75-2.7-4.67-7.09-11.65-9.75-15.5-2.66-3.85-8.09-11.05-12.07-16-3.98-4.95-11.91-13.72-17.64-19.5-5.72-5.78-14.66-13.89-19.86-18.03-5.2-4.13-12.84-9.8-16.96-12.59-4.13-2.79-11.55-7.45-16.5-10.36-4.95-2.9-11.7-6.51-15-8.02-3.3-1.51-9.6-4.2-14-5.97-4.4-1.78-9.35-3.82-11-4.54-1.65-0.71-6.38-2.3-10.5-3.52-4.13-1.22-10.88-3.03-15-4.03-4.13-0.99-12-2.49-17.5-3.34-5.5-0.84-14.95-2-21-2.57-6.05-0.57-16.17-0.98-22.5-0.9-6.33 0.08-15.55 0.53-20.5 1zm703.51 9.11c-3.59 1.81-5.03 3.37-7.18 7.76-1.48 3.03-2.97 7.75-3.31 10.5-0.34 2.75-1.98 10.63-3.65 17.5-1.67 6.88-5.53 19.92-8.58 29-3.05 9.08-6.89 19.88-8.52 24-1.63 4.13-6.74 15.15-11.35 24.5-4.61 9.35-10.82 20.83-13.8 25.5-2.98 4.67-8.5 13.18-12.27 18.9-3.77 5.71-10.43 14.71-14.8 20-4.37 5.28-15.17 16.81-24 25.63-8.83 8.81-20.77 19.64-26.55 24.06-5.78 4.42-13.2 9.86-16.5 12.08-3.3 2.23-8.59 5.46-11.75 7.19l-5.75 3.14c-3.68-8.14-6.65-15.9-8.97-22.5-2.32-6.6-6.23-17.62-8.68-24.5-2.46-6.87-6.58-18.12-9.16-24.99-3.32-8.84-5.64-13.43-7.94-15.75-2.25-2.26-4.25-3.29-6.5-3.37-1.79-0.05-4.6-0.01-6.25 0.1-1.65 0.11-4.12 0.86-5.5 1.65-1.37 0.8-3.66 3.34-5.08 5.66-1.43 2.31-5.42 10.73-8.87 18.7-3.46 7.97-8.2 18.33-10.53 23-2.34 4.67-8.19 17.28-13 28-4.81 10.72-12.15 26.92-16.3 36-4.15 9.08-9.99 21.9-12.99 28.5-3 6.6-8.5 18.97-12.24 27.5-3.73 8.53-9.03 20.45-11.77 26.5-2.75 6.05-7.91 17.3-11.47 25-3.57 7.7-6.84 15.58-7.26 17.5-0.43 1.92-0.71 5.08-0.63 7 0.08 1.92 1.18 5.08 2.45 7 1.88 2.86 5.88 5.32 21.75 13.38 10.69 5.43 25.52 13.02 32.94 16.86 7.42 3.84 21.15 10.95 30.5 15.79 9.35 4.84 22.63 11.7 29.5 15.24 6.88 3.55 23.53 12.18 37 19.19 13.47 7.01 28.55 14.87 33.5 17.47 4.95 2.6 11.92 6.32 15.5 8.27 3.58 1.95 8.97 4.88 12 6.51 3.03 1.63 8.42 4.61 12 6.63 4.28 2.42 8.38 3.89 12 4.3 4.4 0.5 6.45 0.2 10.25-1.51 2.83-1.27 5.58-3.44 6.81-5.38 1.7-2.67 1.99-4.41 1.63-9.75-0.31-4.79-2.21-11.36-7.2-25-3.72-10.17-9.66-26.83-13.21-37-3.54-10.17-8.39-24.12-10.78-31-4.09-11.76-4.25-12.59-2.61-14 0.95-0.83 6.56-4.42 12.45-8 5.9-3.58 19.38-12.44 29.94-19.7 10.57-7.25 24.39-17.33 30.72-22.38 6.33-5.06 14.41-11.72 17.96-14.81 3.55-3.08 12.55-11.28 20-18.22 7.45-6.93 20.15-19.98 28.24-29 8.08-9.01 17.44-19.99 20.79-24.39 3.35-4.4 6.94-9.12 7.98-10.5 1.03-1.37 4.46-6.1 7.6-10.5 3.15-4.4 8.5-12.28 11.89-17.5 3.39-5.22 7.56-11.75 9.26-14.5 1.71-2.75 5.54-9.28 8.51-14.5 2.98-5.22 7.26-12.87 9.51-17 2.25-4.12 7.23-14.47 11.07-23 3.85-8.53 8.35-19.1 10.02-23.5 1.66-4.4 5.28-14.08 8.03-21.5 2.75-7.42 6.2-17.55 7.65-22.5 1.46-4.95 3.79-13.28 5.18-18.5 1.39-5.22 3.63-14.22 4.96-20 1.34-5.78 3.3-14.55 4.35-19.5 1.04-4.95 2.37-12.83 2.94-17.5 0.68-5.6 0.7-9.69 0.06-12-0.54-1.92-1.88-4.96-2.99-6.75-1.1-1.79-3.81-4.15-6.01-5.25-3.89-1.94-6.01-2-76.25-2.01l-72.25-0.01zm-695.01 171.27c-3.57 0.82-8.75 2.21-11.5 3.09-2.75 0.89-7.7 3.2-11 5.14-3.3 1.93-7.94 5.15-10.31 7.14-2.37 1.99-6.92 7-10.11 11.12-3.19 4.13-6.93 9.75-8.3 12.5-1.38 2.75-3.46 7.81-4.64 11.25-1.18 3.44-2.6 9.51-3.17 13.5-0.57 3.99-0.77 10.18-0.43 13.75 0.33 3.58 1.27 9.2 2.09 12.5 0.82 3.3 2.86 9.15 4.52 13 1.67 3.85 4.44 9.03 6.15 11.5 1.72 2.48 4.49 6.01 6.16 7.85 1.67 1.85 5.74 5.38 9.04 7.85 3.3 2.48 8.7 6.02 12 7.87 3.3 1.85 9.6 4.29 14 5.42 5.64 1.46 11.24 2.08 19 2.1 6.56 0.02 13.72-0.59 17.75-1.53 3.71-0.85 10.01-3.19 14-5.19 3.99-2 9.73-5.56 12.75-7.91 3.03-2.35 7.37-6.23 9.65-8.61 2.28-2.39 5.73-6.82 7.65-9.85 1.93-3.02 4.95-9.1 6.72-13.5 1.76-4.4 3.6-10.47 4.09-13.5 0.48-3.02 0.88-9.1 0.89-13.5 0-5.49-0.81-10.98-2.58-17.5-1.41-5.22-4.04-12.2-5.83-15.5-1.79-3.3-5.02-8.45-7.17-11.44-2.16-3-7.1-8.18-10.99-11.5-3.9-3.33-10.2-7.71-14-9.72-3.81-2.02-9.63-4.39-12.93-5.28-3.3-0.89-10.72-1.83-16.5-2.08-7.18-0.31-12.55 0.02-17 1.03zm-228.91 92.74c-2.56 1.33-5.14 3.69-6.29 5.75-1.64 2.95-1.87 4.83-1.45 12 0.28 4.68 1.9 14.13 3.61 21 1.71 6.88 4.48 16.55 6.15 21.5 1.67 4.95 4.63 12.6 6.58 17 1.95 4.4 6.01 12.95 9.03 19 3.02 6.05 8.91 16.18 13.09 22.5 4.17 6.33 11.07 15.78 15.32 21 4.26 5.23 9.92 11.75 12.58 14.5 2.67 2.75 9.11 8.91 14.32 13.69 5.21 4.78 13.3 11.5 17.97 14.93 4.68 3.42 13.23 9.15 19 12.72 5.78 3.57 14.78 8.61 20 11.2 5.23 2.59 14.9 6.85 21.5 9.46 6.6 2.61 15.6 5.83 20 7.15 4.4 1.33 12.28 3.31 17.5 4.4 5.23 1.1 12.2 2.42 15.5 2.93 3.3 0.52 8.93 1.3 12.5 1.73 3.58 0.44 13.93 0.79 23 0.79 9.08 0 20.55-0.36 25.5-0.81 4.95-0.44 11.93-1.25 15.5-1.78 3.58-0.54 9.88-1.66 14-2.48 4.13-0.83 11.33-2.64 16-4.03 4.68-1.38 10.98-3.35 14-4.38 3.03-1.02 7.75-2.81 10.5-3.98 2.75-1.17 8.15-3.56 12-5.32 3.85-1.75 10.38-4.95 14.5-7.1 4.13-2.15 12.45-7.13 18.5-11.08 6.05-3.94 15.05-10.44 20-14.42 4.95-3.99 13.03-11.16 17.94-15.94 4.92-4.77 12.12-12.31 16-16.74 3.89-4.44 10.89-13.56 15.56-20.27 4.68-6.71 11.76-18.38 15.75-25.93 3.98-7.56 9.45-19.36 12.16-26.24 2.7-6.87 6.36-17.22 8.14-23 1.77-5.77 3.84-12.97 4.59-16 0.75-3.02 1.62-10 1.94-15.5 0.51-8.98 0.36-10.33-1.5-13.25-1.14-1.79-3.99-4.14-6.33-5.23-4.08-1.9-6.59-1.98-64.25-1.99-34.61-0.01-61.48 0.38-63.5 0.93-1.92 0.52-4.27 1.75-5.21 2.74-0.94 0.99-3.77 7.2-6.29 13.8-2.52 6.6-6.41 15.38-8.64 19.5-2.24 4.13-6.36 10.2-9.17 13.5-2.81 3.3-7.38 8.15-10.15 10.79-2.77 2.63-7.96 6.86-11.54 9.41-3.57 2.54-11 6.93-16.5 9.75-7.11 3.66-12.88 5.77-20 7.34-5.5 1.21-13.15 2.69-17 3.29-3.91 0.61-10.52 0.8-15 0.43-4.4-0.36-11.94-1.52-16.75-2.58-4.81-1.06-11.56-2.89-15-4.07-3.44-1.17-8.72-3.37-11.75-4.88-3.02-1.51-9.21-5.5-13.75-8.86-4.54-3.37-11.22-9.16-14.85-12.87-3.64-3.71-8.64-9.45-11.12-12.75-2.48-3.3-5.98-8.92-7.78-12.5-1.8-3.57-4.77-11-6.6-16.5-1.82-5.5-4.23-10.94-5.36-12.1-1.12-1.16-3.84-2.62-6.04-3.25-2.79-0.79-22.07-1.14-64.03-1.14l-60.04-0.01zm584.66 2.75c-2.61 1.65-5.88 4.69-7.25 6.75-1.38 2.06-2.51 4.09-2.5 4.5 0 0.41-1.08 3.11-2.39 6-1.32 2.89-4.73 10.43-7.59 16.75-2.86 6.33-8.03 17.35-11.5 24.5-3.47 7.15-8.11 17.05-10.31 22-2.2 4.95-5.85 13.16-8.11 18.25-2.25 5.09-4.1 9.48-4.1 9.75 0 0.28-4.1 8.94-9.11 19.25-5.01 10.31-10.02 21-11.14 23.75-1.19 2.94-2.06 7.48-2.11 11-0.07 4.82 0.4 6.72 2.39 9.67 1.36 2.01 4.27 4.79 6.47 6.16 2.2 1.37 21.78 11.69 43.5 22.93 21.73 11.24 48.5 25.08 59.5 30.76 11 5.68 24.73 12.95 30.5 16.16 5.78 3.21 12.75 6.56 15.5 7.45 3.5 1.13 6.35 1.39 9.5 0.87 2.48-0.4 6.19-1.81 8.25-3.12 2.19-1.39 4.42-3.94 5.36-6.13 0.89-2.06 1.85-5.1 2.14-6.75 0.3-1.65-0.09-5.22-0.86-7.93-0.91-3.24-2.42-5.76-4.39-7.31-1.65-1.3-12.9-7.43-25-13.61-12.1-6.18-26.27-13.53-31.5-16.32-5.22-2.79-18.95-9.92-30.5-15.84-11.55-5.92-21.45-11.1-22-11.52-0.55-0.41-5.95-3.25-12-6.32-6.05-3.06-11.82-6.15-12.83-6.86-1.74-1.23-1.7-1.55 0.87-7.29 1.49-3.3 4.94-10.72 7.69-16.5 2.74-5.77 8.94-19.27 13.78-30 4.84-10.72 11.13-24.67 13.99-31 2.86-6.32 7.22-15.77 9.7-21 2.47-5.22 6.23-13.32 8.36-18 2.13-4.67 4.17-10.52 4.53-13 0.37-2.47 0.39-6.19 0.04-8.25-0.35-2.06-1.87-5.15-3.38-6.87-1.51-1.72-4.32-3.76-6.25-4.53-1.92-0.77-5.53-1.39-8-1.37-3.26 0.01-5.82 0.85-9.25 3.02z"/>
</svg>