<svg version="1.2" xmlns="http://www.w3.org/2000/svg" viewBox="0 0 1177 906" width="1177" height="906">
	<style>
		.s0 { fill: #ffffff } 
	</style>
	<g id="icons">
		<path id="-e dynamax" fill-rule="evenodd" class="s0" d="m589.6 2.5c1.26 1.65 2.09 3.34 1.84 3.75-0.24 0.41 0.01 0.75 0.56 0.75 0.55 0 1.63 2.14 2.39 4.75 0.77 2.61 4.54 13.75 8.38 24.75 3.84 11 9.27 26.52 12.06 34.5 2.79 7.97 4.87 14.84 4.62 15.25-0.25 0.41-0.11 0.74 0.3 0.72 0.41-0.02 1.38 2.12 2.14 4.75 0.77 2.63 1.44 5.23 1.5 5.78 0.06 0.55 0.44 1.22 0.85 1.5 0.4 0.27 0.98 1.62 1.28 3 0.3 1.37 0.85 2.95 1.22 3.5 0.37 0.55 4.2 11.35 8.52 24 4.32 12.65 7.94 23.67 8.04 24.5 0.11 0.82 0.42 1.72 0.7 2 0.27 0.27 1.22 2.07 2.1 4 0.89 1.92 1.45 4.29 1.25 5.25-0.19 0.96 0.1 1.75 0.65 1.75 0.55 0 1.31 1.01 1.69 2.25 0.38 1.24 0.82 2.7 0.97 3.25 0.16 0.55 0.41 1.9 0.56 3 0.15 1.1 0.62 2.22 1.04 2.5 0.42 0.27 0.87 1.51 1 2.75 0.13 1.24 0.58 2.25 0.99 2.25 0.41 0 0.75 0.45 0.75 1 0 0.55 0.79 2.8 1.75 5 0.96 2.21 2.42 4.06 3.25 4.12 0.82 0.07 2.17 0.03 3-0.08 0.82-0.1 3.07-1.21 5-2.46 1.92-1.25 6.09-3.92 9.25-5.93 3.16-2.01 5.97-3.65 6.25-3.65 0.27 0 1.19-0.56 2.03-1.25 0.85-0.69 2.2-1.81 3-2.5 0.81-0.69 1.69-1.25 1.97-1.25 0.27 0 1.29-0.3 2.25-0.68 0.96-0.37 1.97-0.94 2.25-1.27 0.27-0.33 1.85-1.47 3.5-2.55 1.65-1.07 7.73-4.66 13.51-7.97 5.79-3.32 11.86-6.71 13.5-7.53 1.65-0.83 3.58-2.06 4.31-2.75 0.73-0.69 1.97-1.25 2.75-1.25 0.79 0 1.43-0.45 1.43-1 0-0.55 0.45-1 1-1 0.55 0 2.69-1.06 4.75-2.35 2.06-1.29 6.9-3.96 10.75-5.94 3.85-1.97 7.64-3.73 8.42-3.9 0.78-0.17 2.13-1 3-1.83 0.87-0.84 6.64-4.1 12.83-7.25 6.19-3.15 11.25-5.51 11.25-5.23 0 0.27 0.67-0.18 1.5-1 0.82-0.83 1.95-1.28 2.5-1 0.55 0.27 1 0.05 1-0.5 0-0.55 1.24-1.45 2.75-1.99 1.51-0.55 6.12-2.77 10.25-4.95 4.12-2.18 7.84-3.76 8.25-3.51 0.41 0.25 0.74 0.11 0.74-0.3-0.01-0.41 7.08-4.21 15.75-8.44 8.67-4.23 19.36-9.36 23.76-11.41 4.4-2.05 8.22-3.8 8.5-3.9 0.27-0.1 3.99-1.83 8.25-3.84 4.26-2.01 8.33-3.66 9.05-3.66 0.71 0 1.73-0.38 2.25-0.85 0.52-0.47 2.75-1.54 4.95-2.4 2.2-0.85 6.47-2.68 9.5-4.07 3.02-1.39 6.85-3.08 8.5-3.77 1.65-0.68 3.22-1.3 3.5-1.36 0.27-0.07 1.51-0.67 2.75-1.34 1.24-0.66 2.59-1.14 3-1.05 0.41 0.09 1.65-0.21 2.75-0.65 1.1-0.44 3.8-1.59 6-2.56 2.2-0.96 8.27-3.43 13.5-5.47 5.22-2.04 10.51-3.77 11.75-3.84 1.24-0.08 2.25-0.48 2.25-0.89 0-0.41 1.91-1.29 4.25-1.95 2.34-0.66 4.47-1.49 4.75-1.84 0.27-0.36 5.67-2.34 12-4.42 6.32-2.08 13.41-4.63 15.75-5.66 2.34-1.03 4.92-1.88 5.75-1.88 0.82 0 4.31-1.06 7.75-2.35 3.44-1.3 10.52-3.77 15.75-5.5 5.22-1.73 10.96-3.26 12.75-3.4 1.78-0.14 3.24-0.48 3.23-0.75-0.01-0.28 1.67-1.09 3.75-1.81 2.07-0.72 6.92-2.22 10.77-3.34 3.85-1.12 7.9-2.23 9-2.48 1.1-0.24 2.22-0.63 2.5-0.87 0.27-0.24 1.4-0.63 2.5-0.87 1.1-0.25 4.25-1.2 7-2.11 2.75-0.91 5.56-1.4 6.25-1.09 0.69 0.31 1.25 0.23 1.25-0.18 0-0.41 1.35-0.75 3-0.75 1.64 0 2.99 0.34 2.99 0.75 0.01 0.41-1.23 1.49-2.74 2.38-1.51 0.9-4.41 3.27-6.45 5.25-2.03 1.99-4.4 4.18-5.25 4.87-0.85 0.69-1.54 0.91-1.52 0.5 0.02-0.41-0.9 0.37-2.03 1.75-1.13 1.37-2.05 2.16-2.03 1.75 0.02-0.41-0.92 0.04-2.08 1-1.16 0.96-3.86 3.44-6 5.5-2.14 2.06-4.34 3.75-4.89 3.75-0.55 0-1.44 0.79-1.97 1.75-0.53 0.96-0.97 1.3-0.97 0.75 0-0.55-0.93 0.12-2.06 1.5-1.13 1.37-2.04 2.05-2.02 1.5 0.02-0.55-0.64 0.01-1.47 1.25-0.83 1.24-2.19 2.25-3.01 2.25-0.83 0-1.5 0.67-1.5 1.5 0 0.82-0.79 1.8-1.75 2.16-0.96 0.36-2.09 0.59-2.5 0.5-0.41-0.09-0.75 0.51-0.75 1.34 0 0.82-0.45 1.5-1 1.5-0.55 0-1.23 0-1.5 0-0.28 0-1.2 0.56-2.05 1.25-0.85 0.69-2.75 2.37-4.21 3.75-1.47 1.37-3.02 2.39-3.45 2.25-0.44-0.14-0.79 0.42-0.79 1.25 0 0.82-0.34 1.3-0.75 1.05-0.41-0.25-1.46 0.31-2.34 1.25-0.87 0.93-2.78 2.71-4.25 3.95-1.46 1.24-2.65 1.91-2.63 1.5 0.02-0.41-0.77 0.25-1.75 1.48-0.98 1.23-2.13 1.91-2.56 1.5-0.43-0.4-0.76 0.06-0.75 1.02 0.02 0.96-0.42 1.75-0.97 1.75-0.55 0-2.58 1.46-4.51 3.25-1.93 1.79-4.65 4.15-6.05 5.25-1.4 1.1-3.38 2.67-4.4 3.5-1.02 0.82-2.85 2.17-4.06 3-1.22 0.82-3.63 2.85-5.37 4.5-1.73 1.65-5.39 4.8-8.13 7-2.74 2.2-5.09 4.34-5.23 4.75-0.14 0.41-0.7 0.75-1.25 0.75-0.55 0-2.24 1.09-3.75 2.43-1.51 1.33-3.71 3.25-4.89 4.25-1.17 1-3.82 3.17-5.88 4.82-2.05 1.65-5.43 4.57-7.5 6.5-2.08 1.92-4 3.27-4.28 3-0.28-0.28-1.68 0.74-3.1 2.25-1.43 1.51-2.84 2.41-3.13 2-0.29-0.41-0.51 0.04-0.5 1 0.02 0.96-0.42 1.75-0.97 1.75-0.55 0-2.13 1.01-3.51 2.25-1.38 1.24-3.63 3.26-5 4.5-1.37 1.24-2.49 2.02-2.49 1.75 0-0.28-1.88 1.19-4.18 3.25-2.29 2.06-5.22 4.76-6.5 6-1.27 1.24-2.33 1.91-2.34 1.5 0-0.41-0.34-0.25-0.75 0.36-0.4 0.61-2.87 2.97-5.48 5.25-2.61 2.28-4.41 4.16-4 4.18 0.41 0.02-0.38 0.64-1.75 1.38-1.38 0.74-4.41 2.97-6.75 4.96-2.34 1.99-4.48 3.62-4.75 3.62-0.28 0-3.15 2.59-6.39 5.75-3.23 3.16-7.51 7.21-9.5 9-1.98 1.79-3.95 3.25-4.36 3.26-0.41 0-2.66 2.03-5 4.5-2.34 2.47-4.26 4.38-4.28 4.24-0.02-0.14-2.5 2.11-5.5 5-3.01 2.89-5.71 4.91-6 4.5-0.29-0.41-0.51 0.04-0.5 1 0.02 0.96-0.31 1.75-0.72 1.74-0.41-0.01-4.46 3.59-9 8-4.54 4.41-8.49 7.67-8.78 7.26-0.29-0.41-0.51 0.04-0.5 1 0.02 0.96-0.31 1.56-0.72 1.34-0.41-0.23-2.1 1.18-3.75 3.13-1.65 1.95-4.05 4.5-5.33 5.66-1.28 1.17-2.86 2.14-3.5 2.17-0.64 0.02-1.06 0.58-0.92 1.25 0.14 0.66-0.65 1.42-1.75 1.7-1.1 0.27-2 0.95-2 1.5 0 0.55-1.4 2.46-3.12 4.25-1.72 1.79-3.52 3.14-4 3-0.48-0.14-0.88 0.31-0.88 1 0 0.69-1.43 2.6-3.19 4.25-1.75 1.65-3.55 2.89-4 2.75-0.44-0.14-0.81 0.42-0.81 1.25 0 0.82-0.45 1.27-1 1-0.55-0.28-1-0.05-1 0.5 0 0.55-3.38 4.37-7.5 8.5-4.13 4.12-7.84 7.61-8.25 7.75-0.41 0.14-0.64 0.59-0.5 1 0.14 0.41-0.29 0.64-0.95 0.5-0.67-0.14-1.23 0.3-1.25 0.96-0.03 0.67-3.54 4.61-7.8 8.75-4.26 4.15-7.75 7.99-7.75 8.54 0 0.55-0.45 0.77-1 0.5-0.55-0.28-1 0.17-1 1 0 0.82-0.45 1.27-1 1-0.55-0.28-1-0.05-1 0.5 0 0.55-3.38 4.37-7.5 8.5-4.13 4.12-7.24 7.5-6.93 7.5 0.32 0-0.02 0.62-0.75 1.39-0.73 0.76-2.04 2.22-2.91 3.25-0.88 1.02-2.57 2.53-3.76 3.36-1.2 0.82-2.17 2.06-2.16 2.75 0.01 0.69-0.67 1.25-1.49 1.25-0.83 0-1.5 0.89-1.5 2 0 1.1-0.45 1.77-1 1.5-0.55-0.28-1.01-0.16-1.02 0.25 0 0.41-1.24 2.19-2.75 3.95-1.5 1.77-3.29 3.23-3.98 3.25-0.69 0.03-1.25 0.72-1.25 1.55 0 0.82-0.45 1.27-1 1-0.55-0.28-1-0.05-1 0.5 0 0.55-2.03 3.14-4.52 5.75-2.49 2.61-4.29 4.86-4 5 0.29 0.14-1.39 2.32-3.73 4.84-2.34 2.53-5.15 5.75-6.25 7.15-1.1 1.41-3.01 3.62-4.25 4.91-1.24 1.29-2.25 2.57-2.25 2.85 0 0.27-0.64 1.17-1.43 2-0.78 0.82-2.02 1.49-2.75 1.47-0.73-0.01-0.99 0.32-0.59 0.75 0.41 0.43-0.38 1.79-1.75 3.03-1.36 1.24-2.49 2.59-2.5 3 0 0.41-1.37 2.32-3.03 4.25-1.66 1.92-3.01 3.84-2.99 4.25 0.02 0.41-0.97 0.95-2.21 1.2-1.24 0.25-1.91 0.7-1.5 1 0.41 0.3-1.06 2.46-3.28 4.8-2.21 2.34-4.01 4.81-4 5.5 0.02 0.69-0.42 1.02-0.97 0.75-0.55-0.28-1 0.17-1 1 0 0.82-0.68 1.72-1.5 2-0.83 0.27-1.49 1.06-1.47 1.75 0.02 0.69-0.77 2.24-1.75 3.46-0.98 1.21-2.34 2.23-3.03 2.25-0.69 0.02-1.03 0.49-0.75 1.04 0.27 0.55-0.63 1.67-2 2.5-1.38 0.82-2.52 2.29-2.53 3.25-0.02 0.96-1.49 3.13-3.25 4.82-1.77 1.69-3.9 4.29-4.72 5.78-0.83 1.49-1.84 2.69-2.25 2.68-0.41-0.02-0.75 0.42-0.75 0.97 0 0.55-1.24 2.4-2.75 4.11-1.51 1.71-4.43 4.98-6.47 7.25-2.05 2.28-3.74 4.7-3.75 5.39-0.02 0.69-0.48 1.25-1.03 1.25-0.55 0-0.89 0.39-0.75 0.88 0.14 0.48-0.99 2.28-2.5 4-1.51 1.71-2.75 3.57-2.75 4.12 0 0.55-0.34 1-0.75 1-0.41 0-1.88 2.09-3.25 4.65-1.38 2.55-3.4 5.38-4.5 6.27-1.1 0.9-2.14 2.29-2.3 3.1-0.17 0.82-0.94 1.93-1.72 2.48-0.77 0.55-1.42 1.56-1.44 2.25-0.02 0.69-1.5 2.71-3.29 4.5-1.79 1.79-3.81 3.36-4.5 3.5-0.69 0.14-1.24-0.09-1.24-0.5 0.01-0.41-0.66-1.65-1.48-2.75-0.83-1.1-3.99-5.71-7.02-10.25-3.03-4.54-5.51-8.48-5.51-8.75 0-0.28-1.01-1.68-2.25-3.13-1.24-1.45-3.26-3.7-4.5-5-1.24-1.3-2.25-2.82-2.25-3.37 0-0.55-0.45-1-1-1-0.55 0-1-0.68-1-1.5 0-0.83-0.68-2.18-1.5-3-0.83-0.83-1.28-1.5-1-1.5 0.27 0-0.29-0.83-1.25-1.85-0.96-1.02-2.99-3.27-4.5-5-1.51-1.73-2.53-3.15-2.25-3.15 0.27 0-0.51-1.1-1.75-2.45-1.24-1.35-3.49-3.83-5-5.5-1.51-1.68-2.75-3.5-2.75-4.05 0-0.55-0.34-1-0.75-1.01-0.41 0-1.88-1.68-3.25-3.72-1.38-2.04-3.18-4.42-4-5.28-0.83-0.87-2.4-2.86-3.5-4.43-1.1-1.57-3.24-4.36-4.75-6.2-1.51-1.85-2.41-3.34-2-3.33 0.41 0.02-0.49-0.88-2-2-1.51-1.11-2.75-2.48-2.75-3.03 0-0.55-1.91-2.98-4.25-5.39-2.34-2.42-5.24-5.68-6.46-7.25-1.21-1.57-3.68-4.51-5.5-6.52-1.81-2.01-4.64-5.34-6.29-7.41-1.65-2.07-4.13-5.05-5.5-6.61-1.38-1.56-4.08-4.67-6-6.9-1.93-2.23-4.06-4.7-4.75-5.49-0.69-0.79-0.95-1.66-0.58-1.93 0.36-0.28-0.16-0.5-1.17-0.5-1.01 0-1.65-0.23-1.42-0.5 0.23-0.28-2.83-3.99-6.79-8.25-3.97-4.26-6.9-8.19-6.5-8.73 0.43-0.6 0.03-0.7-1.04-0.25-0.99 0.41-1.75 0.29-1.75-0.27 0-0.55-2.92-4.04-6.48-7.75-3.57-3.71-6.48-6.98-6.47-7.25 0.01-0.28-3.82-4.33-8.51-9-4.69-4.68-8.53-9.06-8.53-9.75-0.01-0.69-0.35-1.15-0.76-1.03-0.41 0.13-7.28-6.45-15.25-14.61-7.98-8.17-15.4-15.7-16.5-16.75-1.1-1.04-2.34-1.89-2.75-1.88-0.41 0.01-0.74-0.32-0.72-0.73 0.01-0.41-3.73-4.58-8.32-9.25-4.6-4.68-15.29-15.07-23.78-23.1-8.49-8.04-16.78-15.84-18.43-17.34-1.65-1.5-5.03-4.69-7.5-7.1-2.48-2.4-4.85-4.05-5.28-3.66-0.43 0.38-0.75 0.25-0.72-0.3 0.04-0.55-2.41-3.48-5.43-6.5-3.03-3.03-5.52-5.39-5.54-5.25-0.02 0.14-2.73-2.45-6.03-5.75-3.3-3.3-6-5.78-6-5.5 0 0.27-1.8-1.3-4-3.5-2.2-2.2-4.23-4-4.5-4-0.28 0-1.85-1.13-3.5-2.5-1.65-1.38-2.7-2.73-2.33-3 0.36-0.28 0.03-0.52-0.75-0.54-0.78-0.02-2.1-0.83-2.92-1.8-0.83-0.97-3.65-3.31-6.28-5.21-2.63-1.9-4.76-4.01-4.75-4.7 0.02-0.69-0.35-1.14-0.82-1-0.47 0.14-3.68-2.23-7.14-5.25-3.45-3.03-7.48-6.4-8.95-7.5-1.47-1.1-3.45-2.68-4.4-3.5-0.94-0.83-4.29-3.97-7.44-6.98-3.14-3.02-5.95-5.51-6.22-5.54-0.28-0.03-1.51-0.71-2.75-1.52-1.24-0.8-2.26-2.02-2.25-2.71 0-0.69-0.79-1.57-1.75-1.95-0.96-0.39-2.76-1.74-4-3-1.24-1.27-2.7-2.3-3.25-2.3-0.55 0-2.5-1.46-4.33-3.25-1.83-1.79-4.19-3.82-5.25-4.51-1.06-0.69-2.95-1.81-4.21-2.5-1.26-0.68-2.5-2.03-2.75-2.99-0.25-0.96-1.14-1.75-1.96-1.75-0.83 0-1.84-0.57-2.25-1.28-0.41-0.7-2.78-2.81-5.25-4.68-2.48-1.87-5.4-4.43-6.5-5.68-1.1-1.25-2.56-2.3-3.25-2.32-0.69-0.02-1.03-0.49-0.75-1.04 0.27-0.55-0.06-1.02-0.75-1.04-0.69-0.02-2.04-0.92-3-2-0.96-1.08-1.94-1.85-2.17-1.71-0.23 0.14-1.48-0.65-2.77-1.75-1.29-1.1-4.14-3.31-6.33-4.91-2.19-1.6-5.01-4.07-6.26-5.5-1.25-1.42-2.27-2.14-2.26-1.59q0 0.96-0.73-0.03c-0.4-0.56-2.74-2.59-5.19-4.5-2.45-1.91-5.4-4.37-6.55-5.47-1.16-1.1-3.12-2.68-4.37-3.5-1.24-0.83-3.41-2.4-4.82-3.5-1.41-1.1-3.85-3.24-5.43-4.75-1.58-1.51-3.21-2.76-3.62-2.77-0.41-0.02-2.4-1.48-4.42-3.25-2.03-1.78-5.15-4.36-6.94-5.73-1.8-1.38-4.31-3.51-5.58-4.75-1.27-1.24-2.42-2.03-2.56-1.77-0.14 0.26-2.28-1.32-4.75-3.52-2.48-2.2-5.29-4.22-6.25-4.48-0.96-0.26-1.53-0.93-1.25-1.48 0.27-0.55-0.06-0.98-0.75-0.97-0.69 0.02-2.49-1.1-4-2.5-1.51-1.39-2.86-2.31-3-2.05-0.14 0.27-0.59-0.4-1-1.5-0.7-1.85-0.4-1.95 4.5-1.56 2.89 0.23 6.82 0.74 8.75 1.13 1.92 0.38 3.95 1.01 4.5 1.4 0.55 0.38 2.8 1.2 5 1.83 2.2 0.62 9.35 2.84 15.89 4.93 6.53 2.08 12.05 4.13 12.25 4.54 0.2 0.41 0.7 0.54 1.11 0.28 0.41-0.26 3.45 0.37 6.75 1.38 3.3 1.02 7.92 2.47 10.27 3.22 2.36 0.75 4.27 1.59 4.26 1.87-0.02 0.27 1.21 0.58 2.72 0.67 1.51 0.09 2.86 0.65 3 1.25 0.14 0.59 0.7 0.85 1.25 0.58 0.55-0.28 3.14 0.24 5.75 1.15 2.61 0.9 5.65 1.97 6.75 2.36 1.1 0.4 4.47 1.63 7.5 2.74 3.02 1.12 10.22 3.71 16 5.76 5.77 2.06 12.75 4.64 15.5 5.74 2.75 1.11 8.37 3.13 12.5 4.5 4.12 1.37 8.08 3 8.79 3.62 0.72 0.62 1.28 0.79 1.25 0.38-0.02-0.41 2.1 0.32 4.71 1.63 2.61 1.31 6.44 2.89 8.5 3.5 2.06 0.62 3.75 1.57 3.75 2.12 0 0.55 0.34 0.79 0.75 0.54 0.41-0.25 2.22 0.08 4.01 0.75 1.79 0.67 3.25 1.55 3.25 1.96-0.01 0.41 0.44 0.52 0.99 0.25 0.55-0.28 1.57 0.06 2.27 0.75 0.7 0.69 1.94 1.37 2.75 1.52 0.82 0.15 3.39 0.94 5.73 1.75 2.34 0.82 4.25 1.93 4.25 2.48 0 0.55 0.56 0.8 1.25 0.56 0.69-0.24 2.26 0.21 3.5 1 1.24 0.79 2.25 1.21 2.25 0.94 0-0.28 1.46 0.29 3.25 1.25 1.79 0.96 3.47 2.13 3.75 2.59 0.27 0.45 0.72 0.76 1 0.68 0.27-0.08 1.4 0.15 2.5 0.51 1.1 0.36 5.04 2.19 8.75 4.06 3.71 1.88 7.42 3.41 8.25 3.41 0.82 0 1.5 0.34 1.5 0.75 0 0.41 1.01 0.86 2.25 0.99 1.24 0.13 2.58 0.8 2.98 1.5 0.4 0.69 1.3 1.32 2 1.39 0.7 0.07 6.11 2.43 12.02 5.25 5.91 2.82 10.97 5.12 11.25 5.12 0.27 0 2.86 1.4 5.75 3.12 2.89 1.72 5.47 3.06 5.75 2.99 0.27-0.07 1.17 0.45 2 1.16 0.82 0.7 1.84 1.38 2.25 1.51 0.41 0.12 6.04 2.83 12.5 6.01 6.46 3.18 15.8 7.93 20.75 10.54 4.95 2.61 10.35 5.56 12 6.54 1.65 0.98 6.82 3.81 11.5 6.29 4.67 2.48 9.61 5.15 10.96 5.93 1.36 0.77 3.04 1.97 3.75 2.66 0.71 0.69 2.19 1.47 3.29 1.75 1.1 0.27 2 0.95 2 1.5 0 0.55 0.56 0.99 1.25 0.99 0.69-0.01 3.39 1.34 6 3 2.61 1.65 4.99 2.67 5.28 2.26 0.29-0.41 0.5-0.3 0.47 0.25-0.03 0.55 2.1 2.1 4.73 3.45 2.62 1.35 7.47 4.15 10.77 6.23 3.3 2.07 7.46 4.45 9.25 5.29 1.79 0.84 3.25 1.98 3.25 2.53 0 0.55 0.56 0.99 1.25 0.97 0.69-0.01 3.16 1.34 5.5 3 2.34 1.67 4.7 3.03 5.25 3.03 0.55 0 0.99 0.34 0.97 0.75-0.02 0.41 1.9 1.61 4.25 2.66 2.35 1.05 5.12 1.95 6.15 2 1.35 0.06 2.64-1.59 4.64-5.91 1.52-3.3 3.56-8.7 4.52-12 0.97-3.3 4.2-12.75 7.18-21 2.98-8.25 5.58-15.68 5.78-16.5 0.2-0.83 0.43-1.5 0.51-1.5 0.08 0 0.32-0.68 0.53-1.5 0.21-0.83 2.83-8.48 5.82-17 2.99-8.53 5.94-16.96 6.55-18.75 0.6-1.79 1.55-3.25 2.1-3.25 0.55 0 0.74-0.56 0.43-1.25-0.32-0.69 0.44-3.5 1.68-6.25 1.25-2.75 2.39-5.68 2.55-6.5 0.15-0.83 2.53-8.25 5.29-16.5 2.75-8.25 5.95-17.7 7.11-21 1.16-3.3 2.52-6.11 3.03-6.25 0.5-0.14 0.68-0.7 0.41-1.25-0.28-0.55 0.42-3.59 1.55-6.75 1.12-3.16 2.81-8.12 3.75-11.03 0.93-2.9 2.04-5.26 2.45-5.25 0.41 0.02 0.52-0.42 0.25-0.97-0.28-0.55 0.26-2.91 1.18-5.25 0.93-2.34 2.16-4.58 2.75-4.98 0.59-0.41 0.73-0.75 0.32-0.75-0.41-0.01-0.45-0.58-0.09-1.27 0.45-0.86 1.38-0.31 2.94 1.75zm-5.58 131.25c-0.01 0.69-0.47 1.25-1.02 1.25-0.55 0-0.9 0.34-0.77 0.75 0.13 0.41-0.62 2.77-1.66 5.25-1.05 2.47-2.03 4.95-2.19 5.5-0.16 0.55-0.84 3.02-1.5 5.5-0.67 2.47-1.47 4.72-1.79 5-0.33 0.27-0.74 1.4-0.93 2.5-0.19 1.1-1.26 4.25-2.37 7-1.12 2.75-2.6 6.35-3.31 8-0.7 1.65-2.89 7.95-4.85 14-1.97 6.05-4.29 13.02-5.15 15.5-0.86 2.47-2.64 6.75-3.94 9.5-1.31 2.75-3.1 5.67-4 6.5-0.9 0.82-1.61 1.84-1.58 2.25 0.02 0.41-2 2.77-4.49 5.25-2.49 2.47-4.85 4.48-5.25 4.46-0.39-0.03-1.28 0.65-1.97 1.5-0.69 0.84-1.7 1.31-2.25 1.04-0.55-0.28-1.23-0.05-1.5 0.5-0.28 0.55-2.41 1.5-4.75 2.11-2.34 0.61-6.84 1.06-10 1-3.16-0.06-6.43-0.22-7.25-0.36-0.83-0.14-1.5-0.59-1.5-1 0-0.41-0.45-0.53-1-0.25-0.55 0.27-1 0.05-1-0.5 0-0.55-0.68-0.78-1.5-0.5-0.83 0.27-1.5 0.05-1.5-0.5 0-0.55-0.68-0.78-1.5-0.5-0.83 0.27-1.5 0.05-1.5-0.5 0-0.55-0.45-0.78-1-0.5-0.55 0.27-1 0.05-1-0.5 0-0.55-0.9-1-2-1-1.1 0-2.23-0.68-2.5-1.5-0.28-0.83-0.95-1.28-1.5-1-0.55 0.27-1.56-0.23-2.25-1.11-0.69-0.89-3.63-2.8-6.53-4.25-2.9-1.45-5.27-2.98-5.25-3.39 0.02-0.41-0.42-0.53-0.97-0.25-0.55 0.27-1.68-0.18-2.5-1-0.83-0.83-1.95-1.5-2.5-1.5-0.55 0-1.44-0.79-1.97-1.75-0.53-0.96-0.97-1.3-0.97-0.75 0 0.55-0.8 0.25-1.78-0.67-0.98-0.92-2.46-1.82-3.28-2-0.83-0.18-2.18-1.11-3-2.06-0.83-0.96-1.85-1.41-2.28-1-0.43 0.4-0.76 0.17-0.75-0.52 0.02-0.69-1.1-1.48-2.47-1.75-1.38-0.28-2.5-0.95-2.5-1.5 0-0.55-0.68-1-1.5-1-0.83 0-1.5-0.45-1.5-1 0-0.55-0.45-0.78-1-0.5-0.55 0.27-1.68-0.18-2.5-1-0.83-0.83-1.74-1.16-2.03-0.75-0.29 0.41-0.51 0.19-0.5-0.5 0.02-0.69-1.66-2.14-3.72-3.23-2.06-1.08-4.99-2.55-6.51-3.25-1.52-0.7-2.75-1.61-2.75-2.02 0.01-0.41-0.44-0.75-0.99-0.75-0.55 0-2.24-0.89-3.75-1.97-1.51-1.09-3.1-1.65-3.53-1.25-0.43 0.39-0.76 0.16-0.75-0.53 0.02-0.69-0.42-1.03-0.97-0.75-0.55 0.27-1 0.05-1-0.5 0-0.55-0.79-1.2-1.75-1.45-0.96-0.25-4.11-2.05-7-4-2.89-1.95-5.93-3.55-6.75-3.55-0.83 0-1.5-0.45-1.5-1 0-0.55-0.56-1-1.25-0.99-0.69 0-4.4-1.65-8.25-3.68-3.85-2.03-7.11-4.05-7.25-4.51-0.14-0.45-0.7-0.6-1.25-0.32-0.55 0.27-1.76-0.29-2.68-1.25-0.92-0.96-1.71-1.57-1.75-1.35-0.04 0.21-1.08 0.1-2.32-0.25-1.24-0.36-2.25-1.1-2.25-1.65 0-0.55-0.45-0.78-1-0.5-0.55 0.27-1.57-0.06-2.27-0.75-0.7-0.69-1.94-1.4-2.75-1.58-0.82-0.17-1.59-0.74-1.73-1.25-0.14-0.5-1.15-0.92-2.25-0.92-1.1 0-2-0.45-2-1 0-0.55-1.01-1.31-2.25-1.69-1.24-0.38-2.93-0.82-3.75-0.98-0.83-0.16-1.83-0.86-2.23-1.56-0.41-0.7-0.75-0.93-0.75-0.52-0.01 0.41-2.38-0.45-5.27-1.91-2.89-1.46-5.48-3.07-5.75-3.58-0.28-0.51-0.95-0.88-1.5-0.82-0.55 0.06-3.7-1.1-7-2.58-3.3-1.48-6.07-2.51-6.15-2.28-0.07 0.23-0.97-0.31-2-1.2-1.02-0.9-3.54-2.13-5.6-2.75-2.06-0.62-4.2-0.91-4.75-0.63q-1 0.5 0 2c0.55 0.82 1.45 1.27 2 1 0.55-0.28 0.98-0.16 0.97 0.25-0.02 0.41 1.1 1.99 2.5 3.5 1.39 1.51 2.77 2.41 3.06 2 0.29-0.41 0.51-0.19 0.5 0.5-0.02 0.69 2.56 3.65 5.72 6.58 3.16 2.93 8.86 8.22 12.65 11.75 3.8 3.53 9.3 8.67 12.22 11.42 2.92 2.75 7.13 6.69 9.35 8.75 2.22 2.06 4.27 3.41 4.56 3 0.29-0.41 0.51 0.04 0.5 1-0.02 0.96 0.87 1.97 1.97 2.25 1.1 0.27 2 1.17 2 2 0 0.82 0.45 1.5 1 1.5 0.55 0 4.04 2.99 7.75 6.64 3.71 3.66 14.45 14.12 23.86 23.25 9.41 9.14 17.73 17.13 18.5 17.77 0.76 0.64 3.29 3.11 5.61 5.5 2.32 2.39 4.23 4.56 4.23 4.84 0.01 0.27 6.66 7.29 14.78 15.59 8.12 8.3 18.71 19.21 23.52 24.25 4.81 5.04 8.64 9.17 8.5 9.18-0.14 0.01 2.67 3.05 6.25 6.75 3.57 3.71 8.3 8.97 10.5 11.69 2.2 2.73 4.67 5.68 5.5 6.57 0.82 0.89 4.51 4.95 8.18 9.04 3.67 4.09 8.05 9 9.73 10.93 1.68 1.92 3.07 3.84 3.07 4.25 0.01 0.41 1.58 2.21 3.49 4 1.9 1.79 3.18 3.59 2.83 4-0.35 0.41 0.12 0.75 1.03 0.75 0.92 0 1.67 0.45 1.67 1 0 0.55 1.79 2.91 3.98 5.25 2.19 2.34 3.78 4.47 3.53 4.75-0.24 0.27 0.55 1.23 1.77 2.11 1.22 0.89 3.57 3.59 5.21 6 1.65 2.42 3.78 5.06 4.73 5.89 0.96 0.82 1.45 1.84 1.1 2.25-0.36 0.41-0.13 0.75 0.51 0.75 0.64 0 1.16 0.79 1.14 1.75-0.01 0.96 0.21 1.41 0.5 1 0.29-0.41 1.16-0.19 1.93 0.5 0.76 0.69 1.21 1.59 0.99 2-0.21 0.41-0.05 0.73 0.36 0.7 0.41-0.02 2.75 2.57 5.2 5.75 2.45 3.19 4.93 6.31 5.5 6.94 0.58 0.63 1.95 2.4 3.05 3.94 1.1 1.55 2.77 3.51 3.7 4.36 0.94 0.86 1.59 1.78 1.45 2.06-0.14 0.27 1.46 2.19 3.55 4.25l3.8 3.75c4.65-6.98 6.45-9 7-9 0.55 0 1.02-0.56 1.04-1.25 0.02-0.69 1.05-2.15 2.28-3.25 1.23-1.1 2.23-2.29 2.21-2.65-0.02-0.35 1.77-3.15 3.97-6.22 2.2-3.07 4.34-5.6 4.75-5.61 0.41-0.01 0.75-0.47 0.75-1.02 0-0.55 0.79-1.96 1.75-3.14 0.96-1.18 2.54-2.87 3.51-3.75 0.97-0.89 1.75-1.95 1.75-2.36-0.01-0.41 0.78-1.56 1.74-2.55 0.96-0.98 3.32-3.75 5.25-6.14 1.92-2.39 4.17-5.14 5-6.12 0.82-0.99 2.62-3.22 4-4.97 1.37-1.75 3.17-3.88 4-4.73 0.82-0.85 2.17-2.55 3-3.78 0.82-1.23 3.52-4.54 6-7.36 2.47-2.82 6.73-7.49 9.46-10.37 2.73-2.87 4.95-5.46 4.93-5.73-0.02-0.28 0.56-1.06 1.29-1.75 0.73-0.69 1.56-0.91 1.85-0.5 0.29 0.41 0.52 0.07 0.52-0.75 0-0.83 1.45-3.13 3.22-5.12 1.78-1.99 4.58-5.22 6.23-7.19 1.65-1.96 3.34-3.37 3.75-3.13 0.41 0.24 0.75-0.01 0.75-0.56 0-0.55 1.1-2.13 2.45-3.5 1.35-1.38 2.93-2.5 3.5-2.5 0.58 0 0.98-0.34 0.89-0.75-0.09-0.41 0.14-1.54 0.5-2.5 0.36-0.96 1.11-1.53 1.66-1.25 0.55 0.27 0.99-0.06 0.97-0.75-0.02-0.69 9.09-10.59 20.25-22 11.15-11.41 20.05-20.98 19.78-21.27-0.28-0.3 0.29-0.52 1.25-0.51 0.96 0.02 1.55-0.31 1.31-0.72-0.24-0.41 6.11-7.16 14.11-15 8.01-7.84 15.07-14.24 15.69-14.22 0.63 0.01 0.81-0.32 0.41-0.75-0.41-0.43 3.31-4.72 8.25-9.53 4.94-4.81 9.43-8.75 9.98-8.75 0.55 0 0.99-0.79 0.97-1.75-0.01-0.96 0.23-1.53 0.54-1.25 0.3 0.27 2.12-0.96 4.02-2.75 1.91-1.79 3.47-3.48 3.47-3.75 0-0.28 1.74-2.19 3.86-4.25 2.12-2.06 6.31-6 9.32-8.75 3.01-2.75 8.06-7.25 11.24-10 3.17-2.75 8.65-7.81 12.17-11.25 3.53-3.44 6.63-6.25 6.91-6.25 0.27 0 3.71-3.04 7.64-6.75 3.93-3.71 8.88-8.44 11-10.5 2.12-2.06 4.2-3.73 4.61-3.71 0.41 0.03 1.42-0.67 2.25-1.54 1.34-1.42 1.31-1.58-0.25-1.54-0.96 0.02-1.74-0.52-1.72-1.21 0.02-0.75-0.8-0.44-2.03 0.75-1.14 1.1-2.03 1.55-1.99 1 0.04-0.55-0.62-0.44-1.47 0.25-0.85 0.69-1.99 1.02-2.54 0.75-0.55-0.28-1-0.05-1 0.5 0 0.55-3.04 2.22-6.75 3.7-3.71 1.49-9.45 4.11-12.75 5.83-3.3 1.72-6.9 3.58-8 4.14-1.1 0.56-4.81 2.44-8.25 4.17-3.44 1.74-6.7 3.16-7.25 3.16-0.55 0-2.91 1.31-5.25 2.91-2.34 1.6-4.9 3.06-5.7 3.25-0.79 0.19-2.37 1.28-3.5 2.44-1.13 1.15-2.61 1.94-3.3 1.75-0.69-0.19-1.25 0.1-1.25 0.65 0 0.55-0.45 0.77-1 0.5-0.55-0.28-1.16-0.16-1.36 0.25-0.2 0.41-4.37 2.87-9.25 5.45-4.89 2.59-9.22 4.39-9.63 4-0.41-0.38-0.97 0.09-1.25 1.05-0.28 0.96-0.96 1.52-1.51 1.25-0.55-0.28-1.23 0.17-1.5 1-0.28 0.82-0.95 1.27-1.5 1-0.55-0.28-1-0.05-1 0.5 0 0.55-1.35 1.22-3 1.5-1.65 0.27-3 0.95-3 1.5 0 0.55-0.68 1-1.5 1-0.83 0-1.49 0.34-1.48 0.75 0.01 0.41-1.57 1.42-3.52 2.25-1.95 0.82-3.53 1.84-3.52 2.25 0.01 0.41-0.43 0.75-0.98 0.75-0.55 0-3.93 1.8-7.5 4-3.58 2.2-6.95 4-7.5 4-0.55 0-1 0.45-1 1 0 0.55-0.34 0.95-0.75 0.88-0.41-0.06-1.43-0.08-2.25-0.03-0.83 0.05-1.17 0.44-0.76 0.87 0.4 0.43-1.4 1.87-4 3.2-2.61 1.33-5.19 2.83-5.74 3.33-0.55 0.49-2.8 1.95-5 3.24-2.2 1.28-7.15 4-11 6.05-3.85 2.04-7.79 4.56-8.75 5.59-0.96 1.03-2.43 1.87-3.25 1.87-0.83 0-1.51 0.34-1.51 0.75-0.01 0.41-1.92 1.59-4.25 2.63-2.33 1.03-5.14 2.32-6.24 2.87-1.1 0.55-2.79 0.72-3.75 0.37-0.96-0.34-1.86-0.12-2 0.49-0.15 0.69-2.73 1.09-6.75 1.04-3.58-0.04-7.18-0.26-8-0.49-0.83-0.22-2.97-0.8-4.77-1.28-1.8-0.49-3.27-1.22-3.25-1.63 0.01-0.41-0.32-0.54-0.73-0.29-0.41 0.25-2.09-0.53-3.73-1.75-1.65-1.22-5.13-4.35-7.76-6.96-2.62-2.61-4.42-4.76-4.01-4.78 0.41-0.02 0.05-0.58-0.81-1.25-0.86-0.67-1.91-2.12-2.34-3.22-0.43-1.1-1-3.13-1.26-4.5-0.27-1.38-0.9-3.06-1.41-3.75-0.51-0.69-0.71-1.7-0.43-2.25 0.27-0.55-0.01-1.11-0.64-1.25-0.62-0.14-1.18-1.19-1.25-2.34-0.06-1.14-0.67-2.72-1.35-3.5-0.69-0.77-1.42-2.54-1.62-3.91-0.2-1.38-0.88-3.74-1.51-5.25-0.62-1.51-1.13-3.2-1.13-3.75 0-0.55-0.54-2.01-1.2-3.25-0.66-1.24-1.34-3.04-1.5-4-0.17-0.96-0.98-3.1-1.8-4.75-0.83-1.65-1.28-3-1-3 0.27 0-0.16-1.24-0.97-2.75-0.81-1.51-1.18-3.09-0.83-3.5 0.35-0.41 0.11-0.75-0.53-0.75-0.65 0-1.1-0.34-1.01-0.75 0.09-0.41-0.4-2.1-1.08-3.75-0.68-1.65-1.9-4.8-2.7-7-0.8-2.2-1.67-4.9-1.92-6-0.25-1.1-1.18-4.03-2.05-6.5-0.87-2.48-2-5.29-2.5-6.25-0.5-0.96-0.69-2.2-0.41-2.75 0.27-0.55 0.05-1-0.5-1-0.55 0-0.78-0.45-0.5-1 0.27-0.55 0.16-0.99-0.25-0.97-0.41 0.02-1.26-0.99-1.89-2.25-1.11-2.2-1.22-2.13-3.23 2.22-1.15 2.47-2.1 5.06-2.11 5.75zm-136.02 224.25c1.65 0 3 0.45 3 1 0 0.55 0.45 0.77 1 0.5 0.55-0.28 1-0.16 1 0.25 0 0.41 1.14 2.1 2.53 3.75 1.4 1.65 4.21 4.99 6.25 7.41 2.05 2.43 4.55 5.12 5.57 5.98 1.02 0.85 1.81 1.9 1.75 2.33-0.05 0.43 1.81 2.76 4.15 5.17 2.34 2.42 5.8 6.13 7.69 8.25 1.9 2.12 4.71 5.55 6.25 7.61 1.55 2.06 3.6 4.57 4.56 5.58 0.96 1 2.66 2.92 3.76 4.25 1.11 1.33 3.11 3.99 4.45 5.92 1.34 1.92 3.02 3.84 3.74 4.25 0.71 0.41 1.29 1.54 1.27 2.5-0.01 0.96 0.21 1.41 0.5 1 0.29-0.41 2.1 1.27 4.03 3.75 1.92 2.47 3.5 4.72 3.5 5 0 0.27 0.67 1.17 1.5 2 0.82 0.82 1.74 1.16 2.03 0.75 0.29-0.41 0.51-0.08 0.49 0.75-0.01 0.82 1.54 3.3 3.46 5.5 1.91 2.2 3.48 4.22 3.47 4.5-0.01 0.27 0.79 1.47 1.77 2.66 0.98 1.18 2.45 3.14 3.28 4.35 0.82 1.21 2.73 3.61 4.23 5.34 1.51 1.73 2.75 3.49 2.75 3.9 0.01 0.41 1.03 1.76 2.27 3 1.24 1.24 3.04 3.49 4 5 0.96 1.51 1.83 3.09 1.93 3.5 0.1 0.41 1.23 1.54 2.5 2.5 1.28 0.96 2.32 2.2 2.32 2.75 0 0.55 0.46 1.56 1.02 2.25 0.56 0.69 1.9 2.37 2.98 3.75 1.08 1.37 1.75 2.84 1.48 3.25-0.26 0.41 0.19 0.75 1.02 0.75 0.82 0 1.5 0.67 1.5 1.5 0 0.82 0.45 1.5 1 1.5 0.55 0 1 0.67 1 1.5 0 0.82 0.45 1.5 1 1.5 0.55 0 0.77 0.45 0.5 1-0.28 0.55 0.17 1.22 1 1.5 0.82 0.27 1.5 1.17 1.5 2 0 0.82 0.52 1.5 1.17 1.5 0.64 0 0.86 0.22 0.5 0.5-0.37 0.27-0.11 1.19 0.58 2.03 0.69 0.85 1.92 2.28 2.75 3.18 0.82 0.91 1.5 2.03 1.5 2.51 0 0.47 0.45 1.17 1 1.57 0.56 0.39 0.98 2.06 0.95 3.71-0.04 1.65-0.72 4.25-1.51 5.78-0.79 1.53-1.78 2.76-2.19 2.75-0.41-0.02-0.75 0.64-0.75 1.47 0 0.82-0.45 1.5-1 1.5-0.55 0-1 0.67-1 1.5 0 0.82-0.45 1.27-1 1-0.55-0.28-1 0.17-1 1 0 0.82-0.45 1.5-1 1.5-0.55 0-0.78 0.45-0.5 1 0.27 0.55 0.05 1-0.5 1-0.55 0-0.78 0.45-0.5 1 0.27 0.55 0.16 0.99-0.25 0.97-0.41-0.01-1.41 1.22-2.23 2.75-0.81 1.53-3.47 5.93-5.91 9.78-2.44 3.85-4.94 7.45-5.54 8-0.61 0.55-2 3.01-3.09 5.46-1.09 2.45-2.88 5.4-3.98 6.54-1.1 1.15-2.11 2.63-2.25 3.3-0.14 0.66-1.15 2.1-2.25 3.2-1.1 1.1-1.78 2.45-1.5 3 0.27 0.55-0.2 1.56-1.04 2.25-0.85 0.69-1.54 1.7-1.53 2.25 0.01 0.55-1.33 2.8-2.98 5-1.65 2.2-2.98 4.56-2.97 5.25 0.01 0.69-0.43 1.25-0.98 1.25-0.55 0-0.78 0.34-0.52 0.75 0.27 0.41-0.4 1.87-1.48 3.25-1.08 1.37-2.42 3.06-2.98 3.75-0.56 0.69-1.02 1.7-1.02 2.25 0 0.55-0.56 1.69-1.25 2.53-0.69 0.85-1.81 2.2-2.5 3-0.69 0.81-0.91 1.71-0.5 2 0.41 0.29 0.19 0.51-0.5 0.5-0.69-0.02-1.03 0.42-0.75 0.97 0.27 0.55 0.05 1-0.5 1-0.55 0-0.78 0.45-0.5 1 0.27 0.55 0.05 1-0.5 1-0.55 0-1.23 1.35-1.5 3-0.28 1.65-0.84 3.01-1.25 3.02-0.41 0.01-2.1 2.71-3.75 6.01-1.65 3.3-3.34 5.99-3.75 5.98-0.41 0-0.75 0.89-0.75 1.99 0 1.1-0.45 2-1 2-0.55 0-1.23 1.12-1.5 2.5-0.28 1.37-0.95 2.5-1.5 2.5-0.55 0-1.01 0.56-1.03 1.25-0.02 0.69-1.71 4.53-3.75 8.53-2.05 4.01-4.06 7.27-4.47 7.25-0.41-0.02-0.53 0.64-0.25 1.47 0.27 0.82-0.14 1.84-0.93 2.25-0.78 0.41-1.47 0.97-1.53 1.25-0.05 0.27-0.31 1.51-0.57 2.75-0.26 1.24-0.92 2.25-1.47 2.25-0.55 0-0.94 0.34-0.87 0.75 0.07 0.41-0.49 2.22-1.25 4.01-0.76 1.79-1.72 3.25-2.13 3.25-0.41-0.01-0.53 0.44-0.25 0.99 0.27 0.55 0.05 1-0.5 1-0.55 0-0.78 0.45-0.5 1 0.27 0.55 0.05 1-0.5 1-0.55 0-0.89 0.34-0.76 0.75 0.13 0.41-0.43 2.23-1.25 4.04-0.82 1.81-1.72 3.27-1.99 3.25-0.28-0.03-0.59 0.97-0.71 2.21-0.12 1.24-0.68 2.36-1.25 2.5-0.57 0.14-1.04 0.81-1.03 1.5 0.01 0.69-1.57 4.29-3.5 8-1.93 3.71-3.17 6.99-2.76 7.28 0.41 0.29 0.19 0.51-0.5 0.5-0.69-0.02-1.03 0.42-0.75 0.97 0.27 0.55-0.18 1.45-1 2-0.83 0.55-1.28 1.45-1 2 0.27 0.55 0.05 1.22-0.5 1.5-0.55 0.27-0.99 1.29-0.97 2.25 0.02 0.96-0.9 2.87-2.03 4.25-1.13 1.37-2.1 3.17-2.15 4-0.05 0.82-0.03 1.84 0.03 2.25 0.07 0.41-0.33 0.75-0.88 0.75-0.55 0-0.91 0.34-0.79 0.75 0.11 0.41-0.6 2.32-1.58 4.25-0.99 1.92-1.53 4.06-1.21 4.75 0.32 0.69-0.1 1.47-0.92 1.75-0.83 0.27-1.41 0.84-1.31 1.25 0.11 0.41-0.12 2.21-0.5 4-0.38 1.79-1.14 3.25-1.69 3.25-0.55 0-0.94 0.34-0.87 0.75 0.08 0.41-0.26 2.22-0.75 4.02-0.48 1.8-1.22 3.27-1.63 3.25-0.41-0.01-0.75 0.88-0.75 1.98 0 1.1-0.45 2-1 2-0.55 0-0.94 0.34-0.87 0.75 0.08 0.41-0.26 2.22-0.75 4.02-0.48 1.8-1.22 3.27-1.63 3.25-0.41-0.01-0.55 0.32-0.3 0.73 0.24 0.41-0.25 2.1-1.09 3.75-0.85 1.65-1.74 3.9-1.99 5-0.24 1.1-1.44 2.8-2.66 3.78-1.21 0.98-3.34 1.82-4.71 1.86-1.38 0.04-4.98 0.17-8 0.29-3.03 0.13-6.06 0.53-6.75 0.9-0.69 0.37-1.26 0.11-1.27-0.58q-0.02-1.23-0.75-0.2c-0.4 0.58-5.91 1.63-12.23 2.34-6.33 0.71-13.98 1.49-17 1.73-3.03 0.25-8.43 0.87-12 1.38-3.58 0.51-8.75 1.23-11.5 1.59-2.75 0.37-6.58 0.79-8.5 0.93-1.93 0.15-6.31 0.77-9.75 1.38-3.44 0.6-6.7 0.87-7.25 0.6-0.55-0.28-1.11-0.08-1.25 0.43-0.14 0.51-2.95 1.22-6.25 1.57-3.3 0.35-7.58 1.1-9.5 1.67-1.93 0.57-4.29 0.77-5.25 0.43-0.96-0.33-1.75-0.15-1.75 0.4 0 0.55-1.01 1.01-2.25 1.01-1.24 0.01-4.73 0.69-7.75 1.51-3.03 0.83-7.08 1.76-9 2.08-1.93 0.31-6.2 1.19-9.5 1.94-3.3 0.75-7.13 1.57-8.5 1.82-1.38 0.26-6.78 1.44-12 2.64-5.23 1.19-14.45 3.3-20.5 4.68-6.05 1.38-11.9 2.58-13 2.67-1.1 0.08-2.23 0.39-2.5 0.69-0.28 0.29-6.58 2.04-14 3.89-7.43 1.84-13.95 3.67-14.5 4.07-0.55 0.4-2.35 1.09-4 1.53-1.65 0.44-3.23 0.88-3.5 0.97-0.28 0.1-1.18 0.46-2 0.82-0.83 0.36-3.41 1.33-5.75 2.16-2.34 0.84-4.25 1.29-4.25 1.02 0-0.28-1.35 0.17-3 1-1.65 0.82-3.45 1.27-4 1-0.55-0.28-1-0.05-1 0.5 0 0.55-1.69 1.29-3.75 1.64-2.06 0.36-3.98 0.94-4.25 1.29-0.28 0.35-4 1.75-8.27 3.1-4.27 1.36-7.76 2.81-7.75 3.22 0.01 0.41-0.77 0.34-1.73-0.16q-1.75-0.91-3.75 0.47c-1.1 0.76-2.34 1.17-2.75 0.91-0.41-0.26-0.75-0.02-0.75 0.53 0 0.55-0.9 1-2 1-1.1 0-2.23 0.45-2.5 1-0.28 0.55-1.18 0.77-2 0.5-0.86-0.29-1.73 0.24-2.05 1.25-0.48 1.51-0.68 1.54-1.49 0.25q-0.93-1.49-0.94-0.25c-0.01 0.69-0.7 1.02-1.52 0.75-0.83-0.28-1.49 0.06-1.47 0.75 0.01 0.69-0.32 0.92-0.75 0.51-0.43-0.41-1.36-0.19-2.07 0.5-0.72 0.68-1.28 0.9-1.25 0.49 0.02-0.41-0.97-0.2-2.21 0.46-1.24 0.67-2.59 1.35-3 1.5-0.41 0.16-0.98 0.29-1.25 0.29-0.28 0-0.84 0.13-1.25 0.3-0.41 0.16-1.76 0.61-3 1-1.24 0.38-2.03 1.15-1.75 1.7 0.29 0.57-0.36 0.79-1.5 0.5-1.21-0.3-1.99 0-1.97 0.75 0.01 0.69-0.21 0.91-0.5 0.5-0.29-0.41-2.67 0.35-5.28 1.7-2.61 1.35-5.09 2.25-5.5 2-0.41-0.25-0.75 0-0.75 0.55 0 0.56-0.76 0.68-1.75 0.27-1.39-0.58-1.54-0.42-0.75 0.73 0.79 1.15 0.64 1.31-0.75 0.73-0.96-0.4-1.74-0.39-1.72 0.02 0.01 0.41-1.11 1.31-2.5 2-1.39 0.69-2.98 1.02-3.53 0.75-0.55-0.28-1-0.05-1 0.5 0 0.55-1.69 1.7-3.75 2.56-2.06 0.86-4.08 2.1-4.48 2.75-0.52 0.83-0.73 0.74-0.72-0.31 0.01-1.26-0.28-1.22-1.77 0.2-0.98 0.94-2.68 1.87-3.78 2.06-1.1 0.2-3.8 1.3-6 2.44-2.2 1.15-4.9 2.25-6 2.45-1.1 0.19-2.34 0.8-2.74 1.35-0.41 0.55-2.44 1.6-4.5 2.32-2.07 0.73-4.32 1.41-5.01 1.5-0.69 0.1-1.25 0.52-1.25 0.93 0 0.41-0.45 0.52-1 0.25-0.55-0.28-1-0.05-1 0.5 0 0.55-1.13 1.22-2.5 1.5-1.38 0.27-2.5 0.95-2.5 1.5 0 0.55-0.68 0.77-1.5 0.5-0.83-0.28-1.5-0.05-1.5 0.5 0 0.55-1.35 1.22-3 1.5-1.65 0.27-2.99 1.06-2.97 1.75 0.01 0.69-0.21 0.91-0.5 0.5-0.29-0.41-1.44 0.04-2.56 1-1.12 0.96-2.36 1.77-2.75 1.79-0.4 0.02-2.3 0.91-4.22 1.96-1.93 1.05-3.8 1.93-4.17 1.96-0.36 0.02-1 0.38-1.41 0.79-0.42 0.41-1.35 0.75-2.09 0.75-0.99 0-1.16-0.97-0.68-3.75 0.36-2.06 1.6-4.55 2.75-5.53 1.16-0.98 1.76-1.77 1.35-1.75-0.41 0.02 0.04-1.43 1-3.22 0.96-1.79 1.97-3.48 2.25-3.75 0.27-0.28 1.14-1.63 1.91-3 0.78-1.38 2.53-4.53 3.9-7 1.37-2.48 2.76-4.73 3.09-5 0.33-0.28 1.5-2.2 2.6-4.28 1.1-2.08 2.34-3.77 2.75-3.75 0.41 0.02 0.52-0.42 0.25-0.97-0.28-0.55-0.16-1 0.25-1 0.41 0 1.42-1.46 2.24-3.25 0.81-1.79 2.28-4.04 3.25-5 0.97-0.96 1.53-2.2 1.26-2.75-0.28-0.55-0.05-1 0.5-1 0.55 0 1-0.68 1-1.5 0-0.83 0.45-1.28 1-1 0.55 0.27 0.98-0.29 0.96-1.25-0.03-0.96 0.67-2.43 1.54-3.25 0.87-0.83 1.56-1.95 1.52-2.5-0.04-0.55 1.29-2.91 2.95-5.25 1.67-2.34 3.01-4.59 2.99-5-0.03-0.41 0.68-1.43 1.57-2.25 0.88-0.83 2.74-3.75 4.13-6.5 1.39-2.75 3.09-5.45 3.78-6 0.69-0.55 1.24-1.23 1.22-1.5-0.02-0.28 0.83-1.85 1.89-3.5 1.06-1.65 2.38-3.51 2.94-4.14 0.55-0.62 1.8-2.09 2.76-3.25 0.96-1.16 1.49-2.11 1.18-2.11-0.32 0 0.13-0.68 1-1.5 0.86-0.83 1.57-2.18 1.57-3 0-0.83 0.45-1.5 1-1.5 0.55 0 1.45-1.35 2-3 0.55-1.65 1.45-3 2-3 0.55 0 1-0.68 1-1.5 0-0.83 0.56-2.07 1.25-2.78 0.69-0.7 2.26-2.72 3.5-4.5 1.24-1.77 2.24-3.56 2.24-3.97-0.01-0.41 0.78-1.8 1.75-3.09 0.97-1.29 2.77-3.43 4.01-4.75 1.24-1.33 2.31-2.75 2.39-3.16 0.08-0.41 0.84-1.88 1.69-3.25 0.84-1.38 2.47-3.52 3.6-4.78 1.14-1.25 1.62-2.25 1.07-2.22-0.55 0.02 0.57-1.33 2.5-3 1.92-1.67 3.05-3.05 2.5-3.05-0.55-0.01-0.21-0.45 0.75-0.98 0.96-0.53 1.75-1.65 1.75-2.47 0-0.83 0.56-2.15 1.25-2.94 0.69-0.79 2.37-3.08 3.75-5.08 1.37-1.99 3.51-4.72 4.75-6.05 1.24-1.34 2.25-2.88 2.25-3.43 0-0.55 0.34-1 0.75-1.01 0.41-0.01 2.32-2.71 4.25-6.02 1.92-3.3 3.84-6 4.25-5.99 0.41 0.01 0.97-0.77 1.24-1.73 0.28-0.96 1.64-3.1 3.03-4.75 1.4-1.65 2.53-3.34 2.51-3.75-0.02-0.41 0.42-0.53 0.97-0.25 0.55 0.27 1.02-0.29 1.04-1.25 0.02-0.96 1.15-2.76 2.5-4 1.35-1.24 2.46-2.59 2.45-3 0-0.41 1.23-2.13 2.75-3.83 1.52-1.69 2.59-3.71 2.37-4.5-0.21-0.78-0.1-1.08 0.25-0.67 0.35 0.41 1.31 0.07 2.14-0.75 0.82-0.83 1.52-1.84 1.54-2.25 0.02-0.41 1.04-1.55 2.25-2.53 1.22-0.98 1.87-1.77 1.46-1.75-0.41 0.02 0.48-1.66 1.99-3.72 1.51-2.06 2.98-3.98 3.26-4.25 0.28-0.28 1.7-2.08 3.14-4 1.45-1.93 3.6-4.63 4.78-6 1.18-1.38 2.13-2.73 2.12-3-0.01-0.28 1.99-2.75 4.44-5.5 2.46-2.75 4.48-5.34 4.49-5.75 0.02-0.41 0.48-0.53 1.03-0.25 0.55 0.27 1.2-0.51 1.44-1.75 0.24-1.24 1.42-3.38 2.62-4.75 1.19-1.38 2.79-3.51 3.56-4.75 0.76-1.24 1.83-2.03 2.38-1.75 0.55 0.27 1-0.18 1-1 0-0.83 1.32-2.96 2.92-4.75 1.61-1.79 4.65-5.34 6.75-7.9 2.11-2.55 4.82-5.93 6.03-7.5 1.21-1.57 3.82-4.65 5.81-6.85 1.98-2.2 5.31-6.25 7.39-9 2.08-2.75 5.44-6.8 7.48-9 2.03-2.2 3.67-4.23 3.65-4.5-0.03-0.28 0.86-1.18 1.97-2 1.11-0.83 2.02-2.06 2.01-2.75-0.01-0.69 0.78-1.29 1.74-1.33 0.96-0.04 1.19-0.27 0.5-0.5-0.78-0.26 0.15-1.86 2.5-4.28 2.06-2.13 6-6.43 8.75-9.57 2.75-3.13 5.56-6.34 6.25-7.13 0.69-0.79 1.25-1.89 1.25-2.44 0-0.55 0.45-0.78 1-0.5 0.55 0.27 1-0.18 1-1 0-0.83 0.67-1.5 1.5-1.5 0.82 0 1.51-0.56 1.53-1.25 0.01-0.69 1.89-3.28 4.16-5.75 2.28-2.48 4.51-4.39 4.97-4.25 0.46 0.14 0.84-0.43 0.84-1.25 0-0.83 0.45-1.28 1-1 0.55 0.27 1-0.18 1-1 0-0.83 0.45-1.5 1-1.5 0.55 0 1.02-0.56 1.04-1.25 0.02-0.69 0.83-1.93 1.8-2.75 0.96-0.83 2.75-2.96 3.96-4.75 1.21-1.79 2.65-3.03 3.2-2.75 0.55 0.27 1.01-0.06 1.03-0.75 0.01-0.69 1.08-2.38 2.37-3.75 1.28-1.38 6.78-7.08 12.22-12.67 5.43-5.6 11.29-11.9 13.02-14 1.73-2.11 6.56-7.32 10.75-11.58 4.19-4.26 7.6-7.86 7.58-8-0.02-0.14 2.89-3.18 6.47-6.75 3.57-3.58 6.74-6.28 7.05-6 0.31 0.27 0.55-0.06 0.54-0.75-0.02-0.69 5.03-6.21 11.22-12.27 6.19-6.05 14.81-14.49 19.16-18.75 4.34-4.25 8.28-7.62 8.75-7.48 0.46 0.14 0.84-0.2 0.84-0.75 0-0.55 2.19-3.14 4.87-5.75 2.68-2.61 7.17-6.78 9.98-9.25 2.81-2.48 4.78-4.85 4.38-5.28-0.4-0.43-0.06-0.78 0.77-0.79 0.82 0 2.51-1.12 3.75-2.47 1.24-1.35 2.49-2.46 2.78-2.46 0.29 0 2.46-1.91 4.84-4.25 2.37-2.34 6.41-6.16 8.97-8.5 2.56-2.34 4.88-4.25 5.16-4.25 0.27 0 3.68-3.04 7.58-6.75 3.89-3.71 7.49-6.64 8-6.5 0.5 0.14 0.91-0.54 0.89-1.5-0.01-0.96 0.32-1.41 0.75-1 0.43 0.41 1.34-0.15 2.03-1.25 0.69-1.1 1.7-1.78 2.25-1.5 0.55 0.27 1 0.05 1-0.5 0-0.55 1.35-1 3-1zm-24.29 74.16c-3.19 2.94-7.69 7.12-10 9.3-2.32 2.18-4.1 4.32-3.96 4.75 0.14 0.44-0.09 0.58-0.5 0.33-0.41-0.25-10.53 9.09-22.48 20.75-11.94 11.67-21.73 21.77-21.75 22.46-0.01 0.69-0.81 1.46-1.77 1.71-0.96 0.25-2.43 1.59-3.25 2.96-0.83 1.38-1.73 2.31-2 2.08-0.28-0.24-2.73 2.14-5.46 5.28-2.73 3.15-5.55 6.06-6.25 6.47-0.71 0.41-0.96 1.31-0.55 2 0.44 0.74 0.34 0.96-0.25 0.53-0.54-0.4-4.03 2.42-7.74 6.25-3.71 3.83-6.53 6.97-6.25 6.97 0.27 0-1.42 1.91-3.77 4.25-2.34 2.34-7.18 7.43-10.75 11.32-3.56 3.89-9.41 10.38-12.98 14.43-3.58 4.05-7.27 8.07-8.2 8.93-0.94 0.86-1.5 1.91-1.25 2.32 0.25 0.41-0.23 0.75-1.05 0.75-0.83 0-1.9 0.79-2.38 1.75-0.49 0.96-2.4 3.36-4.25 5.33-1.85 1.97-4.95 5.51-6.87 7.87-1.93 2.36-4.18 5.03-5 5.94-0.83 0.9-2.91 3.44-4.63 5.63-1.73 2.19-5.23 6.23-7.79 8.98-2.56 2.75-5.43 6.24-6.37 7.76-0.94 1.52-2.05 2.76-2.46 2.75-0.41 0-0.75 0.44-0.75 0.99 0 0.55-1.24 2.3-2.75 3.89-1.51 1.59-3.88 4.22-5.25 5.85-1.38 1.63-4.08 4.92-6 7.3-1.93 2.39-5.69 6.84-8.36 9.9-2.67 3.06-6.61 8.15-8.75 11.31-2.14 3.16-4.24 5.86-4.68 6-0.43 0.14-2.34 2.27-4.25 4.75-1.9 2.47-3.7 4.72-3.99 5-0.3 0.27-2.2 2.52-4.22 5-2.03 2.47-3.7 4.95-3.71 5.5-0.01 0.55-0.93 1.67-2.04 2.5-1.11 0.82-2.01 1.95-2 2.5 0.01 0.55-0.77 1.72-1.74 2.61-0.97 0.88-2.45 2.46-3.3 3.5-0.85 1.04-1.86 2.68-2.25 3.64-0.39 0.96-1.16 1.75-1.71 1.75-0.55 0-1 0.67-1 1.5 0 0.82-0.34 1.49-0.75 1.48-0.41-0.01-3.45 3.62-6.75 8.07-3.3 4.45-6.56 8.73-7.25 9.52-0.69 0.79-1.25 1.65-1.25 1.93 0 0.27-0.92 1.51-2.05 2.75-1.12 1.24-2.68 2.92-3.47 3.75-0.78 0.82-1.44 2.06-1.45 2.75-0.02 0.69-0.71 1.47-1.53 1.75-0.83 0.27-1.5 1.17-1.5 2 0 0.82-0.38 1.61-0.85 1.75-0.46 0.14-2.48 2.5-4.48 5.25-2.01 2.75-3.31 5.41-2.91 5.91 0.41 0.5 0.29 0.66-0.26 0.35-0.55-0.31-2.04 0.85-3.31 2.59-1.26 1.73-6.1 8.55-10.74 15.15-4.65 6.6-9.23 13.06-10.2 14.36-0.96 1.3-2.43 3.52-3.25 4.93-0.83 1.42-2.4 3.66-3.5 4.97-1.1 1.32-2 2.79-2 3.28 0 0.48-0.76 1.46-1.7 2.17-0.93 0.71-1.83 1.96-2 2.79-0.16 0.82-1.2 2.3-2.3 3.28-1.1 0.98-1.55 1.78-1 1.78 0.55 0 0.21 0.44-0.75 0.97-0.96 0.53-1.75 1.64-1.75 2.47 0 0.82-0.45 1.5-1 1.5-0.55 0-0.78 0.34-0.51 0.75 0.26 0.41-0.64 1.99-2 3.5-1.37 1.51-2.15 2.99-1.74 3.28 0.41 0.29 0.19 0.51-0.5 0.5-0.95-0.02-0.98 0.39-0.13 1.72 1.06 1.67 1.38 1.67 6.75 0 3.09-0.96 6.53-2.17 7.63-2.69 1.1-0.51 4.14-1.86 6.75-3 2.61-1.13 4.96-1.72 5.23-1.31 0.26 0.41 1.05 0.19 1.75-0.49 0.7-0.69 1.62-0.91 2.05-0.5 0.43 0.41 0.76 0.18 0.75-0.51-0.02-0.69 0.42-1.03 0.97-0.75 0.55 0.27 1.11 0.04 1.25-0.51 0.14-0.56 1.6-1.2 3.25-1.42 1.65-0.21 4.35-0.95 6-1.64 1.65-0.68 4.12-1.44 5.5-1.67 1.37-0.24 3.62-1.03 5-1.76 1.37-0.74 3.62-1.54 5-1.79 1.37-0.24 4.07-0.95 6-1.58 1.92-0.62 7.55-2.31 12.5-3.75 4.95-1.44 9.45-2.98 10-3.42 0.55-0.45 2.35-1.03 4-1.3 1.65-0.27 3-0.57 3-0.65 0-0.09 0.79-0.35 1.75-0.59 0.96-0.23 2.31-0.55 3-0.7 0.69-0.15 1.81-0.6 2.5-1 0.69-0.4 2.94-0.9 5-1.12 2.06-0.22 5.55-1.05 7.75-1.85 2.2-0.8 4.56-1.29 5.25-1.1 0.69 0.19 1.25-0.1 1.25-0.65 0-0.55 0.67-0.78 1.5-0.5 0.82 0.27 2.06 0.18 2.75-0.22 0.69-0.4 1.81-0.85 2.5-1 0.69-0.15 1.88-0.39 2.65-0.53 0.78-0.14 1.79-0.56 2.25-0.95 0.47-0.38 1.41-0.5 2.1-0.25 0.69 0.25 1.95-0.11 2.79-0.8 0.85-0.69 1.53-0.91 1.5-0.5-0.02 0.41 1.53 0.07 3.46-0.75 1.92-0.83 3.95-1.28 4.5-1 0.55 0.27 1 0.16 1-0.25 0-0.41 0.79-0.81 1.75-0.88 0.96-0.07 4-0.62 6.75-1.22 2.75-0.6 6.12-1.34 7.5-1.65 1.37-0.31 5.87-1.2 10-1.98 4.12-0.78 9.52-1.74 12-2.13 2.47-0.39 5.62-0.82 7-0.97 1.37-0.14 2.5-0.34 2.5-0.44 0-0.1 1.24-0.36 2.75-0.58 1.51-0.22 3.76-0.53 5-0.68 1.24-0.15 2.7-0.57 3.25-0.92 0.55-0.36 2.35-0.7 4-0.75 1.65-0.06 4.35-0.26 6-0.45 1.65-0.19 3-0.43 3-0.55 0-0.11 1.57-0.36 3.5-0.56 1.92-0.2 5.3-0.61 7.5-0.9 2.2-0.3 5.35-0.84 7-1.21 1.65-0.36 4.57-0.83 6.5-1.04 1.92-0.2 4.17-0.41 5-0.46 0.82-0.06 3.3-0.48 5.5-0.94 2.2-0.47 6.47-1.12 9.5-1.45 3.02-0.33 6.85-0.77 8.5-0.97 1.65-0.21 7.27-0.66 12.5-1 5.22-0.35 10.4-0.79 11.5-0.99 1.1-0.2 2.86-1.64 3.9-3.2 1.05-1.56 2.02-3.51 2.17-4.33 0.15-0.83 0.36-1.73 0.47-2 0.11-0.28 0.14-0.84 0.08-1.25-0.07-0.41 0.33-0.75 0.88-0.75 0.55 0 0.77-0.45 0.5-1-0.28-0.55-0.05-1 0.5-1 0.55 0 0.95-0.34 0.88-0.75-0.06-0.41-0.03-0.98 0.08-1.25 0.1-0.28 0.39-1.63 0.64-3 0.25-1.38 0.89-2.61 1.43-2.75 0.53-0.14 0.74-0.7 0.47-1.25-0.28-0.55-0.05-1 0.5-1 0.55 0 0.99-0.79 0.98-1.75-0.01-0.96 0.53-2.31 1.2-3 0.67-0.69 0.79-1.26 0.27-1.27-0.52 0-0.38-0.34 0.31-0.75 0.7-0.4 1.37-1.74 1.5-2.98 0.13-1.24 0.58-2.25 0.99-2.25 0.41 0 0.67-0.34 0.58-0.75-0.09-0.41 1.94-5.25 4.53-10.75 2.58-5.5 4.68-10.11 4.67-10.25-0.02-0.14 2.25-4.86 5.04-10.5 2.78-5.64 5.03-10.36 5-10.5-0.04-0.14 1.77-4.19 4.03-9 2.25-4.81 4.5-9.76 5-11 0.49-1.24 1.35-2.25 1.9-2.25 0.55 0 0.77-0.45 0.5-1-0.28-0.55 0.21-1.68 1.07-2.5 0.87-0.83 1.2-1.49 0.75-1.47-0.45 0.02 0.08-0.89 1.18-2.03 1.1-1.14 1.55-2.06 1-2.05-0.57 0.01-0.53-0.29 0.1-0.72 0.6-0.4 2.58-3.88 4.39-7.73 1.81-3.85 4.13-8.24 5.15-9.75 1.02-1.51 1.63-2.75 1.36-2.75-0.28 0 0.48-1.46 1.67-3.25 1.2-1.79 2.21-3.82 2.25-4.52 0.05-0.7 0.65-1.6 1.35-2 0.7-0.4 1.41-1.41 1.58-2.23 0.17-0.83 1.17-3.2 2.23-5.27 1.06-2.08 2.26-3.76 2.67-3.75 0.41 0.01 0.75-0.66 0.75-1.48 0-0.83 1.57-3.75 3.5-6.5 1.92-2.75 3.5-5.68 3.5-6.5 0-0.83 0.67-1.73 1.5-2 0.82-0.28 1.27-0.95 1-1.5-0.28-0.55-0.05-1 0.5-1 0.55 0 0.77-0.45 0.5-1-0.28-0.55-0.05-1 0.5-1 0.55 0 0.77-0.45 0.5-1-0.28-0.55 0.17-1.23 1-1.5 0.82-0.28 1.48-1.06 1.46-1.75-0.03-0.69 0.65-1.81 1.5-2.5 0.84-0.69 1.31-1.7 1.04-2.25-0.28-0.55 0.17-1.23 1-1.5 0.82-0.28 1.48-1.06 1.46-1.75-0.03-0.69 0.67-1.93 1.55-2.75 1.27-1.19 1.33-1.65 0.29-2.23-0.94-0.54-0.81-0.74 0.45-0.75q1.75-0.03 2.25-3.02c0.28-1.68 1.05-2.89 1.75-2.75 0.69 0.14 1.14-0.31 1-1-0.14-0.69 0.09-1.23 0.5-1.21 0.41 0.02 1.42-1.35 2.25-3.04 0.82-1.69 1.84-3.06 2.25-3.04 0.41 0.02 0.67-0.3 0.56-0.71-0.1-0.41 0.8-2.44 2-4.5 1.21-2.06 2.64-3.75 3.19-3.75 0.55 0 0.77-0.45 0.5-1-0.28-0.55 0.17-1.45 1-2 0.82-0.55 1.27-1.45 1-2-0.28-0.55-0.05-1 0.5-1 0.55 0 0.74-0.79 0.43-1.75-0.32-0.96-0.32-1.41 0-1 0.31 0.41 1.15 0.19 1.86-0.5 0.71-0.69 2.06-2.38 3.01-3.75 0.94-1.38 1.71-3.85 1.71-5.5 0-1.8-1.01-4.1-2.51-5.75-1.37-1.51-2.5-3.2-2.5-3.75 0-0.55-0.57-1.34-1.26-1.75-0.69-0.41-2.38-2.4-3.75-4.43-1.37-2.02-2.83-3.48-3.24-3.25-0.41 0.24-0.75-0.02-0.75-0.57 0-0.55-1.35-2.8-3-5-1.65-2.2-2.78-4-2.5-4 0.27 0-0.51-1.06-1.75-2.36-1.24-1.3-2.93-3.38-3.75-4.62-0.83-1.25-2.06-2.88-2.75-3.64-0.69-0.76-1.27-1.72-1.29-2.13-0.02-0.41-1.25-1.91-2.75-3.34-1.49-1.42-3.72-3.78-4.96-5.25-1.24-1.46-2.03-2.66-1.75-2.66 0.27 0-0.61-1.01-1.96-2.25-1.35-1.24-2.48-2.59-2.5-3-0.02-0.41-0.6-1.37-1.29-2.13-0.69-0.76-1.93-2.38-2.75-3.61-0.83-1.23-2.63-3.5-4-5.05-1.38-1.56-3.18-3.72-4-4.82-0.83-1.09-2.18-2.99-3-4.22-0.83-1.23-2.73-3.45-4.24-4.93-1.51-1.49-2.75-3-2.75-3.35-0.01-0.35-1.81-2.44-4.01-4.64-2.2-2.2-4.02-4.34-4.04-4.75-0.02-0.41-1.15-1.76-2.5-3-1.35-1.24-3.02-2.24-3.71-2.23-0.69 0.01-4.18 2.67-7.75 5.91-3.58 3.24-9.11 8.29-12.29 11.23zm467.99 82.84c0.71 0 1.52 0.67 1.8 1.5 0.27 0.82 0.95 1.27 1.5 1 0.55-0.28 1.22 0.62 1.5 2 0.27 1.37 0.95 2.27 1.5 2 0.55-0.28 1.02 0.06 1.04 0.75 0.02 0.69 1.04 2.05 2.25 3.03 1.22 0.98 1.87 1.77 1.46 1.75-0.41-0.02 1.27 1.99 3.75 4.47 2.47 2.47 4.27 4.5 4 4.5-0.28 0 1.07 1.57 3 3.5 1.92 1.92 3.5 3.84 3.49 4.25-0.01 0.41 0.87 1.42 1.95 2.25 1.07 0.82 1.75 1.84 1.51 2.25-0.25 0.41 0.67 1.2 2.05 1.75 1.37 0.55 2.5 1.56 2.49 2.25-0.01 0.69 0.87 1.92 1.95 2.75 1.07 0.82 1.8 1.72 1.61 2-0.19 0.27 0.29 1.06 1.05 1.75 0.77 0.69 1.4 1.02 1.4 0.75 0-0.28 0.67 0.17 1.5 1 0.82 0.82 1.5 1.72 1.5 2 0 0.27 1.81 2.41 4.01 4.75 2.21 2.34 4.01 4.59 4 5 0 0.41 1.68 2.5 3.74 4.64 2.06 2.13 5.77 6.33 8.25 9.33 2.47 2.99 5.4 6.68 6.5 8.19 1.1 1.51 4.11 5.08 6.7 7.92 2.58 2.84 4.5 5.51 4.25 5.92-0.25 0.41 0.3 0.75 1.22 0.75 0.91 0 1.38 0.34 1.04 0.75-0.34 0.41 1.15 2.55 3.32 4.75 2.17 2.2 3.94 4.22 3.92 4.5-0.01 0.27 2.68 3.42 5.99 7 3.3 3.57 5.79 6.61 5.53 6.75-0.26 0.14 1.1 1.82 3.03 3.75 1.92 1.92 3.2 3.72 2.83 4-0.36 0.27-0.14 0.5 0.5 0.5 0.64 0 1.17 0.45 1.17 1 0 0.55 1.57 2.57 3.5 4.5 1.92 1.92 3.5 4.17 3.5 5 0 0.82 0.34 1.32 0.75 1.1 0.41-0.21 1.31 0.24 2 1 0.69 0.77 1.02 1.4 0.75 1.4-0.28 0 0.74 1.32 2.25 2.92 1.51 1.61 4.32 5.1 6.24 7.75 1.93 2.66 3.95 5.16 4.5 5.56q1 0.74 0.01 0.72c-0.55 0 0.12 0.92 1.5 2.05 1.37 1.13 2.16 2.05 1.75 2.03-0.41-0.02 0.04 0.79 1 1.79 0.96 1.01 2.99 3.26 4.5 5 1.51 1.75 2.45 3.4 2.08 3.68-0.36 0.27-0.14 0.5 0.5 0.5 0.64 0 0.94 0.45 0.67 1-0.28 0.55 0.17 1.22 1 1.5 0.82 0.27 1.5 1.06 1.49 1.75-0.01 0.69 0.87 1.92 1.95 2.75 1.07 0.82 1.75 1.84 1.51 2.25-0.25 0.41 0.22 0.97 1.05 1.25 0.82 0.27 1.3 0.84 1.05 1.25-0.24 0.41 0.43 1.42 1.51 2.25 1.08 0.82 1.97 1.95 1.99 2.5 0.02 0.55 1.03 1.8 2.24 2.78 1.22 0.98 1.76 1.75 1.21 1.72-0.55-0.03 0 0.74 1.23 1.72 1.23 0.98 1.94 2.12 1.59 2.53-0.36 0.41-0.13 0.75 0.51 0.75 0.64 0 1.17 0.45 1.17 1 0 0.55 0.79 1.83 1.75 2.83 0.96 1.01 2.42 2.87 3.25 4.12 0.82 1.26 2.29 3.35 3.25 4.67 0.96 1.31 1.75 2.6 1.75 2.88 0 0.27 1.33 1.96 2.96 3.75 1.62 1.79 2.77 3.47 2.55 3.75-0.22 0.27 0.45 1.17 1.49 2 1.04 0.82 1.69 1.84 1.45 2.25-0.25 0.41 0.07 0.75 0.72 0.75 0.64 0 0.86 0.22 0.5 0.5-0.37 0.27 0.51 1.74 1.95 3.25 1.44 1.51 3.33 3.87 4.2 5.25 0.87 1.37 2.84 4.19 4.38 6.25 1.54 2.06 2.46 3.74 2.05 3.73-0.41-0.01 0.15 0.83 1.25 1.88 1.1 1.04 2.79 2.85 3.75 4.02 0.96 1.16 1.45 2.34 1.08 2.62-0.36 0.27-0.25 0.48 0.25 0.46 0.51-0.02 1.59 1.35 2.42 3.04 0.82 1.69 1.72 3.05 2 3.01 0.27-0.03 2.52 3.34 5 7.5 2.47 4.16 4.95 8.44 5.5 9.53 0.55 1.08 1.34 1.97 1.75 1.96 0.41 0 0.75 0.45 0.75 1 0 0.55 1.01 2.45 2.25 4.22 1.24 1.78 2.81 3.8 3.5 4.5 0.69 0.71 1.24 1.84 1.22 2.53-0.02 0.69 0.89 2.15 2.03 3.25 1.14 1.1 2.05 2.56 2.03 3.25-0.02 0.69 0.64 1.47 1.47 1.75 0.82 0.27 1.27 0.95 1 1.5-0.28 0.55-0.05 1 0.5 1 0.55 0 1.21 0.79 1.46 1.75 0.25 0.96 1.61 3.1 3 4.75 1.4 1.65 3.78 5.36 5.29 8.25 1.51 2.88 3.09 5.25 3.5 5.25 0.41 0 0.52 0.45 0.25 1-0.28 0.55 0.08 1.56 0.79 2.25 0.71 0.69 2.39 3.05 3.74 5.25 1.35 2.2 2.35 4.34 2.21 4.75-0.13 0.41 0.21 0.75 0.76 0.75 0.55 0 0.77 0.45 0.5 1-0.28 0.55-0.05 1 0.5 1 0.55 0 1.22 1.12 1.5 2.5q0.5 2.49 1.74 1.75c0.73-0.44 0.97-0.34 0.57 0.25-0.37 0.55 0.64 3.02 2.24 5.5 1.6 2.47 3.37 5.06 3.93 5.75 0.56 0.69 0.72 1.47 0.35 1.75-0.36 0.27-0.25 0.48 0.25 0.46 0.51-0.02 1.59 1.35 2.42 3.04 0.82 1.69 1.84 3.06 2.25 3.04 0.41-0.02 0.97 1.31 1.25 2.96 0.27 1.65 0.95 3 1.5 3 0.55 0 1.21 0.79 1.46 1.75 0.25 0.96 1.37 2.87 2.48 4.25 1.12 1.37 1.81 2.84 1.54 3.25-0.26 0.41 0.31 1.41 1.27 2.22 0.96 0.81 1.3 1.49 0.75 1.51-0.55 0.03-0.47 0.38 0.19 0.79 0.65 0.4 1.89 2.42 2.75 4.48 1.18 2.84 1.26 3.75 0.31 3.77-0.69 0.01-2.71-0.44-4.5-1-1.79-0.56-3.25-1.47-3.25-2.02 0-0.55-0.68-0.78-1.5-0.5-0.83 0.27-1.73-0.18-2-1-0.28-0.83-0.95-1.28-1.5-1-0.55 0.27-1 0.05-1-0.5 0-0.55-0.45-0.78-1-0.5-0.55 0.27-1 0.05-1-0.5 0-0.55-0.35-0.89-0.77-0.75-0.42 0.14-2.69-0.65-5.03-1.75-2.35-1.1-4.25-2.34-4.23-2.75 0.02-0.41-0.87-0.75-1.97-0.75-1.1 0-1.99-0.56-1.97-1.25 0.01-0.69-0.32-0.93-0.75-0.54-0.43 0.4-3.03-0.45-5.78-1.88-2.75-1.42-5.33-3.1-5.73-3.71-0.41-0.62-0.75-0.78-0.75-0.37-0.01 0.41-1.26 0.11-2.77-0.67-1.51-0.78-3.65-1.75-4.75-2.16-1.1-0.41-2.34-0.67-2.75-0.58-0.41 0.09-0.75-0.18-0.75-0.59 0-0.41-0.56-0.83-1.25-0.93-0.69-0.09-3.28-0.91-5.75-1.82-2.48-0.9-7.09-2.96-10.25-4.57-3.16-1.61-5.99-2.59-6.28-2.18-0.29 0.41-0.51 0.19-0.5-0.5 0.02-0.69-0.42-1.03-0.97-0.75-0.55 0.27-1 0.05-1-0.5 0-0.55-0.45-0.78-1-0.5-0.55 0.27-1.68-0.18-2.5-1-0.83-0.83-1.5-1.28-1.5-1 0 0.27-1.35-0.18-3-1-1.65-0.83-3.14-1.39-3.32-1.25-0.18 0.14-1.08-0.54-2-1.5-0.92-0.96-2.36-1.53-3.18-1.25-0.83 0.27-1.5 0.05-1.5-0.5 0-0.55-0.34-0.9-0.75-0.77-0.41 0.13-2.78-0.62-5.25-1.66-2.48-1.05-5.18-2.03-6-2.19-0.83-0.16-1.61-0.76-1.75-1.33-0.14-0.58-0.93-0.83-1.75-0.55-0.83 0.27-1.5 0.05-1.5-0.5 0-0.55-0.68-0.78-1.5-0.5-0.83 0.27-1.5 0.16-1.5-0.25 0-0.41-0.56-0.82-1.25-0.91-0.69-0.08-2.83-0.76-4.75-1.5-1.93-0.74-3.73-1.57-4-1.84-0.28-0.28-1.63-0.66-3-0.85-1.38-0.19-2.61-0.75-2.75-1.25-0.14-0.49-0.7-0.68-1.25-0.4-0.55 0.27-1 0.05-1-0.5 0-0.55-0.45-0.78-1-0.5-0.55 0.27-6.51-1.38-13.25-3.68-6.74-2.29-12.36-4.54-12.5-5-0.14-0.45-0.93-0.6-1.75-0.32-0.83 0.27-2.51-0.12-3.75-0.89-1.24-0.76-4.61-1.89-7.5-2.5-2.89-0.61-5.48-1.56-5.75-2.11-0.28-0.55-0.95-0.78-1.5-0.5-0.55 0.27-2.69-0.19-4.75-1.02-2.06-0.84-4.76-1.52-6-1.5-1.24 0.01-2.25-0.43-2.25-0.98 0-0.55-0.9-0.78-2-0.5-1.1 0.27-2 0.16-2-0.25 0-0.41-1.12-0.86-2.5-1-1.37-0.14-3.29-0.66-4.25-1.15-0.96-0.5-3.1-1.13-4.75-1.4-1.65-0.27-5.14-0.99-7.75-1.6-2.61-0.6-4.75-1.55-4.75-2.1 0-0.55-0.56-0.73-1.25-0.4-0.69 0.33-2.83 0.07-4.75-0.58-1.93-0.64-4.63-1.36-6-1.6-1.38-0.23-4.3-0.85-6.5-1.36-2.2-0.52-8.05-1.92-13-3.11-4.95-1.2-9.68-2.33-10.5-2.53-0.83-0.19-5.22-1.15-9.77-2.13-4.54-0.99-8.26-2.13-8.25-2.54 0.01-0.41-0.43-0.53-0.98-0.25-0.55 0.27-3.36 0.18-6.25-0.22-2.89-0.39-5.81-1.29-6.5-2-0.69-0.7-1.25-0.83-1.25-0.28 0 0.55-0.34 0.8-0.75 0.56-0.41-0.24-3.23-0.74-6.25-1.12-3.03-0.37-5.73-0.83-6-1.02-0.28-0.19-6.13-1.27-13-2.42-6.88-1.14-13.51-2.17-14.75-2.29-1.24-0.11-2.25-0.44-2.25-0.71 0-0.28-1.92-0.57-4.25-0.65-2.34-0.08-5.6-0.39-7.25-0.69-1.65-0.3-5.25-0.82-8-1.15-2.75-0.33-6.58-0.77-8.5-0.97-1.93-0.2-6.43-0.67-10-1.05-3.58-0.38-7.4-0.86-8.5-1.07-1.1-0.21-4.7-0.61-8-0.88-3.3-0.27-8.14-0.62-10.75-0.77-2.62-0.15-4.76-0.5-4.75-0.77 0-0.28-3.6-0.39-8-0.25-4.59 0.14-8.21-0.18-8.5-0.75-0.28-0.55-0.95-0.78-1.5-0.5-0.55 0.27-1.88-1.41-2.97-3.75-1.08-2.34-3.13-7.18-4.55-10.75-1.43-3.58-2.73-6.95-2.89-7.5-0.16-0.55-0.64-1.9-1.07-3-0.44-1.1-1.64-4.03-2.68-6.5-1.04-2.48-1.88-5.29-1.86-6.25 0.01-0.96-0.32-1.75-0.73-1.74-0.41 0-1.29-1.46-1.96-3.25-0.67-1.79-1-3.6-0.75-4.01 0.25-0.41 0.12-0.73-0.29-0.71-0.41 0.02-1.31-1.22-1.99-2.75-0.68-1.53-1.36-4.33-1.5-6.21-0.16-2.08 0.23-3.55 0.99-3.75 0.69-0.18 1.25-0.78 1.25-1.33 0-0.55 1.01-2.07 2.25-3.37 1.24-1.31 3.04-3.34 4-4.5 0.96-1.17 1.75-2.36 1.75-2.63 0-0.28 0.66-1.29 1.48-2.25 0.81-0.96 2.61-2.99 4-4.5 1.38-1.51 2.51-3.09 2.5-3.5-0.01-0.41 2.03-3.45 4.55-6.75 2.51-3.3 5.11-6.71 5.77-7.57 0.66-0.86 1.87-2.71 2.7-4.12 0.82-1.4 2.73-4.07 4.23-5.93 1.5-1.86 4.98-6.31 7.72-9.88 2.75-3.58 5.35-6.95 5.78-7.5 0.42-0.55 2.1-2.8 3.71-5 1.62-2.2 3.54-4.34 4.25-4.75 0.72-0.41 1.31-1.2 1.31-1.75 0-0.55 0.56-1.62 1.25-2.39 0.69-0.76 1.93-2.22 2.76-3.25 0.84-1.02 2.62-3.44 3.97-5.36 1.35-1.93 2.92-4.01 3.49-4.63 0.57-0.62 1.7-2.14 2.53-3.37 0.82-1.23 2.06-2.86 2.75-3.62 0.69-0.76 1.25-1.83 1.25-2.38 0-0.55 0.34-1.11 0.75-1.25 0.41-0.14 2.77-2.73 5.25-5.75 2.47-3.03 4.84-5.61 5.25-5.75 0.41-0.14 0.76-0.81 0.77-1.5 0.01-0.69 1.91-3.5 4.23-6.25 2.32-2.75 4.56-5.11 4.98-5.25 0.42-0.14 0.77-0.93 0.77-1.75 0-0.83 0.34-1.61 0.77-1.75 0.42-0.14 5.01-5.65 10.19-12.25 5.19-6.6 9.8-12.11 10.24-12.25 0.44-0.14 0.8-0.7 0.8-1.25 0-0.55 0.56-1.63 1.25-2.41 0.69-0.78 2.82-3.32 4.75-5.66 1.92-2.33 3.95-4.73 4.5-5.34 0.56-0.6 3.03-3.57 5.49-6.59 2.47-3.03 4.71-5.73 5-6 0.28-0.28 2.75-3.2 5.49-6.5 2.74-3.3 5.22-6.23 5.52-6.5 0.3-0.28 2.34-2.85 4.52-5.72 2.19-2.87 4.33-4.89 4.76-4.5 0.43 0.4 0.76 0.16 0.75-0.53-0.02-0.69 0.64-1.93 1.47-2.75 0.82-0.83 1.41-1.19 1.3-0.8-0.11 0.38 0.43 0.16 1.2-0.5 0.77-0.66 1.98-1.2 2.7-1.2zm-6.7 68.5c0 0.27-0.46 1.06-1.03 1.75-0.56 0.69-2.82 3.27-5.02 5.75-2.2 2.47-4 4.95-3.99 5.5 0.01 0.55-1.32 2.01-2.97 3.25-1.64 1.24-2.98 2.59-2.97 3 0.02 0.41-2.01 3-4.5 5.75-2.49 2.75-4.53 5.34-4.53 5.75 0.01 0.41-0.78 1.6-1.74 2.65-0.96 1.04-2.68 2.96-3.81 4.25-1.13 1.29-3.38 4.15-5 6.35-1.62 2.2-3.28 4.11-3.69 4.25-0.41 0.14-0.75 0.92-0.75 1.75 0 0.82-0.68 1.72-1.5 2-0.83 0.27-1.28 0.95-1 1.5 0.27 0.55 0.05 1-0.5 1-0.55 0-1 0.45-1 1 0 0.55-1.58 2.57-3.5 4.5-1.93 1.92-3.28 3.5-3 3.5 0.27 0-0.4 1.12-1.5 2.5-1.1 1.37-2 2.72-2 3 0 0.27-0.9 1.4-2 2.5-1.1 1.1-2.34 2-2.75 2-0.41 0-1.29 1.23-1.95 2.75-0.65 1.51-2.42 4.1-3.93 5.75-1.5 1.65-4.34 5.3-6.3 8.12-1.96 2.82-5.6 7.5-8.07 10.41-2.48 2.92-4.95 5.81-5.5 6.43-0.55 0.62-1.58 2.01-2.28 3.08-0.7 1.08-2.05 3.19-3 4.7-0.95 1.51-2.28 2.75-2.97 2.75-0.69 0.01-1.15 0.35-1.03 0.76 0.12 0.41-0.65 2.1-1.72 3.75-1.08 1.65-2.22 3.22-2.55 3.5-0.33 0.27-2.48 3.31-4.78 6.75-2.29 3.44-4.62 6.25-5.17 6.25-0.55 0-0.8 0.34-0.55 0.75 0.25 0.41-1.1 2.55-3.01 4.75-1.9 2.2-3.72 4.9-4.04 6-0.34 1.17 0.49 4.18 2.01 7.25 1.42 2.89 3.15 5.55 3.84 5.91 0.69 0.36 4.62 0.79 8.75 0.96 4.12 0.16 9.52 0.6 12 0.96 2.47 0.36 6.07 0.77 8 0.92 1.92 0.14 6.2 0.56 9.5 0.93 3.3 0.37 8.47 1.08 11.5 1.59 3.02 0.5 7.75 1.2 10.5 1.56 2.75 0.35 5.22 0.77 5.5 0.94 0.27 0.16 3.65 0.61 7.5 1 3.85 0.39 7.22 0.84 7.5 1.01 0.27 0.16 3.2 0.61 6.5 1 3.3 0.38 6.45 0.94 7 1.24 0.55 0.3 2.12 0.72 3.5 0.93 1.37 0.21 3.51 0.37 4.75 0.34 1.24-0.02 2.25 0.41 2.25 0.96 0 0.55 0.56 0.76 1.25 0.46 0.69-0.3 4.62 0.15 8.75 1 4.12 0.85 8.51 1.54 9.75 1.54 1.24 0 2.25 0.45 2.25 1 0 0.55 0.56 0.76 1.25 0.46 0.69-0.29 5.52 0.45 10.75 1.65 5.22 1.2 10.96 2.34 12.75 2.54 1.79 0.19 3.25 0.69 3.25 1.1 0.01 0.41 1.69 0.86 3.75 1 2.06 0.13 4.2 0.69 4.75 1.24 0.55 0.55 1.22 0.77 1.5 0.49 0.27-0.28 1.85 0.01 3.5 0.64 1.65 0.63 3.9 1.26 5 1.4 1.1 0.13 2.9 0.52 4 0.86 1.1 0.34 2.9 0.79 4 1.01 1.1 0.21 7.17 1.83 13.5 3.6 6.32 1.77 11.95 3.31 12.5 3.44 0.55 0.13 3.02 0.8 5.5 1.5 2.47 0.7 7.87 2.37 12 3.72 4.12 1.35 8.06 2.65 8.75 2.9 0.69 0.25 1.36 0.44 1.5 0.42 0.14-0.02 2.72 0.82 5.75 1.86 3.02 1.04 5.84 1.95 6.25 2.03 0.41 0.08 2.1 0.36 3.75 0.64 1.65 0.27 3 0.84 3 1.25 0 0.41 0.56 0.84 1.25 0.94 0.69 0.11 2.15 0.41 3.25 0.67 1.1 0.27 2.11 0.52 2.25 0.56 0.14 0.05 0.59 0.22 1 0.39 0.41 0.18 2.67 0.97 5.02 1.75 2.35 0.79 4.26 1.66 4.25 1.94-0.01 0.27 0.99 0.59 2.23 0.71 1.24 0.12 2.36 0.68 2.5 1.25 0.14 0.57 0.7 0.81 1.25 0.54 0.55-0.28 5.05 1.07 10 3 5.3 2.06 9.21 3.09 9.5 2.5 0.27-0.55-0.85-3.25-2.5-6-1.65-2.75-3-5.23-3-5.5 0-0.28-1.13-1.63-2.5-3-1.38-1.38-2.73-3.4-3-4.5-0.28-1.1-0.95-2-1.5-2-0.56 0-0.68-0.76-0.27-1.75 0.45-1.08 0.35-1.47-0.25-1.03-0.54 0.39-1.88-0.96-2.98-3-1.1-2.05-2.77-4.4-3.71-5.22-0.94-0.83-1.73-2.06-1.75-2.75-0.02-0.69-0.49-1.25-1.04-1.25-0.55 0-0.78-0.45-0.5-1 0.27-0.55-0.18-1.23-1-1.5-0.83-0.28-1.28-0.95-1-1.5 0.27-0.55-0.18-1.23-1-1.5-0.83-0.28-1.5-1.18-1.5-2 0-0.83-0.68-1.73-1.5-2-0.83-0.28-1.5-0.95-1.5-1.5 0-0.55-0.46-1.56-1.02-2.25-0.56-0.69-1.93-2.38-3.04-3.75-1.11-1.38-2.23-3.29-2.48-4.25-0.25-0.96-0.91-1.75-1.46-1.75-0.55 0-0.8-0.34-0.55-0.75 0.24-0.41-0.41-1.43-1.45-2.25-1.04-0.83-1.69-1.84-1.45-2.25 0.25-0.41 0-0.75-0.55-0.75-0.55 0-2.35-2.03-4-4.5-1.65-2.48-2.78-4.5-2.5-4.5 0.27 0-0.63-1.24-2-2.75-1.38-1.51-2.51-3.31-2.5-4 0-0.69-0.45-1.03-1-0.75-0.55 0.27-1 0.05-1-0.5 0-0.55-0.56-1.56-1.25-2.25-0.69-0.69-2.42-2.83-3.86-4.75-1.44-1.93-2.67-3.84-2.75-4.25-0.08-0.41-1.15-1.66-2.39-2.78-1.24-1.12-1.8-2.03-1.25-2.03 0.55 0 0.21-0.44-0.75-0.97-0.96-0.53-1.75-1.42-1.75-1.97 0-0.55-1.13-1.9-2.5-3-1.38-1.1-2.5-2.45-2.5-3 0-0.55-1.56-2.69-3.46-4.75-1.91-2.06-3.26-4.09-3-4.5 0.25-0.41 0.01-0.75-0.54-0.75-0.55 0-0.99-0.56-0.98-1.25 0.01-0.69-1.34-2.26-3-3.5-1.66-1.24-3.02-2.93-3.02-3.75 0-0.83-0.34-1.48-0.75-1.45-0.41 0.02-2.74-2.57-5.17-5.75-2.44-3.19-7.05-8.95-10.26-12.8-3.21-3.85-5.95-7.45-6.08-7.99-0.13-0.54-1.59-2.44-3.24-4.21-1.65-1.78-4.41-4.93-6.14-7.01-1.72-2.09-3.19-4.13-3.25-4.54-0.06-0.41-1-1.54-2.09-2.5-1.09-0.96-1.69-2.09-1.34-2.5 0.36-0.41-0.17-0.75-1.18-0.75-1.01 0-1.55-0.34-1.2-0.75 0.35-0.41-0.47-1.54-1.83-2.5-1.36-0.96-2.47-2.2-2.47-2.75 0-0.55-1.24-2.25-2.75-3.78-1.51-1.53-4.33-4.63-6.25-6.89-1.93-2.25-4.29-5.05-5.25-6.21-0.96-1.17-1.41-2.1-1-2.09 0.41 0.02-0.49-0.88-2-2-1.51-1.11-2.69-2.44-2.62-2.95 0.08-0.51-1.72-2.76-4-5-2.27-2.24-3.91-4.08-3.63-4.08 0.27 0-1.41-2.08-3.75-4.63-2.34-2.55-4.15-4.91-4.04-5.25 0.12-0.34-0.92-1.3-2.31-2.12-1.39-0.83-2.84-2.57-3.21-3.88-0.38-1.31-1.59-2.86-2.69-3.45-1.1-0.59-2.69-1.19-3.54-1.32-0.85-0.14-2.54 0.85-3.75 2.2-1.22 1.35-2.21 2.67-2.21 2.95zm-155.11-225.7c0.89 0.28 2.06 0.89 2.61 1.35 0.55 0.46 1.35 0.5 1.78 0.09 0.43-0.41 0.76 0.05 0.75 1.01-0.02 0.96 0.42 1.52 0.97 1.25 0.55-0.28 1.1 0.07 1.21 0.76 0.12 0.7 1.32 2.16 2.67 3.25 1.35 1.1 3.75 3.11 5.34 4.49 1.59 1.37 6.35 5.78 10.58 9.78 4.24 4 8.04 7.27 8.45 7.25 0.41-0.02 0.75 0.64 0.75 1.47 0 0.82 0.56 1.51 1.25 1.53 0.69 0.02 3.05 1.82 5.25 4.01 2.2 2.19 4.34 3.97 4.75 3.97 0.41-0.01 0.75 0.66 0.75 1.49 0 0.82 0.45 1.5 1 1.5 0.55 0 3.92 2.92 7.5 6.5 3.57 3.57 6.16 6.51 5.75 6.52-0.41 0-0.15 0.34 0.59 0.75 0.92 0.5 1.1 1.52 0.57 3.23-0.42 1.37-2.72 4.52-5.12 7-2.4 2.47-4.34 4.84-4.32 5.25 0.01 0.41-0.42 0.75-0.97 0.75-0.55 0-1 0.45-1 1 0 0.55-1.8 2.8-4 5-2.2 2.2-4 4.22-4 4.5 0 0.27-1.01 1.6-2.25 2.95-1.24 1.35-2.71 3.04-3.28 3.75-0.56 0.72-2.12 2.87-3.45 4.8-1.33 1.92-2.67 3.72-2.97 4-0.31 0.27-2.1 2.3-3.99 4.5-1.89 2.2-3.69 3.93-4 3.85-0.31-0.08-0.45 0.25-0.31 0.75 0.14 0.49-0.2 0.9-0.75 0.9-0.55 0-1 0.67-1 1.5 0 0.82-0.45 1.27-1 1-0.55-0.28-1 0.17-1 1 0 0.82-0.68 2.17-1.5 3-0.83 0.82-1.73 1.5-2 1.5-0.28 0-0.55 0.34-0.61 0.75-0.07 0.41-1.37 2.32-2.89 4.25-1.53 1.92-4.41 5.19-6.39 7.25-1.99 2.06-3.27 3.74-2.86 3.72 0.41-0.02-0.24 0.77-1.46 1.75-1.21 0.98-2.23 2.12-2.25 2.53-0.02 0.41-0.83 1.71-1.79 2.88-0.96 1.16-2.76 3.19-4 4.5-1.24 1.3-2.25 2.82-2.25 3.37 0 0.55-0.45 1-1 1-0.55 0-1 0.67-1 1.5 0 0.82-0.68 1.72-1.5 2-0.83 0.27-1.28 0.95-1 1.5 0.27 0.55 0.05 1-0.5 1-0.55 0-1.9 1.57-3 3.5-1.1 1.92-2.68 3.5-3.5 3.5-0.83 0-1.28 0.45-1 1 0.27 0.55-0.74 1.92-2.25 3.03-1.51 1.12-2.3 2.04-1.75 2.04 0.55-0.01 0.32 0.54-0.5 1.21-0.83 0.67-3.08 3.55-5 6.4-1.93 2.85-3.84 4.99-4.25 4.75-0.41-0.24-0.75 0.24-0.75 1.07 0 0.82-0.68 1.72-1.5 2-0.83 0.27-1.5 1.17-1.5 2 0 0.82-0.56 1.49-1.25 1.47-0.69-0.01-0.91 0.21-0.5 0.5 0.41 0.29-0.04 1.36-1 2.37-0.96 1-2.43 2.87-3.25 4.13-0.83 1.27-2.62 3.71-3.98 5.42-1.37 1.71-2.72 3.33-3.01 3.61-0.29 0.27-1.65 2.18-3.02 4.24-1.37 2.06-2.83 3.75-3.24 3.75-0.41 0.01-0.75 0.57-0.74 1.26 0 0.69-0.78 1.98-1.75 2.88-0.97 0.9-2.73 2.92-3.92 4.5-1.19 1.58-2.24 3.32-2.32 3.87-0.09 0.55-0.81 1.34-1.59 1.75-0.79 0.41-1.43 1.42-1.43 2.25 0 0.82-0.9 1.95-2 2.5-1.1 0.55-1.78 1.45-1.5 2 0.27 0.55 0.16 0.95-0.25 0.88-0.41-0.06-1.09-0.06-1.5 0-0.41 0.07-1.31 0.24-2 0.38-0.69 0.14-2.46-1.55-3.93-3.75-1.47-2.21-2.49-4.35-2.25-4.76 0.24-0.41-0.25-0.98-1.07-1.25-0.83-0.28-1.5-1.18-1.5-2 0-0.83-0.45-1.5-1-1.5-0.55 0-1-0.45-1-1 0-0.55-2.01-4.04-4.47-7.75-2.46-3.71-4.48-7.31-4.5-8-0.02-0.69-0.48-1.25-1.03-1.25-0.55 0-1.29-1.01-1.65-2.25-0.35-1.24-0.64-2.48-0.63-2.75 0.01-0.28-0.83-1.06-1.85-1.75-1.03-0.69-1.65-1.93-1.37-2.75 0.27-0.83 0.05-1.5-0.5-1.5-0.55 0-2.58-2.48-4.5-5.5-1.93-3.03-3.5-5.95-3.5-6.5 0-0.55-0.34-0.99-0.75-0.97-0.41 0.02-1.65-1.78-2.75-3.99-1.1-2.21-2.34-4.02-2.75-4.03-0.41 0-0.53-0.46-0.25-1.01 0.27-0.55-0.18-1-1-1-0.83 0-1.28-0.45-1-1 0.27-0.55-0.06-1.34-0.75-1.75-0.69-0.41-2.08-2.33-3.09-4.25-1.01-1.93-1.59-4.4-1.29-5.5 0.3-1.1 2.51-4.93 4.91-8.5 2.41-3.58 7.66-11.23 11.68-17 4.02-5.78 8.48-12.08 9.92-14 1.44-1.93 2.96-3.61 3.37-3.75 0.41-0.14 0.75-0.93 0.75-1.75 0-0.83 0.34-1.5 0.75-1.5 0.41 0.01 1.87-1.79 3.25-4 1.37-2.21 2.84-4.01 3.25-4 0.41 0 0.75-0.45 0.75-1 0-0.55 0.45-1.56 1.01-2.25 0.55-0.69 2.91-3.73 5.24-6.75 2.33-3.03 4.58-5.61 4.99-5.75 0.42-0.14 0.76-0.7 0.76-1.25 0-0.55 0.46-1.56 1.02-2.25 0.55-0.69 2.02-2.4 3.25-3.81 1.22-1.41 4.25-5.01 6.73-7.98 2.47-2.98 5.51-6.44 6.75-7.69 1.24-1.25 2.25-2.72 2.25-3.27 0-0.55 0.45-1 1-1 0.55 0 1-0.45 1-1 0-0.55 1.01-2.18 2.25-3.63 1.24-1.45 3.39-3.81 4.77-5.25 1.39-1.44 3.57-3.97 4.85-5.62 1.27-1.65 4.19-5.19 6.47-7.86 2.29-2.68 5.85-6.61 7.91-8.75 2.06-2.14 3.75-4.34 3.75-4.89 0-0.55 0.45-0.78 1-0.5 0.55 0.27 1 0.05 1-0.5 0-0.55 1.24-2.27 2.75-3.82 1.51-1.55 4.73-4.92 7.15-7.49 2.42-2.57 4.33-4.9 4.25-5.18-0.08-0.28 0.41-1.11 1.1-1.84 0.69-0.73 1.88-1.56 2.64-1.85 0.77-0.29 2.12-0.3 3-0.02zm-0.89 59.7c-1.1 0.27-1.78 0.95-1.5 1.5 0.27 0.55-0.63 1.9-2 3-1.38 1.1-2.5 2.45-2.5 3 0 0.55-0.45 1-1 1-0.55 0-1 0.67-1 1.5 0 0.82-0.45 1.27-1 1-0.55-0.28-1-0.05-1 0.5 0 0.55-2.59 3.66-5.75 6.92-3.16 3.25-6.99 7.3-8.5 9-1.51 1.69-3.54 4.31-4.5 5.81-0.96 1.51-2.43 3.49-3.25 4.4-0.83 0.92-2.51 2.84-3.75 4.27-1.24 1.43-2.25 3.05-2.25 3.6 0 0.55-0.79 1.23-1.75 1.51-0.96 0.28-1.43 0.84-1.03 1.25 0.39 0.41-0.39 1.53-1.75 2.49-1.36 0.96-2.24 2.31-1.96 3 0.29 0.69-0.5 1.7-1.75 2.25-1.24 0.55-2.15 1.34-2.01 1.75 0.14 0.41-0.31 1.35-1 2.09-0.69 0.74-2.38 2.84-3.75 4.67-1.38 1.83-3.23 4.04-4.13 4.91-0.89 0.87-1.9 2.59-2.25 3.83-0.34 1.24-1.52 2.7-2.62 3.25-1.1 0.55-2 1.67-2 2.5 0 0.82-0.45 1.5-1 1.5-0.55 0-1.45 1.12-2 2.5-0.55 1.37-1.45 2.5-2 2.5-0.55 0-1 0.67-1 1.5 0 0.82-0.79 1.73-1.75 2.01-0.96 0.28-1.41 0.84-1 1.25 0.42 0.41 0.07 1.48-0.78 2.38-0.84 0.9-1.52 2.47-1.51 3.5 0.01 1.02 0.13 2.64 0.28 3.6 0.14 0.96 0.93 1.97 1.76 2.26 0.89 0.31 2.62-0.8 4.27-2.74 1.53-1.79 2.76-3.6 2.75-4.01-0.01-0.41 0.43-0.53 0.98-0.25 0.55 0.27 1-0.18 1-1 0-0.83 1.26-2.74 2.81-4.25 1.54-1.51 3.12-3.54 3.5-4.5 0.38-0.96 1.14-1.75 1.69-1.75 0.55 0 0.77-0.45 0.5-1-0.28-0.55 0.4-1.56 1.5-2.25 1.11-0.69 2.01-1.81 2-2.5 0-0.69 0.79-1.81 1.75-2.5 0.96-0.69 4-4.56 6.75-8.6 2.75-4.04 5.45-7.64 6-8 0.55-0.36 3.03-3.26 5.5-6.45 2.48-3.18 4.84-5.77 5.25-5.75 0.41 0.03 0.75-0.63 0.75-1.45 0-0.83 0.45-1.28 1-1 0.55 0.27 1-0.18 1-1 0-0.83 0.45-1.5 1-1.5 0.55 0 1-0.68 1-1.5 0-0.83 0.45-1.28 1-1 0.55 0.27 0.99-0.06 0.97-0.75-0.01-0.69 1.8-3.28 4.03-5.75 2.23-2.48 4.04-4.84 4.03-5.25-0.02-0.41 0.42-0.75 0.97-0.75 0.55 0 1-0.68 1-1.5 0-0.83 0.67-1.5 1.5-1.5 0.82 0 1.27-0.45 1-1-0.28-0.55 1.33-2.8 3.58-5 2.24-2.2 3.7-4.01 3.25-4.02-0.46 0-0.36-0.34 0.2-0.75 0.57-0.4 2.08-2.08 3.34-3.73 1.27-1.65 2.5-2.89 2.72-2.75 0.23 0.14 0.33 0.14 0.24 0-0.09-0.14 0.34-1.15 0.97-2.25 0.94-1.65 0.75-2.39-1.08-4.23-1.22-1.22-2.56-2.24-2.97-2.25-0.41-0.01-0.75 0.43-0.75 0.98 0 0.55-0.9 1.22-2 1.5zm81.92 15.53c0.87 0.43 3.04 2.17 4.83 3.87 1.79 1.71 3.47 3.1 3.75 3.1 0.27 0 1.62 1.12 3 2.5 1.37 1.37 2.5 2.95 2.5 3.5 0 0.55 0.45 0.77 1 0.5 0.55-0.28 1-0.05 1 0.5 0 0.55 2.04 3.14 4.53 5.75 2.5 2.61 4.52 4.41 4.5 4-0.01-0.41 0.64-0.08 1.47 0.75 0.82 0.82 1.5 1.95 1.5 2.5 0 0.55 0.34 0.8 0.75 0.55 0.41-0.25 1.73 0.53 2.92 1.75 1.2 1.21 4.92 5.12 8.28 8.7 3.35 3.57 6.08 6.84 6.07 7.25-0.01 0.41 0.65 0.75 1.48 0.75 0.82 0 1.55 0.56 1.62 1.25 0.06 0.69 0.06 1.59 0 2-0.07 0.41 0.55 0.75 1.38 0.75 0.82 0 1.75 1.01 2.07 2.25 0.31 1.24 0.76 1.91 1 1.5 0.23-0.41 1.55 0.49 2.91 2 1.37 1.51 2.86 3.2 3.32 3.75 0.45 0.55 1.14 2.01 1.51 3.25 0.48 1.56 0.23 2.4-0.81 2.75-0.83 0.27-1.73 1.4-2 2.5-0.28 1.1-0.95 1.77-1.5 1.5-0.55-0.28-1-0.05-1 0.5 0 0.55-0.79 1.8-1.75 2.77-0.96 0.97-3.31 3.78-5.21 6.25-1.91 2.46-4.95 5.94-6.75 7.73-1.81 1.79-3.29 3.47-3.29 3.75 0 0.27-1.02 1.74-2.27 3.25-1.25 1.51-3.38 4.32-4.74 6.25-1.36 1.92-3.73 4.85-5.26 6.5-1.54 1.65-2.78 3.34-2.76 3.75 0.01 0.41-0.65 0.75-1.47 0.75-0.83 0-1.28 0.45-1 1 0.27 0.55-0.51 2.2-1.75 3.67-1.24 1.47-3.94 4.4-6 6.5-2.06 2.11-3.75 4.28-3.75 4.83 0 0.55-0.68 1.22-1.5 1.5-0.83 0.27-1.5 1.17-1.5 2 0 0.82-0.34 1.61-0.75 1.75-0.41 0.14-2.1 2.23-3.75 4.64-1.65 2.42-4.56 6.02-6.47 8-1.91 1.99-3.49 3.96-3.5 4.4-0.02 0.43-0.48 1.1-1.03 1.5-0.55 0.39-1.68 1.96-2.5 3.49-0.83 1.53-1.84 2.76-2.25 2.75-0.41-0.02-0.75 0.64-0.75 1.47 0 0.82-0.34 1.48-0.75 1.45-0.41-0.02-2.78 2.56-5.25 5.73-2.48 3.18-5.4 6.84-6.5 8.15-1.1 1.31-2.9 3.4-4 4.65-1.1 1.25-3.13 3.76-4.5 5.57-1.38 1.81-3.4 4.25-4.5 5.43-1.1 1.18-2.68 3.4-3.5 4.93-0.83 1.53-2.85 4.39-4.5 6.34-1.65 1.96-3.79 4.39-4.75 5.41-0.96 1.01-1.75 2.29-1.75 2.84 0 0.55-1.15 2.12-2.55 3.5-1.4 1.37-2.3 2.5-2 2.5 0.3 0-0.24 0.94-1.2 2.08-0.96 1.15-2.57 3.06-3.57 4.25-1.01 1.2-3.03 4.08-4.5 6.42-1.48 2.33-3.24 4.25-3.93 4.25-0.69 0-1.2 0.34-1.13 0.75 0.06 0.41 0.06 1.31 0 2-0.07 0.69-0.8 1.25-1.62 1.25-0.83 0-1.28 0.45-1 1 0.27 0.55-0.18 1.22-1 1.5-0.83 0.27-1.5 1.17-1.5 2 0 0.82-0.68 1.72-1.5 2-0.83 0.27-1.39 0.88-1.25 1.35 0.14 0.47-1.33 2.76-3.25 5.09-1.93 2.33-4.06 4.87-4.75 5.65-0.69 0.78-1.25 1.86-1.25 2.41 0 0.55-0.34 0.99-0.75 0.98-0.41-0.01-1.43 1.57-2.25 3.52-0.83 1.95-2.06 3.53-2.75 3.52-0.69-0.01-1.03 0.43-0.75 0.98 0.27 0.55-0.4 1.22-1.5 1.5-1.1 0.27-2.68-0.18-3.5-1-0.83-0.83-1.16-1.51-0.75-1.52 0.41 0 0.07-0.44-0.75-0.96-0.83-0.52-1.52-1.3-1.55-1.73-0.02-0.44-5.11-10.92-11.32-23.29-6.2-12.38-11.69-23.06-12.2-23.75-0.51-0.69-0.71-1.7-0.43-2.25 0.27-0.55-0.03-1-0.67-1-0.64 0-0.87-0.34-0.51-0.75 0.36-0.41 0.01-1.2-0.78-1.75-0.79-0.55-1.57-1.66-1.74-2.48-0.16-0.81-0.86-2.05-1.55-2.75-0.69-0.7-1.03-1.72-0.75-2.27 0.27-0.55 0.16-0.98-0.25-0.96-0.41 0.02-2.61-3.69-4.89-8.25-2.28-4.56-4.39-8.97-4.69-9.79-0.3-0.83 0.56-3.19 1.9-5.25 1.33-2.06 2.2-3.75 1.93-3.75-0.28 0 0.61-1.01 1.96-2.25 1.35-1.24 2.48-2.59 2.5-3 0.02-0.41 0.6-1.4 1.29-2.19 0.69-0.79 2.37-3.08 3.75-5.08 1.37-1.99 3.51-4.72 4.75-6.05 1.24-1.34 2.25-2.66 2.25-2.93 0-0.28 0.56-1.12 1.25-1.89 0.69-0.76 2.04-2.34 3-3.5 0.96-1.16 1.75-2.56 1.75-3.11 0-0.55 1.35-2.35 3-4 1.65-1.65 3-3.45 3-4 0-0.55 0.45-1 1-1 0.55 0 1.22-0.79 1.49-1.75 0.28-0.96 1.51-2.95 2.75-4.42 1.24-1.47 3.16-3.9 4.26-5.41 1.1-1.51 2.45-3.24 3-3.84 0.55-0.59 2.13-2.76 3.5-4.82 1.38-2.06 2.84-3.75 3.25-3.75 0.41-0.01 0.75-0.46 0.75-1.01 0-0.55 0.56-1.6 1.25-2.33 0.69-0.74 2.15-2.58 3.25-4.1 1.1-1.53 3.24-4.41 4.75-6.42 1.51-2.01 3.99-5.16 5.5-7 1.51-1.84 3.2-3.87 3.75-4.5 0.55-0.64 2.8-3.39 5-6.11 2.2-2.73 5.01-6 6.25-7.25 1.24-1.26 2.25-2.63 2.24-3.04-0.01-0.41 0.9-1.43 2.01-2.25 1.11-0.83 2.02-1.95 2.01-2.5 0-0.55 1.24-2.35 2.76-4 1.52-1.65 4.32-5.03 6.24-7.5 1.91-2.48 3.8-4.95 4.2-5.5 0.4-0.55 1.91-2.35 3.36-4 1.44-1.65 4.49-5.19 6.78-7.86 2.28-2.68 4.6-5.38 5.15-6 0.55-0.63 3.47-4.07 6.49-7.64 3.03-3.58 5.73-6.73 6.02-7 0.28-0.28 2.54-2.97 5-5.99 2.47-3.02 5.36-6.45 6.41-7.62q1.93-2.13 3.5-1.36zm-1.32 62.67c-2.03 2.09-3.89 4.59-4.14 5.55-0.25 0.96-1.36 1.97-2.46 2.25-1.1 0.27-1.78 0.95-1.5 1.5 0.27 0.55-0.18 1.22-1 1.5-0.83 0.27-1.5 0.95-1.5 1.5 0 0.55-0.79 1.96-1.75 3.13-0.96 1.18-3.55 4.16-5.75 6.64-2.2 2.47-4.9 5.47-6 6.67-1.1 1.19-3.13 3.83-4.5 5.86-1.38 2.03-2.84 3.69-3.25 3.69-0.41 0.01-1.74 1.7-2.95 3.76-1.21 2.06-2.99 4.42-3.96 5.25-0.97 0.82-1.78 2.06-1.8 2.75-0.02 0.69-0.76 1.59-1.63 2-0.87 0.41-1.61 1.2-1.63 1.75-0.02 0.55-0.2 1.56-0.41 2.25-0.2 0.69-1.05 1.25-1.87 1.25-0.83 0-1.39 0.45-1.25 1.01 0.14 0.55-1.1 2.62-2.75 4.6-1.65 1.98-4.2 4.9-5.67 6.49-1.47 1.6-2.49 2.9-2.25 2.9 0.23 0-0.71 1.35-2.08 3-1.38 1.65-2.5 3.45-2.5 4 0 0.55-0.68 1-1.5 1-0.83 0-1.43 0.34-1.34 0.75 0.09 0.41-0.14 1.54-0.5 2.5-0.36 0.96-1.11 1.52-1.66 1.25-0.55-0.28-1-0.05-1 0.5 0 0.55-0.56 1.71-1.25 2.57-0.69 0.86-2.04 2.33-3.01 3.25-0.97 0.92-1.75 2.13-1.74 2.68 0.01 0.55-1.34 2.46-2.99 4.25-1.66 1.79-3.01 3.47-3.01 3.75 0 0.27-1.69 2.76-3.75 5.51-2.06 2.76-4.09 5.01-4.5 5-0.41 0-0.53 0.44-0.25 0.99 0.27 0.55-0.74 2.29-2.25 3.86-1.51 1.57-2.86 3.82-3 5-0.14 1.18 0.54 3.02 1.5 4.1 1.73 1.92 1.79 1.91 4.5-1 1.51-1.63 2.75-2.62 2.75-2.21 0.01 0.41 0.91-0.71 2-2.5 1.1-1.79 2.45-3.25 3-3.25 0.55 0 0.79-0.34 0.53-0.75-0.26-0.41 0.53-1.88 1.75-3.25 1.21-1.38 4.57-5.76 7.46-9.75 2.9-3.99 5.6-7.25 6.01-7.25 0.41 0 0.86-0.45 1-1 0.14-0.55 0.25-1.34 0.25-1.75-0.01-0.41 1.01-1.88 2.25-3.27 1.24-1.39 4.48-5.44 7.21-9 2.73-3.56 5.21-6.71 5.51-6.98 0.3-0.28 1.86-2.3 3.47-4.5 1.61-2.2 4.2-5.24 5.75-6.75 1.54-1.51 2.81-2.98 2.81-3.25 0-0.28 1.46-2.41 3.25-4.75 1.79-2.34 4.02-4.92 4.96-5.75 0.94-0.82 1.73-1.84 1.75-2.25 0.02-0.41 0.83-1.71 1.79-2.88 0.96-1.16 2.76-3.19 4-4.5 1.24-1.3 2.26-2.71 2.27-3.12 0-0.41 1.24-2.17 2.75-3.91 1.5-1.74 3.63-4.41 4.73-5.93 1.1-1.52 3.5-4.6 5.34-6.84 1.84-2.24 4.99-6.04 7-8.46 2.01-2.41 4.43-5.56 5.38-7 1.65-2.52 1.63-2.71-0.62-5.41l-2.32-2.79z"/>
	</g>
</svg>