<svg version="1.2" xmlns="http://www.w3.org/2000/svg" viewBox="0 0 1112 1110" width="1112" height="1110">
	<style>
		.s0 { fill: #ffffff } 
	</style>
	<g id="icons">
		<path id="-e purified" class="s0" d="m543 1.62c-3.03 0.82-7.71 2.71-10.4 4.19-2.7 1.48-7.4 5.16-10.44 8.19-3.56 3.53-6.73 8.01-8.86 12.5-1.82 3.85-3.75 9.7-4.3 13-0.62 3.79-0.98 63.2-0.97 161 0 98.74 0.38 157.54 1.02 162 0.55 3.86 2.39 9.92 4.08 13.5 1.79 3.78 5.44 8.95 8.72 12.35 3.11 3.22 7.67 7.03 10.15 8.46 2.47 1.44 7.09 3.41 10.25 4.4 3.48 1.08 8.81 1.78 13.5 1.77 4.26-0.01 10.34-0.68 13.5-1.5 3.16-0.81 8.54-3.17 11.96-5.23 3.69-2.23 8.19-6.18 11.11-9.75 2.7-3.3 5.83-8.03 6.95-10.5 1.12-2.48 2.64-6.75 3.37-9.5 1.09-4.06 1.34-34.87 1.35-164.25 0.01-112.88-0.31-160.78-1.1-164.5-0.61-2.89-2.75-8.39-4.75-12.23-2-3.84-5.89-9.26-8.64-12.03-2.75-2.78-7.93-6.5-11.5-8.27-3.58-1.76-8.98-3.67-12-4.23-3.03-0.55-8.2-0.98-11.5-0.93-3.3 0.04-8.48 0.74-11.5 1.56zm-505.5 506.41c-2.2 0.45-5.8 1.58-8 2.52-2.2 0.93-6.03 3.09-8.5 4.81-2.48 1.71-6.08 4.79-8 6.84-1.93 2.05-4.96 6.11-6.75 9.01-2 3.26-3.91 8.36-4.96 13.29-1.48 6.93-1.54 9.13-0.49 16.5 0.77 5.37 2.36 10.89 4.31 15 1.97 4.14 5.33 8.74 9.24 12.66 4.05 4.06 8.37 7.18 12.65 9.16 3.57 1.65 9.42 3.51 13 4.13 4.68 0.81 51.56 1.05 167.5 0.84l161-0.29c8.52-3.41 14.08-6.78 17.85-9.7 3.95-3.05 8.38-7.63 10.44-10.8 1.97-3.03 4.37-7.75 5.33-10.5 0.96-2.75 2.06-7.93 2.44-11.5 0.42-3.87 0.21-9.34-0.5-13.5-0.66-3.85-2.52-9.7-4.13-13-1.61-3.3-5.07-8.3-7.68-11.1-2.61-2.81-6.78-6.47-9.25-8.13-2.48-1.66-6.75-3.86-9.5-4.9-4.81-1.8-11.3-1.88-168.5-2.02-89.93-0.08-165.3 0.23-167.5 0.68zm704.5 0.59c-3.03 0.82-7.7 2.71-10.39 4.19-2.68 1.48-7.2 5.16-10.03 8.19-2.82 3.02-6.93 9.07-9.11 13.44-3.76 7.51-3.99 8.51-4.31 18.5-0.28 8.78 0.03 11.66 1.83 17.06 1.19 3.57 3.59 8.71 5.34 11.41 1.74 2.71 5.23 6.76 7.75 9 2.52 2.25 6.8 5.3 9.5 6.78 2.71 1.48 7.62 3.39 10.92 4.25 5.33 1.39 23.92 1.57 165.5 1.58 103.04 0 161.45-0.36 165-1.01 3.02-0.55 8.65-2.54 12.5-4.41 4.75-2.31 8.78-5.28 12.52-9.25 3.04-3.22 6.72-8.33 8.18-11.35 1.46-3.03 3.12-7.53 3.7-10 0.58-2.48 1.06-7.88 1.08-12 0.01-4.18-0.76-10.37-1.76-14-0.98-3.58-2.95-8.53-4.38-11-1.42-2.48-5.24-6.98-8.48-10-3.24-3.03-8.02-6.51-10.62-7.75-2.61-1.24-7.33-2.93-10.49-3.76-5.01-1.31-26.51-1.49-167.25-1.43-139.86 0.06-162.24 0.27-167 1.56zm-193.5 198.42c-3.3 0.39-8.93 2.09-12.5 3.78-4.18 1.98-8.77 5.33-12.84 9.38-3.49 3.46-7.41 8.1-8.72 10.3-1.3 2.2-3.16 6.25-4.13 9-1.65 4.68-1.79 15.03-2.07 164-0.23 119.54-0.01 160.74 0.88 166 0.69 4.07 2.75 10.14 4.93 14.5 2.67 5.36 5.41 9.02 9.59 12.8 3.22 2.92 8.56 6.61 11.86 8.2 3.37 1.63 9.28 3.38 13.5 3.99 5.31 0.78 9.47 0.79 14.25 0.05 3.71-0.57 8.89-1.85 11.5-2.83 2.61-0.99 5.87-2.57 7.25-3.51 1.37-0.95 4.75-3.91 7.5-6.58 2.75-2.68 6.43-7.51 8.19-10.74 1.75-3.24 3.89-8.58 4.75-11.88 1.39-5.33 1.57-23.97 1.59-166 0.01-156.09-0.04-160.16-1.95-166.5-1.08-3.58-3.74-9.2-5.92-12.5-2.17-3.3-6.02-7.91-8.56-10.25-2.53-2.34-6.74-5.33-9.35-6.64-2.61-1.32-6.55-2.86-8.75-3.43-2.2-0.57-6.48-1.22-9.5-1.44-3.03-0.23-8.2-0.09-11.5 0.3zm-278.5-474.39c-3.58 0.79-8.98 2.79-12 4.43-3.03 1.64-7.08 4.45-9 6.24-1.93 1.79-4.93 5.04-6.68 7.22-1.76 2.18-4.34 6.77-5.75 10.21-1.59 3.87-2.8 9.2-3.18 14-0.35 4.35-0.13 10.38 0.5 13.75 0.61 3.3 2.54 8.92 4.28 12.5 2.87 5.88 10.02 13.35 75.25 78.67 53.11 53.17 73.79 73.25 78.58 76.28 3.57 2.26 8.75 4.74 11.5 5.52 2.75 0.77 7.92 1.59 11.5 1.82 3.57 0.22 9.2-0.14 12.5-0.79 3.3-0.66 8.43-2.5 11.39-4.1 2.96-1.59 7.72-5.15 10.58-7.9 2.85-2.75 6.39-6.91 7.86-9.25 1.47-2.34 3.57-6.95 4.67-10.25 1.1-3.3 2.17-8.59 2.39-11.75 0.21-3.16-0.02-8.45-0.52-11.75-0.5-3.3-2.52-9.38-4.5-13.5-3.47-7.25-6.05-9.95-77.23-81.05-54.3-54.23-74.95-74.24-78.64-76.19-2.75-1.45-7.93-3.34-11.5-4.19-3.58-0.85-8.53-1.5-11-1.45-2.48 0.04-7.43 0.73-11 1.53zm552.5-0.66c-2.2 0.42-6.03 1.64-8.5 2.7-2.48 1.07-6.3 3.15-8.5 4.64-2.2 1.48-35.89 34.53-74.87 73.43-45.87 45.79-72.25 72.86-74.8 76.74-2.16 3.3-4.81 8.92-5.9 12.5-1.18 3.9-1.96 9.3-1.94 13.5 0.02 3.85 0.64 9.25 1.37 12 0.74 2.75 2.61 7.47 4.15 10.5 1.55 3.02 4.88 7.67 7.4 10.33 2.53 2.66 6.61 6.11 9.09 7.67 2.47 1.57 7.42 3.84 11 5.06 4.86 1.66 8.77 2.21 15.5 2.19 6.66-0.02 10.56-0.59 15-2.2 3.3-1.19 8.7-4.13 12-6.52 3.3-2.4 37.76-36.24 76.58-75.2 63.82-64.05 70.92-71.5 74.21-77.83 2.54-4.88 4-9.42 4.83-15 1.01-6.8 0.95-9.2-0.46-16-0.91-4.4-2.89-10.47-4.41-13.49-1.51-3.02-5.45-8.22-8.75-11.56-3.77-3.81-8.42-7.23-12.5-9.21-3.58-1.74-8.98-3.63-12-4.21-3.03-0.58-7.53-1-10-0.93-2.48 0.07-6.3 0.46-8.5 0.89zm-419.5 416.97c-3.03 1.04-7.75 3.12-10.5 4.62-3.47 1.89-19.64 17.28-52.85 50.32-26.32 26.18-58.72 58.54-72 71.92-13.28 13.38-25.41 26.2-26.94 28.5-1.54 2.3-3.74 6.65-4.89 9.68-1.21 3.17-2.3 8.89-2.58 13.5-0.26 4.4 0.03 10.47 0.65 13.5 0.62 3.02 2.53 8.42 4.23 12 1.9 3.99 5.18 8.52 8.49 11.75 3.59 3.49 8.32 6.64 14.14 9.41 7.41 3.53 9.98 4.24 16.75 4.63 5.49 0.31 9.96-0.05 14.25-1.17 3.44-0.89 8.39-2.6 11-3.8 3.75-1.73 20.37-17.8 78.84-76.25 71.07-71.05 74.24-74.38 77.76-81.57 2.29-4.68 3.99-9.94 4.52-14 0.48-3.63 0.48-9.81 0-14-0.56-4.85-1.93-9.71-3.87-13.75-1.65-3.44-5.36-8.76-8.25-11.83-2.89-3.07-7.5-6.99-10.25-8.72-2.75-1.72-7.59-3.94-10.75-4.92-3.61-1.12-8.82-1.77-14-1.75-5.42 0.03-10.14 0.69-13.75 1.93zm280-0.58c-2.48 0.72-6.75 2.44-9.5 3.84-2.75 1.39-7.64 4.94-10.86 7.9-4.24 3.9-6.96 7.59-9.84 13.38-3.63 7.28-4.04 8.9-4.54 18-0.46 8.32-0.2 11.18 1.52 17 1.33 4.46 3.69 9.17 6.53 13 2.45 3.3 36.79 38.2 76.32 77.56 60.45 60.2 72.82 72.06 77.87 74.66 3.3 1.71 8.92 3.66 12.5 4.34 3.65 0.7 9.57 1 13.5 0.69 3.85-0.3 9.7-1.63 13-2.95 3.3-1.32 7.8-3.73 10-5.35 2.2-1.62 5.69-4.75 7.76-6.95 2.07-2.2 5.34-7.15 7.28-11 2.07-4.11 3.99-9.89 4.65-14 0.86-5.27 0.85-8.86-0.03-14.5-0.74-4.79-2.5-10.21-4.87-15-3.53-7.15-7.11-10.91-76.75-80.73-72.67-72.86-73.08-73.25-81.04-76.99-7.48-3.51-8.68-3.77-18.5-3.98-6.36-0.14-12.27 0.29-15 1.08z"/>
	</g>
</svg>