<svg version="1.2" xmlns="http://www.w3.org/2000/svg" viewBox="0 0 1434 1318" width="1434" height="1318">
	<style>
		.s0 { fill: #ffffff } 
	</style>
	<g id="icons">
		<path id="-e trade evolve" fill-rule="evenodd" class="s0" d="m723.5 0.54c29.22 0.33 45.26 0.97 59.5 2.38 10.72 1.07 28.5 3.53 39.5 5.47 11 1.95 23.15 4.19 27 4.97 3.85 0.79 12.17 2.64 18.5 4.11 6.32 1.46 18.25 4.71 26.5 7.21 8.25 2.5 21.75 6.92 30 9.83 8.25 2.92 20.62 7.43 27.5 10.02 6.87 2.6 16.89 6.69 22.25 9.1 5.36 2.4 20.1 9.54 32.75 15.87 12.65 6.32 30.99 16.28 40.75 22.12 9.76 5.85 24.72 15.38 33.25 21.18 8.52 5.81 19.1 13.26 23.5 16.56 4.4 3.31 13.4 10.29 20 15.52 6.6 5.23 15.15 12.21 19 15.51 3.85 3.3 17.28 16.15 29.84 28.55 12.57 12.41 26.78 27.06 31.58 32.56 4.81 5.5 13.22 15.62 18.69 22.5 5.46 6.87 12.45 15.87 15.52 20 3.08 4.12 10.76 15.15 17.08 24.5 6.32 9.35 15.22 23.52 19.79 31.5 4.57 7.97 14.45 26.65 21.96 41.5 8.06 15.93 17.07 35.61 21.96 48 4.57 11.55 8.82 21.51 9.44 22.14 0.85 0.85 4.17-0.18 13.14-4.05 6.6-2.85 14.92-6.24 18.5-7.51 3.57-1.28 14.37-5.7 24-9.83 9.62-4.12 23.8-9.91 31.5-12.86 7.7-2.94 14.79-5.36 15.75-5.37 1.31-0.02 1.76 0.8 1.77 3.23 0.01 1.79-1.82 9.32-4.07 16.75-2.25 7.42-7.7 24.75-12.11 38.5-4.41 13.75-11.11 34.45-14.88 46-3.77 11.55-12.47 38.55-19.34 60-6.87 21.45-20.86 64.65-31.08 96-10.22 31.35-19.07 57.45-19.65 58-0.73 0.69-2.96-1.05-7.08-5.5-3.3-3.58-16.87-19.75-30.16-35.95-13.28-16.2-29.79-36.23-36.68-44.5-6.89-8.28-17.67-21.35-23.97-29.05-6.3-7.7-21.36-25.89-33.47-40.42-12.12-14.53-28.07-33.88-35.46-43-7.39-9.12-19.11-23.33-26.04-31.58-6.94-8.25-15.52-18.53-19.07-22.85-5.32-6.47-6.19-8.03-4.96-8.82 0.9-0.57 7.94-0.74 17.5-0.4 8.8 0.31 34.79 0.9 57.75 1.31 33.14 0.6 41.75 0.5 41.75-0.49 0-0.69-1.28-4.29-2.83-8-1.56-3.71-4.13-9.9-5.71-13.75-1.58-3.85-7.02-15.33-12.09-25.5-5.07-10.18-12.9-24.8-17.41-32.5-4.51-7.7-11.12-18.5-14.69-24-3.58-5.5-9.47-14.05-13.11-19-3.64-4.95-11.63-15.3-17.76-23-6.13-7.7-13.74-16.93-16.91-20.5-3.17-3.58-10.77-11.68-16.88-18-6.11-6.33-16.51-16.49-23.11-22.58-6.6-6.1-20.33-17.71-30.5-25.81-10.18-8.1-25.7-19.59-34.5-25.54-8.8-5.95-23.65-15.22-33-20.61-9.35-5.39-25.78-14.04-36.5-19.23-10.73-5.19-26.25-12.13-34.5-15.44-8.25-3.3-22.2-8.44-31-11.42-8.8-2.98-22.53-7.24-30.5-9.47-7.98-2.23-22.38-5.6-32-7.5-9.63-1.9-21.55-4.12-26.5-4.92-4.95-0.81-18.45-2.46-30-3.67-17.57-1.84-26.96-2.21-57.5-2.22-30.7-0.01-39.92 0.35-58 2.22-11.83 1.22-28.03 3.4-36 4.83-7.98 1.44-20.35 3.84-27.5 5.35-7.15 1.5-19.53 4.56-27.5 6.8-7.98 2.24-20.58 6.16-28 8.71-7.43 2.55-20.48 7.38-29 10.74-8.53 3.37-26.53 11.61-40 18.33-13.48 6.72-28.55 14.55-33.5 17.41-4.95 2.85-16.2 9.97-25 15.82-8.8 5.85-20.73 14.21-26.5 18.59-5.78 4.38-13.43 10.22-17 12.97-3.58 2.76-12.8 10.51-20.5 17.21-7.7 6.71-21.44 19.79-30.53 29.06-9.09 9.28-21.29 22.49-27.1 29.37-5.82 6.87-14.81 18.17-19.98 25.1-5.16 6.93-12.23 16.61-15.69 21.5-3.47 4.9-9.94 14.75-14.38 21.9-4.44 7.15-11.37 19.07-15.39 26.5-4.02 7.42-10.77 20.92-14.99 30-4.21 9.07-9.46 21-11.66 26.5-2.2 5.5-6.37 16.75-9.27 25-2.89 8.25-6.95 20.85-9.02 28-2.07 7.15-5.14 15.92-6.81 19.5-1.88 4.01-5.18 8.63-8.61 12.07-3.49 3.48-8.37 6.95-13.07 9.27-7.48 3.7-7.53 3.71-20.25 3.69-12.55-0.03-12.86-0.09-19.75-3.53-3.85-1.93-8.66-4.96-10.68-6.75-2.02-1.79-5.65-5.95-8.06-9.25-2.57-3.51-5.2-8.7-6.35-12.5-1.27-4.23-1.95-9.39-1.93-14.75 0.01-6.11 0.91-11.69 3.45-21.5 1.89-7.29 5.89-20.45 8.89-29.25 3-8.8 8.83-24.33 12.95-34.5 4.12-10.18 9.82-23.68 12.67-30 2.85-6.33 8.91-18.7 13.47-27.5 4.57-8.8 11.37-21.18 15.11-27.5 3.75-6.33 11.76-19.15 17.8-28.5 6.04-9.35 14.82-22.18 19.5-28.5 4.68-6.33 12.13-16 16.54-21.5 4.41-5.5 11.15-13.6 14.97-18 3.81-4.4 12.39-13.81 19.05-20.92 6.67-7.11 19.32-19.71 28.12-28.01 8.8-8.3 22.75-20.73 31-27.61 8.25-6.89 19.5-15.93 25-20.09 5.5-4.16 16.97-12.3 25.5-18.09 8.52-5.8 22.02-14.57 30-19.5 7.97-4.93 21.25-12.61 29.5-17.07 8.25-4.45 22.87-11.91 32.5-16.58 9.62-4.66 25.15-11.5 34.5-15.2 9.35-3.69 25.32-9.51 35.5-12.93 10.17-3.42 20.97-6.79 24-7.49 3.02-0.7 6.29-1.66 7.25-2.14 0.96-0.48 10.41-2.93 21-5.44 10.59-2.51 27.12-6.09 36.75-7.95 9.62-1.86 24.02-4.31 32-5.45 7.97-1.14 23.05-2.72 33.5-3.51 13.79-1.04 29.96-1.31 59-0.98zm-283.52 308.46c0.56 0 5.14 4.84 10.18 10.75 5.03 5.91 14.89 18.4 21.91 27.75 7.02 9.35 16.33 21.27 20.7 26.5 4.36 5.22 8.75 10.17 9.74 11 1.51 1.25 6.59 1.51 30.9 1.58 22.33 0.06 30.95 0.45 37.09 1.67 4.4 0.87 12.05 2.79 17 4.26 4.95 1.47 11.92 3.53 15.5 4.57 3.57 1.04 8.97 2.17 12 2.51 3.3 0.36 9.1-0.02 14.5-0.95 4.95-0.85 17.1-3.4 27-5.65 9.9-2.25 25.65-5.66 35-7.58 9.35-1.92 30.95-5.72 48-8.45 17.05-2.73 33.14-4.96 35.75-4.96 3.14 0 4.75 0.42 4.74 1.25 0 0.69-0.79 2.45-1.75 3.92-0.96 1.46-14.34 15.8-29.74 31.86-15.4 16.06-34.45 36.01-42.33 44.33-7.89 8.33-15.54 16.62-17 18.43q-2.68 3.3-1.67 4.32c0.61 0.61 18.65 1.54 46 2.36 24.75 0.74 45.11 1.39 45.25 1.44 0.14 0.05 0.25 0.76 0.25 1.59 0 0.82-3.26 4.02-7.25 7.11-3.99 3.08-14.68 10.6-23.75 16.69-9.08 6.1-25.05 17.47-35.5 25.27-10.45 7.79-19.9 15.13-21 16.31-1.1 1.17-1.78 2.32-1.5 2.54 0.27 0.22 6.8 1.13 14.5 2.02 7.7 0.88 16.7 2.07 20 2.63 3.3 0.57 6.67 1.44 7.5 1.94 1.33 0.82 1.33 1.08 0 2.42-0.83 0.83-12.53 7.19-26 14.14-13.48 6.95-27.2 14.55-30.5 16.88-3.3 2.34-7.28 5.78-8.85 7.65-2.55 3.04-2.78 3.88-2.14 7.9 0.39 2.47 2.28 9 4.2 14.5 1.92 5.5 6.14 15.29 9.39 21.75 3.24 6.46 5.67 12.2 5.4 12.75-0.28 0.55-2.3 1-4.5 1-2.2 0-4 0.22-4 0.5 0 0.27 1.14 2.19 2.53 4.25 1.39 2.06 2.52 4.42 2.51 5.25-0.01 0.82-0.78 2.62-1.7 4-0.93 1.37-4.65 5.81-8.26 9.85-5.04 5.63-7.05 7.24-8.58 6.84-1.1-0.28-6.39-2.24-11.75-4.35-5.37-2.11-10.09-3.5-10.5-3.09-0.41 0.41 0.48 3.34 1.97 6.5 2.09 4.41 2.73 7.27 2.74 12.25 0.02 5.23-0.75 8.45-3.92 16.5-2.17 5.5-5.89 13.82-8.28 18.5-2.39 4.67-5.99 10.97-8 14-2.01 3.02-5.81 7.61-8.45 10.19-2.65 2.58-6.05 5.17-7.56 5.75-2.05 0.79-3.08 0.74-4.03-0.19-0.71-0.69-1.94-3.73-2.74-6.75-0.84-3.19-1.46-10.13-1.47-16.5 0-6.05 0.33-16.51 0.74-23.25 0.75-12.19 0.74-12.26-1.75-14.75-1.56-1.56-3.63-2.5-5.5-2.5-1.65 0-4.24 0.61-5.75 1.36-1.51 0.75-5.26 4.69-8.33 8.75-3.08 4.07-7.69 10.88-10.25 15.14-2.57 4.26-6.19 11.46-8.05 16-1.85 4.54-4.16 10.72-5.13 13.75-0.96 3.02-2.26 6.1-2.87 6.82-0.62 0.73-2.25 1.18-3.62 1-1.82-0.23-3.25-1.69-5.24-5.32-1.51-2.75-4.36-9.95-6.33-16-3.04-9.3-3.6-12.47-3.68-20.5-0.09-9.05 0.1-9.95 4.05-19 2.28-5.23 4.16-10.51 4.18-11.75 0.01-1.43-0.71-2.43-1.98-2.75-1.12-0.28-5.31 1.05-9.5 3-4.43 2.07-9.19 5.24-11.64 7.75-2.27 2.34-7.16 8.75-10.85 14.25-3.69 5.5-7.47 10.67-8.38 11.5-0.92 0.82-2 1.11-2.4 0.62-0.4-0.48-1.52-3.85-2.48-7.5-0.97-3.64-1.75-10-1.75-14.12 0.01-4.13 0.48-10.43 1.04-14 0.57-3.58 1.53-8.08 2.14-10 0.7-2.21 4.63-7.09 10.71-13.27 7.78-7.91 9.18-9.77 7.36-9.75-1.24 0.01-6.86-1.6-12.5-3.58-5.64-1.97-16.1-6.57-23.25-10.2-7.15-3.64-17.05-9.32-22-12.64-4.95-3.31-11.7-8.76-15-12.1-3.3-3.34-8.81-10.67-18.5-26.46l1.31-29.5-3.16-2.75c-1.73-1.51-3.6-2.75-4.15-2.75-0.55 0-2.46 0.72-4.25 1.59-2.68 1.31-3.39 1.35-4.03 0.25-0.43-0.74-3.02-5.73-5.75-11.09-2.73-5.36-5.49-11.89-6.12-14.5-0.63-2.61-4.29-11.05-8.13-18.75-4.44-8.9-6.76-14.64-6.36-15.75 0.53-1.44 1.48-1.66 5.39-1.23 2.61 0.28 6.1 0.62 7.75 0.75 2.9 0.22 2.99 0.09 2.82-3.77-0.1-2.2-2.65-12.1-5.67-22-3.01-9.9-5.93-20.48-6.49-23.5-0.55-3.03-1.27-7.41-1.58-9.75-0.47-3.46-0.26-4.37 1.17-4.91 0.96-0.36 7.6 1.03 14.75 3.08 7.15 2.06 13.45 3.54 14 3.3 0.55-0.24 1.79-5.33 2.75-11.33 0.96-5.99 2.69-18.09 3.83-26.89 1.15-8.8 5.2-31.75 9-51 3.8-19.25 7.35-36.01 7.9-37.25 0.54-1.24 1.44-2.25 2-2.25zm522.99 72.5c0.48 0.55 1.62 3.92 2.54 7.5 0.91 3.57 2.78 9.65 4.14 13.5 1.36 3.85 3.46 8.33 4.66 9.94 1.21 1.62 4.44 3.96 7.19 5.19 2.75 1.23 9.17 3.5 14.27 5.05 5.1 1.55 9.28 3.04 9.29 3.32 0.01 0.27-1.24 1.03-2.77 1.68-1.53 0.65-7.52 2.61-13.29 4.36-8.36 2.54-11.16 3.88-13.75 6.57-2.34 2.44-4.02 5.92-6 12.4-2.73 8.93-2.78 9-6 9-2.45-0.01-3.13 0.36-2.75 1.49 0.27 0.82 0.5 1.95 0.5 2.5 0 0.55 0.99 1 2.2 1q2.18 0.01 1.25 1.02c-0.52 0.57-1.63 0.79-2.45 0.51-0.9-0.31-2.26-3.6-3.4-8.27-1.05-4.27-2.91-10.01-4.13-12.76-1.23-2.75-3.35-6.13-4.71-7.5-1.61-1.62-6.33-3.71-13.37-5.92-5.99-1.88-11.92-3.9-13.17-4.5-1.25-0.59-2.27-1.31-2.27-1.58 0-0.28 5.08-2.21 11.28-4.29 6.34-2.13 13.24-5.22 15.77-7.06 3.96-2.88 4.82-4.21 7.16-11.21 1.46-4.37 3.62-11.32 4.8-15.44 1.29-4.52 2.49-7.1 3.01-6.5zm-85.4 48.5c0.93 0 2.29 2.91 3.88 8.25 1.35 4.54 3.57 12.75 4.94 18.25 1.36 5.5 4.11 13.6 6.1 18 2 4.4 4.61 9.07 5.82 10.38 1.2 1.31 4.21 4.03 6.69 6.04 2.47 2 7.65 4.84 11.5 6.3 3.85 1.46 12.85 4.24 20 6.17 7.15 1.93 14.91 3.98 17.25 4.56 2.34 0.58 4.25 1.5 4.25 2.05 0 0.55-2.36 1.64-5.25 2.43-2.89 0.78-11.1 3.07-18.25 5.08-7.15 2.01-16.15 5.01-20 6.67-3.85 1.66-8.53 4.2-10.39 5.67-1.87 1.46-5.32 5.35-7.66 8.65-2.35 3.3-5.08 8.02-6.07 10.5-0.99 2.47-3.47 11.02-5.5 19-2.03 7.97-3.74 13.71-3.79 12.75-0.05-0.96-0.54-1.75-1.09-1.75-0.55 0-1 2.25-1 5 0 3.51-0.37 4.9-1.25 4.66-0.69-0.19-1.85-3-2.59-6.25-0.74-3.25-2.7-10.86-4.35-16.91-1.66-6.05-4.7-14.6-6.76-19-2.07-4.4-5.55-10.03-7.73-12.5-2.53-2.86-6.69-5.84-11.4-8.19-4.08-2.03-12.82-5.32-19.42-7.32-6.6-1.99-14.7-4.4-18-5.35-3.3-0.96-6.68-2.11-7.5-2.58-1.33-0.75-1.33-0.93 0-1.61 0.82-0.42 6.45-1.99 12.5-3.48 6.05-1.49 16.4-4.7 23-7.13 6.6-2.44 13.8-5.66 16-7.16 2.2-1.5 5.94-5.64 8.32-9.2 2.64-3.96 5.4-9.98 7.11-15.48 1.53-4.95 4.23-15.19 6-22.75 2.28-9.75 3.63-13.75 4.64-13.75zm-575.84 102c2.9 0 12.13 1.76 20.52 3.92 10.46 2.68 19.33 4.26 28.25 5.01 10.22 0.86 14.12 1.62 18.25 3.58 3.45 1.64 6.28 3.95 8.27 6.74 1.72 2.42 3.47 6.61 4.08 9.75 0.58 3.02 0.75 7.97 0.37 11-0.38 3.02-1.3 6.85-2.05 8.5-0.74 1.65-3.95 4.93-7.13 7.3-3.19 2.36-7.82 5-10.29 5.87-2.48 0.87-6.96 2.76-9.98 4.2-3.85 1.85-6.96 4.45-10.5 8.77-2.76 3.37-6.93 9.44-9.26 13.5-2.33 4.05-5.35 10.51-6.7 14.36-1.48 4.2-3.08 7.1-4.01 7.25-0.88 0.14-3.5-2.24-6.04-5.5-2.48-3.16-6.64-9.57-14.01-22.71l0.25-9.77c0.14-5.37-0.09-9.75-0.5-9.73-0.41 0.02-2.96 1.71-5.67 3.75-2.7 2.04-7.33 6.63-10.28 10.21-2.95 3.57-6.27 8.52-7.38 11-1.12 2.47-2.6 5.62-3.29 7-0.7 1.37-1.91 2.44-2.7 2.37-0.79-0.07-2.06-0.3-2.83-0.5-0.92-0.24-2.14 1.51-3.5 5.04-1.16 2.98-2.66 5.56-3.35 5.75-0.69 0.19-5.3-3.71-10.25-8.66-6.46-6.46-9.29-10.06-10.01-12.75-0.56-2.06-1.3-6.9-1.64-10.75-0.63-6.95-0.61-7.03 2.76-10.5 1.86-1.93 5.77-5.53 13.97-12.5l0.52-7c0.29-3.85 0.69-7.9 0.88-9 0.19-1.1 7.25-8.39 15.68-16.19 8.44-7.81 16.9-15.35 18.82-16.75 2.69-1.98 4.67-2.56 8.75-2.56zm463.05 33.01c0.4 0.01 3.87 1.89 7.72 4.18 3.85 2.29 11.27 7.08 16.5 10.64 5.22 3.56 16.53 11.7 25.12 18.07 8.59 6.38 21.41 15.87 28.47 21.1 7.07 5.22 16.24 11.93 20.38 14.91 4.14 2.97 8.02 6.12 8.63 7 0.98 1.41 1.18 1.37 1.81-0.41 0.39-1.1 0.97-5.6 1.28-10 0.32-4.4 0.97-8.79 1.45-9.75 0.47-0.96 1.2-1.76 1.61-1.76 0.41-0.01 5.92 3.81 12.25 8.48 6.32 4.67 11.72 8.34 12 8.15 0.27-0.19 2.07-4.07 4-8.62 1.92-4.55 3.84-8.43 4.25-8.64 0.41-0.2 2.89 2.19 5.5 5.31 2.61 3.12 5.87 6.94 9.75 11.31l10.5-6.09c5.77-3.35 18.15-9.69 27.5-14.09 9.35-4.41 20.15-9.27 24-10.81 3.85-1.53 8.69-3.06 10.75-3.39 2.06-0.33 3.76-0.26 3.76 0.15 0.01 0.41-3.14 9.97-7 21.25-3.86 11.27-7.01 21.29-7.01 22.25 0 0.96 0.45 1.97 1 2.25 0.55 0.27 8.63-1.41 17.96-3.75 9.33-2.34 17.32-3.9 17.75-3.46 0.44 0.43-0.04 3.36-1.05 6.5-1.02 3.14-2.93 7.62-4.25 9.96-2.02 3.55-2.16 4.33-0.91 4.75 0.82 0.27 5.66-0.4 10.75-1.49 5.09-1.1 22.75-4.25 39.25-7.01 16.5-2.76 37.65-5.91 47-7.02 9.35-1.1 22.17-2.73 28.5-3.63 6.32-0.89 12.74-1.34 14.25-0.99 2.1 0.49 2.75 1.23 2.75 3.14 0 1.42-1.91 4.98-4.42 8.25-2.42 3.16-12.85 15.87-23.15 28.25-10.31 12.37-26.66 31.66-36.34 42.86-9.67 11.19-20.68 24.02-24.45 28.5-3.77 4.47-7.31 9.04-7.85 10.14-0.55 1.1-0.72 3.01-0.39 4.25 0.33 1.24 1.5 2.7 2.6 3.25 1.32 0.66 4.28 0.67 8.75 0.02 3.71-0.54 24.97-1.01 47.25-1.04 35.78-0.06 40.67 0.12 42 1.52 1.34 1.42 1.29 2.11-0.41 6.3-1.05 2.58-1.5 4.82-1 4.96 0.5 0.14 3.27 1.61 6.16 3.25 2.89 1.64 6.04 4.19 7 5.65 1.73 2.63 1.71 2.69-1.15 4.75-1.6 1.15-5.16 3.89-12.93 10.09l0.67 6.5c0.48 4.58 0.3 7.01-0.58 8.23-1.11 1.52-2.08 1.61-8.26 0.73-3.85-0.54-7.9-0.69-9-0.34-1.1 0.36-10.1 5.87-20 12.25-10.5 6.77-26.75 15.98-39 22.11-19.76 9.9-21.11 10.76-22.93 14.52-1.07 2.2-3.43 9.06-5.25 15.25-1.83 6.19-4.7 14.74-6.4 19-1.69 4.26-5.51 13.15-13.89 31.75l9.03 26-0.57 31-4.28 11c-2.35 6.05-6.15 14.15-8.45 18-2.29 3.85-8.01 10.88-12.71 15.62-5.76 5.81-10.67 9.71-15.05 11.98-6.16 3.18-7.04 3.36-17 3.36-5.78 0.01-12.08-0.54-14-1.21-1.93-0.66-5.14-2.91-7.15-4.98-2.01-2.07-6.63-9.17-10.28-15.77-3.64-6.6-9.54-15.49-19.57-27.5l-5.25-0.04c-3.62-0.03-5.93 0.51-7.44 1.75-1.39 1.14-3.16 5.07-4.85 10.79-1.46 4.95-3.29 10.01-4.06 11.25-1.02 1.64-2.35 2.25-4.9 2.25-1.93 0-6.54-1.45-10.25-3.21-3.71-1.77-11.03-6.46-16.25-10.44-5.23-3.97-11.08-8.59-13-10.26-1.93-1.67-5.75-3.79-8.5-4.72-2.75-0.93-9.95-3.76-16-6.3-6.05-2.54-12.35-5.63-14-6.88-1.65-1.24-3.68-2.26-4.5-2.27-0.83 0-2.05 0.57-2.72 1.29-0.87 0.91-1.04 3.48-0.59 8.79 0.5 5.88 0.34 7.72-0.77 8.5-0.78 0.55-3.82 1-12.11 1l-1.93 5c-1.07 2.75-2.14 5.22-2.39 5.5-0.24 0.27-2.99-1.53-11.75-8.5l-5.7 7-2.65-2.5c-1.45-1.38-4.73-5.65-7.29-9.5-2.56-3.85-6.13-7.9-7.92-9-1.8-1.1-6.73-4.52-10.97-7.61-4.24-3.09-9.76-7.81-12.27-10.5-2.5-2.69-5.74-7.37-7.18-10.39-1.45-3.03-3.39-8.43-4.31-12-1.35-5.19-1.59-9.52-1.21-21.5 0.33-10.74 0.97-16.42 2.22-20 0.97-2.75 3.32-8.38 8.71-20l-1.58-10c-0.86-5.5-2.1-14.05-2.76-19-0.65-4.95-1.22-14.4-1.26-21-0.04-6.6 0.79-19.2 3.76-44l-6.32-8c-3.47-4.4-10.9-14.98-16.52-23.5-5.61-8.53-11.89-18.2-13.96-21.5-2.06-3.3-4.93-7.24-6.39-8.75-1.45-1.52-5.3-3.77-8.54-5-3.25-1.24-6.11-2.93-6.36-3.75-0.26-0.83 0.49-3.64 1.65-6.25 1.16-2.61 2.11-5.88 2.11-7.25 0-1.55-1.42-3.93-3.75-6.27-2.06-2.08-5.33-5-7.25-6.49-3.43-2.65-3.46-2.74-1.5-4.25 1.1-0.84 5.72-2.99 18.53-7.99l-0.77-7.26c-0.74-7.09-0.71-7.26 1.49-7.25 1.24 0.01 6.41 1.6 11.5 3.55 5.09 1.95 11.95 4.7 15.25 6.12 3.3 1.41 9.82 4.13 14.5 6.04 4.67 1.91 14.12 6.07 21 9.26 6.87 3.18 14.75 6.53 17.5 7.43 2.75 0.9 5.12 1.52 5.26 1.38 0.14-0.15-0.64-6.57-1.75-14.27-1.1-7.7-2.92-18.05-4.03-23-1.11-4.95-3.84-18.68-6.07-30.5-2.23-11.83-4.87-26.68-5.86-33-0.98-6.33-2.36-16.9-3.06-23.5-0.98-9.21-1-12.52-0.1-14.25 0.64-1.24 1.49-2.24 1.89-2.24zm-660.71 56.99c0.51 0 0.93 0.9 0.93 2q0 2 1.5 1.5c0.82-0.28 2.06 0.06 2.75 0.75 0.69 0.69 5.55 6.2 10.79 12.25 5.24 6.05 14.22 16.85 19.96 24 5.73 7.15 17.19 21.13 25.46 31.07 8.27 9.94 24.1 29.06 35.18 42.5 11.08 13.44 26.6 32.27 34.5 41.86 7.9 9.58 18.97 23.08 24.61 30 5.64 6.91 13.74 16.81 18 21.99 4.26 5.18 12.02 14.58 17.25 20.89 5.22 6.3 12.99 15.79 17.25 21.08 4.26 5.28 7.75 10.51 7.75 11.61 0 1.97-0.42 1.99-32.75 1.26-18.01-0.41-43.21-1.08-56-1.5-20.35-0.67-23.25-0.57-23.24 0.74 0.02 0.82 2.33 6.45 5.16 12.5 2.82 6.05 7.91 16.17 11.31 22.5 3.4 6.32 8.79 16 11.98 21.5 3.19 5.5 8.27 13.82 11.31 18.5 3.03 4.67 8.48 13 12.11 18.5 3.63 5.5 11.81 16.52 18.17 24.5 6.36 7.97 15.09 18.55 19.39 23.5 4.3 4.95 13.5 15.23 20.44 22.84 6.94 7.62 18.02 18.68 24.62 24.58 6.6 5.91 14.92 13.21 18.5 16.23 3.57 3.01 12.57 10.19 20 15.94 7.42 5.75 16.65 12.72 20.5 15.49 3.85 2.77 14.2 9.56 23 15.1 8.8 5.54 22.07 13.44 29.5 17.55 7.42 4.12 21.15 11.11 30.5 15.54 9.35 4.42 23.75 10.73 32 14.02 8.25 3.29 22.2 8.31 31 11.16 8.8 2.85 21.4 6.7 28 8.57 6.6 1.87 17.4 4.57 24 6 6.6 1.43 16.27 3.43 21.5 4.44 5.22 1.01 12.65 2.34 16.5 2.95 3.85 0.61 13.97 1.82 22.5 2.69 9.69 0.98 30.31 1.78 55 2.12 26.18 0.36 44.56 0.14 54.5-0.64 8.25-0.65 21.3-2.07 29-3.14 7.7-1.08 21.65-3.51 31-5.4 9.35-1.89 23.07-4.97 30.5-6.84 7.42-1.87 20.25-5.53 28.5-8.13 8.25-2.6 24.9-8.58 37-13.3 12.1-4.71 32.35-13.74 45-20.05 12.65-6.31 28.62-14.87 35.5-19.03 6.87-4.16 18.57-11.66 26-16.67 7.42-5.01 20.47-14.33 29-20.7 8.52-6.38 20-15.34 25.5-19.92 5.5-4.57 20.35-18.69 33.01-31.36 12.65-12.67 27.88-28.89 33.84-36.04 5.96-7.15 14.77-18.18 19.57-24.5 4.8-6.33 13.02-17.8 18.26-25.5 5.24-7.7 13.72-20.98 18.85-29.5 5.13-8.53 13.27-23.38 18.08-33 4.81-9.63 11.52-24.03 14.91-32 3.38-7.98 8.53-21.03 11.44-29 2.9-7.98 5.84-16.3 6.53-18.5 0.69-2.2 3.22-8.16 5.63-13.25 3.31-6.98 5.91-10.8 10.63-15.56 5.25-5.29 7.61-6.84 14.75-9.62 4.71-1.84 11.17-3.54 14.5-3.81 3.83-0.32 8.26 0.09 12.25 1.12 3.44 0.89 8.39 2.69 11 3.99 2.61 1.31 7.39 4.79 10.62 7.75 4.39 4.03 6.83 7.39 9.7 13.38 2.11 4.4 4.29 10.02 4.86 12.5 0.56 2.47 1.04 6.75 1.06 9.5 0.03 2.75-1.06 9.27-2.42 14.5-1.35 5.22-4.69 16.02-7.42 24-2.73 7.97-6.75 19-8.94 24.5-2.2 5.5-8.36 19.45-13.69 31-5.34 11.55-13.12 27.3-17.3 35-4.17 7.7-11.62 20.97-16.55 29.5-4.92 8.52-12.12 20.22-15.99 26-3.87 5.77-10.87 15.67-15.54 22-4.68 6.32-12.56 16.67-17.51 23-4.96 6.32-16.02 19.37-24.57 28.99-8.56 9.63-23.21 25.17-32.56 34.54-9.35 9.38-21.5 21.03-27 25.89-5.5 4.87-15.18 13-21.5 18.08-6.33 5.07-17.35 13.48-24.5 18.67-7.15 5.2-18.63 13.3-25.5 17.99-6.88 4.7-16.1 10.78-20.5 13.53-4.4 2.74-15.43 9.05-24.5 14.02-9.08 4.97-23.93 12.75-33 17.29-9.08 4.54-20.33 9.95-25 12-4.68 2.06-16.15 6.67-25.5 10.25-9.35 3.57-20.83 7.88-25.5 9.58-4.68 1.69-16.15 5.39-25.5 8.21-9.35 2.83-23.3 6.64-31 8.48-7.7 1.83-19.85 4.45-27 5.82-7.15 1.37-20.2 3.65-29 5.07-8.8 1.41-20.5 3.03-26 3.59-5.5 0.56-18.55 1.46-29 2-10.45 0.54-29.35 0.97-42 0.96-12.65-0.01-31.1-0.43-41-0.93-9.9-0.5-23.63-1.63-30.5-2.52-6.88-0.88-20.6-2.95-30.5-4.6-9.9-1.65-23.63-4.12-30.5-5.5-6.88-1.37-20.49-4.5-30.25-6.95-9.76-2.45-27.54-7.67-39.5-11.59-11.96-3.92-28.73-9.95-37.25-13.4-8.53-3.44-22.03-9.28-30-12.97-7.98-3.68-20.58-9.78-28-13.56-7.43-3.77-22.05-11.96-32.5-18.19-10.45-6.24-23.95-14.66-30-18.72-6.05-4.06-18.65-13.02-28-19.91-9.35-6.89-20.38-15.25-24.5-18.57-4.13-3.32-11.55-9.62-16.5-14-4.95-4.38-16.82-15.63-26.37-25-9.56-9.38-23.28-23.58-30.51-31.55-7.22-7.98-16.75-19-21.18-24.5-4.44-5.5-12.12-15.4-17.07-22-4.95-6.6-13.04-17.85-17.97-25-4.93-7.15-12.16-18.18-16.06-24.5-3.91-6.33-12.41-21.18-18.9-33-6.49-11.83-14.57-27.58-17.95-35-3.39-7.43-8.37-18.39-11.07-24.36-2.71-5.97-5.37-11.21-5.92-11.65-0.55-0.44-5.28 0.99-10.5 3.17-5.23 2.18-18.28 7.59-29 12.02-10.73 4.43-23.1 9.52-27.5 11.33-4.4 1.8-12.05 5.06-17 7.25-4.95 2.18-12.26 5.04-16.23 6.36-4.88 1.6-7.59 2.05-8.31 1.38-0.75-0.7 2.48-11.72 10.86-37 6.56-19.8 16.01-48.6 21-64 4.99-15.4 13.44-41.5 18.77-58 5.33-16.5 13.42-41.25 17.96-55 4.55-13.75 11.94-36.93 16.41-51.5 4.48-14.58 10.17-32.69 12.66-40.25 2.48-7.56 4.93-13.75 5.45-13.75z"/>
	</g>
</svg>