<svg version="1.2" xmlns="http://www.w3.org/2000/svg" viewBox="0 0 1139 1144" width="1139" height="1144">
	<style>
		.s0 { fill: #ffffff } 
	</style>
	<g id="icons">
		<path id="-e shiny" class="s0" d="m264.02 12.51c-3.37 6.92-6.1 12.78-6.07 13.03 0.03 0.25-4.27 9.12-9.55 19.71-5.28 10.59-13.21 26.9-17.62 36.25-4.41 9.35-10.17 21.5-12.79 27-2.63 5.5-10.22 21.14-16.88 34.75-6.66 13.61-12.11 24.97-12.11 25.25 0 0.27-1.69 4.15-3.75 8.6l-3.75 8.1c-50.38 24.87-74.68 36.8-86.5 42.56-11.83 5.77-27.8 13.52-35.5 17.24-7.7 3.71-24.24 11.76-36.75 17.88-12.51 6.11-22.75 11.57-22.75 12.12 0 0.55 3.94 2.87 8.75 5.15 4.81 2.28 22.02 10.65 38.25 18.6 16.22 7.95 37.15 18.06 46.5 22.48 9.35 4.42 19.25 9.29 22 10.82 2.75 1.54 17.82 8.96 33.5 16.49 15.67 7.54 29.58 14.66 30.89 15.83 1.32 1.17 3.96 5.5 5.86 9.63 1.91 4.12 4.72 10.2 6.25 13.5 1.53 3.3 10.09 21.07 19.02 39.5 8.93 18.42 19.27 39.8 22.98 47.5 3.71 7.7 10.33 21.42 14.72 30.5 4.39 9.07 9.26 19.42 10.82 23 1.57 3.57 4.45 9.61 6.41 13.42 1.95 3.8 4 7.07 4.55 7.26 0.55 0.19 2.53-2.7 4.4-6.42 1.88-3.72 7.78-15.99 13.13-27.26 5.35-11.28 13.64-28.6 18.42-38.5 4.79-9.9 11.68-24.3 15.31-32 3.64-7.7 10.64-22.1 15.56-32 4.92-9.9 11.96-24.3 15.65-32 3.7-7.7 7.58-14.72 8.62-15.6 1.05-0.88 3.71-2.53 5.91-3.67 2.2-1.14 23.69-11.78 47.75-23.65 24.06-11.87 43.97-21.58 44.25-21.58 0.27 0 12.54-5.96 27.25-13.25 14.72-7.29 33.18-16.4 41.03-20.25 7.85-3.85 14.26-7.34 14.24-7.75-0.01-0.41-13.41-7.32-29.77-15.36-16.36-8.03-35.83-17.54-43.25-21.13-7.43-3.59-22.95-11.14-34.5-16.78-11.55-5.64-32.48-15.87-46.5-22.74-14.03-6.86-26.26-13.32-27.19-14.36-0.93-1.03-3.34-5.48-5.36-9.88-2.01-4.4-8.39-17.68-14.18-29.5-5.78-11.83-13.34-27.35-16.8-34.5-3.45-7.15-12.62-26.16-20.38-42.25-7.75-16.09-14.09-29.48-14.09-29.75 0-0.28-4.05-8.83-9-19-4.95-10.18-9.42-18.74-9.92-19.04-0.51-0.29-3.68 5.13-7.06 12.05zm598.69 297.99c-3.01 6.05-8.63 17.75-12.48 26-3.85 8.25-11.59 24.22-17.2 35.5-5.61 11.27-12.81 26.12-15.99 33-3.19 6.87-11.41 23.97-18.27 38-6.86 14.02-14.01 28.85-15.87 32.94l-3.4 7.44c-57.35 28.15-81.88 40.16-91.5 44.85-9.63 4.69-22 10.66-27.5 13.26-5.5 2.61-17.2 8.23-26 12.49-8.8 4.27-20.84 10.06-26.75 12.89-5.91 2.82-10.64 5.61-10.5 6.19 0.14 0.59 3.62 2.82 7.75 4.96 4.12 2.14 16.05 8 26.5 13.03 10.45 5.03 28 13.43 39 18.66 11 5.24 38.22 18.47 60.5 29.4 22.27 10.92 42.07 20.66 44 21.63 2.55 1.28 4.32 3.39 6.5 7.76 1.65 3.3 7.13 14.55 12.17 25 5.04 10.45 20.5 42.4 34.35 71 13.86 28.6 26.46 54.92 28 58.5 1.55 3.57 4.76 10.32 7.15 15 2.38 4.67 4.74 8.5 5.24 8.5 0.5 0 3.91-6.53 7.58-14.5 3.67-7.98 12.6-26.54 19.84-41.25 7.24-14.71 13.17-26.98 13.17-27.25 0-0.28 4.78-10.29 10.61-22.25 5.84-11.96 13.22-27.15 16.4-33.75 3.18-6.6 9-18.75 12.94-27 3.94-8.25 7.93-15.85 8.86-16.89 0.93-1.04 16.76-9.29 35.19-18.34 18.42-9.05 39.35-19.3 46.5-22.76 7.15-3.47 25.15-12.26 40-19.54 14.85-7.28 34.31-16.77 43.25-21.1 8.94-4.33 16.25-8.32 16.25-8.87 0-0.55-1.46-1.77-3.25-2.7-1.79-0.94-7.75-3.8-13.25-6.36-5.5-2.56-19.23-9.15-30.5-14.66-11.28-5.5-22.98-11.14-26-12.53-3.03-1.39-22.15-10.71-42.5-20.72-20.35-10.01-42.85-21.11-50-24.65-7.15-3.54-13.7-6.99-14.56-7.66-0.86-0.67-2.31-2.57-3.22-4.22-0.92-1.65-7.8-15.6-15.3-31-7.51-15.4-19.95-41.05-27.66-57-7.7-15.95-17.13-35.53-20.95-43.5-3.82-7.98-9.5-19.9-12.63-26.5-3.12-6.6-6.88-14.25-8.34-17l-2.66-5zm-439.4 287.75c-0.5 0.69-2.77 5.3-5.05 10.25-2.28 4.95-5.47 11.92-7.08 15.5-1.62 3.58-5.74 12.35-9.17 19.5-3.43 7.15-9.33 19.41-13.12 27.25-3.79 7.84-6.89 14.48-6.89 14.75 0 0.27-3.4 7.59-7.56 16.25-4.17 8.66-11.7 24.28-16.75 34.7-5.06 10.42-12.11 24.77-15.69 31.88-6.38 12.69-6.6 12.97-12 15.75-3.02 1.55-23.27 11.58-45 22.27-21.72 10.69-53 25.97-69.5 33.96-16.5 7.98-36.75 17.52-45 21.21-8.25 3.68-15.56 7.1-16.25 7.59-0.69 0.49-1.02 1.34-0.75 1.89 0.28 0.55 4.44 2.84 9.25 5.09 4.81 2.25 12.58 5.79 17.25 7.87 4.68 2.08 20.99 9.91 36.25 17.41 15.26 7.5 27.98 13.63 28.25 13.63 0.28 0 20.86 10.1 45.75 22.44l45.25 22.44c9.58 19.86 15.03 31.24 18.3 38.12 3.26 6.87 10.1 21.28 15.18 32 5.09 10.72 15.66 32.78 23.5 49 7.83 16.23 16.44 34.23 19.13 40 2.69 5.78 6.54 13.65 8.57 17.5 2.02 3.85 4.15 7.11 4.75 7.25 0.59 0.14 3.14-4.14 5.67-9.5 2.54-5.36 10.91-23.02 18.61-39.25 7.7-16.22 16.02-33.77 18.48-39 2.47-5.22 14.01-29.03 25.65-52.91l21.16-43.4c15.5-7.07 32.83-15.58 48.5-23.47 15.68-7.89 35.03-17.42 43-21.18 7.98-3.76 23.28-11.1 34-16.31 10.73-5.22 27.38-13.26 37-17.89 9.63-4.62 17.84-8.95 18.25-9.62 0.52-0.85-4.91-3.97-18-10.31-10.31-5-29.1-14.19-41.75-20.42-12.65-6.23-31.55-15.36-42-20.29-10.45-4.92-28.9-13.9-41-19.95-12.1-6.05-24.7-12.25-28-13.78-3.3-1.53-7.33-3.72-8.95-4.87-1.96-1.39-4.46-5.32-7.38-11.6-2.43-5.22-8.68-18.28-13.9-29-5.21-10.72-12.75-26.47-16.75-35-4-8.53-11.16-23.49-15.9-33.25-4.74-9.76-8.61-17.86-8.59-18 0.01-0.14-3.31-7.23-7.38-15.75-4.07-8.52-8.63-18.2-10.12-21.5-1.5-3.3-3.85-8.7-5.23-12-1.38-3.3-3.02-6.58-3.65-7.29-0.63-0.72-1.44-1.28-1.79-1.25-0.35 0.02-1.04 0.6-1.55 1.29z"/>
	</g>
</svg>