<svg version="1.2" xmlns="http://www.w3.org/2000/svg" viewBox="0 0 1434 1346" width="1434" height="1346">
	<defs>
		<clipPath clipPathUnits="userSpaceOnUse" id="cp1">
			<path d="m657-336.94c-5.77 0.43-14.33 1.06-19 1.4-4.67 0.35-17.27 1.52-28 2.61-10.73 1.09-24.67 2.68-31 3.53-6.33 0.85-18.48 2.63-27 3.95-8.52 1.32-25.63 4.46-38 6.99-12.38 2.52-27 5.69-32.5 7.04-5.5 1.36-17.65 4.51-27 7.01-9.35 2.5-23.3 6.36-31 8.57-7.7 2.22-18.5 5.6-24 7.52-5.5 1.93-12.02 4.11-14.5 4.87-2.48 0.76-9.23 3.15-15 5.32-5.77 2.17-20.17 7.76-32 12.42-11.83 4.65-27.8 11.26-35.5 14.67-7.7 3.41-26.6 12.44-42 20.08-15.4 7.63-34.39 17.61-42.2 22.17-7.82 4.56-17.94 10.44-22.5 13.07-4.57 2.62-12.44 7.35-17.49 10.5-5.06 3.14-15.54 9.77-23.3 14.72-7.76 4.95-20.94 13.89-29.31 19.87-8.36 5.98-21.72 15.84-29.7 21.91-7.98 6.07-14.73 11.33-15 11.68-0.27 0.36-5 4.18-10.5 8.51-5.5 4.32-11.59 9.25-13.52 10.95-1.94 1.69-5.72 4.88-8.39 7.08-2.68 2.2-6.09 5.12-7.59 6.5-1.5 1.37-6.95 6.31-12.11 10.96-5.17 4.65-14.99 13.88-21.83 20.5-6.85 6.62-14.9 14.52-17.89 17.54-3 3.02-11.8 12.25-19.56 20.51-7.76 8.26-19.51 21.25-26.11 28.87-6.6 7.63-17.79 21.12-24.88 29.99-7.08 8.87-17.24 21.98-22.59 29.13-5.34 7.15-17.59 24.7-27.22 39-9.62 14.3-22.91 35-29.53 46-6.62 11-15.49 26.3-19.7 34-4.22 7.7-13.67 26.15-21.01 41-7.35 14.85-16.83 34.88-21.09 44.5-4.25 9.62-10.2 23.8-13.21 31.5-3.02 7.7-7.06 18.27-8.98 23.5-1.92 5.23-6.61 18.73-10.42 30-3.81 11.27-8.23 25-9.83 30.5-1.6 5.5-4.56 16.3-6.58 24-2.01 7.7-5.83 23-8.47 34-2.65 11-6.42 28.55-8.39 39-1.96 10.45-4.67 26.42-6.03 35.5-1.36 9.08-3.59 26.17-4.97 38-1.38 11.83-3.32 32.08-4.3 45-1.42 18.56-1.8 34.96-1.8 78 0 34.6 0.47 60.89 1.28 72 0.71 9.62 1.48 19.3 1.71 21.5 0.24 2.2 0.93 8.95 1.54 15 0.61 6.05 2.22 19.55 3.58 30 1.35 10.45 3.37 24.4 4.47 31 1.11 6.6 4.07 22.12 6.57 34.5 2.51 12.37 6.5 30.37 8.88 40 2.38 9.62 6.65 26.05 9.49 36.5 2.84 10.45 8.67 29.58 12.96 42.5 4.29 12.92 9.69 28.45 12 34.5 2.31 6.05 7.28 18.65 11.03 28 3.76 9.35 8.83 21.5 11.27 27 2.44 5.5 7.22 15.85 10.63 23 3.41 7.15 9.6 19.75 13.76 28 4.15 8.25 9.39 18.37 11.63 22.5 2.24 4.12 6.24 11.21 8.89 15.75 2.64 4.54 4.81 8.47 4.81 8.75 0 0.28 4.43 7.81 9.85 16.75 5.42 8.94 11.38 18.72 13.25 21.75 1.87 3.03 3.74 5.61 4.15 5.75 0.41 0.14 0.75 0.7 0.75 1.25 0 0.55 3.47 6.29 7.72 12.75 4.24 6.46 11.53 17.15 16.21 23.75 4.67 6.6 11.41 15.83 14.98 20.5 3.56 4.67 7.63 9.91 9.04 11.63 1.4 1.73 3.67 4.63 5.05 6.46 1.37 1.83 7.16 8.97 12.85 15.87 5.7 6.9 12.22 14.77 14.5 17.5 2.28 2.73 9.77 11.28 16.65 19 6.87 7.72 22.62 24.2 35 36.61 12.37 12.41 27.23 27.05 33 32.52 5.77 5.47 16.57 15.16 24 21.54 7.43 6.37 19.41 16.26 26.63 21.98 7.21 5.71 17.11 13.43 22 17.15 4.88 3.71 12.92 9.75 17.87 13.43 4.95 3.67 18.45 13.05 30 20.84 11.55 7.79 29.1 19.05 39 25.02 9.9 5.97 20.93 12.5 24.5 14.51 3.58 2.01 12.35 6.93 19.5 10.94 7.15 4.01 25.6 13.47 41 21.01 15.4 7.55 36.1 17.21 46 21.46 9.9 4.25 23.62 9.98 30.5 12.73 6.87 2.75 19.7 7.61 28.5 10.8 8.8 3.18 27.02 9.17 40.5 13.3 13.48 4.13 27.2 8.28 30.5 9.22 3.3 0.93 8.48 2.35 11.5 3.15 3.02 0.8 10.67 2.78 17 4.4 6.33 1.62 17.8 4.28 25.5 5.9 7.7 1.62 21.42 4.31 30.5 5.97 9.08 1.66 23.7 4.13 32.5 5.5 8.8 1.36 20.05 2.95 25 3.52 4.95 0.58 10.8 1.26 13 1.51 2.2 0.26 10.75 1.16 19 2.01 8.25 0.85 23.55 2.04 34 2.64 10.45 0.6 36.55 1.32 58 1.6 24.05 0.32 48.01 0.06 62.5-0.67 12.92-0.66 33.17-2.07 45-3.14 11.83-1.06 26.67-2.64 33-3.52 6.33-0.87 21.17-3.14 33-5.04 11.83-1.91 31.85-5.45 44.5-7.88 12.65-2.43 28.4-5.8 35-7.49 6.6-1.69 20.1-5.34 30-8.12 9.9-2.77 24.53-7.01 32.5-9.4 7.97-2.4 19.67-6.15 26-8.33 6.33-2.18 18.25-6.52 26.5-9.65 8.25-3.13 21.53-8.32 29.5-11.53 7.97-3.22 20.58-8.5 28-11.75 7.42-3.24 26.1-12.1 41.5-19.7 15.4-7.59 35.42-18.07 44.5-23.29 9.08-5.21 20.33-11.76 25-14.54 4.67-2.79 15.47-9.54 24-15.02 8.53-5.47 21.58-13.99 29-18.93 7.42-4.93 17.55-11.94 22.5-15.57 4.95-3.62 16.87-12.68 26.5-20.11 9.62-7.44 18.85-14.71 20.5-16.15 1.65-1.44 9.75-8.39 18-15.45 8.25-7.06 15.49-13.31 16.1-13.89 0.6-0.58 5.54-5.1 10.98-10.05 5.45-4.95 13.05-11.92 16.91-15.5 3.86-3.58 15.89-15.72 26.74-27 10.85-11.28 20.97-22.03 22.5-23.9 1.52-1.86 4.05-4.79 5.62-6.5 1.57-1.7 4.5-4.9 6.5-7.11 2.01-2.2 6.28-7.15 9.49-11 3.21-3.84 6.59-7.9 7.5-9.01 0.91-1.12 4.13-4.94 7.16-8.5 3.03-3.57 5.95-7.03 6.5-7.7 0.55-0.66 1.47-1.79 2.03-2.5 0.57-0.7 3.95-5.06 7.5-9.68 3.56-4.62 9.82-12.94 13.91-18.5 4.09-5.55 9.64-13.25 12.34-17.1 2.69-3.85 9.49-13.97 15.11-22.5 5.61-8.53 12.84-19.78 16.05-25 3.22-5.22 6.84-11.08 8.05-13 1.21-1.92 4-6.65 6.2-10.5 2.21-3.85 5.94-10.38 8.3-14.5 2.36-4.13 5.07-8.63 6.02-10 0.95-1.38 8.89-16.9 17.64-34.5 8.76-17.6 18.33-37.63 21.26-44.5 2.93-6.88 6.9-16.1 8.81-20.5 1.91-4.4 7.41-18.35 12.24-31 4.82-12.65 11.04-29.75 13.81-38 2.77-8.25 6.42-19.5 8.1-25 1.69-5.5 5.61-19.45 8.72-31 3.11-11.55 6.5-24.38 7.54-28.5 1.03-4.13 3.46-15.15 5.4-24.5 1.94-9.35 4.44-22.17 5.55-28.5 1.12-6.33 3.16-18.25 4.53-26.5 1.37-8.25 3.56-24.9 4.86-37 1.3-12.1 2.63-24.81 2.95-28.25 0.32-3.44 0.79-8.84 1.05-12 0.26-3.16 0.97-12.72 1.59-21.25 0.72-9.99 0.97-35.57 0.68-72-0.24-31.08-0.93-62.58-1.53-70-0.6-7.42-1.58-18-2.17-23.5-0.59-5.5-1.97-17.65-3.06-27-1.09-9.35-2.93-23.08-4.08-30.5-1.16-7.42-3.66-22.05-5.56-32.5-1.91-10.45-4.14-22.38-4.95-26.5-0.82-4.13-2.62-12.45-4.01-18.5-1.38-6.05-3.57-14.83-4.87-19.5-1.3-4.67-4.01-14.58-6.02-22-2.02-7.42-4.8-17.1-6.18-21.5-1.38-4.4-4.54-14.3-7.01-22-2.47-7.7-5.52-16.92-6.78-20.5-1.26-3.58-6.14-16.17-10.84-28-4.69-11.83-11.53-28.48-15.18-37-3.65-8.52-14.19-30.58-23.41-49-9.22-18.42-19.84-38.9-23.58-45.5-3.75-6.6-11.55-19.88-17.34-29.5-5.78-9.63-14.1-22.9-18.48-29.5-4.38-6.6-11.82-17.63-16.53-24.5-4.71-6.88-13.04-18.57-18.51-26-5.47-7.43-16.06-21.15-23.53-30.5-7.47-9.35-14.56-18.13-15.74-19.5-1.19-1.38-5.65-6.55-9.91-11.5-4.26-4.95-12.29-13.95-17.85-20-5.55-6.05-16.4-17.46-24.11-25.36-7.7-7.9-20.11-20.05-27.55-27-7.45-6.95-15.56-14.44-18.01-16.64-2.45-2.2-8.06-7.16-12.46-11.02-4.39-3.86-10.46-9.08-13.49-11.61-3.03-2.52-8.27-6.79-11.66-9.48-3.39-2.69-8.51-6.69-11.37-8.89-2.86-2.2-7.06-5.49-9.34-7.31-2.27-1.82-4.8-3.85-5.63-4.5-0.83-0.66-4.88-3.71-9-6.78-4.13-3.07-11.66-8.59-16.75-12.25-5.09-3.66-18.81-13.02-30.5-20.8-11.69-7.78-27.78-18.05-35.75-22.82-7.97-4.77-22.38-13.1-32-18.5-9.63-5.41-27.29-14.71-39.25-20.68-11.96-5.98-21.86-10.85-22-10.83-0.14 0.01-5.65-2.52-12.25-5.62-6.6-3.11-17.17-7.88-23.5-10.61-6.33-2.72-20.28-8.34-31-12.47-10.72-4.14-27.83-10.41-38-13.95-10.17-3.54-23.9-8.04-30.5-10-6.6-1.96-19.88-5.74-29.5-8.4-9.63-2.65-22.9-6.18-29.5-7.85-6.6-1.66-24.38-5.52-39.5-8.57-15.13-3.05-36.72-6.89-48-8.53-11.28-1.65-28.38-3.87-38-4.95-9.63-1.08-23.8-2.45-31.5-3.06-7.7-0.61-18.95-1.54-25-2.06-6.05-0.53-33.72-0.89-61.5-0.82-27.77 0.08-55.23 0.49-61 0.92z"/>
		</clipPath>
	</defs>
	<style>
		.s0 { fill: #ffffff } 
	</style>
	<g clip-path="url(#cp1)">
	</g>
	<path id="-e tagged" fill-rule="evenodd" class="s0" d="m1188 134.08c7.88-0.04 10.86 0.42 17.5 2.72 4.4 1.53 11.94 5.35 16.75 8.49 4.81 3.14 12.42 9.2 16.91 13.46 4.49 4.26 10.84 11.35 14.12 15.75 3.27 4.4 7.43 10.92 9.24 14.5 1.81 3.58 4.07 10.33 5.02 15 1.35 6.6 1.61 11.4 1.18 21.5-0.3 7.15-1.47 17.73-2.61 23.5-1.13 5.77-3.2 13.99-4.58 18.25-1.39 4.26-5.41 13.71-8.93 21-3.51 7.29-8.6 16.62-11.3 20.75-2.7 4.12-13.05 17.62-23 30-9.95 12.37-22.52 26.78-27.94 32.01-5.42 5.24-15.9 14.46-23.28 20.5-7.38 6.05-20.43 15.6-29 21.24-8.57 5.64-18.5 12.04-22.08 14.24-4.23 2.59-7.72 3.99-10 4.02-2.37 0.03-4.2-0.69-5.68-2.23-1.2-1.26-2.67-3.52-3.25-5.03-0.59-1.51-1.35-5.79-1.69-9.5-0.34-3.71-0.09-10.13 0.54-14.25 0.64-4.13 2.16-9.49 3.37-11.91 1.36-2.71 4.53-6.24 8.21-9.14 3.3-2.6 12.53-8.88 20.5-13.96 7.97-5.08 17.2-11.31 20.5-13.84 3.3-2.54 11.88-10.47 19.06-17.63 7.19-7.16 16.46-17.52 20.61-23.02 4.15-5.5 10.57-14.73 14.26-20.5 3.7-5.77 9.14-15.45 12.09-21.5 2.96-6.05 6.09-13.7 6.98-17 0.88-3.3 1.84-10.5 2.15-16 0.39-7.2 0.1-12.1-1.05-17.5-0.88-4.13-3.18-10.76-5.1-14.75-1.96-4.05-5.81-9.71-8.75-12.82-2.99-3.17-7.62-6.73-10.75-8.25-5.12-2.49-6.41-2.68-18.5-2.65-11.69 0.02-13.81 0.31-21 2.86-4.4 1.56-12.5 5.1-18 7.86-5.5 2.76-14.5 7.94-20 11.51-5.5 3.57-12.25 8.33-15 10.59-2.75 2.25-7.06 5.9-9.57 8.12-2.51 2.22-7.67 7.63-11.46 12.03-3.8 4.4-12.33 14.08-18.98 21.5-6.64 7.42-15.02 17.1-18.62 21.5-3.6 4.4-11.09 14.08-16.63 21.5-5.55 7.42-12.48 17.33-15.41 22-2.93 4.68-6.23 11.11-7.33 14.3-1.81 5.24-1.86 6.03-0.5 8.34 1.12 1.9 4.78 3.86 14.5 7.74 7.15 2.86 15.7 6.84 19 8.85 3.3 2.01 8.28 6.04 11.08 8.96 2.79 2.92 5.75 6.43 6.59 7.81 0.84 1.37 2.53 5.42 3.77 9 1.23 3.58 3.52 13.02 5.08 21 1.57 7.98 3.54 19.67 4.39 26 0.85 6.33 2 17.12 2.55 24 0.54 6.87 1.47 22.85 2.04 35.5 0.58 12.65 1.53 28.4 2.1 35 0.57 6.6 2.1 19.65 3.4 29 1.3 9.35 2.84 22.62 3.43 29.5 0.59 6.87 1.52 24.87 2.07 40 0.55 15.12 1.88 34.7 2.96 43.5 1.07 8.8 2.25 20.5 2.62 26 0.41 6.07 0.21 13.54-0.51 19-0.66 4.95-2.55 13.05-4.2 18-1.66 4.95-4.55 11.92-6.44 15.5-1.88 3.58-6.3 10.33-9.81 15-3.51 4.67-10.6 12.67-15.75 17.77-5.15 5.09-26.24 26.05-46.87 46.56-20.62 20.52-97.58 96.72-171 169.35-73.42 72.63-155.89 154.61-183.25 182.18-47.41 47.78-50.09 50.3-57 53.55-3.99 1.88-10.85 4.43-15.25 5.68-6.52 1.85-10.4 2.26-21 2.22-9.94-0.04-14.88-0.55-21-2.17-4.4-1.16-12.73-4.41-18.5-7.22-10.21-4.97-10.88-5.51-24.5-19.7-7.7-8.03-73.81-74.7-146.92-148.16-73.1-73.46-138.35-139.41-145-146.57-6.64-7.15-15.6-17.05-19.91-22-4.3-4.94-8.91-11.24-10.24-13.99-1.71-3.54-2.75-8.22-3.56-16-0.9-8.54-0.88-12.79 0.09-19 0.68-4.4 2.18-10.47 3.33-13.5 1.15-3.03 4.36-8.88 7.14-13 3.59-5.34 20.57-23.18 59.06-62.02 29.7-29.99 131.86-132.52 227.01-227.86 95.15-95.33 175.92-175.71 179.5-178.61 3.58-2.9 11.67-8.94 18-13.41 6.33-4.47 13.52-9.08 16-10.23 3.25-1.51 7.29-2.23 14.5-2.6 5.5-0.28 20.35 0.01 33 0.65 12.65 0.64 30.2 1.83 39 2.65 8.8 0.83 22.97 2.35 31.5 3.4 8.53 1.04 24.28 2.62 35 3.49 10.72 0.87 36.15 2.74 56.5 4.14 20.35 1.41 41.72 2.8 47.5 3.09 9.62 0.49 10.73 0.36 13.25-1.58 1.77-1.35 5.79-8.29 11.23-19.36 4.67-9.49 10.76-21.08 13.54-25.75 2.78-4.67 8.97-13.97 13.76-20.66 4.8-6.7 13.23-17.5 18.73-24 5.51-6.51 12.71-15.21 16-19.34 3.3-4.12 13.19-14.74 21.99-23.6 8.8-8.85 20.28-19.62 25.5-23.93 5.22-4.31 13.55-10.5 18.5-13.75 4.95-3.26 11.92-7.41 15.5-9.22 3.58-1.81 13.25-5.99 21.5-9.3 8.25-3.3 17.92-6.99 21.5-8.2 3.58-1.21 11.45-3.25 17.5-4.54 6.91-1.47 14.53-2.35 20.5-2.38zm-306.39 307.92c-3.23 1.92-8.12 5.52-10.86 8-2.74 2.48-6.77 7.2-8.94 10.5-2.17 3.3-4.89 9.15-6.06 13-1.74 5.78-2.11 9.62-2.12 22-0.01 8.6 0.52 17.13 1.23 20 0.68 2.75 2.98 8.6 5.12 13 2.31 4.77 5.62 9.68 8.2 12.17 2.37 2.29 7.92 6.35 12.32 9.02 4.4 2.67 11.37 5.97 15.5 7.32 6.25 2.06 9.25 2.44 18 2.31 6.93-0.11 13.22-0.87 18.5-2.24 4.4-1.14 11.15-3.63 15-5.52 4.01-1.97 9.32-5.71 12.42-8.75 2.98-2.92 6.87-7.56 8.64-10.31 1.78-2.75 4.23-7.48 5.46-10.5 1.22-3.02 2.84-7.75 3.6-10.5 0.75-2.75 1.65-8.6 2-13 0.35-4.46 0.13-11.21-0.5-15.25-0.62-3.99-2.07-9.84-3.23-13-1.59-4.32-3.7-7.3-8.5-12-3.53-3.45-7.28-6.25-8.39-6.25q-2 0-3.5 3.5c-0.83 1.92-2.21 8.56-3.08 14.75-0.88 6.19-2.06 12.15-2.63 13.25-0.57 1.1-2.22 3.25-3.66 4.77-1.45 1.53-4.88 3.5-7.63 4.39-3.25 1.04-6.49 1.38-9.25 0.97-2.34-0.35-6.05-1.53-8.25-2.63-2.2-1.1-5.11-3.46-6.47-5.25-1.36-1.79-3.38-5.61-4.5-8.5-1.39-3.6-2.03-7.6-2.03-12.75 0-6.29 0.57-8.88 3.5-16 1.92-4.67 3.5-9.4 3.5-10.5 0-1.1-1.01-2.68-2.25-3.51-1.24-0.83-4.05-1.48-6.25-1.44-2.2 0.03-7.38 1.27-11.51 2.76-4.14 1.48-10.16 4.27-13.38 6.19z"/>
</svg>