<svg version="1.2" xmlns="http://www.w3.org/2000/svg" viewBox="0 0 1252 1240" width="1252" height="1240">
	<style>
		.s0 { fill: #fdfefd } 
	</style>
	<g id="icons">
		<path id="-e favorite" class="s0" d="m622.5 0.89c-1.65 0.38-5.03 1.85-7.5 3.27-2.72 1.55-5.76 4.5-7.68 7.45-1.75 2.69-8.43 15.91-14.86 29.39-6.43 13.47-16.86 35.52-23.19 49-6.33 13.47-15.09 32.15-19.47 41.5-4.38 9.35-16.08 34.1-26 55-9.92 20.9-22.77 47.9-28.56 60-5.79 12.1-12.77 26.95-15.5 33-2.74 6.05-14.64 31.47-26.45 56.5-11.81 25.02-23.57 49.47-26.13 54.31-4.58 8.66-4.75 8.84-9.66 10.19-2.75 0.76-12.65 2.57-22 4.02-9.35 1.45-30.95 4.89-48 7.63-17.05 2.75-41.13 6.54-53.5 8.44-12.38 1.89-27 4.1-32.5 4.91-5.5 0.82-12.93 1.92-16.5 2.46-3.58 0.54-12.58 1.91-20 3.04-7.43 1.14-23.85 3.62-36.5 5.53-12.65 1.9-33.13 5.04-45.5 6.97-12.38 1.93-44.55 6.9-71.5 11.05-26.95 4.15-51.25 8.2-54 9.02-2.75 0.81-6.69 2.59-8.75 3.96-2.06 1.36-4.72 4.38-5.9 6.72-1.24 2.45-2.37 7-2.66 10.75-0.43 5.46-0.12 7.3 1.88 11.5 1.79 3.74 9.98 12.71 32.42 35.5 16.51 16.77 56.15 57.27 88.09 90 31.95 32.72 81.16 83.12 109.37 112 28.2 28.87 54.6 56.1 58.65 60.5l7.36 8c-3.11 21.7-6.23 40.15-8.95 55-2.72 14.85-11.24 61.87-18.93 104.5-7.7 42.62-17.86 99.55-22.58 126.5-4.72 26.95-10.18 57.55-12.13 68-1.96 10.45-4.65 24.62-5.99 31.5-1.33 6.87-2.69 17.67-3.01 24-0.57 11.3-0.53 11.59 2.34 17 2.38 4.5 3.91 6.02 8.35 8.35 4.93 2.57 6.14 2.8 12.94 2.37 5.08-0.32 9.28-1.28 13-2.99 3.02-1.38 10.67-5.31 17-8.74 6.32-3.43 25.67-13.88 43-23.24 17.32-9.35 40.5-21.84 51.5-27.75 11-5.92 27.2-14.7 36-19.51 8.8-4.82 21.85-11.9 29-15.73 7.15-3.84 20.2-10.81 29-15.5 8.8-4.69 28.82-15.5 44.5-24.03 15.67-8.53 36.15-19.66 45.5-24.74 9.35-5.07 24.42-13.19 33.5-18.04 9.07-4.84 20.44-10.75 25.25-13.13 4.81-2.37 9.31-4.31 10-4.29 0.69 0.02 4.85 1.99 9.25 4.39 4.4 2.4 22.4 12.13 40 21.63 17.6 9.5 42.57 22.98 55.5 29.96 12.92 6.98 30.7 16.65 39.5 21.49 8.8 4.84 22.07 12.04 29.5 15.99 7.42 3.95 20.47 11.01 29 15.69 8.52 4.67 24.27 13.23 35 19.02 10.72 5.78 28.72 15.46 40 21.5 11.27 6.05 25 13.37 30.5 16.28 5.5 2.91 18.55 10.03 29 15.83 10.45 5.79 21.36 11.58 24.25 12.86 2.89 1.28 7.84 2.63 11 2.99 3.72 0.42 7.51 0.17 10.75-0.71 3.39-0.93 6.3-2.67 9.04-5.41 2.74-2.73 4.49-5.66 5.41-9.04 0.96-3.51 1.17-7.54 0.7-13.5-0.37-4.68-1.53-13.68-2.58-20-1.04-6.33-4.89-27.48-8.54-47-3.66-19.53-11.8-64.75-18.11-100.5-6.31-35.75-15.54-87.05-20.51-114-4.98-26.95-10.99-59.8-13.36-73-2.37-13.2-5.37-30.59-6.68-38.65l-2.37-14.65c13.95-15.15 34.62-36.46 54.94-57.13 20.31-20.66 45.08-45.9 55.03-56.07 9.95-10.18 37.43-38.29 61.06-62.49 23.63-24.19 56.22-57.49 72.4-74 16.19-16.5 34.77-35.86 41.29-43.01 10.94-12.01 11.93-13.42 12.93-18.5 0.59-3.03 0.82-7.53 0.51-10-0.31-2.48-1.84-6.53-3.39-9-1.86-2.94-4.56-5.43-7.8-7.19-2.74-1.48-8.8-3.4-13.47-4.27-4.68-0.87-19.3-3.15-32.5-5.07-13.2-1.93-30.98-4.6-39.5-5.94-8.53-1.35-26.08-4.07-39-6.05-12.93-1.98-28.9-4.45-35.5-5.49-6.6-1.05-19.2-3.02-28-4.4-8.8-1.38-34-5.22-56-8.53-22-3.32-45.85-6.93-53-8.03-7.15-1.1-20.2-3.11-29-4.48-8.8-1.36-23.43-3.61-32.5-5-9.08-1.39-24.24-3.76-33.7-5.28-13.41-2.16-17.64-3.21-19.2-4.77-1.11-1.1-6.92-12.58-12.92-25.5-6.01-12.93-17.5-37.34-25.55-54.25-8.05-16.91-14.63-30.98-14.63-31.25 0-0.28-3.2-7.14-7.12-15.25-3.91-8.11-11.05-23.08-15.86-33.25-4.81-10.18-21.58-45.73-37.27-79-15.68-33.28-37.14-78.73-47.68-101-10.54-22.28-20.61-42.71-22.37-45.4-1.76-2.7-4.66-6.19-6.45-7.75-1.79-1.57-4.26-3.24-5.5-3.72-1.24-0.48-3.6-1.12-5.25-1.41-1.65-0.29-4.35-0.22-6 0.17z"/>
	</g>
</svg>