<svg version="1.2" xmlns="http://www.w3.org/2000/svg" viewBox="0 0 1307 1306" width="1307" height="1306">
	<style>
		.s0 { fill: #fbfcfc } 
	</style>
	<g id="icons">
		<path id="-e ultra beast" fill-rule="evenodd" class="s0" d="m650.5 0.17c25.45-0.12 42.93 0.3 56 1.34 10.45 0.84 22.6 1.97 27 2.53 4.4 0.56 13.85 1.92 21 3.02 7.15 1.1 18.85 3.15 26 4.55 7.15 1.4 18.4 3.89 25 5.54 6.6 1.64 19.65 5.18 29 7.86 9.35 2.68 23.75 7.2 32 10.04 8.25 2.85 21.07 7.65 28.5 10.69 7.42 3.03 17.1 7.19 21.5 9.24 4.4 2.04 19.25 9.17 58 27.93l19-4.99c10.45-2.74 29.8-7.87 43-11.39 13.2-3.53 32.77-8.66 43.5-11.42 10.72-2.75 31.65-8.2 46.5-12.12 14.85-3.91 31.27-8.22 36.5-9.58 5.22-1.36 16.47-4.31 25-6.56 8.52-2.24 26.19-6.95 39.25-10.47 13.06-3.51 24.65-6.38 25.75-6.38 1.1 0 2 0.22 2 0.5 0 0.27-2.49 16.14-5.54 35.25-3.05 19.11-9.11 55.9-13.47 81.75-4.36 25.85-12.67 75.35-18.46 110-5.8 34.65-10.54 64.24-10.54 65.75 0.01 1.63 3 7.73 7.35 15 4.04 6.74 11.9 20.8 17.46 31.25 5.57 10.45 13.12 25.75 16.78 34 3.66 8.25 9.58 22.42 13.14 31.5 3.57 9.07 8.93 23.92 11.93 33 2.99 9.07 7.68 24.82 10.42 35 2.75 10.17 6.97 28.4 9.39 40.5 2.43 12.1 5.54 29.42 6.92 38.5 1.38 9.07 3.29 25.27 4.26 36 1.33 14.8 1.75 29.26 1.73 60-0.03 35.4-0.31 42.83-2.24 59-1.21 10.17-3.33 25.25-4.69 33.5-1.37 8.25-3.87 21.97-5.55 30.5-1.68 8.52-5.03 23.37-7.44 33-2.41 9.62-6.8 25.15-9.76 34.5-2.97 9.35-7.67 23.3-10.46 31-2.78 7.7-6.39 17.15-8.01 21-1.62 3.85-5.87 13.52-9.45 21.5-3.58 7.97-8.77 19-11.52 24.5-2.75 5.5-9.25 17.42-14.45 26.5-5.19 9.07-15.3 25.5-22.46 36.5-7.15 11-13.53 21.01-14.17 22.25-0.65 1.24-1.17 3.49-1.18 5 0 1.51 2.44 15.8 5.44 31.75 2.99 15.95 8.65 45.87 12.58 66.5 3.93 20.62 9.59 50.32 12.58 66 3 15.67 7.42 39.3 9.84 52.5 2.41 13.2 4.77 26.65 6.07 35.8l-3.5-0.74c-1.93-0.4-12.28-2.76-23-5.23-10.73-2.47-30.53-7.12-44-10.34-13.48-3.22-29.23-6.99-35-8.37-5.78-1.38-25.58-6.11-44-10.5-18.43-4.4-42.28-10.03-53-12.52-10.73-2.48-28.28-6.59-39-9.13-10.73-2.53-20.63-4.64-22-4.67-1.38-0.03-9.93 3.55-19 7.96-9.08 4.41-20.1 9.69-24.5 11.73-4.4 2.04-15.65 6.77-25 10.5-9.35 3.74-23.53 9.16-31.5 12.05-7.98 2.89-20.35 6.99-27.5 9.1-7.15 2.11-19.3 5.45-27 7.42-7.7 1.97-21.65 5.1-31 6.95-9.35 1.84-24.88 4.49-34.5 5.88-9.63 1.39-24.7 3.29-33.5 4.21-12.17 1.28-25.45 1.69-55.5 1.69-21.73-0.01-46.25-0.55-54.5-1.21-8.25-0.66-22.43-2.1-31.5-3.21-9.08-1.1-23.03-3.13-31-4.49-7.98-1.36-19.68-3.59-26-4.96-6.33-1.36-19.15-4.45-28.5-6.87-9.35-2.41-23.75-6.49-32-9.06-8.25-2.57-21.98-7.28-30.5-10.48-8.53-3.19-23.15-9.05-32.5-13.02-9.35-3.97-24.65-11.06-51-24.25l-7 1.71c-3.85 0.94-20.05 4.83-36 8.64-15.95 3.81-45.2 10.79-65 15.52-19.8 4.73-56.7 13.52-82 19.55-25.3 6.02-52.3 12.29-60 13.93-7.7 1.64-14.45 2.78-15 2.55-0.66-0.28-0.56-3.48 0.28-9.29 0.71-4.87 5.07-28.43 9.7-52.35 4.63-23.93 12.06-63.08 16.51-87 4.46-23.93 10.58-56.33 13.6-72 3.03-15.68 5.59-29.91 5.71-31.64 0.16-2.49-1.69-5.91-8.9-16.5-5-7.35-13.38-20.56-18.62-29.36-5.23-8.8-12.22-20.95-15.53-27-3.31-6.05-8.83-16.63-12.26-23.5-3.43-6.88-9.5-20.15-13.48-29.5-3.98-9.35-10.42-25.78-14.31-36.5-3.89-10.73-9.53-27.83-12.53-38-3.01-10.18-7.29-26.6-9.52-36.5-2.23-9.9-5.42-25.65-7.08-35-1.66-9.35-3.91-23.98-5.01-32.5-1.09-8.53-2.52-21.8-3.18-29.5-0.66-7.7-1.2-30.2-1.19-50 0.01-25.98 0.48-40.59 1.67-52.5 0.9-9.08 2.57-23.93 3.71-33 1.14-9.08 3.59-24.6 5.46-34.5 1.87-9.9 4.56-22.95 5.99-29 1.42-6.05 5.02-19.55 7.99-30 2.97-10.45 7.27-24.63 9.56-31.5 2.29-6.88 6.53-18.58 9.42-26 2.89-7.43 8.28-20.25 11.98-28.5 3.7-8.25 10.49-22.43 15.09-31.5 4.6-9.08 12.91-24.38 18.45-34 9.74-16.9 10.07-17.67 9.64-22.5-0.25-2.75-6.97-43.03-14.94-89.5-7.97-46.48-18.93-110.7-24.35-142.72q-9.86-58.21-8.86-59.22c0.67-0.66 9.53 1.18 26.5 5.5 14.02 3.58 31.12 8.04 38 9.91 6.87 1.88 20.6 5.5 30.5 8.05 9.9 2.55 27.22 7.12 38.5 10.14 11.27 3.02 26.57 7.07 34 8.99 7.42 1.91 31.05 8.15 52.5 13.85 21.45 5.7 43.5 11.52 49 12.94 5.5 1.41 11.35 2.56 13 2.54 1.76-0.02 13.98-5.36 29.5-12.9 14.57-7.07 32.57-15.34 40-18.38 7.42-3.03 21.82-8.51 32-12.18 10.17-3.67 25.25-8.69 33.5-11.15 8.25-2.45 21.97-6.22 30.5-8.35 8.52-2.14 22.7-5.26 31.5-6.93 8.8-1.68 22.07-3.94 29.5-5.02 7.42-1.09 20.7-2.67 29.5-3.51 8.8-0.85 17.8-1.7 20-1.88 2.2-0.19 20.65-0.42 41-0.51zm-112 71.8c-6.05 1.2-19.78 4.39-30.5 7.1-10.73 2.7-25.8 6.89-33.5 9.3-7.7 2.41-20.08 6.65-27.5 9.41-7.43 2.76-18.68 7.26-25 9.99-6.33 2.73-18.7 8.35-27.5 12.5-8.8 4.14-20 9.71-24.88 12.38-4.89 2.67-9.32 5.52-9.87 6.35-0.73 1.11 2.45 9.53 12.25 32.5 7.27 17.05 19.2 44.5 26.5 61 7.3 16.5 19.44 44.4 26.97 62 7.53 17.6 15.31 35.6 17.27 40 1.96 4.4 4.18 9.01 4.92 10.25l1.34 2.25c7.36-3.7 14.9-7.79 21.5-11.48 6.6-3.69 19.2-9.76 28-13.49 8.8-3.73 22.3-9.12 30-11.99 7.7-2.87 19.85-6.71 27-8.55 7.15-1.83 15.92-3.94 19.5-4.68l6.5-1.34c1.01-8.5 1.35-60.36 1.4-120.72 0.08-87.23-0.16-109.73-1.15-109.67-0.69 0.05-8.23 1.13-16.75 2.4-8.53 1.27-20.45 3.29-26.5 4.49zm181.51 114.78l-0.01 108.25c12.01 2.46 20 4.29 25.5 5.65 5.5 1.36 14.72 4.07 20.5 6.02 5.77 1.94 17.7 6.35 26.5 9.8 8.8 3.45 22.07 9.17 29.5 12.71 7.42 3.54 16.87 8.44 21 10.9 4.12 2.46 8.62 5.08 10 5.82 1.37 0.74 3.29 1.07 4.25 0.72 0.96-0.34 3.6-4.56 5.87-9.37 2.26-4.81 7.71-17.08 12.1-27.25 4.39-10.18 12.84-29.75 18.78-43.5 5.94-13.75 17.18-39.63 24.98-57.5 7.8-17.88 17.33-40.15 21.18-49.5 3.85-9.35 6.74-17.56 6.42-18.25-0.32-0.69-3.62-3-7.33-5.13-3.71-2.14-14.85-7.93-24.75-12.86-9.9-4.94-22.95-11.13-29-13.76-6.05-2.62-15.05-6.34-20-8.25-4.95-1.92-17.33-6.15-27.5-9.41-10.18-3.25-23-7.23-28.5-8.84-5.5-1.61-16.53-4.49-24.5-6.4-7.98-1.91-19.45-4.39-25.5-5.5-6.05-1.11-16.18-2.73-22.5-3.6-6.33-0.86-12.45-1.77-13.6-2.02-1.93-0.41-2.16 0.12-2.74 6.29-0.36 3.7-0.65 55.44-0.65 114.98zm-577 161.75c-2.36 3.85-6.55 11.05-9.3 16-2.76 4.95-8.5 15.97-12.76 24.5-4.26 8.52-10.54 22.02-13.95 30-3.41 7.97-7.32 17.42-8.68 21-1.36 3.57-4.17 11.22-6.25 17-2.08 5.77-5.84 17.47-8.37 26-2.53 8.52-5.72 20-7.1 25.5-1.37 5.5-4.3 19-6.5 30-2.2 11-4.91 27.2-6.02 36-1.12 8.8-2.49 21.85-3.06 29-0.56 7.15-1.03 15.59-1.02 18.75v5.75l209.5 0.02c1.18-11.25 2.84-20.82 4.43-28.52 1.6-7.7 5.45-22.55 8.56-33 3.1-10.45 7.25-23.28 9.2-28.5 1.96-5.23 5.38-13.55 7.6-18.5 2.23-4.95 7.19-14.85 11.03-22 3.84-7.15 10.19-18.18 14.11-24.5 3.92-6.33 10.43-16 14.48-21.5l7.36-10c-4.47-3.44-10.05-6.77-15.27-9.61-5.23-2.85-28.63-15.85-52-28.89-23.38-13.05-50.15-27.9-59.5-33.01-9.35-5.11-22.18-12.1-28.5-15.53-6.33-3.44-17.35-9.44-24.5-13.33-7.15-3.9-13.29-7.1-13.64-7.11-0.35-0.01-1.75 1.67-3.1 3.73-1.36 2.06-4.4 6.9-6.75 10.75zm399.99-3.87c-4.13 1.44-12.23 4.46-18 6.7-5.78 2.24-19.28 8.47-30 13.84-10.73 5.37-21.75 11.5-24.5 13.62-3.77 2.91-4.96 4.47-4.83 6.29 0.1 1.33 9.83 24.69 21.63 51.92 11.81 27.22 23.95 55.35 26.99 62.5 3.04 7.15 7.77 17.95 10.52 24 2.75 6.05 5.49 11.11 6.09 11.25 0.61 0.14 6.39-3.32 12.85-7.69 6.46-4.36 16.25-10.16 21.75-12.88 5.5-2.72 11.69-5.67 13.75-6.56l3.75-1.62c-0.01-117.41-0.21-155.89-0.46-161.25l-0.44-9.75c-4.34 0.12-11.45 1.7-18.6 3.58-7.15 1.88-16.38 4.61-20.5 6.05zm176.98 78.87v82c26.16 13.26 36.83 19.64 43.52 24.53 6.05 4.42 11.22 8.04 11.5 8.04 0.27 0.01 4.64-9.12 9.7-20.28 5.06-11.16 13.22-29.74 18.14-41.29 4.92-11.55 11.75-27.3 15.17-35 3.43-7.7 10.27-23.45 15.2-35 6.37-14.91 8.7-21.43 8.05-22.5-0.5-0.83-3.35-3.16-6.34-5.2-2.98-2.03-12.4-7.27-20.92-11.64-8.53-4.36-20.23-9.97-26-12.46-5.78-2.49-15.9-6.39-22.5-8.67-6.6-2.29-18.3-5.7-26-7.6-7.7-1.89-14.96-3.44-16.14-3.44-1.63 0.01-2.3 0.8-2.77 3.26-0.34 1.79-0.61 40.15-0.61 85.25zm398.02-68.72c-9.63 5.26-32.58 17.96-51 28.22-18.43 10.27-45.2 25.23-59.5 33.25-14.3 8.02-30.28 17.06-35.5 20.08-5.23 3.03-9.65 6.1-9.83 6.83-0.18 0.74 3.93 7.64 9.14 15.34 5.21 7.7 11.71 18.05 14.44 23 2.74 4.95 8.47 15.97 12.74 24.5 4.27 8.52 9.7 20.22 12.07 26 2.36 5.77 6.61 18.15 9.44 27.5 2.83 9.35 6.29 21.72 7.69 27.5 1.41 5.77 3.51 16.86 4.68 24.64 1.17 7.78 2.5 14.53 2.96 15 0.46 0.47 47.15 0.97 103.75 1.11l102.92 0.25c-0.83-13.56-1.52-23.35-2.08-30.5-0.56-7.15-2.08-20.2-3.38-29-1.31-8.8-3.8-22.98-5.53-31.5-1.74-8.53-5.4-24.28-8.13-35-2.73-10.73-7.47-26.93-10.52-36-3.04-9.08-8.39-23.48-11.87-32-3.48-8.53-8.33-20-10.78-25.5-2.45-5.5-7.72-16.53-11.71-24.5-3.99-7.98-10.18-19.68-13.76-26-3.58-6.33-7.8-13.41-9.38-15.75-1.57-2.34-3.42-4.24-4.11-4.23-0.69 0.01-4.4 1.64-8.25 3.61-3.85 1.98-14.88 7.89-24.5 13.15zm-755.5 127.72c-5.14 7.7-12.15 19.17-15.57 25.5-3.43 6.32-8.58 16.67-11.46 23-2.87 6.32-7.28 17.12-9.8 24-2.52 6.87-5.93 16.77-7.58 22-1.65 5.22-3.88 13.55-4.96 18.5-1.08 4.95-2.78 13.82-3.79 19.7-1.01 5.89-1.47 11.06-1.01 11.5 0.46 0.44 37.36 0.92 82 1.08l81.17 0.28c4.62-14.39 9.1-24.86 12.94-32.56 4.06-8.13 9.98-17.98 14.11-23.5 3.92-5.23 11.47-14.11 16.79-19.75 5.31-5.64 9.66-10.93 9.66-11.75 0-0.83-2.59-2.92-5.75-4.66-3.16-1.74-13.18-7.3-22.25-12.36-9.08-5.06-22.58-12.46-30-16.46-7.43-4-15.75-8.51-18.5-10.02-2.75-1.51-19.29-10.45-36.75-19.87-17.46-9.42-31.94-17.13-32.18-17.13-0.23 0-2.07 1.91-4.07 4.25-2 2.34-7.85 10.55-13 18.25zm489.5 19.68c-31.63 17.32-60.54 33.25-64.26 35.4-3.72 2.16-6.76 4.48-6.75 5.17 0 0.69 3.84 5.41 8.53 10.5 4.68 5.09 11.81 13.97 15.83 19.75 4.02 5.77 9.39 14.1 11.93 18.5 2.53 4.4 6.38 12.5 8.56 18 2.17 5.5 4.56 11.93 5.31 14.3l1.35 4.3c126.58-0.47 163.71-0.96 164.17-1.39 0.46-0.44-0.24-6.29-1.54-13-1.3-6.72-3.94-18.51-5.86-26.21-1.92-7.7-5.19-18.73-7.26-24.5-2.07-5.78-5.79-15.45-8.26-21.5-2.47-6.05-6.97-15.95-10-22-3.03-6.05-7.97-15.28-10.99-20.5-3.01-5.23-8.3-13.55-11.75-18.5-3.45-4.95-8.02-11.14-10.14-13.75-2.13-2.61-4.21-4.74-4.62-4.73-0.41 0.01-4.35 1.96-8.75 4.35-4.4 2.38-33.88 18.5-65.5 35.81zm-251 13.89c-7.43 2.23-18.23 6.31-24 9.06-5.78 2.75-13.43 6.84-17 9.09-3.58 2.26-9.76 6.5-13.75 9.44-3.99 2.94-10.46 8.38-14.38 12.09-3.92 3.71-9.93 10.12-13.36 14.25-3.44 4.12-8.84 11.32-12.01 16-3.17 4.67-8.12 13.22-11.01 19-2.89 5.77-6.69 14.55-8.44 19.5-1.76 4.95-4.05 12.6-5.1 17-1.06 4.4-2.59 12.72-3.42 18.5-0.82 5.77-1.5 16.35-1.5 23.5-0.01 7.15 0.69 17.72 1.55 23.5 0.85 5.77 2.61 15 3.9 20.5 1.29 5.5 3.74 13.49 5.44 17.75 1.69 4.26 5.17 11.91 7.72 17 2.55 5.09 6.88 12.85 9.62 17.25 2.74 4.4 7.56 11.15 10.71 15 3.14 3.85 10.02 11.05 15.27 16 5.26 4.95 13.09 11.55 17.41 14.66 4.32 3.12 11 7.59 14.85 9.94 3.85 2.35 11.5 6.25 17 8.65 5.5 2.41 14.95 5.88 21 7.72 6.05 1.84 14.82 4.09 19.5 4.98 4.68 0.9 16.81 1.91 27 2.26 12.69 0.42 21.01 0.23 26.5-0.63 4.4-0.68 11.6-2.12 16-3.2 4.4-1.08 12.95-3.59 19-5.57 6.05-1.97 14.6-5.39 19-7.59 4.4-2.2 11.37-6.09 15.5-8.64 4.12-2.55 11.1-7.38 15.5-10.74 4.4-3.35 11.62-9.63 16.04-13.96 4.43-4.34 11.28-11.93 15.24-16.88 3.96-4.95 9.86-13.73 13.11-19.5 3.25-5.78 7.71-14.78 9.91-20 2.21-5.23 5.17-13.33 6.59-18 1.41-4.68 3.55-13 4.75-18.5 1.86-8.58 2.16-13.12 2.15-32-0.01-18.8-0.34-23.6-2.25-33-1.24-6.05-3.82-15.73-5.74-21.5-1.92-5.78-6.24-15.9-9.6-22.5-3.36-6.6-9.27-16.73-13.14-22.5-4.68-6.98-11.22-14.73-19.55-23.13-6.88-6.95-15.89-15.09-20.01-18.1-4.13-3-11.55-7.9-16.5-10.9-4.95-2.99-12.6-6.95-17-8.79-4.4-1.85-11.15-4.46-15-5.81-3.85-1.35-11.73-3.52-17.5-4.83-5.78-1.3-15.68-2.83-22-3.4-6.33-0.56-16.23-0.99-22-0.95-5.78 0.05-15.45 0.95-21.5 2-6.05 1.06-17.08 3.75-24.5 5.98zm-532.18 245.93c0.18 1.37 1.24 7 2.35 12.5 1.12 5.5 3.81 17.2 6 26 2.18 8.8 7.49 26.57 11.78 39.5 4.3 12.92 10.13 29.35 12.97 36.5 2.83 7.15 10.74 24.25 17.57 38 6.83 13.75 16.08 31.07 20.55 38.5 4.47 7.42 12.43 20.02 17.68 28 5.26 7.97 11.63 17.1 14.17 20.29 2.53 3.18 5.17 5.77 5.86 5.75 0.69-0.02 7.66-3.13 15.5-6.9 7.84-3.77 46.54-22.89 86-42.5 39.46-19.6 71.97-36.09 72.25-36.64 0.27-0.55-1.95-4.49-4.94-8.75-3-4.26-10.76-15.63-17.26-25.25-7.1-10.52-15.26-24.28-20.44-34.5-4.74-9.35-11.32-23.75-14.62-32-3.29-8.25-7.47-19.5-9.29-25-1.81-5.5-4.93-16.08-6.94-23.5l-3.65-13.5c-151.79-0.15-198.11 0.08-200.86 0.4-4.63 0.56-4.98 0.79-4.68 3.1zm245.7-0.75c0.39 1.79 2.19 8.42 3.99 14.75 1.81 6.32 4.95 16 6.99 21.5 2.04 5.5 7.39 17.65 11.9 27 4.51 9.35 10.6 21.27 13.53 26.5 2.92 5.22 8.48 14.22 12.35 20 3.86 5.77 10.27 14.55 14.22 19.5 3.96 4.95 8.17 9.79 9.35 10.75 2.1 1.71 3.66 1 69.9-31.95 37.26-18.53 69.44-34.73 71.5-36l3.75-2.3c-19.95-19.76-28.6-29.33-32.09-34-3.5-4.68-8.74-12.55-11.64-17.5-2.91-4.95-6.52-11.83-8.03-15.28l-2.74-6.28-163.7 0.06zm506.1 7.5c-1.99 3.99-5.47 10.29-7.74 14-2.27 3.71-7.11 10.57-10.74 15.25-3.64 4.67-11.67 13.67-17.84 20l-11.23 11.5c88.69 44.07 121.41 60.17 129.94 64.22l15.5 7.37c7.59-8.21 14.41-17.57 20.05-26.09 5.64-8.53 13.08-20.45 16.54-26.5 3.46-6.05 8.87-16.4 12.03-23 3.15-6.6 7.76-17.4 10.23-24 2.48-6.6 6.34-18.53 8.59-26.5 2.25-7.98 4.08-15.06 4.07-15.75-0.01-0.99-16.96-1.25-81.37-1.25-76.22 0-81.45 0.11-82.89 1.75-0.84 0.96-3.16 5.01-5.14 9zm206.58 0.25c-1.15 4.67-3.85 14.35-5.99 21.5-2.15 7.15-6.05 18.4-8.67 25-2.62 6.6-8.68 20.1-13.46 30-4.78 9.9-11.84 23.17-15.68 29.5-3.84 6.32-12.05 18.7-18.23 27.5l-11.25 16c5.88 3.5 44.15 22.74 88.84 45.01 44.68 22.27 82.03 40.51 83 40.54 0.96 0.02 3.59-2.34 5.84-5.25 2.26-2.92 6.14-8.23 8.63-11.8 2.49-3.58 8.32-12.58 12.96-20 4.64-7.43 10.84-17.78 13.78-23 2.94-5.23 9.72-18.28 15.06-29 5.34-10.73 12.53-26.48 15.97-35 3.44-8.53 8.27-21.13 10.73-28 2.46-6.88 6.4-18.8 8.75-26.5 2.36-7.7 5.73-19.85 7.49-27 1.76-7.15 4.3-18.4 5.63-25 1.34-6.6 2.42-12.79 2.42-13.75-0.01-1.66-5.49-1.75-100.9-1.75-79.53 0-101.09 0.26-101.86 1.25-0.53 0.69-1.9 5.07-3.06 9.75zm-295.42 85.79l-11.74 5.71-0.03 156.5c3.48 0 10.12-1.37 17-3.05 6.87-1.68 19.02-5.25 27-7.92 7.97-2.68 21.02-7.76 29-11.31 7.97-3.55 17.87-8.14 22-10.21 4.12-2.07 10.53-5.73 14.25-8.14 5.9-3.82 6.68-4.68 6.25-6.87-0.28-1.38-9.69-21.74-20.91-45.25-11.22-23.51-25.85-53.89-32.5-67.5-6.65-13.61-12.43-24.72-12.84-24.68-0.42 0.05-6.38 3.89-13.25 8.54-6.88 4.66-17.78 11.03-24.23 14.18zm-220.26 30.71c-1.81 3.85-11.59 24.1-21.74 45-10.15 20.9-18.75 38.9-19.11 40-0.47 1.44-0.02 2.4 1.59 3.41 1.24 0.77 7.2 4.24 13.25 7.69 6.05 3.46 18.42 9.51 27.5 13.45 9.07 3.94 21.22 8.86 27 10.94 5.77 2.08 16.91 5.41 24.75 7.4 7.83 1.98 15.15 3.61 16.25 3.61 1.98 0 2-0.67 2-78.5v-78.5c-22.09-10.65-32.33-16.29-37-19.4-4.68-3.11-8.87-5.64-9.31-5.63-0.44 0.02-5.55 9.82-11.35 21.78-5.8 11.96-12.03 24.9-13.83 28.75zm308.99 137.51c-7.7 3.71-20.75 9.45-29 12.75-8.25 3.31-19.73 7.59-25.5 9.52-5.78 1.93-15.23 4.66-21 6.07-5.78 1.4-12.98 2.86-16 3.23-3.03 0.38-6.29 1.08-7.25 1.55-1.65 0.82-1.75 6.25-1.75 92.87v92c7.36-0.89 16.92-2.24 26-3.57 9.07-1.34 19.87-3.16 24-4.06 4.12-0.89 12.9-2.95 19.5-4.56 6.6-1.62 17.62-4.5 24.5-6.42 6.87-1.92 19.02-5.66 27-8.33 7.97-2.67 19.9-6.98 26.5-9.59 6.6-2.6 18.97-7.88 27.5-11.72 8.52-3.84 20.78-9.63 27.25-12.87 6.46-3.23 11.75-6.33 11.75-6.88 0-0.55-1.76-4.94-3.91-9.75-2.15-4.81-8.5-18.2-14.12-29.75-5.61-11.55-12.8-26.4-15.97-33-3.16-6.6-13.16-27.3-22.21-46-9.05-18.7-18-37.28-19.88-41.28-1.88-4.01-3.86-7.26-4.41-7.23-0.55 0.02-5.05 2.35-10 5.16-4.95 2.81-15.3 8.15-23 11.86zm-374.55-1.67c-3.69 7.79-10.98 22.93-16.21 33.66-5.23 10.72-14.56 29.85-20.74 42.5-6.18 12.65-16.63 34.25-23.23 48-6.6 13.75-12.06 26.34-12.14 27.97-0.12 2.58 0.52 3.32 4.87 5.72 2.75 1.51 11.07 5.51 18.5 8.88 7.42 3.38 20.47 9.05 29 12.62 8.52 3.56 22.02 8.72 30 11.45 7.97 2.73 23.95 7.67 35.5 10.97 11.55 3.3 25.05 6.9 30 8.01 4.95 1.1 13.27 2.85 18.5 3.89 5.22 1.03 15.91 2.8 23.75 3.93 7.83 1.13 15.37 2.06 16.75 2.06h2.5l-0.5-184.31c-29.45-7.33-42.73-11.13-48.5-13.18-5.78-2.04-16.13-5.9-23-8.57-6.88-2.68-22.82-10.01-35.42-16.31l-22.92-11.45zm201.04-492.23c2.48-0.06 9.45 0.35 15.5 0.91 6.05 0.55 13.48 1.49 16.5 2.08 3.03 0.6 9.44 2.17 14.25 3.49 4.81 1.33 13.14 4.39 18.5 6.8 5.36 2.42 13.35 6.53 17.75 9.13 4.4 2.6 9.8 6.11 12 7.81 2.2 1.69 6.67 5.35 9.93 8.12 3.26 2.78 9.11 8.68 13 13.12 3.89 4.44 9.6 11.87 12.7 16.5 3.1 4.64 7.61 12.26 10.03 16.93 2.42 4.68 6.05 13.45 8.06 19.5 2 6.05 4.43 14.83 5.38 19.5 1.28 6.31 1.75 13.79 1.81 29 0.08 18.11-0.19 21.73-2.27 31-1.3 5.78-3.93 15-5.86 20.5-1.92 5.5-4.97 12.93-6.78 16.5-1.81 3.58-6.04 10.66-9.4 15.75-3.35 5.09-10.71 14.03-16.35 19.88-5.64 5.84-13.62 13.32-17.75 16.62-4.12 3.31-11.1 8.11-15.5 10.67-4.4 2.56-11.6 6.29-16 8.27-4.4 1.99-10.92 4.55-14.5 5.68-3.57 1.14-11 2.97-16.5 4.07-5.5 1.1-14.95 2.28-21 2.64-6.19 0.36-16.25 0.13-23-0.51-6.6-0.64-16.27-2.09-21.5-3.23-5.22-1.14-14.9-4.27-21.5-6.97-6.6-2.69-16.27-7.46-21.5-10.59-5.22-3.14-13.32-8.92-18-12.85-4.67-3.93-12.32-11.51-17-16.84-4.67-5.34-10.67-12.94-13.33-16.9-2.65-3.95-6.77-11.01-9.14-15.69-2.37-4.67-5.89-13-7.82-18.5-1.93-5.5-4.48-14.95-5.67-21-1.19-6.05-2.42-15.72-2.73-21.5-0.31-5.79-0.02-15.44 0.64-21.5 0.67-6.05 2.47-15.95 4-22 1.54-6.05 4.46-15.05 6.49-20 2.03-4.95 6.24-13.5 9.34-19 3.1-5.5 9.08-14.27 13.29-19.5 4.21-5.22 11.23-12.87 15.61-17 4.37-4.12 11.3-9.8 15.39-12.62 4.09-2.82 11.26-7.19 15.93-9.72 4.68-2.53 12.1-5.91 16.5-7.53 4.4-1.61 12.28-4.1 17.5-5.53 5.23-1.43 13.78-3.22 19-3.99 5.23-0.77 11.53-1.44 14-1.5z"/>
	</g>
</svg>