<svg version="1.2" xmlns="http://www.w3.org/2000/svg" viewBox="0 0 1354 1025" width="1354" height="1025">
	<style>
		.s0 { fill: #ffffff } 
	</style>
	<g id="icons">
		<path id="-e gigantamax" class="s0" d="m124.84 1.13c0.09 0.48 1.4 1.65 2.91 2.61 1.51 0.95 3.26 2.19 3.89 2.75 0.62 0.55 2.09 1.8 3.25 2.76 1.16 0.96 2.33 1.75 2.61 1.75 0.27 0 1.13 0.56 1.9 1.25 0.76 0.69 2.83 2.37 4.6 3.75 1.76 1.37 3.84 3.06 4.6 3.75 0.77 0.69 1.85 1.25 2.4 1.25 0.55 0 1 0.45 1 1 0 0.55 0.45 1 1 1 0.55 0 2.12 1.12 3.5 2.5 1.37 1.37 3.17 2.5 4 2.5 0.82 0 1.5 0.45 1.5 1 0 0.55 0.45 1 1 1 0.55 0 2.69 1.58 4.75 3.51 2.06 1.93 3.97 3.29 4.25 3.04 0.27-0.26 1.27 0.53 2.22 1.74 0.94 1.22 1.73 1.87 1.75 1.46 0.01-0.41 0.91 0.04 2 1 1.08 0.96 3.1 2.76 4.5 4 1.39 1.24 2.54 1.91 2.55 1.5 0.01-0.41 0.89 0.37 1.95 1.75 1.05 1.37 2.31 2.5 2.79 2.5 0.49 0 1.63 0.67 2.54 1.5 0.91 0.82 2.83 2.4 4.27 3.5 1.44 1.1 3.67 2.9 4.95 4 1.27 1.1 3.26 2.79 4.4 3.75 1.14 0.96 2.3 1.75 2.58 1.75 0.27 0 1.22 0.56 2.09 1.25 0.88 0.69 2.74 2.37 4.12 3.75 1.39 1.37 2.81 2.4 3.16 2.27 0.35-0.13 1.75 1.13 3.13 2.79 1.37 1.65 3.06 2.99 3.75 2.98 0.69-0.02 1.47 0.63 1.75 1.46 0.27 0.82 0.95 1.5 1.5 1.5 0.55 0 2.24 1.33 3.75 2.96 1.51 1.64 2.97 2.75 3.25 2.48 0.27-0.27 1.29 0.65 2.25 2.03 0.96 1.39 2.2 2.3 2.75 2.03 0.55-0.28 1.67 0.62 2.5 2 0.82 1.37 1.85 2.39 2.29 2.25 0.43-0.14 1.95 0.87 3.37 2.25 1.43 1.37 3.95 3.62 5.62 5 1.66 1.37 4.51 3.62 6.33 5 1.82 1.37 5.01 4.19 7.1 6.25 2.08 2.06 3.79 3.41 3.79 3 0-0.41 1.01 0.47 2.25 1.96 1.24 1.49 2.7 2.71 3.25 2.7 0.55 0 2.24 1.59 3.75 3.54 1.51 1.95 2.97 3.32 3.25 3.05 0.27-0.28 2.19 1.14 4.25 3.15 2.06 2.01 5.32 4.82 7.25 6.25 1.92 1.43 4.06 3.39 4.75 4.35 0.69 0.96 1.92 1.75 2.75 1.75 0.82 0 1.39 0.54 1.25 1.2-0.14 0.67 0.2 1.23 0.75 1.25 0.55 0.03 2 0.95 3.23 2.05 1.23 1.1 3.87 3.35 5.87 5 2 1.65 6.11 5.25 9.13 8 3.03 2.75 8.03 7.35 11.13 10.23 3.1 2.88 7.34 6.93 9.41 9 2.08 2.07 4.22 3.66 4.75 3.52 0.54-0.14 1.88 1.1 2.98 2.75 1.1 1.65 2.34 2.78 2.75 2.5 0.41-0.27 2.97 1.64 5.68 4.25 2.71 2.61 8.56 8.3 13 12.64 4.44 4.34 8.97 8.5 10.07 9.24 1.1 0.74 11.64 10.69 23.43 22.11 11.79 11.42 30.14 29.53 40.79 40.26 10.65 10.72 24.41 24.72 30.57 31.1 6.17 6.39 14.58 15.23 18.71 19.66 4.12 4.42 11.1 11.95 15.5 16.72 4.4 4.77 10.13 10.78 12.74 13.35 2.61 2.57 4.76 5.12 4.79 5.67 0.03 0.55 2.28 3.14 5.01 5.75 2.73 2.61 4.62 4.75 4.21 4.74-0.41 0 1.83 2.36 4.97 5.25 3.15 2.89 5.75 5.71 5.77 6.26 0.03 0.55 1.62 2.35 3.53 4 1.92 1.65 3.5 3.45 3.52 4 0.02 0.55 1.37 2.24 3 3.75 1.63 1.51 2.73 2.86 2.46 3-0.28 0.14 1.52 1.94 4 4 2.47 2.06 4.5 4.42 4.5 5.25 0 0.82 1.12 2.17 2.5 3 1.37 0.82 2.5 2.06 2.49 2.75-0.01 0.69 0.87 1.92 1.95 2.75 1.07 0.82 1.75 1.84 1.51 2.25-0.25 0.41 1.12 2.1 3.05 3.75 1.92 1.65 3.5 3.22 3.5 3.5 0 0.27 1.01 1.57 2.25 2.88 1.24 1.31 3.37 3.84 4.75 5.62 1.37 1.78 3.21 3.97 4.08 4.87 0.86 0.89 2.89 3.43 4.49 5.63 1.61 2.2 3.48 4.34 4.17 4.75 0.69 0.41 1.26 1.31 1.25 2-0.01 0.69 0.87 1.92 1.95 2.75 1.07 0.82 1.78 1.72 1.57 2-0.22 0.27 0.72 1.4 2.09 2.5 1.36 1.1 2.46 2.34 2.44 2.75-0.02 0.41 0.52 1.45 1.21 2.32 0.69 0.86 2.47 2.77 3.96 4.25 1.5 1.47 2.75 3.13 2.79 3.68 0.05 0.55 0.85 1.67 1.8 2.5 0.94 0.82 3.06 3.14 4.71 5.14 1.64 2 3.89 4.81 4.99 6.23 1.1 1.43 3.68 4.51 5.74 6.86 2.05 2.35 3.74 4.83 3.75 5.52 0 0.69 0.68 1.47 1.51 1.75 0.82 0.27 1.5 1.17 1.5 2 0 0.82 0.67 1.72 1.5 2 0.82 0.27 1.5 0.95 1.5 1.5 0 0.55 1.35 2.46 3.01 4.25 1.65 1.79 3 3.81 3 4.5-0.01 0.69 0.33 1.24 0.74 1.22 0.41-0.02 3.79 4.03 7.5 9 3.71 4.97 6.75 9.25 6.75 9.53 0 0.27 1.24 1.86 2.75 3.53 1.51 1.67 3.2 3.03 3.75 3.03 0.55 0 4.37-4.28 8.5-9.52 4.12-5.24 7.84-9.53 8.25-9.53 0.41-0.01 0.75-0.69 0.75-1.51 0-0.83 0.64-1.84 1.43-2.25 0.78-0.41 1.37-0.98 1.29-1.25-0.07-0.28 1.65-2.87 3.82-5.76 2.18-2.9 4.3-5.26 4.71-5.25 0.41 0 0.75-0.44 0.75-0.99 0-0.55 2.01-3.59 4.48-6.75 2.46-3.16 8.34-10.7 13.06-16.75 4.73-6.05 10.02-12.77 11.78-14.93 1.75-2.15 3.97-4.74 4.93-5.75 0.96-1 1.75-2.05 1.75-2.32 0-0.28 2.66-3.76 5.91-7.75 3.26-3.99 7.2-8.61 8.75-10.27 1.56-1.66 3.93-4.59 5.27-6.5 1.33-1.91 4.9-6.41 7.94-9.98 3.03-3.58 6.43-7.26 7.57-8.19 1.13-0.93 2.06-2.12 2.06-2.64 0-0.52 1.24-2.23 2.76-3.81 1.51-1.57 4.32-4.55 6.25-6.61 1.92-2.06 3.51-4.09 3.53-4.5 0.03-0.41 1.72-2.38 3.75-4.38 2.04-1.99 5.51-5.81 7.71-8.49 2.2-2.68 6.14-7.01 8.75-9.62 2.61-2.62 4.75-5.1 4.75-5.51 0-0.41 1.58-1.99 3.5-3.5 1.92-1.51 3.39-3.12 3.25-3.57-0.14-0.45 3-3.94 6.96-7.75 3.97-3.81 7.23-7.27 7.25-7.68 0.02-0.41 3.75-4.36 8.29-8.78 4.54-4.41 7.91-8.01 7.5-8-0.41 0.02 3.53-4.36 8.77-9.72 5.24-5.36 23.63-23.93 40.87-41.25 17.24-17.33 36.7-36.54 43.23-42.7 6.53-6.16 14.96-14.04 18.72-17.5 3.76-3.47 10.51-10.01 15-14.54 4.49-4.53 8.72-8.24 9.41-8.25 0.69-0.01 3.5-2.71 6.25-6.01 2.75-3.3 5.67-6 6.5-6 0.82 0 1.95-0.9 2.5-2 0.55-1.1 1.42-1.89 1.94-1.75 0.51 0.14 3.85-2.68 7.41-6.25 3.56-3.58 9.23-8.98 12.61-12 3.37-3.03 8.15-7.53 10.62-10 2.46-2.48 4.47-4.16 4.45-3.75-0.02 0.41 1.38-0.49 3.11-2 1.72-1.51 5.59-5 8.6-7.75 3.01-2.75 6.33-5.9 7.39-7 1.05-1.1 1.9-1.66 1.89-1.25-0.01 0.41 1.72-0.94 3.85-3 2.12-2.06 6.05-5.55 8.73-7.75 2.67-2.2 6.9-5.9 9.38-8.22 2.49-2.32 4.84-4.23 5.22-4.25 0.39-0.01 1.89-1.04 3.32-2.28 1.44-1.24 3.6-3.15 4.8-4.25 1.2-1.1 2.51-2 2.91-2 0.4 0 1.75-0.98 3-2.18 1.25-1.2 3.53-3.34 5.07-4.75 1.53-1.41 3.22-2.57 3.75-2.57 0.52 0 1.62-1.13 2.45-2.5 0.82-1.38 1.95-2.28 2.5-2 0.55 0.27 1.68-0.51 2.52-1.75 0.83-1.24 1.92-2.25 2.4-2.25 0.49 0 2.17-1.24 3.73-2.76 1.57-1.52 3.9-3.77 5.18-5 1.29-1.23 2.71-2.24 3.16-2.24 0.45 0 2.21-1.24 3.91-2.75 1.71-1.51 3.32-2.75 3.6-2.75 0.27 0 2.41-1.81 4.75-4.02 2.34-2.2 4.57-4 4.95-4 0.39 0.01 1.77-0.99 3.08-2.23 1.3-1.24 3.66-3.15 5.24-4.25 1.58-1.1 3.57-2.79 4.42-3.76 0.86-0.97 2.12-1.75 2.81-1.75 0.69 0.01 1.25-0.44 1.25-0.99 0-0.55 0.56-1 1.25-0.99 0.69 0.01 1.92-0.87 2.75-1.95 0.82-1.08 1.84-1.75 2.25-1.51 0.41 0.25 1.2-0.45 1.75-1.55 0.55-1.1 1.45-1.78 2-1.5 0.55 0.27 1.56-0.4 2.25-1.5 0.69-1.11 1.59-2.01 2-2 0.41 0 1.65-0.79 2.75-1.75 1.1-0.96 2.9-2.54 4-3.5 1.1-0.96 2.45-1.75 3-1.75 0.55 0 1.22-0.68 1.5-1.5 0.27-0.83 1.17-1.5 2-1.5 0.82 0 1.84-0.64 2.25-1.43 0.41-0.78 1.2-1.55 1.75-1.69 0.55-0.15 1.58-0.74 2.3-1.32 0.71-0.58 2.18-1.96 3.27-3.06 1.08-1.1 1.96-1.66 1.95-1.25-0.01 0.41 0.58 0.19 1.31-0.5 0.74-0.69 2.58-2.15 4.09-3.25 1.51-1.1 3.72-2.8 4.91-3.78 1.19-0.98 2.39-1.77 2.67-1.75 0.27 0.01 1.85-1.1 3.5-2.48 1.65-1.37 2.77-2.76 2.5-3.07-0.28-0.31-2.98-0.01-6 0.68-3.03 0.69-6.29 1.17-7.25 1.08-0.96-0.1-1.98 0.27-2.25 0.82-0.28 0.55-1.18 0.77-2 0.5-0.83-0.28-1.5-0.16-1.5 0.25 0 0.41-0.56 0.83-1.25 0.92-0.69 0.09-2.38 0.46-3.75 0.82-1.38 0.36-3.4 0.79-4.5 0.95-1.1 0.17-2.11 0.36-2.25 0.43-0.14 0.07-0.7 0.35-1.25 0.63-0.55 0.27-1.11 0.53-1.25 0.57-0.14 0.03-1.83 0.27-3.75 0.51-1.93 0.25-3.61 0.9-3.75 1.44-0.14 0.54-0.7 0.75-1.25 0.48-0.55-0.28-1.56-0.05-2.25 0.51-0.69 0.55-2.71 1.11-4.5 1.25-1.79 0.13-3.25 0.58-3.25 0.99 0 0.41-0.68 0.52-1.5 0.25-0.83-0.28-1.5-0.16-1.5 0.25 0 0.41-1.24 0.84-2.75 0.95-1.51 0.11-2.98 0.56-3.25 1-0.28 0.44-1.63 0.93-3 1.08-1.38 0.15-2.61 0.72-2.75 1.25-0.14 0.53-1.15 0.74-2.25 0.47-1.1-0.28-2-0.05-2 0.5 0 0.55-0.45 0.77-1 0.5-0.55-0.28-1-0.05-1 0.5 0 0.57-0.96 0.71-2.25 0.32-1.33-0.41-1.98-0.31-1.6 0.25 0.37 0.51-0.76 0.97-2.5 1.03-1.73 0.05-3.26 0.62-3.4 1.25-0.14 0.63-0.93 0.92-1.75 0.65-0.83-0.28-1.5-0.05-1.5 0.5 0 0.55-0.68 0.77-1.5 0.5-0.83-0.28-1.5-0.05-1.5 0.5 0 0.55-0.34 0.95-0.75 0.88-0.41-0.06-1.09-0.06-1.5 0-0.41 0.07-1.2 0.34-1.75 0.62-0.55 0.27-1.23 0.5-1.5 0.5-0.28 0-0.95 0.22-1.5 0.5-0.55 0.27-1.23 0.5-1.5 0.5-0.28 0-0.95 0.22-1.5 0.5-0.55 0.27-1.23 0.5-1.5 0.5-0.28 0-0.84 0.16-1.25 0.36-0.41 0.2-2.22 0.76-4.02 1.25-1.8 0.49-3.27 1.23-3.25 1.64 0.01 0.41-0.32 0.7-0.73 0.63-0.41-0.06-0.98-0.03-1.25 0.08-0.28 0.1-1.63 0.4-3 0.66-1.38 0.26-2.83 1.01-3.23 1.68-0.41 0.66-0.75 0.86-0.75 0.45-0.01-0.41-1.37-0.08-3.02 0.75-1.65 0.82-3.01 1.16-3.02 0.75 0-0.41-0.34-0.19-0.75 0.49-0.4 0.68-2.53 1.48-4.73 1.77-2.2 0.3-4.11 0.98-4.25 1.51-0.14 0.54-0.7 0.75-1.25 0.48-0.55-0.28-1.75 0.06-2.67 0.75-0.91 0.69-2.15 1.32-2.75 1.39-0.59 0.08-1.74 0.31-2.56 0.5-0.81 0.2-2.05 0.92-2.75 1.61-0.7 0.69-1.72 1.02-2.27 0.75-0.55-0.28-2.35-0.05-4 0.5-1.65 0.55-3 1.45-3 2 0 0.55-0.9 0.77-2 0.5-1.23-0.31-2.19 0.08-2.5 1-0.28 0.82-1.18 1.27-2 1-0.83-0.28-1.5-0.05-1.5 0.5 0 0.55-0.34 0.79-0.75 0.53-0.41-0.26-1.98 0.08-3.49 0.75-1.51 0.67-2.75 1.56-2.75 1.97-0.01 0.41-0.57 0.49-1.26 0.18-0.69-0.32-2.04 0.13-3 1-0.96 0.86-1.99 1.23-2.28 0.82-0.29-0.41-0.51-0.19-0.5 0.5 0.02 0.69-0.31 1.2-0.72 1.13-0.41-0.06-0.98-0.03-1.25 0.08-0.28 0.1-1.63 0.39-3 0.64-1.38 0.25-2.61 0.89-2.75 1.43-0.14 0.53-0.7 0.74-1.25 0.47-0.55-0.28-1-0.05-1 0.5 0 0.55-0.45 0.77-1 0.5-0.55-0.28-1-0.16-1 0.25 0 0.41-0.56 0.8-1.25 0.86-0.69 0.05-3.05 0.91-5.25 1.9-2.2 0.99-4.34 1.73-4.75 1.64-0.41-0.08-0.75 0.19-0.75 0.6 0 0.41-1.01 0.84-2.25 0.96-1.24 0.12-2.36 0.68-2.5 1.25-0.14 0.57-0.7 0.81-1.25 0.54-0.55-0.28-1-0.05-1 0.5 0 0.55-1.24 1.3-2.75 1.67-1.51 0.37-2.98 0.74-3.25 0.83-0.28 0.09-1.74 0.46-3.25 0.83-1.51 0.37-2.75 1.12-2.75 1.67 0 0.55-1.13 1-2.5 1-1.38 0-2.5 0.45-2.5 1 0 0.55-0.45 0.77-1 0.5-0.55-0.28-1-0.05-1 0.5 0 0.55-0.45 0.77-1 0.5-0.55-0.28-1-0.05-1 0.5 0 0.55-0.45 0.77-1 0.5-0.55-0.28-1-0.05-1 0.5 0 0.55-0.45 0.77-1 0.5-0.55-0.28-1.68 0.17-2.5 1-0.83 0.82-1.74 1.16-2.03 0.75-0.29-0.41-0.51-0.19-0.5 0.5 0.02 0.69-0.42 1.02-0.97 0.75-0.55-0.28-1-0.05-1 0.5 0 0.55-0.34 0.89-0.76 0.75-0.41-0.14-2.89 0.65-5.51 1.75-2.62 1.1-4.75 2.34-4.74 2.75 0 0.41-0.44 0.52-0.99 0.25-0.55-0.28-1-0.05-1 0.5 0 0.55-0.45 0.77-1 0.5-0.55-0.28-1.23-0.05-1.5 0.5-0.28 0.55-0.95 0.77-1.5 0.5-0.55-0.28-1.45 0.17-2 1-0.55 0.82-1.45 1.27-2 1-0.55-0.28-1-0.05-1 0.5 0 0.55-0.45 0.77-1 0.5-0.55-0.28-1-0.05-1 0.5 0 0.55-0.45 0.77-1 0.5-0.55-0.28-1-0.05-1 0.5 0 0.55-0.45 0.77-1 0.5-0.55-0.28-0.99 0.06-0.97 0.75 0.01 0.69-0.32 0.91-0.75 0.5-0.43-0.42-1.58 0.03-2.56 1-0.98 0.96-1.78 1.3-1.77 0.75 0.01-0.55-0.31-0.44-0.72 0.24-0.4 0.68-1.86 1.47-3.23 1.76-1.38 0.29-2.73 0.97-3 1.5-0.28 0.53-1.63 1.21-3 1.5-1.38 0.29-2.73 1.01-3 1.6-0.28 0.59-0.95 1.04-1.5 1.01-0.55-0.03-2.24 0.49-3.75 1.17-1.52 0.67-2.75 1.56-2.75 1.97 0 0.41-0.45 0.52-1 0.25-0.55-0.28-1-0.05-1 0.5 0 0.55-0.45 0.77-1 0.5-0.55-0.28-1-0.05-1 0.5 0 0.55-0.45 0.77-1 0.5-0.55-0.28-1.68 0.17-2.5 1-0.83 0.82-1.74 1.16-2.03 0.75-0.29-0.41-0.51-0.19-0.5 0.5 0.02 0.69-0.42 1.02-0.97 0.75-0.55-0.28-1-0.05-1 0.5 0 0.55-0.68 1-1.5 1-0.83 0-3.4 1.01-5.72 2.25-2.33 1.24-4.69 2.88-5.25 3.65-0.57 0.77-1.59 1.11-2.28 0.75-0.69-0.36-1.81 0.08-2.5 0.97-0.69 0.89-2.38 2.23-3.75 2.97-1.38 0.74-2.85 1.02-3.28 0.63-0.43-0.4-0.76-0.16-0.75 0.53 0.02 0.69-0.42 1.02-0.97 0.75-0.55-0.28-1.56 0.08-2.25 0.79-0.69 0.71-2.73 1.95-4.54 2.75-1.81 0.8-3.27 1.8-3.25 2.21 0.02 0.41-0.41 0.52-0.96 0.25-0.55-0.28-1-0.05-1 0.5 0 0.55-0.45 0.77-1 0.5-0.55-0.28-1-0.05-1 0.5 0 0.55-0.87 1-1.93 1-1.06 0-2.63 0.67-3.5 1.5-0.86 0.82-1.79 1.16-2.06 0.75-0.27-0.41-0.72 0.04-1 1-0.28 0.96-0.85 1.54-1.26 1.28-0.41-0.26-1.67 0.3-2.79 1.25-1.12 0.95-2.7 1.87-3.5 2.05-0.8 0.18-1.8 0.97-2.21 1.75-0.41 0.78-1.2 1.19-1.75 0.92-0.55-0.28-1-0.05-1 0.5 0 0.55-0.64 1-1.43 1-0.78 0-2.13 0.67-3 1.5-0.86 0.82-1.57 1.27-1.57 1 0-0.28-0.68 0.17-1.5 1-0.83 0.82-1.95 1.27-2.5 1-0.55-0.28-1-0.16-1 0.25 0 0.41-0.56 0.78-1.25 0.81-0.69 0.04-2.83 1.16-4.75 2.5-1.93 1.34-3.73 2.82-4 3.28-0.28 0.45-0.95 0.85-1.5 0.88-0.55 0.03-2.24 0.45-3.75 0.92-1.51 0.47-2.53 1.2-2.27 1.61 0.26 0.41-2 1.87-5.03 3.25-3.03 1.37-5.16 2.85-4.73 3.28 0.43 0.43-0.12 0.75-1.22 0.72-1.1-0.03-3.8 1.22-6 2.78-2.2 1.56-4.79 3.15-5.75 3.53-0.96 0.38-1.75 1.14-1.75 1.69 0 0.55-0.45 0.77-1 0.5-0.55-0.28-1.34 0.06-1.75 0.75-0.41 0.69-2.45 2.15-4.53 3.25-2.08 1.1-3.77 2.34-3.75 2.75 0.02 0.41-0.87 0.75-1.97 0.75-1.1 0-2.34 0.64-2.75 1.43-0.41 0.78-1.09 1.46-1.5 1.5-0.41 0.04-1.09 0.07-1.5 0.07-0.41-0.01-1.99 1.12-3.5 2.5-1.51 1.37-2.76 2.16-2.78 1.75-0.02-0.41-0.58-0.03-1.25 0.85-0.67 0.88-2.23 1.9-3.47 2.25-1.24 0.36-2.25 1.1-2.25 1.65 0 0.55-0.45 0.77-1 0.5-0.55-0.28-1.23 0.17-1.5 1-0.28 0.82-1.18 1.5-2 1.5-0.83 0-1.5 0.45-1.5 1 0 0.55-0.45 0.77-1 0.5-0.55-0.28-1.23 0.29-1.51 1.25-0.28 0.96-0.84 1.42-1.25 1.02-0.41-0.4-2.2 0.61-3.99 2.25-1.79 1.64-4.04 2.86-5 2.72-0.96-0.15-1.86-0.82-2-1.5-0.14-0.68-0.3-1.58-0.37-1.99-0.06-0.41-0.06-1.09 0-1.5 0.07-0.41-0.33-0.75-0.88-0.75-0.55 0-1.31-1.46-1.69-3.25-0.39-1.79-0.76-3.48-0.84-3.75-0.07-0.28-0.68-1.85-1.34-3.5-0.66-1.65-3.88-9.98-7.15-18.5-3.28-8.53-5.95-15.95-5.94-16.5 0-0.55-0.76-2.8-1.69-5-0.94-2.2-1.87-4.9-2.08-6-0.2-1.1-0.8-2.45-1.31-3-0.52-0.55-0.65-1.34-0.29-1.75 0.37-0.41 0.14-0.75-0.5-0.75-0.65 0-1.17-0.9-1.17-2 0-1.1-0.34-2.17-0.75-2.37-0.41-0.2-1.12-1.66-1.58-3.25-0.46-1.58-3.27-9.18-6.24-16.88-2.98-7.7-5.58-14.9-5.78-16-0.2-1.1-1.11-3.24-2.01-4.75-0.9-1.51-1.3-2.73-0.89-2.71 0.41 0.03 0.07-0.67-0.75-1.54-0.83-0.87-1.16-1.57-0.75-1.54 0.41 0.02 0.07-1.09-0.75-2.46-0.83-1.38-1.63-3.29-1.78-4.25-0.15-0.96-0.6-2.31-1-3-0.4-0.69-0.38-1.26 0.03-1.27 0.41 0 0.18-0.34-0.51-0.75-0.7-0.4-1.37-1.74-1.5-2.98-0.13-1.24-0.58-2.25-0.99-2.25-0.41 0-0.65-0.34-0.54-0.75 0.12-0.41-0.32-1.65-0.97-2.75-0.65-1.1-0.86-2.32-0.46-2.72 0.39-0.39-0.29-2.3-1.53-4.25-1.24-1.94-2.03-3.98-1.75-4.53 0.27-0.55-0.03-1-0.67-1-0.64 0-0.88-0.34-0.53-0.75 0.35-0.41 0-1.65-0.77-2.75-0.77-1.1-1.21-2.56-0.97-3.25 0.24-0.69-0.01-1.25-0.56-1.25-0.55 0-0.78-0.45-0.5-1 0.27-0.55-0.03-1-0.67-1-0.64 0-0.88-0.34-0.52-0.75 0.35-0.41 0.1-1.65-0.55-2.75-0.65-1.1-1.08-2.45-0.95-3 0.13-0.55-0.45-2.01-1.28-3.25-0.84-1.24-1.19-2.23-0.78-2.21 0.41 0.03 0.07-0.67-0.75-1.54-0.83-0.87-1.16-1.57-0.75-1.54 0.41 0.02-0.16-1.65-1.27-3.71-1.1-2.06-2.16-4.43-2.34-5.25-0.18-0.83-1.32-3.75-2.54-6.5-1.22-2.75-2.34-5.68-2.5-6.5-0.16-0.83-0.81-2.74-1.45-4.25-0.63-1.51-1.6-2.98-2.15-3.25-0.55-0.28-1.68 0.62-2.5 2-0.83 1.37-1.28 2.5-1 2.5 0.27 0-0.18 1.12-1 2.5-0.83 1.37-1.28 2.5-1 2.5 0.27 0-0.04 1.01-0.7 2.25-0.66 1.24-1.36 3.15-1.55 4.25-0.2 1.1-0.77 2.45-1.28 3-0.51 0.55-1.2 2.35-1.52 4-0.33 1.65-1.12 3.33-1.77 3.73-0.65 0.41-0.73 0.73-0.18 0.71 0.55-0.02 0.44 0.55-0.24 1.27-0.69 0.71-0.91 1.64-0.5 2.07 0.41 0.43 0.18 0.76-0.51 0.75-0.69-0.02-1.17 0.31-1.07 0.72 0.09 0.41-0.39 2.77-1.08 5.25-0.68 2.47-1.89 5.06-2.67 5.75-0.79 0.69-1.38 1.59-1.31 2 0.06 0.41 0.06 1.09 0 1.5-0.07 0.41-0.27 1.09-0.46 1.5-0.18 0.41-0.59 1.42-0.89 2.25-0.31 0.82-2.04 5.77-3.83 11-1.8 5.22-4.04 11.3-4.99 13.5-0.95 2.2-2.75 6.92-4 10.5-1.25 3.57-2.77 7.08-3.36 7.79-0.6 0.72-0.75 1.28-0.34 1.25 0.41-0.02 0.2 0.97-0.46 2.21-0.67 1.24-1.25 2.47-1.3 2.75-0.04 0.27-0.68 2.3-1.41 4.5-0.74 2.2-1.67 4.45-2.07 5-0.41 0.55-1.06 2.35-1.46 4-0.39 1.65-1.14 3.22-1.65 3.5-0.52 0.27-1.09 1.17-1.27 2-0.18 0.82-0.66 2.4-1.07 3.5-0.41 1.1-1.26 3.35-1.89 5-0.63 1.65-1.26 3.34-1.41 3.75-0.14 0.41-0.29 0.86-0.34 1-0.04 0.14-0.25 1.15-0.48 2.25-0.22 1.1-0.97 2.33-1.67 2.73-0.7 0.41-0.82 0.73-0.27 0.71 0.55-0.02 0.44 0.55-0.24 1.27-0.69 0.71-0.91 1.64-0.5 2.07 0.41 0.43 0.18 0.76-0.51 0.75-0.69-0.02-1.03 0.42-0.75 0.97 0.27 0.55 0.05 1.22-0.5 1.5-0.55 0.27-1 1.4-1 2.5 0 1.1-1.13 4.47-2.5 7.5-1.38 3.02-2.5 6.17-2.5 7 0 0.82-0.45 1.72-1 2-0.55 0.27-0.79 0.84-0.54 1.25 0.25 0.41-0.43 2.44-1.5 4.5-1.08 2.06-1.62 3.73-1.21 3.71 0.41-0.03 0.23 0.53-0.41 1.25-0.65 0.71-1.18 1.51-1.18 1.79-0.01 0.27-0.59 1.85-1.29 3.5-0.69 1.65-1.35 3.45-1.45 4-0.1 0.55-0.28 1.22-0.38 1.5-0.11 0.27-0.32 1.17-0.47 2-0.16 0.82-1.55 5.32-3.1 10-1.54 4.67-3.41 9.06-4.14 9.75-1.07 1.01-1.51 0.91-2.26-0.5-0.51-0.96-1.3-1.65-1.75-1.53-0.45 0.12-3.19-1.23-6.08-3-2.9-1.77-5.26-3.56-5.25-3.97 0-0.41-0.67-0.75-1.49-0.75-0.83 0-1.5-0.45-1.5-1 0-0.55-0.45-0.78-1-0.5-0.55 0.27-1.23-0.18-1.5-1-0.28-0.83-0.95-1.28-1.5-1-0.55 0.27-1.23-0.18-1.5-1-0.28-0.83-0.95-1.28-1.5-1-0.55 0.27-1 0.05-1-0.5 0-0.55-0.68-1-1.5-1-0.83 0-1.5-0.45-1.5-1 0-0.55-0.45-0.78-1-0.5-0.55 0.27-1 0.05-1-0.5 0-0.55-0.68-1-1.5-1-0.83 0-1.73-0.68-2-1.5-0.28-0.83-0.84-1.41-1.25-1.29-0.41 0.11-2.21-0.57-4-1.5-1.79-0.94-3.25-2.16-3.25-2.71 0-0.55-0.45-0.78-1-0.5-0.55 0.27-1 0.05-1-0.5 0-0.55-0.68-1-1.5-1-0.83 0-1.5-0.45-1.5-1 0-0.55-0.45-0.78-1-0.5-0.55 0.27-1 0.05-1-0.5 0-0.55-0.56-1.02-1.25-1.03-0.69-0.02-3.95-1.69-7.25-3.72-3.3-2.02-6.9-4.46-8-5.43-1.1-0.97-2.34-1.55-2.75-1.29-0.41 0.26-0.75 0.02-0.75-0.53 0-0.55-0.45-0.78-1-0.5-0.55 0.27-1 0.05-1-0.5 0-0.55-1.46-1.68-3.25-2.51-1.79-0.84-4.13-2.08-5.21-2.75-1.07-0.68-2.54-1.8-3.25-2.49-0.71-0.69-1.97-1.25-2.79-1.25-0.83 0-1.5-0.45-1.5-1 0-0.55-0.45-0.78-1-0.5-0.55 0.27-0.99-0.06-0.97-0.75 0.01-0.69-0.32-0.93-0.75-0.54-0.43 0.39-2.13-0.4-3.78-1.75-1.65-1.35-3.35-2.12-3.78-1.71-0.43 0.41-0.76 0.19-0.75-0.5 0.02-0.69-0.42-1.03-0.97-0.75-0.55 0.27-1 0.05-1-0.5 0-0.55-1.13-1.23-2.5-1.5-1.38-0.28-2.5-0.95-2.5-1.5 0-0.55-0.34-0.95-0.75-0.88-0.41 0.06-1.31 0.06-2 0-0.69-0.07-1.06-0.46-0.83-0.87 0.22-0.41-1.58-1.54-4-2.5-2.43-0.96-4.42-2.2-4.42-2.75 0-0.55-0.9-1-2-1-1.1 0-2-0.45-2-1 0-0.55-1.58-1.45-3.5-2-1.93-0.55-3.5-1.45-3.5-2 0-0.55-0.45-0.78-1-0.5-0.55 0.27-1 0.05-1-0.5 0-0.55-1.35-1.23-3-1.5-1.65-0.28-3-0.95-3-1.5 0-0.55-1.8-1.68-4-2.5-2.2-0.83-4.23-1.95-4.5-2.5-0.28-0.55-0.95-0.78-1.5-0.5-0.55 0.27-1 0.05-1-0.5 0-0.55-0.45-0.78-1-0.5-0.55 0.27-1 0.05-1-0.5 0-0.55-0.45-0.78-1-0.5-0.55 0.27-1.56-0.1-2.25-0.83-0.69-0.73-3.05-2.17-5.25-3.2-2.2-1.03-4.23-2.12-4.5-2.44-0.28-0.31-1.85-1.2-3.5-1.97-1.65-0.78-3.34-1.33-3.75-1.23-0.41 0.09-0.75-0.28-0.75-0.83 0-0.55-0.9-1-2-1-1.1 0-2-0.45-2-1 0-0.55-0.45-0.78-1-0.5-0.55 0.27-1.45-0.18-2-1-0.55-0.83-1.45-1.28-2-1-0.55 0.27-0.98 0.16-0.96-0.25 0.02-0.41-1.44-1.42-3.25-2.24-1.81-0.82-3.63-1.38-4.04-1.25-0.41 0.13-0.75-0.21-0.75-0.76 0-0.55-0.45-0.78-1-0.5-0.55 0.27-1.45-0.18-2-1-0.55-0.83-1.45-1.28-2-1-0.55 0.27-1 0.05-1-0.5 0-0.55-0.45-0.78-1-0.5-0.55 0.27-1 0.05-1-0.5 0-0.55-0.68-1-1.5-1-0.83 0-2.96-0.9-4.75-2-1.79-1.09-4.04-1.99-5-2-0.96 0-2.43-0.68-3.25-1.5-0.83-0.83-1.51-1.16-1.52-0.75 0 0.41-0.34 0.29-0.75-0.28-0.4-0.56-2.75-1.91-5.21-3-2.46-1.08-4.83-1.86-5.25-1.72-0.42 0.14-0.77-0.2-0.77-0.75 0-0.55-0.34-0.9-0.75-0.79-0.41 0.12-1.65-0.32-2.75-0.97-1.1-0.65-2.35-0.86-2.78-0.46-0.43 0.39-0.76 0.16-0.75-0.53 0.02-0.69-1.88-1.94-4.22-2.79-2.34-0.85-4.51-1.41-4.82-1.25-0.32 0.16-1.33-0.5-2.25-1.46-0.92-0.96-2.13-1.53-2.68-1.25-0.55 0.27-1 0.05-1-0.5 0-0.55-0.45-0.78-1-0.5-0.55 0.27-1 0.16-1.01-0.25 0-0.41-1.24-1.3-2.75-1.97-1.51-0.67-3.08-1.01-3.49-0.75-0.41 0.26-0.75 0.02-0.75-0.53 0-0.55-0.45-0.78-1-0.5-0.55 0.27-1 0.05-1-0.5 0-0.55-0.68-0.78-1.5-0.5-0.83 0.27-1.5 0.05-1.5-0.5 0-0.55-0.34-0.93-0.75-0.84-0.41 0.09-3-0.88-5.75-2.16-2.75-1.29-5.23-2.39-5.5-2.45-0.28-0.07-1.4-0.62-2.5-1.24-1.1-0.61-2.45-1.21-3-1.34-0.55-0.12-1.68-0.46-2.5-0.74-0.83-0.29-2.96-1.13-4.75-1.88-1.79-0.74-3.59-1.31-4-1.26-0.41 0.04-0.98-0.39-1.25-0.96-0.28-0.57-1.4-1.18-2.5-1.36-1.1-0.18-2.45-0.59-3-0.91-0.55-0.32-2.24-0.87-3.75-1.22-1.51-0.35-2.75-1.09-2.75-1.64 0-0.55-0.5-0.66-1.11-0.25-0.61 0.41-1.4 0.21-1.75-0.45-0.35-0.67-1.77-1.42-3.14-1.68-1.38-0.26-2.61-0.5-2.75-0.55-0.14-0.04-0.59-0.2-1-0.36-0.41-0.15-1.65-0.82-2.75-1.47-1.1-0.65-2.35-0.86-2.78-0.46-0.43 0.39-0.76 0.16-0.75-0.53 0.02-0.69-1.32-1.48-2.97-1.75-1.65-0.28-3.14-0.39-3.32-0.25-0.18 0.14-1.19-0.57-2.25-1.57-1.06-1-2.49-1.57-3.18-1.25-0.69 0.31-1.25 0.12-1.25-0.43 0-0.55-1.24-1.42-2.75-1.94-1.51-0.52-3.09-0.74-3.5-0.5-0.41 0.24-1.76-0.22-3-1.02-1.24-0.8-3.15-1.61-4.25-1.8-1.1-0.19-2.9-0.87-4-1.51-1.1-0.65-2.35-0.85-2.78-0.45-0.43 0.39-0.76 0.16-0.75-0.53 0.02-0.7-0.46-0.92-1.08-0.5-0.61 0.41-1.4 0.21-1.75-0.45-0.35-0.67-1.77-1.42-3.14-1.68-1.38-0.26-2.61-0.5-2.75-0.55-0.14-0.04-0.59-0.22-1-0.4-0.41-0.18-2.1-0.7-3.75-1.14-1.65-0.44-3.58-1.31-4.29-1.92-0.78-0.66-1.26-0.71-1.21-0.11 0.05 0.55-0.63 0.32-1.5-0.5-0.87-0.83-1.55-1.05-1.5-0.5 0.05 0.55-0.63 0.32-1.5-0.5-0.87-0.83-1.55-1.05-1.5-0.5 0.05 0.57-0.47 0.49-1.21-0.17-0.71-0.64-1.63-1.2-2.04-1.24-0.41-0.05-0.98-0.09-1.25-0.09-0.28 0-0.95-0.23-1.5-0.5-0.55-0.28-1.11-0.54-1.25-0.58-0.14-0.05-1.49-0.27-3-0.5-1.51-0.23-3.76-1.1-5-1.93-1.24-0.82-2.61-1.16-3.06-0.75-0.44 0.42-1.11 0.16-1.5-0.57-0.38-0.73-1.97-1.4-3.54-1.5-1.56-0.09-3.02-0.51-3.25-0.92-0.22-0.41-0.85-0.53-1.4-0.25-0.55 0.27-1 0.05-1-0.5 0-0.55-2.36-1.52-5.25-2.16-2.89-0.64-5.81-1.21-6.5-1.25-0.69-0.05-1.25-0.43-1.25-0.84 0-0.41-0.68-0.53-1.5-0.25-0.83 0.27-1.73 0.05-2-0.5-0.28-0.55-0.95-0.78-1.5-0.5-0.55 0.27-1 0.05-1-0.5 0-0.55-0.68-0.78-1.5-0.5-0.83 0.27-1.73 0.05-2-0.5-0.28-0.55-1.18-0.78-2-0.5-0.83 0.27-1.73 0.05-2-0.5-0.28-0.55-0.95-0.78-1.5-0.5-0.55 0.27-1.23 0.05-1.5-0.5-0.28-0.55-0.95-0.78-1.5-0.5-0.55 0.27-1.74-0.06-2.65-0.75-0.91-0.69-1.81-1.14-2-1-0.19 0.14-1.81-0.03-3.6-0.37-1.79-0.33-3.7-0.95-4.25-1.36-0.55-0.41-1.68-0.78-2.5-0.82-0.83-0.04-3.08-0.35-5-0.69-1.93-0.33-4.18-0.86-5-1.18-0.83-0.32-3.26-0.91-5.41-1.32-2.15-0.41-3.84-0.35-3.75 0.12zm387.33 401.56c-0.74 0.29-2.86 2.05-4.72 3.92-1.86 1.86-3.67 3.39-4.03 3.39-0.35 0-1.9 1.24-3.45 2.75-1.54 1.51-4.86 4.66-7.38 7-2.53 2.34-4.93 4.3-5.34 4.36-0.41 0.06-1.88 1.4-3.25 2.98-1.38 1.58-2.84 2.66-3.25 2.39-0.41-0.26-0.64 0.05-0.5 0.69 0.14 0.64-0.88 1.77-2.25 2.5-1.38 0.74-4.41 3.47-6.75 6.08-2.33 2.61-4.24 4.41-4.25 4 0-0.41-3.26 2.63-7.25 6.75-3.99 4.13-7.59 7.5-8 7.5-0.41 0-4.46 3.84-9 8.52-4.54 4.69-8.59 8.52-9 8.5-0.41-0.01-5.47 4.59-11.23 10.23-5.76 5.64-21.17 20.94-34.25 34-13.07 13.06-29.17 29.43-35.77 36.39-6.6 6.95-15.26 15.95-19.25 20-3.99 4.05-7.03 7.36-6.75 7.36 0.27 0-2.76 3.45-6.75 7.67-3.99 4.21-9.73 10.27-12.76 13.47-3.03 3.2-5.6 6.16-5.72 6.59-0.12 0.42-2.37 2.88-5 5.46-2.62 2.58-6.43 6.63-8.45 9-2.02 2.37-5.62 6.52-8 9.22-2.38 2.7-5.67 6.41-7.32 8.25-1.65 1.83-4.22 4.8-5.72 6.59-1.5 1.79-4.2 5.01-6 7.15-1.8 2.15-4.52 5.18-6.03 6.75-1.51 1.57-2.77 3.19-2.79 3.6-0.03 0.41-2.35 3.45-5.17 6.75-2.82 3.3-6.85 7.69-8.96 9.75-2.11 2.06-3.72 4.02-3.58 4.35 0.14 0.34-1.44 2.36-3.5 4.5-2.06 2.15-3.41 3.91-3 3.93 0.41 0.02-0.15 0.81-1.25 1.76-1.1 0.95-4.48 4.99-7.5 8.98-3.03 3.99-6.06 7.48-6.75 7.74-0.69 0.27-1.25 1.05-1.24 1.74 0 0.69-0.78 1.95-1.75 2.81-0.97 0.85-2.66 2.8-3.76 4.33-1.1 1.53-3.58 4.79-5.5 7.24-1.93 2.44-4.06 4.65-4.75 4.91-0.69 0.25-1.25 1.13-1.25 1.96 0 0.82-0.34 1.61-0.75 1.75-0.41 0.14-1.43 1.21-2.25 2.37-0.83 1.17-3.48 4.77-5.9 8-2.41 3.24-5.45 6.89-6.75 8.13-1.29 1.24-2.35 2.47-2.35 2.75 0 0.27-1.46 2.33-3.25 4.56-1.79 2.23-4.03 5.05-4.98 6.25-0.95 1.2-2.19 2.75-2.75 3.44-0.56 0.69-0.68 1.25-0.27 1.25 0.41 0-0.48 1.01-1.98 2.25-1.51 1.24-2.41 2.58-2 2.99 0.4 0.41-0.06 0.97-1.02 1.25-0.96 0.28-1.75 1.18-1.75 2.01 0 0.82-0.79 1.94-1.75 2.47-0.96 0.53-1.41 0.98-1 1 0.41 0.02-2 3.74-5.35 8.28-3.36 4.54-6.51 8.36-7 8.5-0.5 0.14-0.91 0.81-0.93 1.5-0.01 0.69-1.82 3.27-4.01 5.75-2.19 2.47-3.98 5.06-3.97 5.75 0 0.69-0.44 1.25-0.99 1.25-0.55 0-1 0.67-1 1.5 0 0.82-0.34 1.48-0.75 1.46-0.41-0.02-1.43 1.21-2.26 2.75-0.83 1.53-2.85 4.72-4.5 7.08-1.64 2.36-3.33 4.27-3.74 4.25-0.41-0.02-0.53 0.41-0.25 0.96 0.27 0.55-0.18 1.22-1 1.5-0.83 0.27-1.5 1.06-1.49 1.75 0 0.69-1.35 2.71-3 4.5-1.66 1.79-3.03 3.59-3.05 4-0.02 0.41-1.97 3.45-4.35 6.75-2.37 3.3-5.05 6.79-5.96 7.75-0.91 0.96-1.65 2.2-1.65 2.75 0 0.55-0.45 1-1 1-0.55 0-0.99 0.56-0.98 1.25 0.01 0.69-0.89 2.26-2 3.5-1.11 1.24-2.02 2.7-2.02 3.25 0 0.55-0.45 1-1 1-0.55 0-1 0.67-1 1.5 0 0.82-0.34 1.5-0.75 1.5-0.41 0-1.3 1.23-1.96 2.75-0.67 1.51-2.13 3.76-3.25 5-1.12 1.24-2.04 2.7-2.04 3.25 0 0.55-0.45 1-1 1-0.55 0-0.99 0.56-0.98 1.25 0.01 0.69-0.89 2.26-2 3.5-1.11 1.24-2.02 2.7-2.02 3.25 0 0.55-0.45 1-1 1-0.55 0-1 0.67-1 1.5 0 0.82-0.34 1.49-0.75 1.47-0.41-0.01-1.41 1.22-2.22 2.75-0.8 1.53-2.67 4.58-4.13 6.78-1.47 2.2-5.57 8.5-9.11 14-3.55 5.5-9.07 14.05-12.29 19-3.21 4.95-6.11 9.22-6.44 9.5-0.33 0.27-1.15 1.74-1.83 3.25-0.68 1.51-1.68 2.75-2.23 2.75-0.55 0-0.78 0.45-0.5 1 0.27 0.55 0.05 1-0.5 1-0.55 0-1.23 1.12-1.5 2.5-0.28 1.37-0.95 2.5-1.5 2.5-0.55 0-0.78 0.45-0.5 1 0.27 0.55-0.18 1.22-1 1.5-0.83 0.27-1.29 0.84-1.03 1.25 0.26 0.41-0.42 1.76-1.5 3-1.08 1.24-1.63 2.26-1.22 2.27 0.41 0 0.3 0.34-0.25 0.75-0.55 0.4-2.32 3.2-3.92 6.23-1.61 3.02-4.99 8.65-7.51 12.5-2.52 3.85-5.12 7.9-5.79 9-0.67 1.1-3.26 5.94-5.75 10.75-2.49 4.81-4.51 8.86-4.49 9 0.02 0.14 2.16-0.75 4.75-1.97 2.59-1.23 5.16-2.6 5.71-3.06 0.55-0.46 7.52-4.12 15.5-8.13 7.97-4.02 15.08-7.82 15.79-8.45 0.76-0.66 1.27-0.72 1.22-0.14-0.04 0.55 0.85 0.1 1.99-1 1.14-1.1 2.05-1.66 2.03-1.25-0.02 0.41 1.09 0.07 2.47-0.75 1.37-0.83 2.51-1.16 2.52-0.75 0 0.41 0.34 0.18 0.75-0.52 0.4-0.7 1.4-1.4 2.23-1.55 0.82-0.16 2.85-1.04 4.5-1.95 1.65-0.92 3.35-1.34 3.78-0.95 0.43 0.4 0.76 0.16 0.75-0.53-0.02-0.69 0.42-1.03 0.97-0.75 0.55 0.27 1 0.05 1-0.5 0-0.55 0.45-0.78 1-0.5 0.55 0.27 0.99-0.06 0.97-0.75-0.01-0.69 0.32-0.91 0.75-0.49 0.43 0.41 3.14-0.6 6.03-2.25 2.89-1.66 5.47-3.01 5.75-3.01 0.27 0 0.72 0 1 0 0.27 0 0.84-0.15 1.25-0.34 0.41-0.19 2.32-1.05 4.25-1.91 1.92-0.87 4.17-1.73 5-1.91 0.82-0.19 1.72-0.6 2-0.92 0.27-0.32 6.35-2.94 13.5-5.81 7.15-2.87 13.67-5.36 14.5-5.52 0.82-0.16 3.3-1.09 5.5-2.07 2.2-0.97 4.45-1.85 5-1.97 0.55-0.11 2.57-0.88 4.5-1.72 1.92-0.83 5.3-2.13 7.5-2.88 2.2-0.75 4.22-1.42 4.5-1.49 0.27-0.07 1.17-0.45 2-0.83 0.82-0.38 2.4-0.87 3.5-1.09 1.1-0.21 2.11-0.42 2.25-0.46 0.14-0.05 0.7-0.31 1.25-0.58 0.55-0.28 1.22-0.5 1.5-0.5 0.27 0 0.84-0.15 1.25-0.34 0.41-0.18 1.42-0.65 2.25-1.03 0.82-0.38 2.4-0.87 3.5-1.09 1.1-0.21 2.22-0.47 2.5-0.58 0.27-0.11 0.84-0.14 1.25-0.08 0.41 0.07 0.75-0.33 0.75-0.88 0-0.55 0.67-0.78 1.5-0.5 0.82 0.27 1.5 0.05 1.5-0.5 0-0.55 1.26-1 2.8-1 1.54 0 3.23-0.39 3.75-0.86 0.52-0.47 3.42-1.64 6.45-2.61 3.02-0.97 6.17-1.9 7-2.07 0.82-0.17 1.61-0.34 1.75-0.38 0.14-0.05 0.59-0.2 1-0.35 0.41-0.14 1.2-0.53 1.75-0.86 0.55-0.34 2.57-1.1 4.5-1.7 1.92-0.61 4.62-1.33 6-1.61 1.37-0.29 6.32-1.67 11-3.07 4.67-1.41 9.4-2.74 10.5-2.96 1.1-0.22 4.47-1.16 7.5-2.1 3.02-0.94 6.4-1.85 7.5-2.02 1.1-0.17 4.92-1.2 8.5-2.29 3.57-1.09 7.06-1.79 7.75-1.55 0.69 0.24 1.25-0.02 1.25-0.57 0-0.55 0.67-0.78 1.5-0.5 0.82 0.27 1.72 0.05 2-0.5 0.27-0.55 1.17-0.78 2-0.5 0.82 0.27 1.72 0.05 2-0.5 0.27-0.55 1.17-0.78 2-0.5 0.82 0.27 1.72 0.05 2-0.5 0.27-0.55 0.95-0.78 1.5-0.5 0.55 0.27 1.67 0.05 2.5-0.5 0.82-0.55 2.17-0.78 3-0.5 0.82 0.27 1.72 0.05 2-0.5 0.27-0.55 0.95-0.78 1.5-0.5 0.55 0.27 1.56 0.1 2.25-0.39 0.69-0.49 3.05-1.11 5.25-1.38 2.2-0.27 4.9-0.76 6-1.09 1.1-0.33 5.82-1.54 10.5-2.69 4.67-1.14 9.85-2.29 11.5-2.55 1.65-0.26 4.12-0.7 5.5-0.97 1.37-0.27 3.62-0.66 5-0.86 1.37-0.2 2.5-0.45 2.5-0.55 0-0.1 1.12-0.39 2.5-0.63 1.37-0.25 3.4-0.55 4.5-0.68 1.1-0.12 2.56-0.56 3.25-0.97 0.69-0.41 3.39-0.82 6-0.91 2.61-0.1 5.2-0.42 5.75-0.72 0.55-0.3 2.12-0.68 3.5-0.84 1.37-0.16 3.17-0.34 4-0.38 0.82-0.05 3.3-0.54 5.5-1.1 2.2-0.55 5.01-1.18 6.25-1.4 1.24-0.21 3.49-0.64 5-0.94 1.51-0.3 6.8-1.23 11.75-2.06 4.95-0.83 10.8-1.71 13-1.96 2.2-0.25 5.35-0.57 7-0.7 1.65-0.14 3.67-0.63 4.5-1.11 0.82-0.47 2.51-0.58 3.75-0.24 1.24 0.34 2.81 0.32 3.5-0.05 0.69-0.36 3.05-0.82 5.25-1 2.2-0.19 5.69-0.34 7.75-0.33 2.06 0 3.75-0.45 3.75-1 0-0.62 1.79-0.74 4.75-0.31 2.91 0.42 4.5 0.33 4.1-0.25-0.36-0.53 1.14-0.99 3.5-1.06 2.28-0.07 5.95-0.4 8.15-0.75 2.2-0.35 5.8-0.87 8-1.16 2.2-0.29 5.8-0.73 8-0.97 2.2-0.25 5.92-0.8 8.26-1.22 3.63-0.67 4.47-1.29 5.67-4.28 0.77-1.93 2.08-5.08 2.9-7 0.82-1.93 1.53-3.84 1.58-4.25 0.05-0.41 1.25-3.34 2.67-6.5 1.42-3.16 4.84-11.38 7.6-18.25 2.76-6.88 5.74-13.85 6.61-15.5 0.88-1.65 1.73-3.68 1.89-4.5 0.15-0.83 0.85-1.83 1.55-2.23 0.7-0.41 0.93-0.75 0.52-0.75-0.41-0.01 1.09-4.18 3.34-9.27 2.24-5.09 7.71-16.68 12.14-25.75 4.43-9.08 8.48-16.73 9-17 0.52-0.28 0.88-0.95 0.82-1.5-0.07-0.55 0.68-2.7 1.66-4.78 0.98-2.08 2.13-3.77 2.54-3.75 0.41 0.02 0.52-0.42 0.25-0.97-0.28-0.55-0.05-1 0.5-1 0.55 0 0.77-0.45 0.5-1-0.28-0.55-0.05-1 0.5-1 0.55 0 0.77-0.45 0.5-1-0.28-0.55 0.06-1.57 0.75-2.27 0.69-0.7 1.4-1.94 1.59-2.75 0.18-0.82 0.86-1.81 1.5-2.21 0.64-0.41 0.71-0.73 0.16-0.71-0.57 0.02-0.5-0.52 0.17-1.27 0.64-0.71 4.08-6.92 7.63-13.79 3.56-6.88 9.37-17.68 12.93-24 3.55-6.33 9.79-17.44 13.86-24.7 4.08-7.25 8.08-14.04 8.91-15.07 0.82-1.04 2.03-2.75 2.67-3.81 0.65-1.06 2.61-4.62 4.36-7.92 1.76-3.3 5.17-8.81 7.58-12.25 2.42-3.44 4.39-6.7 4.39-7.25 0-0.55 0.45-1 1-1 0.55 0 1-0.45 1-1 0-0.55 1.64-3.59 3.64-6.75 2-3.16 5.67-8.9 8.15-12.75 2.48-3.85 4.9-7.11 5.36-7.25 0.47-0.14 0.62-0.7 0.35-1.25-0.28-0.55 0.17-1.23 1-1.5 0.82-0.28 1.5-1.18 1.5-2 0-0.83 0.45-1.5 1-1.5 0.55 0 1-0.68 1-1.5 0-0.83 0.45-1.5 1-1.5 0.55 0 1-0.45 1-1 0-0.55 1.24-2.69 2.75-4.75 1.51-2.06 3.09-3.86 3.5-4 0.41-0.14 0.73-0.81 0.72-1.5-0.02-0.69 1.1-2.49 2.5-4 1.39-1.51 2.29-2.86 2.01-3-0.29-0.14 0.18-0.93 1.04-1.75 0.86-0.83 1.55-2.29 1.52-3.25-0.02-0.96-0.49-1.75-1.04-1.75-0.55 0-1.23-0.9-1.5-2-0.28-1.1-1.07-2.56-1.77-3.25-0.7-0.69-3.06-3.88-5.25-7.1-2.19-3.22-4.66-6.87-5.48-8.11-0.83-1.24-2.4-3.48-3.5-4.98-1.1-1.5-2.68-3.59-3.5-4.65-0.83-1.06-2.4-3.1-3.5-4.53-1.1-1.44-2.79-3.34-3.76-4.24-0.97-0.9-1.75-2.2-1.75-2.89 0.01-0.69-0.33-1.23-0.74-1.2-0.41 0.02-2.55-2.57-4.75-5.75-2.2-3.19-4.56-6.14-5.25-6.55-0.69-0.41-1.25-1.43-1.25-2.25 0-0.83-0.34-1.49-0.75-1.48-0.41 0.01-3.11-2.92-6-6.5-2.89-3.59-5.25-6.97-5.25-7.52 0-0.55-0.45-1-1-1-0.55 0-1.32-0.79-1.72-1.75-0.4-0.96-1.41-2.46-2.25-3.33-0.84-0.88-3.18-3.58-5.2-6-2.02-2.43-6.07-7.55-9-11.37-2.93-3.82-7.01-8.77-9.07-11-2.05-2.23-3.73-4.28-3.71-4.55 0.01-0.28-1.16-1.85-2.6-3.5-1.44-1.65-4.04-4.62-5.78-6.6-1.74-1.98-4.52-5.29-6.17-7.35-1.65-2.06-4.02-4.71-5.27-5.9-1.25-1.18-2.25-2.6-2.22-3.15 0.03-0.55-1.32-2.13-3.01-3.5-1.69-1.38-3.05-3.06-3.04-3.75 0.02-0.69-1.32-2.26-2.98-3.5-1.66-1.24-3.01-2.59-3-3 0.01-0.41-1.58-2.44-3.54-4.5-1.96-2.06-4.66-4.99-6-6.5-1.34-1.51-2.44-2.98-2.44-3.25 0-0.28-1.13-1.63-2.5-3-1.38-1.38-3.06-2.46-3.75-2.42-0.69 0.04-1.85 0.32-2.58 0.61zm514.53 186.58c-1.21 1.25-6.93 7.78-12.7 14.52-5.78 6.73-10.84 12.24-11.25 12.23-0.41-0.01-0.75 0.65-0.75 1.48 0 0.82-1.35 2.4-3 3.5-1.65 1.1-3 2.67-3 3.5 0 0.82-1.35 2.51-2.99 3.75-1.65 1.24-3 2.7-3.01 3.25-0.01 0.55-1.03 2.04-2.26 3.3-1.23 1.27-3.23 3.3-4.45 4.5-1.22 1.21-2.23 2.54-2.25 2.95-0.02 0.41-1.73 2.62-3.79 4.91-2.06 2.28-4.65 5.21-5.75 6.51-1.1 1.29-2.79 3.36-3.75 4.59-0.96 1.23-3.43 4.4-5.5 7.03-2.06 2.64-4.09 4.77-4.5 4.75-0.41-0.02-0.76 0.52-0.78 1.21-0.01 0.69-0.66 1.92-1.43 2.75-0.78 0.82-2.79 2.96-4.48 4.75-1.68 1.79-2.72 3.25-2.31 3.25 0.41 0-0.47 1.01-1.96 2.25-1.49 1.24-2.74 2.7-2.79 3.25-0.04 0.55-0.85 1.53-1.79 2.17-0.94 0.64-1.71 1.55-1.71 2.02 0 0.47-0.55 1.52-1.22 2.33-0.67 0.82-2.25 2.68-3.5 4.15-1.25 1.47-3.07 3.61-4.03 4.75-0.96 1.14-1.75 2.3-1.75 2.58 0 0.27-2.81 4.21-6.25 8.75-3.44 4.54-6.7 8.78-7.25 9.43-0.55 0.65-2.8 3.7-5 6.78-2.2 3.07-4.34 5.58-4.75 5.57-0.41-0.02-0.77 0.53-0.79 1.22-0.02 0.69-1.04 2.05-2.25 3.03-1.22 0.98-1.99 1.79-1.71 1.8 0.27 0.01-0.95 1.68-2.72 3.72-1.77 2.03-3 4.04-2.75 4.45 0.26 0.41-0.43 1.2-1.53 1.75-1.1 0.55-1.78 1.45-1.5 2 0.27 0.55 0.05 1-0.5 1-0.55 0-1 0.45-1 1 0 0.55-0.56 1.66-1.25 2.47-0.69 0.8-1.7 2.04-2.25 2.75-0.55 0.7-1.68 2.53-2.5 4.06-0.83 1.53-1.84 2.76-2.25 2.75-0.41-0.02-1.16 0.98-1.66 2.22-0.5 1.24-2.71 4.72-4.92 7.75-2.2 3.02-4.72 6.29-5.59 7.25-0.87 0.96-1.36 1.75-1.08 1.75 0.27 0-0.29 0.87-1.25 1.93-0.96 1.06-2.31 2.63-3 3.5-0.69 0.86-0.91 1.81-0.5 2.1 0.41 0.29 0.19 0.51-0.5 0.5-0.69-0.02-1.25 0.64-1.25 1.47 0 0.82-0.45 1.5-1 1.5-0.55 0-1 0.67-1 1.5 0 0.82-0.68 1.72-1.5 2-0.83 0.27-1.28 0.95-1 1.5 0.27 0.55 0.05 1-0.5 1-0.55 0-1.01 0.56-1.03 1.25-0.01 0.69-1.38 2.6-3.03 4.25-1.65 1.65-2.98 3.56-2.97 4.25 0.02 0.69-0.42 1.25-0.97 1.25-0.55 0-1 0.67-1 1.5 0 0.82-0.9 1.95-2 2.5-1.1 0.55-2 1.45-2 2 0 0.55-1.01 2.37-2.25 4.04-2.08 2.81-2.15 3.37-0.97 7.25 0.7 2.32 1.41 4.66 1.56 5.21 0.16 0.55 1.78 4.15 3.6 8 1.83 3.85 3.4 7.45 3.49 8 0.09 0.55 0.71 2.01 1.37 3.25 0.66 1.24 0.86 2.23 0.45 2.21-0.41-0.03-0.08 0.67 0.75 1.54 0.82 0.87 1.05 1.58 0.5 1.56-0.55-0.02-0.46 0.3 0.2 0.71 0.67 0.4 1.42 1.85 1.68 3.23 0.26 1.37 0.56 2.72 0.66 3 0.11 0.27 0.14 0.84 0.08 1.25-0.07 0.41 0.4 0.75 1.05 0.75 0.64 0 0.87 0.34 0.5 0.75-0.36 0.41-0.1 1.33 0.59 2.04 0.68 0.72 0.79 1.29 0.24 1.27-0.55-0.02-0.46 0.3 0.2 0.71 0.67 0.4 1.41 1.63 1.65 2.73 0.25 1.1 0.73 2.9 1.08 4 0.47 1.46 1.92 2.21 5.36 2.76 2.59 0.41 8.08 1 12.21 1.29 4.12 0.3 8.62 0.94 10 1.43 1.37 0.49 3.85 0.89 5.5 0.88 1.65-0.01 4.91 0.02 7.25 0.06 2.34 0.04 4.25 0.42 4.25 0.83 0 0.41 1.69 0.89 3.75 1.06 2.06 0.17 5.66 0.28 8 0.25 2.34-0.03 4.25 0.39 4.25 0.94 0 0.55 1.83 0.89 4.08 0.75 2.24-0.14 4.26 0.09 4.5 0.5 0.23 0.41 1.43 0.47 2.67 0.13 1.24-0.34 2.92-0.24 3.75 0.22 0.82 0.46 3.3 0.94 5.5 1.08 2.2 0.13 10.3 1.35 18 2.71 7.7 1.36 15.12 2.77 16.5 3.14 1.37 0.36 3.74 0.62 5.25 0.56 1.51-0.05 2.97 0.36 3.25 0.91 0.27 0.55 1.06 0.73 1.75 0.39 0.69-0.33 2.15-0.26 3.25 0.15 1.1 0.42 2.9 0.89 4 1.05 1.1 0.16 4.47 0.58 7.5 0.93 3.02 0.35 5.95 0.91 6.5 1.24 0.55 0.34 1.9 0.71 3 0.83 1.1 0.13 3.35 0.52 5 0.87 1.65 0.35 4.8 0.88 7 1.17 2.2 0.3 4.45 0.79 5 1.1 0.55 0.32 2.57 0.75 4.5 0.96 1.92 0.21 4.85 0.8 6.5 1.31 1.65 0.52 8.17 2.1 14.5 3.51 6.32 1.42 12.17 2.69 13 2.83 0.82 0.13 2.06 0.56 2.75 0.95 0.69 0.39 1.7 0.48 2.25 0.21 0.55-0.28 1.22-0.05 1.5 0.5 0.27 0.55 0.95 0.77 1.5 0.5 0.55-0.28 2.91 0.03 5.25 0.67 2.34 0.64 4.7 1.25 5.25 1.35 0.55 0.1 1.34 0.24 1.75 0.33 0.41 0.08 1.09 0.29 1.5 0.46 0.41 0.17 2.66 0.62 5 1 2.34 0.38 4.25 1.03 4.25 1.44 0 0.41 1.01 0.8 2.25 0.86 1.24 0.06 5.62 1.11 9.75 2.33 4.12 1.22 8.17 2.47 9 2.79 0.82 0.32 1.95 0.66 2.5 0.77 0.55 0.11 1.22 0.3 1.5 0.42 0.27 0.13 1.17 0.37 2 0.55 0.82 0.17 4.42 1.06 8 1.96 3.57 0.91 7.17 1.93 8 2.26 0.82 0.34 1.95 0.71 2.5 0.83 0.55 0.12 5.05 1.45 10 2.95 4.95 1.5 9.58 3.25 10.29 3.88 0.72 0.63 1.28 0.81 1.25 0.4-0.02-0.41 2.32 0.18 5.21 1.31 2.89 1.13 6.6 2.26 8.25 2.51 1.65 0.24 3.22 0.93 3.5 1.52 0.27 0.6 0.84 1.04 1.25 1 0.41-0.05 1.76 0.19 3 0.53 1.24 0.33 2.59 0.78 3 1 0.41 0.21 0.97 0.38 1.25 0.38 0.27 0 0.95 0.22 1.5 0.5 0.55 0.27 1.34 0.55 1.75 0.62 0.41 0.06 1.09 0.06 1.5 0 0.41-0.07 0.75 0.22 0.75 0.63 0 0.41 1.23 0.87 2.75 1.01 1.51 0.14 2.86 0.7 3 1.25 0.14 0.54 0.7 0.76 1.25 0.49 0.55-0.28 3.59 0.58 6.75 1.89 3.16 1.31 9.46 3.79 14 5.5 4.54 1.71 8.7 3.11 9.25 3.11 0.55 0 1 0.34 1 0.75 0 0.41 0.56 0.79 1.25 0.85 0.69 0.05 7.1 2.45 14.25 5.34 7.15 2.89 13.45 5.54 14 5.88 0.55 0.34 1.45 0.68 2 0.76 0.55 0.07 3.92 1.49 7.5 3.16 3.57 1.67 7.51 3.32 8.75 3.65 1.24 0.34 2.25 1.06 2.25 1.61 0 0.55 0.45 0.77 1 0.5 0.55-0.28 0.99 0.06 0.97 0.75-0.01 0.69 0.32 0.92 0.75 0.52 0.43-0.4 1.9-0.12 3.28 0.63 1.37 0.74 12.4 6.17 24.5 12.07 12.1 5.89 22.8 11.46 23.78 12.37 0.98 0.91 1.77 1.32 1.75 0.91-0.02-0.41 1.21 0.06 2.72 1.05 1.51 0.99 3.99 2.34 5.5 3 1.51 0.66 3.2 1.2 3.75 1.2 0.6 0 0.5-1.01-0.25-2.53-0.69-1.39-1.59-2.51-2-2.5-0.41 0.02-0.98-1.1-1.25-2.47-0.28-1.38-1.08-3.06-1.78-3.75-0.7-0.69-4.45-6.65-8.31-13.25-3.87-6.6-9.37-15.71-12.22-20.25-2.86-4.54-4.89-8.48-4.52-8.75 0.36-0.28 0.14-0.5-0.5-0.5-0.65 0-1.62-1.35-2.17-3-0.55-1.65-1.53-3-2.17-3-0.64 0-0.86-0.23-0.5-0.5 0.37-0.28-0.24-1.51-1.35-2.75-1.11-1.24-2.01-2.81-2-3.5 0.01-0.69-0.32-1.24-0.73-1.23-0.41 0.01-2.99-3.7-5.74-8.25-2.74-4.55-9.36-15.02-14.72-23.27-5.36-8.25-10.11-15.45-10.56-16-0.46-0.55-1.71-2.58-2.78-4.5-1.07-1.93-2.2-3.73-2.52-4-0.31-0.28-1.99-2.64-3.75-5.25-1.75-2.61-3.18-5.2-3.18-5.75 0-0.55-0.45-1-1-1-0.55 0-0.78-0.45-0.5-1 0.27-0.55-0.18-1.23-1-1.5-0.83-0.28-1.28-0.95-1-1.5 0.27-0.55-0.1-1.34-0.83-1.75-0.74-0.41-4.45-5.28-8.25-10.82-3.81-5.54-7.37-10.77-7.92-11.61-0.55-0.85-1.9-2.84-2.99-4.43-1.1-1.59-2.79-3.79-3.77-4.89-0.98-1.1-1.77-2.34-1.76-2.75 0.01-0.41-0.42-1.31-0.97-2-0.54-0.69-2.11-2.71-3.49-4.5-1.39-1.79-2.52-3.7-2.52-4.25 0-0.55-0.34-1-0.75-1.01-0.41 0-1.88-1.69-3.25-3.75-1.38-2.06-3.3-4.64-4.27-5.74-0.97-1.1-1.76-2.34-1.75-2.75 0.01-0.41-0.99-1.82-2.23-3.12-1.24-1.3-2.93-3.66-3.75-5.25-0.83-1.58-2.3-3.78-3.27-4.88-0.97-1.1-1.76-2.56-1.75-3.25 0.01-0.69-0.66-1.48-1.48-1.75-0.83-0.28-1.5-0.95-1.5-1.5 0-0.55-0.56-1.66-1.25-2.47-0.69-0.8-1.81-2.15-2.5-3-0.69-0.84-1.25-1.76-1.25-2.03 0-0.28-1.35-1.96-3.01-3.75-1.65-1.79-3-3.59-3-4 0.01-0.41-1.12-1.99-2.49-3.5-1.38-1.51-2.51-3.09-2.5-3.5 0-0.41-0.79-1.58-1.75-2.59-0.96-1-2.43-2.88-3.25-4.16-0.83-1.28-2.29-3.16-3.25-4.16-0.96-1.01-1.75-2.29-1.75-2.84 0-0.55-0.57-1.34-1.27-1.75-0.7-0.41-2.05-1.99-3-3.5-0.95-1.51-2.52-3.58-3.48-4.59-0.96-1-2.43-2.84-3.25-4.07-0.83-1.23-2.97-3.89-4.77-5.91-1.8-2.03-4.5-5.48-6-7.68-1.5-2.2-3.18-4.51-3.73-5.13-0.55-0.62-1.68-2.15-2.5-3.4-0.83-1.25-2.75-3.44-4.28-4.87-1.53-1.43-2.77-3.16-2.75-3.85 0.02-0.69-0.65-1.48-1.47-1.75-0.83-0.28-1.5-1.18-1.5-2 0-0.83-0.68-1.73-1.5-2-0.83-0.28-1.5-1.06-1.5-1.75 0.01-0.69-1.14-2.15-2.53-3.25-1.4-1.1-2.53-2.34-2.51-2.75 0.02-0.41-1.99-2.89-4.47-5.5-2.49-2.61-4.71-5.43-4.94-6.25-0.24-0.83-1.58-2.29-2.99-3.25-1.41-0.96-2.56-2.2-2.56-2.75 0-0.55-1.24-2.27-2.75-3.82-1.51-1.55-3.43-3.88-4.25-5.18-0.83-1.31-2.49-3.3-3.71-4.44-1.22-1.13-2.23-2.4-2.25-2.81-0.02-0.41-1.17-1.65-2.54-2.75-1.38-1.1-2.49-2.4-2.48-2.89 0.01-0.5-2.23-3.31-4.98-6.25-2.75-2.95-5.01-5.7-5.02-6.11-0.01-0.41-1.82-2.55-4.02-4.75-2.2-2.2-4.01-4.34-4.01-4.75-0.01-0.41-1.14-1.88-2.5-3.25-1.37-1.38-4.4-4.57-6.74-7.09-2.34-2.53-6.95-7.67-10.25-11.43-3.3-3.76-7.9-8.89-10.22-11.41-2.32-2.51-4.21-4.8-4.21-5.07 0-0.28-4.97-5.56-11.04-11.75-6.07-6.19-11.5-11.25-12.08-11.25-0.57 0-2.03 1.02-3.25 2.27zm-191.7-184.87c-1.93 1.86-5.3 5.78-7.5 8.72-2.2 2.94-6.25 7.74-9 10.67-2.75 2.93-6.24 6.65-7.75 8.27-1.51 1.61-2.75 3.16-2.75 3.44 0 0.27-1.33 1.74-2.96 3.25-1.63 1.51-2.98 3.31-3 4-0.02 0.69-0.38 1.36-0.79 1.5-0.41 0.14-2.52 2.5-4.67 5.25-2.16 2.75-4.89 5.9-6.07 7-1.18 1.1-3.96 4.47-6.18 7.5-2.22 3.02-6.92 8.91-10.44 13.08-3.51 4.18-7.74 9.3-9.39 11.39-1.65 2.1-3.79 4.65-4.75 5.67-0.96 1.02-1.75 2.31-1.75 2.86 0 0.55-0.45 1-1 1-0.55 0-1.31 0.79-1.68 1.75-0.38 0.96-3.17 4.9-6.21 8.75-3.03 3.85-8.01 10.15-11.06 14-3.05 3.85-5.89 7.11-6.3 7.25-0.41 0.14-0.75 0.92-0.75 1.75 0 0.82-0.79 1.94-1.75 2.47-0.96 0.53-1.3 0.97-0.75 0.98 0.55 0.01 0.1 0.86-1 1.91-1.1 1.04-2.79 2.85-3.75 4.02-0.96 1.16-1.75 2.57-1.75 3.12 0 0.55-0.59 1.34-1.3 1.75-0.72 0.41-2.18 2.18-3.25 3.93-1.07 1.75-4.61 6.93-7.87 11.5-3.25 4.58-6.22 8.54-6.6 8.82-0.37 0.27-1.2 1.51-1.83 2.75-0.94 1.84-0.75 3.12 1.01 7 1.19 2.61 3 5.65 4.02 6.75 1.02 1.1 1.85 2.56 1.84 3.25-0.01 0.69 0.88 2.04 1.99 3 1.1 0.96 2 2.31 2 3-0.01 0.69 0.44 1.25 0.99 1.25 0.55 0 0.77 0.45 0.5 1-0.28 0.55 0.17 1.22 1 1.5 0.82 0.27 1.5 1.17 1.5 2 0 0.82 0.45 1.5 1 1.5 0.55 0 0.77 0.45 0.5 1-0.28 0.55 0.17 1.22 1 1.5 0.82 0.27 1.5 1.17 1.5 2 0 0.82 0.45 1.5 1 1.5 0.55 0 1 0.67 1 1.5 0 0.82 0.45 1.5 1 1.5 0.55 0 1 0.67 1 1.5 0 0.82 0.6 2.06 1.34 2.75 0.74 0.69 2.99 3.84 5 7 2.01 3.16 3.65 6.09 3.63 6.5-0.02 0.41 0.88 1.65 2 2.75 1.12 1.1 2.26 3.01 2.53 4.25 0.28 1.24 0.95 2.25 1.5 2.25 0.55 0 1 0.67 1 1.5 0 0.82 0.45 1.5 1 1.5 0.55 0 1 0.67 1 1.5 0 0.82 0.45 1.5 1 1.5 0.55 0 0.77 0.45 0.5 1-0.28 0.55-0.05 1 0.5 1 0.55 0 1.74 1.69 2.64 3.75 0.9 2.06 2.31 4.42 3.13 5.25 0.81 0.82 1.87 2.17 2.34 3 0.72 1.25 1.2 1.09 2.89-1 1.12-1.38 3.89-5.2 6.17-8.5 2.27-3.3 4.74-6.34 5.48-6.75 0.74-0.41 1.35-1.43 1.35-2.25 0-0.83 0.67-1.73 1.5-2 0.82-0.28 1.27-0.95 1-1.5-0.28-0.55 0.17-1.23 1-1.5 0.82-0.28 1.5-1.18 1.5-2 0-0.83 0.67-1.73 1.5-2 0.82-0.28 1.5-1.06 1.5-1.75-0.01-0.69 1.12-2.49 2.5-4 1.37-1.51 2.52-3.09 2.54-3.5 0.02-0.41 1.04-1.55 2.25-2.53 1.22-0.98 1.87-1.77 1.46-1.75-0.41 0.02 5.62-8.41 13.4-18.72 7.78-10.31 14.87-19.33 15.75-20.04 0.88-0.71 1.6-1.69 1.6-2.17 0-0.48 0.93-1.7 2.07-2.71 1.14-1 2.38-2.62 2.75-3.58 0.37-0.96 1.13-1.75 1.68-1.75 0.55 0 1-0.45 1-1 0-0.55 3.94-5.83 8.75-11.74 4.81-5.91 10.1-12.42 11.75-14.46 1.65-2.04 5.7-6.99 8.99-11.01 3.3-4.01 7.46-8.75 9.25-10.54 1.79-1.79 3.27-3.59 3.27-4 0.01-0.41 0.87-1.65 1.91-2.75 1.05-1.1 3.74-3.91 5.99-6.25 2.25-2.34 4.08-4.59 4.07-5-0.01-0.41 1.78-2.33 3.98-4.25 2.2-1.93 4-3.84 4.02-4.25 0.01-0.41 1.03-1.95 2.27-3.41 1.24-1.46 4.39-4.83 7-7.5 2.61-2.66 4.75-5.07 4.75-5.34 0-0.28 2.25-2.75 5-5.5 2.75-2.75 5-5.34 5-5.75 0.01-0.41-3.37-4.46-7.5-9-4.12-4.54-7.89-8.14-8.37-8-0.48 0.14-3.75-2.57-7.25-6.02-3.51-3.44-8.63-8.5-11.38-11.24-2.75-2.75-5.34-4.99-5.75-4.99-0.41 0-2.55-1.8-4.75-4-2.2-2.2-4.34-4.01-4.75-4.01-0.41-0.01-2.89-2.48-5.5-5.5-2.61-3.02-5.43-5.49-6.25-5.49-0.83 0-1.95-0.9-2.5-2-0.55-1.1-2.46-2.68-4.25-3.52-1.79-0.84-3.25-1.51-3.25-1.49 0 0.01-1.58 1.55-3.5 3.41zm92.84 95.75c-4.59 5.04-9.78 10.77-11.53 12.75-1.76 1.98-4.46 5.1-6 6.93-1.55 1.83-4.05 4.64-5.56 6.25-1.51 1.6-2.75 3.14-2.75 3.42 0 0.27-1.58 2.07-3.5 4-1.93 1.92-3.5 3.84-3.49 4.25 0 0.41-1.91 2.84-4.25 5.4-2.34 2.56-4.26 4.88-4.26 5.16 0 0.28-1.8 2.46-4 4.85-2.2 2.39-5.19 5.91-6.64 7.84-1.45 1.92-3.62 4.62-4.83 6-1.21 1.37-3.85 4.64-5.86 7.27-2.02 2.62-4.01 4.75-4.42 4.75-0.41-0.01-0.75 0.65-0.75 1.48 0 0.82-0.9 2.06-2 2.75-1.11 0.69-1.99 1.7-1.96 2.25 0.02 0.55-1.66 2.47-3.75 4.28-2.08 1.8-3.34 3.25-2.79 3.22 0.55-0.03-0.13 0.87-1.5 2-1.38 1.13-2.16 2.05-1.75 2.03 0.41-0.02-0.49 1.11-2 2.5-1.51 1.4-2.3 2.52-1.75 2.5 0.55-0.01-0.23 0.98-1.73 2.22-1.51 1.24-2.52 2.59-2.25 3 0.26 0.41-0.42 1.2-1.52 1.75-1.1 0.55-2.01 1.56-2.03 2.25-0.02 0.69-1.71 3.26-3.75 5.73-2.05 2.46-5.7 7.18-8.11 10.5-2.41 3.31-5.11 6.75-6 7.65-0.89 0.89-2.4 2.58-3.36 3.75-0.96 1.16-1.41 2.13-1 2.15 0.41 0.02-0.04 0.47-1 1-0.96 0.53-1.75 1.42-1.75 1.97 0 0.55-0.56 1.71-1.25 2.57-0.69 0.86-2.02 2.33-2.95 3.25-0.94 0.92-1.5 2.02-1.25 2.43 0.25 0.41-0.23 0.97-1.05 1.25-0.83 0.27-1.5 1.17-1.5 2 0 0.82-0.68 1.72-1.5 2-0.83 0.27-1.5 1.06-1.49 1.75 0 0.69-1.27 2.82-2.82 4.75-1.56 1.92-4.49 6.09-6.51 9.25-2.02 3.16-4.13 5.75-4.68 5.75-0.55 0-1 0.67-1 1.5 0 0.82-0.45 1.5-1 1.5-0.55 0-1 0.67-1 1.5 0 0.82-0.68 1.72-1.5 2-0.83 0.27-1.5 0.95-1.5 1.5 0 0.55-0.9 1.9-2 3-1.1 1.1-2.01 2.79-2.02 3.75-0.01 0.96 2.91 7.6 6.49 14.75 3.57 7.15 6.96 13.56 7.51 14.25 0.56 0.69 0.72 1.47 0.35 1.75-0.36 0.27-0.25 0.48 0.25 0.46 0.51-0.02 3.36 4.82 6.35 10.75 2.99 5.93 5.84 11.01 6.34 11.29 0.49 0.27 0.86 0.84 0.82 1.25-0.05 0.41-0.09 1.2-0.09 1.75 0 0.55 0.6 1.56 1.32 2.25 0.73 0.69 4.26 7.1 7.85 14.25 3.59 7.15 6.6 13.34 6.68 13.75 0.08 0.41 1.16 2.84 2.4 5.39 1.24 2.56 2.59 4.81 3 5 0.41 0.2 1.83-1.78 3.15-4.39 1.32-2.61 3.34-5.88 4.48-7.25 1.15-1.38 2.54-3.06 3.1-3.75 0.56-0.69 1.01-1.59 1-2-0.01-0.41 1-1.86 2.25-3.23 1.25-1.36 2.27-2.79 2.27-3.17 0-0.38 1.01-1.85 2.25-3.27 1.24-1.42 2.25-3.03 2.25-3.58 0-0.55 0.67-1.23 1.5-1.5 0.82-0.28 1.5-1.18 1.5-2 0-0.83 0.34-1.61 0.75-1.75 0.41-0.14 3.22-3.98 6.25-8.54 3.02-4.57 5.84-8.28 6.25-8.25 0.41 0.02 0.75-0.64 0.75-1.46 0-0.83 0.67-1.73 1.5-2 0.82-0.28 1.27-0.95 1-1.5-0.28-0.55 0.4-1.45 1.5-2 1.1-0.55 2-1.45 2-2 0-0.55 1.46-3.03 3.25-5.52 1.79-2.49 3.59-4.51 4-4.5 0.41 0.01 0.75-0.66 0.75-1.48 0-0.83 0.56-1.84 1.25-2.25 0.69-0.41 1.7-1.5 2.25-2.42 0.55-0.92 2.69-4.18 4.75-7.25 2.06-3.07 4.2-5.58 4.75-5.58 0.55 0 0.8-0.34 0.55-0.75-0.25-0.41 0.31-1.49 1.25-2.4 0.93-0.9 3.05-3.5 4.7-5.77 1.65-2.27 3.34-4.11 3.75-4.1 0.41 0.01 0.75-0.66 0.75-1.48 0-0.83 0.9-2.06 2-2.75 1.1-0.69 1.77-1.59 1.5-2-0.28-0.41 0.4-1.2 1.5-1.75 1.1-0.55 2-1.68 2-2.5 0-0.83 0.9-1.95 2-2.5 1.1-0.55 1.79-1.34 1.53-1.75-0.26-0.41 0.64-1.54 2-2.5 1.36-0.96 2.47-2.31 2.47-3 0.01-0.69 1.58-2.94 3.5-5 1.93-2.06 3.5-3.98 3.5-4.25 0-0.28 0.79-1.44 1.75-2.58 0.96-1.14 2.65-3.1 3.75-4.36 1.1-1.25 2.67-3.31 3.5-4.58 0.82-1.27 2.29-3.14 3.25-4.15 0.96-1 1.75-2.06 1.75-2.33 0-0.28 3.2-4.21 7.12-8.75 3.92-4.54 8.75-10.21 10.75-12.61 2-2.4 5.1-5.77 6.9-7.5 1.8-1.73 3.27-3.48 3.25-3.89-0.01-0.41 1.77-2.44 3.95-4.5 2.18-2.06 3.98-4.31 4-5 0.02-0.69 1.15-1.93 2.53-2.75 1.37-0.83 2.48-2.06 2.46-2.75-0.03-0.69 1.53-2.6 3.46-4.25 1.93-1.65 3.52-3.34 3.54-3.75 0.02-0.41 1.73-2.66 3.79-5 2.06-2.34 6.22-6.73 9.25-9.75 3.02-3.03 6.06-6.29 6.75-7.25 1.02-1.43 0.94-2.25-0.45-4.5-0.94-1.51-16.02-17.04-33.5-34.5-17.49-17.46-32.21-31.75-32.71-31.75-0.5 0-4.66 4.12-9.25 9.15z"/>
	</g>
</svg>