<svg version="1.2" xmlns="http://www.w3.org/2000/svg" viewBox="0 0 988 988" width="988" height="988">
	<style>
		.s0 { fill: #ffffff } 
	</style>
	<g id="icons">
		<path id="-e location background" fill-rule="evenodd" class="s0" d="m501 0.5c15.12 0.2 28.62 0.59 30 0.85 1.37 0.26 5.87 0.76 10 1.12 4.12 0.37 8.85 0.84 10.5 1.06 1.65 0.22 9.75 1.34 18 2.5 8.25 1.16 19.95 3.19 26 4.52 6.05 1.33 14.37 3.28 18.5 4.32 4.12 1.04 11.55 3.06 16.5 4.48 4.95 1.42 16.65 5.25 26 8.52 9.35 3.27 21.05 7.6 26 9.62 4.95 2.01 15.75 6.99 24 11.06 8.25 4.08 18.82 9.49 23.5 12.03 4.67 2.55 11.2 6.23 14.5 8.2 3.3 1.96 11.85 7.41 19 12.1 7.15 4.69 18.4 12.56 25 17.48 6.6 4.93 15.15 11.46 19 14.51 3.85 3.06 9.02 7.33 11.5 9.5 2.47 2.16 9.9 9.23 16.5 15.71 6.6 6.48 15.18 15.07 19.06 19.1 3.88 4.03 11.33 12.27 16.55 18.32 5.23 6.05 11.73 13.92 14.44 17.5 2.72 3.57 10.29 14.37 16.82 24 6.53 9.62 14.46 22 17.63 27.5 3.17 5.5 10.03 18.55 15.25 29 5.23 10.45 11.75 24.4 14.5 31 2.75 6.6 7.25 18.52 10 26.5 2.75 7.97 6.14 18.1 7.54 22.5 1.39 4.4 4.13 14.3 6.08 22 1.94 7.7 4.66 20.3 6.03 28 1.38 7.7 2.95 17.37 3.51 21.5 0.55 4.12 1.23 9.52 1.52 12 0.28 2.47 1.26 12.82 2.17 23 1.3 14.47 1.51 23.95 0.99 43.5-0.36 13.75-0.89 27.47-1.17 30.5-0.28 3.02-1.43 13.6-2.55 23.5-1.13 9.9-3.37 24.52-4.98 32.5-1.62 7.97-4.92 21.7-7.35 30.5-2.43 8.8-6.2 21.4-8.4 28-2.19 6.6-7.25 20.1-11.24 30-4 9.9-11.17 25.65-15.94 35-4.77 9.35-12.85 23.97-17.96 32.5-5.11 8.52-12.69 20.45-16.85 26.5-4.16 6.05-10.92 15.5-15.02 21-4.1 5.5-10.62 13.82-14.5 18.5-3.88 4.67-16.07 17.54-27.09 28.59-11.02 11.05-25.44 24.56-32.04 30.03-6.6 5.47-15.83 12.83-20.5 16.37-4.68 3.53-12.33 9.07-17 12.3-4.68 3.24-11.43 7.81-15 10.15-3.58 2.34-11.9 7.42-18.5 11.29-6.6 3.86-19.65 10.84-29 15.52-9.35 4.67-20.83 10.1-25.5 12.07-4.68 1.97-13 5.34-18.5 7.48-5.5 2.14-15.85 5.75-23 8-7.15 2.26-18.63 5.71-25.5 7.66-6.88 1.96-17.45 4.66-23.5 6.01-6.05 1.35-17.08 3.34-24.5 4.43-7.43 1.09-18.23 2.49-24 3.11-5.78 0.62-15.23 1.49-21 1.93-5.78 0.45-20.4 0.82-32.5 0.82-12.1 0-29.2-0.59-38-1.32-8.8-0.72-19.83-1.81-24.5-2.41-4.68-0.6-15.25-2.22-23.5-3.6-8.25-1.38-21.98-4.33-30.5-6.55-8.53-2.23-23.38-6.53-33-9.56-9.63-3.03-25.38-8.65-35-12.48-9.63-3.83-26.5-11.59-37.5-17.25-11-5.66-25.19-13.39-31.53-17.19-6.34-3.79-14.81-9.15-18.82-11.9-4.02-2.75-14.35-10.25-22.98-16.66-8.62-6.41-16.57-12.49-17.68-13.5-1.1-1.01-6.05-5.21-11-9.33-4.94-4.12-17.24-15.82-27.32-26-10.08-10.18-22.68-23.84-28-30.35-5.32-6.51-13.43-16.86-18.03-23-4.59-6.14-12.09-16.79-16.65-23.66-4.56-6.88-10.73-16.78-13.72-22-2.99-5.23-6.56-11.53-7.93-14-1.37-2.48-6.84-13.61-12.17-24.75-5.32-11.14-12.08-26.66-15.03-34.5-2.95-7.84-6.52-17.85-7.92-22.25-1.41-4.4-3.92-12.95-5.58-19-1.67-6.05-4.16-15.5-5.54-21-1.37-5.5-3.4-15.18-4.51-21.5-1.1-6.33-2.71-17.35-3.57-24.5-0.86-7.15-2.18-19.75-2.93-28-0.74-8.25-1.36-25.35-1.35-38 0-14.88 0.65-29.71 1.85-42 1.02-10.45 2.57-23.95 3.45-30 0.88-6.05 2.74-16.85 4.12-24 1.39-7.15 4.95-21.78 7.9-32.5 2.96-10.73 6.72-23.33 8.35-28 1.64-4.68 4.13-11.65 5.54-15.5 1.42-3.85 3.43-9.03 4.46-11.5 1.04-2.48 3.12-7.43 4.63-11 1.51-3.58 6.09-13.48 10.18-22 4.1-8.53 10.41-20.68 14.03-27 3.61-6.33 11.76-19.15 18.1-28.5 6.34-9.35 12.68-18.58 14.09-20.5 1.41-1.93 7.93-10.25 14.48-18.5 7.32-9.22 19.66-22.74 32-35.06 11.04-11.03 25.93-24.91 33.08-30.85 7.15-5.93 17.05-13.84 22-17.57 4.95-3.73 14.74-10.66 21.75-15.4 7.01-4.74 20.29-12.95 29.5-18.24 9.21-5.29 23.5-12.9 31.75-16.93 8.25-4.02 22.42-10.21 31.5-13.75 9.07-3.54 21.45-8.05 27.5-10.02 6.05-1.97 16.62-5.14 23.5-7.03 6.87-1.89 16.77-4.37 22-5.5 5.22-1.13 13.1-2.75 17.5-3.6 4.4-0.85 15.2-2.45 24-3.56 8.8-1.11 22.75-2.66 31-3.45 10.3-0.98 23.62-1.3 42.5-1.04zm-59.26 67.56c-3.72 1.89-10.91 6.36-15.98 9.94-5.07 3.57-13.07 10.32-17.77 15-4.7 4.67-11.94 12.55-16.08 17.5-4.14 4.95-10.23 12.6-13.55 17-3.31 4.4-8.26 11.37-11.01 15.5-2.75 4.12-7.86 12.22-11.37 18-3.51 5.77-11.83 21.3-18.5 34.5-6.66 13.2-14.39 29.85-17.17 37-2.78 7.15-5.34 14.01-5.68 15.25-0.46 1.63-0.14 2.4 1.12 2.8 0.96 0.3 9.85 1.85 19.75 3.45 9.9 1.59 27.22 4.02 38.5 5.38 11.27 1.37 24.55 2.78 29.5 3.13 4.95 0.36 9.9 0.79 11 0.96 1.1 0.17 9.42 0.7 18.5 1.17 9.07 0.47 20.1 0.86 24.5 0.86h8l0.51-205.5c-4.27 0.08-8.21 1.12-11.51 2.36-3.3 1.24-9.04 3.81-12.76 5.7zm80.1 95.84l0.13 102.6c25.21-1.18 34.78-1.74 37.53-2 2.75-0.26 11.3-0.95 19-1.53 7.7-0.58 20.3-1.72 28-2.54 7.7-0.82 19.85-2.39 27-3.5 7.15-1.1 17.95-2.85 24-3.89 6.05-1.04 12.24-2.15 13.75-2.47l2.75-0.57c-4.75-12.79-7.94-21-10.17-26.5-2.22-5.5-5.39-12.7-7.05-16-1.65-3.3-7.26-13.88-12.45-23.5-5.19-9.63-11.57-21.1-14.17-25.5-2.6-4.4-6.74-10.93-9.2-14.5-2.46-3.58-7.65-10.78-11.53-16-3.88-5.23-10.46-13.55-14.6-18.5-4.15-4.95-11.12-12.38-15.49-16.5-4.37-4.13-11.52-10.19-15.89-13.47-4.37-3.29-12-8.11-16.95-10.71-4.95-2.6-11.7-5.66-15-6.79-3.3-1.13-6.49-2.05-7.08-2.05-0.6 0.01-1.45 0.31-1.9 0.67-0.45 0.36-0.76 46.82-0.68 103.25zm-213.34-65.17c-7.15 3.3-18.85 9.27-26 13.27-7.15 4.01-16.38 9.33-20.5 11.83-4.13 2.5-10.65 6.78-14.5 9.52-3.85 2.74-12.85 9.51-20 15.05-7.15 5.53-16.6 13.16-21 16.94-4.4 3.78-15.33 14.36-24.28 23.51-8.95 9.16-16.52 17.55-16.82 18.65-0.29 1.1-0.39 2.1-0.22 2.23 0.18 0.13 6.84 2.49 14.82 5.25 7.97 2.75 19.9 6.77 26.5 8.91 6.6 2.15 17.85 5.58 25 7.64 7.15 2.05 14.8 4.1 17 4.56 2.2 0.45 5.35 0.86 7 0.91 2.38 0.06 3.24-0.5 4.17-2.71 0.64-1.53 2.4-6.17 3.92-10.29 1.51-4.13 5.63-13.8 9.14-21.5 3.52-7.7 10.29-21.88 15.04-31.5 4.75-9.63 10.95-21.55 13.78-26.5 2.82-4.95 7.6-13.05 10.63-18 3.02-4.95 9.01-13.95 13.3-20 4.3-6.05 9.09-12.58 10.64-14.5 1.56-1.93 2.5-3.85 2.1-4.28-0.39-0.43-0.95-0.74-1.22-0.7-0.28 0.04-3.88 1.35-8 2.9-4.13 1.55-13.35 5.52-20.5 8.81zm346.51-3.73c2.16 3.02 3.94 6.06 3.96 6.75 0.02 0.69 0.42 1.36 0.89 1.5 0.48 0.14 5.14 6.77 10.37 14.75 5.23 7.97 11.84 18.55 14.69 23.5 2.85 4.95 10.62 20.02 17.27 33.5 6.65 13.47 13.88 28.55 16.07 33.5 2.19 4.95 5.67 13.27 7.74 18.5 3.13 7.92 4.16 9.55 6.13 9.83 1.3 0.18 8.67-1.31 16.37-3.31 7.7-2 19.17-5.22 25.5-7.16 6.32-1.93 19.6-6.23 29.5-9.56 9.9-3.32 18.37-6.32 18.83-6.67 0.46-0.35 0.15-1.98-0.67-3.63-0.83-1.65-4.8-6.61-8.83-11.02-4.03-4.41-14.08-14.2-22.33-21.74-8.25-7.54-20.4-18.02-27-23.29-6.6-5.27-17.63-13.35-24.5-17.95-6.88-4.6-16.78-10.87-22-13.94-5.23-3.07-16.7-9.23-25.5-13.7-8.8-4.47-20.95-10.09-27-12.5-6.05-2.41-11.32-4.38-11.7-4.37-0.39 0-0.93 0.35-1.21 0.76-0.27 0.41 1.27 3.22 3.42 6.25zm-542.83 186.5c-5.22 9.35-11.7 21.72-14.42 27.5-2.72 5.77-6.29 13.87-7.95 18-1.65 4.12-4.97 12.9-7.36 19.5-2.4 6.6-5.77 16.5-7.48 22-1.71 5.5-4.4 15.17-5.98 21.5-1.57 6.32-3.82 16.22-5 22-1.17 5.77-2.97 17.02-4 25-1.02 7.97-2.23 17.76-2.68 21.74l-0.81 7.25c121.67 0.39 157.1 0.51 157.23 0.51 0.12 0 0.48-4.05 0.8-9 0.32-4.95 1.24-17.78 2.05-28.5 0.8-10.73 1.69-21.53 1.98-24 0.28-2.48 1.2-9.23 2.04-15 0.84-5.78 2.16-13.88 2.94-18 0.78-4.13 2.8-14.93 4.48-24 1.69-9.08 4.19-21.68 5.56-28 1.38-6.33 3.44-14.65 4.6-18.5 1.15-3.85 1.87-7.68 1.61-8.5-0.27-0.83-3.37-2.33-6.89-3.34-3.52-1.01-16.75-4.94-29.4-8.74-12.65-3.79-26.83-8.29-31.5-10-4.68-1.72-11.65-4.23-15.5-5.59-3.85-1.36-11.16-4.02-16.25-5.9-5.09-1.89-10.15-3.43-11.24-3.43-1.25 0-2.98 1.57-4.67 4.25-1.48 2.34-6.95 11.9-12.16 21.25zm707.82-11.84c-10.18 3.56-25.93 8.66-35 11.34-9.08 2.67-21 6.05-26.5 7.51-5.5 1.45-10.3 2.95-10.67 3.32-0.37 0.37 0.89 6.74 2.8 14.17 1.9 7.42 5.26 22.27 7.45 33 2.19 10.72 5.12 26.25 6.52 34.5 1.39 8.25 2.93 17.7 3.41 21 0.48 3.3 1.15 8.7 1.49 12 0.35 3.3 1.03 9.6 1.53 14 0.5 4.4 1.19 13.85 1.54 21 0.34 7.15 0.78 14.35 0.96 16 0.18 1.65 0.37 4.24 0.4 5.75l0.07 2.75h157c-0.89-12.01-1.8-20.68-2.6-27-0.8-6.33-2.38-16-3.5-21.5-1.13-5.5-3.63-16.98-5.55-25.5-1.93-8.53-5.98-22.93-9-32-3.02-9.08-7.8-22.35-10.62-29.5-2.83-7.15-8.36-19.53-12.3-27.5-3.95-7.98-10.86-20.8-15.37-28.5-4.52-7.7-9.19-15.02-10.38-16.28-1.2-1.25-2.63-2.24-3.18-2.19-0.55 0.04-5.28 1.67-10.5 3.62-5.23 1.95-17.83 6.46-28 10.01zm-530.41 58.34c-2.46 10.17-5.13 21.87-5.94 26-0.81 4.12-2.19 12.11-3.06 17.75-0.88 5.64-2.27 14.64-3.1 20-0.84 5.36-2.16 15.37-2.94 22.25-0.79 6.87-1.93 21.27-2.54 32-0.61 10.72-0.97 19.59-0.81 19.71 0.17 0.12 43.95 0.24 97.3 0.29l97 0.08c0.37-110.5 0.14-142.9-0.26-143.28-0.41-0.39-7.04-0.79-14.74-0.91-7.7-0.11-18.73-0.55-24.5-0.97-5.78-0.42-13.88-1.03-18-1.35-4.13-0.33-10.2-0.85-13.5-1.15-3.3-0.31-12.98-1.45-21.5-2.53-8.53-1.09-20-2.61-25.5-3.39-5.5-0.77-11.8-1.68-14-2.02-2.2-0.33-10.53-1.71-18.5-3.05-7.98-1.35-15.51-2.64-16.73-2.86-1.7-0.32-2.47 0.22-3.22 2.25-0.54 1.48-2.99 11-5.46 21.18zm376.91-19.49c-2.2 0.31-9.18 1.42-15.5 2.47-6.33 1.04-16.68 2.57-23 3.39-6.33 0.82-16 1.97-21.5 2.57-5.5 0.59-17.43 1.77-26.5 2.61-9.08 0.85-25.05 1.81-35.5 2.13-10.45 0.32-19.79 0.98-20.75 1.45-1.64 0.82-1.75 5.25-1.75 71.87v71l195.5 0.01c-1.24-24.42-3.15-43.89-5.04-59.01-1.89-15.13-4.77-34.25-6.4-42.5-1.62-8.25-4.28-20.63-5.89-27.5-1.62-6.88-4.11-16.78-5.53-22-1.42-5.23-2.95-9.76-3.41-10.08-0.45-0.32-5.3 0.23-10.77 1.22-5.48 0.99-11.76 2.06-13.96 2.37zm-609.17 221.9c0.44 3.9 1.46 12.71 2.27 19.59 0.81 6.87 2.39 17.22 3.51 23 1.12 5.77 3.59 16.8 5.5 24.5 1.9 7.7 5.74 20.75 8.55 29 2.8 8.25 7.82 21.97 11.15 30.5 3.33 8.52 8.72 20.9 11.98 27.5 3.26 6.6 8.64 16.72 11.95 22.5 3.31 5.77 7.99 13.76 10.39 17.75 3.56 5.9 4.83 7.25 6.87 7.25 1.37 0 7.11-1.77 12.75-3.92 5.64-2.16 19.25-7.08 30.25-10.93 11-3.85 27.65-9.25 37-12 9.35-2.75 19.92-5.75 23.5-6.67 3.57-0.92 6.84-1.85 7.25-2.07 0.41-0.23-0.41-4.57-1.83-9.66-1.42-5.09-3.66-13.75-4.98-19.25-1.32-5.5-4.2-19.23-6.4-30.5-2.2-11.28-4.88-26.8-5.95-34.5-1.07-7.7-2.24-16.7-2.61-20-0.36-3.3-0.83-7.13-1.04-8.5-0.21-1.38-0.84-10.6-1.41-20.5-0.56-9.9-1.16-20.93-1.32-24.5l-0.3-6.5c-120.95-0.4-156.47-0.21-156.98 0.15-0.53 0.39-0.57 3.62-0.1 7.76zm214.07 5.34c0.38 7.56 0.93 16.45 1.23 19.75 0.29 3.3 1.41 13.87 2.47 23.5 1.06 9.62 3.08 24.25 4.47 32.5 1.4 8.25 3.4 19.05 4.44 24 1.04 4.95 3.28 14.85 4.98 22 1.7 7.15 3.97 16.04 5.05 19.75 1.08 3.71 2.18 6.75 2.46 6.75 0.27 0 6.46-1.1 13.75-2.44 7.29-1.34 19.55-3.37 27.25-4.5 7.7-1.13 24.12-3.19 36.5-4.58 12.37-1.39 23.85-2.71 25.5-2.94 1.65-0.24 6.6-0.72 11-1.08 4.4-0.36 9.12-0.82 10.5-1.03 1.37-0.21 11.5-0.65 22.5-0.98 11-0.33 20.56-0.79 21.25-1.03 0.98-0.33 1.25-15.61 1.25-71.92v-71.5h-195.28zm250.83 57.9c0.23 62.81 0.45 71.68 1.76 71.86 0.83 0.11 10.5 0.51 21.5 0.89 11 0.38 21.35 0.88 23 1.11 1.65 0.23 8.18 0.88 14.5 1.46 6.33 0.57 19.38 1.97 29 3.1 9.63 1.13 23.58 2.92 31 3.99 7.43 1.06 21.46 3.39 31.2 5.18 9.73 1.8 17.94 3.04 18.24 2.76 0.3-0.28 1.91-6.35 3.57-13.5 1.66-7.15 3.9-16.6 4.97-21 1.06-4.4 2.84-12.73 3.94-18.5 1.1-5.78 2.67-14.55 3.49-19.5 0.82-4.95 1.75-11.02 2.06-13.5 0.32-2.48 0.78-6.08 1.03-8 0.25-1.92 0.69-5.3 0.98-7.5 0.28-2.2 1.16-10.08 1.95-17.5 0.79-7.42 1.69-20.14 2-28.25l0.57-14.75h-195.01zm250.77-51.65c-0.61 9.62-1.78 24.25-2.61 32.5-0.84 8.25-3.55 27.15-6.03 42-2.48 14.85-6.49 35.77-8.91 46.5-2.42 10.72-5.09 21.75-5.92 24.5-0.84 2.75-1.54 5.9-1.55 7-0.02 1.73 1.9 2.52 14.24 5.87 7.85 2.13 26.64 8.03 41.76 13.1 15.13 5.08 33.75 11.44 41.37 14.13l13.87 4.9c3.32-3.88 6.93-9.5 10.17-15 3.23-5.5 6.88-11.58 8.09-13.5 1.22-1.93 4.03-7.1 6.24-11.5 2.22-4.4 6.73-14.08 10.03-21.5 3.29-7.43 7.89-18.68 10.21-25 2.32-6.33 5.49-14.88 7.04-19 1.55-4.13 4.68-14.7 6.95-23.5 2.27-8.8 5.42-23.2 7-32 1.57-8.8 3.14-18.25 3.47-21 0.33-2.75 1.03-9.5 1.56-15 0.52-5.5 0.96-10.79 0.98-11.75 0.02-1.66-4.35-1.75-78-1.75-61.53 0-78.11 0.26-78.44 1.25-0.23 0.68-0.91 9.12-1.52 18.75zm-338.52 181.41c-6.6 0.37-19.87 1.31-29.5 2.1-9.62 0.79-22 1.89-27.5 2.45-5.5 0.57-12.02 1.3-14.5 1.63-2.47 0.33-13.61 2.13-24.75 4-11.13 1.87-20.58 3.41-21 3.42-0.41 0.01-1.23 0.41-1.82 0.89-0.74 0.59 1.11 6.81 5.86 19.73 4.62 12.55 10.92 26.74 18.82 42.37 6.54 12.92 15.84 29.8 20.68 37.5 4.84 7.7 13.3 20.07 18.8 27.5 5.51 7.42 15.39 18.94 21.96 25.6 6.58 6.66 15.78 14.93 20.45 18.38 4.68 3.44 13.45 8.62 19.5 11.5 6.05 2.88 13.25 5.8 16 6.49 2.75 0.68 5.79 1.42 6.75 1.63 1.66 0.37 1.75-5.02 1.63-103.15l-0.12-103.55c-14.46 0.27-18.79 0.46-18.96 0.59-0.16 0.13-5.7 0.55-12.3 0.92zm87.5 102.09c0 68.33 0.34 103.5 1 103.5 0.55 0 4.72-1.17 9.25-2.59 4.54-1.42 12.75-5.1 18.25-8.18 5.5-3.07 13.15-8.1 17-11.16 3.84-3.07 11.2-9.62 16.36-14.57 5.15-4.95 12.81-13.27 17.01-18.49 4.2-5.22 10.25-13.1 13.46-17.5 3.2-4.41 8.18-11.61 11.07-16.01 2.89-4.4 7.54-12.05 10.33-17 2.78-4.95 7.58-13.95 10.65-20 3.06-6.05 6.85-13.25 8.4-16 1.56-2.75 6.36-14.45 10.67-26 4.32-11.55 8.03-21.45 8.25-22 0.22-0.55-0.86-1.38-2.4-1.84-1.54-0.46-5.16-1.25-8.05-1.75-2.88-0.5-7.83-1.37-11-1.92-3.16-0.56-11.37-1.89-18.25-2.97-6.87-1.08-16.55-2.41-21.5-2.95-4.95-0.55-14.85-1.47-22-2.05-7.15-0.58-15.02-1.27-17.5-1.53-2.47-0.27-12.15-0.94-21.5-1.48-9.35-0.55-19.81-1-23.25-1.01h-6.25zm203.7-63.5c-1.9 5.22-5.13 13.55-7.17 18.5-2.04 4.95-10.37 22.5-18.52 39-10.42 21.11-17.48 33.99-23.84 43.5-4.97 7.42-10.32 15.3-11.89 17.5-1.57 2.2-4.97 7.48-7.56 11.75-3.32 5.46-4.27 7.75-3.22 7.75 0.83 0 4.77-1.31 8.75-2.91 3.99-1.6 11.98-5.13 17.75-7.84 5.78-2.72 18.38-9.45 28-14.95 9.63-5.5 20.43-11.86 24-14.13 3.58-2.27 9.34-6.05 12.8-8.4 3.46-2.35 10-7.2 14.53-10.77 4.54-3.58 12.05-9.64 16.71-13.47 4.66-3.83 16.9-15.42 27.21-25.75 10.32-10.33 19.01-19.8 19.32-21.03 0.31-1.24 0.42-2.32 0.25-2.39-0.17-0.08-14.04-4.65-30.82-10.17-16.77-5.52-35.9-11.37-42.5-13.01-6.6-1.64-13.64-3.26-15.66-3.61-2.01-0.35-3.89-0.28-4.16 0.14-0.28 0.43-2.07 5.06-3.98 10.29zm-502.7-2.06c-4.12 1.21-18.63 5.77-32.25 10.13-13.61 4.36-24.97 8.38-25.25 8.93-0.27 0.55 0.56 2.46 1.85 4.25 1.29 1.78 8.6 9.58 16.25 17.32 7.65 7.74 19.3 18.58 25.9 24.08 6.6 5.5 17.4 14.06 24 19.02 6.6 4.96 16.5 11.91 22 15.46 5.5 3.55 14.28 8.87 19.5 11.83 5.23 2.95 10.63 6.15 12 7.11 1.38 0.96 9.03 5 17 8.98 7.98 3.98 18.22 8.53 22.75 10.09 4.54 1.57 8.26 2.52 8.26 2.11 0-0.42-1.49-3-3.31-5.75-1.83-2.75-6.48-9.5-10.34-15-3.87-5.5-9.86-14.73-13.33-20.5-3.47-5.78-10.92-19.73-16.54-31-5.63-11.28-13.4-27.48-17.27-36-3.87-8.53-8.98-20.8-11.37-27.28-4.25-11.5-4.41-11.77-7.35-11.7-1.65 0.03-7.95 1.34-14 2.9-6.05 1.55-14.37 3.81-18.5 5.02z"/>
	</g>
</svg>