<svg version="1.2" xmlns="http://www.w3.org/2000/svg" viewBox="0 0 813 1081" width="813" height="1081">
	<style>
		.s0 { fill: #ffffff } 
	</style>
	<g id="icons">
		<path id="-e mega" fill-rule="evenodd" class="s0" d="m502.54 0.06c0.58-0.03 0.95 0.28 0.84 0.69-0.11 0.41-1.83 6.37-3.83 13.25-1.99 6.87-4.74 18.12-6.1 25-1.36 6.87-3.18 18.57-4.05 26-0.86 7.42-1.59 21.37-1.61 31-0.02 9.62 0.25 21.1 0.61 25.5 0.36 4.4 1.35 12.72 2.22 18.5 0.86 5.77 2.66 15.22 3.99 21 1.34 5.77 3.38 13.42 4.54 17 1.17 3.57 2.38 6.95 2.7 7.5 0.33 0.55 0.72 1.9 0.87 3 0.15 1.1 1.72 5.82 3.49 10.5 1.77 4.67 3.57 8.61 4 8.75 0.44 0.14 0.56 0.7 0.29 1.25-0.28 0.55-0.05 1 0.5 1 0.55 0 0.77 0.45 0.5 1-0.28 0.55-0.05 2.35 0.5 4 0.55 1.65 1.45 3 2 3 0.55 0 0.77 0.45 0.5 1-0.28 0.55 3.03 7.86 7.35 16.25 4.31 8.39 11.56 21.32 16.1 28.75 4.54 7.42 11.22 17.77 14.83 23 3.62 5.22 11.31 15.57 17.09 23 5.78 7.42 13.01 16.41 16.07 19.96 3.06 3.56 9.38 10.48 14.06 15.39 4.67 4.91 11.47 11.9 15.11 15.54 3.63 3.63 10.17 9.98 14.52 14.11 4.35 4.12 11.06 10.42 14.92 14 3.85 3.57 11.26 10.32 16.47 15 5.2 4.67 11.43 10.3 13.82 12.5 2.4 2.2 5.78 5.31 7.51 6.9 1.73 1.6 7.2 6.85 12.15 11.67 4.95 4.82 12.17 12.07 16.05 16.1 3.87 4.03 11.3 12.05 16.51 17.83 5.21 5.77 12.21 13.87 15.56 18 3.35 4.12 8.3 10.42 11.01 14 2.71 3.57 7.9 11 11.55 16.5 3.64 5.5 9.69 15.4 13.44 22 3.76 6.6 9.26 17.4 12.23 24 2.97 6.6 7.15 17.4 9.28 24 2.13 6.6 5.18 17.85 6.79 25 1.61 7.15 3.51 17.27 4.21 22.5 0.71 5.22 1.25 17.82 1.22 28-0.05 11.8-0.71 23.03-1.82 31-0.96 6.87-3.07 17.67-4.68 24-1.61 6.32-5.24 18.47-8.06 27-3.36 10.13-8.17 21.56-13.9 33-4.81 9.62-12.95 23.8-18.07 31.5-5.13 7.7-12.7 18.46-16.82 23.91-4.13 5.44-7.95 10.53-8.5 11.29-0.55 0.77-3.01 3.74-5.46 6.6-2.45 2.86-13.04 13.75-23.54 24.2-10.49 10.45-22.44 22.04-26.54 25.76-4.1 3.73-7.57 6.76-7.71 6.75-0.14 0-3.12 2.35-6.63 5.24-3.52 2.89-9.93 7.95-14.25 11.25-4.33 3.3-13.72 10.24-20.87 15.42-7.15 5.19-18.4 13-25 17.36-6.6 4.36-12.23 8.37-12.5 8.91-0.28 0.54-0.87 0.83-1.32 0.65-0.46-0.19-7.21 3.62-15 8.46-7.8 4.84-16.88 10.4-20.18 12.37-3.3 1.96-11.85 6.68-19 10.49-7.15 3.8-21.78 11.34-32.5 16.74-10.73 5.4-24.9 12.18-31.5 15.07-6.6 2.89-15.15 6.7-19 8.47-3.85 1.76-17.58 7.45-30.5 12.64-12.93 5.18-23.61 9.76-23.75 10.17-0.14 0.41-0.59 0.54-1 0.29-0.41-0.26-4.13 0.81-8.25 2.36-4.13 1.56-14.03 5.1-22 7.89-7.98 2.78-17.98 6.1-22.22 7.38-4.25 1.28-7.95 2.1-8.23 1.83-0.28-0.28 0.41-4.78 1.53-10 1.13-5.23 2.77-14.68 3.66-21 1.16-8.26 1.59-18.41 1.53-36-0.06-16.31-0.62-28.34-1.67-36-0.87-6.33-2.59-16.75-3.84-23.18-1.29-6.68-2.66-11.38-3.19-11-0.56 0.4-0.66-0.24-0.25-1.57 0.37-1.24 0.23-2.48-0.32-2.75-0.55-0.28-0.78-0.95-0.5-1.5 0.27-0.55-0.64-4.94-2.02-9.75-1.39-4.81-3.92-12.8-5.63-17.75-1.71-4.95-4.36-12.15-5.89-16-1.54-3.85-4.87-11.5-7.41-17-2.54-5.5-5.39-11.47-6.33-13.26-0.95-1.79-2.13-3.25-2.64-3.25-0.5 0.01-0.62-0.33-0.27-0.74 0.36-0.41-0.99-3.68-2.99-7.25-2-3.58-5.25-9.2-7.21-12.5-1.97-3.3-6.91-10.95-10.98-17-4.07-6.05-10.38-14.79-14.02-19.43-3.63-4.64-9.49-11.84-13.01-16-3.53-4.16-9.6-10.91-13.5-14.99-3.91-4.09-11.87-12.19-17.7-18-5.83-5.82-15.06-14.68-20.5-19.69-5.45-5.01-15.98-14.44-23.4-20.95-7.43-6.51-19.58-17.19-27-23.73-7.43-6.54-17.78-15.77-23-20.52-5.23-4.74-18.28-17.42-29.01-28.16-10.73-10.74-22.1-22.46-25.27-26.03-3.17-3.58-5.76-6.61-5.74-6.75 0.01-0.14-2.61-3.29-5.82-7-3.22-3.71-8.7-10.58-12.2-15.25-3.49-4.68-8.29-11.31-10.65-14.75-2.37-3.44-4.61-5.91-4.97-5.5-0.36 0.41-0.36 0.19 0-0.5 0.36-0.69-0.02-1.93-0.84-2.75-0.83-0.83-1.16-1.72-0.75-1.99 0.41-0.27-0.04-0.72-1-1-0.96-0.28-1.54-0.85-1.28-1.26 0.26-0.41-0.53-1.86-1.75-3.23-1.22-1.36-2.1-2.71-1.96-3 0.14-0.28-0.51-1.42-1.46-2.52-0.94-1.1-1.55-2-1.35-2 0.2 0-3.24-7.2-7.65-16-4.94-9.88-9.83-21.55-12.76-30.5-2.61-7.98-6.01-20.13-7.56-27-1.55-6.88-3.36-17.23-4.03-23-0.75-6.51-1-17.35-0.68-28.5 0.38-12.91 1.27-22.24 3.14-33 1.44-8.25 3.78-19.28 5.2-24.5 1.42-5.23 4.07-13.78 5.89-19 1.82-5.23 4.29-11.75 5.5-14.5 1.21-2.75 5-10.85 8.42-18 3.41-7.15 9.08-17.73 12.59-23.5 3.51-5.78 10.87-16.8 16.37-24.5 5.49-7.7 14.72-19.63 20.51-26.5 5.78-6.88 18.64-20.61 28.56-30.53 9.93-9.92 21.87-21.22 26.55-25.12 4.67-3.89 10.19-8.72 12.25-10.72 2.06-2 3.97-3.63 4.25-3.63 0.27 0 5.34-3.75 11.25-8.33 5.91-4.58 16.6-12.38 23.75-17.33 7.15-4.94 17.27-11.65 22.5-14.9 5.22-3.25 9.72-6.17 10-6.49 0.27-0.32 6.8-4.21 14.5-8.65 7.7-4.44 15.57-8.95 17.5-10.03 1.92-1.08 6.2-3.49 9.5-5.36 3.3-1.88 7.35-4.18 9-5.13 1.65-0.95 12.9-6.64 25-12.65 12.1-6.01 24.02-11.82 26.5-12.92 2.47-1.1 11.25-5.03 19.5-8.74 8.25-3.7 15.67-7.29 16.5-7.97 0.82-0.68 1.95-1.06 2.5-0.83 0.55 0.22 3.25-0.57 6-1.75 2.75-1.18 9.95-4.16 16-6.63 6.05-2.47 17.07-6.72 24.5-9.45 7.42-2.74 16.42-6.04 20-7.35 3.57-1.3 16.17-5.61 28-9.57 11.82-3.97 27.8-9.14 35.5-11.5 7.7-2.36 14.47-4.32 15.04-4.36zm-146.04 160.07c-2.75 1.11-11.75 5.45-20 9.62-8.25 4.18-18.6 9.37-23 11.54-4.4 2.18-11.15 5.86-15 8.19-3.85 2.32-11.05 6.63-16 9.57-4.95 2.93-11.81 7.38-15.25 9.89-3.44 2.51-6.26 5.12-6.25 5.81 0 0.69 1.46 2.1 3.25 3.14 1.79 1.04 10.45 5.83 19.25 10.64 8.8 4.82 20.72 11.22 26.5 14.23 5.77 3.02 12.52 6.61 15 7.99 2.47 1.38 10.57 5.67 18 9.54 7.42 3.86 30.15 15.34 50.5 25.51 20.35 10.16 40.49 19.99 44.75 21.84 4.26 1.85 8.2 3.36 8.75 3.36 0.55 0 0.76-1.01 0.47-2.25-0.29-1.24-2.25-5.4-4.36-9.25-2.11-3.85-5.56-10.15-7.67-14-2.11-3.85-6.72-13.3-10.23-21-3.51-7.7-9.02-21.65-12.23-31-3.21-9.35-7.17-21.28-8.79-26.5-1.63-5.23-4.13-14.68-5.55-21-1.42-6.33-3.63-17.58-4.92-25-2.22-12.89-2.44-13.51-4.77-13.71-1.35-0.11-8.08 2.27-14.95 5.3-6.88 3.03-14.75 6.42-17.5 7.54zm-212.97 155.37c-6.16 8.25-12.4 17.02-13.85 19.5-1.45 2.47-2.66 4.95-2.69 5.5-0.02 0.55 1.99 2.46 4.48 4.25 2.49 1.79 4.54 2.91 4.55 2.5 0-0.41 0.34-0.19 0.75 0.5 0.4 0.69 5.9 4.37 12.23 8.19 6.32 3.81 20.95 12.53 32.5 19.38 11.55 6.85 27.97 16.25 36.5 20.91 8.52 4.65 20 10.86 25.5 13.8 5.5 2.94 23.27 11.96 39.5 20.05 16.22 8.09 34.22 16.82 40 19.42 5.77 2.59 14.32 6.5 19 8.69 4.67 2.19 17.5 7.94 28.5 12.79 11 4.84 27.2 11.82 36 15.5 8.8 3.69 28.6 11.76 44 17.94 15.4 6.18 31.6 12.64 36 14.34 4.4 1.71 16.1 6.09 26 9.74 9.9 3.65 22.5 8.36 28 10.47 5.5 2.11 15.4 5.74 22 8.06 6.6 2.32 17.74 6.19 24.75 8.59 7.01 2.41 12.75 4.15 12.75 3.88 0-0.28 1.01 0.13 2.25 0.91 1.24 0.77 17.32 6.39 35.75 12.49 18.42 6.1 37.55 12.39 42.5 13.98 6.16 1.99 9.55 2.62 10.75 2.01 1.64-0.84 1.62-1.15-0.38-5.14-1.16-2.34-4.6-8.08-7.64-12.75-3.03-4.68-8.22-12.1-11.53-16.5-3.31-4.4-8.76-10.92-12.11-14.5-3.35-3.57-9.47-9.82-13.59-13.89-4.13-4.07-14.03-13.33-22-20.58-7.98-7.25-15.74-13.94-17.25-14.86-1.51-0.92-2.76-1.33-2.77-0.92 0 0.41-0.34 0.22-0.75-0.43-0.4-0.65-7.03-3.65-14.73-6.66-7.7-3.01-21.2-8.49-30-12.19-8.8-3.69-18.48-7.73-21.5-8.98-3.03-1.24-14.28-6.09-25-10.76-10.73-4.68-24.23-10.63-30-13.23-5.78-2.6-17.48-7.89-26-11.75-8.53-3.86-23.15-10.61-32.5-14.98-9.35-4.38-24.2-11.4-33-15.6-8.8-4.19-33.33-16.36-54.5-27.03-21.18-10.66-45.93-23.46-55-28.43-9.08-4.97-22.13-12.05-29-15.73-6.88-3.68-17.23-9.4-23-12.7-5.78-3.31-15.9-9.16-22.5-13-6.6-3.84-16.16-9.53-21.25-12.63-5.09-3.11-9.59-5.65-10-5.66-0.41-0.01-5.2 4.61-10.63 10.25-5.43 5.64-14.92 17.01-21.09 25.26zm-38.07 150c1.47 4.95 3.93 12.15 5.47 16 1.54 3.85 5.17 11.27 8.07 16.5 2.9 5.22 7.33 12.42 9.86 16 2.53 3.57 7.6 10.55 11.27 15.5 3.67 4.95 8.75 11.02 11.29 13.5 2.53 2.47 4.6 4.16 4.59 3.75 0-0.41 1.09 0.26 2.43 1.5 1.34 1.24 6.8 4.5 12.14 7.25 5.34 2.75 16.73 8.75 25.31 13.34 8.59 4.59 32.71 16.81 53.61 27.16 20.9 10.35 45.87 22.49 55.5 26.98 9.62 4.5 17.95 8.25 18.5 8.35 0.55 0.09 1.22 0.46 1.5 0.81 0.27 0.35 7.47 3.78 16 7.63 8.52 3.85 21.8 9.7 29.5 12.99 7.7 3.29 20.3 8.59 28 11.77 7.7 3.18 20.75 8.46 29 11.73 8.25 3.27 22.42 8.85 31.5 12.41 9.07 3.55 21.67 8.51 28 11.02 6.32 2.5 16.45 6.27 22.5 8.36 6.05 2.09 15.5 5.44 21 7.44 5.5 2 19 6.81 30 10.69 11 3.87 25.62 8.83 32.5 11.03 6.87 2.19 21.05 6.82 31.5 10.28 10.45 3.47 22.37 7.29 26.5 8.49 4.12 1.2 10.87 3.27 15 4.6 4.12 1.33 8.29 2.42 9.25 2.42 1.11 0 4.07-3.56 8.12-9.75 3.51-5.36 8.65-14.25 11.43-19.75 2.78-5.5 6.44-14.16 8.13-19.25 1.69-5.09 3.02-9.59 2.95-10-0.06-0.41-0.03-0.98 0.08-1.25 0.12-0.28 0.28-1.51 0.37-2.75 0.14-1.88-0.64-2.47-4.83-3.67-2.75-0.79-7.03-1.95-9.5-2.59-2.48-0.64-11.03-3.12-19-5.5-7.98-2.38-24.29-7.52-36.25-11.41-11.96-3.9-22.31-6.78-23-6.42-0.71 0.37-0.91 0.27-0.46-0.25 0.45-0.52-10.21-4.59-25-9.53-14.18-4.74-30.4-10.25-36.04-12.25-5.64-2-10.25-3.41-10.25-3.13 0 0.27-1.14-0.29-2.53-1.25-1.38-0.96-2.85-1.42-3.25-1.01-0.39 0.41-1.17 0.34-1.72-0.16-0.55-0.49-6.63-2.93-13.5-5.42-6.88-2.49-18.13-6.54-25-9-6.88-2.46-22.4-8.26-34.5-12.88-12.1-4.62-22.34-8.49-22.75-8.59-0.41-0.1-2.44-0.9-4.5-1.76-2.06-0.86-10.28-4.2-18.25-7.41-7.98-3.22-24.85-10.12-37.5-15.34-12.65-5.22-30.88-12.96-40.5-17.21-9.63-4.25-25.38-11.21-35-15.48-9.63-4.27-22.45-10.1-28.5-12.97-6.05-2.87-22.7-11-37-18.07-14.3-7.07-38.38-19.55-53.5-27.74-15.13-8.19-32.45-17.81-38.5-21.39-6.05-3.57-14.04-8.37-17.75-10.66-3.71-2.29-6.99-3.82-7.28-3.41-0.29 0.41-0.51 0.19-0.5-0.5 0.02-0.69-2.56-2.7-5.72-4.46-3.16-1.77-6.88-3.81-8.25-4.53-1.38-0.73-2.81-1.31-3.2-1.29-0.38 0.02-0.54 2.62-0.36 5.78 0.19 3.16 1.55 9.8 3.02 14.75zm265.34 299.58c0.11 0.51 1.72 3.28 3.58 6.17 1.85 2.89 7.08 11.55 11.6 19.25 4.53 7.7 10.85 18.95 14.05 25 3.2 6.05 8.56 17.41 11.9 25.25 3.34 7.84 8.96 22.01 12.5 31.5 3.53 9.49 7.99 22.87 9.9 29.75 1.91 6.87 4.17 15.42 5.02 19 0.85 3.57 1.9 8.2 2.35 10.27 0.44 2.07 1.36 3.98 2.05 4.25 0.69 0.26 4.06-0.7 7.5-2.14 3.44-1.44 14.12-6.57 23.75-11.4 9.62-4.82 25.6-13.34 35.5-18.91 9.9-5.58 18.45-10.79 19-11.59 0.55-0.8 1.22-1.26 1.5-1.03 0.27 0.24 10.43-6.18 22.56-14.26 12.13-8.08 24.92-16.94 28.43-19.69 3.5-2.75 8.2-6.69 10.44-8.75 2.24-2.07 3.84-3.88 3.57-4.04-0.28-0.15-1.63-0.83-3-1.5-1.38-0.67-9.93-3.66-19-6.64-9.08-2.97-25.73-8.56-37-12.42-11.28-3.85-29.95-10.39-41.5-14.53-11.55-4.14-21.34-7.32-21.75-7.07-0.41 0.25-0.75 0-0.75-0.55 0-0.55-1.24-1.29-2.75-1.65-1.51-0.36-7.93-2.66-14.25-5.12-6.33-2.45-14.43-5.49-18-6.76-3.58-1.27-11.23-4.17-17-6.43-5.78-2.27-18.15-7-27.5-10.51-9.35-3.51-17.68-6.61-18.5-6.88-0.83-0.27-2.15-0.26-2.95 0.01-0.8 0.28-1.36 0.92-1.25 1.42z"/>
	</g>
</svg>