<svg version="1.2" xmlns="http://www.w3.org/2000/svg" viewBox="0 0 1170 842" width="1170" height="842">
	<style>
		.s0 { fill: #ffffff } 
	</style>
	<g id="icons">
		<path id="-e special background" class="s0" d="m940.5 1.99c-2.2 1.09-5.33 3.22-6.95 4.74-1.62 1.53-4.56 5.24-6.52 8.27-1.96 3.02-5.19 10-7.19 15.5-1.99 5.5-4.43 14.05-5.41 19-1.31 6.55-1.82 13.89-1.87 27-0.04 11.64 0.42 20.3 1.31 24.5 0.75 3.57 2.5 10.32 3.87 15 1.38 4.67 4.21 11.87 6.29 16 2.08 4.12 5.17 9.41 6.87 11.75 1.71 2.34 5.01 5.33 7.35 6.65 2.34 1.32 5.82 2.7 7.75 3.07 2.18 0.41 5.2 0.09 8-0.85 2.72-0.91 6.42-3.41 9.34-6.31 2.66-2.65 6.34-7.51 8.18-10.81 1.84-3.3 4.24-8.48 5.34-11.5 1.1-3.03 2.89-8.88 3.99-13 1.11-4.13 2.27-9.98 2.59-13 0.32-3.03 0.82-6.63 1.1-8 0.28-1.38 0.54-7.68 0.59-14 0.05-6.33-0.2-13.53-0.57-16-0.36-2.48-1.3-7.88-2.08-12-0.78-4.13-2.29-10.2-3.34-13.5-1.05-3.3-2.7-7.8-3.65-10-0.96-2.2-3.19-6.25-4.96-9-1.77-2.75-4.53-6.39-6.12-8.1-1.6-1.7-4.82-4.06-7.16-5.25-2.37-1.2-6.13-2.15-8.5-2.15-2.34 0-6.05 0.89-8.25 1.99zm-818.56 378.35c-0.24 0.22-4.72 0.69-9.94 1.04-5.23 0.36-12.2 1.05-15.5 1.54-3.3 0.48-11.4 2.1-18 3.58-6.6 1.48-15.38 3.81-19.5 5.18-4.13 1.37-12.9 5.13-19.5 8.37-6.6 3.24-15.15 8.3-19 11.25-3.85 2.94-8.9 7.8-11.22 10.78-2.32 2.98-5.2 7.89-6.4 10.92-1.5 3.76-2.2 7.72-2.23 12.5-0.02 3.85 0.57 8.8 1.3 11 0.74 2.2 2.8 6.25 4.58 9 1.79 2.75 4.98 6.84 7.11 9.08 2.12 2.25 5.43 5.23 7.36 6.63 1.92 1.41 7.77 4.84 13 7.62 5.22 2.79 12.65 6.25 16.5 7.68 3.85 1.44 11.72 3.97 17.5 5.62 5.77 1.66 12.52 3.43 15 3.95 2.47 0.51 6.97 1.41 10 1.99 3.02 0.59 8.65 1.49 12.5 2.01 3.85 0.52 13.97 1.22 22.5 1.54 10.93 0.42 20.37 0.11 32-1.04 9.07-0.9 20.77-2.53 26-3.62 5.22-1.1 12.87-2.92 17-4.04 4.12-1.13 8.85-2.43 10.5-2.89 1.65-0.47 5.7-1.83 9-3.02 3.3-1.2 9.6-3.85 14-5.9 4.4-2.05 11.37-5.93 15.5-8.61 4.12-2.68 9.64-7.04 12.25-9.69 2.61-2.65 6.21-7.85 8-11.56 2.83-5.88 3.25-7.78 3.25-14.75 0-6.98-0.41-8.83-3.2-14.5-1.77-3.58-4.69-8.03-6.5-9.89-1.82-1.87-6.9-6.13-11.3-9.47-4.4-3.35-12.5-8.29-18-10.99-5.5-2.71-11.8-5.57-14-6.36-2.2-0.79-4.68-1.61-5.5-1.81-0.83-0.2-5.33-1.47-10-2.83-4.68-1.36-10.98-2.97-14-3.58-3.03-0.6-6.63-1.33-8-1.62-1.38-0.29-6.33-1.17-11-1.96-4.68-0.79-11.2-1.67-14.5-1.96-3.3-0.29-13-0.77-21.56-1.06-8.55-0.29-15.75-0.35-16-0.13zm264.02 185.92c-2.5 0.68-6.32 2.4-8.5 3.81-2.18 1.42-6.53 5.24-9.66 8.5-3.14 3.26-7.6 8.63-9.91 11.93-2.31 3.3-6.13 9.82-8.49 14.5-2.36 4.67-5.71 12.55-7.46 17.5-1.74 4.95-4.43 14.17-5.96 20.5-1.53 6.32-3.06 13.3-3.38 15.5-0.33 2.2-1.31 9.4-2.18 16-0.87 6.6-1.73 21-1.92 32-0.21 12.76 0.16 23.98 1.02 31 0.74 6.05 2.29 15.5 3.43 21 1.15 5.5 3.23 13.82 4.64 18.5 1.4 4.67 3.69 11.42 5.07 15 1.39 3.57 4.33 9.87 6.55 14 2.21 4.12 6.83 11.1 10.27 15.5 3.44 4.4 8 9.33 10.14 10.95 2.13 1.63 6.58 4.28 9.88 5.89 4.91 2.4 7.38 2.95 13.55 3.05 6.79 0.1 8.31-0.26 15-3.54 4.54-2.23 9.7-5.85 13.2-9.25 3.16-3.08 7.64-8.41 9.95-11.85 2.3-3.44 6.31-10.75 8.9-16.25 2.59-5.5 6.07-14.05 7.73-19 1.65-4.95 3.91-12.6 5-17 1.1-4.4 2.76-12.5 3.69-18 0.93-5.5 2.04-14.73 2.47-20.5 0.43-5.78 0.61-16.8 0.39-24.5-0.21-7.7-0.63-16.25-0.94-19-0.31-2.75-1-7.93-1.54-11.5-0.55-3.58-1.22-7.85-1.51-9.5-0.28-1.65-1.18-6.15-2-10-0.81-3.85-2.33-10.15-3.36-14-1.04-3.85-3.06-10.38-4.5-14.5-1.43-4.13-4.53-11.55-6.88-16.5-2.35-4.95-6.69-12.6-9.65-17-2.96-4.4-7.66-10.29-10.44-13.09-2.78-2.8-7.42-6.29-10.31-7.75-3.34-1.69-7.52-2.84-11.5-3.15-3.54-0.28-8.22 0.04-10.79 0.75zm-4.96-509.12c-3.84 1.8-8.89 5.37-12.35 8.71-3.22 3.11-7.89 8.57-10.37 12.15-2.49 3.57-5.82 9.09-7.41 12.25-1.58 3.16-3.8 8.11-4.94 11-1.14 2.89-3.18 8.4-4.54 12.25-1.35 3.85-3.53 11.72-4.85 17.5-1.32 5.77-2.67 12.3-3.01 14.5-0.34 2.2-1.27 9.17-2.07 15.5-0.79 6.32-1.45 18.25-1.45 26.5 0 8.25 0.48 20.17 1.07 26.5 0.59 6.32 1.92 16 2.95 21.5 1.03 5.5 2.13 11.35 2.45 13 0.32 1.65 1.67 6.82 3 11.5 1.33 4.67 4.14 13 6.23 18.5 2.09 5.5 5.27 12.7 7.06 16 1.79 3.3 5.17 8.54 7.5 11.65 2.32 3.11 5.62 7.16 7.33 9 1.7 1.84 4.4 4.38 6 5.64 1.59 1.26 5.37 3.47 8.4 4.91 4.36 2.09 7.05 2.64 13 2.69 6.51 0.06 8.43-0.38 14.5-3.26 4.43-2.11 8.84-5.23 12-8.5 2.75-2.84 6.94-8.08 9.3-11.65 2.37-3.56 6.04-10.08 8.16-14.48 2.13-4.4 5.43-12.5 7.34-18 1.92-5.5 4.2-12.48 5.07-15.5 0.87-3.03 2.51-9.55 3.64-14.5 1.13-4.95 2.27-10.8 2.55-13 0.27-2.2 0.94-8.28 1.48-13.5 0.54-5.23 1.03-16.7 1.09-25.5 0.05-8.8-0.21-19.15-0.57-23-0.37-3.85-1.11-10.38-1.65-14.5-0.54-4.13-1.44-9.75-2-12.5-0.57-2.75-1.93-8.6-3.03-13-1.1-4.4-3.38-12.05-5.06-17-1.68-4.95-4.92-12.83-7.2-17.5-2.28-4.68-6.11-11.43-8.52-15-2.41-3.58-7.35-9.33-10.99-12.78-4.67-4.44-8.45-7.01-12.86-8.75-4.68-1.85-8.07-2.46-13.5-2.42-5.93 0.03-8.43 0.6-13.75 3.09zm418-0.24c-1.38 0.39-4.25 1.82-6.38 3.16-2.13 1.34-4.81 4.01-5.95 5.94-1.44 2.43-2.21 5.79-2.5 11-0.3 5.21 0.1 9.33 1.29 13.5 0.95 3.3 2.96 8.92 4.47 12.5 1.5 3.57 4.92 9.87 7.59 14 2.67 4.12 8.03 11.28 11.92 15.9 3.88 4.61 10.66 11.56 15.06 15.43 4.4 3.87 10.92 8.93 14.5 11.24 3.57 2.31 9.42 5.8 13 7.75 3.57 1.96 9.87 4.66 14 5.99 4.12 1.34 9.52 2.8 12 3.24 2.47 0.44 5.29 0.72 6.25 0.63 0.96-0.1 3.21-0.17 5-0.16 2.03 0.01 5.08-1.2 8.14-3.25 2.69-1.8 5.58-4.62 6.43-6.27 0.95-1.87 1.52-5.64 1.51-10-0.01-3.85-0.82-9.7-1.8-13-0.98-3.3-3.1-8.93-4.71-12.5-1.61-3.58-5-9.88-7.55-14-2.54-4.13-7.4-11.1-10.8-15.5-3.4-4.4-9.07-10.7-12.59-14-3.52-3.3-10.45-9.04-15.39-12.76-4.95-3.72-13.49-9.01-18.99-11.76-5.5-2.74-12.7-5.67-16-6.49-3.3-0.83-8.25-1.46-11-1.41-2.75 0.05-6.13 0.42-7.5 0.82zm280 2.67c-3.03 0.84-10 3.82-15.5 6.61-5.5 2.79-13.15 7.25-17 9.9-3.85 2.65-10.57 8.1-14.93 12.12-4.35 4.01-10.1 10-12.77 13.3-2.67 3.3-5.18 6.45-5.59 7-0.41 0.55-2.51 3.7-4.68 7-2.16 3.3-6.05 10.27-8.64 15.5-2.58 5.22-5.42 11.97-6.31 15-0.88 3.02-1.66 8.2-1.74 11.5-0.11 4.51 0.45 7.22 2.26 10.91 1.32 2.7 3.52 5.69 4.9 6.64 1.37 0.96 4.52 2.28 7 2.95 2.67 0.72 6.94 0.97 10.5 0.61 3.3-0.33 8.7-1.55 12-2.71 3.3-1.16 9.6-3.91 14-6.12 4.4-2.21 11.15-6.07 15-8.58 3.85-2.51 8.57-5.9 10.5-7.52 1.92-1.62 5.75-5.08 8.5-7.68 2.75-2.61 6.6-6.49 8.55-8.62 1.95-2.13 6.28-7.48 9.62-11.88 3.34-4.4 8.14-11.83 10.66-16.5 2.52-4.68 5.34-11.43 6.27-15 0.93-3.58 1.65-9.65 1.59-13.5-0.08-5.16-0.71-8.18-2.4-11.49-1.34-2.64-4.08-5.74-6.63-7.5-3.78-2.63-5.31-3.04-12-3.24-4.55-0.14-9.89 0.39-13.16 1.3zm-946.5 95.33c-2.75 0.43-7.48 1.89-10.5 3.26-3.03 1.37-7.23 4.03-9.34 5.91-2.11 1.89-5.02 5.9-6.47 8.93-1.45 3.02-3.17 8.42-3.83 12-0.66 3.57-1.05 9.2-0.87 12.5 0.19 3.3 1.29 10.05 2.46 15 1.16 4.95 2.97 11.25 4.02 14 1.05 2.75 3.18 7.92 4.73 11.5 1.55 3.57 4.75 10.1 7.11 14.5 2.36 4.4 8.32 13.62 13.25 20.5 4.93 6.87 12.44 16.49 16.7 21.36 4.26 4.88 11.34 12.31 15.74 16.52 4.4 4.21 11.15 10.15 15 13.2 3.85 3.05 9.19 7.09 11.87 8.98 2.68 1.89 7.41 5.11 10.5 7.16 3.1 2.04 6.3 4.28 7.13 4.98 0.82 0.69 8.25 4.68 16.5 8.86 8.25 4.18 18.6 8.88 23 10.45 4.4 1.56 12.05 3.62 17 4.58 5.86 1.14 11.88 1.6 17.25 1.33 6.3-0.32 9.73-1.09 14.5-3.26 3.44-1.56 7.77-4.14 9.64-5.75 1.86-1.6 4.44-4.71 5.74-6.91 1.3-2.2 3.08-6.93 3.95-10.5 1.15-4.67 1.43-8.89 1-15-0.32-4.68-1.26-11.2-2.09-14.5-0.83-3.3-2.92-9.83-4.65-14.5-1.73-4.68-6.52-14.8-10.65-22.5-4.14-7.7-10.75-18.95-14.7-25-3.96-6.05-7.83-11.68-8.6-12.5-0.78-0.83-3.74-4.43-6.58-8-2.84-3.58-9.36-10.6-14.49-15.61-5.13-5-12.7-11.99-16.82-15.53-4.13-3.53-10.99-9-15.25-12.14-4.26-3.15-10.9-7.75-14.75-10.22-3.85-2.48-11.05-6.53-16-9-4.95-2.48-11.59-5.42-14.75-6.55-3.16-1.13-9.13-3.11-13.25-4.39-4.13-1.29-8.63-2.61-10-2.95-1.38-0.34-6.1-0.81-10.5-1.04-4.4-0.24-10.25-0.09-13 0.33zm501.5 4.28c-2.48 0.52-8.33 2.08-13 3.47-4.68 1.4-11.65 3.9-15.5 5.56-3.85 1.67-11.73 5.73-17.5 9.03-5.78 3.3-13.94 8.31-18.14 11.13-4.21 2.82-12.76 9.47-19 14.77-6.25 5.31-15.2 13.63-19.9 18.5-4.7 4.87-12.3 13.58-16.9 19.36-4.59 5.77-10.71 14.1-13.6 18.5-2.88 4.4-8.17 13.85-11.75 21-3.57 7.15-7.6 15.7-8.95 19-1.35 3.3-3.47 10.05-4.72 15-1.24 4.95-2.55 12.37-2.91 16.5-0.36 4.12-0.3 10.2 0.14 13.5 0.43 3.3 1.77 8.02 2.98 10.5 1.21 2.47 3.56 6.02 5.23 7.88 1.66 1.86 5.61 4.67 8.77 6.25 3.16 1.58 8.34 3.24 11.5 3.69 3.16 0.45 7.55 0.69 9.75 0.54 2.2-0.16 5.8-0.48 8-0.73 2.2-0.25 6.92-1.21 10.5-2.14 3.57-0.93 8.3-2.37 10.5-3.19 2.2-0.83 6.92-2.69 10.5-4.14 3.57-1.45 8.75-3.8 11.5-5.23 2.75-1.42 8.15-4.33 12-6.47 3.85-2.13 10.15-6.04 14-8.69 3.85-2.65 11.72-8.51 17.5-13.03 5.77-4.52 16.37-14.07 23.55-21.23 7.17-7.15 16.43-17.29 20.57-22.51 4.13-5.23 10.35-13.78 13.81-19 3.46-5.23 8.9-14.9 12.09-21.5 3.2-6.6 6.93-15.6 8.31-20 1.38-4.4 2.98-10.93 3.57-14.5 0.58-3.58 1.24-8.53 1.46-11 0.22-2.48-0.02-7.2-0.53-10.5-0.51-3.3-1.95-8.25-3.2-11-1.25-2.75-3.64-6.58-5.31-8.5-1.67-1.93-5.91-4.95-9.43-6.73-3.51-1.77-7.52-3.51-8.89-3.86-1.38-0.35-7-0.75-12.5-0.9-5.5-0.15-12.03 0.15-14.5 0.67zm301 24.95c-3.03 1.18-7.1 3.32-9.06 4.76-1.95 1.43-5.16 4.41-7.12 6.61-1.95 2.2-4.45 5.8-5.55 8-1.1 2.2-2.57 6.47-3.27 9.5-0.76 3.29-1.01 7.71-0.62 11 0.36 3.02 1.43 7.68 2.39 10.34 1.06 2.97 4.15 7.51 7.98 11.75 3.44 3.8 6.92 6.91 7.75 6.91 0.82 0 1.49 0.34 1.48 0.75 0 0.41 2.36 1.65 5.25 2.75 3.93 1.49 7.69 2 14.77 2 8.47 0 10.2-0.33 15.91-3 4.33-2.03 8.02-4.78 11.41-8.5 2.75-3.03 6.17-7.98 7.59-11 2.27-4.82 2.59-6.79 2.59-16 0-9.2-0.31-11.12-2.5-15.48-1.38-2.75-4.57-7.25-7.1-10-2.78-3.04-7.32-6.41-11.46-8.52-6.14-3.13-7.79-3.53-15.9-3.75-7.27-0.21-10.11 0.16-14.54 1.88zm-157 0.97c-4.68 1.01-9.85 2.09-11.5 2.41-1.65 0.31-5.48 1.48-8.5 2.59-3.03 1.12-8.43 3.63-12 5.59-3.58 1.96-8.47 5.19-10.87 7.19-2.41 1.99-5.28 5.42-6.38 7.62-1.51 3.04-1.9 5.44-1.61 10 0.32 5 0.99 6.83 4.05 11 2.58 3.52 6.13 6.48 11.99 9.99 4.63 2.78 12.75 6.44 18.32 8.25 5.5 1.79 14.5 3.91 20 4.7 6.34 0.91 15.3 1.31 24.5 1.08 7.97-0.19 17.87-1.05 22-1.89 4.12-0.85 8.4-1.75 9.5-2.01 1.1-0.26 4.7-1.35 8-2.41 3.3-1.07 9.82-3.75 14.5-5.97 5.11-2.42 10.56-5.97 13.65-8.88 3.49-3.29 5.51-6.15 6.25-8.86 0.6-2.2 1.08-5.35 1.07-7-0.01-1.65-0.84-4.8-1.85-7-1.02-2.2-3.14-5.13-4.73-6.51-1.59-1.38-5.14-3.94-7.89-5.7-2.75-1.75-8.38-4.59-12.5-6.29-4.13-1.71-10.65-3.95-14.5-4.97-3.85-1.03-8.8-2.15-11-2.49-2.2-0.35-7.38-1.07-11.5-1.61-4.13-0.54-12.68-0.91-19-0.82-6.81 0.09-14.97 0.9-20 1.99zm309-0.45c-1.93 0.22-8.45 1.08-14.5 1.91-6.05 0.84-14.83 2.68-19.5 4.08-4.68 1.41-11.65 4.14-15.5 6.07-3.85 1.93-8.91 4.81-11.25 6.4-2.34 1.59-5.34 4.8-6.67 7.14-1.33 2.34-2.73 6.27-3.12 8.75-0.52 3.43-0.22 5.57 1.29 9 1.09 2.47 3.73 6.21 5.86 8.31 2.14 2.09 7.49 5.57 11.89 7.72 4.4 2.16 10.92 5.03 14.5 6.37 3.57 1.35 12.35 3.59 19.5 4.97 11.48 2.23 14.93 2.48 29.5 2.12 11.88-0.29 18.74-0.95 24.5-2.37 4.4-1.08 9.91-2.45 12.25-3.04 2.34-0.59 7.29-2.6 11-4.46 3.71-1.86 9-5.09 11.75-7.18 2.75-2.1 5.9-4.92 7-6.29 1.1-1.37 2.55-3.42 3.21-4.57 0.67-1.14 1.23-4.56 1.24-7.58 0.01-3.4-0.71-7.03-1.89-9.5-1.05-2.2-3.86-5.74-6.24-7.86-2.37-2.12-7.02-5.22-10.32-6.88-3.3-1.66-10.73-4.71-16.5-6.78-5.78-2.07-12.75-4.09-15.5-4.5-2.75-0.41-5.9-0.89-7-1.09-1.1-0.19-6.5-0.52-12-0.73-5.5-0.22-11.58-0.22-13.5-0.01zm-212 77.96c-4.38 0.88-11.87 3.59-18 6.51-5.78 2.75-14.99 8.01-20.49 11.69-5.49 3.68-13.81 10.53-18.5 15.23-4.68 4.69-11.55 12.57-15.26 17.5-3.71 4.93-8.97 13.46-11.7 18.96-2.73 5.5-5.65 12.7-6.49 16-0.84 3.3-1.54 8.25-1.56 11-0.02 2.75 0.49 6.57 1.12 8.5 0.64 1.92 2.33 5.05 3.77 6.94 1.44 1.9 4.85 4.45 7.61 5.69 3.99 1.79 6.41 2.18 12 1.92 3.85-0.18 9.14-1.05 11.75-1.94 2.61-0.89 8.01-3.22 12-5.19 3.99-1.96 9.17-4.78 11.53-6.25 2.35-1.47 8.2-5.55 13-9.06 4.79-3.52 10.02-7.57 11.61-9 1.59-1.44 6.47-7.11 10.86-12.61 4.38-5.5 9.1-12.25 10.49-15 1.39-2.75 2.86-5.23 3.27-5.5 0.4-0.28 2.77-4.55 5.24-9.5 2.57-5.12 5.27-12.45 6.26-17 1.2-5.49 1.54-9.73 1.08-13.5-0.37-3.05-1.66-6.96-2.88-8.76-1.22-1.8-4.01-4.13-6.21-5.19-2.2-1.05-6.03-2.14-8.5-2.42-2.48-0.28-7.88 0.16-12 0.98zm127.5 2.54c-2.2 1.18-4.49 2.65-5.09 3.25-0.6 0.61-2.12 3.12-3.39 5.6-2.05 4.02-2.23 5.42-1.7 13 0.33 4.67 1.47 10.75 2.53 13.5 1.07 2.75 3.71 8.82 5.86 13.5 2.16 4.67 5.82 11.42 8.15 15 2.32 3.57 7 9.65 10.4 13.5 3.39 3.85 9.49 9.92 13.54 13.5 4.05 3.57 10.14 8.43 13.53 10.8 3.39 2.36 10.33 6.52 15.42 9.25 5.09 2.72 11.84 5.59 15 6.36 3.16 0.78 8 1.68 10.75 2 3.07 0.36 6.93 0.03 10-0.84 3.5-1 6.12-2.64 8.75-5.5 2.06-2.24 4.26-5.31 4.88-6.82 0.62-1.51 1.11-6.13 1.09-10.25-0.03-5.35-0.8-9.79-2.69-15.5-1.46-4.4-4.34-11.15-6.4-15-2.06-3.85-5.73-9.7-8.17-13-2.43-3.3-7.17-9.15-10.52-13-3.36-3.85-9.67-9.98-14.02-13.62-4.36-3.64-11.07-8.64-14.92-11.12-3.85-2.48-10.6-6.31-15-8.52-4.4-2.2-11.15-4.97-15-6.15-3.88-1.18-9.67-2.12-13-2.11-4.21 0.01-7.19 0.65-10 2.17zm-62.25 23.6c-1.79 0.96-5.32 3.77-7.86 6.25-3.09 3.01-6.02 7.48-8.86 13.5-2.33 4.95-5.42 13.27-6.88 18.5-1.45 5.22-3.29 14-4.09 19.5-0.9 6.21-1.33 15.31-1.13 24 0.18 8.06 1.02 17.18 1.97 21.5 0.9 4.12 2.6 10.42 3.76 14 1.17 3.57 4.08 10.44 6.48 15.25 3.18 6.38 5.6 9.77 8.93 12.5 2.51 2.06 6.23 4.5 8.25 5.43 2.41 1.1 5.4 1.54 8.68 1.28 3.38-0.26 6.3-1.29 9-3.17 2.2-1.52 5.03-3.9 6.29-5.28 1.26-1.38 3.83-4.99 5.7-8.01 1.87-3.03 4.8-9.33 6.51-14 1.71-4.68 3.79-11.43 4.62-15 0.84-3.58 1.83-9.2 2.2-12.5 0.37-3.3 0.66-11.63 0.63-18.5-0.02-7.5-0.78-16.7-1.89-23-1.02-5.78-3.08-14.33-4.58-19-1.5-4.68-3.32-9.85-4.05-11.5-0.73-1.65-2.92-5.48-4.87-8.5-1.95-3.03-4.55-6.51-5.8-7.75-1.24-1.24-4.4-3.39-7.01-4.77-2.84-1.51-6.36-2.52-8.75-2.51-2.2 0.01-5.46 0.81-7.25 1.78zm-563.25 91.27c-4.13 1.08-10.88 3.66-15 5.72-5.5 2.75-9.8 6.02-16.11 12.25-7.04 6.95-9.37 10.07-12.71 17.01-2.26 4.67-4.87 11.42-5.82 15-1.13 4.28-1.71 10.25-1.7 17.5 0.01 7.37 0.6 13.14 1.78 17.5 0.98 3.57 2.89 8.97 4.26 12 1.36 3.02 4.4 7.97 6.74 11 2.35 3.02 6.74 7.75 9.77 10.5 3.02 2.75 7.93 6.46 10.89 8.23 2.97 1.78 7.87 4.17 10.9 5.31 3.02 1.14 6.4 2.27 7.5 2.51 1.1 0.24 4.7 0.94 8 1.54 3.4 0.63 9.25 0.82 13.5 0.46 4.12-0.36 9.52-1.11 12-1.67 2.47-0.56 7.65-2.47 11.5-4.24 3.85-1.77 9.7-5.29 13-7.82 3.3-2.53 6.91-5.66 8.03-6.96 1.11-1.3 3.87-4.84 6.13-7.86 2.27-3.03 5.01-7.3 6.11-9.5 1.1-2.2 2.97-7.15 4.15-11 1.17-3.85 2.41-10.6 2.74-15 0.35-4.7 0.09-11.09-0.64-15.5-0.68-4.13-2.52-10.88-4.07-15-1.56-4.13-4.49-9.98-6.52-13-2.02-3.03-5.98-7.89-8.8-10.82-2.82-2.93-7.16-6.69-9.63-8.37-2.48-1.68-6.3-3.96-8.5-5.07-2.2-1.12-5.35-2.45-7-2.96-1.65-0.51-5.48-1.53-8.5-2.26-3.03-0.73-9.78-1.35-15-1.39-6.44-0.05-11.92 0.56-17 1.89zm250.5 4.58c-4.95 0.62-11.25 1.45-14 1.83-2.75 0.39-9.5 1.61-15 2.72-5.5 1.12-15.85 3.83-23 6.04-7.15 2.21-18.4 6.66-25 9.89-6.7 3.29-14.87 8.24-18.5 11.21-3.58 2.92-8.15 7.54-10.18 10.26-2.02 2.72-4.59 6.97-5.71 9.45-1.12 2.47-2.33 6.52-2.68 9-0.36 2.47-0.16 6.97 0.45 10 0.72 3.6 2.72 7.92 5.78 12.5 2.56 3.85 6.5 8.75 8.75 10.89 2.25 2.14 6.11 5.27 8.59 6.96 2.47 1.68 9.34 5.22 15.25 7.86 5.91 2.63 15.36 6.34 21 8.23 5.64 1.89 14.75 4.56 20.25 5.94 5.5 1.37 14.72 3.22 20.5 4.11 5.77 0.89 15.9 1.96 22.5 2.37 6.6 0.41 17.62 0.64 24.5 0.51 6.87-0.13 15.65-0.51 19.5-0.84 3.85-0.34 7.9-0.82 9-1.06 1.1-0.25 3.8-0.66 6-0.92 2.2-0.27 5.35-0.75 7-1.07 1.65-0.32 5.47-1.25 8.5-2.07 3.02-0.82 6.4-1.68 7.5-1.91 1.1-0.23 6.72-1.99 12.5-3.92 5.77-1.92 14.1-5.25 18.5-7.41 4.4-2.15 10.92-5.85 14.5-8.23 3.57-2.37 9.02-6.82 12.1-9.88 3.07-3.06 6.73-7.81 8.11-10.56 1.38-2.75 3.09-7.48 3.79-10.5 0.72-3.12 1-7.66 0.66-10.5-0.34-2.75-2.18-8.15-4.09-12-1.91-3.85-5.41-8.97-7.77-11.39-2.37-2.41-6.78-6.26-9.8-8.56-3.03-2.3-8.43-5.77-12-7.72-3.58-1.94-11.68-5.58-18-8.08-6.33-2.5-16.68-5.68-23-7.07-6.33-1.38-15.33-3.21-20-4.07-4.68-0.86-14.58-2.05-22-2.65-7.43-0.59-18.45-0.95-24.5-0.79-6.05 0.16-15.05 0.8-20 1.43zm274.5 111.33c-1.93 0.39-4.4 1.27-5.5 1.97-1.1 0.7-3.15 2.92-4.55 4.93-1.41 2.02-3.98 6.82-5.73 10.67-1.74 3.85-3.62 9.25-4.18 12-0.55 2.75-1.3 10.62-1.66 17.5-0.53 9.91-0.31 14.26 1.07 21 0.95 4.67 2.42 10.52 3.26 13 0.84 2.47 2.49 6.5 3.66 8.95 1.17 2.44 3.93 6.34 6.13 8.65 2.84 2.99 5.16 4.42 8 4.95 3.07 0.56 4.81 0.29 7.47-1.16 1.91-1.04 5.06-4 7-6.57 1.94-2.57 4.73-7.75 6.19-11.5 1.46-3.75 3.43-10.42 4.37-14.82 1.08-5.04 1.71-12.44 1.7-20 0-8.03-0.58-14.32-1.74-19-0.96-3.85-3.06-9.93-4.66-13.5-1.61-3.58-4.14-8.22-5.62-10.32-1.49-2.1-4.51-4.68-6.71-5.74-2.2-1.05-4.23-1.87-4.5-1.81-0.28 0.05-2.08 0.42-4 0.8zm-633 27.03c-2.48 0.47-5.85 1.11-7.5 1.43-1.65 0.31-4.35 0.85-6 1.21-1.65 0.35-6.15 1.9-10 3.42-3.85 1.53-11.28 4.84-16.5 7.35-5.23 2.52-11.75 5.86-14.5 7.43-2.75 1.58-9.05 5.54-14 8.81-4.95 3.27-12.83 8.83-17.5 12.37-4.68 3.53-14.83 12.74-22.58 20.47-8 7.99-17.95 19.23-23.05 26.05-4.94 6.6-11.93 16.95-15.53 23-3.61 6.05-7.25 12.35-8.11 14-0.85 1.65-2.29 5.02-3.21 7.5-0.91 2.47-3.2 8.89-5.09 14.25-1.89 5.36-3.9 13.01-4.48 17-0.57 3.99-0.94 9.95-0.83 13.25 0.12 3.3 0.75 8.02 1.4 10.5 0.65 2.47 2.1 6.3 3.23 8.5 1.12 2.2 3.67 5.69 5.65 7.75 1.98 2.06 5.74 4.8 8.35 6.09 2.61 1.29 7 2.94 9.75 3.66 3.45 0.91 8.41 1.14 16 0.75 7.54-0.39 13.52-1.35 19-3.05 4.4-1.37 11.37-3.83 15.5-5.48 4.12-1.64 11.55-5.15 16.5-7.8 4.95-2.65 14.17-8.27 20.5-12.51 6.32-4.23 15.32-10.95 20-14.94 4.67-3.98 12.91-11.56 18.31-16.85 5.39-5.29 12.37-12.77 15.5-16.62 3.13-3.85 5.95-7.23 6.27-7.5 0.32-0.28 3.07-4.1 6.11-8.5 3.04-4.4 7.9-12.05 10.79-17 2.9-4.95 7.63-13.73 10.51-19.5 2.88-5.78 6.41-13.88 7.84-18 1.43-4.13 3.36-12.45 4.29-18.5 1.37-8.81 1.5-12.49 0.68-18.5-0.56-4.13-1.98-9.53-3.15-12-1.17-2.48-3.48-6.19-5.14-8.25-1.87-2.33-5.56-4.96-9.76-6.95-5.82-2.76-7.99-3.23-15.75-3.45-4.95-0.13-11.03 0.14-13.5 0.61zm232 2.21c-3.03 0.47-8.31 2.19-11.75 3.84-4.1 1.96-7.54 4.56-10 7.55-2.06 2.5-4.57 6.66-5.56 9.25-1 2.58-2.07 8.06-2.37 12.19-0.35 4.81 0.03 10.82 1.07 16.75 0.88 5.09 2.32 11.39 3.19 14 0.87 2.61 2.72 7.67 4.12 11.25 1.4 3.57 4.57 10.55 7.05 15.5 2.47 4.95 6.41 12.15 8.74 16 2.34 3.85 6.05 9.7 8.25 13 2.19 3.3 6.78 9.37 10.19 13.5 3.41 4.12 7.58 9.07 9.27 11 1.7 1.92 5.83 6.42 9.18 10 3.36 3.57 11.06 10.9 17.11 16.29 6.06 5.38 15.96 13.09 22.01 17.12 6.05 4.04 13.02 8.53 15.5 9.98 2.47 1.45 8.32 4.59 13 6.99 4.67 2.4 13.22 5.95 19 7.9 5.77 1.95 14.32 4.07 19 4.72 4.83 0.67 11.52 0.88 15.5 0.5 3.85-0.37 9.25-1.51 12-2.54 2.75-1.02 7.02-3.62 9.5-5.76 2.47-2.15 5.71-6.11 7.19-8.81 1.48-2.69 3.39-7.59 4.25-10.89 0.86-3.3 1.57-8.25 1.56-11 0-2.75-0.66-9.05-1.47-14-0.8-4.95-2.56-12.38-3.91-16.5-1.36-4.13-3.92-10.88-5.69-15-1.77-4.13-4.34-9.53-5.7-12-1.37-2.48-4.76-8.33-7.54-13-2.78-4.68-7.51-11.88-10.51-16-3-4.13-8.15-10.65-11.45-14.5-3.29-3.85-11.21-12.11-17.61-18.36-6.39-6.25-15.67-14.4-20.62-18.1-4.95-3.71-11.7-8.57-15-10.82-3.3-2.24-11.4-7.05-18-10.69-6.6-3.64-16.5-8.44-22-10.66-5.5-2.22-10.9-4.24-12-4.49-1.1-0.25-2.23-0.64-2.5-0.86-0.28-0.23-2.75-0.87-5.5-1.43-2.75-0.57-6.13-1.27-7.5-1.57-1.38-0.31-5.2-0.7-8.5-0.87-3.3-0.18-8.48 0.05-11.5 0.52zm300.02 9.52c-1.91 0.99-4.51 3.38-5.78 5.31-1.67 2.55-2.29 4.92-2.27 8.75 0.02 2.89 0.93 7.95 2.03 11.25 1.1 3.3 3.41 8.36 5.13 11.25 1.72 2.89 5.02 7.72 7.35 10.75 2.32 3.02 6.42 7.71 9.12 10.4 2.69 2.7 7.37 6.81 10.4 9.15 3.02 2.33 10 6.43 15.5 9.09 8.1 3.93 11.23 4.92 16.5 5.23 4.63 0.27 7.44-0.09 9.75-1.25 1.79-0.89 3.99-3.08 4.88-4.87 1.2-2.39 1.5-4.85 1.11-9.25-0.29-3.3-1.8-9.38-3.34-13.5-1.55-4.13-5.28-11.1-8.28-15.5-3-4.4-8.19-10.87-11.54-14.37-3.34-3.5-9.23-8.59-13.08-11.31-3.85-2.72-10.38-6.54-14.5-8.49-5.1-2.41-9.42-3.69-13.5-4-4.52-0.34-6.86-0.01-9.48 1.36zm189.98 1.74c-1.93 0.7-5.53 2.3-8 3.55-2.48 1.24-7.43 4.32-11 6.84-3.58 2.52-9.37 7.3-12.88 10.63-3.51 3.33-8.03 8.3-10.05 11.05-2.02 2.75-5.05 7.47-6.72 10.5-1.68 3.02-4.02 8.09-5.2 11.25-1.18 3.16-2.4 7.89-2.71 10.5-0.38 3.18-0.05 5.99 1 8.5 0.86 2.06 3.02 4.68 4.81 5.81 2.62 1.67 4.41 1.98 9.25 1.64 3.3-0.23 8.7-1.51 12-2.83 3.3-1.32 9.52-4.42 13.82-6.88 4.7-2.7 11.08-7.68 16-12.5 4.5-4.41 9.53-9.72 11.18-11.8 1.65-2.08 4.71-6.58 6.79-9.99 2.09-3.41 4.51-8.68 5.37-11.7 0.87-3.03 1.53-7.86 1.46-10.75-0.07-2.89-0.8-6.6-1.62-8.25-0.83-1.65-2.96-3.9-4.75-5-2.35-1.44-4.92-1.97-9.25-1.93-3.3 0.04-7.58 0.65-9.5 1.36zm-193.66 83.69c-4.86 0.35-11.77 1.44-15.34 2.42-3.58 0.97-9.2 2.97-12.5 4.44-3.3 1.47-7.63 4.21-9.63 6.1-2 1.88-4.2 5.22-4.89 7.42-1.13 3.57-1.04 4.48 0.87 8.5 1.47 3.11 3.76 5.6 7.39 8.07 2.89 1.96 7.51 4.42 10.26 5.45 2.75 1.04 5.45 2.01 6 2.16 0.55 0.15 3.92 1.03 7.5 1.96 4.22 1.1 10.71 1.72 18.5 1.78 6.6 0.04 13.8-0.27 16-0.69 2.2-0.42 6.47-1.48 9.5-2.36 3.02-0.88 7.97-2.68 11-4.02 3.02-1.33 7.63-3.87 10.24-5.64 2.85-1.93 5.15-4.4 5.77-6.21 0.56-1.65 1.02-4.24 1.01-5.75-0.01-1.51-0.64-3.99-1.39-5.5-0.76-1.51-2.9-3.94-4.75-5.39-1.86-1.46-6.31-4.01-9.88-5.69-3.58-1.67-8.75-3.56-11.5-4.2-2.75-0.63-5.68-1.3-6.5-1.47-0.83-0.17-3.75-0.58-6.5-0.92-2.75-0.34-6.65-0.72-8.66-0.86-2.01-0.13-7.64 0.05-12.5 0.4zm97.16 0.36c-2.2 0.83-5.58 2.8-7.5 4.37-1.93 1.58-4.62 5.07-5.98 7.76-1.94 3.81-2.49 6.43-2.5 11.89-0.02 5.72 0.49 8 2.79 12.5 1.64 3.21 4.55 6.84 7 8.72 2.31 1.77 5.76 3.68 7.69 4.25 1.92 0.57 5.97 1 9 0.95 3.02-0.04 6.94-0.6 8.71-1.25 1.77-0.64 5.14-2.77 7.5-4.72 2.36-1.95 5.4-5.78 6.75-8.5 1.86-3.75 2.45-6.52 2.43-11.45q-0.02-6.5-2.05-11c-1.12-2.48-3.56-5.97-5.44-7.78-1.87-1.8-4.98-4.03-6.9-4.95-1.95-0.94-6.59-1.82-10.5-1.99-4.46-0.19-8.45 0.25-11 1.2zm101 0.69c-3.85 0.37-9.48 1.21-12.5 1.86-3.03 0.65-7.98 2.1-11 3.22-3.03 1.12-8.2 3.58-11.5 5.47-3.3 1.89-6.88 4.64-7.96 6.11-1.15 1.57-2.09 4.72-2.28 7.67-0.24 3.72 0.14 5.51 1.46 7 0.98 1.1 3.47 3.24 5.53 4.75 2.06 1.51 5.66 3.45 8 4.31 2.34 0.86 4.7 1.94 5.25 2.4 0.55 0.47 3.7 1.74 7 2.83 3.3 1.09 10.27 2.5 15.5 3.14 5.22 0.64 12.42 0.91 16 0.59 3.57-0.31 8.3-0.81 10.5-1.1 2.2-0.29 5.57-1.02 7.5-1.6 1.92-0.59 5.3-1.7 7.5-2.46 2.2-0.77 6.21-2.63 8.92-4.13 2.7-1.5 6.22-4.31 7.81-6.23 1.91-2.31 2.99-4.86 3.18-7.5 0.17-2.31-0.43-5.48-1.42-7.5-0.94-1.93-3.46-4.9-5.6-6.61-2.14-1.72-5.24-3.81-6.89-4.66-1.65-0.85-5.7-2.44-9-3.54-3.3-1.11-7.35-2.31-9-2.69-1.65-0.37-4.8-0.87-7-1.11-2.2-0.24-6.03-0.54-8.5-0.66-2.48-0.13-7.65 0.07-11.5 0.44zm-144.5 53.72c-3.03 0.98-8.88 3.49-13 5.58-4.13 2.09-9.98 5.7-13 8.02-3.03 2.32-7.94 6.87-10.92 10.11-2.98 3.25-7.44 8.6-9.9 11.9-2.46 3.3-5.84 8.92-7.51 12.5-2.58 5.51-3.05 7.74-3.11 14.67-0.05 6.79 0.29 8.66 2.03 11 1.15 1.56 3.4 3.5 5 4.33 1.65 0.85 5.29 1.46 8.41 1.4 3.02-0.05 7.3-0.67 9.5-1.37 2.2-0.7 7.79-3.58 12.41-6.4 4.63-2.82 11.38-7.63 15-10.68 3.63-3.05 8.76-8.23 11.42-11.5 2.65-3.27 6.58-8.88 8.72-12.45 2.15-3.58 4.82-9.09 5.93-12.25 1.11-3.16 2.32-7.66 2.68-10 0.45-2.9 0.14-5.68-0.97-8.75-1.08-2.95-2.68-5.1-4.67-6.25-1.78-1.03-4.97-1.73-7.77-1.7-2.61 0.03-7.23 0.86-10.25 1.84zm90.1 0.34c-1.33 0.7-3.22 2.39-4.21 3.77-0.99 1.37-2.02 4.3-2.27 6.5-0.26 2.2 0.33 7.15 1.3 11 0.98 3.85 3.48 10.37 5.56 14.5 2.07 4.12 5.91 10.2 8.53 13.5 2.62 3.3 6.98 8.02 9.69 10.5 2.71 2.47 6.88 6.07 9.26 8 2.38 1.92 6.29 4.74 8.68 6.25 2.4 1.51 6.5 3.6 9.11 4.63 2.61 1.03 6.77 2.19 9.25 2.58 2.5 0.4 6.61 0.23 9.25-0.37 3.47-0.8 5.41-1.96 7.2-4.34 1.35-1.79 2.72-4.83 3.06-6.75 0.33-1.93 0.08-6.43-0.55-10-0.64-3.58-2.75-9.65-4.7-13.5-1.94-3.85-5.14-9.03-7.11-11.5-1.96-2.48-6.74-7.68-10.61-11.56-3.87-3.89-8.84-8.45-11.04-10.14-2.2-1.68-6.93-4.69-10.5-6.67-3.58-1.98-9.2-4.42-12.5-5.42-3.3-1.01-8.03-1.92-10.5-2.04-2.48-0.11-5.58 0.36-6.9 1.06zm-43.6 16.88c-1.65 1.17-4.46 4.21-6.24 6.76-1.78 2.54-4.33 7.33-5.68 10.63-1.34 3.3-3.16 9.82-4.04 14.5-0.88 4.67-1.75 12.1-1.92 16.5-0.17 4.4 0.25 12.27 0.95 17.5 0.78 5.87 2.45 12.37 4.36 17 1.71 4.12 4.03 8.85 5.18 10.5 1.14 1.65 3.83 4.24 5.98 5.75 2.35 1.65 5.21 2.74 7.16 2.73 1.79-0.01 5.05-1.03 7.25-2.27 2.32-1.31 5.53-4.55 7.66-7.73 2.02-3.02 4.62-8.18 5.78-11.48 1.17-3.3 2.78-10.05 3.58-15 0.81-4.95 1.48-12.6 1.49-17 0.02-5.39-0.81-11.27-2.54-18-1.41-5.5-4.29-13.6-6.4-18-2.21-4.62-5.36-9.37-7.45-11.25-2.88-2.59-4.49-3.25-7.87-3.25-2.73-0.01-5.33 0.75-7.25 2.11z"/>
	</g>
</svg>