<svg version="1.2" xmlns="http://www.w3.org/2000/svg" viewBox="0 0 1104 1144" width="1104" height="1144"><style>.a{fill:#fff}</style><path fill-rule="evenodd" class="a" d="m438.5 0.5c4.9 0.2 12.1 1.1 16 2 3.8 0.9 10.1 3.1 14 4.9 3.8 1.8 9.6 4.9 12.7 6.9 3.2 2 9 6.7 12.9 10.4 3.9 3.8 9.2 9.5 11.6 12.8 2.5 3.3 6 8.9 7.8 12.5 1.8 3.6 4.4 9.6 5.8 13.5 1.4 4 3 11.6 3.7 17.5 0.6 5.9 0.9 14.2 0.5 19-0.4 5.1-1.9 12-3.6 17.2-1.6 4.9-4.3 11.6-6 15-1.7 3.5-5.1 9-7.4 12.3-2.4 3.3-7.2 8.8-10.7 12.2-3.4 3.3-9.5 8.2-13.3 10.7-3.9 2.6-10.4 6-14.5 7.8-4.1 1.7-11.8 4-17 5-7.7 1.6-11.8 1.9-21.5 1.4-6.6-0.3-14.7-1.2-18-2.1-3.3-0.9-9.6-3.3-14-5.4-4.4-2-10.9-5.7-14.5-8.1-3.6-2.4-8.7-6.4-11.4-9-2.6-2.5-7.3-7.9-10.4-12-3.1-4.1-7-10.7-8.8-14.5-1.8-3.9-4.2-10.4-5.4-14.5-1.3-4.6-2.4-11.7-2.7-18.5-0.4-6.6-0.1-14.4 0.6-19.5 0.7-4.7 2.2-11.2 3.3-14.5 1.1-3.3 4.1-10 6.7-15 2.9-5.7 7.3-12 12.2-17.5 4.1-4.7 10.2-10.4 13.5-12.7 3.2-2.4 9.9-6.3 14.9-8.7 4.9-2.5 11.9-5.2 15.5-6.1 3.6-0.9 9.2-2.1 12.5-2.5 3.3-0.5 10-0.7 15-0.5zm341.5 52c6.4 0.2 14.2 1.1 17.5 2 3.3 0.8 8.9 2.9 12.5 4.6 3.6 1.7 9 4.9 12 7.2 3 2.2 7.9 6.6 10.9 9.6 3 3.1 7.9 9.4 10.9 14.1 3.1 4.7 7.1 11.9 9 16 1.8 4.1 4.9 12.2 6.7 18 1.9 5.8 4.3 15.2 5.4 21 1.1 5.8 2.8 15.9 3.7 22.5 0.9 7.2 1.7 21.6 1.9 36 0.2 17.1-0.2 30.2-1.5 45.5-1 11.8-2.5 27.3-3.5 34.5-0.9 7.1-2.5 18.2-3.6 24.5-1.1 6.3-3 16-4.2 21.5-1.2 5.5-2.2 12.7-2.2 21.8l7 1.5c3.8 0.8 9.2 2.4 12 3.6 2.7 1.2 8.1 4.3 12 6.8 3.8 2.6 8.3 5.9 10 7.3 1.6 1.5 3.9 3.6 5 4.6 1.4 1.3 5.9 2.5 14 3.9 6.6 1.2 18.2 3.7 25.7 5.6 7.6 1.8 20.9 5.9 29.5 9 8.7 3.1 20.3 7.4 25.8 9.6 5.5 2.2 15.6 6.9 22.5 10.4 6.9 3.5 18.6 10.3 26 15.2 7.4 4.9 17.3 12.4 21.9 16.8 4.6 4.3 11 11 14.1 14.9 3.2 3.8 7.9 10.6 10.5 15 2.6 4.4 6 11.8 7.6 16.5 1.6 4.7 3.4 12.3 4 17 0.7 4.9 0.9 13.3 0.6 20-0.5 9.1-1.2 13.5-3.7 21-1.7 5.2-5.2 13.5-7.8 18.4-2.6 4.8-8 13.2-11.9 18.5-4 5.3-11.9 14.3-17.5 20-5.7 5.7-15.3 14.5-21.3 19.5-6.1 5.1-17.1 13.4-24.5 18.6-7.4 5.1-17.3 11.7-22 14.6-4.7 2.9-12.3 7.5-17 10.2-4.7 2.7-15.7 8.5-24.5 13-8.8 4.4-22.5 10.9-30.5 14.5-8 3.6-19.7 8.5-26 11-6.3 2.4-14 5.7-17 7.2-3 1.5-7 4-8.9 5.4-1.8 1.4-3.9 3.7-4.6 5.1-0.7 1.4-2.5 6.1-4 10.5-1.5 4.4-5.9 15-9.7 23.5-3.9 8.5-8.8 19.3-11 24-2.1 4.7-6.2 12.5-9 17.5-2.8 4.9-8.9 14.5-13.5 21.2-4.5 6.8-8.3 12.5-8.3 12.8 0 0.3 3.6 9.8 7.9 21.2 4.4 11.5 9.4 25.1 11.1 30.3 1.7 5.2 5.6 18 8.6 28.5 3 10.4 7 26.6 8.9 36 1.9 9.3 4.6 26 6.1 37 2.4 17.3 2.8 23.4 2.9 45 0 22.4-0.2 26.1-2.3 36-1.3 6-3.5 14.8-4.9 19.5-1.4 4.7-4.1 11.9-6.1 16-2.9 6-5.7 9.6-14.2 18.1-8.1 8.3-12 11.3-17 13.7-3.6 1.7-9.9 4-14 5.1-5.6 1.6-10.5 2.1-19 2.2-6.3 0-13.8-0.5-16.5-1-2.8-0.5-9.3-2.2-14.5-3.6-5.2-1.5-12.8-4-16.8-5.6-3.9-1.6-13.6-6.1-21.5-10-7.8-3.9-17.8-9.4-22.2-12.2-4.4-2.7-10.9-6.9-14.5-9.2-3.6-2.4-10.6-7.1-15.5-10.6-5-3.4-12.2-8.7-16-11.8-3.9-3-10.6-8.7-15-12.6-4.4-3.9-12.1-10.7-17-15-5-4.4-13.9-12.7-20-18.5-6-5.8-12.3-11.9-14-13.5-1.7-1.7-11.3-11.9-40-42.5l-10 9.8c-5.5 5.3-14.5 13.8-20 18.8-5.5 4.9-16.3 13.7-24 19.5-7.7 5.7-16.9 12.3-20.5 14.7-3.6 2.4-11.2 6.7-17 9.6-5.8 3-14.1 6.6-18.5 8-4.4 1.5-13.2 4.1-19.5 5.8-7.8 2-14.9 3.1-22 3.5-7.6 0.4-12.6 0-18-1.1-4.1-0.9-9.8-2.7-12.5-3.9-2.8-1.3-7.7-4.1-11-6.3-3.3-2.1-8.2-6.2-11-8.9-2.7-2.8-6.6-7.3-8.4-10-1.9-2.8-6.1-10.4-9.3-17-3.5-7.4-6.9-16.4-8.8-23.5-1.6-6.3-3.6-15.3-4.4-20-0.8-4.7-1.7-10.1-2-12-0.3-1.9-0.8-7.1-1.2-11.5-0.4-4.4-1.1-8.8-1.5-9.8-0.8-1.5-2.1-1.6-13.7-1.1-8 0.4-16 0.2-21.7-0.6-5-0.6-12.8-2.3-17.5-3.6-4.7-1.4-12.3-4.4-17-6.7-4.7-2.3-10.9-6.4-13.8-9.2-3-2.8-6.9-7.5-8.8-10.5-1.8-3-4.5-8.9-5.9-13-1.7-5-2.8-10.7-3.2-17-0.4-6.9-0.1-12.1 1.2-19 0.9-5.2 3-13.3 4.5-18 1.6-4.7 4.5-13 6.5-18.5 2-5.5 4.8-12.9 6.2-16.5 1.4-3.6 5.5-11.8 8.9-18.3 3.5-6.4 6.4-12.2 6.4-12.7 0-0.6-0.2-1-0.5-1-0.3 0-8.3-1.6-17.8-3.6-9.4-2-24-5.3-32.2-7.3-8.3-2.1-22.4-6.2-31.5-9.1-9.1-2.8-22.1-7.4-29-10.2-6.9-2.7-17.2-7-23-9.6-5.8-2.5-16.4-7.9-23.5-12-7.2-4-18-11.1-24-15.7-6.1-4.6-14.7-12.1-19.1-16.7-4.5-4.6-10.5-11.9-13.3-16.3-2.9-4.4-6.6-11.6-8.3-16-1.7-4.4-3.6-11.4-4.4-15.5-0.7-4.1-1.3-10.4-1.4-14 0-3.6 0.4-9.2 1-12.5 0.5-3.3 2.1-9.6 3.6-14 1.5-4.4 4.2-11 6-14.8 1.9-3.7 6.4-11.1 10-16.5 3.7-5.3 9.6-12.9 13.2-16.7 3.6-3.9 11.1-11.2 16.6-16.4 5.6-5.2 16.2-14 23.6-19.6 7.4-5.5 17.1-12.6 21.5-15.6 4.4-3 13.6-8.9 20.5-13.1 6.9-4.2 15.6-9.1 19.5-11 3.8-1.9 9.9-5.1 13.5-7.1 3.6-2 15.5-7.8 26.5-13 11-5.2 24.7-11.3 30.5-13.7 5.8-2.3 12.8-5.4 15.7-6.8 4.9-2.5 5.2-2.9 4.7-5.7-0.4-1.7-2.6-11.1-5.1-21-2.4-9.9-5.7-24.5-7.3-32.5-1.6-8-3.3-18.1-3.9-22.5-0.6-4.4-1.6-13-2.2-19-0.6-6.1-1.1-19.3-1-29.5 0-10.2 0.7-24.6 1.5-32 0.9-7.4 2.8-18.2 4.4-24 1.6-5.8 4.6-13.9 6.6-18 2.1-4.1 5.1-9.3 6.6-11.5 1.6-2.2 4.4-5.6 6.2-7.5 1.8-2 5.1-5 7.3-6.7 2.2-1.7 7.1-4.6 11-6.6 4.2-2.1 10.4-4.2 15.5-5.1 4.7-0.9 11.2-1.6 14.5-1.6 3.3 0 10 0.7 15 1.5 4.9 0.9 12.1 2.5 16 3.7 3.8 1.1 10.4 3.4 14.5 5 4.1 1.6 9.1 3.7 11 4.6 1.9 0.9 10 5.2 18 9.5 8 4.4 19.4 11.2 25.5 15.1 6 4 17.5 12.1 25.5 18.1 8 5.9 18.1 13.8 22.5 17.4 4.4 3.6 11.8 9.9 16.5 14 4.7 4.1 15.8 14.3 24.7 22.8 10.2 9.6 17 15.2 18 15 1-0.1 3.2-2.7 5-5.7 1.7-3 7.1-11.9 12-19.8 4.8-7.9 14.2-22.5 20.8-32.5 6.7-10 17.9-26.3 25-36.2 7.1-9.9 17.8-24.3 23.9-32 6-7.7 13.2-16.7 15.9-20 2.8-3.3 8.1-9.6 12-14 3.9-4.4 14.5-15.4 23.6-24.5 9.1-9.1 21.8-21 28.1-26.4 6.3-5.5 16.7-13.8 23-18.5 6.3-4.7 16.1-11.4 21.7-14.8 5.7-3.5 14.7-8.5 20-11.3 5.4-2.7 13.8-6.5 18.8-8.4 4.9-1.9 12.6-4.3 17-5.4 4.4-1.2 9.3-2.3 11-2.5 1.6-0.3 8.2-0.4 14.5-0.2zm-56.7 73.7c-3.7 1.1-10 3.5-13.8 5.4-3.9 1.9-11.3 6.7-16.6 10.7-5.3 4-11.8 9.2-14.5 11.6-2.7 2.4-9.3 8.4-14.8 13.5-5.4 5-14.9 14.7-21.1 21.6-6.3 6.9-16.4 18.6-22.6 26-6.2 7.4-17 21.1-23.9 30.5-7 9.3-21.8 30.5-32.8 47-11 16.5-22.7 34.5-26.1 40l-6.2 10c5.1 0.5 11 0.2 16.3-0.4 5.4-0.6 15.8-1.1 23-1.1 7.3 0 18.7 0.5 25.3 1 6.6 0.6 16 1.7 21 2.5 4.9 0.9 16.2 3.1 25 5.1 8.8 2 17 4 18.2 4.5 1.3 0.5 5.8 1.1 10 1.4 4.3 0.2 22.9 0.7 41.3 1 18.4 0.3 34.6 0.7 36 1 1.4 0.2 7.4 0.5 13.5 0.6 6 0.1 11.4 0 12-0.3 0.5-0.3 1.3-2.1 1.7-3.9 0.4-1.9 1.8-8.6 3.2-14.9 1.3-6.3 3.4-17.8 4.5-25.5 1.2-7.7 2.3-15.4 2.6-17 0.2-1.7 0.7-6.8 1.1-11.5 0.3-4.7 0.8-8.7 0.9-9 0.2-0.3 0.7-6.8 1.2-14.5 0.4-7.7 0.8-24.8 0.7-38-0.1-16.3-0.6-28-1.8-36.5-0.9-6.9-2.5-16.1-3.6-20.5-1.1-4.4-3.2-10.9-4.6-14.5-1.5-3.6-4.1-8.8-5.9-11.5-1.8-2.8-4.8-6.5-6.6-8.4-1.9-1.9-5.9-4.5-8.9-5.9-4.1-1.8-7.6-2.5-14-2.7-4.7-0.2-9.5-0.1-10.7 0.2-1.2 0.4-5.3 1.5-9 2.5zm-433.1 137.1c-1.7 0.9-4.7 3-6.5 4.5-1.7 1.6-4.6 5.1-6.4 7.8-1.8 2.7-4.1 7.6-5.3 10.9-1.1 3.3-2.8 10.9-3.6 17-1.2 8.2-1.5 14.8-1.1 26 0.3 8.2 1.3 20.8 2.1 28 0.9 7.1 2.3 17.5 3.2 23 0.9 5.5 2.7 14.7 4.1 20.5 1.3 5.8 2.8 12.2 3.3 14.2 0.6 2.3 1.6 3.8 2.5 3.8 0.8 0 9.3-2.4 18.7-5.3 9.5-3 25.6-7.3 35.8-9.7 10.2-2.3 23.4-5.5 29.5-7 6-1.6 16.6-4.4 23.5-6.3 7.5-2 17.9-5.9 26-9.6 7.4-3.5 14.8-7.1 16.5-8.1 1.6-0.9 8.2-4 14.5-6.8 6.3-2.8 12.3-5.3 13.2-5.6 1.4-0.5-0.9-3.3-11-13-7-6.7-15.9-15.2-19.7-18.8-3.9-3.6-11.1-10.1-16-14.5-5-4.3-11.9-10.3-15.5-13.3-3.6-2.9-12.8-9.5-20.5-14.6-7.7-5.1-19.6-12-26.5-15.2-6.9-3.3-15.2-6.9-18.5-8-3.3-1.2-8.9-2.5-12.5-3.1-3.6-0.6-8.5-1.1-11-1-2.5 0-7 0.6-10 1.3-3 0.7-7 2-8.8 2.9zm237.8 128.8c-6.9 1.1-17.2 3.1-23 4.5-5.8 1.4-14.8 4-20 5.6-5.2 1.7-17.2 6.7-26.5 11.2-10 4.8-22.6 12-30.5 17.3-7.4 4.9-16.9 11.8-21 15.2-4.1 3.4-12 11.1-17.5 16.9-5.5 5.9-11.9 13-14.1 15.7-2.3 2.8-8.1 10.8-12.9 18-4.7 7.1-12.1 20-16.4 28.5-4.2 8.5-9.4 20.7-11.4 27-2 6.3-5 17.6-6.6 25-1.7 7.4-3.5 18.7-4.2 25-0.7 7.2-1 18.6-0.6 30.5 0.3 10.4 1.3 23.3 2.1 28.5 0.8 5.2 2.6 14.2 4 20 1.4 5.8 4.4 15.9 6.7 22.5 2.3 6.6 7 17.8 10.4 25 3.5 7.1 9.3 17.5 13 23 3.7 5.5 10.1 14.2 14.3 19.4 4.3 5.2 12.6 14.3 18.7 20.2 6 5.9 13.5 12.8 16.5 15.4 3 2.5 10.7 8.1 17 12.4 6.3 4.3 15.8 10.1 21 12.9 5.2 2.8 13.8 6.9 19 9.2 5.2 2.3 12.9 5.3 17 6.6 4.1 1.4 11.8 3.6 17 5 5.2 1.4 16.2 3.6 24.5 4.9 8.2 1.4 17.4 2.5 20.2 2.5 4.5 0 5.7-0.4 7.9-2.8 1.4-1.5 6.5-8.2 11.2-15 4.8-6.8 11.3-16 14.5-20.5 3.2-4.5 8-11.6 10.7-15.7 2.7-4.1 4.6-7.7 4.4-8-0.3-0.3-6.9 0.1-14.7 0.9-11.5 1.2-16.6 1.3-26.7 0.3-6.9-0.6-15.9-1.8-20-2.7-4.1-0.8-12.5-3.2-18.5-5.2-6.1-1.9-15.1-5.5-20-7.8-5-2.3-14.6-7.9-21.5-12.5-9.2-6.2-15.7-11.6-24.6-20.4-6.6-6.7-15.1-16.4-18.8-21.6-3.7-5.2-9.6-15.4-13.1-22.5-3.5-7.2-7.7-17.1-9.3-22-1.7-5-4.1-13.7-5.3-19.5-1.9-9-2.3-13.6-2.3-32-0.1-18.6 0.3-23.1 2.2-33 1.3-6.3 3.7-15.6 5.3-20.5 1.7-5 6.1-15.3 9.9-23 3.8-7.7 10-18.3 13.7-23.5 3.7-5.2 10.6-13.4 15.3-18.1 4.7-4.7 11.6-11 15.5-14.1 3.8-3 10.8-8 15.5-11 4.7-3 13-7.5 18.5-10 5.5-2.6 14-6 19-7.7 4.9-1.6 13.7-4 19.5-5.2 9.1-2 13.4-2.3 32-2.3 18.1 0 23.2 0.3 32.5 2.2 6 1.2 14.6 3.3 19 4.8 4.4 1.5 12.4 4.6 17.7 7 5.4 2.4 13.5 6.7 18 9.5 4.6 2.8 11 7.2 14.3 9.7 3.3 2.5 10.9 9.6 17 15.7 6 6.1 12.9 13.5 15.2 16.5 2.3 3 7.1 10.4 10.7 16.5l6.6 11c2.1-5.4 4.1-10.8 5.8-15.5 1.7-4.7 5.8-17.1 9.2-27.5 3.4-10.5 7.9-24.9 10.1-32 2.1-7.2 3.9-13.8 3.9-14.8 0-0.9-3.7-5.4-8.3-10-4.5-4.6-12-11.4-16.7-15.1-4.7-3.7-12.1-9.1-16.5-12-4.4-2.9-10.7-6.9-14-8.9-3.3-2-11.6-6.2-18.5-9.5-6.9-3.3-15.7-7.1-19.5-8.4-3.9-1.4-12-4-18-5.7-6.1-1.7-17.8-4.3-26-5.7-12.4-2.1-18.9-2.6-37.5-2.9-12.4-0.2-24.1-0.1-26 0.1-1.9 0.3-9.1 1.4-16 2.5zm225.3 8.2l8.2 5.7c2.6-8.1 3-10.8 2.6-11.1-0.3-0.4-4.8-0.9-10-1.2-5.1-0.2-9.3-0.2-9.2 0.2 0.1 0.3 3.9 3.2 8.4 6.4zm82.9 14.1c-1.3 1.1-3.4 3.9-4.7 6.1-1.3 2.2-3.3 6.8-4.4 10.2-1.2 3.5-3 10.5-4.2 15.5-1.2 5.4-2.1 12.7-2.1 17.3 0 5.6 0.7 9.7 2.1 13.5 1.1 3 4.1 9 6.6 13.2 2.5 4.3 4.9 7.8 5.5 7.8 0.5 0 3-2.4 5.4-5.3 2.4-2.8 6.1-8.1 8.3-11.7 2.2-3.6 5.5-9.4 7.3-13 1.8-3.6 4.1-9.9 5.2-14 1.2-4.5 2-10.9 2-16 0-4.7-0.4-10.3-1-12.5-0.6-2.2-2.5-5.9-4.2-8.3-1.6-2.3-4.6-4.9-6.5-5.7-1.9-0.8-4.3-1.5-5.3-1.4-0.9 0-3.1 0.5-4.7 1.1-1.7 0.6-4.1 2-5.3 3.2zm89.3 16.1c0.4 4.4 0.1 10.6-0.9 16.5-0.8 5.2-3.4 15.6-5.7 23-2.2 7.4-6.3 18.4-9.1 24.5-2.7 6-7.9 15.9-11.6 22-3.6 6-11.3 18.2-17.1 27-5.8 8.8-11.4 18.2-12.5 20.8l-2.1 4.8c4.2 25.1 6 37.5 6.7 43.7 0.7 6.2 1.7 11.2 2.3 11.2 0.5 0 8.6-3.7 18-8.1 9.3-4.4 24.6-12.4 34-17.7 9.3-5.3 21.9-12.9 28-17 6-4.1 16.2-11.6 22.5-16.7 6.3-5.1 15.3-13.2 19.9-18.1 4.6-4.9 10.1-11.4 12.1-14.4 2.1-3 5.1-8.2 6.8-11.5 1.7-3.3 3.8-8.7 4.8-12 1-3.7 1.7-9.5 1.8-15 0-8.2-0.3-9.6-3.4-16-1.9-3.9-6-10.4-9.1-14.5-3.1-4.1-8.6-9.8-12-12.5-3.5-2.8-10-7.6-14.4-10.7-4.4-3-11.2-7.1-15-9-3.9-2-11.3-5.2-16.5-7.3-5.2-2-12.7-4.5-16.5-5.5-3.9-0.9-8.3-2-9.8-2.4-2.9-0.7-2.9-0.7-2.3 3.6 0.3 2.4 0.8 7.4 1.1 11.3zm-615.8 18.1c-3.1 2.7-7.7 7.4-10.2 10.4-3.2 3.9-4.3 6.1-3.9 7.5 0.3 1.1 2.4 6.7 4.6 12.5 2.1 5.8 4.1 10.6 4.3 10.7 0.3 0.2 1.3-0.4 2.2-1.4 1-0.9 5.1-4.1 9.2-7.2 4.1-3.1 9.2-7.9 11.4-10.6 2.2-2.8 5.5-8.2 7.3-12 1.9-3.9 3.4-8 3.4-9.3 0-1.2-1-3.2-2.3-4.3-1.2-1.2-3.7-2.8-5.5-3.5-1.7-0.8-4-1.4-5-1.4-0.9 0-3.5 0.9-5.7 1.9-2.2 1.1-6.6 4.1-9.8 6.7zm-115.2 48.9c-7.2 3.5-18.2 9.3-24.5 12.8-6.3 3.5-18.7 11-27.5 16.7-8.8 5.7-20.3 13.8-25.5 18-5.2 4.3-13.3 11.7-18 16.6-4.7 4.9-10.6 11.8-13.2 15.4-2.5 3.6-6.5 10.3-8.7 15-2.3 4.7-4.8 11.9-5.6 16-1 5.5-1.2 9.1-0.5 13.5 0.5 3.3 1.6 8 2.5 10.5 0.9 2.5 2.8 6.5 4.2 9 1.5 2.5 5.2 7.1 8.2 10.4 3.1 3.2 8.7 8.2 12.6 11.1 3.8 2.8 10.6 7.3 15 9.8 4.4 2.6 14.1 7.1 21.5 10 7.4 3 20.5 7.5 29 10 8.5 2.5 19.1 5.5 23.5 6.6 4.4 1.1 13.8 3.1 21 4.5 7.1 1.4 19.1 3.4 26.5 4.5 7.4 1.1 16.6 2.2 20.5 2.6 3.8 0.3 9.5 0.8 12.5 1.2 5.4 0.5 5.5 0.5 4.8-1.8-0.4-1.3-1.4-6-2.3-10.4-0.8-4.4-2.2-12.3-3-17.5-0.9-5.2-1.8-18.1-2.2-28.5-0.3-11.9-0.1-23.5 0.6-31 0.6-6.6 2.5-19.4 4.2-28.5 1.7-9.1 3.3-17.9 3.6-19.5 0.3-1.7-0.2-5.4-1.2-8.5-0.9-3-4.3-11.6-7.5-19-3.2-7.4-8-19.6-10.8-27-2.7-7.4-7-19.9-9.6-27.8-2.5-7.8-4.9-14.2-5.4-14.1-0.4 0-7.7 3-16.2 6.5-8.5 3.5-21.4 9.3-28.5 12.9zm578.9 105.5c-3.9 9.1-9.7 22.1-12.7 29-3.1 6.9-7.3 16.3-9.5 21-2.2 4.7-8.3 17.3-13.5 28-5.3 10.7-13.6 27.1-18.5 36.5-4.8 9.3-10 18.8-11.4 21-1.4 2.2-4 6.9-5.8 10.5-1.8 3.6-6.7 12.3-11 19.5-4.2 7.1-10.8 18.2-14.5 24.5-3.7 6.3-9.4 15.5-12.5 20.5-3.2 4.9-8.7 13.7-12.3 19.5-3.6 5.8-6.9 11.4-7.4 12.4-0.7 1.8-0.5 1.9 2.7 1.1 1.9-0.4 7.3-2.4 12-4.3 4.7-1.8 13.9-6 20.5-9.2 6.6-3.2 16.3-8.7 21.5-12.1 5.2-3.5 13.5-9.5 18.5-13.4 4.9-3.9 12.8-10.7 17.4-15.1 4.6-4.3 12-12.2 16.3-17.4 4.4-5.2 10.2-12.9 13.1-17 2.8-4.1 7.9-12.2 11.2-18 3.3-5.8 8.9-17.7 12.4-26.5 3.5-8.8 7.9-21.9 9.7-29 1.8-7.2 3.9-17.3 4.8-22.5 0.8-5.2 1.7-12.2 2.1-15.5 0.3-3.3 0.6-13 0.7-21.5 0-8.5-0.7-21.3-1.6-28.5-0.8-7.2-2.5-17.3-3.6-22.5-1.1-5.2-2.9-12.5-4-16.3-1.1-3.7-2.3-6.7-2.8-6.7-0.4 0-3.8 8-7.6 17.8-3.8 9.7-10.2 25.1-14.2 34.2zm-511.6 186.6c-2 3.3-6.4 11.5-9.8 18.4-3.5 6.9-7.5 16.3-9.1 21-1.6 4.7-3.4 12.3-4 17-0.6 4.7-0.8 11-0.4 14 0.4 3 1.8 8 3.1 11 1.4 3 4 7.3 5.8 9.5 1.8 2.2 5.5 5.4 8.2 7.2 2.7 1.7 8 4.1 11.9 5.3 4.2 1.3 11.3 2.4 17.8 2.8l10.7 0.7c0-8.5 0.3-13.5 0.6-16.5 0.3-3 1.2-10.9 1.9-17.5 0.8-6.6 2.6-21.5 4-33 1.4-11.6 2.6-22.8 2.7-25 0-2.5-1.1-6.4-3-10.5l-3.1-6.5c-14.4-2-22-2.9-26.2-3.2l-7.5-0.6zm71.2 62.2c-1.1 2.9-2 7.4-2 10 0 2.6 0.7 7.4 1.6 10.7 0.8 3.3 2.7 8.2 4.2 10.8 1.9 3.4 3.9 5.4 6.7 6.8 2.7 1.3 6.2 1.9 10.8 1.9 4.4 0 8-0.6 10.3-1.7 2.1-1 5-3.6 6.6-5.8 2.2-3.1 2.8-5 2.8-9 0-2.9-0.9-6.9-2.1-9.5-1.2-2.5-4.9-7.3-8.2-10.8-3.4-3.5-8-7.5-10.2-8.8-2.2-1.3-6.4-2.7-9.5-3-4.6-0.5-5.8-0.3-7.2 1.3-1 1-2.6 4.2-3.8 7.1zm438 24.9c-4.1 3.2-10 7.7-13 9.9-3 2.3-12.2 8.4-20.5 13.7-8.2 5.2-21.3 12.6-29 16.5-7.7 3.8-18.5 8.6-24 10.7-5.5 2.1-15.8 5.7-23 8.2-7.1 2.4-17 5.5-22 6.7-4.9 1.3-14.1 3.1-20.2 4-6.2 0.9-11.3 2-11.3 2.4 0 0.4 6.2 6.8 13.8 14.3 7.5 7.4 16.9 16.4 20.7 19.9 3.9 3.5 16 13.6 27 22.4 11 8.8 25.2 19.3 31.5 23.5 6.3 4.1 15.1 9.7 19.5 12.4 4.4 2.7 12.5 7.1 18 9.8 5.5 2.6 13.6 5.8 18 6.9 5.4 1.4 11.1 2 17.5 2 7.8 0 10.4-0.4 14.5-2.3 2.8-1.3 6.3-3.9 7.9-5.8 1.6-1.8 4-5.6 5.4-8.4 1.3-2.7 3.3-8.4 4.4-12.5 1.4-5.4 2.1-11.7 2.3-22.5 0.3-11.5-0.2-18.9-1.9-32-1.3-9.3-4-24.2-6.1-33-2-8.8-5.3-21.4-7.2-28-1.9-6.6-5.4-18.3-7.9-26-2.4-7.7-5-15-5.7-16.3l-1.2-2.3zm-412.5 52.7c-4.4 0.9-10.1 2.4-12.8 3.2-3.3 1-4.7 1.9-4.7 3.1 0 1 0.8 6.1 1.9 11.3 1.1 5.2 2.9 12.4 4.1 16 1.2 3.6 3.6 9 5.3 12 1.7 3 5.8 8.2 9.1 11.6 3.4 3.3 8.5 7.3 11.3 8.7 2.9 1.5 8.3 3.2 12 3.8 5.6 0.9 8.2 0.9 14.8-0.5 5.2-1.1 12.2-3.6 20-7.4 6.6-3.2 15.4-8 19.5-10.6 4.1-2.7 11.5-8.1 16.5-12.2 4.9-4 13.7-12 19.5-17.9 8.4-8.5 10.2-10.8 9-11.5-0.8-0.5-3.8-1.7-6.5-2.6-2.8-0.9-10.4-3.8-17-6.4-6.6-2.6-18.3-7.9-26-11.8-7.7-4-15.1-7.2-16.5-7.2-1.4 0-13.5 3.7-27 8.3-13.5 4.6-28.1 9.2-32.5 10.1zm-289-84.8c4.4 0.2 10.8 1.1 14.2 1.9 3.5 0.8 9.1 2.9 12.5 4.6 3.5 1.7 8.5 5 11.3 7.2 2.7 2.3 7 6.3 9.5 9 2.5 2.6 6.2 7.6 8.3 11 2.1 3.4 4.8 9.3 6 13.2 1.8 5.7 2.2 9.4 2.2 20 0 11-0.4 14.1-2.4 20-1.3 3.8-3.2 8.8-4.2 11-1 2.2-4.3 7.1-7.2 11-2.8 3.8-7.9 9.1-11.2 11.8-3.3 2.6-9.2 6.4-13 8.2-3.9 1.9-10.4 4.2-14.5 5.1-5.3 1.1-10.3 1.4-17 1.1-6.4-0.4-12.1-1.4-17.5-3.2-4.4-1.4-11.4-4.8-15.5-7.5-4.1-2.7-9.1-6.6-11.1-8.7-2-2.1-5.2-6.1-7.2-8.8-1.9-2.8-4.9-7.9-6.6-11.5-1.7-3.6-3.8-9.7-4.6-13.5-0.8-3.9-1.5-10.8-1.5-15.5 0-4.7 0.7-11.2 1.5-14.5 0.8-3.3 2.3-7.8 3.2-10 0.9-2.2 3.7-7.1 6.2-10.9 2.5-3.8 8-10.1 12.1-13.9q7.5-7 15.5-10.9c4.7-2.3 11.1-4.4 15.5-5.2 4.1-0.8 11.1-1.2 15.5-1zm825-61.9c2.7 0.3 6.8 0.9 9 1.5 2.2 0.5 6.2 2.2 8.9 3.6 2.7 1.5 7.3 5.4 10.4 8.7 3 3.3 6.5 8 7.7 10.5 1.2 2.5 2.8 7 3.5 10 0.7 3 1.1 8.9 0.9 13-0.4 6.1-1.2 8.9-4.1 15-2 4.1-5.7 9.6-8.2 12.2-2.5 2.7-6.3 5.6-8.4 6.7-2 1-6 2.6-8.7 3.6-2.9 0.9-8.2 1.7-12.5 1.7-4.1 0-9.5-0.5-12-1.2-2.5-0.7-7-2.5-10-4-3-1.5-7.7-5.2-10.5-8.2-2.8-2.9-5.8-6.9-6.7-8.8-0.9-1.9-2.4-6.2-3.2-9.5-0.9-3.3-1.6-8.9-1.6-12.5 0-3.6 0.7-9 1.6-12 0.9-3 3-7.7 4.7-10.4 1.8-2.7 5.2-6.7 7.7-8.9 2.5-2.2 7.2-5.3 10.5-6.9 3.3-1.5 8.2-3.2 11-3.7 2.7-0.5 7.2-0.7 10-0.4z"/></svg>