<svg version="1.2" xmlns="http://www.w3.org/2000/svg" viewBox="0 0 1112 1110" width="1112" height="1110"><style>.a{fill:#fff}</style><path class="a" d="m543 1.6c-3 0.8-7.7 2.7-10.4 4.2-2.7 1.5-7.4 5.2-10.4 8.2-3.6 3.5-6.8 8-8.9 12.5-1.8 3.8-3.8 9.7-4.3 13-0.6 3.8-1 63.2-1 161 0 98.7 0.4 157.5 1 162 0.6 3.9 2.4 9.9 4.1 13.5 1.8 3.8 5.5 9 8.8 12.4 3.1 3.2 7.6 7 10.1 8.4 2.5 1.4 7.1 3.4 10.2 4.4 3.5 1.1 8.9 1.8 13.5 1.8 4.3 0 10.4-0.7 13.5-1.5 3.2-0.8 8.6-3.2 12-5.3 3.7-2.2 8.2-6.1 11.1-9.7 2.7-3.3 5.8-8 7-10.5 1.1-2.5 2.6-6.8 3.3-9.5 1.1-4.1 1.4-34.9 1.4-164.3 0-112.8-0.3-160.7-1.1-164.5-0.6-2.8-2.8-8.3-4.8-12.2-2-3.8-5.9-9.2-8.6-12-2.8-2.8-7.9-6.5-11.5-8.3-3.6-1.7-9-3.6-12-4.2-3-0.6-8.2-1-11.5-0.9-3.3 0-8.5 0.7-11.5 1.5zm-505.5 506.4c-2.2 0.5-5.8 1.6-8 2.5-2.2 1-6 3.1-8.5 4.9-2.5 1.7-6.1 4.8-8 6.8-1.9 2.1-5 6.1-6.7 9-2.1 3.3-4 8.4-5 13.3-1.5 6.9-1.6 9.1-0.5 16.5 0.8 5.4 2.4 10.9 4.3 15 2 4.1 5.3 8.7 9.2 12.7 4.1 4 8.4 7.1 12.7 9.1 3.6 1.7 9.4 3.5 13 4.2 4.7 0.8 51.6 1 167.5 0.8l161-0.3c8.5-3.4 14.1-6.8 17.9-9.7 3.9-3.1 8.3-7.6 10.4-10.8 2-3 4.4-7.8 5.3-10.5 1-2.8 2.1-7.9 2.5-11.5 0.4-3.9 0.2-9.3-0.5-13.5-0.7-3.9-2.6-9.7-4.2-13-1.6-3.3-5-8.3-7.7-11.1-2.6-2.8-6.7-6.5-9.2-8.1-2.5-1.7-6.8-3.9-9.5-4.9-4.8-1.8-11.3-1.9-168.5-2-89.9-0.1-165.3 0.2-167.5 0.6zm704.5 0.6c-3 0.8-7.7 2.7-10.4 4.2-2.7 1.5-7.2 5.2-10 8.2-2.8 3-6.9 9.1-9.1 13.4-3.8 7.6-4 8.6-4.3 18.5-0.3 8.8 0 11.7 1.8 17.1 1.2 3.6 3.6 8.7 5.3 11.4 1.8 2.7 5.3 6.8 7.8 9 2.5 2.3 6.8 5.3 9.5 6.8 2.7 1.5 7.6 3.4 10.9 4.2 5.3 1.4 23.9 1.6 165.5 1.6 103 0 161.4-0.3 165-1 3-0.5 8.6-2.5 12.5-4.4 4.7-2.3 8.8-5.3 12.5-9.3 3.1-3.2 6.7-8.3 8.2-11.3 1.5-3 3.1-7.5 3.7-10 0.6-2.5 1.1-7.9 1.1-12 0-4.2-0.8-10.4-1.8-14-1-3.6-2.9-8.5-4.4-11-1.4-2.5-5.2-7-8.4-10-3.3-3-8.1-6.5-10.7-7.8-2.6-1.2-7.3-2.9-10.5-3.7-5-1.3-26.5-1.5-167.2-1.4-139.9 0-162.2 0.2-167 1.5zm-193.5 198.4c-3.3 0.4-8.9 2.1-12.5 3.8-4.2 2-8.8 5.4-12.8 9.4-3.5 3.5-7.5 8.1-8.8 10.3-1.3 2.2-3.1 6.2-4.1 9-1.6 4.7-1.8 15-2.1 164-0.2 119.5 0 160.7 0.9 166 0.7 4.1 2.8 10.1 4.9 14.5 2.7 5.4 5.5 9 9.6 12.8 3.3 2.9 8.6 6.6 11.9 8.2 3.4 1.6 9.3 3.4 13.5 4 5.3 0.8 9.5 0.8 14.2 0 3.8-0.5 8.9-1.8 11.5-2.8 2.7-1 5.9-2.6 7.3-3.5 1.4-1 4.7-3.9 7.5-6.6 2.7-2.7 6.4-7.5 8.2-10.7 1.7-3.3 3.9-8.6 4.7-11.9 1.4-5.3 1.6-24 1.6-166 0-156.1 0-160.2-1.9-166.5-1.1-3.6-3.8-9.2-5.9-12.5-2.2-3.3-6.1-7.9-8.6-10.3-2.5-2.3-6.7-5.3-9.4-6.6-2.6-1.3-6.5-2.9-8.7-3.4-2.2-0.6-6.5-1.2-9.5-1.5-3-0.2-8.2-0.1-11.5 0.3zm-278.5-474.4c-3.6 0.8-9 2.8-12 4.5-3 1.6-7.1 4.4-9 6.2-1.9 1.8-4.9 5.1-6.7 7.2-1.7 2.2-4.3 6.8-5.7 10.2-1.6 3.9-2.8 9.2-3.2 14-0.4 4.4-0.1 10.4 0.5 13.8 0.6 3.3 2.5 8.9 4.3 12.5 2.8 5.9 10 13.4 75.2 78.7 53.1 53.1 73.8 73.2 78.6 76.2 3.6 2.3 8.7 4.8 11.5 5.6 2.7 0.7 7.9 1.6 11.5 1.8 3.6 0.2 9.2-0.1 12.5-0.8 3.3-0.7 8.4-2.5 11.4-4.1 3-1.6 7.7-5.2 10.6-7.9 2.8-2.8 6.4-6.9 7.8-9.3 1.5-2.3 3.6-6.9 4.7-10.2 1.1-3.3 2.2-8.6 2.4-11.8 0.2-3.1 0-8.4-0.5-11.7-0.5-3.3-2.6-9.4-4.5-13.5-3.5-7.3-6.1-10-77.3-81-54.3-54.3-74.9-74.3-78.6-76.2-2.8-1.5-7.9-3.4-11.5-4.2-3.6-0.9-8.5-1.5-11-1.5-2.5 0.1-7.4 0.8-11 1.5zm552.5-0.6c-2.2 0.4-6 1.6-8.5 2.7-2.5 1.1-6.3 3.1-8.5 4.6-2.2 1.5-35.9 34.6-74.9 73.5-45.8 45.8-72.2 72.8-74.8 76.7-2.1 3.3-4.8 8.9-5.9 12.5-1.2 3.9-1.9 9.3-1.9 13.5 0 3.8 0.6 9.2 1.4 12 0.7 2.7 2.6 7.5 4.1 10.5 1.6 3 4.9 7.7 7.4 10.3 2.5 2.7 6.6 6.1 9.1 7.7 2.5 1.6 7.4 3.8 11 5.1 4.9 1.6 8.8 2.2 15.5 2.2 6.7-0.1 10.6-0.6 15-2.2 3.3-1.2 8.7-4.2 12-6.6 3.3-2.4 37.8-36.2 76.6-75.2 63.8-64 70.9-71.5 74.2-77.8 2.5-4.9 4-9.4 4.8-15 1-6.8 1-9.2-0.4-16-0.9-4.4-2.9-10.5-4.4-13.5-1.6-3-5.5-8.2-8.8-11.5-3.8-3.9-8.4-7.3-12.5-9.3-3.6-1.7-9-3.6-12-4.2-3-0.5-7.5-1-10-0.9-2.5 0.1-6.3 0.5-8.5 0.9zm-419.5 417c-3 1-7.8 3.1-10.5 4.6-3.5 1.9-19.6 17.3-52.9 50.3-26.3 26.2-58.7 58.5-72 71.9-13.2 13.4-25.4 26.2-26.9 28.5-1.5 2.3-3.7 6.7-4.9 9.7-1.2 3.2-2.3 8.9-2.6 13.5-0.2 4.4 0.1 10.5 0.7 13.5 0.6 3 2.5 8.4 4.2 12 1.9 4 5.2 8.5 8.5 11.7 3.6 3.5 8.3 6.7 14.1 9.5 7.5 3.5 10 4.2 16.8 4.6 5.5 0.3 10-0.1 14.2-1.2 3.5-0.9 8.4-2.6 11-3.8 3.8-1.7 20.4-17.8 78.9-76.2 71.1-71.1 74.2-74.4 77.7-81.6 2.3-4.7 4-9.9 4.6-14 0.5-3.6 0.4-9.8 0-14-0.6-4.9-2-9.7-3.9-13.8-1.6-3.4-5.4-8.7-8.3-11.8-2.8-3-7.5-7-10.2-8.7-2.8-1.7-7.6-3.9-10.8-4.9-3.6-1.1-8.8-1.8-14-1.8-5.4 0.1-10.1 0.7-13.7 2zm280-0.6c-2.5 0.7-6.8 2.4-9.5 3.8-2.8 1.4-7.6 5-10.9 7.9-4.2 3.9-6.9 7.6-9.8 13.4-3.6 7.3-4 8.9-4.5 18-0.5 8.3-0.2 11.2 1.5 17 1.3 4.5 3.7 9.2 6.5 13 2.5 3.3 36.8 38.2 76.3 77.6 60.5 60.2 72.9 72 77.9 74.6 3.3 1.7 8.9 3.7 12.5 4.4 3.6 0.7 9.6 1 13.5 0.7 3.8-0.3 9.7-1.7 13-3 3.3-1.3 7.8-3.7 10-5.3 2.2-1.7 5.7-4.8 7.8-7 2-2.2 5.3-7.2 7.2-11 2.1-4.1 4-9.9 4.7-14 0.8-5.3 0.8-8.9 0-14.5-0.8-4.8-2.5-10.2-4.9-15-3.5-7.2-7.1-10.9-76.8-80.7-72.6-72.9-73-73.3-81-77-7.5-3.5-8.7-3.8-18.5-4-6.4-0.1-12.3 0.3-15 1.1z"/></svg>