<svg version="1.2" xmlns="http://www.w3.org/2000/svg" viewBox="0 0 1307 1306" width="1307" height="1306"><style>.a{fill:#fbfcfc}</style><path fill-rule="evenodd" class="a" d="m650.5 0.2c25.4-0.1 42.9 0.3 56 1.3 10.4 0.8 22.6 2 27 2.5 4.4 0.6 13.8 2 21 3.1 7.1 1.1 18.8 3.1 26 4.5 7.1 1.4 18.4 3.9 25 5.5 6.6 1.7 19.6 5.2 29 7.9 9.3 2.7 23.7 7.2 32 10.1 8.2 2.8 21.1 7.6 28.5 10.6 7.4 3.1 17.1 7.2 21.5 9.3 4.4 2 19.2 9.1 58 27.9l19-5c10.4-2.7 29.8-7.9 43-11.4 13.2-3.5 32.8-8.6 43.5-11.4 10.7-2.7 31.6-8.2 46.5-12.1 14.8-3.9 31.3-8.2 36.5-9.6 5.2-1.4 16.5-4.3 25-6.5 8.5-2.3 26.2-7 39.2-10.5 13.1-3.5 24.7-6.4 25.8-6.4 1.1 0 2 0.2 2 0.5 0 0.3-2.5 16.1-5.5 35.2-3.1 19.2-9.2 55.9-13.5 81.8-4.4 25.8-12.7 75.3-18.5 110-5.8 34.6-10.5 64.2-10.5 65.7 0 1.7 3 7.8 7.3 15 4.1 6.8 11.9 20.8 17.5 31.3 5.6 10.4 13.1 25.7 16.8 34 3.6 8.2 9.6 22.4 13.1 31.5 3.6 9.1 9 23.9 11.9 33 3 9.1 7.7 24.8 10.5 35 2.7 10.2 6.9 28.4 9.4 40.5 2.4 12.1 5.5 29.4 6.9 38.5 1.4 9.1 3.3 25.3 4.2 36 1.4 14.8 1.8 29.3 1.8 60-0.1 35.4-0.3 42.8-2.3 59-1.2 10.2-3.3 25.2-4.7 33.5-1.3 8.2-3.8 22-5.5 30.5-1.7 8.5-5 23.4-7.4 33-2.5 9.6-6.9 25.1-9.8 34.5-3 9.3-7.7 23.3-10.5 31-2.8 7.7-6.4 17.1-8 21-1.6 3.8-5.9 13.5-9.4 21.5-3.6 8-8.8 19-11.5 24.5-2.8 5.5-9.3 17.4-14.5 26.5-5.2 9.1-15.3 25.5-22.5 36.5-7.1 11-13.5 21-14.1 22.2-0.7 1.3-1.2 3.5-1.2 5 0 1.6 2.4 15.8 5.4 31.8 3 15.9 8.7 45.9 12.6 66.5 3.9 20.6 9.6 50.3 12.6 66 3 15.7 7.4 39.3 9.8 52.5 2.4 13.2 4.8 26.7 6.1 35.8l-3.5-0.7c-1.9-0.4-12.3-2.8-23-5.3-10.7-2.4-30.5-7.1-44-10.3-13.5-3.2-29.2-7-35-8.4-5.8-1.4-25.6-6.1-44-10.5-18.4-4.4-42.3-10-53-12.5-10.7-2.5-28.3-6.6-39-9.1-10.7-2.6-20.6-4.7-22-4.7-1.4 0-9.9 3.5-19 8-9.1 4.4-20.1 9.7-24.5 11.7-4.4 2-15.7 6.8-25 10.5-9.4 3.7-23.5 9.1-31.5 12-8 2.9-20.4 7-27.5 9.1-7.2 2.2-19.3 5.5-27 7.5-7.7 1.9-21.7 5.1-31 6.9-9.4 1.9-24.9 4.5-34.5 5.9-9.6 1.4-24.7 3.3-33.5 4.2-12.2 1.3-25.4 1.7-55.5 1.7-21.7 0-46.3-0.6-54.5-1.2-8.3-0.7-22.4-2.1-31.5-3.2-9.1-1.1-23-3.2-31-4.5-8-1.4-19.7-3.6-26-5-6.3-1.3-19.2-4.4-28.5-6.8-9.4-2.5-23.8-6.5-32-9.1-8.3-2.6-22-7.3-30.5-10.5-8.5-3.2-23.2-9-32.5-13-9.4-4-24.7-11.1-51-24.3l-7 1.7c-3.9 1-20.1 4.9-36 8.7-16 3.8-45.2 10.8-65 15.5-19.8 4.7-56.7 13.5-82 19.6-25.3 6-52.3 12.2-60 13.9-7.7 1.6-14.5 2.8-15 2.5-0.7-0.2-0.6-3.4 0.3-9.2 0.7-4.9 5.1-28.5 9.7-52.4 4.6-23.9 12-63.1 16.5-87 4.4-23.9 10.6-56.3 13.6-72 3-15.7 5.6-29.9 5.7-31.6 0.2-2.5-1.7-6-8.9-16.5-5-7.4-13.4-20.6-18.6-29.4-5.3-8.8-12.2-21-15.6-27-3.3-6.1-8.8-16.6-12.2-23.5-3.4-6.9-9.5-20.2-13.5-29.5-4-9.4-10.4-25.8-14.3-36.5-3.9-10.7-9.5-27.8-12.5-38-3-10.2-7.3-26.6-9.6-36.5-2.2-9.9-5.4-25.7-7-35-1.7-9.4-3.9-24-5-32.5-1.1-8.5-2.6-21.8-3.2-29.5-0.7-7.7-1.2-30.2-1.2-50 0-26 0.5-40.6 1.7-52.5 0.9-9.1 2.5-23.9 3.7-33 1.1-9.1 3.6-24.6 5.4-34.5 1.9-9.9 4.6-23 6-29 1.4-6.1 5-19.6 8-30 3-10.5 7.3-24.6 9.6-31.5 2.3-6.9 6.5-18.6 9.4-26 2.9-7.4 8.3-20.3 12-28.5 3.7-8.3 10.5-22.4 15.1-31.5 4.6-9.1 12.9-24.4 18.4-34 9.7-16.9 10.1-17.7 9.6-22.5-0.2-2.8-6.9-43-14.9-89.5-8-46.5-18.9-110.7-24.3-142.7q-9.9-58.2-8.9-59.2c0.7-0.7 9.5 1.1 26.5 5.5 14 3.5 31.1 8 38 9.9 6.9 1.9 20.6 5.5 30.5 8 9.9 2.6 27.2 7.1 38.5 10.2 11.3 3 26.6 7 34 8.9 7.4 2 31 8.2 52.5 13.9 21.4 5.7 43.5 11.5 49 12.9 5.5 1.5 11.3 2.6 13 2.6 1.8 0 14-5.4 29.5-12.9 14.6-7.1 32.6-15.4 40-18.4 7.4-3 21.8-8.5 32-12.2 10.2-3.7 25.2-8.7 33.5-11.1 8.2-2.5 22-6.2 30.5-8.4 8.5-2.1 22.7-5.2 31.5-6.9 8.8-1.7 22.1-4 29.5-5 7.4-1.1 20.7-2.7 29.5-3.5 8.8-0.9 17.8-1.7 20-1.9 2.2-0.2 20.6-0.4 41-0.5zm-112 71.8c-6.1 1.2-19.8 4.4-30.5 7.1-10.7 2.7-25.8 6.9-33.5 9.3-7.7 2.4-20.1 6.6-27.5 9.4-7.4 2.7-18.7 7.2-25 10-6.3 2.7-18.7 8.3-27.5 12.5-8.8 4.1-20 9.7-24.9 12.4-4.9 2.6-9.3 5.5-9.8 6.3-0.8 1.1 2.4 9.5 12.2 32.5 7.3 17 19.2 44.5 26.5 61 7.3 16.5 19.4 44.4 27 62 7.5 17.6 15.3 35.6 17.2 40 2 4.4 4.2 9 5 10.2l1.3 2.3c7.4-3.7 14.9-7.8 21.5-11.5 6.6-3.7 19.2-9.7 28-13.5 8.8-3.7 22.3-9.1 30-12 7.7-2.8 19.8-6.7 27-8.5 7.1-1.8 15.9-3.9 19.5-4.7l6.5-1.3c1-8.5 1.3-60.4 1.4-120.8 0.1-87.2-0.2-109.7-1.2-109.6-0.6 0-8.2 1.1-16.7 2.4-8.5 1.2-20.5 3.3-26.5 4.5zm181.5 114.7v108.3c12 2.5 20 4.3 25.5 5.6 5.5 1.4 14.7 4.1 20.5 6.1 5.8 1.9 17.7 6.3 26.5 9.8 8.8 3.4 22.1 9.1 29.5 12.7 7.4 3.5 16.9 8.4 21 10.9 4.1 2.4 8.6 5.1 10 5.8 1.4 0.7 3.3 1.1 4.2 0.7 1-0.3 3.7-4.5 5.9-9.4 2.3-4.8 7.7-17 12.1-27.2 4.4-10.2 12.9-29.8 18.8-43.5 5.9-13.8 17.2-39.6 25-57.5 7.8-17.9 17.3-40.2 21.2-49.5 3.8-9.4 6.7-17.6 6.4-18.3-0.3-0.6-3.6-2.9-7.4-5.1-3.7-2.1-14.8-7.9-24.7-12.8-9.9-5-23-11.2-29-13.8-6.1-2.6-15.1-6.3-20-8.3-5-1.9-17.3-6.1-27.5-9.4-10.2-3.2-23-7.2-28.5-8.8-5.5-1.6-16.5-4.5-24.5-6.4-8-1.9-19.5-4.4-25.5-5.5-6.1-1.1-16.2-2.7-22.5-3.6-6.3-0.9-12.4-1.8-13.6-2-1.9-0.4-2.2 0.1-2.7 6.3-0.4 3.7-0.7 55.4-0.7 114.9zm-577 161.8c-2.4 3.8-6.5 11-9.3 16-2.7 4.9-8.5 16-12.7 24.5-4.3 8.5-10.6 22-14 30-3.4 8-7.3 17.4-8.7 21-1.3 3.6-4.2 11.2-6.2 17-2.1 5.8-5.9 17.5-8.4 26-2.5 8.5-5.7 20-7.1 25.5-1.4 5.5-4.3 19-6.5 30-2.2 11-4.9 27.2-6 36-1.1 8.8-2.5 21.8-3.1 29-0.5 7.1-1 15.6-1 18.7v5.8h209.5c1.2-11.2 2.8-20.8 4.4-28.5 1.6-7.7 5.5-22.6 8.6-33 3.1-10.5 7.2-23.3 9.2-28.5 1.9-5.2 5.4-13.6 7.6-18.5 2.2-5 7.2-14.9 11-22 3.9-7.2 10.2-18.2 14.1-24.5 3.9-6.3 10.5-16 14.5-21.5l7.4-10c-4.5-3.4-10.1-6.8-15.3-9.6-5.2-2.9-28.6-15.9-52-28.9-23.4-13-50.2-27.9-59.5-33-9.4-5.1-22.2-12.1-28.5-15.5-6.3-3.5-17.4-9.5-24.5-13.4-7.2-3.9-13.3-7.1-13.6-7.1-0.4 0-1.8 1.7-3.1 3.7-1.4 2.1-4.4 6.9-6.8 10.8zm400-3.9c-4.1 1.5-12.2 4.5-18 6.7-5.8 2.3-19.3 8.5-30 13.9-10.7 5.3-21.8 11.5-24.5 13.6-3.8 2.9-5 4.5-4.8 6.3 0.1 1.3 9.8 24.7 21.6 51.9 11.8 27.2 24 55.3 27 62.5 3 7.1 7.8 17.9 10.5 24 2.8 6 5.5 11.1 6.1 11.2 0.6 0.2 6.4-3.3 12.8-7.6 6.5-4.4 16.3-10.2 21.8-12.9 5.5-2.7 11.7-5.7 13.7-6.6l3.8-1.6c0-117.4-0.2-155.9-0.5-161.3l-0.4-9.7c-4.3 0.1-11.5 1.7-18.6 3.6-7.2 1.9-16.4 4.6-20.5 6zm177 78.9v82c26.1 13.3 36.8 19.6 43.5 24.5 6 4.5 11.2 8.1 11.5 8.1 0.3 0 4.6-9.2 9.7-20.3 5.1-11.2 13.2-29.8 18.1-41.3 5-11.6 11.8-27.3 15.2-35 3.4-7.7 10.3-23.5 15.2-35 6.4-14.9 8.7-21.4 8.1-22.5-0.5-0.8-3.4-3.2-6.4-5.2-3-2-12.4-7.3-20.9-11.6-8.5-4.4-20.2-10-26-12.5-5.8-2.5-15.9-6.4-22.5-8.7-6.6-2.3-18.3-5.7-26-7.6-7.7-1.9-15-3.4-16.1-3.4-1.7 0-2.3 0.8-2.8 3.2-0.3 1.8-0.6 40.2-0.6 85.3zm398-68.7c-9.6 5.2-32.6 17.9-51 28.2-18.4 10.3-45.2 25.2-59.5 33.2-14.3 8.1-30.3 17.1-35.5 20.1-5.2 3.1-9.6 6.1-9.8 6.9-0.2 0.7 3.9 7.6 9.1 15.3 5.2 7.7 11.7 18 14.5 23 2.7 4.9 8.4 16 12.7 24.5 4.3 8.5 9.7 20.2 12.1 26 2.3 5.8 6.6 18.1 9.4 27.5 2.8 9.3 6.3 21.7 7.7 27.5 1.4 5.8 3.5 16.9 4.7 24.6 1.1 7.8 2.5 14.6 2.9 15 0.5 0.5 47.2 1 103.8 1.1l102.9 0.3c-0.8-13.6-1.5-23.4-2.1-30.5-0.5-7.2-2.1-20.2-3.4-29-1.3-8.8-3.8-23-5.5-31.5-1.7-8.5-5.4-24.3-8.1-35-2.8-10.7-7.5-26.9-10.5-36-3.1-9.1-8.4-23.5-11.9-32-3.5-8.5-8.3-20-10.8-25.5-2.4-5.5-7.7-16.5-11.7-24.5-4-8-10.2-19.7-13.8-26-3.5-6.3-7.8-13.4-9.3-15.8-1.6-2.3-3.5-4.2-4.2-4.2-0.6 0-4.4 1.7-8.2 3.6-3.9 2-14.9 7.9-24.5 13.2zm-755.5 127.7c-5.1 7.7-12.1 19.2-15.6 25.5-3.4 6.3-8.6 16.7-11.4 23-2.9 6.3-7.3 17.1-9.8 24-2.5 6.9-6 16.8-7.6 22-1.7 5.2-3.9 13.5-5 18.5-1 4.9-2.8 13.8-3.8 19.7-1 5.9-1.4 11.1-1 11.5 0.5 0.4 37.4 0.9 82 1.1l81.2 0.3c4.6-14.4 9.1-24.9 12.9-32.6 4.1-8.1 10-18 14.1-23.5 4-5.2 11.5-14.1 16.8-19.8 5.4-5.6 9.7-10.9 9.7-11.7 0-0.8-2.6-2.9-5.8-4.7-3.1-1.7-13.1-7.3-22.2-12.3-9.1-5.1-22.6-12.5-30-16.5-7.4-4-15.8-8.5-18.5-10-2.8-1.5-19.3-10.5-36.8-19.9-17.4-9.4-31.9-17.1-32.1-17.1-0.3 0-2.1 1.9-4.1 4.2-2 2.4-7.9 10.6-13 18.3zm489.5 19.7c-31.6 17.3-60.5 33.2-64.3 35.4-3.7 2.1-6.7 4.5-6.7 5.1 0 0.7 3.8 5.5 8.5 10.5 4.7 5.1 11.8 14 15.8 19.8 4.1 5.8 9.4 14.1 12 18.5 2.5 4.4 6.4 12.5 8.5 18 2.2 5.5 4.6 11.9 5.3 14.3l1.4 4.3c126.6-0.5 163.7-1 164.2-1.4 0.4-0.4-0.3-6.3-1.6-13-1.3-6.7-3.9-18.5-5.8-26.2-2-7.7-5.2-18.7-7.3-24.5-2.1-5.8-5.8-15.5-8.2-21.5-2.5-6.1-7-16-10.1-22-3-6.1-7.9-15.3-10.9-20.5-3-5.2-8.3-13.6-11.8-18.5-3.4-5-8-11.1-10.1-13.8-2.2-2.6-4.2-4.7-4.7-4.7-0.4 0-4.3 2-8.7 4.4-4.4 2.4-33.9 18.5-65.5 35.8zm-251 13.9c-7.4 2.2-18.2 6.3-24 9-5.8 2.8-13.4 6.9-17 9.1-3.6 2.3-9.8 6.5-13.8 9.5-3.9 2.9-10.4 8.3-14.3 12-3.9 3.8-10 10.2-13.4 14.3-3.4 4.1-8.8 11.3-12 16-3.2 4.7-8.1 13.2-11 19-2.9 5.8-6.7 14.5-8.5 19.5-1.7 4.9-4 12.6-5.1 17-1 4.4-2.5 12.7-3.4 18.5-0.8 5.8-1.5 16.3-1.5 23.5 0 7.1 0.7 17.7 1.6 23.5 0.8 5.8 2.6 15 3.9 20.5 1.3 5.5 3.7 13.5 5.4 17.7 1.7 4.3 5.2 12 7.7 17 2.6 5.1 6.9 12.9 9.7 17.3 2.7 4.4 7.5 11.1 10.7 15 3.1 3.8 10 11 15.2 16 5.3 4.9 13.1 11.5 17.4 14.7 4.4 3.1 11 7.6 14.9 9.9 3.8 2.4 11.5 6.2 17 8.7 5.5 2.4 14.9 5.8 21 7.7 6 1.8 14.8 4.1 19.5 5 4.7 0.9 16.8 1.9 27 2.2 12.7 0.4 21 0.2 26.5-0.6 4.4-0.7 11.6-2.1 16-3.2 4.4-1.1 12.9-3.6 19-5.6 6-2 14.6-5.4 19-7.6 4.4-2.2 11.4-6.1 15.5-8.6 4.1-2.6 11.1-7.4 15.5-10.8 4.4-3.3 11.6-9.6 16-13.9 4.5-4.4 11.3-12 15.3-16.9 3.9-5 9.8-13.7 13.1-19.5 3.2-5.8 7.7-14.8 9.9-20 2.2-5.2 5.2-13.3 6.6-18 1.4-4.7 3.5-13 4.7-18.5 1.9-8.6 2.2-13.1 2.2-32 0-18.8-0.3-23.6-2.3-33-1.2-6.1-3.8-15.7-5.7-21.5-1.9-5.8-6.2-15.9-9.6-22.5-3.4-6.6-9.3-16.7-13.1-22.5-4.7-7-11.3-14.7-19.6-23.1-6.9-7-15.9-15.1-20-18.1-4.1-3-11.6-7.9-16.5-10.9-5-3-12.6-7-17-8.8-4.4-1.9-11.2-4.5-15-5.8-3.9-1.4-11.7-3.5-17.5-4.9-5.8-1.3-15.7-2.8-22-3.4-6.3-0.5-16.2-0.9-22-0.9-5.8 0-15.5 0.9-21.5 2-6.1 1-17.1 3.7-24.5 6zm-532.2 245.9c0.2 1.4 1.3 7 2.4 12.5 1.1 5.5 3.8 17.2 6 26 2.2 8.8 7.5 26.6 11.8 39.5 4.2 12.9 10.1 29.3 12.9 36.5 2.9 7.1 10.8 24.2 17.6 38 6.8 13.7 16.1 31.1 20.5 38.5 4.5 7.4 12.5 20 17.7 28 5.3 8 11.7 17.1 14.2 20.3 2.5 3.2 5.2 5.8 5.8 5.7 0.7 0 7.7-3.1 15.5-6.9 7.9-3.7 46.6-22.9 86-42.5 39.5-19.6 72-36.1 72.3-36.6 0.3-0.6-1.9-4.5-4.9-8.8-3-4.2-10.8-15.6-17.3-25.2-7.1-10.5-15.3-24.3-20.4-34.5-4.8-9.4-11.4-23.8-14.7-32-3.3-8.3-7.4-19.5-9.2-25-1.9-5.5-5-16.1-7-23.5l-3.6-13.5c-151.8-0.1-198.2 0.1-200.9 0.4-4.6 0.6-5 0.8-4.7 3.1zm245.7-0.8c0.4 1.8 2.2 8.5 4 14.8 1.8 6.3 5 16 7 21.5 2 5.5 7.4 17.6 11.9 27 4.5 9.3 10.6 21.3 13.5 26.5 3 5.2 8.5 14.2 12.4 20 3.8 5.8 10.2 14.5 14.2 19.5 4 4.9 8.2 9.8 9.4 10.7 2.1 1.8 3.6 1.1 69.8-31.9 37.3-18.5 69.5-34.7 71.5-36l3.8-2.3c-19.9-19.8-28.6-29.3-32.1-34-3.5-4.7-8.7-12.6-11.6-17.5-2.9-5-6.6-11.8-8.1-15.3l-2.7-6.3-163.7 0.1zm506.1 7.5c-2 4-5.5 10.3-7.7 14-2.3 3.7-7.1 10.6-10.8 15.3-3.6 4.6-11.6 13.6-17.8 20l-11.3 11.4c88.7 44.1 121.5 60.2 130 64.3l15.5 7.3c7.6-8.2 14.4-17.5 20-26 5.7-8.6 13.1-20.5 16.6-26.6 3.4-6 8.8-16.4 12-23 3.2-6.6 7.8-17.4 10.2-24 2.5-6.6 6.4-18.5 8.6-26.4 2.3-8 4.1-15.1 4.1-15.8 0-1-17-1.2-81.4-1.2-76.2 0-81.4 0.1-82.9 1.7-0.8 1-3.1 5-5.1 9zm206.6 0.3c-1.2 4.6-3.9 14.3-6 21.4-2.2 7.2-6.1 18.4-8.7 25-2.6 6.6-8.7 20.1-13.4 30-4.8 9.9-11.9 23.2-15.7 29.6-3.9 6.3-12.1 18.6-18.3 27.4l-11.2 16c5.9 3.6 44.1 22.8 88.8 45.1 44.7 22.2 82.1 40.5 83 40.5 1 0 3.6-2.3 5.9-5.3 2.2-2.9 6.1-8.2 8.6-11.7 2.5-3.6 8.3-12.6 13-20 4.6-7.5 10.8-17.8 13.7-23 3-5.3 9.8-18.3 15.1-29 5.3-10.8 12.5-26.5 16-35 3.4-8.6 8.2-21.2 10.7-28 2.5-6.9 6.4-18.9 8.8-26.6 2.3-7.7 5.7-19.8 7.5-27 1.7-7.1 4.2-18.4 5.6-25 1.3-6.6 2.4-12.7 2.4-13.7 0-1.7-5.5-1.7-100.9-1.7-79.5 0-101.1 0.2-101.9 1.2-0.5 0.7-1.9 5.1-3 9.8zm-295.4 85.7l-11.8 5.7v156.6c3.5 0 10.1-1.4 17-3.1 6.9-1.7 19-5.2 27-7.9 8-2.7 21-7.8 29-11.3 8-3.6 17.9-8.2 22-10.2 4.1-2.1 10.5-5.8 14.2-8.2 5.9-3.8 6.7-4.7 6.3-6.8-0.3-1.4-9.7-21.8-20.9-45.3-11.2-23.5-25.9-53.9-32.5-67.5-6.7-13.6-12.5-24.7-12.9-24.7-0.4 0.1-6.3 3.9-13.2 8.6-6.9 4.6-17.8 11-24.2 14.1zm-220.3 30.7c-1.8 3.9-11.6 24.1-21.7 45-10.2 20.9-18.8 38.9-19.1 40-0.5 1.5-0.1 2.4 1.5 3.5 1.3 0.7 7.2 4.2 13.3 7.7 6 3.4 18.4 9.5 27.5 13.4 9.1 3.9 21.2 8.9 27 10.9 5.8 2.1 16.9 5.4 24.7 7.4 7.9 2 15.2 3.7 16.3 3.7 2 0 2-0.7 2-78.6v-78.4c-22.1-10.7-32.3-16.3-37-19.4-4.7-3.2-8.9-5.7-9.3-5.7-0.5 0-5.6 9.8-11.4 21.8-5.8 12-12 24.9-13.8 28.7zm309 137.6c-7.7 3.7-20.8 9.4-29 12.7-8.3 3.3-19.7 7.6-25.5 9.5-5.8 2-15.2 4.7-21 6.1-5.8 1.4-13 2.9-16 3.2-3 0.4-6.3 1.1-7.3 1.6-1.6 0.8-1.7 6.2-1.7 92.9v92c7.3-0.9 16.9-2.3 26-3.6 9.1-1.4 19.9-3.2 24-4.1 4.1-0.9 12.9-2.9 19.5-4.5 6.6-1.7 17.6-4.5 24.5-6.5 6.9-1.9 19-5.6 27-8.3 8-2.7 19.9-7 26.5-9.6 6.6-2.6 19-7.9 27.5-11.7 8.5-3.8 20.8-9.6 27.2-12.9 6.5-3.2 11.8-6.3 11.8-6.8 0-0.6-1.8-5-3.9-9.8-2.2-4.8-8.5-18.2-14.1-29.8-5.7-11.5-12.8-26.4-16-33-3.2-6.6-13.2-27.3-22.2-46-9.1-18.7-18-37.2-19.9-41.2-1.9-4-3.9-7.3-4.4-7.3-0.6 0.1-5.1 2.4-10 5.2-5 2.8-15.3 8.2-23 11.9zm-374.6-1.7c-3.6 7.8-10.9 22.9-16.2 33.7-5.2 10.7-14.5 29.8-20.7 42.4-6.2 12.7-16.6 34.3-23.2 48-6.6 13.8-12.1 26.4-12.2 28-0.1 2.6 0.5 3.3 4.9 5.7 2.7 1.6 11.1 5.6 18.5 8.9 7.4 3.4 20.5 9.1 29 12.6 8.5 3.6 22 8.8 30 11.5 8 2.7 23.9 7.7 35.5 11 11.5 3.3 25 6.9 30 8 4.9 1.1 13.3 2.8 18.5 3.9 5.2 1 15.9 2.8 23.7 3.9 7.9 1.1 15.4 2.1 16.8 2.1h2.5l-0.5-184.4c-29.5-7.3-42.7-11.1-48.5-13.1-5.8-2.1-16.1-5.9-23-8.6-6.9-2.7-22.8-10-35.4-16.3l-23-11.5zm201.1-492.2c2.5-0.1 9.4 0.3 15.5 0.9 6 0.6 13.5 1.5 16.5 2.1 3 0.6 9.4 2.2 14.2 3.5 4.9 1.3 13.2 4.4 18.5 6.8 5.4 2.4 13.4 6.5 17.8 9.1 4.4 2.6 9.8 6.1 12 7.8 2.2 1.7 6.7 5.4 9.9 8.1 3.3 2.8 9.1 8.7 13 13.2 3.9 4.4 9.6 11.8 12.7 16.5 3.1 4.6 7.6 12.2 10.1 16.9 2.4 4.7 6 13.4 8 19.5 2 6 4.4 14.8 5.4 19.5 1.3 6.3 1.7 13.8 1.8 29 0.1 18.1-0.2 21.7-2.3 31-1.3 5.8-3.9 15-5.8 20.5-2 5.5-5 12.9-6.8 16.5-1.8 3.6-6 10.7-9.4 15.7-3.4 5.1-10.7 14.1-16.4 19.9-5.6 5.9-13.6 13.3-17.7 16.6-4.1 3.3-11.1 8.1-15.5 10.7-4.4 2.6-11.6 6.3-16 8.3-4.4 2-10.9 4.5-14.5 5.7-3.6 1.1-11 2.9-16.5 4-5.5 1.1-15 2.3-21 2.7-6.2 0.3-16.3 0.1-23-0.5-6.6-0.7-16.3-2.1-21.5-3.3-5.2-1.1-14.9-4.2-21.5-6.9-6.6-2.7-16.3-7.5-21.5-10.6-5.2-3.2-13.3-9-18-12.9-4.7-3.9-12.3-11.5-17-16.8-4.7-5.4-10.7-13-13.3-16.9-2.7-4-6.8-11-9.2-15.7-2.4-4.7-5.9-13-7.8-18.5-1.9-5.5-4.5-15-5.7-21-1.2-6.1-2.4-15.7-2.7-21.5-0.3-5.8 0-15.4 0.6-21.5 0.7-6.1 2.5-16 4-22 1.6-6.1 4.5-15.1 6.5-20 2.1-5 6.3-13.5 9.4-19 3.1-5.5 9.1-14.3 13.3-19.5 4.2-5.2 11.2-12.9 15.6-17 4.3-4.1 11.3-9.8 15.4-12.6 4-2.8 11.2-7.2 15.9-9.7 4.7-2.6 12.1-6 16.5-7.6 4.4-1.6 12.3-4.1 17.5-5.5 5.2-1.4 13.8-3.2 19-4 5.2-0.8 11.5-1.4 14-1.5z"/></svg>