<svg version="1.2" xmlns="http://www.w3.org/2000/svg" viewBox="0 0 1252 1240" width="1252" height="1240"><style>.a{fill:#fdfefd}</style><path class="a" d="m622.5 0.9c-1.7 0.4-5 1.8-7.5 3.3-2.7 1.5-5.8 4.5-7.7 7.4-1.7 2.7-8.4 15.9-14.8 29.4-6.5 13.5-16.9 35.5-23.2 49-6.4 13.5-15.1 32.1-19.5 41.5-4.4 9.3-16.1 34.1-26 55-9.9 20.9-22.8 47.9-28.6 60-5.8 12.1-12.7 26.9-15.5 33-2.7 6-14.6 31.5-26.4 56.5-11.8 25-23.6 49.5-26.1 54.3-4.6 8.7-4.8 8.8-9.7 10.2-2.8 0.8-12.7 2.6-22 4-9.4 1.5-31 4.9-48 7.7-17.1 2.7-41.1 6.5-53.5 8.4-12.4 1.9-27 4.1-32.5 4.9-5.5 0.8-12.9 1.9-16.5 2.5-3.6 0.5-12.6 1.9-20 3-7.4 1.1-23.9 3.6-36.5 5.5-12.7 1.9-33.1 5.1-45.5 7-12.4 1.9-44.6 6.9-71.5 11-27 4.2-51.3 8.3-54 9.1-2.8 0.8-6.7 2.6-8.8 3.9-2 1.4-4.7 4.4-5.8 6.7-1.3 2.5-2.4 7.1-2.7 10.8-0.4 5.5-0.1 7.3 1.9 11.5 1.8 3.7 9.9 12.7 32.4 35.5 16.5 16.8 56.1 57.3 88.1 90 31.9 32.7 81.1 83.1 109.3 112 28.3 28.9 54.6 56.1 58.7 60.5l7.4 8c-3.1 21.7-6.3 40.1-9 55-2.7 14.8-11.2 61.9-18.9 104.5-7.7 42.6-17.9 99.5-22.6 126.5-4.7 26.9-10.2 57.5-12.1 68-2 10.4-4.7 24.6-6 31.5-1.4 6.9-2.7 17.7-3 24-0.6 11.3-0.6 11.6 2.3 17 2.4 4.5 3.9 6 8.4 8.3 4.9 2.6 6.1 2.8 12.9 2.4 5.1-0.3 9.3-1.3 13-3 3-1.3 10.7-5.3 17-8.7 6.3-3.4 25.7-13.9 43-23.2 17.3-9.4 40.5-21.9 51.5-27.8 11-5.9 27.2-14.7 36-19.5 8.8-4.8 21.8-11.9 29-15.7 7.1-3.9 20.2-10.9 29-15.5 8.8-4.7 28.8-15.5 44.5-24.1 15.7-8.5 36.1-19.6 45.5-24.7 9.3-5.1 24.4-13.2 33.5-18 9.1-4.9 20.4-10.8 25.2-13.2 4.9-2.4 9.4-4.3 10-4.3 0.7 0 4.9 2 9.3 4.4 4.4 2.4 22.4 12.1 40 21.7 17.6 9.5 42.6 22.9 55.5 29.9 12.9 7 30.7 16.7 39.5 21.5 8.8 4.8 22.1 12 29.5 16 7.4 3.9 20.5 11 29 15.7 8.5 4.7 24.3 13.2 35 19 10.7 5.8 28.7 15.5 40 21.5 11.3 6 25 13.4 30.5 16.3 5.5 2.9 18.5 10 29 15.8 10.4 5.8 21.4 11.6 24.2 12.9 2.9 1.3 7.9 2.6 11 3 3.8 0.4 7.6 0.1 10.8-0.8 3.4-0.9 6.3-2.6 9-5.4 2.8-2.7 4.5-5.6 5.5-9 0.9-3.5 1.1-7.5 0.7-13.5-0.4-4.7-1.6-13.7-2.6-20-1.1-6.3-4.9-27.5-8.6-47-3.6-19.5-11.8-64.8-18.1-100.5-6.3-35.8-15.5-87.1-20.5-114-5-27-11-59.8-13.3-73-2.4-13.2-5.4-30.6-6.7-38.7l-2.4-14.6c13.9-15.2 34.6-36.5 54.9-57.1 20.4-20.7 45.1-45.9 55.1-56.1 9.9-10.2 37.4-38.3 61-62.5 23.7-24.2 56.2-57.5 72.4-74 16.2-16.5 34.8-35.9 41.3-43 11-12 11.9-13.4 12.9-18.5 0.6-3 0.9-7.5 0.6-10-0.3-2.5-1.9-6.5-3.4-9-1.9-2.9-4.6-5.4-7.8-7.2-2.8-1.5-8.8-3.4-13.5-4.3-4.7-0.8-19.3-3.1-32.5-5-13.2-2-31-4.6-39.5-6-8.5-1.3-26.1-4-39-6-12.9-2-28.9-4.5-35.5-5.5-6.6-1.1-19.2-3-28-4.4-8.8-1.4-34-5.2-56-8.5-22-3.4-45.9-7-53-8.1-7.2-1.1-20.2-3.1-29-4.4-8.8-1.4-23.4-3.7-32.5-5-9.1-1.4-24.2-3.8-33.7-5.3-13.4-2.2-17.6-3.2-19.2-4.8-1.1-1.1-6.9-12.6-12.9-25.5-6-12.9-17.5-37.3-25.6-54.3-8-16.9-14.6-30.9-14.6-31.2 0-0.3-3.2-7.1-7.1-15.3-3.9-8.1-11.1-23-15.9-33.2-4.8-10.2-21.6-45.7-37.2-79-15.7-33.3-37.2-78.7-47.7-101-10.6-22.3-20.6-42.7-22.4-45.4-1.8-2.7-4.7-6.2-6.5-7.8-1.7-1.5-4.2-3.2-5.5-3.7-1.2-0.5-3.6-1.1-5.2-1.4-1.7-0.3-4.4-0.2-6 0.2z"/></svg>