<svg version="1.2" xmlns="http://www.w3.org/2000/svg" viewBox="0 0 1106 983" width="1106" height="983"><style>.a{fill:#b7b6b7}.b{fill:#fdfdfd}</style><path fill-rule="evenodd" class="a" d="m622.5 0.6c1.6 0.4 4.2 1.3 5.7 2 1.6 0.8 3.7 2.6 4.9 4.1 2 2.6 2.1 3.7 1.6 16.3-0.4 11.1-0.9 15-3.2 22-1.5 4.7-5.1 14.6-8 22-2.9 7.4-10.8 26.3-17.5 42-6.7 15.7-16.6 38.4-22 50.5-5.4 12.1-12.5 28-15.9 35.2-3.3 7.3-6 13.5-5.9 13.7 0.2 0.3 14.9-6.8 32.8-15.7 17.9-9 39.9-19.8 49-24.1 9.1-4.3 34-15.6 55.5-25.1 21.4-9.5 55.4-24.1 75.5-32.5 20.1-8.4 42.8-17.6 50.5-20.5 7.7-2.9 19.4-7.1 26-9.3 6.6-2.3 17.6-5.7 24.5-7.7 10-3 14.8-3.8 24-4.2 7.2-0.4 12.8-0.2 15 0.5 1.9 0.6 4.6 2.3 6 3.8 1.7 1.8 2.6 4 2.9 7.2 0.2 2.8-0.4 7-1.4 10.2-0.9 3-3.2 8.2-5 11.5-1.8 3.3-7.2 11.2-12 17.5-4.8 6.3-13.4 16.9-19 23.5-5.6 6.6-18.2 20.5-28 31-9.8 10.4-23.9 25.3-31.4 33-7.5 7.7-16.4 16.9-25.6 26.9l9.5 1.8c7.4 1.3 8.1 1.5 3 1-3.6-0.3-8.4-0.7-14.8-0.7l-65.8 67c-36.2 36.8-90.4 91.5-120.4 121.5-30 30-59 58.4-64.5 62.9-5.5 4.6-12.5 10.1-15.5 12.1-3 2-8 5-11 6.5-3 1.5-8.7 3.9-12.5 5.2-3.9 1.3-13.1 3.6-20.5 5.3-7.4 1.6-19.6 3.6-27 4.4-7.4 0.9-24.8 2.1-38.5 2.7-14.4 0.7-37.1 0.9-53.5 0.5-15.7-0.3-33.9-1.1-40.5-1.6-6.6-0.6-18.1-1.7-25.5-2.6-7.4-0.8-16.9-1.9-21-2.5-4.1-0.6-13.4-1.9-20.5-3-7.2-1.1-17.3-2.9-22.5-4-5.2-1.1-14-3.1-19.5-4.5-5.5-1.4-11.6-3.2-13.5-4-1.9-0.8-4.7-2.7-6.3-4.2-2.3-2.3-2.7-3.5-2.7-7.7 0-3.2 0.9-7 2.6-10.5 1.4-3 5.1-9.3 8.1-14 3.1-4.7 8.3-12.3 11.6-17 3.4-4.7 12.6-16.4 20.6-26 8-9.6 23.7-26.8 35.1-38.1 12.2-12.3 24.5-23.5 30.5-27.9 5.5-4.1 16.3-11.7 24-16.8 7.7-5.2 21.4-13.8 30.5-19.2 9.1-5.3 22.1-12.9 29-16.7 6.9-3.9 17.4-9.7 23.5-13 6-3.4 23.1-12.5 38-20.3 14.8-7.8 35.1-18.8 45-24.3 9.9-5.5 21.1-11.9 25-14.1 6-3.5 6.6-4.1 4.5-4.4-1.4-0.2-8.4 0.6-15.5 1.8-7.2 1.1-14.8 2.3-17 2.6-2.2 0.3-9.9 1.6-17 2.9-7.2 1.3-22 4.3-33 6.5-11 2.3-31.3 7.1-45 10.6-13.8 3.5-31.5 8.2-39.5 10.4-8 2.2-23.7 7-35 10.6-11.3 3.7-21.2 6.8-22 7.1-0.8 0.2-0.4-0.2 1-1 1.4-0.8 10.2-10 19.6-20.3 9.4-10.4 34.4-36.5 55.6-57.9 21.2-21.5 49.5-49.4 62.9-62.1 13.4-12.7 33.6-31.4 44.9-41.5 11.3-10.1 26.1-23.2 33-29 6.9-5.8 17.9-14.8 24.5-20 6.6-5.2 16.3-12.7 21.5-16.6 5.2-3.8 14.9-10.6 21.5-15.1 6.6-4.4 14.2-9.2 17-10.6 2.7-1.4 7.5-3.5 10.5-4.6 3.4-1.2 6.6-1.7 8.5-1.4zm-144.5 337.9c-10.7 3.2-29.4 9.1-41.5 13.2-12.1 4.2-26.3 9.2-31.5 11.3-5.2 2.1-16 6.7-24 10.2-8 3.6-20.4 9.6-27.5 13.5-7.2 3.8-17.5 9.8-23 13.1-5.5 3.4-15.4 10.4-21.9 15.5-6.6 5-17.6 14.8-24.5 21.7-6.9 6.9-16.8 17.5-22 23.5-5.2 6.1-10.4 12-11.5 13.3q-2.1 2.2-1.1 3.2c0.5 0.6 11.8 3.2 25 5.9 14.4 2.9 29.8 5.4 38.5 6.1 8 0.7 24.2 1.3 36 1.4 18 0.1 22.3-0.2 26.5-1.6 2.7-1 7.9-3.6 11.5-5.9 3.6-2.3 9.6-6.7 13.5-9.8 3.8-3.1 11.5-9.4 17-14 5.5-4.7 18.4-16.8 28.6-27 10.2-10.2 22.4-23.3 27-29.1 4.7-5.8 11.6-14.8 15.3-20 3.8-5.2 9.3-13.6 12.4-18.5 3.1-5 8.9-15.4 12.9-23.3l7.3-14.2c-4.3 0.1-9.6 1.5-14.5 3-5 1.5-17.8 5.4-28.5 8.5zm-179.1-57.5c0.8 0 1.2 0.2 1 0.4-0.2 0.2-3.6 1.6-7.4 3-3.9 1.4-7.1 2.5-7.3 2.4-0.1-0.2 2.6-1.5 6-3 3.5-1.5 6.9-2.7 7.7-2.8zm-107.2 51c0.2 0 0.3 0.1 0.3 0.2 0.1 0.2-3.1 2.4-7 5-3.8 2.7-7.1 4.6-7.1 4.3-0.1-0.2 2.9-2.5 6.7-5 3.8-2.5 7-4.5 7.1-4.5zm823 33.1c0.2-0.1 0.3 0.1 0.3 0.4 0 0.3-2.1 1.6-4.8 2.9-2.6 1.3-5.8 2.6-7.2 3-1.4 0.3 0.6-1 4.5-2.8 3.8-1.9 7.1-3.5 7.2-3.5zm-898 23.9c0.2 0 0.3 0.1 0.3 0.2 0 0.2-5.7 5.9-25.5 25.3l12.5-12.8c6.9-7 12.6-12.7 12.7-12.7zm-70.2 82c0.2 0-1.7 3.2-4.3 7-2.6 3.9-4.8 7.1-5 7-0.1 0 0.1-0.6 0.5-1.3 0.3-0.6 2.4-3.8 4.5-7 2.1-3.1 4-5.7 4.3-5.7zm-24.1 39c0.2 0-2.1 5.2-5.3 11.5-3.1 6.3-5.7 11.2-5.9 11-0.1-0.3 2.3-5.5 5.3-11.5 3-6.1 5.7-11 5.9-11zm-11.9 24.2c0 0.2-1.2 4.2-2.8 8.8-1.6 4.7-3.8 12.3-4.8 17-1.5 6.8-1.8 7.4-1.3 3 0.3-3 1.5-8.4 2.6-12 1.1-3.6 3-8.9 4.1-11.8 1.2-2.9 2.1-5.2 2.2-5zm-9.8 39.3c0.2 2.2 0.2 6 0 8.5-0.2 2.5-0.4 0.7-0.4-4 0-4.7 0.2-6.7 0.4-4.5zm222.3 21.9c13.5 0 18.9 0.2 12 0.3-6.9 0.2-17.9 0.2-24.5 0-6.6-0.1-1-0.3 12.5-0.3zm848.9 146.1c1.2 1.1 2.9 3.2 3.7 4.7 0.8 1.6 1.4 4 1.3 5.5 0 2.1-0.3 1.6-1.2-1.8-0.7-2.6-2.3-6-3.7-7.5-2.4-2.7-2.4-2.8-0.1-0.9zm-102.1 172.6c0.2-0.1-2.8 3.4-6.7 7.6-3.8 4.3-14.2 15-23 23.8-8.9 8.8-16.1 15.8-16.1 15.5 0-0.3 10.3-10.9 22.8-23.7 12.5-12.7 22.8-23.2 23-23.2z"/><path class="b" d="m516 229.1c-2.5 0.5-10.6 1.8-18 2.9-7.4 1.1-18.2 2.8-24 3.9-5.8 1.1-19.5 3.8-30.5 6.1-11 2.3-31.3 7.1-45 10.6-13.8 3.5-31.5 8.2-39.5 10.4-8 2.2-23.1 6.8-33.5 10.1-10.5 3.4-26 8.7-34.5 11.9-8.5 3.2-23.4 9.2-33 13.3-9.6 4.1-21.8 9.6-27 12.2-5.2 2.6-14 7.3-19.5 10.3-5.5 3.1-19.9 12.3-32 20.3-12.1 8.1-26.3 18.1-31.5 22.3-5.2 4.3-15.3 12.7-22.4 18.9-7.1 6.2-18.5 17.1-25.5 24.2-6.9 7.2-17.3 18.7-23 25.5-5.8 6.9-14.5 17.9-19.4 24.5-5 6.6-11.5 15.8-14.7 20.5-3.1 4.7-8.7 13.6-12.3 19.7-3.7 6.2-9.6 17-13.1 24-3.5 7.1-8 17.5-10 23.3-2 5.8-4.4 14.3-5.3 19-1.1 6-1.4 11.6-1 19 0.4 7.3 1.3 13 3.1 18.5 1.4 4.4 3.9 10.2 5.5 13 1.6 2.7 5 7.4 7.7 10.4 2.7 3 8.5 8.2 12.9 11.7 4.8 3.8 10 7 13 8 3.2 1 6.5 1.3 9 0.9 2.8-0.4 7.6-3.2 16-9.1 6.6-4.7 15.1-10.4 19-12.7 3.8-2.3 11.3-6 16.5-8.4 5.2-2.4 15-6.1 21.7-8.3 6.8-2.2 15.3-4.6 19-5.4 3.8-0.8 13.1-2.3 20.8-3.2 11.9-1.6 22-1.8 66.6-1.9 45.3 0 52.8 0.2 54.4 1.5 1 0.8 4.3 5.3 7.4 10 3.1 4.7 9.7 14.3 14.5 21.5 4.9 7.1 9.2 13.2 9.6 13.5 0.3 0.3 2.8 3.2 5.4 6.5 2.6 3.3 7.7 9 11.2 12.7 3.5 3.8 8.5 8.5 11.1 10.6 2.7 2.1 6.6 4.4 8.8 5.1 3.5 1.1 4.6 1.1 8.5-0.5 2.5-1 7.2-3.6 10.4-5.8 3.2-2.3 10.7-8.1 16.5-13 5.8-4.9 11.5-9.8 12.7-11 1.1-1.1 5.5-5.3 9.8-9.1 4.3-3.9 12.2-11.1 17.5-16.1 9.3-8.8 9.7-9.1 12.6-8 1.7 0.6 4.5 2.1 6.3 3.3 1.7 1.3 3.5 2.3 3.9 2.3 0.5 0 3 1.5 5.8 3.3 2.7 1.7 5.6 3.6 6.3 4.2 0.7 0.5 2.8 2.5 4.7 4.2 2 1.9 3.8 4.7 4.1 6.5 0.3 1.8 0.4 4.2 0 5.3-0.3 1.1-2.8 5.6-5.7 10-2.8 4.4-8.1 11.6-11.8 16-3.6 4.4-8 9.5-9.6 11.4-1.7 1.9-5 5.5-7.5 8-2.5 2.6-8.3 8.1-13 12.2-4.7 4-10.3 8.7-12.4 10.4-2.1 1.6-4.4 3.4-5 4-0.6 0.5-4.3 3.5-8.1 6.6-3.9 3.1-11.5 8.8-17 12.7-5.5 3.8-12.3 8.2-15 9.7-2.8 1.6-5.2 3.1-5.5 3.5-0.3 0.4-3.7 2.4-7.5 4.6-3.9 2.1-10.2 5.5-14 7.6-3.9 2.1-9.8 5.3-13.2 7.1-5.4 2.8-6.5 3-8.5 2-1.3-0.7-3.2-1.9-4.2-2.5-1.1-0.7-2.5-1.6-3-2.1-0.6-0.4-2.2-1.7-3.6-3-1.4-1.2-4.8-4-7.5-6.2-2.7-2.2-5.9-4.9-7.1-6-1.2-1.1-3.8-3.4-5.9-5-2-1.7-4.7-3.9-6-5-1.2-1.1-3.9-3.4-6-5-2-1.7-4.5-3.7-5.5-4.5-1-0.8-3.5-2.9-5.5-4.5-2.1-1.7-5.4-4-7.4-5.2-2-1.2-6.4-3.5-9.9-5.2-3.4-1.7-7-3.1-8-3.1-0.9 0-3.3 0.6-5.2 1.4-1.9 0.8-4.7 2.7-6.2 4.3-1.5 1.5-3.2 4-3.7 5.5-0.6 1.6-1.3 4-1.6 5.5-0.3 1.6-0.9 5.3-1.5 8.3-0.6 3-0.8 9.8-0.5 15 0.2 5.2 0.7 14 1.1 19.5 0.3 5.5 0.7 10.7 0.9 11.5 0.2 0.8 0.6 6.7 1 13 0.4 6.3 0.7 11.7 0.7 12 0 0.3 0 1.2 0 2-0.1 0.8-2.1 2.8-4.4 4.5-2.4 1.6-4.5 3.2-4.8 3.5-0.3 0.3-1.6 1-3 1.6-1.4 0.6-3.6 1.6-5 2.1-1.4 0.6-3.6 1.5-5 2-1.4 0.5-5.6 2.5-9.4 4.4-3.7 1.9-8.4 5-10.4 6.9-1.9 1.9-4.1 5-4.9 6.7-0.7 1.8-1.3 4.8-1.3 6.5 0 1.8 1.2 5.8 2.7 8.8 1.5 3 5.9 8.8 9.8 12.9 3.8 4.1 9.9 9.3 13.5 11.6 3.6 2.3 9.6 5.6 13.5 7.4 3.8 1.8 9.2 4.2 12 5.2 2.7 1 8.4 2.7 12.5 3.9 4.1 1.1 9.1 2.3 11 2.6 1.9 0.2 4.6 0.7 6 0.9 1.4 0.3 5.6 0.8 9.5 1.2 3.8 0.5 14.6 0.7 24 0.6 9.3-0.1 21-0.4 26-0.7 4.9-0.4 11.2-0.9 14-1.2 2.7-0.3 8.1-1.2 12-1.9 3.8-0.7 9-1.6 11.5-1.9 2.5-0.4 5.8-0.9 7.5-1.1 1.6-0.3 6.8-1.7 11.5-3 4.7-1.3 14.6-4.1 22-6 7.4-2 15.7-4.2 18.5-5 2.7-0.7 7-2 9.5-2.8 2.5-0.9 8.1-2.8 12.5-4.2 4.4-1.5 9.6-3.1 11.5-3.6 1.9-0.4 9.2-2.4 16.2-4.4 7.1-1.9 13-3.5 13.3-3.5 0.3 0 0.6 0 0.7-0.1 0.2 0 1.4-0.2 2.8-0.5 1.4-0.2 3.2-0.7 4-1.1 0.8-0.3 2.2-0.7 3-0.8 0.8-0.1 2.2-0.4 3-0.7 0.8-0.3 4.6-1.4 8.5-2.4 3.8-0.9 7.9-1.9 9-2 1.1-0.1 3.3-0.5 5-0.8 1.6-0.3 4.6-0.8 6.5-1.1 1.9-0.3 5.3-0.7 7.5-1 2.2-0.2 6-0.8 8.5-1.2 2.5-0.4 16.9-0.8 32-0.8 15.1 0 29.5 0.4 32 0.8 2.5 0.5 5.6 1.1 7 1.3 1.4 0.3 4.1 0.7 6 1 1.9 0.3 4.6 0.8 6 1.1 1.4 0.4 3.2 0.8 4 0.9 0.8 0.1 3.1 0.5 5 0.9 1.9 0.3 3.7 0.8 4 1 0.3 0.2 1.6 0.6 3 0.8 1.4 0.3 5.6 1.6 9.5 2.8 3.8 1.2 7.3 2.2 7.7 2.1 0.5-0.1 0.8 0.2 0.8 0.8 0 0.5 0.8 1 1.7 1 1 0 3.8 0.7 6.3 1.6 2.5 0.9 10.8 4.1 18.5 7.1 7.7 3 16.9 6.8 20.5 8.4 3.6 1.6 6.8 2.9 7.2 2.9 0.5 0 4.7 1.8 9.5 4.1 4.9 2.3 9.5 4.5 10.3 5 0.8 0.5 9.4 4.8 19 9.6 9.6 4.9 18.1 9.4 18.7 10 0.7 0.7 2 1.3 2.8 1.3 0.8 0 1.5 0.4 1.5 1 0 0.5 0.6 1 1.2 1 0.7 0 4.9 2.1 9.3 4.6 4.4 2.6 8.3 5.3 8.7 6 0.5 0.8 1.2 1.4 1.8 1.4 0.5 0 16.9 10.5 36.2 23.4 19.4 12.9 38.4 24.9 42.3 26.6 6 2.8 8.1 3.2 14.5 3.2 5.1 0 9.3-0.7 13-2.2 3-1.1 9.1-4.6 13.5-7.8 4.5-3.2 18.2-15.9 31.6-29.2 12.9-12.9 29.3-30.3 36.4-38.5 7-8.3 16.4-19.7 20.9-25.5 4.5-5.8 14-18.6 21.1-28.5 7.1-9.9 21.5-30.8 32-46.5 10.4-15.7 20.3-31.2 21.9-34.5 1.6-3.3 3.1-7.4 3.3-9 0.3-1.7 0-5.5-0.6-8.5-0.6-3-2.1-6.8-3.3-8.4-1.3-1.6-9.6-7.7-18.5-13.5-8.9-5.8-26.7-17.1-39.5-24.9-12.8-7.9-39.3-24-58.8-35.9-19.5-11.8-37.1-22.5-39-23.7-1.9-1.3-6.9-4.5-11-7.1-4.1-2.7-12.2-8-18-11.9-5.8-3.9-13-8.8-16-10.9-3-2.1-10.7-7.5-17-11.9-6.3-4.5-14-10.2-17.1-12.7-3.1-2.5-7.4-6-9.5-7.7-2.1-1.8-6.8-5.8-10.4-9-3.5-3.3-9.5-8.9-13.2-12.7-3.8-3.7-9.2-10-12.2-14-2.9-3.9-6.2-9-7.4-11.2-1.1-2.2-2.5-6.9-3.2-10.5-0.6-3.6-0.9-8.8-0.6-11.5 0.3-2.8 1.9-7.7 3.6-11 2-4.1 5.6-8.6 11.2-14.1 4.6-4.4 10.3-9.7 12.8-11.7 2.5-2 5.1-3.7 5.7-3.7 0.7 0 1.3-0.5 1.3-1 0-0.6 0.4-1 1-1 0.5 0 3.4-1.7 6.2-3.8 2.9-2.1 9.3-6.2 14.3-9.2 4.9-3 10.3-6.5 12-7.7 1.6-1.2 3.3-2.3 3.7-2.3 0.5 0 4.1-2 8-4.3 4-2.4 8.6-5.1 10.3-5.9 1.6-0.8 5.7-3 9-4.8 3.3-1.8 7.7-4.4 9.7-5.7 2.1-1.3 3.8-2.1 3.8-1.8 0 0.3 1.9-0.8 4.2-2.4 2.4-1.6 4.5-2.8 4.8-2.7 0.3 0 2.3-1 4.5-2.3 2.2-1.4 7.6-4.4 12-6.8 4.4-2.4 24.4-12.5 44.5-22.4 20.1-10 45-22.2 55.5-27.1 10.4-5 23.9-11.3 30-14 6-2.7 19.3-8.6 29.5-13 10.2-4.5 20-9.1 21.9-10.2 1.9-1.2 3.8-2.9 4.2-3.9 0.5-0.9 0.7-2.5 0.4-3.5-0.3-0.9-2.6-3.1-5.2-4.8-2.7-1.7-8-4.7-11.8-6.7-3.9-1.9-11.7-5.5-17.5-8-5.8-2.4-16.6-6.6-24-9.2-7.4-2.7-18.5-6.4-24.5-8.2-6.1-1.9-21.4-6.3-34-9.7-12.7-3.5-25.9-7.1-29.5-7.9-3.6-0.9-13-3.2-21-5.1-8-1.8-15.9-3.7-17.5-4-1.7-0.4-4.4-0.8-6-1.1-1.7-0.2-3.9-0.6-5-0.9-1.1-0.3-4.9-1.2-8.5-2.1-3.6-0.9-7.9-1.8-9.5-2-1.7-0.2-4.8-0.6-7-1-2.2-0.3-4.7-0.8-5.5-1.1-0.8-0.4-3.5-0.8-6-1-2.5-0.2-5.6-0.6-7-0.9-1.4-0.2-3.6-0.7-5-1-1.4-0.2-4.8-0.7-7.5-1-2.8-0.3-9.3-1.2-14.5-2-5.2-0.7-16.3-2.1-24.5-3.1l-15-1.7c-15.5 16.1-48.3 49.6-82.9 84.8-34.6 35.2-84.3 85.4-110.5 111.5-26.2 26.1-52.1 51.3-57.6 55.9-5.5 4.6-12.5 10.1-15.5 12.1-3 2-8 5-11 6.5-3 1.5-8.7 3.9-12.5 5.2-3.9 1.3-13.1 3.6-20.5 5.3-7.4 1.6-19.6 3.6-27 4.4-7.4 0.9-24.8 2.1-38.5 2.7-14.4 0.7-37.1 0.9-53.5 0.5-15.7-0.3-33.9-1.1-40.5-1.6-6.6-0.6-18.1-1.7-25.5-2.6-7.4-0.8-16.9-1.9-21-2.5-4.1-0.6-13.4-1.9-20.5-3-7.2-1.1-17.3-2.9-22.5-4-5.2-1.1-14-3.1-19.5-4.5-5.5-1.4-11.6-3.2-13.5-4-1.9-0.8-4.7-2.7-6.3-4.2-2.3-2.3-2.7-3.5-2.7-7.7 0-3.2 0.9-7 2.6-10.5 1.4-3 5.1-9.3 8.1-14 3.1-4.7 8.3-12.3 11.6-17 3.4-4.7 12.6-16.4 20.6-26 8-9.6 23.7-26.8 35.1-38.1 12.2-12.3 24.5-23.5 30.5-27.9 5.5-4.1 16.3-11.7 24-16.8 7.7-5.2 21.4-13.8 30.5-19.2 9.1-5.3 22.1-12.9 29-16.7 6.9-3.9 17.4-9.7 23.5-13 6-3.4 23.1-12.5 38-20.3 14.8-7.8 35.1-18.8 45-24.3 9.9-5.5 21-11.8 24.7-13.9 3.8-2.1 6.8-4 6.8-4.3 0-0.3-1.7-0.5-3.8-0.4-2 0.1-5.7 0.5-8.2 1z"/></svg>