<svg version="1.2" xmlns="http://www.w3.org/2000/svg" viewBox="0 0 1434 1346" width="1434" height="1346"><defs><clipPath clipPathUnits="userSpaceOnUse" id="cp1"><path d="m657-336.94c-5.77 0.43-14.33 1.06-19 1.4-4.67 0.35-17.27 1.52-28 2.61-10.73 1.09-24.67 2.68-31 3.53-6.33 0.85-18.48 2.63-27 3.95-8.52 1.32-25.63 4.46-38 6.99-12.38 2.52-27 5.69-32.5 7.04-5.5 1.36-17.65 4.51-27 7.01-9.35 2.5-23.3 6.36-31 8.57-7.7 2.22-18.5 5.6-24 7.52-5.5 1.93-12.02 4.11-14.5 4.87-2.48 0.76-9.23 3.15-15 5.32-5.77 2.17-20.17 7.76-32 12.42-11.83 4.65-27.8 11.26-35.5 14.67-7.7 3.41-26.6 12.44-42 20.08-15.4 7.63-34.39 17.61-42.2 22.17-7.82 4.56-17.94 10.44-22.5 13.07-4.57 2.62-12.44 7.35-17.49 10.5-5.06 3.14-15.54 9.77-23.3 14.72-7.76 4.95-20.94 13.89-29.31 19.87-8.36 5.98-21.72 15.84-29.7 21.91-7.98 6.07-14.73 11.33-15 11.68-0.27 0.36-5 4.18-10.5 8.51-5.5 4.32-11.59 9.25-13.52 10.95-1.94 1.69-5.72 4.88-8.39 7.08-2.68 2.2-6.09 5.12-7.59 6.5-1.5 1.37-6.95 6.31-12.11 10.96-5.17 4.65-14.99 13.88-21.83 20.5-6.85 6.62-14.9 14.52-17.89 17.54-3 3.02-11.8 12.25-19.56 20.51-7.76 8.26-19.51 21.25-26.11 28.87-6.6 7.63-17.79 21.12-24.88 29.99-7.08 8.87-17.24 21.98-22.59 29.13-5.34 7.15-17.59 24.7-27.22 39-9.62 14.3-22.91 35-29.53 46-6.62 11-15.49 26.3-19.7 34-4.22 7.7-13.67 26.15-21.01 41-7.35 14.85-16.83 34.88-21.09 44.5-4.25 9.62-10.2 23.8-13.21 31.5-3.02 7.7-7.06 18.27-8.98 23.5-1.92 5.23-6.61 18.73-10.42 30-3.81 11.27-8.23 25-9.83 30.5-1.6 5.5-4.56 16.3-6.58 24-2.01 7.7-5.83 23-8.47 34-2.65 11-6.42 28.55-8.39 39-1.96 10.45-4.67 26.42-6.03 35.5-1.36 9.08-3.59 26.17-4.97 38-1.38 11.83-3.32 32.08-4.3 45-1.42 18.56-1.8 34.96-1.8 78 0 34.6 0.47 60.89 1.28 72 0.71 9.62 1.48 19.3 1.71 21.5 0.24 2.2 0.93 8.95 1.54 15 0.61 6.05 2.22 19.55 3.58 30 1.35 10.45 3.37 24.4 4.47 31 1.11 6.6 4.07 22.12 6.57 34.5 2.51 12.37 6.5 30.37 8.88 40 2.38 9.62 6.65 26.05 9.49 36.5 2.84 10.45 8.67 29.58 12.96 42.5 4.29 12.92 9.69 28.45 12 34.5 2.31 6.05 7.28 18.65 11.03 28 3.76 9.35 8.83 21.5 11.27 27 2.44 5.5 7.22 15.85 10.63 23 3.41 7.15 9.6 19.75 13.76 28 4.15 8.25 9.39 18.37 11.63 22.5 2.24 4.12 6.24 11.21 8.89 15.75 2.64 4.54 4.81 8.47 4.81 8.75 0 0.28 4.43 7.81 9.85 16.75 5.42 8.94 11.38 18.72 13.25 21.75 1.87 3.03 3.74 5.61 4.15 5.75 0.41 0.14 0.75 0.7 0.75 1.25 0 0.55 3.47 6.29 7.72 12.75 4.24 6.46 11.53 17.15 16.21 23.75 4.67 6.6 11.41 15.83 14.98 20.5 3.56 4.67 7.63 9.91 9.04 11.63 1.4 1.73 3.67 4.63 5.05 6.46 1.37 1.83 7.16 8.97 12.85 15.87 5.7 6.9 12.22 14.77 14.5 17.5 2.28 2.73 9.77 11.28 16.65 19 6.87 7.72 22.62 24.2 35 36.61 12.37 12.41 27.23 27.05 33 32.52 5.77 5.47 16.57 15.16 24 21.54 7.43 6.37 19.41 16.26 26.63 21.98 7.21 5.71 17.11 13.43 22 17.15 4.88 3.71 12.92 9.75 17.87 13.43 4.95 3.67 18.45 13.05 30 20.84 11.55 7.79 29.1 19.05 39 25.02 9.9 5.97 20.93 12.5 24.5 14.51 3.58 2.01 12.35 6.93 19.5 10.94 7.15 4.01 25.6 13.47 41 21.01 15.4 7.55 36.1 17.21 46 21.46 9.9 4.25 23.62 9.98 30.5 12.73 6.87 2.75 19.7 7.61 28.5 10.8 8.8 3.18 27.02 9.17 40.5 13.3 13.48 4.13 27.2 8.28 30.5 9.22 3.3 0.93 8.48 2.35 11.5 3.15 3.02 0.8 10.67 2.78 17 4.4 6.33 1.62 17.8 4.28 25.5 5.9 7.7 1.62 21.42 4.31 30.5 5.97 9.08 1.66 23.7 4.13 32.5 5.5 8.8 1.36 20.05 2.95 25 3.52 4.95 0.58 10.8 1.26 13 1.51 2.2 0.26 10.75 1.16 19 2.01 8.25 0.85 23.55 2.04 34 2.64 10.45 0.6 36.55 1.32 58 1.6 24.05 0.32 48.01 0.06 62.5-0.67 12.92-0.66 33.17-2.07 45-3.14 11.83-1.06 26.67-2.64 33-3.52 6.33-0.87 21.17-3.14 33-5.04 11.83-1.91 31.85-5.45 44.5-7.88 12.65-2.43 28.4-5.8 35-7.49 6.6-1.69 20.1-5.34 30-8.12 9.9-2.77 24.53-7.01 32.5-9.4 7.97-2.4 19.67-6.15 26-8.33 6.33-2.18 18.25-6.52 26.5-9.65 8.25-3.13 21.53-8.32 29.5-11.53 7.97-3.22 20.58-8.5 28-11.75 7.42-3.24 26.1-12.1 41.5-19.7 15.4-7.59 35.42-18.07 44.5-23.29 9.08-5.21 20.33-11.76 25-14.54 4.67-2.79 15.47-9.54 24-15.02 8.53-5.47 21.58-13.99 29-18.93 7.42-4.93 17.55-11.94 22.5-15.57 4.95-3.62 16.87-12.68 26.5-20.11 9.62-7.44 18.85-14.71 20.5-16.15 1.65-1.44 9.75-8.39 18-15.45 8.25-7.06 15.49-13.31 16.1-13.89 0.6-0.58 5.54-5.1 10.98-10.05 5.45-4.95 13.05-11.92 16.91-15.5 3.86-3.58 15.89-15.72 26.74-27 10.85-11.28 20.97-22.03 22.5-23.9 1.52-1.86 4.05-4.79 5.62-6.5 1.57-1.7 4.5-4.9 6.5-7.11 2.01-2.2 6.28-7.15 9.49-11 3.21-3.84 6.59-7.9 7.5-9.01 0.91-1.12 4.13-4.94 7.16-8.5 3.03-3.57 5.95-7.03 6.5-7.7 0.55-0.66 1.47-1.79 2.03-2.5 0.57-0.7 3.95-5.06 7.5-9.68 3.56-4.62 9.82-12.94 13.91-18.5 4.09-5.55 9.64-13.25 12.34-17.1 2.69-3.85 9.49-13.97 15.11-22.5 5.61-8.53 12.84-19.78 16.05-25 3.22-5.22 6.84-11.08 8.05-13 1.21-1.92 4-6.65 6.2-10.5 2.21-3.85 5.94-10.38 8.3-14.5 2.36-4.13 5.07-8.63 6.02-10 0.95-1.38 8.89-16.9 17.64-34.5 8.76-17.6 18.33-37.63 21.26-44.5 2.93-6.88 6.9-16.1 8.81-20.5 1.91-4.4 7.41-18.35 12.24-31 4.82-12.65 11.04-29.75 13.81-38 2.77-8.25 6.42-19.5 8.1-25 1.69-5.5 5.61-19.45 8.72-31 3.11-11.55 6.5-24.38 7.54-28.5 1.03-4.13 3.46-15.15 5.4-24.5 1.94-9.35 4.44-22.17 5.55-28.5 1.12-6.33 3.16-18.25 4.53-26.5 1.37-8.25 3.56-24.9 4.86-37 1.3-12.1 2.63-24.81 2.95-28.25 0.32-3.44 0.79-8.84 1.05-12 0.26-3.16 0.97-12.72 1.59-21.25 0.72-9.99 0.97-35.57 0.68-72-0.24-31.08-0.93-62.58-1.53-70-0.6-7.42-1.58-18-2.17-23.5-0.59-5.5-1.97-17.65-3.06-27-1.09-9.35-2.93-23.08-4.08-30.5-1.16-7.42-3.66-22.05-5.56-32.5-1.91-10.45-4.14-22.38-4.95-26.5-0.82-4.13-2.62-12.45-4.01-18.5-1.38-6.05-3.57-14.83-4.87-19.5-1.3-4.67-4.01-14.58-6.02-22-2.02-7.42-4.8-17.1-6.18-21.5-1.38-4.4-4.54-14.3-7.01-22-2.47-7.7-5.52-16.92-6.78-20.5-1.26-3.58-6.14-16.17-10.84-28-4.69-11.83-11.53-28.48-15.18-37-3.65-8.52-14.19-30.58-23.41-49-9.22-18.42-19.84-38.9-23.58-45.5-3.75-6.6-11.55-19.88-17.34-29.5-5.78-9.63-14.1-22.9-18.48-29.5-4.38-6.6-11.82-17.63-16.53-24.5-4.71-6.88-13.04-18.57-18.51-26-5.47-7.43-16.06-21.15-23.53-30.5-7.47-9.35-14.56-18.13-15.74-19.5-1.19-1.38-5.65-6.55-9.91-11.5-4.26-4.95-12.29-13.95-17.85-20-5.55-6.05-16.4-17.46-24.11-25.36-7.7-7.9-20.11-20.05-27.55-27-7.45-6.95-15.56-14.44-18.01-16.64-2.45-2.2-8.06-7.16-12.46-11.02-4.39-3.86-10.46-9.08-13.49-11.61-3.03-2.52-8.27-6.79-11.66-9.48-3.39-2.69-8.51-6.69-11.37-8.89-2.86-2.2-7.06-5.49-9.34-7.31-2.27-1.82-4.8-3.85-5.63-4.5-0.83-0.66-4.88-3.71-9-6.78-4.13-3.07-11.66-8.59-16.75-12.25-5.09-3.66-18.81-13.02-30.5-20.8-11.69-7.78-27.78-18.05-35.75-22.82-7.97-4.77-22.38-13.1-32-18.5-9.63-5.41-27.29-14.71-39.25-20.68-11.96-5.98-21.86-10.85-22-10.83-0.14 0.01-5.65-2.52-12.25-5.62-6.6-3.11-17.17-7.88-23.5-10.61-6.33-2.72-20.28-8.34-31-12.47-10.72-4.14-27.83-10.41-38-13.95-10.17-3.54-23.9-8.04-30.5-10-6.6-1.96-19.88-5.74-29.5-8.4-9.63-2.65-22.9-6.18-29.5-7.85-6.6-1.66-24.38-5.52-39.5-8.57-15.13-3.05-36.72-6.89-48-8.53-11.28-1.65-28.38-3.87-38-4.95-9.63-1.08-23.8-2.45-31.5-3.06-7.7-0.61-18.95-1.54-25-2.06-6.05-0.53-33.72-0.89-61.5-0.82-27.77 0.08-55.23 0.49-61 0.92z"/></clipPath></defs><style>.a{fill:#fff}</style><g clip-path="url(#cp1)"></g><path fill-rule="evenodd" class="a" d="m1188 134.1c7.9-0.1 10.9 0.4 17.5 2.7 4.4 1.5 11.9 5.3 16.8 8.5 4.8 3.1 12.4 9.2 16.9 13.5 4.4 4.2 10.8 11.3 14.1 15.7 3.3 4.4 7.4 10.9 9.2 14.5 1.8 3.6 4.1 10.3 5 15 1.4 6.6 1.7 11.4 1.2 21.5-0.3 7.1-1.5 17.7-2.6 23.5-1.1 5.8-3.2 14-4.6 18.3-1.4 4.2-5.4 13.7-8.9 21-3.5 7.2-8.6 16.6-11.3 20.7-2.7 4.1-13.1 17.6-23 30-9.9 12.4-22.5 26.8-27.9 32-5.5 5.2-15.9 14.5-23.3 20.5-7.4 6.1-20.5 15.6-29 21.3-8.6 5.6-18.5 12-22.1 14.2-4.2 2.6-7.7 4-10 4-2.4 0-4.2-0.7-5.7-2.2-1.2-1.3-2.6-3.5-3.2-5-0.6-1.6-1.4-5.8-1.7-9.5-0.4-3.8-0.1-10.2 0.5-14.3 0.7-4.1 2.2-9.5 3.4-11.9 1.3-2.7 4.5-6.3 8.2-9.1 3.3-2.6 12.5-8.9 20.5-14 8-5.1 17.2-11.3 20.5-13.9 3.3-2.5 11.9-10.4 19.1-17.6 7.1-7.1 16.4-17.5 20.6-23 4.1-5.5 10.5-14.7 14.2-20.5 3.7-5.8 9.2-15.5 12.1-21.5 3-6 6.1-13.7 7-17 0.9-3.3 1.8-10.5 2.1-16 0.4-7.2 0.1-12.1-1-17.5-0.9-4.1-3.2-10.8-5.1-14.7-2-4.1-5.8-9.8-8.7-12.9-3-3.1-7.7-6.7-10.8-8.2-5.1-2.5-6.4-2.7-18.5-2.7-11.7 0.1-13.8 0.3-21 2.9-4.4 1.6-12.5 5.1-18 7.8-5.5 2.8-14.5 8-20 11.6-5.5 3.5-12.2 8.3-15 10.5-2.7 2.3-7.1 6-9.6 8.2-2.5 2.2-7.6 7.6-11.4 12-3.8 4.4-12.4 14.1-19 21.5-6.7 7.4-15 17.1-18.6 21.5-3.6 4.4-11.1 14.1-16.7 21.5-5.5 7.4-12.4 17.3-15.4 22-2.9 4.7-6.2 11.1-7.3 14.3-1.8 5.2-1.9 6-0.5 8.3 1.1 1.9 4.8 3.9 14.5 7.8 7.2 2.8 15.7 6.8 19 8.8 3.3 2 8.3 6.1 11.1 9 2.8 2.9 5.7 6.4 6.6 7.8 0.8 1.4 2.5 5.4 3.7 9 1.3 3.6 3.6 13 5.1 21 1.6 8 3.6 19.7 4.4 26 0.9 6.3 2 17.1 2.6 24 0.5 6.9 1.4 22.9 2 35.5 0.6 12.6 1.5 28.4 2.1 35 0.6 6.6 2.1 19.6 3.4 29 1.3 9.4 2.8 22.6 3.4 29.5 0.6 6.9 1.5 24.9 2.1 40 0.6 15.1 1.9 34.7 3 43.5 1 8.8 2.2 20.5 2.6 26 0.4 6.1 0.2 13.5-0.5 19-0.7 5-2.6 13-4.2 18-1.7 5-4.6 11.9-6.5 15.5-1.9 3.6-6.3 10.3-9.8 15-3.5 4.7-10.6 12.7-15.7 17.8-5.2 5.1-26.3 26-46.9 46.5-20.6 20.5-97.6 96.8-171 169.4-73.4 72.6-155.9 154.6-183.3 182.2-47.4 47.7-50 50.3-56.9 53.5-4 1.9-10.9 4.4-15.3 5.7-6.5 1.8-10.4 2.3-21 2.2-9.9 0-14.9-0.5-21-2.2-4.4-1.1-12.7-4.4-18.5-7.2-10.2-5-10.9-5.5-24.5-19.7-7.7-8-73.8-74.7-146.9-148.1-73.1-73.5-138.4-139.5-145-146.6-6.7-7.2-15.6-17.1-19.9-22-4.3-5-8.9-11.3-10.3-14-1.7-3.5-2.7-8.2-3.5-16-0.9-8.5-0.9-12.8 0.1-19 0.6-4.4 2.1-10.5 3.3-13.5 1.1-3 4.4-8.9 7.1-13 3.6-5.3 20.6-23.2 59.1-62 29.7-30 131.8-132.5 227-227.9 95.2-95.3 175.9-175.7 179.5-178.6 3.6-2.9 11.7-8.9 18-13.4 6.3-4.5 13.5-9.1 16-10.2 3.2-1.5 7.3-2.3 14.5-2.6 5.5-0.3 20.4 0 33 0.6 12.7 0.7 30.2 1.9 39 2.7 8.8 0.8 23 2.3 31.5 3.4 8.5 1 24.3 2.6 35 3.5 10.7 0.8 36.2 2.7 56.5 4.1 20.3 1.4 41.7 2.8 47.5 3.1 9.6 0.5 10.7 0.4 13.3-1.6 1.7-1.3 5.7-8.3 11.2-19.3 4.6-9.5 10.7-21.1 13.5-25.8 2.8-4.7 9-14 13.8-20.7 4.8-6.7 13.2-17.5 18.7-24 5.5-6.5 12.7-15.2 16-19.3 3.3-4.1 13.2-14.7 22-23.6 8.8-8.9 20.3-19.6 25.5-23.9 5.2-4.3 13.5-10.5 18.5-13.8 5-3.2 11.9-7.4 15.5-9.2 3.6-1.8 13.3-6 21.5-9.3 8.3-3.3 17.9-7 21.5-8.2 3.6-1.2 11.5-3.3 17.5-4.5 6.9-1.5 14.5-2.4 20.5-2.4zm-306.4 307.9c-3.2 1.9-8.1 5.5-10.8 8-2.8 2.5-6.8 7.2-9 10.5-2.2 3.3-4.9 9.2-6 13-1.8 5.8-2.2 9.6-2.2 22 0 8.6 0.5 17.1 1.3 20 0.6 2.8 2.9 8.6 5.1 13 2.3 4.8 5.6 9.7 8.2 12.2 2.4 2.3 7.9 6.3 12.3 9 4.4 2.7 11.4 6 15.5 7.3 6.3 2.1 9.2 2.5 18 2.3 6.9-0.1 13.2-0.8 18.5-2.2 4.4-1.2 11.2-3.6 15-5.5 4-2 9.3-5.7 12.4-8.8 3-2.9 6.9-7.5 8.7-10.3 1.7-2.7 4.2-7.5 5.4-10.5 1.2-3 2.9-7.7 3.6-10.5 0.8-2.7 1.7-8.6 2-13 0.4-4.5 0.1-11.2-0.5-15.2-0.6-4-2.1-9.9-3.2-13-1.6-4.4-3.7-7.4-8.5-12-3.5-3.5-7.3-6.3-8.4-6.3q-2 0-3.5 3.5c-0.8 1.9-2.2 8.6-3.1 14.8-0.9 6.1-2 12.1-2.6 13.2-0.6 1.1-2.2 3.2-3.7 4.8-1.4 1.5-4.9 3.5-7.6 4.4-3.3 1-6.5 1.3-9.3 0.9-2.3-0.3-6-1.5-8.2-2.6-2.2-1.1-5.1-3.5-6.5-5.2-1.3-1.8-3.4-5.7-4.5-8.5-1.4-3.7-2-7.7-2-12.8 0-6.3 0.6-8.9 3.5-16 1.9-4.7 3.5-9.4 3.5-10.5 0-1.1-1-2.7-2.3-3.5-1.2-0.8-4-1.5-6.2-1.5-2.2 0.1-7.4 1.3-11.5 2.8-4.1 1.5-10.2 4.3-13.4 6.2z"/></svg>