<svg version="1.2" xmlns="http://www.w3.org/2000/svg" viewBox="0 0 988 988" width="988" height="988"><style>.a{fill:#fff}</style><path fill-rule="evenodd" class="a" d="m501 0.5c15.1 0.2 28.6 0.6 30 0.8 1.4 0.3 5.9 0.8 10 1.2 4.1 0.3 8.8 0.8 10.5 1 1.6 0.2 9.7 1.4 18 2.5 8.2 1.2 19.9 3.2 26 4.6 6 1.3 14.4 3.2 18.5 4.3 4.1 1 11.5 3 16.5 4.4 4.9 1.5 16.6 5.3 26 8.6 9.3 3.2 21 7.6 26 9.6 4.9 2 15.7 7 24 11.1 8.2 4 18.8 9.4 23.5 12 4.7 2.5 11.2 6.2 14.5 8.2 3.3 1.9 11.8 7.4 19 12.1 7.1 4.7 18.4 12.5 25 17.5 6.6 4.9 15.1 11.4 19 14.5 3.8 3 9 7.3 11.5 9.5 2.5 2.1 9.9 9.2 16.5 15.7 6.6 6.5 15.2 15.1 19.1 19.1 3.8 4 11.3 12.2 16.5 18.3 5.2 6 11.7 13.9 14.5 17.5 2.7 3.6 10.2 14.4 16.8 24 6.5 9.6 14.4 22 17.6 27.5 3.2 5.5 10 18.5 15.3 29 5.2 10.4 11.7 24.4 14.4 31 2.8 6.6 7.3 18.5 10 26.5 2.8 8 6.2 18.1 7.6 22.5 1.4 4.4 4.1 14.3 6.1 22 1.9 7.7 4.6 20.3 6 28 1.4 7.7 3 17.4 3.5 21.5 0.6 4.1 1.2 9.5 1.5 12 0.3 2.5 1.3 12.8 2.2 23 1.3 14.5 1.5 24 1 43.5-0.4 13.7-0.9 27.5-1.2 30.5-0.3 3-1.4 13.6-2.5 23.5-1.2 9.9-3.4 24.5-5 32.5-1.6 8-4.9 21.7-7.4 30.5-2.4 8.8-6.2 21.4-8.4 28-2.1 6.6-7.2 20.1-11.2 30-4 9.9-11.2 25.6-15.9 35-4.8 9.3-12.9 24-18 32.5-5.1 8.5-12.7 20.4-16.9 26.5-4.1 6-10.9 15.5-15 21-4.1 5.5-10.6 13.8-14.5 18.5-3.8 4.7-16 17.5-27.1 28.6-11 11-25.4 24.6-32 30-6.6 5.5-15.8 12.9-20.5 16.4-4.7 3.5-12.3 9.1-17 12.3-4.7 3.2-11.4 7.8-15 10.1-3.6 2.4-11.9 7.5-18.5 11.3-6.6 3.9-19.7 10.9-29 15.5-9.4 4.7-20.8 10.2-25.5 12.1-4.7 2-13 5.4-18.5 7.5-5.5 2.1-15.9 5.7-23 8-7.2 2.3-18.6 5.7-25.5 7.7-6.9 1.9-17.5 4.6-23.5 6-6.1 1.3-17.1 3.3-24.5 4.4-7.4 1.1-18.2 2.5-24 3.1-5.8 0.6-15.2 1.5-21 1.9-5.8 0.5-20.4 0.9-32.5 0.9-12.1 0-29.2-0.6-38-1.4-8.8-0.7-19.8-1.8-24.5-2.4-4.7-0.6-15.3-2.2-23.5-3.6-8.3-1.3-22-4.3-30.5-6.5-8.5-2.2-23.4-6.5-33-9.6-9.6-3-25.4-8.6-35-12.5-9.6-3.8-26.5-11.6-37.5-17.2-11-5.7-25.2-13.4-31.5-17.2-6.4-3.8-14.8-9.2-18.9-11.9-4-2.8-14.3-10.2-22.9-16.7-8.6-6.4-16.6-12.4-17.7-13.5-1.1-1-6.1-5.2-11-9.3-5-4.1-17.2-15.8-27.3-26-10.1-10.2-22.7-23.8-28-30.3-5.3-6.6-13.5-16.9-18.1-23-4.6-6.2-12-16.8-16.6-23.7-4.6-6.9-10.7-16.8-13.7-22-3-5.2-6.6-11.5-8-14-1.3-2.5-6.8-13.6-12.1-24.8-5.3-11.1-12.1-26.6-15.1-34.5-2.9-7.8-6.5-17.8-7.9-22.2-1.4-4.4-3.9-13-5.6-19-1.6-6.1-4.1-15.5-5.5-21-1.4-5.5-3.4-15.2-4.5-21.5-1.1-6.3-2.7-17.4-3.6-24.5-0.8-7.2-2.2-19.8-2.9-28-0.8-8.3-1.4-25.4-1.4-38 0-14.9 0.7-29.7 1.9-42 1-10.5 2.6-24 3.4-30 0.9-6.1 2.8-16.9 4.2-24 1.4-7.2 4.9-21.8 7.9-32.5 2.9-10.7 6.7-23.3 8.3-28 1.6-4.7 4.1-11.7 5.6-15.5 1.4-3.9 3.4-9 4.4-11.5 1.1-2.5 3.1-7.4 4.6-11 1.5-3.6 6.1-13.5 10.2-22 4.1-8.5 10.4-20.7 14-27 3.7-6.3 11.8-19.2 18.2-28.5 6.3-9.4 12.6-18.6 14-20.5 1.5-1.9 8-10.3 14.5-18.5 7.3-9.2 19.7-22.7 32-35.1 11.1-11 25.9-24.9 33.1-30.8 7.1-5.9 17-13.8 22-17.6 4.9-3.7 14.7-10.6 21.7-15.4 7.1-4.7 20.3-12.9 29.5-18.2 9.3-5.3 23.5-12.9 31.8-16.9 8.2-4.1 22.4-10.3 31.5-13.8 9.1-3.5 21.4-8.1 27.5-10 6-2 16.6-5.2 23.5-7 6.9-1.9 16.8-4.4 22-5.5 5.2-1.2 13.1-2.8 17.5-3.6 4.4-0.9 15.2-2.5 24-3.6 8.8-1.1 22.7-2.7 31-3.5 10.3-0.9 23.6-1.3 42.5-1zm-59.3 67.6c-3.7 1.9-10.9 6.3-15.9 9.9-5.1 3.6-13.1 10.3-17.8 15-4.7 4.7-11.9 12.5-16.1 17.5-4.1 4.9-10.2 12.6-13.5 17-3.3 4.4-8.3 11.4-11 15.5-2.8 4.1-7.9 12.2-11.4 18-3.5 5.8-11.8 21.3-18.5 34.5-6.7 13.2-14.4 29.8-17.2 37-2.8 7.1-5.3 14-5.7 15.2-0.4 1.7-0.1 2.5 1.1 2.8 1 0.3 9.9 1.9 19.8 3.5 9.9 1.6 27.2 4 38.5 5.4 11.3 1.4 24.5 2.8 29.5 3.1 4.9 0.4 9.9 0.8 11 1 1.1 0.1 9.4 0.7 18.5 1.1 9.1 0.5 20.1 0.9 24.5 0.9h8l0.5-205.5c-4.3 0.1-8.2 1.1-11.5 2.4-3.3 1.2-9 3.8-12.8 5.7zm80.1 95.8l0.2 102.6c25.2-1.2 34.7-1.7 37.5-2 2.7-0.3 11.3-1 19-1.5 7.7-0.6 20.3-1.8 28-2.6 7.7-0.8 19.8-2.4 27-3.5 7.1-1.1 17.9-2.8 24-3.9 6-1 12.2-2.1 13.7-2.4l2.8-0.6c-4.7-12.8-7.9-21-10.2-26.5-2.2-5.5-5.4-12.7-7-16-1.7-3.3-7.3-13.9-12.5-23.5-5.2-9.6-11.5-21.1-14.1-25.5-2.6-4.4-6.8-10.9-9.2-14.5-2.5-3.6-7.7-10.8-11.6-16-3.9-5.2-10.4-13.6-14.6-18.5-4.1-5-11.1-12.4-15.5-16.5-4.3-4.1-11.5-10.2-15.9-13.5-4.3-3.3-12-8.1-16.9-10.7-5-2.6-11.7-5.6-15-6.8-3.3-1.1-6.5-2-7.1-2-0.6 0-1.4 0.3-1.9 0.6-0.4 0.4-0.7 46.9-0.7 103.3zm-213.3-65.2c-7.2 3.3-18.9 9.3-26 13.3-7.2 4-16.4 9.3-20.5 11.8-4.1 2.5-10.7 6.8-14.5 9.6-3.9 2.7-12.9 9.5-20 15-7.2 5.5-16.6 13.2-21 16.9-4.4 3.8-15.3 14.4-24.3 23.6-8.9 9.1-16.5 17.5-16.8 18.6-0.3 1.1-0.4 2.1-0.2 2.2 0.2 0.2 6.8 2.5 14.8 5.3 8 2.7 19.9 6.7 26.5 8.9 6.6 2.1 17.8 5.6 25 7.6 7.1 2.1 14.8 4.1 17 4.6 2.2 0.4 5.3 0.9 7 0.9 2.4 0.1 3.2-0.5 4.2-2.7 0.6-1.5 2.4-6.2 3.9-10.3 1.5-4.1 5.6-13.8 9.1-21.5 3.6-7.7 10.3-21.9 15.1-31.5 4.7-9.6 10.9-21.6 13.7-26.5 2.9-5 7.7-13.1 10.7-18 3-5 9-14 13.3-20 4.3-6.1 9.1-12.6 10.6-14.5 1.6-1.9 2.5-3.9 2.1-4.3-0.4-0.4-0.9-0.7-1.2-0.7-0.3 0.1-3.9 1.4-8 2.9-4.1 1.6-13.4 5.5-20.5 8.8zm346.5-3.7c2.2 3 3.9 6.1 4 6.7 0 0.7 0.4 1.4 0.9 1.5 0.4 0.2 5.1 6.8 10.3 14.8 5.3 8 11.9 18.5 14.7 23.5 2.9 4.9 10.6 20 17.3 33.5 6.6 13.5 13.9 28.5 16.1 33.5 2.1 4.9 5.6 13.3 7.7 18.5 3.1 7.9 4.2 9.6 6.1 9.8 1.3 0.2 8.7-1.3 16.4-3.3 7.7-2 19.2-5.2 25.5-7.1 6.3-2 19.6-6.3 29.5-9.6 9.9-3.3 18.4-6.3 18.8-6.7 0.5-0.3 0.2-2-0.6-3.6-0.9-1.7-4.8-6.6-8.9-11-4-4.4-14.1-14.2-22.3-21.8-8.3-7.5-20.4-18-27-23.2-6.6-5.3-17.6-13.4-24.5-18-6.9-4.6-16.8-10.9-22-13.9-5.2-3.1-16.7-9.3-25.5-13.7-8.8-4.5-21-10.1-27-12.5-6.1-2.5-11.3-4.4-11.7-4.4-0.4 0-0.9 0.3-1.2 0.7-0.3 0.5 1.3 3.3 3.4 6.3zm-542.8 186.5c-5.2 9.3-11.7 21.7-14.4 27.5-2.8 5.8-6.3 13.9-8 18-1.6 4.1-5 12.9-7.4 19.5-2.4 6.6-5.7 16.5-7.4 22-1.7 5.5-4.4 15.2-6 21.5-1.6 6.3-3.8 16.2-5 22-1.2 5.8-3 17-4 25-1 8-2.2 17.8-2.7 21.7l-0.8 7.3c121.7 0.4 157.1 0.5 157.2 0.5 0.2 0 0.5-4.1 0.8-9 0.4-5 1.3-17.8 2.1-28.5 0.8-10.7 1.7-21.5 2-24 0.2-2.5 1.2-9.2 2-15 0.8-5.8 2.2-13.9 2.9-18 0.8-4.1 2.8-14.9 4.5-24 1.7-9.1 4.2-21.7 5.6-28 1.4-6.3 3.4-14.7 4.6-18.5 1.1-3.9 1.9-7.7 1.6-8.5-0.3-0.8-3.4-2.3-6.9-3.3-3.5-1.1-16.8-5-29.4-8.8-12.7-3.8-26.8-8.3-31.5-10-4.7-1.7-11.7-4.2-15.5-5.6-3.9-1.3-11.2-4-16.3-5.9-5-1.9-10.1-3.4-11.2-3.4-1.2 0-3 1.6-4.7 4.2-1.4 2.4-6.9 11.9-12.1 21.3zm707.8-11.8c-10.2 3.5-25.9 8.6-35 11.3-9.1 2.7-21 6.1-26.5 7.5-5.5 1.5-10.3 3-10.7 3.3-0.3 0.4 0.9 6.8 2.8 14.2 1.9 7.4 5.3 22.3 7.5 33 2.2 10.7 5.1 26.2 6.5 34.5 1.4 8.2 2.9 17.7 3.4 21 0.5 3.3 1.2 8.7 1.5 12 0.3 3.3 1 9.6 1.5 14 0.5 4.4 1.2 13.8 1.6 21 0.3 7.1 0.7 14.3 0.9 16 0.2 1.6 0.4 4.2 0.4 5.7l0.1 2.8h157c-0.9-12-1.8-20.7-2.6-27-0.8-6.3-2.4-16-3.5-21.5-1.1-5.5-3.6-17-5.6-25.5-1.9-8.5-5.9-22.9-8.9-32-3.1-9.1-7.8-22.4-10.7-29.5-2.8-7.2-8.3-19.5-12.3-27.5-3.9-8-10.8-20.8-15.3-28.5-4.6-7.7-9.2-15-10.4-16.3-1.2-1.2-2.7-2.2-3.2-2.2-0.6 0.1-5.3 1.7-10.5 3.6-5.2 2-17.8 6.5-28 10.1zm-530.4 58.3c-2.5 10.2-5.1 21.9-6 26-0.8 4.1-2.1 12.1-3 17.7-0.9 5.7-2.3 14.7-3.1 20-0.8 5.4-2.2 15.4-3 22.3-0.7 6.9-1.9 21.3-2.5 32-0.6 10.7-1 19.6-0.8 19.7 0.2 0.1 43.9 0.3 97.3 0.3l97 0.1c0.4-110.5 0.1-142.9-0.3-143.3-0.4-0.4-7-0.8-14.7-0.9-7.7-0.1-18.7-0.6-24.5-1-5.8-0.4-13.9-1-18-1.3-4.1-0.4-10.2-0.9-13.5-1.2-3.3-0.3-13-1.4-21.5-2.5-8.5-1.1-20-2.6-25.5-3.4-5.5-0.8-11.8-1.7-14-2-2.2-0.4-10.5-1.7-18.5-3.1-8-1.3-15.5-2.6-16.7-2.8-1.7-0.4-2.5 0.2-3.2 2.2-0.6 1.5-3 11-5.5 21.2zm376.9-19.5c-2.2 0.3-9.2 1.4-15.5 2.5-6.3 1-16.7 2.6-23 3.4-6.3 0.8-16 1.9-21.5 2.5-5.5 0.6-17.4 1.8-26.5 2.7-9.1 0.8-25.1 1.8-35.5 2.1-10.5 0.3-19.8 1-20.8 1.4-1.6 0.8-1.7 5.3-1.7 71.9v71h195.5c-1.2-24.4-3.1-43.9-5-59-1.9-15.1-4.8-34.3-6.4-42.5-1.7-8.3-4.3-20.6-5.9-27.5-1.7-6.9-4.1-16.8-5.6-22-1.4-5.2-2.9-9.8-3.4-10.1-0.4-0.3-5.3 0.3-10.7 1.2-5.5 1-11.8 2.1-14 2.4zm-609.2 221.9c0.5 3.9 1.5 12.7 2.3 19.6 0.8 6.9 2.4 17.2 3.5 23 1.1 5.8 3.6 16.8 5.5 24.5 1.9 7.7 5.8 20.7 8.6 29 2.8 8.2 7.8 22 11.1 30.5 3.3 8.5 8.7 20.9 12 27.5 3.3 6.6 8.6 16.7 11.9 22.5 3.4 5.8 8 13.8 10.4 17.7 3.6 6 4.9 7.3 6.9 7.3 1.4 0 7.1-1.8 12.7-3.9 5.7-2.2 19.3-7.1 30.3-10.9 11-3.9 27.6-9.3 37-12 9.3-2.8 19.9-5.8 23.5-6.7 3.6-0.9 6.8-1.9 7.2-2.1 0.5-0.2-0.4-4.6-1.8-9.7-1.4-5-3.6-13.7-5-19.2-1.3-5.5-4.2-19.2-6.4-30.5-2.2-11.3-4.8-26.8-5.9-34.5-1.1-7.7-2.3-16.7-2.6-20-0.4-3.3-0.8-7.1-1.1-8.5-0.2-1.4-0.8-10.6-1.4-20.5-0.5-9.9-1.1-20.9-1.3-24.5l-0.3-6.5c-120.9-0.4-156.5-0.2-157 0.2-0.5 0.3-0.5 3.6-0.1 7.7zm214.1 5.3c0.4 7.6 0.9 16.5 1.2 19.8 0.3 3.3 1.4 13.9 2.5 23.5 1.1 9.6 3.1 24.2 4.5 32.5 1.4 8.2 3.4 19 4.4 24 1.1 4.9 3.3 14.8 5 22 1.7 7.1 4 16 5 19.7 1.1 3.8 2.2 6.8 2.5 6.8 0.3 0 6.5-1.1 13.7-2.4 7.3-1.4 19.6-3.4 27.3-4.5 7.7-1.2 24.1-3.2 36.5-4.6 12.4-1.4 23.8-2.7 25.5-3 1.6-0.2 6.6-0.7 11-1 4.4-0.4 9.1-0.9 10.5-1.1 1.4-0.2 11.5-0.6 22.5-0.9 11-0.4 20.6-0.8 21.2-1.1 1-0.3 1.3-15.6 1.3-71.9v-71.5h-195.3zm250.9 57.9c0.2 62.8 0.4 71.7 1.7 71.9 0.8 0.1 10.5 0.5 21.5 0.9 11 0.3 21.4 0.8 23 1.1 1.7 0.2 8.2 0.8 14.5 1.4 6.3 0.6 19.4 2 29 3.1 9.6 1.1 23.6 2.9 31 4 7.4 1.1 21.5 3.4 31.2 5.2 9.7 1.8 17.9 3 18.2 2.8 0.4-0.3 2-6.4 3.6-13.6 1.7-7.1 3.9-16.6 5-20.9 1.1-4.4 2.8-12.8 3.9-18.5 1.1-5.8 2.7-14.6 3.5-19.5 0.8-5 1.8-11.1 2.1-13.5 0.3-2.5 0.8-6.1 1-8 0.3-2 0.7-5.4 1-7.6 0.3-2.2 1.2-10 1.9-17.4 0.8-7.5 1.7-20.2 2-28.3l0.6-14.7h-195zm250.8-51.7c-0.6 9.6-1.8 24.2-2.6 32.5-0.9 8.2-3.6 27.1-6.1 42-2.4 14.8-6.5 35.8-8.9 46.5-2.4 10.7-5.1 21.7-5.9 24.5-0.8 2.7-1.5 5.9-1.5 7-0.1 1.7 1.9 2.5 14.2 5.9 7.8 2.1 26.6 8 41.8 13.1 15.1 5 33.7 11.4 41.3 14.1l13.9 4.9c3.3-3.9 6.9-9.5 10.2-15 3.2-5.5 6.8-11.6 8.1-13.5 1.2-1.9 4-7.1 6.2-11.5 2.2-4.4 6.7-14.1 10-21.5 3.3-7.4 7.9-18.7 10.2-25 2.4-6.3 5.5-14.9 7.1-19 1.5-4.1 4.6-14.7 6.9-23.5 2.3-8.8 5.4-23.2 7-32 1.6-8.8 3.2-18.3 3.5-21 0.3-2.8 1-9.5 1.5-15 0.6-5.5 1-10.8 1-11.8 0.1-1.6-4.3-1.7-78-1.7-61.5 0-78.1 0.3-78.4 1.2-0.2 0.7-0.9 9.2-1.5 18.8zm-338.5 181.4c-6.6 0.4-19.9 1.3-29.5 2.1-9.7 0.8-22 1.9-27.5 2.5-5.5 0.5-12.1 1.3-14.5 1.6-2.5 0.3-13.7 2.1-24.8 4-11.1 1.9-20.6 3.4-21 3.4-0.4 0-1.2 0.4-1.8 0.9-0.8 0.6 1.1 6.8 5.8 19.7 4.7 12.6 11 26.8 18.9 42.4 6.5 12.9 15.8 29.8 20.6 37.5 4.9 7.7 13.3 20.1 18.8 27.5 5.5 7.4 15.4 18.9 22 25.6 6.6 6.7 15.8 14.9 20.5 18.4 4.6 3.4 13.4 8.6 19.5 11.5 6 2.9 13.2 5.8 16 6.5 2.7 0.6 5.7 1.4 6.7 1.6 1.7 0.4 1.7-5 1.6-103.2l-0.1-103.5c-14.5 0.3-18.8 0.5-18.9 0.6-0.2 0.1-5.7 0.5-12.3 0.9zm87.5 102.1c0 68.3 0.3 103.5 1 103.5 0.5 0 4.7-1.2 9.2-2.6 4.5-1.4 12.8-5.1 18.3-8.2 5.5-3 13.1-8.1 16.9-11.1 3.9-3.1 11.3-9.7 16.4-14.6 5.2-5 12.8-13.3 17-18.5 4.2-5.2 10.3-13.1 13.5-17.5 3.2-4.4 8.2-11.6 11.1-16 2.8-4.4 7.5-12.1 10.3-17 2.8-5 7.6-14 10.6-20 3.1-6.1 6.9-13.3 8.4-16 1.6-2.8 6.4-14.5 10.7-26 4.3-11.6 8-21.5 8.2-22 0.3-0.6-0.8-1.4-2.3-1.8-1.6-0.5-5.2-1.3-8.1-1.8-2.9-0.5-7.8-1.4-11-1.9-3.2-0.6-11.4-1.9-18.2-3-6.9-1.1-16.6-2.4-21.5-2.9-5-0.6-14.9-1.5-22-2.1-7.2-0.6-15.1-1.2-17.5-1.5-2.5-0.3-12.2-0.9-21.5-1.5-9.4-0.5-19.9-1-23.3-1h-6.2zm203.7-63.5c-2 5.2-5.2 13.5-7.2 18.5-2.1 4.9-10.4 22.5-18.5 39-10.5 21.1-17.5 34-23.9 43.5-5 7.4-10.3 15.3-11.9 17.5-1.5 2.2-4.9 7.5-7.5 11.7-3.4 5.5-4.3 7.8-3.2 7.8 0.8 0 4.7-1.3 8.7-2.9 4-1.6 12-5.1 17.8-7.9 5.7-2.7 18.3-9.4 28-14.9 9.6-5.5 20.4-11.9 24-14.1 3.5-2.3 9.3-6.1 12.7-8.4 3.5-2.4 10-7.2 14.6-10.8 4.5-3.6 12-9.6 16.7-13.5 4.6-3.8 16.9-15.4 27.2-25.7 10.3-10.4 19-19.8 19.3-21.1 0.3-1.2 0.4-2.3 0.3-2.3-0.2-0.1-14.1-4.7-30.8-10.2-16.8-5.5-35.9-11.4-42.5-13-6.6-1.7-13.7-3.3-15.7-3.6-2-0.4-3.9-0.3-4.2 0.1-0.3 0.4-2 5.1-3.9 10.3zm-502.7-2.1c-4.2 1.3-18.7 5.8-32.3 10.2-13.6 4.3-25 8.3-25.2 8.9-0.3 0.5 0.5 2.5 1.8 4.2 1.3 1.8 8.6 9.6 16.2 17.4 7.7 7.7 19.4 18.5 26 24.1 6.6 5.5 17.4 14 24 19 6.6 4.9 16.5 11.9 22 15.4 5.5 3.6 14.2 8.9 19.5 11.9 5.2 2.9 10.6 6.1 12 7.1 1.3 0.9 9 5 17 9 7.9 3.9 18.2 8.5 22.7 10 4.5 1.6 8.3 2.6 8.3 2.1 0-0.4-1.5-3-3.4-5.7-1.8-2.8-6.4-9.5-10.3-15-3.9-5.5-9.9-14.7-13.3-20.5-3.5-5.8-10.9-19.7-16.6-31-5.6-11.3-13.4-27.5-17.2-36-3.9-8.5-9-20.8-11.4-27.3-4.2-11.5-4.4-11.8-7.3-11.7-1.7 0.1-8 1.4-14 2.9-6.1 1.6-14.4 3.8-18.5 5z"/></svg>