<svg version="1.2" xmlns="http://www.w3.org/2000/svg" viewBox="0 0 1139 1144" width="1139" height="1144"><style>.a{fill:#fff}</style><path class="a" d="m264 12.5c-3.3 6.9-6.1 12.8-6.1 13 0.1 0.3-4.2 9.2-9.5 19.7-5.3 10.6-13.2 26.9-17.6 36.3-4.4 9.3-10.2 21.5-12.8 27-2.6 5.5-10.2 21.1-16.9 34.7-6.7 13.7-12.1 25-12.1 25.3 0 0.3-1.7 4.1-3.8 8.6l-3.7 8.1c-50.4 24.9-74.7 36.8-86.5 42.6-11.8 5.7-27.8 13.5-35.5 17.2-7.7 3.7-24.2 11.8-36.8 17.9-12.5 6.1-22.7 11.5-22.7 12.1 0 0.5 3.9 2.9 8.7 5.1 4.9 2.3 22.1 10.7 38.3 18.6 16.2 8 37.1 18.1 46.5 22.5 9.3 4.4 19.2 9.3 22 10.9 2.7 1.5 17.8 8.9 33.5 16.4 15.7 7.6 29.6 14.7 30.9 15.9 1.3 1.1 3.9 5.5 5.9 9.6 1.9 4.1 4.7 10.2 6.2 13.5 1.5 3.3 10.1 21.1 19 39.5 8.9 18.4 19.3 39.8 23 47.5 3.7 7.7 10.3 21.4 14.7 30.5 4.4 9.1 9.3 19.4 10.8 23 1.6 3.6 4.5 9.6 6.4 13.4 2 3.8 4 7.1 4.6 7.3 0.5 0.2 2.5-2.7 4.4-6.4 1.9-3.8 7.8-16 13.1-27.3 5.4-11.3 13.7-28.6 18.5-38.5 4.7-9.9 11.6-24.3 15.3-32 3.6-7.7 10.6-22.1 15.5-32 4.9-9.9 12-24.3 15.7-32 3.7-7.7 7.5-14.7 8.6-15.6 1-0.9 3.7-2.5 5.9-3.7 2.2-1.1 23.7-11.8 47.7-23.6 24.1-11.9 44-21.6 44.3-21.6 0.3 0 12.5-6 27.3-13.3 14.7-7.2 33.1-16.4 41-20.2 7.8-3.9 14.2-7.3 14.2-7.8 0-0.4-13.4-7.3-29.8-15.3-16.3-8-35.8-17.6-43.2-21.1-7.4-3.6-23-11.2-34.5-16.8-11.6-5.7-32.5-15.9-46.5-22.8-14-6.8-26.3-13.3-27.2-14.3-0.9-1.1-3.3-5.5-5.3-9.9-2.1-4.4-8.4-17.7-14.2-29.5-5.8-11.8-13.4-27.4-16.8-34.5-3.5-7.2-12.7-26.2-20.4-42.3-7.8-16-14.1-29.4-14.1-29.7 0-0.3-4.1-8.8-9-19-5-10.2-9.4-18.7-9.9-19-0.5-0.3-3.7 5.1-7.1 12zm598.7 298c-3 6-8.6 17.7-12.5 26-3.8 8.2-11.6 24.2-17.2 35.5-5.6 11.3-12.8 26.1-16 33-3.1 6.9-11.4 24-18.2 38-6.9 14-14 28.8-15.9 32.9l-3.4 7.5c-57.4 28.1-81.9 40.1-91.5 44.8-9.6 4.7-22 10.7-27.5 13.3-5.5 2.6-17.2 8.2-26 12.5-8.8 4.2-20.8 10-26.8 12.9-5.9 2.8-10.6 5.6-10.5 6.2 0.2 0.5 3.7 2.8 7.8 4.9 4.1 2.2 16 8 26.5 13 10.4 5.1 28 13.5 39 18.7 11 5.3 38.2 18.5 60.5 29.4 22.3 10.9 42.1 20.7 44 21.6 2.5 1.3 4.3 3.4 6.5 7.8 1.7 3.3 7.1 14.5 12.2 25 5 10.4 20.5 42.4 34.3 71 13.9 28.6 26.5 54.9 28 58.5 1.6 3.6 4.8 10.3 7.2 15 2.3 4.7 4.7 8.5 5.2 8.5 0.5 0 3.9-6.5 7.6-14.5 3.7-8 12.6-26.5 19.8-41.3 7.3-14.7 13.2-26.9 13.2-27.2 0-0.3 4.8-10.3 10.6-22.3 5.8-11.9 13.2-27.1 16.4-33.7 3.2-6.6 9-18.8 13-27 3.9-8.3 7.9-15.8 8.8-16.9 0.9-1 16.8-9.3 35.2-18.3 18.4-9.1 39.3-19.3 46.5-22.8 7.1-3.5 25.1-12.3 40-19.5 14.8-7.3 34.3-16.8 43.2-21.1 9-4.4 16.3-8.4 16.3-8.9 0-0.6-1.5-1.8-3.3-2.7-1.7-0.9-7.7-3.8-13.2-6.4-5.5-2.5-19.2-9.1-30.5-14.6-11.3-5.5-23-11.2-26-12.5-3-1.4-22.2-10.8-42.5-20.8-20.4-10-42.9-21.1-50-24.6-7.2-3.6-13.7-7-14.6-7.7-0.8-0.7-2.3-2.6-3.2-4.2-0.9-1.7-7.8-15.6-15.3-31-7.5-15.4-19.9-41.1-27.6-57-7.7-16-17.2-35.5-21-43.5-3.8-8-9.5-19.9-12.6-26.5-3.1-6.6-6.9-14.2-8.4-17l-2.6-5zm-439.4 287.7c-0.5 0.7-2.8 5.4-5.1 10.3-2.3 4.9-5.4 11.9-7.1 15.5-1.6 3.6-5.7 12.4-9.1 19.5-3.4 7.2-9.4 19.4-13.1 27.2-3.8 7.9-6.9 14.5-6.9 14.8 0 0.3-3.4 7.6-7.6 16.3-4.2 8.6-11.7 24.2-16.7 34.7-5.1 10.4-12.2 24.7-15.7 31.8-6.4 12.7-6.6 13-12 15.8-3.1 1.5-23.3 11.6-45 22.2-21.8 10.7-53 26-69.5 34-16.5 8-36.8 17.5-45 21.2-8.3 3.7-15.6 7.1-16.3 7.6-0.7 0.5-1 1.4-0.7 1.9 0.2 0.6 4.4 2.8 9.2 5.1 4.8 2.2 12.6 5.8 17.3 7.9 4.6 2 21 9.9 36.2 17.4 15.3 7.5 28 13.6 28.3 13.6 0.2 0 20.8 10.1 45.7 22.4l45.3 22.5c9.5 19.8 15 31.2 18.3 38.1 3.2 6.9 10.1 21.3 15.2 32 5 10.7 15.6 32.8 23.4 49 7.9 16.2 16.5 34.2 19.2 40 2.7 5.8 6.5 13.6 8.5 17.5 2.1 3.8 4.2 7.1 4.8 7.2 0.6 0.2 3.1-4.1 5.7-9.4 2.5-5.4 10.9-23.1 18.6-39.3 7.7-16.2 16-33.8 18.5-39 2.4-5.2 14-29 25.6-52.9l21.2-43.4c15.5-7.1 32.8-15.6 48.5-23.5 15.6-7.9 35-17.4 43-21.2 7.9-3.7 23.2-11.1 34-16.3 10.7-5.2 27.3-13.2 37-17.9 9.6-4.6 17.8-8.9 18.2-9.6 0.5-0.8-4.9-3.9-18-10.3-10.3-5-29.1-14.2-41.7-20.4-12.7-6.2-31.6-15.4-42-20.3-10.5-4.9-28.9-13.9-41-19.9-12.1-6.1-24.7-12.3-28-13.8-3.3-1.6-7.4-3.8-9-4.9-1.9-1.4-4.4-5.3-7.4-11.6-2.4-5.2-8.6-18.3-13.9-29-5.2-10.7-12.7-26.5-16.7-35-4-8.5-11.2-23.5-15.9-33.3-4.7-9.7-8.6-17.8-8.6-18 0-0.1-3.3-7.2-7.4-15.7-4.1-8.5-8.6-18.2-10.1-21.5-1.5-3.3-3.9-8.7-5.2-12-1.4-3.3-3.1-6.6-3.7-7.3-0.6-0.7-1.4-1.3-1.8-1.2-0.3 0-1 0.6-1.5 1.2z"/></svg>